<?xml version="1.0" encoding="utf-8"?>
<!-- Generator: Adobe Illustrator 22.0.1, SVG Export Plug-In . SVG Version: 6.00 Build 0)  -->
<svg version="1.1" id="Capa_1" xmlns="http://www.w3.org/2000/svg" xmlns:xlink="http://www.w3.org/1999/xlink" x="0px" y="0px"
	 viewBox="0 0 500 300" style="enable-background:new 0 0 500 300;" xml:space="preserve">
<style type="text/css">
	.st0{fill:none;stroke:#E72F49;stroke-miterlimit:10;}
	.st1{fill:#E72F49;}
	.st2{fill:#1E2D4F;}
	.st3{font-family:'ArialUnicodeMS';}
	.st4{font-size:10px;}
</style>
<g>
	<g>
		<path class="st0" d="M351.1,137.7c-15.6,1.1-28.6-11.9-29.9-27.4"/>
		<g>
			<polygon class="st1" points="318.3,110.9 324.3,110.6 321.1,107.7 			"/>
		</g>
	</g>
</g>
<path class="st2" d="M469,127.1c-3.1-2.4-6.3-5.4-7.8-8.9c-0.4-1-2.5-2-3-2.9c-0.6-1.2-1.5-2.2-2.4-3.2c-3.6-4.1-23-19.4-25.3-24.3
	c-0.4-0.8-0.8-1.7-1.4-2.3c-0.7-0.8-1.5-1.3-2.3-1.9c-1.4-1.1-2.5-2.6-3.6-4c-4-4.9-14.2-15.7-19.1-19.7c-1.2-1-2.8-1.4-4.3-1.4
	c-2.9-0.3-12.9-2-14.8-3c-2-1.1,0.6-7.1,0.7-8.3c0.1-0.3,0.6-2.6,0.6-2.8c0.4-0.2,2.4-1.1,2.8-3.7c0.4-2.6-0.3-3.6-0.4-4.3
	c0,0-0.1-5.9-0.8-9c-0.7-3.1-4.6-5.4-8.1-6.6c-1.8-0.6-5.1-0.5-5.1-0.5s-3.3-0.1-5.1,0.5c-3.5,1.2-7.4,3.5-8.1,6.6
	c-0.7,3.1-0.8,9-0.8,9c-0.1,0.7-0.8,1.7-0.4,4.3c0.4,2.6,2.4,3.5,2.8,3.7c0.1,0.3,0.6,2.5,0.6,2.8c0.2,1.2,2.7,7.1,0.7,8.3
	c-1.8,1.1-11.8,2.8-14.8,3c-1.5-0.1-3.1,0.4-4.3,1.4c-4.9,4-15.2,14.8-19.1,19.7c-1.1,1.4-2.2,2.8-3.6,4c-0.8,0.6-1.7,1.2-2.3,1.9
	c-0.6,0.7-1,1.5-1.4,2.3c-2.3,4.9-21.7,20.3-25.3,24.3c-0.9,1-1.8,2-2.4,3.2c-0.5,0.9-2.6,2-3,2.9c-1.5,3.6-4.8,6.6-7.8,8.9
	c-3.1,2.4-6.2,7.5-4.9,8.5c1.5,1.3,4.3-3.5,6.5-5.2c0.6-0.5,1.2-0.9,1.9-1c0.9,0,1.7,0.7,2.4,1.4c1.5,1.5,3.5,2.9,5.5,2.5
	c4.7-0.8,4.4-9.1,8.9-10.5c1.3-0.4,2.7-0.1,4-0.4c5.4-1,27.9-25.7,32.8-28c0.7-0.3,1.4-0.5,2.1-0.7c0.4,2.8,0.9,5.6,1.7,8.3
	c0.6,2.3,1.2,24.3,2,26.5c1.7,4.9,6.2,6.3,6.2,6.3c-1.4,4-3.2,8.3-3.2,12.6c0,4.5,1.9,8.7,2.6,13.1c1.4,9.1,1.3,18.4,2.2,27.6
	c0.9,8.7,2,27.3,4.6,35.7c1.5,4.6,3.1,14.2,5.2,23.2c-4.1,9.7-12.3,13.1-17,15.2c-6.4,2.9-1.3,7.9-1.3,7.9
	c20.6,0.6,31.9-10.6,31.9-10.6s11.3,11.2,31.9,10.6c0,0,5.1-5-1.3-7.9c-4.6-2.1-12.9-5.5-17-15.2c2.1-8.9,3.8-18.6,5.2-23.2
	c2.7-8.3,3.8-27,4.6-35.7c0.9-9.2,0.8-18.5,2.2-27.6c0.7-4.4,2.6-8.6,2.6-13.1c0-4.3-1.9-8.6-3.2-12.6c0,0,4.5-1.4,6.2-6.3
	c0.8-2.2,1.3-24.2,2-26.5c0.8-2.8,1.3-5.5,1.7-8.3c0.7,0.2,1.4,0.4,2.1,0.7c5,2.2,27.5,27,32.8,28c1.3,0.2,2.7,0,4,0.4
	c4.6,1.5,4.2,9.7,8.9,10.5c2.1,0.4,4-1.1,5.5-2.5c0.7-0.7,1.5-1.4,2.4-1.4c0.7,0,1.3,0.5,1.9,1c2.2,1.7,4.7,6.6,6.5,5.2
	C475.1,134.6,472,129.4,469,127.1z"/>
<text transform="matrix(1.0109 0 0 1 313.6087 137.7859)" class="st2 st3 st4">45ยบ</text>
<path class="st2" d="M180.7,71.5c-4.9-3.8-2.3-4.8-2.6-7.6c-0.3-2.1-1.3-4.2-2.9-5.6c-3.2-2.8-5.2-1.5-6.2-2.9
	c-1.6-2.5-0.2-8.7-1.7-11.2c-0.3-0.5-0.6-0.9-1.1-1.1c-0.9-0.2-1.7,0.6-2.1,1.5c-2,3.9-0.5,10.6-0.7,15c0,0.4-0.1,1-0.4,1.2
	c-0.3,0.2-2.7-2.5-3-2.5c-1.9,0-2.5,1.3-2.4,2.9c-5.9-2.2-12.3-4.8-14.5-5c-2.1-0.2-6.3-0.3-8.1-1.4c-2-1.1,0.6-7.1,0.7-8.3
	c0.1-0.3,0.6-2.6,0.6-2.8c0.4-0.2,2.4-1.1,2.8-3.7c0.4-2.6-0.3-3.6-0.4-4.3c0,0-0.1-5.9-0.8-9c-0.7-3.1-4.6-5.4-8.1-6.6
	c-1.8-0.6-5.1-0.5-5.1-0.5s-3.3-0.1-5.1,0.5c-3.5,1.2-7.4,3.5-8.1,6.6c-0.7,3.1-0.8,9-0.8,9c-0.1,0.7-0.8,1.7-0.4,4.3
	c0.4,2.6,2.4,3.5,2.8,3.7c0.1,0.3,0.6,2.5,0.6,2.8c0.2,1.2,2.7,7.1,0.7,8.3c-1.8,1.1-6.1,1.2-8.1,1.4c-2.2,0.2-8.7,2.8-14.5,5
	c0-1.7-0.5-2.9-2.4-2.9c-0.3,0-2.7,2.6-3,2.5c-0.4-0.2-0.4-0.8-0.4-1.2c-0.1-4.4,1.3-11.1-0.7-15c-0.4-0.8-1.2-1.7-2.1-1.5
	c-0.5,0.1-0.9,0.6-1.1,1.1c-1.5,2.6,0,8.8-1.7,11.2c-1,1.4-4.9,1.7-6.2,2.9c-2.3,2.2-2.7,3.5-2.9,5.6c-0.4,2.8,2.3,3.8-2.6,7.6
	c-2.1,1.6-1.7,10.9-1.7,14.2c0,6.8,1,9.3,1.1,16.1c0,2,1.2,4.3,2.7,5.7c0.8,0.8,1,1.2,2.1,1.6c5.1,1.6,10.6,2.1,16,1.5
	c0.7-0.1,1.4-0.2,1.9-0.5c0.6-0.4,0.9-1,1.2-1.6c0,0,0-0.1,0-0.1c0.4,7.4,0.8,18.1,1.4,19.6c1.7,4.9,6.2,6.3,6.2,6.3
	c-1.4,4-3.2,8.3-3.2,12.6c0,4.5,1.9,8.7,2.6,13.1c1.4,9.1,1.3,18.4,2.2,27.6c0.9,8.7,2,27.3,4.6,35.7c1.5,4.6,3.1,14.2,5.2,23.2
	c-4.1,9.7-12.3,13.1-17,15.2c-6.4,2.9-1.3,7.9-1.3,7.9c20.6,0.6,31.9-10.6,31.9-10.6s11.3,11.2,31.9,10.6c0,0,5.1-5-1.3-7.9
	c-4.6-2.1-12.9-5.5-17-15.2c2.1-8.9,3.8-18.6,5.2-23.2c2.7-8.3,3.8-27,4.6-35.7c0.9-9.2,0.8-18.5,2.2-27.6c0.7-4.4,2.6-8.6,2.6-13.1
	c0-4.3-1.9-8.6-3.2-12.6c0,0,4.5-1.4,6.2-6.3c0.5-1.5,0.9-12.2,1.4-19.6c0,0,0,0.1,0,0.1c0.3,0.6,0.7,1.2,1.2,1.6
	c0.6,0.4,1.3,0.5,1.9,0.5c5.4,0.6,10.8,0,16-1.5c1.1-0.3,1.3-0.8,2.1-1.6c1.5-1.4,2.6-3.7,2.7-5.7c0.2-6.8,1.1-9.3,1.1-16.1
	C182.4,82.4,182.8,73.1,180.7,71.5z"/>
</svg>
