<?xml version="1.0" encoding="utf-8"?>
<!-- Generator: Adobe Illustrator 22.0.1, SVG Export Plug-In . SVG Version: 6.00 Build 0)  -->
<svg version="1.1" id="Capa_1" xmlns="http://www.w3.org/2000/svg" xmlns:xlink="http://www.w3.org/1999/xlink" x="0px" y="0px"
	 viewBox="0 0 500 300" style="enable-background:new 0 0 500 300;" xml:space="preserve">
<style type="text/css">
	.st0{fill:#1E2D4F;}
	.st1{fill:none;stroke:#E72F49;stroke-miterlimit:10;}
	.st2{fill:#E72F49;}
	.st3{font-family:'ArialUnicodeMS';}
	.st4{font-size:10px;}
</style>
<path class="st0" d="M190.9,88.7c-0.9-2-24.9-28.9-39.2-30.3c-0.6-0.2-13.9-3.1-13.9-3.1c-2-1.1,0.6-7.1,0.7-8.3
	c0.1-0.3,0.6-2.6,0.6-2.8c0.4-0.2,2.4-1.1,2.8-3.7c0.4-2.6-0.3-3.6-0.4-4.3c0,0-0.1-5.9-0.8-9s-4.6-5.4-8.1-6.6
	c-1.8-0.6-5.1-0.5-5.1-0.5s-3.3-0.1-5.1,0.5c-3.5,1.2-7.4,3.5-8.1,6.6s-0.8,9-0.8,9c-0.1,0.7-0.8,1.7-0.4,4.3s2.4,3.5,2.8,3.7
	c0.1,0.3,0.6,2.5,0.6,2.8c0.2,1.2,2.7,7.1,0.7,8.3c0,0-13.3,3-13.9,3.1C89,59.8,65,86.7,64.1,88.7c-0.9,2-2.4,7.1,2.7,12.3
	c3.2,3.2,15.1,5.2,29.6,4.7c0.5,5.8-1,20.8-0.3,22.8c1.7,4.9,6.2,6.3,6.2,6.3c-1.4,4-3.2,8.3-3.2,12.6c0,4.5,1.9,8.7,2.6,13.1
	c1.4,9.1,1.3,18.4,2.2,27.6c0.9,8.7,2,27.3,4.6,35.7c1.5,4.6,3.1,14.2,5.2,23.2c-4.1,9.7-12.3,13.1-17,15.2
	c-6.4,2.9-1.3,7.9-1.3,7.9c20.6,0.6,31.9-10.6,31.9-10.6s11.3,11.2,31.9,10.6c0,0,5.1-5-1.3-7.9c-4.6-2.1-12.9-5.5-17-15.2
	c2.1-8.9,3.8-18.6,5.2-23.2c2.7-8.3,3.8-27,4.6-35.7c0.9-9.2,0.8-18.5,2.2-27.6c0.7-4.4,2.6-8.6,2.6-13.1c0-4.3-1.9-8.6-3.2-12.6
	c0,0,4.5-1.4,6.2-6.3c0.7-1.9-0.8-17-0.3-22.8c14.5,0.5,26.4-1.5,29.6-4.7C193.3,95.8,191.8,90.7,190.9,88.7z M124,102.9
	c-1,0.4-8.8,0-7.7-2.5c0.5-1.2-1.2-0.2-8.5,0.6l-0.6-7.5l6.1-2.6c0,0,9.5-1.1,12.3,0.4C128.6,92.8,125,102.5,124,102.9z M147.2,101
	c0,0-9.1-1.7-8.5-0.6c1,1.8-6.7,3-7.7,2.5c-1-0.4-4.6-10.1-1.7-11.6c2.9-1.6,12.3-0.4,12.3-0.4l6.1,2.6L147.2,101z"/>
<g>
	<g>
		<g>
			<path class="st1" d="M341,108.8c-15.6,1.1-28.6-11.9-29.9-27.4"/>
			<g>
				<polygon class="st2" points="308.1,82 314.2,81.7 311,78.8 				"/>
			</g>
		</g>
	</g>
	<text transform="matrix(1.0109 0 0 1 320.8652 93.9062)" class="st0 st3 st4">90ยบ</text>
	<path class="st0" d="M483.6,47.4c-1.3-1,0.2-3.8,0.2-3.8c2.8-5.7,3-11.7,0.9-9.9c-2.7,2.3-8.1,13.1-12,18.3c-1.1,1.3-5,2-8,2
		c-2.2,0-4-0.9-6.2-0.4c-1,0.2-1.5,0.8-2.4,1.3c-1.1,0.7-2.2,0.7-3.5,0.9c-2.5,0.3-8.3,0.2-8.6,0.1l0,0c-1.7,0-4-0.3-5.7,0.4
		c-0.7,0.3-1.1,0.8-1.9,0.9c-0.9,0.2-1.8-0.1-2.7,0c-1.8,0.1-3,1.1-4.7,1.5s-3.3,0.1-5.1,0.1c-1.9-0.3-12.3-1.2-12.3-1.2
		c-1.2-0.3-13.7-1.3-18.8-1.7c-2.1-0.2-6.3-0.3-8.1-1.4c-2-1.1,0.6-7.1,0.7-8.3c0.1-0.3,0.6-2.6,0.6-2.8c0.4-0.2,2.4-1.1,2.8-3.7
		c0.4-2.6-0.3-3.6-0.4-4.3c0,0-0.1-5.9-0.8-9s-4.6-5.4-8.1-6.6c-1.8-0.6-5.1-0.5-5.1-0.5s-3.3-0.1-5.1,0.5c-3.5,1.2-7.4,3.5-8.1,6.6
		s-0.8,9-0.8,9c-0.1,0.7-0.8,1.7-0.4,4.3s2.4,3.5,2.8,3.7c0.1,0.3,0.6,2.5,0.6,2.8c0.2,1.2,2.7,7.1,0.7,8.3
		c-1.8,1.1-6.1,1.2-8.1,1.4c-5.1,0.4-17.6,1.4-18.8,1.7c0,0-10.3,0.8-12.3,1.2c-1.7,0-3.4,0.3-5.1-0.1c-1.7-0.4-2.9-1.4-4.7-1.5
		c-0.9-0.1-1.8,0.2-2.7,0c-0.7-0.2-1.2-0.7-1.9-0.9c-1.7-0.6-3.9-0.3-5.7-0.4l0,0c-0.3,0.1-6.1,0.2-8.6-0.1
		c-1.3-0.1-2.4-0.2-3.5-0.9c-0.8-0.5-1.4-1.1-2.4-1.3c-2.1-0.5-3.9,0.4-6.2,0.4c-3,0-6.9-0.7-8-2c-3.9-5.3-9.4-16.1-12-18.3
		c-2.1-1.8-1.9,4.2,0.9,9.9c0,0,1.6,2.8,0.2,3.8c-1.3,0.9-5.4-1.9-4.5,0.7c0.9,2.4,4.6,2.6,5,3.4c0.4,0.7,0.4,1.5,0.7,2.2
		c0.6,1.7,2.6,3.6,4.4,3.8c3.3,0.5,6.1,3.9,8.1,4.8c0.9,0.4,2.6,0.4,3.4,1.1c0.7,0.7,1,1.9,1.7,2.7c2.8,3.1,16.9,6.5,16.9,6.5
		s6.2,1.2,8.1,2.5c1.8,1.3,5.5,3,5.5,3c4.5,1.7,9.6,2.1,14.4,2.5c2.9,0.2,8.6-0.8,9.1,3.5c0.1,0,0.2,0,0.3,0c-0.1,0-0.2,0-0.3,0
		c0.7,5.8,1.2,11.5,2.8,17.1c0.6,2.3,1.2,24.3,2,26.5c1.7,4.9,6.2,6.3,6.2,6.3c-1.4,4-3.2,8.3-3.2,12.6c0,4.5,1.9,8.7,2.6,13.1
		c1.4,9.1,1.3,18.4,2.2,27.6c0.9,8.7,2,27.3,4.6,35.7c1.5,4.6,3.1,14.2,5.2,23.2c-4.1,9.7-12.3,13.1-17,15.2
		c-6.4,2.9-1.3,7.9-1.3,7.9c20.6,0.6,31.9-10.6,31.9-10.6s11.3,11.2,31.9,10.6c0,0,5.1-5-1.3-7.9c-4.6-2.1-12.9-5.5-17-15.2
		c2.1-8.9,3.8-18.6,5.2-23.2c2.7-8.3,3.8-27,4.6-35.7c0.9-9.2,0.8-18.5,2.2-27.6c0.7-4.4,2.6-8.6,2.6-13.1c0-4.3-1.9-8.6-3.2-12.6
		c0,0,4.5-1.4,6.2-6.3c0.8-2.2,1.3-24.2,2-26.5c1.6-5.6,2.2-11.3,2.8-17.1c-0.1,0-0.2,0-0.3,0c0.1,0,0.2,0,0.3,0
		c0.5-4.2,6.2-3.2,9.1-3.5c4.8-0.4,9.9-0.8,14.4-2.5c0,0,3.7-1.8,5.5-3c1.9-1.3,8.1-2.5,8.1-2.5s14.1-3.5,16.9-6.5
		c0.7-0.8,1-2,1.7-2.7c0.8-0.7,2.5-0.7,3.4-1.1c2-0.9,4.8-4.3,8.1-4.8c1.8-0.2,3.8-2.1,4.4-3.8c0.3-0.7,0.2-1.5,0.7-2.2
		c0.5-0.8,4.2-0.9,5-3.4C489,45.5,484.9,48.3,483.6,47.4z"/>
</g>
</svg>
