<?xml version="1.0" encoding="utf-8"?>
<!-- Generator: Adobe Illustrator 22.0.1, SVG Export Plug-In . SVG Version: 6.00 Build 0)  -->
<svg version="1.1" id="Capa_1" xmlns="http://www.w3.org/2000/svg" xmlns:xlink="http://www.w3.org/1999/xlink" x="0px" y="0px"
	 viewBox="0 0 500 300" style="enable-background:new 0 0 500 300;" xml:space="preserve">
<style type="text/css">
	.st0{fill:#9AABB4;stroke:#99AAB3;stroke-miterlimit:10;}
	.st1{fill:#FFFFFF;stroke:#FFFFFF;stroke-miterlimit:10;}
	.st2{fill:#1E2D4F;}
	.st3{fill:#E72F49;}
	.st4{font-family:'ArialUnicodeMS';}
	.st5{font-size:11px;}
	.st6{fill:none;stroke:#E72F49;stroke-miterlimit:10;}
</style>
<path class="st0" d="M277.8,211.4c0.3,0.4,0.5,0.8,0.8,1.2c-0.1-0.4-0.3-0.8-0.4-1.2C278.1,211.4,278,211.4,277.8,211.4z"/>
<path class="st1" d="M326.9,64.7c3.4-1.5,6.6-4.1,6.6-4.4c0-0.6-9.9,4.8-9.9,5.4C323.6,65.9,325.7,65.2,326.9,64.7z"/>
<g>
	<path class="st2" d="M405,260.4c-4.6-2.1-12.9-5.5-17-15.2c2.1-8.9,3.8-18.6,5.2-23.2c2.7-8.3,3.8-27,4.6-35.7
		c0.9-9.2,0.8-18.5,2.2-27.6c0.7-4.4,2.6-8.6,2.6-13.1c0-4.3-1.9-8.6-3.2-12.6c0,0,4.5-1.4,6.2-6.3c0.6-1.7-0.5-18.4-0.4-27.3
		l-30.9-17.9l-30.9,17.9c0,8.9-1,25.6-0.4,27.3c1.7,4.9,6.2,6.3,6.2,6.3c-1.4,4-3.2,8.3-3.2,12.6c0,4.5,1.9,8.7,2.6,13.1
		c1.4,9.1,1.3,18.4,2.2,27.6c0.9,8.7,2,27.3,4.6,35.7c1.5,4.6,3.1,14.2,5.2,23.2c-4.1,9.7-12.3,13.1-17,15.2
		c-6.4,2.9-1.3,7.9-1.3,7.9c20.6,0.6,31.9-10.6,31.9-10.6s11.3,11.2,31.9,10.6C406.3,268.3,411.4,263.3,405,260.4z"/>
	<path class="st2" d="M422.7,87c-0.9-1.9-9.4-27.4-23-30.1c0,1.7,0,5-0.8,7c-1.7,4.6-14.2,8.2-14.2,8.2s7-4.5,10.4-6.9
		c3.5-2.4,2.5-8.7,2.5-8.7c0.2-4.8,1.2-16.5-1.2-17.3c-1.6-0.5-3.1,11.4-4.4,16.1c-3.7-0.8-7.6-1.7-7.6-1.7c-2-1.1,0.6-7.1,0.7-8.3
		c0.1-0.3,0.6-2.6,0.6-2.8c0.4-0.2,2.4-1.1,2.8-3.7s-0.3-3.6-0.4-4.3c0,0-0.1-5.9-0.8-9c-0.7-3.1-4.6-5.4-8.1-6.6
		c-1.8-0.6-5.1-0.5-5.1-0.5s-3.3-0.1-5.1,0.5c-3.5,1.2-7.4,3.5-8.1,6.6s-0.8,9-0.8,9c-0.1,0.7-0.8,1.7-0.4,4.3s2.4,3.5,2.8,3.7
		c0.1,0.3,0.6,2.5,0.6,2.8c0.2,1.2,2.7,7.1,0.7,8.3c0,0-3.9,0.9-7.6,1.7c-1.2-4.7-2.8-16.6-4.4-16.1c-2.4,0.8-1.4,12.5-1.2,17.3
		c0,0-1,6.3,2.5,8.7s10.4,6.9,10.4,6.9s-12.4-3.6-14.2-8.2c-0.8-2.1-0.8-5.3-0.8-7c-13.6,2.7-22.1,28.2-23,30.1
		c-0.9,2-2,4.8,3.1,9.9c2.5,2.5,5.1,5.7,9.8,2.9l35.4-19.5l35.4,19.5c4.8,2.8,7.3,2.6,9.8,0.1C424.7,94.8,423.6,89,422.7,87z"/>
</g>
<path class="st2" d="M182.4,102.8c-3.1-12.2-6-16.4-10.6-28.1c-1.1-2.9-7.5-11.9-14.8-15.3l2-4.8l-9.5-4.1l-4.1,9.9
	c-0.9-1.8-2.4-4.7-4-4.7c-2.3,0-15.8,0.4-15.8,0.4s8.7-2.6,14.3-2.9c-0.9-1.9,1.1-6.6,1.2-7.7c0.1-0.3,0.6-2.6,0.6-2.8
	c0.4-0.2,2.4-1.1,2.8-3.7c0.4-2.6-0.3-3.6-0.4-4.3c0,0-0.1-5.9-0.8-9s-4.6-5.4-8.1-6.6c-1.8-0.6-5.1-0.5-5.1-0.5s-0.2,0-0.5,0l0,0
	c0,0-3.3-0.1-5.1,0.5c-3.5,1.2-7.4,3.5-8.1,6.6s-0.8,9-0.8,9c-0.1,0.7-0.8,1.7-0.4,4.3s2.4,3.5,2.8,3.7c0.1,0.3,0.6,2.5,0.6,2.8
	c0.2,1.2,2.7,7.1,0.7,8.3c0,0-13.3,3-13.9,3.1c-14.3,1.4-38.3,24.3-39.2,26.3c-0.9,2-2.4,7.1,2.7,12.3c3.2,3.2,15.1-0.8,29.6-1.3
	c0.5,5.8-1,30.8-0.3,32.8c1.7,4.9,6.2,6.3,6.2,6.3c-1.4,4-3.2,8.3-3.2,12.6c0,4.5,1.9,8.7,2.6,13.1c1.4,9.1,1.3,18.4,2.2,27.6
	c0.9,8.7,2,27.3,4.6,35.7c1.5,4.6,3.1,14.2,5.2,23.2c-4.1,9.7-12.3,13.1-17,15.2c-6.4,2.9-1.3,7.9-1.3,7.9
	c20.6,0.6,31.9-10.6,31.9-10.6v0.5c0.3-0.3,0.5-0.5,0.5-0.5s11.3,11.2,31.9,10.6c0,0,5.1-5-1.3-7.9c-4.6-2.1-12.9-5.5-17-15.2
	c2.1-8.9,3.8-18.6,5.2-23.2c2.7-8.3,3.8-27,4.6-35.7c0.9-9.2,0.8-18.5,2.2-27.6c0.5-3.2,1.6-6.4,2.2-9.6
	c4.8-4.2,10.5-10.6,12.5-12.5c3.2-3,10.9-15,12.3-19.2C184.7,112.9,183.6,107.7,182.4,102.8z M162.1,122c0.4-6.3-0.4-20.9,0-24.6
	c0.6,5.2,2,5.8,2.4,7.3C166.6,112.4,166.2,117.1,162.1,122z"/>
<text transform="matrix(1.0109 0 0 1 173.3795 62.6723)" class="st3 st4 st5">tarjeta</text>
<circle class="st6" cx="153.7" cy="58" r="15.4"/>
</svg>
