<?xml version="1.0" encoding="utf-8"?>
<!-- Generator: Adobe Illustrator 27.0.0, SVG Export Plug-In . SVG Version: 6.00 Build 0)  -->
<svg version="1.1" id="Capa_1" xmlns="http://www.w3.org/2000/svg" xmlns:xlink="http://www.w3.org/1999/xlink" x="0px" y="0px"
	 viewBox="0 0 697.9 300" style="enable-background:new 0 0 697.9 300;" xml:space="preserve">
<style type="text/css">
	.st0{fill:#202D51;stroke:#1F2C51;stroke-miterlimit:10;}
	.st1{fill:#3D56A2;stroke:#3C55A2;stroke-miterlimit:10;}
	.st2{fill:#E23247;}
	.st3{fill:#3C55A2;}
	.st4{fill:#1F2C51;}
	.st5{fill:#212E51;stroke:#1F2C51;stroke-miterlimit:10;}
	.st6{fill:none;}
	.st7{fill:none;stroke:#F9F9F9;stroke-miterlimit:10;}
	.st8{fill:none;stroke:#000000;stroke-miterlimit:10;}
	.st9{fill:none;stroke:#1D1D1B;stroke-miterlimit:10;}
	.st10{font-family:'ArialMT';}
	.st11{font-size:6px;}
	.st12{fill:#FFFFFF;}
	.st13{font-size:6.6488px;}
	.st14{fill:#A8D4EF;}
	.st15{font-size:6.777px;}
	.st16{font-size:5.916px;}
	.st17{fill:#E83B44;}
	.st18{font-size:7.4958px;}
	.st19{font-size:7.9302px;}
	.st20{fill:#1E2D4F;stroke:#8FCFFF;stroke-width:0.25;stroke-miterlimit:10;}
	.st21{font-family:'MicrosoftSansSerif';}
	.st22{font-size:8px;}
	.st23{fill:none;stroke:#000000;stroke-width:0.5;stroke-miterlimit:10;}
</style>
<g id="Capa_3">
</g>
<g id="Capa_4">
	<g>
		<path class="st0" d="M268.7,62.4c0.1,1,1.4,2.2-0.4,3c-1.5,0.7-3.4,0.2-4.6-1.1c0.2-0.4-0.1-1,0.4-1.4
			C265.7,63.3,267.2,62.9,268.7,62.4z"/>
		<path class="st0" d="M268.7,62.4c-1.5,0.4-3,0.9-4.6,0.5c0-0.3,0.1-0.5,0.1-0.8c0.2,0,0.3-0.1,0.3-0.3c0.5,0,0.5-0.2,0.6-0.6
			c0.2-2,1.2-2.5,3.5-1.9C269,60.4,268.7,61.4,268.7,62.4z"/>
		<path class="st0" d="M268.6,59.4c-2.3-0.6-3.3-0.1-3.5,1.9c0,0.4-0.1,0.6-0.6,0.6c-0.3-0.1-0.7-0.2-1-0.3l0,0
			c-0.1-1.7,0.8-3.3,0.6-4.9c0.5,0,0.8,0.2,1.1,0.5c0.4,0.3,0,1.2,0.9,1.1c0.8-0.1,1.6-0.1,2.2-0.7
			C268.9,58.1,268.7,58.8,268.6,59.4z"/>
		<path class="st0" d="M264.2,62.2c0,0.3-0.1,0.5-0.1,0.8c-0.5,0.4-0.1,0.9-0.4,1.4c-1.3-0.2-1.3-1.2-1.6-2
			c-0.2-0.6,0.9-0.5,1.3-0.8l0,0C263.4,62,263.7,62.1,264.2,62.2z"/>
		<path class="st0" d="M264.2,62.2c-0.5,0-0.8-0.2-0.7-0.6c0.3,0.1,0.7,0.2,1,0.3C264.5,62,264.4,62.1,264.2,62.2z"/>
		<path class="st0" d="M281.3,37.6c0.4-1.2,0-2.4-0.1-3.6l0,0c-0.7-1.1-0.3-2.2,0.1-3.4c0.8-2.5,0.7-5.1,0.6-7.7
			c-0.1-1.5-0.7-3-3-3.1c0.1,0.7,0.2,1.4,0.3,2.1c-1.1,0.4-2.2-0.2-3.3,0c1.1-0.2,2.2,0.4,3.3,0c-0.1-0.7-0.2-1.4-0.3-2.1
			c-0.8-0.2-1.6-0.4-2.4-0.7l0,0c-0.5-0.3-1-0.6-1.4-0.9l0,0c-0.1-0.2-0.2-0.5-0.6-0.6l0,0c-0.1-0.8,0.4-1.5,0.8-2.2
			c0.7-1.2,0-4-1.1-5c-0.1,1.8-0.6,2.2-3,2.8l0,0l0,0c2.4-0.6,3-1.1,3-2.8c-0.1-0.1-0.2-0.2-0.3-0.2l0,0c-1.5-1.3-3-1.3-4.4,0
			c0,0,0,0-0.1,0c-0.7,0.1-0.8,0.6-0.9,1c-0.2,0.6-0.2,1.3-0.6,1.8c-0.8,1.1-0.3,1.9,0.8,2.5c0.1,0.9,0.3,1.7,0.1,2.6
			c1.2,1.3,2.8,1.1,4.4,0.6c0.2-0.2,0.4-0.3,0.7-0.5c-0.2,0.2-0.5,0.3-0.7,0.5c-1.6,0.5-3.1,0.7-4.4-0.6c-0.1,0.1-0.2,0.2-0.3,0.3
			l0,0c-0.5,0.3-0.9,0.5-1.4,0.8c0.4,0.3,0.9,0.7,0.5,1.1c-0.6,0.8-0.2,1.6-0.2,2.3c0,0.6,0.2,0.9,0.4,0.9c-0.2,0-0.4-0.3-0.4-0.9
			c0-0.8-0.5-1.5,0.2-2.3c0.4-0.4-0.1-0.8-0.5-1.1c-0.7,0-1.4,0.2-2,0.5c-1,0.3-2.3,0.2-2.7,1.2c-1,2.3-1,4.7-1.5,7.1l0,0
			c-0.1,0.5-0.5,0.9-0.1,1.4c1.4-0.5,2.9-0.5,4.3,0.1c1.2,0.5,2.2,0.6,3.4,0.2c0.6-0.2,1.1,0,1.4,0.4c-0.3-0.4-0.9-0.5-1.4-0.4
			c-1.3,0.4-2.3,0.3-3.4-0.2c-1.4-0.6-2.8-0.6-4.3-0.1c-0.1,2.4,0.1,2.6,3.3,3.6c0.5-1.5,2.2-0.8,3.3-1.1c0.1,0,0.3-0.1,0.4-0.1
			c-0.2,0-0.3,0-0.5,0.1c-1.1,0.3-2.8-0.4-3.3,1.1c0,0.1,0,0.1,0.1,0.2v0.1c0,0.1,0.1,0.1,0.1,0.2c0.6,0.2,1.1,0.5,0.4,1.1
			c-0.6,0.5-1.9,1.4-0.3,1.3c-1.6,0.1-0.3-0.8,0.3-1.3c0.6-0.6,0.2-0.9-0.4-1.1c-1.8,1.3-3,2.9-3.1,4.9l0,0c-0.8,0-1.6,0.1-2,0.8
			c-0.1,0.4,0.3,0.5,0.7,0.5l0,0c-0.4,0-0.7-0.1-0.7-0.5c-1.6,0.2-2.8,1.1-4.3,1.4c-2.5,0.5-2.5,0.7-1.4,2.2
			c0.1,0.2,0.2,0.3,0.4,0.5l0,0c1,1.5,1.4,1.7,2.7,1.1c0,0,0,0-0.1,0l0,0c1.2-0.9,2.5-1.8,3.7-2.7l0,0c0.8,0,1.4-0.4,2-0.7
			c0-0.7-0.5-1.7,1.2-1.6c0,0,0,0,0.1,0c0,0,0,0-0.1,0c-1.7-0.1-1.2,0.9-1.2,1.6c0.4,0.1,0.3,0.5,0.5,0.7l0,0
			c-0.1,0.4-0.1,0.8-0.2,1.1c0.2,0.1,0.3,0.3,0.3,0.4c0-0.1-0.1-0.3-0.3-0.4c-0.3,0-0.7,0.1-0.7,0.4c0,0.3,0.4,0.3,0.7,0.4
			c-0.5,4,0.9,8,0.9,12c0,0.4,0.1,0.7,0.7,0.7c0.5,0,0.8,0.2,1.1,0.5c0.4,0.3,0,1.2,0.9,1.1c0.8-0.1,1.6-0.1,2.2-0.7
			c-0.2-0.4-0.5-0.8-0.5-1.1c0.7-2.5,0.2-4.9,0.3-7.4l0,0c2.2-0.2,4.5-0.4,6.7,0c0.1,0,0.2-0.1,0.2-0.2c0,0.1-0.1,0.2-0.2,0.2
			c1.2,0.5,1.5,1.3,1.6,2.3c0.8-1.2,0.1-2.1-0.7-3c-0.4-0.1-0.5,0-0.6,0.2c0.1-0.2,0.2-0.3,0.6-0.2c0.1-0.2,0.2-0.3,0.3-0.5
			c-0.8-0.5-1.7-0.3-2.6-0.2l0,0c-0.3-0.1-0.5-0.1-0.7,0.2l0,0c0.1-0.2,0.4-0.2,0.7-0.2c0.9-0.1,1.8-0.3,2.6,0.2
			c0.1,0,0.3,0,0.4-0.1c0-0.6-0.1-1.2-0.1-1.8c0-0.3,0-0.6-0.1-0.7c0.1,0.2,0.2,0.4,0.1,0.7c-0.1,0.6,0,1.2,0.1,1.8
			c-0.1,0-0.3,0-0.4,0.1c-0.1,0.2-0.2,0.3-0.3,0.5c0.8,0.9,1.5,1.8,0.7,3c0.2,1.5,0.9,2.9,1,4.4c0.1,1.7,0.6,3.2,1.2,4.8
			c0.2,0.5,0.5,0.7,1.1,0.6c0.8-0.1,0.3-0.6,0.2-0.9c-0.2-0.7-0.5-1.3-0.6-2c-0.6-2.8-0.8-5.7-1.1-8.6c-0.1,0-0.1,0-0.2,0
			c0,0,0.1,0,0.2,0c-0.1-0.7-0.1-1.5-0.2-2.2c-0.3-1.8-0.4-3.4,2.4-3.9c-0.6-0.5-1.1-0.8-1.5-1.1h-0.2l0,0h0.2
			c-0.1-0.3-0.2-0.6-0.3-0.9c0.3-0.1,0.8-0.1,0.9-0.2C280.3,40.1,281.7,39.1,281.3,37.6c-0.2,0.1-0.4,0.2-0.5,0.3
			C280.9,37.8,281.1,37.7,281.3,37.6z M268.1,47.4L268.1,47.4L268.1,47.4c0.9,0.2,1.8-0.1,2.6,0.3l0,0
			C269.9,47.4,269,47.6,268.1,47.4z M268.5,45.2c0-0.4,0-0.9,0-1.3l0,0l0,0c0-0.1,0-0.2,0-0.3c-0.1,0-0.2,0.1-0.2,0.1
			s0.1-0.1,0.2-0.1c0.1-0.1,0.2-0.2,0.2-0.3c0,0.1-0.1,0.2-0.2,0.3c0,0.1,0,0.2,0,0.3C268.5,44.4,268.5,44.8,268.5,45.2L268.5,45.2z
			 M265,37.2c0.2-0.2,0.3-0.5,0.5-0.7c-0.1-0.1-0.2-0.4-0.3-0.4l0,0c0.1,0,0.2,0.3,0.3,0.4C265.4,36.7,265.2,37,265,37.2l0.1,0.1
			l0,0L265,37.2c-0.1,0.1-0.3,0.1-0.4,0.2l0.1,0.1l0,0l-0.1-0.1C264.7,37.3,264.9,37.3,265,37.2z M268.2,33.4c-0.2,0-0.5,0-0.7,0
			C267.7,33.4,268,33.4,268.2,33.4z M268.4,34.2c0-0.3,0-0.5,0-0.8l0,0c0-0.1,0-0.2,0-0.3l0,0c0,0.1,0,0.2,0,0.3
			C268.5,33.7,268.5,34,268.4,34.2c0.1,0,0.2,0,0.3,0C268.6,34.3,268.5,34.3,268.4,34.2L268.4,34.2z M269.1,27.6
			c-0.4,0.6-0.9,0.3-1.3,0c-0.9,0-1.6-0.4-2-1.1c-0.3,0-0.6,0-0.8,0l0,0l0,0c0.3,0,0.5,0,0.8,0c0.4,0.7,1.1,1,2,1.1
			c0.1-0.5-0.1-0.8-0.4-1c0.3,0.2,0.5,0.5,0.4,1C268.2,27.9,268.7,28.2,269.1,27.6c0-0.4,0-0.8,0-1.1l0,0c-0.1-1.1,0.3-2.2-0.3-3.3
			l0,0c0.6,1.1,0.2,2.2,0.3,3.3C269.1,26.9,269.1,27.2,269.1,27.6c0.5,0.3,0.3,0.7,0.4,1.1l0,0l0,0
			C269.4,28.3,269.6,27.9,269.1,27.6z M264.1,22.6c0.3,1.3,0.6,2.5,0.9,3.8l0,0C264.7,25.2,264.4,23.9,264.1,22.6
			c-0.2-0.1-0.2-0.1-0.1-0.2C263.9,22.5,263.9,22.6,264.1,22.6z M265.7,26c0,0.1,0,0.2,0.1,0.3C265.7,26.2,265.7,26.1,265.7,26
			s0-0.1,0-0.2C265.6,25.9,265.6,25.9,265.7,26z M263.1,26.4L263.1,26.4c-0.2,0.1-0.5,0.1-0.7,0.2C262.6,26.5,262.9,26.4,263.1,26.4
			z M276.8,26L276.8,26c0.4,0.7-0.7,1.4,0,2.2l0,0C276.1,27.4,277.2,26.7,276.8,26L276.8,26z M271.4,37.3L271.4,37.3
			c0-0.2,0.1-0.3,0.2-0.4C271.5,37,271.5,37.1,271.4,37.3c0.2,0.8,1.6,0.8,1.7,1.7l0,0C273.1,38,271.6,38.1,271.4,37.3z M266.6,39.5
			c0.1,0,0.3,0,0.4,0c0.2,0,0.4,0.1,0.6,0.3l0,0l0,0c-0.2-0.2-0.4-0.3-0.6-0.3C266.9,39.5,266.8,39.5,266.6,39.5s-0.4,0-0.6-0.1l0,0
			C266.2,39.5,266.4,39.5,266.6,39.5z M271.9,30.9c-0.1-0.5,0.1-1.1,0.2-1.6c0-0.5-0.5-0.6-1-0.6l0,0c0.5,0,0.9,0,1,0.6l0,0
			C272,29.8,271.8,30.4,271.9,30.9c0.3,1.2-0.4,1.2-1.4,1.1l0,0C271.5,32,272.2,32,271.9,30.9z M269.9,24.5c0.1,0.1,0.1,0.1,0.1,0.2
			C270.1,24.6,270,24.6,269.9,24.5z M269.9,23.4c-0.1,0-0.1-0.1-0.1-0.1L269.9,23.4c0.7,0.4,0.9,1.2,1.8,1.4l0,0
			C270.9,24.7,270.6,23.9,269.9,23.4z M272.4,29.3L272.4,29.3c0.1-0.2,0.1-0.4,0.2-0.6c0-0.1,0.1-0.2,0.1-0.3c0,0.1-0.1,0.2-0.1,0.3
			l0,0C272.5,28.9,272.4,29.1,272.4,29.3L272.4,29.3z M273.6,27.6c-0.1-0.1-0.2-0.1-0.3-0.2c-0.1-0.2-0.2-0.4-0.4-0.5
			c0.1,0.1,0.3,0.2,0.4,0.5C273.4,27.5,273.4,27.6,273.6,27.6z M272.3,36.3L272.3,36.3L272.3,36.3z M272.1,36.7L272.1,36.7
			L272.1,36.7L272.1,36.7z M270.3,34.2c0.4,0,0.7,0.2,0.9,0.6l0,0C270.9,34.4,270.6,34.2,270.3,34.2z M270.4,37c-0.4,0-0.8,0-1,0.3
			l0,0c0,0.1,0,0.2,0,0.3l0,0c0-0.1,0-0.2,0-0.3C269.7,37,270.1,37,270.4,37C270.4,37,270.5,37,270.4,37c0,0.1,0,0.2,0,0.3
			c-0.1,0.2-0.2,0.4-0.4,0.5c0.1-0.2,0.2-0.4,0.4-0.5C270.5,37.2,270.5,37.1,270.4,37z M272.6,36.1C272.6,36.1,272.6,36,272.6,36.1
			C272.6,36,272.6,36.1,272.6,36.1z M273,35.8c0.1-0.1,0.2-0.1,0.3-0.2C273.3,35.7,273.2,35.8,273,35.8z M275.4,34.8L275.4,34.8
			L275.4,34.8c0.1-0.3,0.3-0.5,0.4-0.7C275.7,34.2,275.5,34.5,275.4,34.8L275.4,34.8z M276.1,32.3c-0.1,0.1-0.1,0.1-0.2,0.2
			C275.9,32.5,276,32.4,276.1,32.3z M275.5,32.6c0.1,0,0.2,0,0.3,0C275.7,32.6,275.6,32.6,275.5,32.6z M274.4,30.4
			c-0.7-0.1-1.6,0.1-1.9-0.4C272.9,30.5,273.8,30.3,274.4,30.4L274.4,30.4z M276.8,28.9c0-0.2-0.1-0.4-0.1-0.6
			C276.8,28.6,276.8,28.7,276.8,28.9z M277.5,27.5c0,0.1,0,0.1,0,0.2C277.5,27.6,277.5,27.5,277.5,27.5z M273.5,19.9
			c0,0.1,0,0.2,0,0.3C273.4,20.1,273.4,20,273.5,19.9L273.5,19.9z M273.4,19.8L273.4,19.8L273.4,19.8L273.4,19.8z M273.2,21.2
			c0.2-0.2,0.3-0.4,0.3-0.6C273.5,20.8,273.4,21,273.2,21.2L273.2,21.2c-0.6-0.2-0.7-0.6-1.1-1l0,0C272.4,20.5,272.6,21,273.2,21.2z
			 M265.2,33.5c0,0,0.1,0.1,0.1,0.2C265.3,33.6,265.3,33.5,265.2,33.5z M266.1,40.1L266.1,40.1L266.1,40.1L266.1,40.1z M268.8,41.4
			c0.1-0.6-0.7-0.5-1-0.8C268,40.9,268.8,40.8,268.8,41.4z M268.8,43.1L268.8,43.1L268.8,43.1L268.8,43.1z M268.8,43.2
			C268.8,43.3,268.8,43.3,268.8,43.2C268.8,43.3,268.8,43.3,268.8,43.2z M277.5,39.8c0.7-0.9,0.9-1.9,1.5-2.7
			c0.5-0.7,0.2-1.5-0.2-1.6c-0.1,0-0.2-0.1-0.3-0.1c0.1,0,0.2,0,0.3,0.1c0.4,0.2,0.6,1,0.2,1.6C278.4,38,278.2,39,277.5,39.8
			c-0.9,1.1,0.1,1.3,1.2,1.3C277.6,41.2,276.6,40.9,277.5,39.8z M278.7,41.1L278.7,41.1L278.7,41.1L278.7,41.1z M279.3,31.5
			c0.1,0.3-0.7-0.2-1.2-0.1c0,0.9,1,1.6,1,2.5l0,0c0-0.9-1-1.5-1-2.5c-0.3,0.1-0.6,0.2-1,0.3c-0.2-0.3-0.4-0.8-1-0.8
			c-0.1,0.2-0.1,0.4-0.3,0.5c0.2,0,0.2-0.2,0.3-0.5c-0.3,0-0.5,0-0.7,0.3l0,0c-0.2,0-0.4,0-0.7,0c0.2,0.3,0.5,0.5,0.7,0.8
			c-0.3,0-0.7,0-1,0l0,0c0.2,0.4,0.5,0.5,1,0.5l0,0l0,0c-0.5,0-0.8-0.2-1-0.5c-0.8-0.1-1.1-0.3-1.2-0.4c0.1,0.1,0.5,0.3,1.2,0.4l0,0
			l0,0c0.3,0,0.7,0,1,0c-0.2-0.3-0.5-0.5-0.7-0.8c-0.3,0.1-0.3,0.4-0.3,0.6c0-0.2,0-0.5,0.3-0.6c0.2,0,0.4,0,0.7,0
			c0.1-0.2,0.4-0.3,0.7-0.3c0.6,0,0.8,0.5,1,0.8c0.3-0.1,0.6-0.2,1-0.3C278.5,31.4,279.3,31.8,279.3,31.5c-0.2-0.7,0.6-1.5,0.4-2
			C279.9,30,279.1,30.8,279.3,31.5z M278.1,29.9c0-0.1,0.2-0.2,0.4-0.2C278.3,29.7,278.1,29.8,278.1,29.9z M278.6,29.8
			c-0.1,0.1-0.2,0.2-0.2,0.3C278.5,30,278.6,29.9,278.6,29.8z M279.1,23.9c-0.2,0.4-0.4,0.8-0.6,1.3c0.5,0.6-0.1,0.7-0.6,0.8
			c0,0.4,0,0.7,0,1.1v0.1c0,0,0-0.1-0.1-0.1l0,0c0-0.4,0-0.7,0-1.1l0,0c0.6-0.1,1.1-0.2,0.6-0.8l0,0
			C278.7,24.7,278.9,24.3,279.1,23.9c0.1-0.2,0.3-0.5,0.3-0.7C279.4,23.4,279.2,23.7,279.1,23.9z M276.9,22.5c-0.1,0-0.2,0-0.2-0.1
			v0.1v-0.1C276.8,22.5,276.8,22.5,276.9,22.5z M274.1,13.8C274.1,13.9,274.1,13.9,274.1,13.8C274.1,13.9,274.1,13.9,274.1,13.8
			C274.1,13.9,274.1,13.9,274.1,13.8C274.1,13.9,274.1,13.9,274.1,13.8z M273.1,13.5c0.1,0,0.2,0,0.3-0.1
			C273.4,13.4,273.3,13.4,273.1,13.5c-0.2,0-0.3-0.1-0.5-0.1C272.8,13.4,273,13.4,273.1,13.5z M270.8,13.1c0.1-0.1,0.2-0.1,0.2,0
			C270.9,13.1,270.9,13.1,270.8,13.1c-0.8,0-1.9-0.1-1.5,1.1C268.9,13,269.9,13.2,270.8,13.1z M272.2,13.8
			C272.2,13.9,272.2,13.9,272.2,13.8C272.2,13.9,272.2,13.9,272.2,13.8L272.2,13.8z M273,14.7c-0.1,0-0.3-0.1-0.4-0.1
			C272.8,14.7,272.9,14.7,273,14.7s0.3,0,0.4-0.1C273.3,14.7,273.2,14.7,273,14.7z M272.7,19.4c-0.2,0-0.4,0.1-0.6,0.4l0,0l0,0
			C272.2,19.5,272.5,19.4,272.7,19.4z M271.7,19.8c-0.4,0-0.8,0.1-1.2,0.4l0,0C270.8,19.9,271.2,19.8,271.7,19.8z M270.5,20.2
			c-0.3,0-0.6,0-0.9,0l0,0c-0.1,0-0.3-0.1-0.4-0.1c0.1,0,0.2,0.1,0.4,0.1S270.1,20.2,270.5,20.2z M263.8,21.5L263.8,21.5
			c0.1,0,0.2,0,0.3,0l0,0c0,0.3,0,0.5,0,0.8l0,0l0,0c0-0.3,0-0.5,0-0.8C264,21.5,263.9,21.5,263.8,21.5s-0.2,0-0.3,0l0,0
			C263.6,21.6,263.7,21.6,263.8,21.5z M262.9,21.7c-0.2,0.2-0.2,0.4-0.2,0.7c0.2,0,0.3,0,0.4-0.1c-0.1,0-0.2,0.1-0.4,0.1l0,0
			C262.8,22.1,262.8,21.8,262.9,21.7z M262.4,24.1c0-0.1,0-0.2,0-0.3C262.4,23.9,262.4,24,262.4,24.1c0.1,0.8-0.1,1.7-0.3,2.5l0,0
			C262.4,25.8,262.5,24.9,262.4,24.1z M263.6,28.6c-0.8,0-1.3-0.4-1.5-1l0,0c-0.1-0.1-0.1-0.2-0.1-0.3c0,0.1,0,0.2,0.1,0.2
			C262.3,28.3,262.8,28.6,263.6,28.6c1,0,1.9,0,2.8,0.1l0,0l0,0C265.5,28.7,264.5,28.7,263.6,28.6z M266.1,33.3c0,0.2,0,0.4,0,0.7
			c0.2,0,0.4,0,0.7,0c0.6,0.3,0.5,1.1,1.3,1.1c0.4-0.2,0.3-0.5,0.3-0.8c0,0.3,0.1,0.6-0.3,0.8l0,0c-0.9,0-0.8-0.9-1.3-1.1
			c-0.2,0-0.4,0-0.7,0l0,0C266,33.7,266,33.4,266.1,33.3z M265.1,33.3C265.1,33.3,265,33.3,265.1,33.3
			C265,33.3,265.1,33.3,265.1,33.3z M262.8,38.8c0.4-0.1,0.7-0.2,1.1-0.4l0,0C263.6,38.5,263.2,38.7,262.8,38.8z M264.2,38.8
			L264.2,38.8c-0.1,0.2-0.2,0.4-0.3,0.6C264,39.2,264.1,39,264.2,38.8z M265.4,41.3c1.1,0.4,2.3-0.5,3.4,0.2l0,0c0,0.5,0,1.1,0,1.6
			l0,0c0-0.5,0-1.1,0-1.6C267.7,40.8,266.5,41.6,265.4,41.3c-0.9-0.3-1.3,0.1-1.6,0.7l0,0C264.1,41.4,264.5,40.9,265.4,41.3z
			 M266,42.8l0.1-0.1C266.1,42.7,266,42.7,266,42.8z M266.2,42.6c0.1-0.1,0.1-0.1,0.2-0.2l0,0C266.4,42.4,266.3,42.5,266.2,42.6z
			 M273.4,47.8L273.4,47.8L273.4,47.8z M277.4,48.4c0.2,0.2,0.4,0.5,0.5,0.8C277.7,48.9,277.6,48.6,277.4,48.4z M278.2,43
			c-0.6,0.4-1.2,0.6-2,0.7c-1.9,0.2-3.9,0.4-5.8,0.6c0.3,0.7,1.5,0.2,1.7,0.9l0,0c-0.2-0.8-1.4-0.2-1.7-0.9c1.9-0.2,3.9-0.4,5.8-0.6
			C277,43.6,277.6,43.4,278.2,43c0.2-0.1,0.4-0.3,0.5-0.4c-0.3,0-0.6,0-0.9,0l0,0c-1.5-1-2.7-2.1-2.7-3.9l0,0c0,1.7,1.2,2.9,2.7,3.9
			c0.3,0,0.6,0,0.9,0l0,0C278.6,42.7,278.4,42.9,278.2,43z"/>
	</g>
	<g>
		<path class="st0" d="M305.4,61.7c0.1,1,1.4,2.2-0.4,3c-1.5,0.7-3.4,0.2-4.6-1.1c0.2-0.4-0.1-1,0.4-1.4
			C302.4,62.6,303.9,62.1,305.4,61.7z"/>
		<path class="st0" d="M305.4,61.7c-1.5,0.4-3,0.9-4.6,0.5c0-0.3,0.1-0.5,0.1-0.8c0.2,0,0.3-0.1,0.3-0.3c0.5,0,0.5-0.2,0.6-0.6
			c0.2-2,1.2-2.5,3.5-1.9C305.7,59.7,305.4,60.7,305.4,61.7z"/>
		<path class="st0" d="M305.2,58.7c-2.3-0.6-3.3-0.1-3.5,1.9c0,0.4-0.1,0.6-0.6,0.6c-0.3-0.1-0.7-0.2-1-0.3l0,0
			c-0.1-1.7,0.8-3.3,0.6-4.9c0.5,0,0.8,0.2,1.1,0.5c0.4,0.3,0,1.2,0.9,1.1c0.8-0.1,1.6-0.1,2.2-0.7C305.5,57.4,305.4,58,305.2,58.7z
			"/>
		<path class="st0" d="M300.8,61.4c0,0.3-0.1,0.5-0.1,0.8c-0.5,0.4-0.1,0.9-0.4,1.4c-1.3-0.2-1.3-1.2-1.6-2
			c-0.2-0.6,0.9-0.5,1.3-0.8l0,0C300.1,61.2,300.4,61.4,300.8,61.4z"/>
		<path class="st0" d="M300.8,61.4c-0.5,0-0.8-0.2-0.7-0.6c0.3,0.1,0.7,0.2,1,0.3C301.1,61.3,301,61.4,300.8,61.4z"/>
		<g>
			<path class="st0" d="M317.9,36.8c0.4-1.2,0-2.4-0.1-3.6l0,0c-0.7-1.1-0.3-2.2,0.1-3.4c0.9-2.5,0.7-5.1,0.6-7.7
				c-0.1-1.5-0.7-2.9-3-3.1l0,0c-0.8-0.2-1.6-0.4-2.4-0.7l0,0c-0.5-0.3-0.9-0.6-1.4-0.9c-0.1-0.2-0.2-0.5-0.6-0.6l0,0
				c-0.1-0.8,0.4-1.5,0.8-2.2c0.7-1.2,0-4-1.1-5c-0.1,1.8-0.6,2.2-3,2.8l0,0l0,0c2.4-0.6,3-1.1,3-2.8c-0.1-0.1-0.2-0.2-0.3-0.2l0,0
				c-1.5-1.3-3-1.3-4.4,0H306c-0.7,0.1-0.8,0.6-0.9,1c-0.2,0.6-0.2,1.3-0.6,1.8c-0.8,1.1-0.3,1.9,0.8,2.5c0.2-0.4,0.4-0.9,0.5-1.3
				c-0.3-1.2,0.7-1.1,1.5-1.1c0.2-0.1,0.2-0.1,0.3,0.1c-0.1-0.1-0.1-0.1-0.3,0c-0.9,0-1.9-0.1-1.6,1.1c-0.2,0.4-0.4,0.9-0.5,1.3
				c0.1,0.9,0.3,1.7,0.1,2.6c1.2,1.3,2.8,1,4.4,0.6c0.2-0.2,0.4-0.3,0.7-0.5c-0.2,0.2-0.5,0.3-0.7,0.5l0,0c-1.6,0.5-3.1,0.7-4.3-0.6
				c-0.1,0.1-0.2,0.2-0.3,0.3l0,0c-0.5,0.3-0.9,0.5-1.4,0.8l0,0c-0.7,0-1.4,0.2-2,0.5c0,0.5-0.5,0.7-0.9,1c0.4-0.3,1-0.5,0.9-1
				c-1,0.3-2.3,0.2-2.7,1.2c-1,2.3-1,4.7-1.5,7.1l0,0c-0.1,0.5-0.5,0.9-0.1,1.4c1.4-0.5,2.9-0.5,4.3,0.1c1.2,0.5,2.2,0.5,3.4,0.2
				c0.6-0.2,1.1,0,1.4,0.4c-0.3-0.4-0.9-0.5-1.4-0.4c-1.3,0.4-2.3,0.3-3.4-0.2c-1.4-0.6-2.8-0.6-4.3-0.1c-0.1,2.4,0.1,2.6,3.3,3.6
				c0.5-1.5,2.2-0.8,3.3-1.1c0.1,0,0.3-0.1,0.4-0.1c-0.2,0-0.3,0-0.5,0.1c-1.1,0.3-2.8-0.4-3.3,1.1c0,0.1,0,0.2,0.1,0.2l0,0v0.1
				c0,0.1,0.1,0.1,0.1,0.2c0.6,0.2,1,0.5,0.4,1.1c-0.6,0.5-1.9,1.4-0.4,1.3c-1.6,0.1-0.3-0.8,0.3-1.3c0.6-0.6,0.2-0.9-0.4-1.1
				c-1.8,1.3-3,2.9-3.1,4.9l0,0c-0.8,0-1.6,0.2-2,0.8c-0.1,0.4,0.3,0.5,0.7,0.5l0,0c-0.4,0-0.7-0.1-0.7-0.5
				c-1.6,0.2-2.8,1.1-4.3,1.4c-0.1,0.9-1.1,1.4-1.4,2.2c0.1,0.2,0.2,0.4,0.4,0.5l0,0c1,1.5,1.4,1.7,2.7,1.1c0,0,0,0-0.1,0l0,0
				c1.2-0.9,2.5-1.8,3.7-2.7l0,0c0.8,0,1.4-0.4,2-0.7c0-0.7-0.5-1.7,1.2-1.6c0.6,0,0.7-0.5,0.9-0.9c0.2,0.1,0.3,0.2,0.5,0.3
				c-0.1-0.1-0.3-0.2-0.5-0.3c-0.3,0.4-0.3,0.9-0.9,0.9c-1.7-0.1-1.2,0.9-1.2,1.6c0.4,0.1,0.3,0.4,0.5,0.7l0,0
				c-0.1,0.4-0.1,0.7-0.2,1.1c0.2,0.1,0.3,0.3,0.3,0.4c0-0.1-0.1-0.3-0.3-0.4c-0.3,0-0.7,0.1-0.7,0.4c0,0.3,0.4,0.3,0.7,0.4
				c-0.5,4,0.9,8,0.9,12c0,0.4,0.1,0.7,0.7,0.7c0.5,0,0.8,0.2,1.1,0.5c0.4,0.3,0,1.2,0.9,1.1c0.8-0.1,1.6-0.1,2.2-0.7
				c-0.2-0.4-0.5-0.8-0.5-1.1c0.7-2.5,0.2-4.9,0.3-7.4c0-0.2,0-0.5,0-0.7l0,0c0,0.2,0,0.4,0,0.7c2.2-0.2,4.5-0.4,6.7,0
				c0.1,0,0.2-0.1,0.2-0.2c0,0.1-0.1,0.2-0.2,0.2c1.1,0.5,1.5,1.3,1.6,2.3l0,0c0.2,1.5,0.9,2.9,1,4.4c0.1,1.7,0.6,3.2,1.2,4.8
				c0.2,0.5,0.5,0.7,1.1,0.6c0.8-0.1,0.3-0.6,0.2-0.9c-0.2-0.7-0.5-1.3-0.6-2c-0.6-2.8-0.8-5.7-1.1-8.6c-0.1,0-0.1,0-0.2,0
				c0,0,0.1,0,0.2,0c-0.1-0.7-0.1-1.5-0.2-2.2c-0.3-1.8-0.4-3.4,2.4-3.9c-0.6-0.5-1.1-0.8-1.5-1.1h-0.2l0,0h0.2
				c-0.1-0.3-0.2-0.6-0.3-0.9c0.3-0.1,0.8-0.1,0.9-0.2C316.9,39.4,318.3,38.4,317.9,36.8c-0.2,0.1-0.4,0.2-0.5,0.3
				C317.5,37,317.7,36.9,317.9,36.8z M299.4,38c0.4-0.1,0.7-0.2,1.1-0.4l0,0C300.2,37.8,299.8,37.9,299.4,38z M312.7,47.1
				L312.7,47.1L312.7,47.1c0.1,0,0.3,0,0.4-0.1c0-0.6-0.1-1.2-0.1-1.8c0.1-0.7-0.2-1-0.7-1c0.6,0,0.8,0.3,0.7,1
				c-0.1,0.6,0,1.2,0.1,1.8C313,47,312.9,47.1,312.7,47.1z M309.5,47C309.4,47,309.4,47,309.5,47C309.4,47,309.4,47,309.5,47
				c0.1-0.2,0.4-0.2,0.7-0.2l0,0c0,0.1-0.1,0.2-0.1,0.2c0-0.1,0.1-0.1,0.1-0.2C309.8,46.8,309.6,46.8,309.5,47z M304.7,34.6
				L304.7,34.6L304.7,34.6c0.5,0,1-0.1,1.3,0.3l0,0l0,0C305.7,34.5,305.2,34.6,304.7,34.6z M299.8,25.6L299.8,25.6
				c0.2-0.1,0.3-0.1,0.5-0.1C300.1,25.5,299.9,25.5,299.8,25.6c-0.2,0.1-0.5,0.1-0.7,0.2C299.3,25.7,299.5,25.7,299.8,25.6z
				 M300.7,21.9L300.7,21.9c0.3,1.3,0.6,2.5,0.9,3.8l0,0C301.4,24.4,301,23.1,300.7,21.9c-0.2-0.1-0.2-0.1-0.1-0.2
				C300.5,21.7,300.6,21.8,300.7,21.9z M305.3,21.9V22V21.9z M310.1,19.1L310.1,19.1c0,0.1,0,0.2,0,0.3
				C310.1,19.3,310.1,19.2,310.1,19.1z M312.5,31.7c0.1,0,0.1-0.1,0.1-0.1C312.6,31.7,312.6,31.7,312.5,31.7z M307.1,36.5
				L307.1,36.5c-0.1,0.2-0.2,0.4-0.4,0.5c-0.3,0-0.5-0.1-0.7-0.3c0.2,0.2,0.4,0.3,0.7,0.3C306.9,36.9,307,36.7,307.1,36.5
				L307.1,36.5z M308.7,44.4c0.2,0,0.5,0,0.7,0C309.2,44.5,309,44.5,308.7,44.4L308.7,44.4c-0.2-0.8-1.4-0.2-1.7-0.9l0,0
				C307.4,44.2,308.6,43.7,308.7,44.4z M305.1,44.5L305.1,44.5c0-0.4,0-0.9,0-1.3l0,0l0,0C305.1,43.6,305.1,44,305.1,44.5
				L305.1,44.5z M304.3,39.1c-0.1,0.1-0.3,0.1-0.4,0.2C304,39.2,304.2,39.1,304.3,39.1c-0.5-0.6-1.1-0.2-1.7-0.5
				c1.1-0.8,2-1.6,3.4-1.8c0-0.1,0-0.2,0-0.3c0.2-0.3,0.6-0.3,1-0.3c-0.4,0-0.7,0-1,0.3c0.1,0,0.2,0.1,0.2,0.1s-0.1-0.1-0.2-0.1
				c0,0.1,0,0.2,0,0.3c-1.4,0.3-2.4,1.1-3.4,1.8C303.2,38.9,303.8,38.5,304.3,39.1z M304.5,39.9c0.2,0.2,0.6,0.2,0.8,0.4
				C305.1,40.1,304.7,40.1,304.5,39.9z M305.4,40.7c0,0.5,0,1.1,0,1.6l0,0C305.4,41.8,305.4,41.2,305.4,40.7L305.4,40.7z
				 M305.4,42.3L305.4,42.3L305.4,42.3L305.4,42.3z M307.8,34.1c-0.2-0.4-0.5-0.6-0.9-0.6C307.3,33.5,307.6,33.6,307.8,34.1
				L307.8,34.1z M312.1,31.8c-0.3,0-0.6-0.1-0.8-0.3C311.5,31.7,311.7,31.8,312.1,31.8L312.1,31.8z M308.5,30.1
				c-0.1-0.5,0.1-1.1,0.2-1.6c0-0.5-0.5-0.6-1-0.6l0,0c0.5,0,1,0,1,0.6l0,0C308.7,29.1,308.4,29.6,308.5,30.1
				c0.3,1.2-0.4,1.2-1.4,1.1l0,0C308.1,31.3,308.9,31.3,308.5,30.1z M306.6,24.2c0-0.1-0.1-0.1-0.1-0.2
				C306.5,24,306.5,24.1,306.6,24.2z M306.6,23.7c0.1,0.1,0.1,0.1,0.1,0.2C306.7,23.9,306.6,23.8,306.6,23.7z M306.6,22.7
				c-0.1-0.1-0.2-0.2-0.2-0.3C306.4,22.5,306.5,22.6,306.6,22.7c0.7,0.4,0.9,1.2,1.8,1.4c0.1-0.5,0.2-1.1,0.4-1.6l0,0
				c-0.1,0.5-0.2,1.1-0.4,1.6l0,0C307.5,23.9,307.2,23.1,306.6,22.7z M309,28.5L309,28.5c0.1-0.2,0.1-0.4,0.2-0.6
				c0-0.1,0.1-0.2,0.1-0.3c0,0.1-0.1,0.2-0.1,0.3l0,0C309.1,28.1,309.1,28.3,309,28.5L309,28.5z M311.1,29.6
				c-0.7-0.1-1.6,0.1-1.9-0.4C309.5,29.8,310.4,29.5,311.1,29.6L311.1,29.6z M313.5,28.2c0-0.2-0.1-0.4-0.1-0.6
				C313.4,27.8,313.5,28,313.5,28.2z M313.4,21.8v-0.1c0.1,0,0.1,0,0.2,0.1C313.5,21.8,313.4,21.8,313.4,21.8z M313.4,25.2
				L313.4,25.2c0.4,0.7-0.7,1.4,0,2.2l0,0C312.7,26.7,313.8,25.9,313.4,25.2L313.4,25.2z M309.9,26.6c0-0.1-0.1-0.2-0.1-0.3
				C309.8,26.4,309.9,26.5,309.9,26.6s0.1,0.1,0.1,0.1S310,26.7,309.9,26.6z M302.5,25.1c-0.1-0.1-0.2,0-0.2,0S302.3,25,302.5,25.1z
				 M304,25.9c0.3,0.2,0.5,0.5,0.4,1C304.5,26.4,304.3,26.1,304,25.9z M304,26.8c-0.1,0-0.1,0-0.2,0C303.8,26.8,303.9,26.8,304,26.8
				z M303.6,26.7c-0.1,0-0.2-0.1-0.3-0.1C303.3,26.6,303.5,26.6,303.6,26.7z M304.7,25.2c0.3,0.2,0.6,0.4,1,0.5
				c-0.1-1.1,0.3-2.2-0.3-3.3l0,0c0.6,1.1,0.2,2.2,0.3,3.3c0,0.4,0,0.7,0,1.1l0,0c-0.1,0.1-0.2,0.2-0.3,0.3c0.1,0,0.2-0.1,0.3-0.3
				c0-0.4,0-0.7,0-1.1C305.3,25.6,305,25.4,304.7,25.2z M305.3,27.1C305.3,27.1,305.3,27.2,305.3,27.1
				C305.3,27.2,305.3,27.2,305.3,27.1z M305.3,21.7c0.1-0.5,0.4-0.9,0.7-1.3C305.7,20.8,305.4,21.2,305.3,21.7z M301.6,25.7
				L301.6,25.7c-0.1,0-0.1,0-0.2,0C301.5,25.7,301.6,25.7,301.6,25.7z M301.6,25.7L301.6,25.7c0.5,0.7,1,1.5,1.5,2.2l0,0
				C302.6,27.2,302.1,26.5,301.6,25.7z M306,27.1c0.2,0.3,0.1,0.6,0.1,0.8l0,0l0,0C306.1,27.7,306.1,27.3,306,27.1z M302.7,39.3
				C302.7,39.3,302.8,39.3,302.7,39.3C302.8,39.3,302.7,39.3,302.7,39.3c0.3,0.8,1.1,0.4,1.7,0.5l0,0l0,0
				C303.8,39.7,303,40.2,302.7,39.3c-0.5,0-0.7-0.3-1-0.5C302,39.1,302.2,39.3,302.7,39.3z M305.4,42.5L305.4,42.5L305.4,42.5z
				 M305.1,42.9c0.1-0.1,0.2-0.2,0.2-0.3C305.3,42.7,305.3,42.8,305.1,42.9c-0.1,0-0.2,0.1-0.2,0.1S305,42.9,305.1,42.9z
				 M304.8,46.7L304.8,46.7c0.9,0.2,1.8-0.1,2.6,0.3l0,0C306.6,46.6,305.6,46.9,304.8,46.7z M308.1,36.5c-0.2,0-0.5,0-0.7,0l0,0
				c-0.1-0.1-0.2-0.2-0.3-0.3l0,0c0.1,0.1,0.2,0.2,0.3,0.3C307.6,36.5,307.8,36.5,308.1,36.5c0-0.4,0.2-0.5,0.7-0.5
				c0.1-0.6,0.9-0.8,1.4-1.1c0.7-0.3,1.3-0.6,2-0.8c0.1-0.3,0.3-0.6,0.4-0.7c-0.2,0.1-0.3,0.4-0.4,0.7c1.1,0.1,2-0.1,2.7-0.8l0,0
				l0,0c-0.7,0.7-1.6,1-2.7,0.8c-0.7,0.3-1.3,0.6-2,0.8c-0.5,0.3-1.2,0.5-1.3,1.1C308.3,36,308.1,36.2,308.1,36.5
				c0,0.2,0.2,0.4,0.3,0.5C308.3,36.9,308.1,36.7,308.1,36.5z M312.3,31.8L312.3,31.8L312.3,31.8z M309.8,38.2L309.8,38.2
				c0-0.2-0.1-0.4-0.3-0.5C309.7,37.8,309.7,38,309.8,38.2z M314.1,39.1c0.7-0.9,0.9-1.9,1.5-2.7c0.4-0.6,0.3-1.3,0-1.5
				c0.3,0.3,0.5,1,0,1.6C315,37.2,314.8,38.2,314.1,39.1c-0.4,0.6-0.4,0.9-0.1,1.1C313.7,40,313.7,39.6,314.1,39.1z M315.4,40.4
				L315.4,40.4L315.4,40.4L315.4,40.4z M315.9,30.8c0.1,0.3-0.7-0.2-1.1-0.1c0,0.9,1,1.6,1,2.5l0,0c0-0.9-1-1.5-1-2.5
				c-0.3,0.1-0.6,0.2-1,0.3c-0.2-0.3-0.4-0.8-1-0.8c-0.1,0.3-0.1,0.5-0.4,0.5c0.2,0.1,0.3-0.2,0.4-0.5c-0.3,0-0.5,0-0.7,0.3l0,0
				c-0.2,0-0.4,0-0.7,0c0.2,0.3,0.4,0.5,0.7,0.8c0.3,0,0.5,0.1,0.7,0.3l0,0c-0.1-0.2-0.4-0.3-0.7-0.3c-0.3,0-0.7,0-1,0l0,0l0,0
				c-0.8-0.1-1.1-0.3-1.2-0.4c0.1,0.1,0.5,0.3,1.2,0.4l0,0c0-0.3-0.1-0.6,0.3-0.8c0.2,0,0.5,0,0.7,0c0.2-0.2,0.4-0.3,0.7-0.3
				c0.7,0,0.8,0.5,1,0.8c0.3-0.1,0.6-0.2,1-0.3C315.2,30.6,316,31,315.9,30.8c-0.2-0.7,0.6-1.5,0.4-2
				C316.5,29.3,315.7,30.1,315.9,30.8z M314.7,29.2c0,0.1,0.2,0.1,0.4,0.1C314.9,29.3,314.7,29.3,314.7,29.2z M314.7,29.1
				c0-0.1,0.2-0.2,0.4-0.2C314.9,28.9,314.7,29,314.7,29.1z M315.7,23.1c-0.2,0.4-0.4,0.8-0.6,1.3c0.5,0.6-0.1,0.7-0.6,0.8
				c0,0.4,0,0.7,0,1.1l0,0l0,0c0-0.4,0-0.7,0-1.1c0.5-0.1,1.1-0.2,0.6-0.8c-0.1,0-0.2,0.1-0.3,0.1c0.1-0.1,0.2-0.1,0.3-0.1
				C315.3,23.9,315.5,23.5,315.7,23.1c0.1-0.2,0.3-0.5,0.3-0.7C316,22.6,315.8,22.9,315.7,23.1z M312.4,21c-0.1-0.2-0.2-0.4-0.2-0.7
				C312.2,20.6,312.3,20.8,312.4,21L312.4,21z M311.9,21.6c0,0.1,0.2,0.1,0.2,0.1c0.4-0.1,0.2-0.4,0.3-0.7c1.1-0.2,2.2,0.4,3.3,0
				l0,0c-1.1,0.4-2.2-0.2-3.3,0c-0.1,0.2,0.1,0.5-0.3,0.7C312.1,21.8,311.9,21.7,311.9,21.6L311.9,21.6z M311.4,17.5
				c-0.4,0.3-0.3,0.9-0.6,1.3C311.1,18.5,311,17.9,311.4,17.5z M310.7,13.1L310.7,13.1L310.7,13.1L310.7,13.1L310.7,13.1z M307,13.8
				c0.2,0,0.5,0,0.7-0.2l0,0l0,0C307.5,13.8,307.3,13.8,307,13.8z M308.8,13.1C308.8,13.1,308.9,13.1,308.8,13.1
				C308.9,13.1,308.8,13.1,308.8,13.1L308.8,13.1z M309.7,14c-0.1,0-0.3-0.1-0.4-0.1C309.4,13.9,309.5,14,309.7,14
				c0.1,0,0.3,0,0.4-0.1C309.9,13.9,309.8,14,309.7,14z M310.1,18.9L310.1,18.9c-0.2-0.1-0.5-0.2-0.7-0.2
				C309.6,18.7,309.8,18.8,310.1,18.9z M306.4,19.7c0.2,0,0.5,0,0.7,0c0.6,0.4,1.1-0.1,1.6-0.1l0,0c0.3,0.3,0.5,0.8,1.1,1
				c0.2-0.2,0.3-0.4,0.3-0.6c0,0.2,0,0.5-0.3,0.6l0,0c-0.6-0.2-0.7-0.6-1.1-1c-0.5,0-1,0.6-1.6,0.2
				C306.9,19.6,306.7,19.7,306.4,19.7c-0.1-0.1-0.2-0.1-0.3-0.2c-0.3-0.1-0.5-0.2-0.6-0.3c0.1,0.1,0.4,0.2,0.6,0.3
				C306.2,19.5,306.3,19.6,306.4,19.7z M304.2,19.7c-0.6,0.8-0.2,1.6-0.2,2.3c0,0.4,0.1,0.7,0.3,0.8c-0.1-0.1-0.2-0.4-0.3-0.8
				C304,21.2,303.6,20.4,304.2,19.7c0.3-0.3,0.1-0.6-0.2-0.9C304.3,19,304.5,19.3,304.2,19.7z M300.8,20.1
				C300.8,20.1,300.7,20.1,300.8,20.1C300.7,20.1,300.8,20.1,300.8,20.1z M300.6,20.3L300.6,20.3L300.6,20.3z M300.4,20.5
				c0,0.1,0,0.1,0,0.2C300.4,20.6,300.4,20.6,300.4,20.5z M300.4,20.8L300.4,20.8c0.1,0,0.2,0,0.3,0c0.7,0,1.1,0.1,1.4,0.4
				c-0.3-0.3-0.7-0.4-1.4-0.4c0,0.3,0,0.5,0,0.8l0,0l0,0c0-0.3,0-0.5,0-0.8C300.6,20.8,300.5,20.8,300.4,20.8s-0.2,0-0.3,0l0,0l0,0
				l0,0C300.2,20.8,300.3,20.8,300.4,20.8z M299.7,20.9c-0.3,0.1-0.3,0.4-0.3,0.7c0.2,0,0.3,0,0.4-0.1c-0.1,0-0.2,0.1-0.4,0.1l0,0
				C299.4,21.3,299.4,21,299.7,20.9z M299.1,23.3c0-0.1,0-0.2,0-0.3C299.1,23.1,299.1,23.2,299.1,23.3c0.1,0.9-0.1,1.7-0.3,2.5l0,0
				l0,0l0,0C299,25,299.1,24.2,299.1,23.3z M298.7,26.9L298.7,26.9c0.1,0.3,0.3,0.6,0.5,0.7C299,27.4,298.8,27.2,298.7,26.9z
				 M302.7,32.5c0,0.2,0,0.4,0,0.7c0.2,0,0.4,0,0.7,0c0.2-0.9,1.1-0.4,1.7-0.5c0-0.1,0-0.2,0-0.3l0,0c0,0.1,0,0.2,0,0.3
				c0,0.3,0,0.5,0,0.8c0.1,0,0.2,0,0.3,0c-0.1,0-0.2,0-0.3,0c0-0.3,0-0.5,0-0.8c-0.6,0.1-1.4-0.3-1.7,0.5c0.6,0.3,0.5,1.1,1.3,1.1
				l0,0c-0.9,0-0.8-0.8-1.3-1.1c-0.2,0-0.4,0-0.7,0l0,0C302.7,32.9,302.7,32.7,302.7,32.5z M302,32.8
				C301.9,32.8,301.9,32.8,302,32.8C301.9,32.8,301.9,32.8,302,32.8z M301.2,36.6c0.1-0.1,0.3-0.1,0.4-0.2c0.2-0.2,0.3-0.5,0.5-0.7
				c-0.1-0.1-0.2-0.4-0.3-0.4l0,0c0.1,0,0.2,0.3,0.3,0.4l0,0c-0.2,0.2-0.3,0.5-0.5,0.7l0,0C301.5,36.5,301.4,36.6,301.2,36.6
				c0.1,0,0.1,0.1,0.1,0.1l0,0C301.3,36.7,301.3,36.7,301.2,36.6z M302.6,42l0.1-0.1C302.7,41.9,302.7,42,302.6,42z M302.9,41.8
				c0.1-0.1,0.1-0.1,0.2-0.2l0,0C303,41.7,302.9,41.8,302.9,41.8z M310.7,46.8c0.5,0,0.9-0.1,1.4,0
				C311.7,46.7,311.2,46.7,310.7,46.8z M313.5,49.7c0.1-0.8-0.5-1.5-1.1-2.2c-0.4-0.1-0.5,0-0.6,0.2c0.1-0.2,0.2-0.3,0.6-0.2l0,0
				C313.1,48.3,313.6,48.9,313.5,49.7z M314,47.6c0.2,0.2,0.4,0.5,0.5,0.8C314.4,48.1,314.2,47.8,314,47.6z M313.5,42.8
				c0.1,0,0.2-0.1,0.3-0.1C313.7,42.7,313.6,42.8,313.5,42.8z M315.1,42c0.1-0.1,0.2-0.1,0.2-0.2c-0.3,0-0.6,0-0.9,0
				c-2.4-0.2-4-1.3-5-3l0,0c1,1.8,2.6,2.8,5,3c-1.5-1-2.7-2.1-2.7-3.8l0,0c0,1.7,1.2,2.9,2.7,3.8c0.3,0,0.6,0,0.9,0l0,0
				C315.3,41.9,315.2,41.9,315.1,42z"/>
			<path class="st0" d="M313.4,21.8c0,0,0.1,0,0.2,0C313.5,21.7,313.4,21.7,313.4,21.8C313.4,21.7,313.4,21.8,313.4,21.8z"/>
			<path class="st0" d="M311.1,31.3c0.3,0,0.7,0,1,0c-0.2-0.3-0.5-0.5-0.7-0.8C311,30.6,311.1,31,311.1,31.3z"/>
		</g>
	</g>
	<g>
		<path class="st0" d="M340.6,62.9c0.1,1,1.4,2.2-0.4,3c-1.5,0.7-3.4,0.2-4.6-1.1c0.2-0.4-0.1-1,0.4-1.4
			C337.6,63.8,339.1,63.4,340.6,62.9z"/>
		<path class="st0" d="M340.6,62.9c-1.5,0.4-3,0.9-4.6,0.5c0-0.3,0.1-0.5,0.1-0.8c0.2,0,0.3-0.1,0.3-0.3c0.5,0,0.5-0.2,0.6-0.6
			c0.2-2,1.2-2.5,3.5-1.9C340.9,60.9,340.6,61.9,340.6,62.9z"/>
		<path class="st0" d="M340.4,59.9c-2.3-0.6-3.3-0.1-3.5,1.9c0,0.4-0.1,0.6-0.6,0.6c-0.3-0.1-0.7-0.2-1-0.3l0,0
			c-0.1-1.7,0.8-3.3,0.6-4.9c0.5,0,0.8,0.2,1.1,0.5c0.4,0.3,0,1.2,0.9,1.1c0.8-0.1,1.6-0.1,2.2-0.7
			C340.7,58.6,340.6,59.3,340.4,59.9z"/>
		<path class="st0" d="M336,62.7c0,0.3-0.1,0.5-0.1,0.8c-0.5,0.4-0.1,0.9-0.4,1.4c-1.3-0.2-1.3-1.2-1.6-2c-0.2-0.6,0.9-0.5,1.3-0.8
			l0,0C335.3,62.5,335.6,62.6,336,62.7z"/>
		<path class="st0" d="M336,62.7c-0.5,0-0.8-0.2-0.7-0.6c0.3,0.1,0.7,0.2,1,0.3C336.3,62.5,336.2,62.6,336,62.7z"/>
		<g>
			<path class="st0" d="M353,34.4c-0.7-1.1-0.3-2.2,0-3.4c0.9-2.5,0.7-5.1,0.6-7.7c-0.1-1.5-0.7-2.9-3-3.1l0,0
				c-0.8-0.2-1.6-0.4-2.4-0.7l0,0c-0.5-0.3-0.9-0.6-1.4-0.9l0,0c-0.1-0.2-0.2-0.5-0.6-0.6l0,0c-0.1-0.8,0.4-1.5,0.8-2.2
				c0.7-1.2,0-4-1.1-5c-0.1,1.8-0.6,2.2-3,2.8c0.2,0.4,0.5,0.7,0,1.1c-0.6,0.5-1.1,0.2-1.7,0c0.5,0.2,1.1,0.5,1.7,0
				c0.5-0.4,0.2-0.7,0-1.1l0,0l0,0c2.4-0.6,3-1.1,3-2.8c-0.1-0.1-0.2-0.2-0.3-0.2l0,0c-1.5-1.3-3-1.3-4.4,0h-0.1
				c-0.7,0.1-0.8,0.6-0.9,1c-0.2,0.6-0.2,1.3-0.6,1.8c-0.8,1.1-0.3,1.9,0.8,2.5c0.2-0.4,0.4-0.9,0.5-1.3l0,0
				c-0.2,0.4-0.4,0.9-0.5,1.3c0.1,0.9,0.3,1.7,0.1,2.6c1.2,1.3,2.8,1.1,4.3,0.6c0.2-0.2,0.4-0.3,0.7-0.5c-0.2,0.2-0.5,0.3-0.7,0.5
				c-1.6,0.5-3.1,0.7-4.3-0.6c-0.1,0.1-0.2,0.2-0.3,0.3l0,0c-0.5,0.3-0.9,0.5-1.4,0.8l0,0c-0.7,0-1.4,0.2-2,0.5c0,0.6-0.6,0.8-1,1.1
				c0.4-0.3,1.1-0.5,1-1.1c-1,0.3-2.3,0.2-2.7,1.2c-1,2.3-1,4.7-1.5,7.1l0,0c-0.1,0.5-0.5,0.9-0.1,1.4c1.4-0.5,2.9-0.5,4.3,0.1
				c1.2,0.5,2.2,0.5,3.4,0.2c0.6-0.2,1.1,0,1.4,0.4c-0.3-0.4-0.9-0.5-1.4-0.4c-1.3,0.4-2.3,0.3-3.4-0.2c-1.4-0.6-2.8-0.6-4.3-0.1
				c-0.1,2.4,0.1,2.6,3.3,3.6c0.5-1.5,2.2-0.8,3.3-1.1c0.5-0.1,0.9-0.1,1.5-0.1c-0.5,0-1,0-1.5,0.1c-1.1,0.3-2.8-0.4-3.3,1.1
				c0,0.1,0,0.2,0.1,0.2l0,0v0.1c0,0.1,0.1,0.1,0.1,0.2l0,0c-1.8,1.3-3,2.9-3.1,4.9l0,0c-0.8,0-1.6,0.1-2,0.8v0.1v-0.1
				c-1.6,0.2-2.8,1.1-4.3,1.4c-0.1,0.9-1.1,1.4-1.4,2.2c0.1,0.2,0.2,0.3,0.3,0.5l0,0c1,1.5,1.4,1.6,2.7,1.1c0,0,0,0-0.1,0l0,0
				c1.2-0.9,2.5-1.8,3.7-2.7c-0.1-0.7-0.3-1.3-0.4-2l0,0c0.1,0.7,0.3,1.3,0.4,2c0.8,0,1.4-0.4,2-0.7l0,0c0.4,0.1,0.3,0.5,0.5,0.7
				l0,0c-0.1,0.4-0.1,0.7-0.2,1.1c-0.3,0-0.7,0.1-0.7,0.4c0,0.3,0.4,0.3,0.7,0.4c-0.5,4,0.9,8,0.9,12c0,0.4,0.1,0.7,0.7,0.7
				c0.5,0,0.8,0.2,1.1,0.5c0.4,0.3,0,1.2,0.9,1.1c0.8-0.1,1.7-0.1,2.2-0.7c-0.2-0.4-0.6-0.8-0.5-1.1c0.7-2.5,0.2-4.9,0.3-7.4
				c0-0.2,0-0.5,0-0.7l0,0c0,0.2,0,0.5,0,0.7c2.2-0.2,4.5-0.4,6.7,0c0.1,0,0.2-0.1,0.2-0.2c0,0.1-0.1,0.2-0.2,0.2
				c1.1,0.5,1.5,1.3,1.6,2.3l0,0c0.2,1.5,0.9,2.9,1,4.4c0.1,1.7,0.6,3.2,1.2,4.8c0.2,0.5,0.5,0.7,1.1,0.6c0.8-0.1,0.3-0.6,0.2-0.9
				c-0.2-0.7-0.5-1.3-0.6-2c-0.6-2.8-0.8-5.7-1.1-8.6c-0.1-0.7,0-1.5-0.2-2.2c-0.4-1.8-0.4-3.4,2.4-3.9c-0.7-0.5-1.1-0.8-1.5-1.1
				h-0.2h-0.2c-0.3,0-0.6,0-0.9,0l0,0c-1.5-1-2.7-2.1-2.7-3.9l0,0c0,1.7,1.2,2.9,2.7,3.8c0.3,0,0.6,0,0.9,0h0.2h0.2
				c-0.1-0.3-0.2-0.6-0.3-1c0-0.2,0-0.3,0-0.5l0,0c1.1-1.1,0.9-2.8,2.5-3.5C353.6,36.9,353.1,35.7,353,34.4
				C353,34.5,353,34.5,353,34.4z M341,14.3c0-0.8,0.9-0.7,1.6-0.7c0.1-0.1,0.2-0.1,0.2,0c0,0-0.1,0-0.2,0.1
				C341.9,13.7,341,13.6,341,14.3z M341.3,14.8L341.3,14.8L341.3,14.8z M351.1,32c0.1,0.3-0.7-0.2-1.1-0.1c0,0.9,1,1.6,1,2.5l0,0
				c0-0.9-1-1.5-1-2.5c-0.3,0.1-0.6,0.2-1,0.3c-0.2-0.3-0.4-0.8-1-0.8c-0.1,0.2-0.1,0.4-0.3,0.5c0.2,0,0.2-0.2,0.3-0.5
				c-0.3,0-0.5,0-0.7,0.3l0,0c-0.2,0-0.4,0-0.7,0c0.2,0.3,0.4,0.5,0.7,0.8c-0.2-0.3-0.4-0.5-0.7-0.8c-0.4,0.2-0.3,0.5-0.3,0.8
				c0.3,0,0.7,0,1,0l0,0c-0.3,0-0.7,0-1,0l0,0c0.2,0.4,0.5,0.5,1,0.5l0,0c-0.5,0-0.8-0.2-1-0.5c-0.9-0.2-1.2-0.4-1.2-0.5
				c0,0.2,0.3,0.3,1.2,0.5l0,0c0-0.3-0.1-0.6,0.3-0.8c0.2,0,0.4,0,0.7,0c0.1-0.2,0.4-0.3,0.7-0.3c0.6,0,0.8,0.5,1,0.8
				c0.3-0.1,0.6-0.2,1-0.3C350.4,31.9,351.2,32.3,351.1,32c-0.2-0.7,0.6-1.5,0.4-2C351.8,30.5,350.9,31.3,351.1,32z M340.3,45.7
				c0-0.4,0-0.9,0-1.3l0,0c0-0.1,0-0.2,0-0.3c-0.1,0-0.2,0.1-0.2,0.1c0-0.1,0.1-0.1,0.2-0.1c0.2-0.1,0.3-0.3,0.3-0.5l0,0
				c0-0.5,0-1.1,0-1.6c0.1-0.6-0.7-0.5-1-0.8c0.2,0.3,1.1,0.2,1,0.8c0,0.5,0,1.1,0,1.6c0,0.2,0,0.4-0.3,0.6c0,0.1,0,0.2,0,0.3
				C340.3,44.9,340.3,45.3,340.3,45.7L340.3,45.7c-0.1,0.2-0.2,0.4-0.2,0.5C340.1,46.1,340.2,45.9,340.3,45.7z M335.6,42.5
				L335.6,42.5c0.3-0.6,0.7-1,1.6-0.7c0.4,0.1,0.8,0.1,1.2,0.1c-0.4,0.1-0.8,0.1-1.2-0.1C336.3,41.4,335.9,41.9,335.6,42.5
				L335.6,42.5z M342.9,45.2c0.3,0.1,0.6,0.1,0.8,0.2C343.4,45.2,343.2,45.2,342.9,45.2z M340,47.9L340,47.9
				c0.9,0.2,1.8-0.1,2.6,0.4l0,0C341.8,47.9,340.8,48.1,340,47.9L340,47.9L340,47.9z M348.3,46.5c0-0.1,0-0.2,0-0.3
				C348.3,46.3,348.3,46.4,348.3,46.5c0,0.2,0,0.3,0,0.4C348.3,46.8,348.3,46.6,348.3,46.5z M344.6,40L344.6,40
				c0.2,0.3,0.4,0.6,0.6,0.8C345,40.5,344.8,40.3,344.6,40z M343.3,37.8c-0.2,0-0.4,0-0.7,0c-0.1-0.1-0.2-0.2-0.3-0.3
				c0,0.1,0,0.2,0,0.3c-0.1,0.2-0.2,0.4-0.4,0.5c0.1-0.2,0.2-0.4,0.4-0.5c0-0.1,0-0.2,0-0.3c-0.4,0-0.8,0-1,0.3
				c0.1,0,0.2,0.1,0.2,0.1s-0.1-0.1-0.2-0.1c0,0.1,0,0.2,0,0.3l0,0c-1.4,0.3-2.4,1.1-3.4,1.8l0,0c1.1-0.8,2-1.6,3.4-1.8
				c0-0.1,0-0.2,0-0.3c0.2-0.3,0.6-0.3,1-0.3c0.1,0.1,0.2,0.2,0.3,0.3C342.8,37.8,343.1,37.8,343.3,37.8c0.2,0.8,1.6,0.8,1.7,1.7
				l0,0C344.9,38.5,343.5,38.6,343.3,37.8z M340.1,33.9c0.1,0,0.2,0,0.2,0c0-0.1,0-0.2,0-0.3l0,0c0,0.1,0,0.2,0,0.3
				c0,0.3,0,0.6,0,0.8h0.1c-0.1,0-0.1,0-0.2,0c0,0.3,0.1,0.6-0.3,0.8c0.4-0.2,0.3-0.5,0.3-0.8s0-0.6,0-0.8H340.1z M335,22.8
				c-0.1,0-0.2,0.1-0.4,0.1l0,0C334.8,22.8,334.9,22.8,335,22.8z M335,26.9L335,26.9c0.2-0.1,0.3-0.1,0.5-0.1
				C335.3,26.8,335.1,26.8,335,26.9c-0.2,0.1-0.5,0.1-0.7,0.2C334.5,27,334.7,26.9,335,26.9z M337.6,26.3c-0.2,0,0,0.5,0.1,0.7
				c0.4,0.7,1.1,1,2,1.1l0,0c0.4,0.3,0.9,0.6,1.3,0c0-0.4,0-0.7,0-1.1c-0.4-0.1-0.7-0.3-1-0.5c0.3,0.2,0.6,0.4,1,0.5
				c-0.1-0.7,0.1-1.4,0-2.1c0,0.7-0.1,1.4,0,2.1c0,0.4,0,0.7,0,1.1l0,0c-0.4,0.6-0.9,0.3-1.3,0c-0.9,0-1.6-0.4-2-1.1
				c-0.3,0-0.6,0-0.8,0l0,0c0.3,0,0.6,0,0.8,0C337.6,26.8,337.4,26.3,337.6,26.3z M339.4,20.9c-0.2,0.3-0.3,0.6-0.3,0.9
				C339.1,21.5,339.2,21.2,339.4,20.9c0.1-0.1,0.1-0.2,0.1-0.3C339.5,20.7,339.5,20.8,339.4,20.9z M339.6,28.1c0-0.5-0.1-0.8-0.4-1
				C339.5,27.3,339.7,27.6,339.6,28.1z M336.9,26.9c-0.1,0-0.2,0-0.2,0S336.8,26.9,336.9,26.9L336.9,26.9z M341.1,28.2
				c0.3,0.3,0.2,0.6,0.2,1l0,0C341.2,28.9,341.4,28.5,341.1,28.2z M347.3,23L347.3,23L347.3,23L347.3,23z M346.3,31
				C346.3,31,346.3,30.9,346.3,31c-0.7-0.2-1.6,0-1.9-0.5c0.4,0.5,1.3,0.3,1.9,0.4c0.8-0.1,1.5-0.2,2-0.8c-1.3-0.4-2.5-0.8-3.9-0.9
				l0,0c1.4,0.1,2.7,0.5,3.9,0.9c0.6-0.4,0.2-0.9,0.3-1.4l0,0c0,0.5,0.3,1-0.3,1.4c-0.5,0.5-1.3,0.7-2,0.8V31z M348.8,34.3
				c0.1,0,0.3,0,0.4,0C349,34.3,348.9,34.3,348.8,34.3z M347.9,32.9l-0.1,0.1C347.8,32.9,347.9,32.9,347.9,32.9z M347.5,33.1
				C347.5,33.1,347.5,33,347.5,33.1C347.5,33,347.5,33.1,347.5,33.1z M343.7,31.3c-0.1-0.5,0.1-1.1,0.2-1.6c0-0.3-0.1-0.4-0.3-0.5
				c0.2,0.1,0.3,0.2,0.3,0.5l0,0C343.9,30.3,343.6,30.9,343.7,31.3c0.3,1-0.3,1.2-1.1,1.2C343.5,32.5,344,32.4,343.7,31.3z
				 M341.3,36.1L341.3,36.1c-0.1-0.1-0.2-0.2-0.3-0.2C341.1,36,341.2,36,341.3,36.1z M343,35.3L343,35.3c-0.2-0.3-0.3-0.5-0.5-0.5
				C342.7,34.9,342.9,35,343,35.3L343,35.3z M348.7,28.6L348.7,28.6c-0.2-0.2-0.3-0.3-0.3-0.5C348.4,28.3,348.5,28.4,348.7,28.6
				c0.8,0,0.5-0.7,0.8-1C349.2,28,349.5,28.7,348.7,28.6z M348.6,23C348.6,23,348.5,23,348.6,23c0-0.1,0.1-0.1,0.2,0
				C348.7,23,348.6,23,348.6,23L348.6,23z M348.6,26.5c0,0.1,0.1,0.2,0.1,0.3C348.7,26.6,348.7,26.5,348.6,26.5L348.6,26.5z
				 M345.4,28.1c-0.1-0.1-0.2-0.1-0.3-0.2c-0.1-0.2-0.2-0.4-0.4-0.5c0.1,0.1,0.3,0.2,0.4,0.5C345.2,28,345.3,28.1,345.4,28.1z
				 M343.3,27.3L343.3,27.3c-0.1-0.4,0-0.8,0.1-1.2C343.3,26.4,343.2,26.8,343.3,27.3z M340,35.8L340,35.8
				C339.9,35.8,339.9,35.8,340,35.8L340,35.8z M336.9,37.7c0.2-0.2,0.3-0.5,0.5-0.7c-0.1-0.1-0.2-0.4-0.3-0.4l0,0
				c0.1,0,0.2,0.3,0.3,0.4l0,0C337.2,37.2,337,37.5,336.9,37.7L336.9,37.7c-0.1,0.1-0.3,0.1-0.4,0.2l0.1,0.1l0,0l-0.1-0.1
				C336.6,37.8,336.7,37.8,336.9,37.7z M337.1,34l0.1,0.1C337.2,34,337.1,34,337.1,34z M349.9,30.4c0-0.1,0.2-0.2,0.4-0.2
				C350.1,30.2,349.9,30.3,349.9,30.4z M350.9,24.4c-0.2,0.4-0.4,0.8-0.6,1.3c0.5,0.6-0.1,0.7-0.6,0.8c0,0.4,0,0.7,0,1.1
				c0,0,0,0.1,0.1,0.1c0,0,0-0.1-0.1-0.1l0,0l0,0c0-0.4,0-0.7,0-1.1c0.5-0.1,1.1-0.2,0.6-0.8c-0.1,0-0.2,0.1-0.3,0.1
				c0.1-0.1,0.2-0.1,0.3-0.1C350.5,25.2,350.7,24.8,350.9,24.4c0.1-0.3,0.4-0.6,0.2-0.8C351.4,23.8,351,24.1,350.9,24.4z M351,22.3
				L351,22.3c-1.1,0.4-2.2-0.2-3.3,0c0,0,0,0,0,0.1c0,0,0,0,0-0.1l0,0c-0.1-0.2-0.2-0.4-0.2-0.6c0,0.2,0.1,0.4,0.2,0.6l0,0
				C348.8,22.1,349.9,22.7,351,22.3z M345.9,14.4L345.9,14.4L345.9,14.4L345.9,14.4z M345.9,14.3c0-0.3-0.3-0.4-0.6-0.4
				C345.6,13.9,345.9,14,345.9,14.3z M344.9,15.2c-0.2,0-0.4-0.1-0.6-0.3C344.4,15.1,344.6,15.2,344.9,15.2c0.1,0,0.3,0,0.4-0.1
				C345.1,15.2,345,15.2,344.9,15.2z M345.3,20.1c0,0.1,0,0.1-0.1,0.2l0,0C345.2,20.3,345.3,20.2,345.3,20.1
				c-0.2-0.1-0.5-0.2-0.7-0.2C344.8,20,345,20.1,345.3,20.1z M341.6,20.9c0.2,0,0.5,0,0.7,0c0.6,0.4,1.1-0.1,1.6-0.1
				c0-0.1,0-0.3,0-0.4l0,0c0,0.1,0,0.2,0,0.4c0.3,0.3,0.5,0.8,1.1,1c0.5-0.4,0.2-0.9,0.3-1.3l0,0c-0.2,0.4,0.2,0.9-0.3,1.3
				c-0.2,0.7-0.6,1.4-1,2c-0.1,0.5-0.2,1.1-0.4,1.6l0,0c-0.9-0.2-1.2-1-1.8-1.4c-0.1,0-0.1-0.1-0.1-0.1l0.1,0.1
				c0.7,0.4,0.9,1.2,1.8,1.4c0.1-0.5,0.2-1.1,0.4-1.6l0,0c0.5-0.6,0.8-1.3,1-2c-0.6-0.2-0.7-0.6-1.1-1c-0.5,0-1,0.6-1.6,0.2
				C342.1,20.9,341.9,20.9,341.6,20.9c-0.1-0.1-0.2-0.1-0.3-0.2c-0.3-0.1-0.5-0.2-0.6-0.3c0.1,0.1,0.4,0.2,0.6,0.3
				C341.4,20.8,341.5,20.8,341.6,20.9z M335.6,22L335.6,22c0.1,0,0.2,0,0.3,0c0.7,0,1.1,0.1,1.4,0.4c-0.3-0.3-0.7-0.4-1.4-0.4
				c0,0.3,0,0.5,0,0.8c0,0.1,0,0.2,0,0.3c0.3,1.3,0.6,2.5,0.9,3.8l0,0c-0.3-1.3-0.6-2.5-0.9-3.8c-0.2-0.1-0.2-0.2,0-0.3
				c0-0.3,0-0.5,0-0.8C335.8,22,335.7,22,335.6,22s-0.2,0-0.3,0l0,0C335.4,22,335.5,22,335.6,22z M334.6,22.8L334.6,22.8L334.6,22.8
				L334.6,22.8z M334.3,24.6L334.3,24.6L334.3,24.6c0.1,0.9-0.1,1.7-0.3,2.5l0,0C334.2,26.3,334.4,25.4,334.3,24.6z M333.9,28.1
				L333.9,28.1c0.1,0.3,0.3,0.6,0.5,0.7C334.2,28.7,334,28.4,333.9,28.1z M340.8,32.5L340.8,32.5L340.8,32.5z M337.9,33.8
				c0,0.2,0,0.4,0,0.7c0.2,0,0.4,0,0.7,0c0.1-0.4,0.4-0.5,0.7-0.6c-0.3,0-0.6,0.1-0.7,0.6c0.6,0.3,0.5,1.1,1.3,1.1l0,0l0,0
				c-0.9,0-0.8-0.9-1.3-1.1c-0.2,0-0.4,0-0.7,0l0,0C337.9,34.2,337.9,33.9,337.9,33.8z M336.9,33.8L336.9,33.8L336.9,33.8z
				 M336.6,33.7L336.6,33.7L336.6,33.7z M336.2,33.8c0,0-0.1,0-0.1,0.1C336.2,33.8,336.2,33.8,336.2,33.8z M336.5,35.3
				c0.4-0.4,0.4-0.6,0.2-0.8C336.9,34.7,336.9,34.9,336.5,35.3c-0.4,0.4-1.3,1-1,1.3C335.1,36.3,336,35.7,336.5,35.3z M335.6,38.9
				c-0.9,0.1-1.6,0.2-2.1,0.2C334,39,334.7,39,335.6,38.9z M331,40.3L331,40.3L331,40.3z M335.8,38.9L335.8,38.9
				c-0.2,0.1-0.3,0.1-0.5,0.2C335.4,39,335.6,38.9,335.8,38.9z M333.9,41c0-0.5,0.2-0.8,1.3-0.8c0.6,0,0.7-0.5,0.9-0.9
				c0.7,0.3,0.9,1.2,1.8,1.3c0.5-0.1,1.1,0.1,1.6-0.2l0,0c-0.5,0.3-1.1,0.1-1.6,0.2c-1-0.1-1.1-0.9-1.8-1.3
				c-0.3,0.4-0.3,0.9-0.9,0.9C334.1,40.1,333.9,40.5,333.9,41z M334.6,44.1c0-0.1,0-0.2-0.1-0.3C334.6,43.9,334.6,44,334.6,44.1z
				 M347.6,48.8c-0.4-0.1-0.5,0-0.6,0.2C347.1,48.8,347.2,48.7,347.6,48.8c0.5,0.6,1,1.1,1.1,1.8C348.6,50,348.1,49.4,347.6,48.8z
				 M350,50.2C350.1,50.2,350.1,50.2,350,50.2C350.1,50.2,350.1,50.2,350,50.2c-0.5-0.7-0.7-1.5-1.7-1.9c-0.1,0-0.3,0-0.4,0.1
				c-0.8-0.5-1.7-0.3-2.6-0.2c0,0.1-0.1,0.2-0.1,0.2c0-0.1,0.1-0.1,0.1-0.2c-0.2-0.1-0.5,0-0.6,0.1c0.1-0.2,0.4-0.2,0.6-0.1
				c0.9-0.1,1.8-0.3,2.6,0.2c0.1,0,0.3,0,0.4-0.1l0,0C349.4,48.6,349.5,49.5,350,50.2z M350.8,37.6c-0.6,0.8-0.8,1.8-1.5,2.7
				c-0.4,0.5-0.4,0.9-0.1,1.1c-0.3-0.2-0.3-0.5,0.1-1.1C350,39.5,350.2,38.5,350.8,37.6c0.4-0.6,0.3-1.3,0-1.6
				C351.1,36.4,351.3,37.1,350.8,37.6z M351.3,34.7C351.3,34.8,351.3,34.8,351.3,34.7c0.2,0.2,0,0.7,0.3,0.9
				C351.3,35.5,351.5,35,351.3,34.7z"/>
			<path class="st0" d="M350.6,41.6c0,0.2,0,0.3,0,0.5c0.3-0.1,0.8-0.1,0.9-0.2c0.6-1.2,2-2.3,1.6-3.8
				C351.5,38.9,351.6,40.5,350.6,41.6z"/>
			<path class="st0" d="M335.9,23.1c0-0.1,0-0.2,0-0.3C335.7,22.9,335.7,23,335.9,23.1z"/>
		</g>
	</g>
</g>
<g id="banco">
	<rect x="246.2" y="35" width="117" height="29.4"/>
</g>
<path class="st1" d="M330.5,229.2c-61.4,0-122.7,0-184.1,0c-1.3,0-3,0.8-3.7-0.7c-0.8-1.7,0.3-3.2,1.2-4.9
	c4.8-8.7,9.2-17.5,13.8-26.3c6.3-12.3,12.6-24.6,19-36.8c6.5-12.5,13-24.9,19.5-37.4c8.8-17,17.6-34.1,26.3-51.2
	c1.5-2.9,3.2-4.1,6.4-4.1c68.1,0.1,136.2,0.1,204.4,0c3.4,0,5.1,1.4,6.7,4.6c6.6,13,13.6,25.8,20.3,38.7
	c6.6,12.8,13.1,25.8,19.8,38.6c5.1,10,10.6,19.7,15.5,29.8c6.7,13.7,14.1,27,21,40.6c0.6,1.3,1,2.9,2,3.8c1.1,1.1,1.8,2.3,1.1,3.7
	c-0.7,1.3-1.9,1.8-3.4,1.7c-5.9-0.1-11.8-0.1-17.7-0.1C442.4,229.2,386.5,229.2,330.5,229.2L330.5,229.2z M331.2,197.9
	c0,0.1,0,0.1,0,0.2c40.5,0,81,0,121.5-0.1c2,0,4.1,0.5,6.2-0.2c1.5-0.5,2.2-0.9,1.4-2.7c-4.6-11.7-9.1-23.5-13.9-35.2
	c-5.3-13.2-10.4-26.6-15.6-40c-5-12.6-9.6-25.3-14.6-37.9c-0.9-2.3-2-3.2-4.4-3.2c-53.8,0-107.5,0-161.2,0c-2.5,0-3.7,0.9-4.6,3.4
	c-3.9,10.6-8.5,20.8-12.3,31.5c-3.2,9-7.1,17.8-10.5,26.8c-6.4,16.6-12.6,33.2-19,49.7c-3,7.7-3.1,7.7,4.4,7.7
	C249.5,197.9,290.3,197.9,331.2,197.9z"/>
<path class="st2" d="M331.2,197.9c-40.9,0-81.7,0-122.6,0c-7.6,0-7.4,0-4.4-7.7c6.4-16.5,12.6-33.2,19-49.7
	c3.4-9,7.3-17.7,10.5-26.8c3.8-10.6,8.4-20.9,12.3-31.5c0.9-2.5,2.1-3.4,4.6-3.4c53.8,0.1,107.5,0.1,161.2,0c2.3,0,3.4,0.9,4.4,3.2
	c5,12.6,9.6,25.3,14.6,37.9c5.2,13.3,10.3,26.7,15.6,40c4.7,11.7,9.2,23.5,13.9,35.2c0.7,1.8,0,2.3-1.4,2.7
	c-2.1,0.7-4.1,0.2-6.2,0.2c-40.5,0.1-81,0.1-121.5,0.1C331.2,198,331.2,197.9,331.2,197.9z M277.4,147.7L277.4,147.7
	c5,0,10.1-0.1,15.1,0c2.3,0.1,3.5-0.3,3.8-3.3c1.3-11.5,2.7-23.1,4.2-34.6c0.4-3.2-1.2-3.2-3.2-3.2c-8.2,0-16.4,0.1-24.6,0
	c-2.5,0-3.8,1-4.3,3.7c-2.2,11.6-6.2,22.6-8.6,34.1c-0.6,2.9,0.1,3.3,2.3,3.3C267,147.7,272.2,147.7,277.4,147.7z M384.5,147.7
	L384.5,147.7c5.3,0,10.6,0,15.8,0c1.8,0,3.1-0.2,2.4-3c-3-11.3-5.8-22.6-8.6-34c-0.7-2.9-1.9-4.3-4.8-4.2c-7.7,0.2-15.5,0.1-23.2,0
	c-4,0-5.5,1.8-4.5,6.1c0.3,1.1,0.6,2.3,0.7,3.5c1.3,9.5,2.6,19,3.8,28.6c0.3,2.6,1.4,3,3.4,3C374.5,147.7,379.5,147.7,384.5,147.7z"
	/>
<path class="st3" d="M277.4,147.7c-5.1,0-10.3,0-15.4,0c-2.1,0-2.9-0.4-2.3-3.3c2.4-11.5,6.4-22.6,8.6-34.1c0.5-2.7,1.8-3.7,4.3-3.7
	c8.2,0.1,16.4,0.1,24.7,0c2,0,3.7,0,3.2,3.2c-1.5,11.5-3,23-4.2,34.6c-0.3,3-1.6,3.4-3.8,3.3C287.4,147.6,282.4,147.7,277.4,147.7
	L277.4,147.7z"/>
<path class="st3" d="M384.5,147.7c-5,0-10.1-0.1-15.1,0c-2,0-3.1-0.4-3.4-3c-1.1-9.5-2.5-19.1-3.8-28.6c-0.2-1.2-0.5-2.3-0.7-3.5
	c-1-4.3,0.5-6.1,4.5-6.1c7.7,0,15.5,0.1,23.2,0c2.9-0.1,4.1,1.3,4.8,4.2c2.8,11.3,5.6,22.7,8.6,34c0.7,2.8-0.6,3-2.4,3
	C395.1,147.8,389.8,147.7,384.5,147.7L384.5,147.7z"/>
<g>
	<path class="st4" d="M622.6,250.3c-0.3,0.5-0.2,1-0.5,1.4c-0.2,0.2-0.3,0.5-0.6,0.4s-0.2-0.4-0.2-0.5c0-1.3-0.1-2.6,0.2-3.9
		c0.2-0.8,0.9-1.4,1.1-2.2c0.5-1.7,0-3.4-0.5-5.1c-0.7-2.4-1.1-4.9-1.6-7.4c-0.2-1-0.2-2.1-0.7-3.1c-0.1-0.1-0.1-0.3-0.4-0.4
		c-0.1,1.2-0.9,2.3-0.4,3.6c0.6,1.7,0.8,3.4,0.3,5.2c0,0.1,0,0.3,0,0.4c1,1.4,0.8,2.7,0.2,4.2c-0.6,1.4-1.2,2.9-1.1,4.5
		c0.2,1.9-0.9,3.5-1.4,5.2c-0.2,0.9-0.5,1.7-0.9,2.5c-0.2,0.6-0.1,1.2-0.2,1.9c-0.2,1.3,0.3,2.4,0.6,3.6c0.3,1.5,0,3-0.3,4.5
		c-0.5,3.4-0.8,6.8-1.2,10.1c0,0.4,0,0.7-0.6,0.6c-0.4,0-0.5,0.2-0.5,0.5c-0.2,1-0.5,2.1-0.7,3.1c0,0.2,0,0.4,0.2,0.5
		c0.2,0.2,0.2,0.5,0.1,0.7c-0.5,2,0.1,3.9,0.3,5.9c0.1,0.5,0,1-0.9,1.1c-2.6,0.2-5.3,0.7-7.9,0.3c-0.4-0.1-1,0.1-1.1-0.5
		s0-1.3,0.7-1.5c2.3-1,3-2.7,3-4.9c0-0.7,0.8-1.2,0.3-1.9c-2.1-3.9-2.2-8.5-4-12.5c-0.5-1.2-0.4-2.4-0.5-3.6
		c-0.3-1.9-1.2-3.6-1.1-5.5c0-4.1-1.1-8-1.6-12c0-0.3,0-0.6-0.4-0.8c-0.8-0.3-0.8-0.9-0.8-1.5c0-1.4,0.3-2.8,0.2-4.1
		c0-0.7,0.3-1.3,0.7-1.9c0.9-1.4,1.3-2.9,0.3-4.5c-0.2-0.4-0.3-0.8-0.4-1.3c-0.1-0.4-0.2-0.7-0.7-0.6c-0.6,0-0.5,0.5-0.5,0.8
		c0.2,1.8-0.4,3.5-0.8,5.1c-0.3,1.3-0.8,2.5-1.3,3.7c-0.3,0.7-0.5,1.5-0.5,2.3c0,0.4,0.1,0.7,0.3,1c0.5,0.5,0.7,1,0.8,1.6
		c0.1,1,0.2,1.9,0.3,2.9c0,0.2,0.1,0.5-0.3,0.6c-0.3,0-0.6-0.2-0.7-0.4c-0.2-0.4-0.3-0.8-0.3-1.3c0-0.2,0-0.4-0.2-0.4
		c-0.3,0-0.3,0.2-0.4,0.4c-0.2,1,0.2,1.9,0.8,2.7c0.3,0.5,0.8,1.1,0.4,1.5c-0.4,0.3-1-0.3-1.4-0.6c-1.5-0.7-2.1-2-2.5-3.3
		c-0.3-0.9,0.2-1.9,0.3-2.8c0.1-1.9,0.4-3.8,0.2-5.7c-0.2-2.5,0-4.9,0.5-7.4c0.1-0.3,0.2-0.6,0.3-0.9c0.2-0.4,0.3-0.7-0.3-0.8
		c-0.3,0-0.4-0.1-0.3-0.5c0.8-2.6,1.3-5.3,1.9-7.9c0.6-2.8,2-5.4,5.2-6.6c1.2-0.5,2.4-1.1,3.3-2c0.1-0.1,0.2-0.2,0.4-0.2
		c1.7-0.4,2.4-1.5,1.6-2.9c-0.8-1.4-0.9-3-1.2-4.5v-0.1c1.1-1.1,0.3-2.3,0.3-3.5c0-0.9,1.2-2,2.2-2.2c0.5-0.1,1-0.2,1.5-0.4
		c1.2-0.5,2.8,0,3.6,1c0.3,0.4,0.9,0.6,1.1,1.2c0.5,1,0.8,2,0.5,3.1c-0.1,0.3-0.2,0.6,0.3,0.7c0.2,0,0.3,0.3,0.3,0.5
		c-0.2,0.9-0.1,1.9-1.2,2.4c0,0-0.1,0-0.2,0.1c-0.3,0.9-0.3,1.8-0.3,2.6s0.7,1.3,1.8,1.7c1.3,0.5,2.5,1.2,3.8,1.9
		c0.5,0.3,0.9,0.6,1.4,0.8c2.4,1.1,3.4,2.9,3.5,5.4c0.2,2.7,0.7,5.3,1,8c0,0.3,0.2,0.6-0.2,0.9c-0.3,0.2-0.2,0.7-0.1,1
		c0.7,2.9,0.8,5.8,0.8,8.7c-0.1,2.4,0.2,4.8,0.2,7.2c0,0.4,0.1,0.9,0.2,1.3c0.3,1.1,0.2,2.1,0.1,3.2c0,0.5-0.5,0.8-0.8,1.1
		c-0.8,0.9-1.7,1.7-2.9,2.1c-0.2,0-0.3,0.1-0.4,0c-0.2-0.2-0.1-0.4,0-0.5c0.3-0.7,0.8-1.3,0.9-2.1
		C622.7,251,622.8,250.7,622.6,250.3z"/>
</g>
<g>
	<path class="st4" d="M200.5,40.1c-0.1,0.3-0.1,0.6-0.2,0.8c-0.1,0.1-0.1,0.2-0.3,0.2s-0.1-0.2-0.1-0.3c0-0.7-0.1-1.4,0.1-2.1
		c0.1-0.4,0.4-0.8,0.5-1.2c0.2-1,0-1.9-0.2-2.8c-0.4-1.3-0.6-2.7-0.8-4.1c-0.1-0.6-0.1-1.1-0.3-1.7c0-0.1,0-0.2-0.2-0.2
		c-0.1,0.7-0.4,1.2-0.2,2c0.3,0.9,0.4,1.9,0.2,2.8c0,0.1,0,0.2,0,0.2c0.5,0.8,0.4,1.5,0.1,2.3c-0.3,0.8-0.6,1.6-0.6,2.5
		c0.1,1-0.4,1.9-0.7,2.9c-0.1,0.5-0.3,0.9-0.4,1.4c-0.1,0.3-0.1,0.7-0.1,1c-0.1,0.7,0.2,1.3,0.3,2c0.2,0.8,0,1.7-0.1,2.5
		c-0.3,1.9-0.4,3.7-0.6,5.6c0,0.2,0,0.4-0.3,0.3c-0.2,0-0.2,0.1-0.2,0.2c-0.1,0.6-0.2,1.1-0.4,1.7c0,0.1,0,0.2,0.1,0.3
		s0.1,0.3,0.1,0.4c-0.2,1.1,0,2.2,0.1,3.2c0,0.3,0,0.6-0.5,0.6c-1.3,0.1-2.6,0.4-3.9,0.1c-0.2,0-0.5,0.1-0.5-0.3
		c0-0.3,0-0.7,0.3-0.8c1.1-0.5,1.5-1.5,1.5-2.7c0-0.4,0.4-0.6,0.2-1.1c-1.1-2.2-1.1-4.6-2-6.9c-0.3-0.6-0.2-1.3-0.3-2
		c-0.1-1-0.6-2-0.6-3c0-2.2-0.6-4.4-0.8-6.6c0-0.2,0-0.4-0.2-0.4c-0.4-0.1-0.4-0.5-0.4-0.8c0-0.8,0.2-1.5,0.1-2.3
		c0-0.4,0.2-0.7,0.4-1.1c0.4-0.8,0.6-1.6,0.2-2.5c-0.1-0.2-0.1-0.5-0.2-0.7c0-0.2-0.1-0.4-0.4-0.4c-0.3,0-0.2,0.3-0.2,0.4
		c0.1,1-0.2,1.9-0.4,2.8c-0.2,0.7-0.4,1.4-0.6,2c-0.1,0.4-0.2,0.8-0.2,1.2c0,0.2,0,0.4,0.2,0.6c0.2,0.3,0.4,0.6,0.4,0.9
		c0.1,0.5,0.1,1.1,0.1,1.6c0,0.1,0,0.3-0.1,0.3c-0.2,0-0.3-0.1-0.3-0.2c-0.1-0.2-0.1-0.5-0.1-0.7c0-0.1,0-0.2-0.1-0.2
		s-0.2,0.1-0.2,0.2c-0.1,0.6,0.1,1,0.4,1.5c0.2,0.3,0.4,0.6,0.2,0.8s-0.5-0.2-0.7-0.3c-0.7-0.4-1-1.1-1.2-1.8
		c-0.1-0.5,0.1-1,0.1-1.5c0.1-1,0.2-2.1,0.1-3.1c-0.1-1.4,0-2.7,0.2-4.1c0-0.2,0.1-0.4,0.2-0.5c0.1-0.2,0.1-0.4-0.2-0.4
		c-0.1,0-0.2-0.1-0.1-0.3c0.4-1.4,0.6-2.9,0.9-4.4c0.3-1.5,1-2.9,2.6-3.6c0.6-0.3,1.2-0.6,1.7-1.1c0.1-0.1,0.1-0.1,0.2-0.1
		c0.9-0.2,1.2-0.8,0.8-1.6c-0.4-0.8-0.4-1.6-0.6-2.5l0,0c0.5-0.6,0.1-1.3,0.2-1.9c0-0.5,0.6-1.1,1.1-1.2c0.2,0,0.5-0.1,0.7-0.2
		c0.6-0.2,1.4,0,1.8,0.5c0.2,0.2,0.4,0.4,0.6,0.6c0.2,0.6,0.4,1.1,0.2,1.7c-0.1,0.2-0.1,0.4,0.2,0.4c0.1,0,0.1,0.2,0.1,0.3
		c-0.1,0.5-0.1,1.1-0.6,1.3h-0.1c-0.1,0.5-0.1,1-0.1,1.4c0,0.5,0.3,0.7,0.9,0.9c0.6,0.3,1.2,0.7,1.9,1c0.2,0.1,0.5,0.3,0.7,0.5
		c1.2,0.6,1.7,1.6,1.8,3c0.1,1.5,0.3,2.9,0.5,4.4c0,0.2,0.1,0.4-0.1,0.5c-0.1,0.1-0.1,0.4-0.1,0.6c0.4,1.6,0.4,3.2,0.4,4.8
		c0,1.3,0.1,2.6,0.1,4c0,0.2,0.1,0.5,0.1,0.7c0.2,0.6,0.1,1.2,0.1,1.8c0,0.3-0.2,0.5-0.4,0.6c-0.4,0.5-0.9,0.9-1.4,1.2
		c-0.1,0-0.1,0-0.2,0c-0.1-0.1,0-0.2,0-0.3c0.2-0.4,0.4-0.7,0.4-1.1C200.6,40.5,200.6,40.3,200.5,40.1z"/>
</g>
<g>
	<path class="st4" d="M70.4,247.5c-0.3,0.5-0.2,1-0.5,1.4c-0.2,0.2-0.3,0.5-0.6,0.4c-0.3-0.1-0.2-0.4-0.2-0.5c0-1.3-0.1-2.6,0.2-3.9
		c0.2-0.8,0.9-1.4,1.1-2.2c0.5-1.7,0-3.4-0.5-5.1c-0.7-2.4-1.1-4.9-1.6-7.4c-0.2-1-0.2-2.1-0.7-3.1c-0.1-0.1-0.1-0.3-0.4-0.4
		c-0.1,1.2-0.9,2.3-0.4,3.6c0.6,1.7,0.8,3.4,0.3,5.2c0,0.1,0,0.3,0,0.4c1,1.4,0.8,2.7,0.2,4.2c-0.6,1.4-1.2,2.9-1.1,4.5
		c0.2,1.9-0.9,3.5-1.4,5.2c-0.2,0.9-0.5,1.7-0.9,2.5c-0.2,0.6-0.1,1.2-0.2,1.9c-0.2,1.3,0.3,2.4,0.6,3.6c0.3,1.5,0,3-0.3,4.5
		c-0.5,3.4-0.8,6.8-1.2,10.1c0,0.4,0,0.7-0.6,0.6c-0.4,0-0.5,0.2-0.5,0.5c-0.2,1-0.5,2.1-0.7,3.1c0,0.2,0,0.4,0.2,0.5
		c0.2,0.2,0.2,0.5,0.1,0.7c-0.5,2,0.1,3.9,0.3,5.9c0.1,0.5,0,1-0.9,1.1c-2.6,0.2-5.3,0.7-7.9,0.3c-0.4-0.1-1,0.1-1.1-0.5
		s0-1.3,0.6-1.5c2.3-1,3-2.7,3-4.9c0-0.7,0.8-1.2,0.4-1.9c-2.1-3.9-2.2-8.5-4-12.5c-0.5-1.2-0.4-2.4-0.5-3.6
		c-0.3-1.9-1.2-3.6-1.1-5.5c0-4.1-1.1-8-1.6-12c0-0.3,0-0.6-0.4-0.8c-0.8-0.3-0.8-0.9-0.8-1.5c0-1.4,0.3-2.8,0.2-4.1
		c0-0.7,0.3-1.3,0.7-1.9c0.9-1.4,1.3-2.9,0.4-4.5c-0.2-0.4-0.3-0.8-0.4-1.3c-0.1-0.4-0.2-0.7-0.7-0.6c-0.6,0-0.5,0.5-0.5,0.8
		c0.2,1.8-0.4,3.5-0.8,5.1c-0.3,1.3-0.8,2.5-1.3,3.7c-0.3,0.7-0.5,1.5-0.5,2.3c0,0.4,0.1,0.7,0.3,1c0.5,0.5,0.7,1,0.8,1.6
		c0.1,1,0.2,1.9,0.3,2.9c0,0.2,0.1,0.5-0.3,0.6c-0.3,0-0.6-0.2-0.7-0.4c-0.2-0.4-0.3-0.8-0.3-1.3c0-0.2,0-0.4-0.2-0.4
		c-0.3,0-0.3,0.2-0.4,0.4c-0.2,1,0.2,1.9,0.8,2.7c0.3,0.5,0.8,1.1,0.4,1.5c-0.4,0.3-1-0.3-1.4-0.6c-1.5-0.7-2.1-2-2.5-3.3
		c-0.3-0.9,0.2-1.9,0.3-2.8c0.1-1.9,0.4-3.8,0.2-5.7c-0.2-2.5,0-4.9,0.5-7.4c0.1-0.3,0.2-0.6,0.3-0.9c0.2-0.4,0.3-0.7-0.3-0.8
		c-0.3,0-0.4-0.1-0.3-0.5c0.8-2.6,1.3-5.3,1.9-7.9c0.6-2.8,2-5.4,5.2-6.6c1.2-0.5,2.4-1.1,3.4-2c0.1-0.1,0.2-0.2,0.4-0.2
		c1.7-0.4,2.4-1.5,1.6-2.9s-0.9-3-1.2-4.5v-0.1c1.1-1.1,0.3-2.3,0.3-3.5c0-0.9,1.2-2,2.2-2.2c0.5-0.1,1-0.2,1.5-0.4
		c1.2-0.5,2.8,0,3.6,1c0.3,0.4,0.9,0.6,1.1,1.2c0.5,1,0.8,2,0.5,3.1c-0.1,0.3-0.2,0.6,0.3,0.7c0.2,0,0.3,0.3,0.3,0.5
		c-0.2,0.9-0.1,1.9-1.2,2.4c0,0-0.1,0-0.2,0.1c-0.3,0.9-0.3,1.8-0.3,2.6s0.7,1.3,1.8,1.7c1.3,0.5,2.5,1.2,3.8,1.9
		c0.5,0.3,0.9,0.6,1.4,0.8c2.4,1.1,3.4,2.9,3.5,5.4c0.2,2.7,0.7,5.3,1,8c0,0.3,0.2,0.6-0.2,0.9c-0.3,0.2-0.2,0.7-0.1,1
		c0.7,2.9,0.8,5.8,0.8,8.7c-0.1,2.4,0.2,4.8,0.2,7.2c0,0.4,0.1,0.9,0.2,1.3c0.3,1.1,0.2,2.1,0.1,3.2c0,0.5-0.5,0.8-0.8,1.1
		c-0.8,0.9-1.7,1.7-2.9,2.1c-0.2,0-0.3,0.1-0.4,0c-0.2-0.2-0.1-0.4,0-0.5c0.3-0.7,0.8-1.3,0.9-2.1C70.6,248.2,70.6,247.9,70.4,247.5
		z"/>
</g>
<path class="st5" d="M132.8,121c-0.8,0-1.3-0.3-1.4-1.2c-1.2,0-1.9,0.2-2.1,0.7c0.2-0.5,0.9-0.7,2.1-0.7c0.8-0.8-0.2-1.6,0.7-1.9
	c-0.2-0.2-0.5-0.5-0.4-0.9c-0.6,0-3.8,2.3-3.9,0c0.2,2.3,3.4,0,3.9,0c-0.2-1.2-0.4-2.4-0.6-3.6c-1.9-0.7-6.1,1.3-7.2-0.7
	c-1.5,0-1.4-2.4-3.1-2.3c-0.1-0.2-0.2-0.5-0.3-0.7c-0.3,0.3-0.9,2.4-0.8,2.5c-0.2-0.1,0.5-2.2,0.8-2.5c-0.7-1.4-1.2-2.3-1.7-3.8
	s-1.3-2.9-2.3-4.1l0,0c-0.1-0.4,0.3-1.9,0-2.1c-0.3,0-0.5,0.1-0.7,0.2c-0.4-0.1,0.7-1.2,0.7-1.3c-0.1-0.1-0.1-0.2-0.2-0.3
	c0.1,0.1,0.2,0.2,0.2,0.3c1.8,0.4,1.5-0.1,1.7-1.5c0.2-1.6,0.8-2.4-0.5-3.8c-0.1,0-1.4,2.1-1.4,0.7c0.1,1.3,1.4-0.7,1.4-0.7
	c0-0.2,0.1-0.3,0.1-0.5l0,0l0,0l0,0l0,0c-0.6-2.7-2.2-3.7-4.8-3.6c0,0.4,0.1,2.2,0.9,1.6c0,0.1-0.6,0-0.5,0.1
	c-0.6-0.2-0.4-1.2-0.4-1.6c-2.1-0.1-3.4,2.4-2.8,4.8l0,0c0.2,0.7,0.5,1.4,0.7,2.1l0,0c0,0.4,0,0.7,0.1,1.1c0.1,0.1,0.2,0.2,0.3,0.3
	c1.1,0.6,4.1,1.6,4.1,3.1c0-1.4-3.1-2.5-4.1-3l0,0c-0.1-0.1-0.2-0.2-0.3-0.3c-0.7,0.6-1,1.5-1.1,2.5c1.3,0.8,0.1,1.8,0.2,2.7
	c0.3,0.1,2.9,0.6,3.1,0.4c-0.1,0.2-2.8-0.4-3.1-0.4c-0.1,0-0.1,0-0.2,0c0.1,0,0.1,0,0.2,0c-0.2-0.9,1.1-1.9-0.2-2.7
	c-0.7,0.7-1,1.6-1.5,2.4l0,0c-0.8,1.4-1,3-1.1,4.6l0,0c-0.7,1.7,0.2,4.5,0.7,6.1c1.7-0.6-1.5-4.7,0.2-4.8l0,0
	c-1.7,0.2,1.5,4.3-0.2,4.8c0,0.2,0.1,0.4,0.2,0.6c0.3,0,0.5,0.2,0.7,0.4c-0.1-0.2-0.3-0.3-0.7-0.4c0.6,4.9,1.5,9.8,1.8,14.7
	c0.3,5-0.2,9.9-0.9,14.9l0,0c-0.3,1.6,0.8,1.6,0.9,0l0,0c1-3.7,0.7-8,2.2-11.5c1.4-0.6,3.1-0.6,4.6-0.6c0.1,0.1,0.2,0.1,0.3,0
	c0.2,0,0.4,0,0.5,0l0,0c0.2,0,0.4,0,0.6,0l0,0c0.8,0.2,1.5,0.7,2,1.5c0.6-0.7,0.1-1.1-0.3-1.5l0,0l0,0c0-0.1,0-0.2,0-0.3
	c0,0.1,0,0.2,0,0.3c0.4,0.4,1,0.8,0.3,1.5c0.2,1.4,0.4,2.8,0.6,4.2l0,0c0,0.2,0,0.4,0,0.6c0.1-0.1,0.4-0.1,0.4-0.2
	c0,0.1-0.4,0.2-0.4,0.3c0.1,1.6,0,4.9,1.1,6.2c1,1.3,1,0.2,0.8-0.8c-0.5-3.8-0.5-7.6-0.9-11.4c-0.2-0.2-0.4-0.6-0.7-0.8
	c0.2,0.2,0.4,0.6,0.7,0.8c0-1.1-0.9-3.8-0.1-4.5c0.9-0.8,2.6,0.2,2.3-1.8c1,0,4.4-1,4.3,0.6c1.7-0.1,2.5-0.9,2.5-2.4
	c0,1.6-0.8,2.3-2.5,2.4c-0.2,1.7-0.3,3.3-0.5,5c-0.1,1-0.9,3.6-0.1,4.4c-0.1,0.7-0.3,1.4-0.4,2.1c-0.4,0.6-0.2,1.4-0.8,1.8
	c0.9,0.2,1.8,0.6,2.6,0.6c-0.9,0-1.8-0.4-2.6-0.6c-0.7,1.1-0.7,2.3-0.6,3.5c0.2,0.5,0.6,0.7,1.1,0.6c0.7,0.2,1.3,0.2,2,0.1
	c0.2-0.6,0.5-0.8,0.8-0.8c-0.3,0-0.6,0.2-0.8,0.8c0.6-0.1,1.2-0.2,1.7-0.2c1,0.5,7.4,1.6,6.2-0.7c-0.4-0.8-2.1-0.6-2.8-1
	c-1.1-0.6-1.7-2.5-3.1-2.6c-0.2-0.5-0.3-1-0.5-1.5c0-0.5,0-0.9,0-1.4c-0.9-0.3-1.9,0.1-2.7-0.7l0,0c0.7,0.8,1.8,0.4,2.7,0.7
	c2.9-3.1,0.6-9.1,3.1-12.3c0.1-0.7-0.5-1.3-0.6-2C133,121.2,132.9,121.1,132.8,121z M128.2,114.7c0.2-0.1,0.5-0.4,0.7-0.1
	C128.6,114.2,128.3,114.6,128.2,114.7L128.2,114.7z M110.3,94c0.1-0.1,0.2-0.3,0.3-0.4C110.5,93.8,110.5,93.9,110.3,94z
	 M121.8,122.8c-0.3,0.5-1.9,1.3-2.6,1.1C119.8,124.1,121.4,123.3,121.8,122.8L121.8,122.8z M121.8,114.6L121.8,114.6
	c-1.2,0.7-1.8,1.7-1.7,3C120,116.3,120.6,115.3,121.8,114.6z M119.2,113.1c0-0.4,0-0.8,0-1.2l0,0
	C119.2,112.3,119.2,112.7,119.2,113.1c0.2,0.1,0.3,0.3,0.3,0.6c0.1,0.1,0.2,0.2,0.3,0.3c0,0.2,0,0.4,0,0.6l0,0c0-0.2,0-0.4,0-0.6
	c-0.1-0.1-0.2-0.2-0.3-0.3c-0.1,0.2-0.1,0.5-0.2,0.7c0.1-0.2,0.2-0.4,0.2-0.7C119.5,113.5,119.4,113.3,119.2,113.1
	c-1.6-0.5-2.9,0.6-4.3,0.9l0,0C116.3,113.7,117.6,112.6,119.2,113.1z M119.1,117c0,0.1,0,0.1,0,0.2C119.1,117.1,119.1,117,119.1,117
	z M118,118.4c0.1,0.9,0.6,1.6,0.6,2.5C118.7,120,118,119.2,118,118.4z M118.6,121.1c0,0.4,0,0.9-0.1,1.3
	C118.6,121.9,118.6,121.5,118.6,121.1z M118.3,122.8L118.3,122.8L118.3,122.8L118.3,122.8z M117.4,120c0.3-0.2,0.3-0.4,0.3-0.7
	C117.7,119.5,117.7,119.8,117.4,120c-0.3-0.3-0.4-0.5-0.4-0.8C117,119.4,117.1,119.7,117.4,120z M117.7,118.7c0-0.3,0-0.5,0.3-0.7
	l0,0C117.8,118.2,117.7,118.4,117.7,118.7z M117.1,116.3c-0.3,0.2-0.5,0.4-0.5,0.8l0,0C116.6,116.7,116.8,116.5,117.1,116.3z
	 M115.6,111.8c0,0,0.1,0.1,0.1,0.2l0,0C115.6,111.9,115.6,111.8,115.6,111.8z M118.8,110L118.8,110c-0.7,0.5-0.3,1.1-0.2,1.6
	c-0.9-0.1-1.7-0.7-2.6-0.6l0,0c-0.7-0.3-1.4-0.5-2.2-0.8l0,0c0.7,0.3,1.4,0.5,2.1,0.8c0.9-0.1,1.7,0.5,2.6,0.6
	C118.5,111.1,118.1,110.5,118.8,110z M116.1,103.8c0.4,0.4,0.7,0.8,0.7,1.4c-0.1-1.1-1.3-1.6-1.4-2.7
	C115.5,103,115.8,103.4,116.1,103.8z M115.3,101.9L115.3,101.9L115.3,101.9L115.3,101.9z M115.2,91.2c0.3,0.1,0.6,0.4,0.6,0.7
	c0-0.7-1.1-1.1-1.2-0.2C114.7,91.4,114.9,91.1,115.2,91.2z M113.1,94.4c-0.2,0.1-0.5,0.1-0.7,0.1C112.6,94.5,112.8,94.5,113.1,94.4
	c0.4-0.2,1.1-0.3,1.3-0.8C114.2,94.2,113.4,94.2,113.1,94.4L113.1,94.4z M113.9,96.5c0-0.2-0.1-0.3-0.3-0.3c0.4,0,0.5,1.4,1,1.8
	s1.1,0.1,1.6,0.4C115.1,97.7,113.9,98.5,113.9,96.5z M115.2,101.9L115.2,101.9c0-0.1-0.1-0.3-0.1-0.4
	C115.1,101.7,115.1,101.8,115.2,101.9z M115.1,104.7L115.1,104.7L115.1,104.7c0.1,1.2,2,1.4,2,2.4C117.1,106,115.2,106,115.1,104.7
	c-0.4,0-0.6-0.2-0.6-0.6c-0.2-0.1-0.3-0.4-0.3-0.6l0,0c0,0.2,0.1,0.4,0.3,0.6l0,0l0,0C114.6,104.4,114.8,104.6,115.1,104.7z
	 M115.2,108.5L115.2,108.5c-0.6-0.5-0.8-1.4-1.4-1.9C114.4,107,114.6,108,115.2,108.5z M113.8,105.8c0.1-0.2,0.3-0.5,0.3-0.9l0,0
	C114.1,105.3,114,105.5,113.8,105.8z M112,99.2L112,99.2L112,99.2c1.1,0.6,1.6,1.9,2.7,2.5C113.6,101.1,113,99.8,112,99.2z
	 M113.2,107.8L113.2,107.8L113.2,107.8C113.1,107.8,113.1,107.8,113.2,107.8z M112.8,107.7L112.8,107.7c0,0.1,0,0.2,0,0.3l0,0
	C112.8,107.9,112.8,107.8,112.8,107.7L112.8,107.7c-0.1-0.2-0.1-0.3-0.1-0.4C112.7,107.4,112.8,107.5,112.8,107.7z M112.5,107.9
	c0.1,0,0.2,0.1,0.3,0.1c0.5,1.1,2,0.8,2.5,1.9l0,0c-0.6-1-2-0.7-2.5-1.8C112.7,108,112.6,107.9,112.5,107.9L112.5,107.9z
	 M112.1,115.8c-0.1,0.2,0,0.4,0.2,0.7c0.2,0,0.5,0.1,0.6,0.3c0.6,0,0.6,0.5,0.6,0.9c0.4,0.8,2.4,0.4,3.2,0.3
	c0.3-0.2,0.5-0.2,0.5-0.1c-0.1-0.2-0.2-0.2-0.5,0.1c0.1,0.5-0.9,3.5-2.1,2.9c1.2,0.4,2.1-2.3,2-2.9c-0.8,0.1-2.7,0.6-3.2-0.3
	c-0.4-0.2-0.6-0.5-0.6-0.9c-0.1-0.2-0.3-0.3-0.6-0.3l0,0C112.1,116.2,112,116,112.1,115.8z M115.4,123.5c0.1,0.2,0.2,0.3,0.3,0.5
	c-0.2,0.1-0.3,0.3-0.5,0.3c0.2-0.1,0.4-0.2,0.5-0.3C115.6,123.8,115.5,123.6,115.4,123.5z M110.8,118.9c0,0.1,0,0.2,0,0.3l0,0
	C110.8,119.1,110.8,119,110.8,118.9c1.5-1.2,2.6,0.5,3.9,0.5l0,0C113.4,119.4,112.3,117.7,110.8,118.9z M112,121.3L112,121.3
	c0,0.1,0,0.2,0,0.3C112,121.5,112,121.4,112,121.3L112,121.3z M111.9,107.6c-0.8,0.2-1.2,0-1.7-0.7
	C110.9,106.9,111.3,107.2,111.9,107.6z M111.4,116.2c0.1,0.2,0.2,0.4,0.4,0.5c-0.7-0.1-1.3-1.5-2.2-1.7l0,0
	C110.4,115.1,111,115.6,111.4,116.2z M108.2,108.6L108.2,108.6c0-0.2,0-0.4,0-0.5l0,0C108.2,108.2,108.2,108.4,108.2,108.6z
	 M108.5,105.9L108.5,105.9c-0.1,0-0.2-0.1-0.3-0.1C108.3,105.8,108.4,105.8,108.5,105.9L108.5,105.9z M108.5,105.6L108.5,105.6
	c0.4,0,1-0.1,1.1,0.6l0,0C109.5,105.5,108.9,105.6,108.5,105.6z M108.8,114.6c0-0.1,0-0.1,0-0.2c0.3,1.4,0.6,2.8,0.9,4.2
	c0.6-0.1,0.6-0.4,0.6-0.8c0,0.4-0.1,0.7-0.6,0.8c0,0.8,0,1.6,0,2.4c0.3,0.1,0.4,0.3,0.5,0.5c-0.1-0.2-0.2-0.4-0.5-0.5l0,0
	c0-0.8,0-1.6,0-2.4C109.4,117.3,109.1,115.9,108.8,114.6z M120.1,129.6c0,0-2.9,0-3.2,0.1l0,0c-0.3,0-0.6,0.1-0.9,0.1
	c0.5,0.9,1.3,0.3,2,0.4l0,0c-0.7-0.1-1.4,0.6-2-0.4c-0.4,0-0.8,0-1.1,0.1c-1,0.6-2.1,0.7-3.2,1l0,0l0,0c-0.3-0.2-0.3-0.5-0.3-0.8
	c-0.1-0.1-0.1-0.1-0.1-0.2c0,0.1,0,0.1,0.1,0.2c1.1-0.7,2.3-0.5,3.5-0.2c1.2-0.1,2.4-0.5,3.5-0.5s2,0.7,2-1
	C120.3,128.9,120.3,129.2,120.1,129.6z M121.4,134.9c-0.6-0.5-0.7-1.1-0.7-1.7C120.6,133.8,120.7,134.4,121.4,134.9
	c0.2-1,0.3-1.8-0.7-2.3C121.7,133.1,121.5,133.9,121.4,134.9z M116.1,125.8c-0.1,0.3-0.2,0.6-0.3,0.9
	C115.8,126.4,115.9,126.1,116.1,125.8c-0.3,0-0.6,0-0.9,0c-1,0.7-2,0.3-2.9-0.3c-1-0.3-1.7-0.9-1.8-2.1c-0.7-0.5-0.8-1.1-0.8-1.8
	c0,0.7,0.1,1.3,0.8,1.8c-0.1-0.1-0.1-0.3-0.1-0.4c0,0.1,0.1,0.3,0.1,0.4c0.1,1.2,0.8,1.8,1.8,2.1l0,0c0.9,0.6,1.9,1,2.9,0.3
	c-0.7-0.6-1.6,0.1-2.3-0.6c-0.2-0.3-0.4,0-0.6,0l0,0c-1.6-1.4-1.1-3.4-1.3-5.3c0.2,1.8-0.3,3.8,1.3,5.3c0.2,0,0.4-0.3,0.6,0
	c0.2-0.2,0.4-0.4,0.6-0.6l0,0l0,0c-0.2,0.2-0.4,0.4-0.6,0.6c0.6,0.7,1.6-0.1,2.3,0.6C115.4,125.8,115.8,125.8,116.1,125.8
	c1.9-0.5,3.9-0.3,5.8-0.6C119.9,125.5,118,125.3,116.1,125.8z M126.4,117.6c-0.9,1.3-2.2,2.2-2.9,3.6c0.2,0.1,1.9,0.9,1.9,0.9
	c0.1,0-1.8-0.9-1.9-0.9l0,0C124.2,119.8,125.5,118.9,126.4,117.6c0.9,0.6,1.3,2,3,1.4l0,0C127.7,119.7,127.3,118.2,126.4,117.6z"/>
<polygon class="st5" points="132.7,121 132.8,121 132.8,121 "/>
<path class="st5" d="M118.6,111.6L118.6,111.6L118.6,111.6L118.6,111.6z"/>
<path class="st5" d="M125.6,113.6c1.8,0,3.6-0.8,5.4-0.1c0-1.5-0.8-2.4-2-3l0,0c-1.6-1.4-3.9,0.9-4.8,2l0,0
	c-0.2,0.1-0.3,0.2-0.4,0.4C124.2,113.5,124.6,113.6,125.6,113.6z M128.1,111.7c-0.1-0.1-0.2-0.3-0.3-0.4
	C127.9,111.4,128,111.5,128.1,111.7z"/>
<path class="st5" d="M135.9,119.1L135.9,119.1c-0.9,0-1.7,0-2.6,0l0,0c-0.4-0.4-0.9-0.8-1.3-1.2c-0.9,0.3,0.1,1.1-0.7,1.9
	c0.1,0.9,0.6,1.2,1.5,1.2c-0.2-0.2-0.2-0.4-0.2-0.6c0,0.2,0.1,0.4,0.2,0.6l0,0c0.1,0.1,0.2,0.2,0.3,0.3c0,0.7,0.6,1.2,0.6,2
	c1.4,0.4,2-1.3,3.2-1.4l0,0C139.1,121.2,138.2,118.6,135.9,119.1z"/>
<path class="st5" d="M111.9,107.6c-0.6-0.4-1-0.7-1.7-0.7C110.7,107.6,111.1,107.8,111.9,107.6z"/>
<path class="st5" d="M111.7,131c1.1-0.3,2.2-0.5,3.2-1c-1.2-0.3-2.4-0.4-3.5,0.2C111.4,130.5,111.4,130.8,111.7,131z"/>
<path class="st5" d="M113.4,117.7c0-0.4,0-0.9-0.6-0.9C112.8,117.2,113,117.5,113.4,117.7z"/>
<path class="st0" d="M532.6,125.9L532.6,125.9L532.6,125.9z"/>
<path class="st0" d="M540.1,118.5c0.9,0,1.5-0.1,1.9-0.8c-0.2-0.1-0.3-0.2-0.5-0.4l0,0c-1-1.1-3.3-3.4-5-2v0.1v-0.1
	c-1.2,0.6-2.1,1.5-2,3C536.4,117.7,538.3,118.4,540.1,118.5z M536.5,115.7c0,0.2,0,0.4,0,0.6C536.5,116.1,536.5,115.9,536.5,115.7z"
	/>
<path class="st0" d="M559.4,112L559.4,112c0-0.1,0-0.2-0.1-0.3l0,0c0-1.6-0.3-3.2-1.1-4.6l0,0c-0.5-0.8-0.9-1.7-1.6-2.3l0,0
	c-0.1-0.9-0.4-1.8-1.2-2.5l0,0c0-0.4,0-0.7,0.1-1.1l0,0c0.2-0.7,0.5-1.4,0.7-2.1l0,0c0.6-2.3-0.7-4.9-2.9-4.8
	c-0.1,1.1-0.4,2.3-1.2,0.9c0.8,1.3,1.1,0.2,1.2-0.9c-2.7-0.1-4.4,0.8-5,3.6l0,0l0,0l0,0l0,0c0.1,0.2,0.1,0.3,0.2,0.5
	c-0.1,0,1.7,2.1,1.4,0.6c0.4,1.5-1.6-0.7-1.4-0.6c-1.3,1.4-0.7,2.2-0.5,3.8c0.2,1.4-0.1,1.9,1.7,1.5c0.1-0.1,0.2-0.2,0.2-0.2
	c-0.1,0.1-0.1,0.2-0.2,0.2c0,0.1,1.2,1.2,0.8,1.3c-0.2-0.1-0.5-0.2-0.8-0.2c-0.3,0.2,0.1,1.7,0,2.1c0.4,0,0.8,0.1,1.2,0l0,0
	c-0.1,0-0.2,0-0.3,0c0.2,1.6-1.9,2.2-1.4,3.8l0,0c-0.5-1.6,1.6-2.2,1.4-3.8c-0.3,0-0.6,0-1,0c-1.1,1.2-1.9,2.5-2.4,4.1
	c-0.5,1.5-1,2.4-1.7,3.8l0,0c-0.1,0.2-0.2,0.5-0.3,0.7l0,0c-1.7-0.1-1.7,2.3-3.2,2.3c-1.2,2-5.5-0.1-7.5,0.7
	c-0.2,1.2-0.4,2.4-0.7,3.6l0,0l0,0c0,0.4-0.2,0.6-0.4,0.9l0,0c-0.5,0.4-0.9,0.8-1.4,1.2l0,0c-0.9,0-1.8,0-2.7,0l0,0
	c-2.3-0.5-3.3,2-0.9,2.7l0,0c1.2,0.1,1.8,1.8,3.3,1.4c-0.1-0.7,0.6-1.3,0.6-2c0.1-0.1,0.2-0.2,0.3-0.3c0.8,0,1.4-0.3,1.5-1.2l0,0
	c1.6,0,2.3,0.3,2.3,1.1c0-0.9-0.7-1.1-2.3-1.1c-0.1,0.9-0.7,1.2-1.5,1.2c-0.1,0.1-0.2,0.2-0.3,0.3c0,0.7-0.7,1.2-0.6,2
	c2.5,3.2,0.2,9.3,3.2,12.3l0,0c0,0.5,0,0.9,0,1.4c-0.2,0.5-0.4,1-0.5,1.5c0.1,0.2,0.3,0.3,0.4,0.4c-0.1-0.1-0.3-0.3-0.4-0.4
	c-1.5,0.1-1.8,1.8-2.9,2.5c-0.8,0.5-2.8,0.3-3.3,1.2c-1.3,2.3,5.6,1.2,6.5,0.7c0.6,0.1,1.2,0.2,1.8,0.2c-0.2-0.5-0.5-0.8-0.8-0.8
	c0.3,0,0.6,0.2,0.8,0.8c0.7,0.1,1.4,0.1,2.1-0.1l0,0c0.5,0,0.9-0.1,1.1-0.6c0.1-1.2,0.1-2.4-0.6-3.5c-0.6-0.4-0.5-1.3-0.8-1.8
	c-0.1-0.7-0.3-1.4-0.4-2.1l0,0c0.7-0.7,0-3.5-0.1-4.4c-0.2-1.7-0.3-3.3-0.5-5c-1.3-0.1-2.1-0.5-2.4-1.3c0.4,0.8,1.1,1.2,2.4,1.3
	c-0.1-1.6,3.5-0.6,4.4-0.6c-0.4,2.2,2.5,1,2.8,2.8c0.1,1-0.5,3-0.5,4c-0.1,1.5-0.2,3-0.2,4.5c0,1.3-0.1,2.6-0.2,4
	c-0.1,0.6-1,3.1-0.7,3.6c0.7,1.3,1.3-0.7,1.4-1.2c0.5-1.7,0.7-3.4,0.8-5.2l0,0c0-0.2,0-0.4,0-0.6l0,0c0.2-1.4,0.4-2.8,0.6-4.2l0,0
	c0.5-0.8,1.2-1.2,2.1-1.4l0,0c0.2,0,0.4,0,0.6,0l0,0c0.2,0,0.4,0,0.6,0c0.1,0.1,0.2,0.1,0.3,0c1.6,0,3.3,0,4.8,0.6l0,0
	c1.6,3.5,1.3,7.8,2.3,11.5l0,0c0.1,1.6,1.3,1.5,1,0l0,0c-0.7-4.9-1.3-9.9-0.9-14.9c0.4-4.9,1.3-9.8,1.9-14.7c-0.4,0-0.7,0.2-0.8,0.5
	c0.1-0.3,0.3-0.5,0.8-0.6c0-0.2,0.1-0.4,0.1-0.6l0,0C559.2,115.9,559.6,114,559.4,112z M532.6,125.9L532.6,125.9L532.6,125.9
	L532.6,125.9z M532,124c0.2,0.4,0.8,0.8,0.8,1.3C532.8,124.8,532.2,124.5,532,124z M533.8,123.3c0.1-0.2,0.1-0.3,0.1-0.3
	c0.3,0.3-0.5,1,0.2,1.7C533.7,124.3,533.3,123.9,533.8,123.3z M536.7,119.5L536.7,119.5L536.7,119.5L536.7,119.5z M534.9,122.5
	L534.9,122.5c0.6,0.5,3,0.6,3.1-0.6C537.9,123.2,535.5,123,534.9,122.5z M539.2,122.6c-1,0.6-1.4,2-3.1,1.4c0.3,0.3,4,3.2,4.1,3.1
	s0.1-0.2,0.2-0.4c-0.1,0.1-0.1,0.2-0.2,0.4c-0.1,0.1-3.9-2.8-4.1-3.1C537.9,124.6,538.3,123.1,539.2,122.6c0-1-1.2-3.1-2.3-3.2
	C538,119.5,539.2,121.7,539.2,122.6c0.6,0.8,1.4,1.5,2,2.2C540.6,124,539.8,123.4,539.2,122.6z M556.6,104.7
	c-1.3,0.8-0.1,1.7-0.2,2.6C556.4,106.5,555.3,105.5,556.6,104.7z M556.4,107.4c0.1,0,0.2,0,0.2,0
	C556.5,107.4,556.4,107.4,556.4,107.4c-0.6,0.2-1.3,0-1.9,0.2c-0.3,0.1-0.8,0.5-1.1,0.4C553.6,108.1,556,107.5,556.4,107.4z
	 M556,121.7L556,121.7c0-0.1,0.1-0.2,0.1-0.2S556,121.6,556,121.7z M556,122.2c0-0.1,0-0.1,0-0.2l0,0c0-0.1,0-0.2,0-0.3l0,0
	c0,0.1,0,0.2,0,0.3C556,122,556,122.1,556,122.2z M556.1,116.4c0.1-0.1,0.1-0.1,0.2-0.2l0,0C556.2,116.3,556.2,116.3,556.1,116.4z
	 M551.4,124.3c0,0.2,0,0.3,0.1,0.4C551.4,124.6,551.3,124.5,551.4,124.3c1.4,0,2.5-1.7,4-0.6l0,0
	C553.9,122.6,552.7,124.3,551.4,124.3z M553.9,130.1L553.9,130.1L553.9,130.1c-0.2,0-0.4-0.3-0.6,0c-0.2-0.2-0.4-0.4-0.6-0.6l0,0
	c0.2,0.2,0.4,0.4,0.6,0.6C553.5,129.8,553.7,130.1,553.9,130.1z M548.9,122.9c0-0.3,0.2-0.4,0.6-0.1c0.6,0,2.4,0.4,2.8,0.2
	c-0.5,0.2-2.3-0.2-2.8-0.2l0,0C549.1,122.6,548.9,122.7,548.9,122.9z M547.3,125.8c-0.1-0.9,0.6-1.7,0.6-2.5
	C547.9,124.1,547.2,124.9,547.3,125.8z M547.6,127.7L547.6,127.7c-1-0.1-0.2,1.3-1.7,1C547.4,129,546.6,127.6,547.6,127.7z
	 M551.2,118.9c0-0.1,0.1-0.2,0.1-0.3C551.3,118.7,551.3,118.8,551.2,118.9L551.2,118.9c-1.5-0.3-2.8-1.4-4.5-0.9
	c-0.1,0.1-0.2,0.1-0.2,0.2c0-0.1,0.1-0.2,0.2-0.3c0-0.2,0-0.4,0-0.6c0,0.2,0,0.4,0,0.6C548.4,117.5,549.7,118.6,551.2,118.9z
	 M550.3,116.8c0.1-0.1,0.2-0.2,0.2-0.3C550.5,116.6,550.5,116.7,550.3,116.8C550.3,116.9,550.3,116.9,550.3,116.8z M547.9,122.9
	L547.9,122.9L547.9,122.9L547.9,122.9c0.2,0.2,0.3,0.4,0.3,0.7C548.2,123.3,548.2,123.1,547.9,122.9z M548.6,124.9
	c0.6-0.5,0.5-1,0.4-1.6C549.1,123.9,549.1,124.4,548.6,124.9c-0.3-0.2-0.3-0.4-0.3-0.7C548.2,124.4,548.3,124.7,548.6,124.9z
	 M551.1,125.6c0.4,0.2,0.8,0.2,0.6-0.5c0.5,1.4-1.1,0.2-1.3,0C550.6,125.3,550.8,125.4,551.1,125.6z M551.3,129.4
	c-0.1,0-0.2-0.1-0.4-0.1C551.1,129.3,551.2,129.4,551.3,129.4z M552.1,129.5c-0.3,0-0.5,0-0.8-0.1
	C551.6,129.5,551.8,129.5,552.1,129.5z M550.8,113.1c0-0.2,0.1-0.3,0.1-0.5C550.8,112.8,550.8,112.9,550.8,113.1z M553.3,112.6
	c-0.1,0-0.2,0.1-0.4,0.1l0,0C553,112.7,553.2,112.6,553.3,112.6z M553.3,112.6L553.3,112.6L553.3,112.6L553.3,112.6z M553.3,112.6
	c0.1-0.2,0.1-0.4,0.1-0.6C553.4,112.2,553.4,112.4,553.3,112.6L553.3,112.6z M551.3,106.7c1.2-0.6,1.8-1.9,2.9-2.6l0,0l0,0
	C553.1,104.8,552.5,106.2,551.3,106.7z M554.1,120.7c0.1,0.2,0,0.4-0.2,0.7c0.2,0.2,0.3,0.2,0.4,0.2c-0.1,0-0.2,0-0.4-0.2
	c-0.2,0-0.4,0-0.5,0.1c0.1-0.1,0.3-0.2,0.5-0.2C554.1,121.1,554.1,120.9,554.1,120.7z M553.3,120.1L553.3,120.1
	c0.4-0.7,0.9-1.4,1.4-2C554.2,118.7,553.7,119.4,553.3,120.1z M552.7,122.6c0-0.4,0-0.9,0.6-0.9l0,0l0,0
	C552.7,121.7,552.7,122.1,552.7,122.6L552.7,122.6L552.7,122.6z M555.1,102.6L555.1,102.6c-1,0.5-3.6,1.4-4.1,2.5
	C551.5,104,554.2,103.1,555.1,102.6L555.1,102.6z M553.1,101.2c0.1,0,0.1,0,0.2-0.1C553.2,101.1,553.1,101.1,553.1,101.2
	L553.1,101.2z M551.8,98.7c0.3,0.5,0.8,0.4,1.2,0.6c0.5,0.2,0.8,0.1,1.2-0.1c-0.3,0.2-0.7,0.2-1.2,0.1c0,0.4,0.6,1.5,0.4,1.7
	c0.3-0.2-0.4-1.3-0.4-1.7c-0.3-0.2-1.2-0.3-1.3-0.8C551.7,98.6,551.8,98.6,551.8,98.7z M550.2,96.8c0-0.7,1.2-1.1,1.3-0.2
	C551.3,95.8,550.2,96.1,550.2,96.8z M550.8,103.2c1.4-0.3,0.7-1.4,1.5-2C551.5,101.9,552.3,102.9,550.8,103.2z M549.8,111
	c0.6-0.3,1.1-0.7,1.1-1.4l0,0l0,0c0.4,0,0.6-0.2,0.6-0.6l0,0l0,0c0.2-0.1,0.3-0.3,0.3-0.6l0,0c0,0.2-0.1,0.5-0.3,0.6
	c0,0.4-0.2,0.6-0.6,0.6c-0.1,1.3-2,1.3-2.1,2.4C548.9,111.5,549.3,111.2,549.8,111z M547.3,116.5c0.9-0.1,1.7-0.7,2.7-0.6
	c0.7-0.3,1.5-0.5,2.3-0.8l0,0c-0.8,0.3-1.5,0.6-2.3,0.8v0.1v-0.1C549.1,115.8,548.2,116.4,547.3,116.5L547.3,116.5z M547.1,114.9
	C547.2,114.9,547.2,115,547.1,114.9L547.1,114.9c-0.6,0.6-0.3,1.3-0.3,1.9l0,0c-0.2,0.1-0.4,0.4-0.5,0.3c0.1,0,0.3-0.2,0.5-0.3
	C546.8,116.2,546.5,115.4,547.1,114.9z M544.1,123.3c2.2-1.1-1-2.5-0.1-3.8c0-0.1,0-0.2,0-0.3c-0.2-0.2-0.4-0.3-0.7-0.5
	c0.2,0,0.4-0.1,0.7-0.1c0-0.5,0.2-0.9,0.4-1.2c-0.2,0.4-0.4,0.8-0.4,1.2c0.7,0.1,1.4,0.2,2.1,0.3c0.1-0.1,0.2-0.2,0.3-0.3l0,0
	c-0.1,0.1-0.2,0.2-0.3,0.3l0,0c-0.7-0.1-1.4-0.2-2.1-0.3c-0.2,0-0.4,0.1-0.7,0.1c0.2,0.2,0.4,0.3,0.7,0.5c0.7,0.1,1.4,0.2,2.1,0.3
	c0,0.9,1,1.3,1.2,2.1l0,0c-0.2,0-0.6,0.1-0.5,0.4c-0.1-0.3,0.3-0.4,0.5-0.4c-0.2-0.8-1.2-1.2-1.2-2.1c-0.7-0.1-1.4-0.2-2.1-0.3
	c0,0.1,0,0.2,0,0.3l0,0c-0.7,1,1.3,2,0.7,3.3c-0.3,0.6-1.1,0.8-1.5,1.4c-0.3,0.6-0.4,1.3-0.7,1.9c0.2,0.5,0.9,0.8,0.9,1.5l0,0l0,0
	c0-0.7-0.7-0.9-0.9-1.5l0,0C543,125.2,542.9,123.9,544.1,123.3z M544.5,139.8c-0.1-0.4-0.1-0.7-0.1-1
	C544.3,139.1,544.4,139.4,544.5,139.8c0.7-0.6,0.7-1.1,0.7-1.7C545.2,138.7,545.1,139.3,544.5,139.8z M546.1,135.9
	c-0.2,0.2-0.5,0.4-0.6,0.6C545.7,136.3,545.9,136.1,546.1,135.9L546.1,135.9c0.2-0.1,0.4-0.1,0.4-0.2
	C546.5,135.8,546.3,135.8,546.1,135.9z M546.8,134.5c-1.5,0.6-1.5-1.5-1.1-2.5c-1,3.3,1.4,2.1,3.4,2.6l0,0
	C548.3,134.5,547.6,134.2,546.8,134.5z M554.5,135.9c0.2-0.1,0.2-0.2,0.3-0.3C554.7,135.7,554.7,135.8,554.5,135.9
	c0,0.1,0,0.1,0,0.1C554.5,135.9,554.5,135.9,554.5,135.9c-1.1-0.3-2.3-0.4-3.3-1c-0.4,0-0.8,0-1.2-0.1c-0.6,1-1.4,0.3-2.1,0.4l0,0
	c0.7-0.1,1.5,0.5,2-0.4c0.4,0,0.8,0,1.2,0.1c1.2-0.3,2.4-0.4,3.6,0.2c-1.2-0.7-2.4-0.5-3.6-0.2C552.2,135.4,553.4,135.6,554.5,135.9
	z M554.8,135.1L554.8,135.1L554.8,135.1c0.1-0.1,0.1-0.1,0.1-0.2C554.9,135,554.9,135,554.8,135.1z M553.9,130.4c-1,0.6-1.9,1-3,0.3
	c-0.3,0-0.6,0-0.9,0c-2.6-0.6-5.4-0.2-8-0.9l0,0c2.6,0.8,5.4,0.3,8,0.9c0.3,0,0.6,0,0.9,0C552,131.4,552.9,131,553.9,130.4
	L553.9,130.4c0.9-0.3,1.6-0.8,1.8-1.7C555.5,129.7,554.8,130.2,553.9,130.4z M556.6,125.9c-1.1,0.6-0.4,1.7-0.8,2.5
	c0.1-0.1,0.2-0.2,0.3-0.2c-0.1,0.1-0.2,0.2-0.3,0.3l0,0C556.2,127.6,555.5,126.4,556.6,125.9L556.6,125.9z M556.6,121.1
	c0.1-0.4,0-0.8,0-1.2C556.5,120.3,556.7,120.7,556.6,121.1z M557.8,110.5L557.8,110.5c-0.3,0-0.6,0-0.8,0.1
	C557.2,110.5,557.5,110.5,557.8,110.5z M557.8,110.8c-0.3,0-0.5,0.4-0.8,0.5C557.3,111.2,557.5,110.8,557.8,110.8L557.8,110.8
	c0.1,0,0.2-0.1,0.3,0C558,110.7,557.9,110.7,557.8,110.8z M558.1,112.9c0,0.2,0,0.4,0,0.6l0,0C558.1,113.3,558.1,113.1,558.1,112.9
	L558.1,112.9z M558.9,113.8c-0.2,0.9-1.1,2.6-0.8,3.6C557.8,116.4,558.7,114.6,558.9,113.8C558.9,113.7,558.9,113.7,558.9,113.8z"/>
<line class="st6" x1="206.7" y1="194.1" x2="456.4" y2="193.4"/>
<line class="st6" x1="455.4" y1="188.8" x2="456.5" y2="198.2"/>
<line class="st7" x1="204.2" y1="190.2" x2="458.4" y2="190.2"/>
<line class="st8" x1="68.8" y1="270.7" x2="592.9" y2="271.7"/>
<line class="st7" x1="209.7" y1="197.2" x2="252.5" y2="79.3"/>
<line class="st9" x1="486" y1="133.3" x2="489.4" y2="136.5"/>
<line class="st9" x1="492.7" y1="133.3" x2="489.4" y2="136.5"/>
<text transform="matrix(1 0 0 1 311.8588 278.7931)" class="st10 st11">10 a 12 metros</text>
<text transform="matrix(0.2918 -0.8596 0.9503 0.3114 211.2072 187.6725)" class="st12 st10 st13">8 metros</text>
<circle class="st14" cx="467.5" cy="26.6" r="3.7"/>
<text transform="matrix(0.8884 -2.435396e-03 2.552489e-03 1 426.8531 188.6338)" class="st12 st10 st15">8 metros</text>
<line class="st8" x1="212.7" y1="57.7" x2="92.6" y2="270.7"/>
<text transform="matrix(0.4909 -0.8712 0.8712 0.4909 138.1993 184.2698)" class="st10 st11">10 a 12 metros</text>
<text transform="matrix(1.0001 0 0 1 466.0332 28.5096)" class="st10 st16">3</text>
<line class="st8" x1="396.7" y1="59.7" x2="447.7" y2="59.7"/>
<g>
	<path class="st4" d="M473.4,40.8c-0.1,0.3-0.1,0.6-0.2,0.8c-0.1,0.1-0.1,0.2-0.3,0.2c-0.2,0-0.1-0.2-0.1-0.3c0-0.7,0-1.4,0.1-2.1
		c0.1-0.4,0.4-0.8,0.5-1.2c0.2-1,0-1.9-0.2-2.8c-0.4-1.3-0.6-2.7-0.8-4c-0.1-0.6-0.1-1.1-0.3-1.7c0-0.1,0-0.2-0.2-0.2
		c-0.1,0.7-0.4,1.2-0.2,2c0.3,0.9,0.4,1.9,0.2,2.8c0,0.1,0,0.2,0,0.2c0.5,0.8,0.4,1.5,0.1,2.3s-0.6,1.6-0.5,2.5
		c0.1,1-0.4,1.9-0.7,2.9c-0.1,0.5-0.3,0.9-0.4,1.4c-0.1,0.3-0.1,0.7-0.1,1c-0.1,0.7,0.2,1.3,0.3,2c0.2,0.8,0,1.7-0.1,2.5
		c-0.3,1.9-0.4,3.6-0.6,5.5c0,0.2,0,0.4-0.3,0.3c-0.2,0-0.2,0.1-0.2,0.2c-0.1,0.6-0.2,1.1-0.4,1.7c0,0.1,0,0.2,0.1,0.3
		s0.1,0.3,0.1,0.4c-0.2,1.1,0,2.2,0.1,3.2c0,0.3,0,0.6-0.5,0.6c-1.3,0.1-2.6,0.4-3.8,0.1c-0.2,0-0.5,0.1-0.5-0.3
		c0-0.3,0-0.7,0.3-0.8c1.1-0.5,1.5-1.5,1.5-2.7c0-0.4,0.4-0.6,0.2-1.1c-1-2.2-1.1-4.5-2-6.8c-0.3-0.6-0.2-1.3-0.3-2
		c-0.1-1-0.6-2-0.6-3c0-2.2-0.5-4.3-0.8-6.5c0-0.2,0-0.4-0.2-0.4c-0.4-0.1-0.4-0.5-0.4-0.8c0-0.8,0.2-1.5,0.1-2.3
		c0-0.4,0.2-0.7,0.4-1.1c0.4-0.8,0.6-1.6,0.2-2.5c-0.1-0.2-0.1-0.5-0.2-0.7c0-0.2-0.1-0.4-0.4-0.4s-0.2,0.3-0.2,0.4
		c0.1,1-0.2,1.9-0.4,2.8c-0.2,0.7-0.4,1.4-0.6,2c-0.1,0.4-0.2,0.8-0.2,1.2c0,0.2,0,0.4,0.2,0.6c0.2,0.3,0.4,0.6,0.4,0.9
		c0.1,0.5,0.1,1.1,0.1,1.6c0,0.1,0,0.3-0.1,0.3c-0.2,0-0.3-0.1-0.3-0.2c-0.1-0.2-0.1-0.5-0.1-0.7c0-0.1,0-0.2-0.1-0.2
		s-0.2,0.1-0.2,0.2c-0.1,0.6,0.1,1,0.4,1.5c0.2,0.3,0.4,0.6,0.2,0.8c-0.2,0.2-0.5-0.2-0.7-0.3c-0.7-0.4-1-1.1-1.2-1.8
		c-0.1-0.5,0.1-1,0.1-1.5c0.1-1,0.2-2.1,0.1-3.1c-0.1-1.4,0-2.7,0.2-4c0-0.2,0.1-0.4,0.2-0.5c0.1-0.2,0.1-0.4-0.2-0.4
		c-0.1,0-0.2-0.1-0.1-0.3c0.4-1.4,0.6-2.9,1-4.3c0.3-1.5,1-2.9,2.6-3.5c0.6-0.3,1.2-0.6,1.7-1.1c0-0.1,0.1-0.1,0.2-0.1
		c0.9-0.2,1.2-0.8,0.8-1.6c-0.4-0.8-0.4-1.6-0.6-2.5l0,0c0.5-0.6,0.1-1.3,0.2-1.9c0-0.5,0.6-1.1,1.1-1.2c0.2,0,0.5-0.1,0.7-0.2
		c0.6-0.2,1.4,0,1.8,0.5c0.2,0.2,0.4,0.4,0.5,0.6c0.2,0.6,0.4,1.1,0.2,1.7c0,0.2-0.1,0.4,0.2,0.4c0.1,0,0.1,0.2,0.1,0.3
		c-0.1,0.5,0,1.1-0.6,1.3h-0.1c-0.1,0.5-0.1,1-0.1,1.4c0,0.5,0.3,0.7,0.9,0.9c0.6,0.3,1.2,0.7,1.9,1c0.2,0.1,0.5,0.3,0.7,0.5
		c1.2,0.6,1.7,1.6,1.8,3c0.1,1.5,0.3,2.9,0.5,4.3c0,0.2,0.1,0.4-0.1,0.5c-0.1,0.1-0.1,0.4-0.1,0.6c0.4,1.6,0.4,3.2,0.4,4.7
		c0,1.3,0.1,2.6,0.1,3.9c0,0.2,0,0.5,0.1,0.7c0.2,0.6,0.1,1.2,0,1.8c0,0.3-0.2,0.5-0.4,0.6c-0.4,0.5-0.9,0.9-1.5,1.2
		c-0.1,0-0.1,0-0.2,0c-0.1-0.1,0-0.2,0-0.3c0.2-0.4,0.4-0.7,0.4-1.1C473.5,41.2,473.5,41.1,473.4,40.8z"/>
</g>
<path class="st17" d="M330.8,285.1c-84.5,0-168.9,0-253.4,0.1c-3.1,0-4.5-1-5.1-4.1c-0.3-1.6-0.7-3.2-1.5-4.5
	c-3.8-6.7-1.8-12,2.2-17.9c19.1-28.8,37.7-57.8,56.5-86.8c11.9-18.3,23.7-36.6,35.6-55c12.4-19,24.8-38,37.1-57.1
	c1.4-2.1,2.7-3,5.1-3c82.5,0.1,165,0.1,247.5,0c2.3,0,3.9,0.6,5.1,2.9c3.6,7,8.5,13.1,12.8,19.7c12.3,19.1,24.3,38.4,36.9,57.3
	c9.9,14.8,19.5,29.8,29.3,44.7c18.1,27.7,36,55.5,54,83.2c1.3,2,1.5,3.5,0.5,5.8c-1.6,3.9-2.7,8-3.9,12.1c-0.6,2-1.5,2.9-3.4,2.6
	c-1.3-0.2-2.7,0-4,0C498.3,285.2,414.5,285.2,330.8,285.1L330.8,285.1z M330.5,229.2L330.5,229.2c56,0,111.9,0,167.9,0
	c5.9,0,11.8,0,17.7,0.1c1.5,0,2.8-0.4,3.4-1.7c0.7-1.4,0.1-2.6-1.1-3.7c-0.9-0.9-1.3-2.5-2-3.8c-6.9-13.6-14.3-26.9-21-40.6
	c-4.9-10.1-10.4-19.9-15.5-29.8c-6.6-12.8-13.1-25.8-19.8-38.6c-6.7-12.9-13.7-25.7-20.3-38.7c-1.6-3.2-3.3-4.6-6.7-4.6
	c-68.1,0.1-136.2,0.1-204.4,0c-3.1,0-4.9,1.2-6.4,4.1c-8.7,17.1-17.5,34.2-26.3,51.2c-6.4,12.5-13,24.9-19.5,37.4
	c-6.4,12.2-12.6,24.5-19,36.8c-4.5,8.8-9,17.6-13.8,26.3c-0.9,1.7-2.1,3.1-1.2,4.9c0.7,1.5,2.5,0.7,3.7,0.7
	C207.8,229.2,269.2,229.2,330.5,229.2z"/>
<line class="st6" x1="472.5" y1="60.2" x2="473.7" y2="59.6"/>
<line class="st7" x1="68.9" y1="262.8" x2="594" y2="262.8"/>
<line class="st7" x1="98.5" y1="263.3" x2="216.5" y2="56.8"/>
<text transform="matrix(0.4664 -0.8401 0.8669 0.4984 132.0677 199.0173)" class="st12 st10 st18">10 a 12 metros</text>
<text transform="matrix(1.1892 -1.689044e-02 -5.182016e-02 0.9987 486.1699 260.1035)" class="st12 st10 st19">10 a 12 metros</text>
<g id="Capa_3_00000129191324470231634700000010893614868781760146_">
</g>
<path class="st20" d="M341.5,160c-0.4-0.3,0.1-1.2,0.1-1.2c0.9-1.8,0.9-3.6,0.3-3.1c-0.8,0.7-2.5,4-3.7,5.6
	c-0.3,0.4-1.5,0.6-2.5,0.6c-0.7,0-1.2-0.3-1.9-0.1c-0.3,0.1-0.5,0.2-0.7,0.4c-0.3,0.2-0.7,0.2-1.1,0.3c-0.8,0.1-2.6,0.1-2.7,0l0,0
	c-0.5,0-1.2-0.1-1.8,0.1c-0.2,0.1-0.3,0.2-0.6,0.3c-0.3,0.1-0.6,0-0.8,0c-0.6,0-0.9,0.3-1.4,0.5s-1,0-1.6,0
	c-0.6-0.1-3.8-0.4-3.8-0.4c-0.4-0.1-4.2-0.4-5.8-0.5c-0.6-0.1-1.9-0.1-2.5-0.4c-0.6-0.3,0.2-2.2,0.2-2.6c0-0.1,0.2-0.8,0.2-0.9
	c0.1-0.1,0.7-0.3,0.9-1.1c0.1-0.8-0.1-1.1-0.1-1.3c0,0,0-1.8-0.2-2.8s-1.4-1.7-2.5-2c-0.6-0.2-1.6-0.2-1.6-0.2s-1,0-1.6,0.2
	c-1.1,0.4-2.3,1.1-2.5,2c-0.2,1-0.2,2.8-0.2,2.8c0,0.2-0.2,0.5-0.1,1.3s0.7,1.1,0.9,1.1c0,0.1,0.2,0.8,0.2,0.9
	c0.1,0.4,0.8,2.2,0.2,2.6c-0.6,0.3-1.9,0.4-2.5,0.4c-1.6,0.1-5.4,0.4-5.8,0.5c0,0-3.2,0.2-3.8,0.4c-0.5,0-1,0.1-1.6,0
	s-0.9-0.4-1.4-0.5c-0.3,0-0.6,0.1-0.8,0c-0.2-0.1-0.4-0.2-0.6-0.3c-0.5-0.2-1.2-0.1-1.8-0.1l0,0c-0.1,0-1.9,0.1-2.7,0
	c-0.4,0-0.7-0.1-1.1-0.3c-0.2-0.2-0.4-0.3-0.7-0.4c-0.6-0.2-1.2,0.1-1.9,0.1c-0.9,0-2.1-0.2-2.5-0.6c-1.2-1.6-2.9-5-3.7-5.6
	c-0.6-0.6-0.6,1.3,0.3,3.1c0,0,0.5,0.9,0.1,1.2s-1.7-0.6-1.4,0.2c0.3,0.7,1.4,0.8,1.5,1s0.1,0.5,0.2,0.7c0.2,0.5,0.8,1.1,1.4,1.2
	c1,0.2,1.9,1.2,2.5,1.5c0.3,0.1,0.8,0.1,1,0.3s0.3,0.6,0.5,0.8c0.9,1,5.2,2,5.2,2s1.9,0.4,2.5,0.8c0.6,0.4,1.7,0.9,1.7,0.9
	c1.4,0.5,3,0.6,4.4,0.8c0.9,0.1,2.7-0.2,2.8,1.1h0.1h-0.1c0.2,1.8,0.4,3.5,0.9,5.3c0.2,0.7,0.4,7.5,0.6,8.2c0.5,1.5,1.9,1.9,1.9,1.9
	c-0.4,1.2-1,2.6-1,3.9c0,1.4,0.6,2.7,0.8,4c0.4,2.8,0.4,5.7,0.7,8.5c0.3,2.7,0.6,8.4,1.4,11c0.5,1.4,1,4.4,1.6,7.1
	c-3.2,5.5,2.9,4.9,4,4c0.3-0.2-0.7-29.2,0.2-29.3s-0.2,29,0.1,29.3c1.1,0.9,6.9,1.3,4-4c0.6-2.7,1.2-5.7,1.6-7.1
	c0.8-2.6,1.2-8.3,1.4-11c0.3-2.8,0.2-5.7,0.7-8.5c0.2-1.4,0.8-2.7,0.8-4s-0.6-2.7-1-3.9c0,0,1.4-0.4,1.9-1.9
	c0.2-0.7,0.4-7.5,0.6-8.2c0.5-1.7,0.7-3.5,0.9-5.3h-0.1h0.1c0.2-1.3,1.9-1,2.8-1.1c1.5-0.1,3.1-0.2,4.4-0.8c0,0,1.1-0.6,1.7-0.9
	c0.6-0.4,2.5-0.8,2.5-0.8s4.3-1.1,5.2-2c0.2-0.2,0.3-0.6,0.5-0.8s0.8-0.2,1-0.3c0.6-0.3,1.5-1.3,2.5-1.5c0.6-0.1,1.2-0.6,1.4-1.2
	c0.1-0.2,0.1-0.5,0.2-0.7c0.2-0.2,1.3-0.3,1.5-1C343.2,159.4,341.9,160.2,341.5,160z"/>
<path class="st12" d="M336.5,61.6c0.2,0.1,0.4,0.2,0.6,0.4c0.9,0.6,1.3,1.5,1.8,2.4c0.2,0.4,0.4,0.9,0.6,1.3
	c0.1,0.2,0.4,0.5,0.6,0.7c0.8,0.8,1.6,1.5,2.3,2.4c0.6,0.6,1.2,1.3,1.8,2c0.7,0.9,1.5,1.9,2.1,2.9c0.6,0.9,1.1,1.8,1.7,2.6
	c0.2,0.3,0.4,0.5,0.6,0.8c0.5,0.8,1,1.5,1.1,2.5c0,0.1,0.2,0.2,0.3,0.2c0.6,0.1,0.9,0.5,1.1,1c0.2,0.7,0.7,1.1,1.4,1.3
	c0.5,0.1,1,0.2,1.4,0.3c0.7,0.2,1.4,0.3,2.1,0.5c1,0.2,2,0.4,3,0.6c0.4,0.1,0.9,0.1,1.3,0.1c0.5,0,1,0,1.5,0.1c0.7,0,1.3,0.1,2,0.2
	c0.4,0,0.8,0,1.2,0c1.1,0,2.2,0,3.2,0.5c0.3,0.2,0.6,0.5,0.9,0.7c0.1,0.1,0.2,0.1,0.3,0.2c0.5,0.3,1,0.7,1.7,0.7
	c0.4,0,0.7,0.3,1,0.5c0.1,0,0.3,0.1,0.4,0.1c0.1-0.1,0.2-0.3,0.3-0.4c0.1-0.4,0.2-0.7,0.2-1.1c0.1-0.5,0.5-0.9,0.7-1.4
	c0.1-0.2,0.1-0.4,0.2-0.6s0.1-0.4,0.3-0.6c0.3-0.4,0.5-0.8,0.9-1.2c0.4-0.4,0.9-0.7,1.5-0.8c0.7-0.1,1.4-0.1,2,0.1
	c1.3,0.4,2.3,1.1,2.6,2.5c0.2,1.1,0.2,2.3-0.6,3.2c-0.3,0.4-0.5,0.7-0.6,1.2c-0.1,0.4-0.6,0.5-1,0.7c-0.3,0.1-0.8,0.1-1,0.3
	c-0.4,0.4-0.7,0.9-1,1.4c0,0.1,0,0.2,0.1,0.3c0.2,0.5,0.4,0.9-0.1,1.4c-0.3,0.3-0.3,0.7-0.1,1.1c0.4,0.7,0.7,1.5,1,2.2
	c0.1,0.3,0.3,0.5,0.5,0.7c0.5,0.5,0.7,1,0.7,1.7c0,0.3,0,0.6,0.1,0.9s0,0.6-0.1,0.8c-0.2,0.4-0.5,0.9-0.7,1.3c-0.1,0.3,0,0.6,0,1
	c0,0.7,0,1.4-0.1,2.1c-0.1,0.6-0.7,1.1-1.2,1.5c-0.6,0.4-1.2,0.7-1.8,1c-0.4,0.2-0.8,0.4-1.3,0.2c-0.8-0.3-1.4-0.7-1.8-1.3
	c-0.4-0.6-0.5-1.2-0.5-1.9c0-0.5,0-0.7-0.7-0.5c-0.6,0.2-1.3,0.3-1.9,0.4c-0.9,0.1-1.8,0.3-2.7,0.4c-0.6,0.1-1.2,0.2-1.9,0.2
	c-1,0-2,0-2.9,0c-0.8,0-1.4-0.2-1.8-0.9c-0.2-0.3-0.3-0.7-0.5-1c-0.1-0.1-0.2-0.2-0.3-0.3c-0.1,0.1-0.2,0.3-0.2,0.4
	c-0.1,0.5,0.1,1,0.4,1.5c0.1,0.2,0.2,0.4,0.3,0.6c0.2,0.3,0.3,0.5,0.5,0.8c0.3,0.3,0.5,0.6,0.6,1.1c0.1,0.8-0.6,1.3-1.1,1.6
	c-0.3,0.1-0.6,0.2-0.7,0.4c-0.2,0.2-0.2,0.5-0.2,0.7c0,0.1,0,0.3,0,0.4c0,0.8-0.1,1.7-0.1,2.5c0,0.5,0.1,1.1,0.2,1.6
	c0.2,1.1,0.5,2.2,0.2,3.3c-0.1,0.2-0.1,0.4-0.2,0.6c-0.2,0.7,0,1.4,0.4,2.1c0.1,0.3,0.2,0.5,0.3,0.8c0.1,0.8,0.2,1.7,0.3,2.5
	c0,0.3,0,0.5,0,0.8c0,0.6,0,1.2,0.1,1.7c0.1,0.9,0.4,1.7,0.6,2.6c0.1,0.5,0.3,1,0.4,1.4c0,0.1,0.1,0.2,0,0.2
	c-0.4,0.5,0.1,0.8,0.3,1.1c0.3,0.6,0.7,1.1,1.2,1.6c0.4,0.4,1,0.7,1.6,0.9c0.8,0.3,1.6,0.5,2.4,0.9c0.7,0.3,1.2,0.8,1.8,1.2
	c0.1,0,0.1,0.2,0.1,0.3c-0.1,0.1-0.3,0.3-0.4,0.3c-0.3,0-0.6-0.1-0.9-0.1c-0.7,0-1.3-0.1-2-0.1c-0.5,0-1.1,0-1.6,0.1
	c-0.5,0-1,0.1-1.5,0.2c-1.2,0-2.4,0-3.6,0c0-0.1-0.1-0.3-0.1-0.5c0-0.7,0.1-1.4,0-2c-0.2-1.1-0.5-2.2-0.8-3.4c-0.5,0-0.9,0-1.3-0.1
	c-0.7-0.1-1.4-0.1-2.2,0c-0.3,0-0.7,0-1-0.1c-0.1,0-0.1-0.4-0.2-0.6l0,0c-0.2-0.7-0.3-1.4-0.5-2.1c-0.3-1.2-0.3-2.5-0.4-3.7
	c-0.1-0.8-0.2-1.6-0.3-2.4c-0.1-0.9-0.3-1.8-0.3-2.7c0-2.3-0.2-4.6-0.4-6.9c-0.1-1.4-0.2-2.8-0.3-4.2c0-0.3,0-0.7-0.1-1
	c-0.1-1.2-0.2-2.4-0.3-3.7c-0.1-1-0.1-1.9-0.1-2.9c0-0.6,0-1.2,0-1.8c0-0.4,0-0.8-0.1-1.2c-0.2-0.5-0.4-1.1-0.4-1.6
	c0-0.3-0.1-0.7-0.3-1c-0.2-0.2-0.3-0.5-0.5-0.8c-0.8-1.1-1.5-2.2-2.3-3.3c-0.2-0.4-0.5-0.7-0.7-1.1c-0.4-0.7-0.7-1.4-1.1-2.2
	c-0.2-0.5-0.5-1-0.7-1.5c-0.4-1.1-1.1-2-2-2.7c-0.6-0.4-1.1-0.9-1.5-1.5c-0.5-0.7-1.1-1.4-1.7-2.1c-0.5-0.6-1-1.1-1.5-1.6
	c-0.2-0.2-0.2-0.3,0-0.4c0.3-0.2,0.6-0.5,0.8-0.8c0.8-0.9,1.6-1.7,2.4-2.6c0.1-0.1,0.1-0.2,0-0.3c-0.2-0.6-0.4-1.2-0.6-1.8
	c-0.3-0.8-0.6-1.6-1-2.4c-0.1-0.2-0.1-0.5-0.5-0.5c-0.2,0-0.5-0.1-0.6-0.3c-0.2-0.2-0.5-0.3-0.8-0.3c-0.4,0-0.9-0.4-0.9-0.7
	c0-0.3,0-0.7,0.1-1c0-0.3,0.1-0.6-0.1-0.9c-0.2-0.2-0.4-0.5-0.6-0.7c0-0.3,0-0.7,0-1c0.2-0.2,0.3-0.4,0.5-0.5
	c0.2-0.2,0.5-0.3,0.7-0.5C336.1,61.6,336.3,61.6,336.5,61.6z M357.1,88.3c0.1,0.1,0.1,0.3,0.1,0.4c0.2,0.2,0.4,0.3,0.5,0.5
	c0.2,0.1,0.4,0.2,0.6,0.4c0.2,0.3,0.9,0.3,1.2,0.1c0.4-0.4,0.2-0.9,0.2-1.3c0-0.1-0.2-0.2-0.3-0.2C358.6,88.2,357.9,88.3,357.1,88.3
	z"/>
<path class="st12" d="M343.8,83.8c0.3,0.6,0.5,1.1,0.8,1.5c0.1,0.2,0.2,0.4,0.4,0.4c0.2,0,0.5-0.1,0.6-0.2c0.5-0.7,1.2-1.4,0.8-2.3
	c-0.1-0.3,0.2-0.8,0.4-1.1c0.3-0.5,0.7-1,0-1.5s-1.3-0.3-2,0c-0.5,0.2-1.1,0.4-1.7,0.5c-0.1,0-0.4,0-0.5,0.1c-1.3,1.4-3.5,1.4-5.3,2
	c-3.4,1.2-6.6,2.6-9.6,4.3c-2.6,1.5-5.5,2.9-8.2,4.3c-0.2,0.1-0.4,0.2-0.6,0.3c-1.9,1.3-1.9,1.3-4.6,1.5c1-0.5,2.1-1,3.2-1.4
	c1.2-0.4,1.7-1,1.2-1.9c-0.3-0.5-0.1-0.7,0.3-1c1.4-0.8,1-2-0.4-3.2c-0.9-0.7-1.6-0.3-2.3-0.1c-0.5,0.2-0.7,0.8-1,1.3
	c-0.1,0.3,0,0.8-0.2,1c-0.6,0.4-1.3,0.9-2,1c-1.6,0.2-2.9,0.8-4.1,1.6c-0.2,0.2-0.6,0.4-0.9,0.3c-2.9-0.1-5.9,0.2-8.8-0.3
	c-2.5-0.4-5-0.2-7,1.3c-0.1,0-0.1-0.1-0.2-0.1c0.1-0.4,0.2-0.9,0.3-1.3c0-0.2,0-0.4-0.1-0.6c-0.2-0.6-0.6-1.1-0.8-1.7
	c-0.1-0.2,0.3-0.5,0.5-0.8c-0.8-0.6-1.6-1.4-2.5-2c-0.5-0.3-1.4-0.4-2.1-0.4c-1.5,0.1-3.1,0.3-4.3,1.2c-0.7,0.5-1.1,1.1-1.1,1.8
	c-0.1,1.7,0.5,3.3,1.4,4.8c0.2,0.4,0.9,0.6,1.5,0.9c-0.3,0.5-0.7,1-1.1,1.6c-0.1,0.2-0.2,0.5-0.1,0.7c0.7,1.3,0.2,2.5-0.2,3.7
	c-0.2,0.5-0.7,1.2-0.4,1.7c0.5,0.9,1.4,1.6,2.1,2.4c0.7,0.7,1.4,1.4,2.2,2c0.3,0.3,0.7,0.6,1.1,0.7c1.3,0.2,2.6,0.4,4,0.5
	c1.7,0.2,2.6-0.5,2.7-1.9c0-0.5,0-1.1,0-1.6c1.4,0.1,2.8,0.5,3.9,1.3c0.8,0.6,1.6,0.8,2.7,0.8c0.9,0,1.4,0.5,1.4,1
	c0,1.4,0.3,2.7-0.5,4c-0.9,1.5-1.6,3-2.3,4.5c-0.6,1.2-0.5,1.3,1.3,1.7c1-2,2-4,3.1-6.1c0.6,0.7,0.5,1.4,0.3,2
	c-0.6,2.3-1.2,4.6-1.7,6.9c0,0.2,0,0.4,0,0.6c0.5,0.1,1,0.2,1.5,0.3c0.3-0.8,0.6-1.5,0.8-2.2c0.1,0,0.1,0,0.2,0c0,0.2,0,0.4,0.1,0.6
	c0.2,1.1-0.1,2.2,0.6,3.3c0.5,0.7,0.4,1.6,0.5,2.5c0.2,1.5,0.5,3,0.5,4.5c0,0.8-0.5,1.6-1,2.3c-0.4,0.5-1.2,1-1.9,1.3
	c-0.9,0.5-1.9,0.8-3,1.2c0,0.4,0.3,0.6,1,0.5c1.7-0.3,3.4,0.1,5.1-0.5c0.5-0.2,1.3,0.1,2,0.1c1.3,0,1.5-0.2,1.4-1.2
	c-0.1-0.8-0.3-1.6-0.3-2.4c0-0.6,0.3-0.9,1.2-1c1.4-0.2,2.7-0.5,4-0.9c0.2-0.1,0.5-0.5,0.4-0.7c-0.6-3.6-1.1-7.3-1.9-10.9
	c-0.4-1.8,0.1-3.5,0.5-5.1c0.4-2.2,0.9-4.3,1.5-6.5c0.1-0.4,0.4-0.8,0.8-1.1c1-1.1,2.1-2.1,3.2-3.2c0.6-0.5,1.1-1,1.8-1.5
	c1.9-1.3,3.8-2.5,5.7-3.8c4-2.7,8.5-4.7,13.4-6.2c0.7-0.2,1.1-0.4,0.8-1.1c-0.4-0.8-0.5-1.7-0.8-2.6c-0.2-0.6-0.1-1,0.6-1.3
	C342.4,84.5,343,84.2,343.8,83.8z"/>
<text transform="matrix(1 0 0 1 78.7452 38.379)" class="st21 st22">Juez, se asegura de que los </text>
<text transform="matrix(1 0 0 1 85.0452 47.979)" class="st21 st22">competidores no se salgan</text>
<text transform="matrix(1 0 0 1 133.1452 57.579)" class="st21 st22"> de la cancha</text>
<rect x="115.9" y="51.8" class="st6" width="28.9" height="8.3"/>
<text transform="matrix(1 0 0 1 366.2047 38.179)" class="st21 st22">Jurado que asigna </text>
<text transform="matrix(1 0 0 1 366.2047 47.779)" class="st21 st22">los puntos de la pelea</text>
<text transform="matrix(1 0 0 1 474.1895 51.8528)" class="st21 st22">Juez</text>
<text transform="matrix(1 0 0 1 50.2516 193.4001)" class="st21 st22">Juez</text>
<text transform="matrix(1 0 0 1 601.4541 193.7501)" class="st21 st22">Juez</text>
<text transform="matrix(1 0 0 1 563.2366 125.2999)" class="st21 st22">Coach competidor 2,</text>
<text transform="matrix(1 0 0 1 563.2366 134.8999)" class="st21 st22">debe mirar la pelea para </text>
<text transform="matrix(1 0 0 1 563.2366 144.4999)" class="st21 st22">corregir y guiar a su competidor</text>
<text transform="matrix(1 0 0 1 51.9671 152.1)" class="st21 st22">Coach competidor 1</text>
<text transform="matrix(1 0 0 1 250.0326 234.9779)" class="st21 st22">Arbitro designado para </text>
<text transform="matrix(1 0 0 1 237.7758 244.5779)" class="st21 st22">llevar el combate apegado </text>
<text transform="matrix(1 0 0 1 209.8326 254.1779)" class="st21 st22">a las reglas impuestas por la WTF.</text>
<text transform="matrix(1 0 0 1 231.1381 96.0797)" class="st21 st22">Competidor 1</text>
<text transform="matrix(1 0 0 1 375.9098 117.4)" class="st21 st22">Competidor 2</text>
<polyline class="st23" points="561.7,103.1 600.2,102.9 600.2,118.2 "/>
<polyline class="st23" points="353.7,17.7 388.5,17.6 388.5,32 "/>
<polyline class="st23" points="280.1,103.8 253.3,103.9 253.3,97.2 "/>
<polyline class="st23" points="380.2,102 399.5,101.9 399.5,111.1 "/>
<polyline class="st23" points="185,23.9 140.9,24 141,33.3 "/>
<polyline class="st23" points="107.5,130.7 77.7,130.6 77.7,145.9 "/>
<polyline class="st23" points="269.7,228.3 269.2,215.5 300.3,215.1 "/>
</svg>
