<?xml version="1.0" encoding="utf-8"?>
<!-- Generator: Adobe Illustrator 22.0.1, SVG Export Plug-In . SVG Version: 6.00 Build 0)  -->
<svg version="1.1" id="Capa_1" xmlns="http://www.w3.org/2000/svg" xmlns:xlink="http://www.w3.org/1999/xlink" x="0px" y="0px"
	 viewBox="0 0 600 300" style="enable-background:new 0 0 600 300;" xml:space="preserve">
<style type="text/css">
	.st0{fill:#202D51;stroke:#1F2C51;stroke-miterlimit:10;}
	.st1{fill:#3D56A2;stroke:#3C55A2;stroke-miterlimit:10;}
	.st2{fill:#E23247;}
	.st3{fill:#3C55A2;}
	.st4{fill:#1F2C51;}
	.st5{fill:#212E51;stroke:#1F2C51;stroke-miterlimit:10;}
	.st6{fill:none;}
	.st7{fill:none;stroke:#F9F9F9;stroke-miterlimit:10;}
	.st8{fill:none;stroke:#000000;stroke-miterlimit:10;}
	.st9{fill:none;stroke:#1D1D1B;stroke-miterlimit:10;}
	.st10{font-family:'ArialMT';}
	.st11{font-size:6px;}
	.st12{fill:#FFFFFF;}
	.st13{font-size:4.5394px;}
	.st14{fill:#A8D4EF;}
	.st15{font-size:5.916px;}
	.st16{fill:#E83B44;}
	.st17{font-size:5.5417px;}
	.st18{font-size:6.3878px;}
	.st19{fill:#1E2D4F;stroke:#8FCFFF;stroke-width:0.25;stroke-miterlimit:10;}
</style>
<g id="Capa_3">
</g>
<g id="Capa_4">
	<g>
		<path class="st0" d="M257,62.4c0.1,1,1.4,2.2-0.4,3c-1.5,0.7-3.4,0.2-4.6-1.1c0.2-0.4-0.1-1,0.4-1.4C254,63.3,255.5,62.9,257,62.4
			z"/>
		<path class="st0" d="M257,62.4c-1.5,0.4-3,0.9-4.6,0.5c0-0.3,0.1-0.5,0.1-0.8c0.2,0,0.3-0.1,0.3-0.3c0.5,0,0.5-0.2,0.6-0.6
			c0.2-2,1.2-2.5,3.5-1.9C257.3,60.4,257,61.4,257,62.4z"/>
		<path class="st0" d="M256.9,59.4c-2.3-0.6-3.3-0.1-3.5,1.9c0,0.4-0.1,0.6-0.6,0.6c-0.3-0.1-0.7-0.2-1-0.3l0,0
			c-0.1-1.7,0.8-3.3,0.6-4.9c0.5,0,0.8,0.2,1.1,0.5c0.4,0.3,0,1.2,0.9,1.1c0.8-0.1,1.6-0.1,2.2-0.7C257.2,58.1,257,58.8,256.9,59.4z
			"/>
		<path class="st0" d="M252.5,62.2c0,0.3-0.1,0.5-0.1,0.8c-0.5,0.4-0.1,0.9-0.4,1.4c-1.3-0.2-1.3-1.2-1.6-2
			c-0.2-0.6,0.9-0.5,1.3-0.8l0,0C251.7,62,252,62.1,252.5,62.2z"/>
		<path class="st0" d="M252.5,62.2c-0.5,0-0.8-0.2-0.7-0.6c0.3,0.1,0.7,0.2,1,0.3C252.8,62,252.7,62.1,252.5,62.2z"/>
		<path class="st0" d="M269.6,37.6c0.4-1.2,0-2.4-0.1-3.6l0,0c-0.7-1.1-0.3-2.2,0.1-3.4c0.8-2.5,0.7-5.1,0.6-7.7
			c-0.1-1.5-0.7-3-3-3.1c0.1,0.7,0.2,1.4,0.3,2.1c-1.1,0.4-2.2-0.2-3.3,0c1.1-0.2,2.2,0.4,3.3,0c-0.1-0.7-0.2-1.4-0.3-2.1
			c-0.8-0.2-1.6-0.4-2.4-0.7l0,0c-0.5-0.3-1-0.6-1.4-0.9l0,0c-0.1-0.2-0.2-0.5-0.6-0.6l0,0c-0.1-0.8,0.4-1.5,0.8-2.2
			c0.7-1.2,0-4-1.1-5c-0.1,1.8-0.6,2.2-3,2.8l0,0l0,0c2.4-0.6,3-1.1,3-2.8c-0.1-0.1-0.2-0.2-0.3-0.2l0,0c-1.5-1.3-3-1.3-4.4,0
			c0,0,0,0-0.1,0c-0.7,0.1-0.8,0.6-0.9,1c-0.2,0.6-0.2,1.3-0.6,1.8c-0.8,1.1-0.3,1.9,0.8,2.5c0.1,0.9,0.3,1.7,0.1,2.6
			c1.2,1.3,2.8,1.1,4.4,0.6c0.2-0.2,0.4-0.3,0.7-0.5c-0.2,0.2-0.5,0.3-0.7,0.5c-1.6,0.5-3.1,0.7-4.4-0.6c-0.1,0.1-0.2,0.2-0.3,0.3
			l0,0c-0.5,0.3-0.9,0.5-1.4,0.8c0.4,0.3,0.9,0.7,0.5,1.1c-0.6,0.8-0.2,1.6-0.2,2.3c0,0.6,0.2,0.9,0.4,0.9c-0.2,0-0.4-0.3-0.4-0.9
			c0-0.8-0.5-1.5,0.2-2.3c0.4-0.4-0.1-0.8-0.5-1.1c-0.7,0-1.4,0.2-2,0.5c-1,0.3-2.3,0.2-2.7,1.2c-1,2.3-1,4.7-1.5,7.1l0,0
			c-0.1,0.5-0.5,0.9-0.1,1.4c1.4-0.5,2.9-0.5,4.3,0.1c1.2,0.5,2.2,0.6,3.4,0.2c0.6-0.2,1.1,0,1.4,0.4c-0.3-0.4-0.9-0.5-1.4-0.4
			c-1.3,0.4-2.3,0.3-3.4-0.2c-1.4-0.6-2.8-0.6-4.3-0.1c-0.1,2.4,0.1,2.6,3.3,3.6c0.5-1.5,2.2-0.8,3.3-1.1c0.1,0,0.3-0.1,0.4-0.1
			c-0.2,0-0.3,0-0.5,0.1c-1.1,0.3-2.8-0.4-3.3,1.1c0,0.1,0,0.1,0.1,0.2v0.1c0,0.1,0.1,0.1,0.1,0.2c0.6,0.2,1.1,0.5,0.4,1.1
			c-0.6,0.5-1.9,1.4-0.3,1.3c-1.6,0.1-0.3-0.8,0.3-1.3c0.6-0.6,0.2-0.9-0.4-1.1c-1.8,1.3-3,2.9-3.1,4.9l0,0c-0.8,0-1.6,0.1-2,0.8
			c-0.1,0.4,0.3,0.5,0.7,0.5l0,0c-0.4,0-0.7-0.1-0.7-0.5c-1.6,0.2-2.8,1.1-4.3,1.4c-2.5,0.5-2.5,0.7-1.4,2.2
			c0.1,0.2,0.2,0.3,0.4,0.5l0,0c1,1.5,1.4,1.7,2.7,1.1c0,0,0,0-0.1,0l0,0c1.2-0.9,2.5-1.8,3.7-2.7l0,0c0.8,0,1.4-0.4,2-0.7
			c0-0.7-0.5-1.7,1.2-1.6c0,0,0,0,0.1,0c0,0,0,0-0.1,0c-1.7-0.1-1.2,0.9-1.2,1.6c0.4,0.1,0.3,0.5,0.5,0.7l0,0
			c-0.1,0.4-0.1,0.8-0.2,1.1c0.2,0.1,0.3,0.3,0.3,0.4c0-0.1-0.1-0.3-0.3-0.4c-0.3,0-0.7,0.1-0.7,0.4c0,0.3,0.4,0.3,0.7,0.4
			c-0.5,4,0.9,8,0.9,12c0,0.4,0.1,0.7,0.7,0.7c0.5,0,0.8,0.2,1.1,0.5c0.4,0.3,0,1.2,0.9,1.1c0.8-0.1,1.6-0.1,2.2-0.7
			c-0.2-0.4-0.5-0.8-0.5-1.1c0.7-2.5,0.2-4.9,0.3-7.4l0,0c2.2-0.2,4.5-0.4,6.7,0c0.1,0,0.2-0.1,0.2-0.2c0,0.1-0.1,0.2-0.2,0.2
			c1.2,0.5,1.5,1.3,1.6,2.3c0.8-1.2,0.1-2.1-0.7-3c-0.4-0.1-0.5,0-0.6,0.2c0.1-0.2,0.2-0.3,0.6-0.2c0.1-0.2,0.2-0.3,0.3-0.5
			c-0.8-0.5-1.7-0.3-2.6-0.2l0,0c-0.3-0.1-0.5-0.1-0.7,0.2l0,0c0.1-0.2,0.4-0.2,0.7-0.2c0.9-0.1,1.8-0.3,2.6,0.2
			c0.1,0,0.3,0,0.4-0.1c0-0.6-0.1-1.2-0.1-1.8c0-0.3,0-0.6-0.1-0.7c0.1,0.2,0.2,0.4,0.1,0.7c-0.1,0.6,0,1.2,0.1,1.8
			c-0.1,0-0.3,0-0.4,0.1c-0.1,0.2-0.2,0.3-0.3,0.5c0.8,0.9,1.5,1.8,0.7,3c0.2,1.5,0.9,2.9,1,4.4c0.1,1.7,0.6,3.2,1.2,4.8
			c0.2,0.5,0.5,0.7,1.1,0.6c0.8-0.1,0.3-0.6,0.2-0.9c-0.2-0.7-0.5-1.3-0.6-2c-0.6-2.8-0.8-5.7-1.1-8.6c-0.1,0-0.1,0-0.2,0
			c0,0,0.1,0,0.2,0c-0.1-0.7-0.1-1.5-0.2-2.2c-0.3-1.8-0.4-3.4,2.4-3.9c-0.6-0.5-1.1-0.8-1.5-1.1h-0.2l0,0h0.2
			c-0.1-0.3-0.2-0.6-0.3-0.9c0.3-0.1,0.8-0.1,0.9-0.2C268.6,40.1,270,39.1,269.6,37.6c-0.2,0.1-0.4,0.2-0.5,0.3
			C269.2,37.8,269.4,37.7,269.6,37.6z M256.4,47.4L256.4,47.4L256.4,47.4c0.9,0.2,1.8-0.1,2.6,0.3l0,0
			C258.2,47.4,257.3,47.6,256.4,47.4z M256.8,45.2c0-0.4,0-0.9,0-1.3l0,0l0,0c0-0.1,0-0.2,0-0.3c-0.1,0-0.2,0.1-0.2,0.1
			s0.1-0.1,0.2-0.1c0.1-0.1,0.2-0.2,0.2-0.3c0,0.1-0.1,0.2-0.2,0.3c0,0.1,0,0.2,0,0.3C256.8,44.4,256.8,44.8,256.8,45.2L256.8,45.2z
			 M253.3,37.2c0.2-0.2,0.3-0.5,0.5-0.7c-0.1-0.1-0.2-0.4-0.3-0.4l0,0c0.1,0,0.2,0.3,0.3,0.4C253.7,36.7,253.5,37,253.3,37.2
			l0.1,0.1l0,0C253.4,37.3,253.3,37.2,253.3,37.2c-0.1,0.1-0.3,0.1-0.4,0.2l0.1,0.1l0,0l-0.1-0.1C253,37.3,253.2,37.3,253.3,37.2z
			 M256.5,33.4c-0.2,0-0.5,0-0.7,0C256,33.4,256.3,33.4,256.5,33.4z M256.7,34.2c0-0.3,0-0.5,0-0.8l0,0c0-0.1,0-0.2,0-0.3l0,0
			c0,0.1,0,0.2,0,0.3C256.8,33.7,256.8,34,256.7,34.2c0.1,0,0.2,0,0.3,0C256.9,34.3,256.8,34.3,256.7,34.2L256.7,34.2z M257.4,27.6
			c-0.4,0.6-0.9,0.3-1.3,0c-0.9,0-1.6-0.4-2-1.1c-0.3,0-0.6,0-0.8,0l0,0l0,0c0.3,0,0.5,0,0.8,0c0.4,0.7,1.1,1,2,1.1
			c0.1-0.5-0.1-0.8-0.4-1c0.3,0.2,0.5,0.5,0.4,1C256.5,27.9,257,28.2,257.4,27.6c0-0.4,0-0.8,0-1.1l0,0c-0.1-1.1,0.3-2.2-0.3-3.3
			l0,0c0.6,1.1,0.2,2.2,0.3,3.3C257.4,26.9,257.4,27.2,257.4,27.6c0.5,0.3,0.3,0.7,0.4,1.1l0,0l0,0
			C257.7,28.3,257.9,27.9,257.4,27.6z M252.4,22.6c0.3,1.3,0.6,2.5,0.9,3.8l0,0C253,25.2,252.7,23.9,252.4,22.6
			c-0.2-0.1-0.2-0.1-0.1-0.2C252.2,22.5,252.2,22.6,252.4,22.6z M254,26c0,0.1,0,0.2,0.1,0.3C254,26.2,254,26.1,254,26s0-0.1,0-0.2
			C253.9,25.9,253.9,25.9,254,26z M251.4,26.4L251.4,26.4c-0.2,0.1-0.5,0.1-0.7,0.2C250.9,26.5,251.2,26.4,251.4,26.4z M265.1,26
			L265.1,26c0.4,0.7-0.7,1.4,0,2.2l0,0C264.4,27.4,265.5,26.7,265.1,26L265.1,26z M259.7,37.3L259.7,37.3c0-0.2,0.1-0.3,0.2-0.4
			C259.8,37,259.8,37.1,259.7,37.3c0.2,0.8,1.6,0.8,1.7,1.7l0,0C261.4,38,259.9,38.1,259.7,37.3z M254.9,39.5c0.1,0,0.3,0,0.4,0
			c0.2,0,0.4,0.1,0.6,0.3l0,0l0,0c-0.2-0.2-0.4-0.3-0.6-0.3C255.2,39.5,255.1,39.5,254.9,39.5c-0.2,0-0.4,0-0.6-0.1l0,0
			C254.5,39.5,254.7,39.5,254.9,39.5z M260.2,30.9c-0.1-0.5,0.1-1.1,0.2-1.6c0-0.5-0.5-0.6-1-0.6l0,0c0.5,0,0.9,0,1,0.6l0,0
			C260.3,29.8,260.1,30.4,260.2,30.9c0.3,1.2-0.4,1.2-1.4,1.1l0,0C259.8,32,260.5,32,260.2,30.9z M258.2,24.5
			c0.1,0.1,0.1,0.1,0.1,0.2C258.4,24.6,258.3,24.6,258.2,24.5z M258.2,23.4c-0.1,0-0.1-0.1-0.1-0.1L258.2,23.4
			c0.7,0.4,0.9,1.2,1.8,1.4l0,0C259.2,24.7,258.9,23.9,258.2,23.4z M260.7,29.3L260.7,29.3c0.1-0.2,0.1-0.4,0.2-0.6
			c0-0.1,0.1-0.2,0.1-0.3c0,0.1-0.1,0.2-0.1,0.3l0,0C260.8,28.9,260.7,29.1,260.7,29.3L260.7,29.3z M261.9,27.6
			c-0.1-0.1-0.2-0.1-0.3-0.2c-0.1-0.2-0.2-0.4-0.4-0.5c0.1,0.1,0.3,0.2,0.4,0.5C261.7,27.5,261.7,27.6,261.9,27.6z M260.6,36.3
			L260.6,36.3L260.6,36.3z M260.4,36.7L260.4,36.7L260.4,36.7L260.4,36.7z M258.6,34.2c0.4,0,0.7,0.2,0.9,0.6l0,0
			C259.2,34.4,258.9,34.2,258.6,34.2z M258.7,37c-0.4,0-0.8,0-1,0.3l0,0c0,0.1,0,0.2,0,0.3l0,0c0-0.1,0-0.2,0-0.3
			C258,37,258.4,37,258.7,37C258.7,37,258.8,37,258.7,37c0,0.1,0,0.2,0,0.3c-0.1,0.2-0.2,0.4-0.4,0.5c0.1-0.2,0.2-0.4,0.4-0.5
			C258.8,37.2,258.8,37.1,258.7,37z M260.9,36.1C260.9,36.1,260.9,36,260.9,36.1C260.9,36,260.9,36.1,260.9,36.1z M261.3,35.8
			c0.1-0.1,0.2-0.1,0.3-0.2C261.6,35.7,261.5,35.8,261.3,35.8z M263.7,34.8L263.7,34.8L263.7,34.8c0.1-0.3,0.3-0.5,0.4-0.7
			C264,34.2,263.8,34.5,263.7,34.8L263.7,34.8z M264.4,32.3c-0.1,0.1-0.1,0.1-0.2,0.2C264.2,32.5,264.3,32.4,264.4,32.3z
			 M263.8,32.6c0.1,0,0.2,0,0.3,0C264,32.6,263.9,32.6,263.8,32.6z M262.7,30.4c-0.7-0.1-1.6,0.1-1.9-0.4
			C261.2,30.5,262.1,30.3,262.7,30.4L262.7,30.4z M265.1,28.9c0-0.2-0.1-0.4-0.1-0.6C265.1,28.6,265.1,28.7,265.1,28.9z M265.8,27.5
			c0,0.1,0,0.1,0,0.2C265.8,27.6,265.8,27.5,265.8,27.5z M261.8,19.9c0,0.1,0,0.2,0,0.3C261.7,20.1,261.7,20,261.8,19.9L261.8,19.9z
			 M261.7,19.8L261.7,19.8L261.7,19.8L261.7,19.8z M261.5,21.2c0.2-0.2,0.3-0.4,0.3-0.6C261.8,20.8,261.7,21,261.5,21.2L261.5,21.2
			c-0.6-0.2-0.7-0.6-1.1-1l0,0C260.7,20.5,260.9,21,261.5,21.2z M253.5,33.5c0,0,0.1,0.1,0.1,0.2C253.6,33.6,253.6,33.5,253.5,33.5z
			 M254.4,40.1L254.4,40.1L254.4,40.1L254.4,40.1z M257.1,41.4c0.1-0.6-0.7-0.5-1-0.8C256.3,40.9,257.1,40.8,257.1,41.4z
			 M257.1,43.1L257.1,43.1L257.1,43.1L257.1,43.1z M257.1,43.2C257.1,43.3,257.1,43.3,257.1,43.2C257.1,43.3,257.1,43.3,257.1,43.2z
			 M265.8,39.8c0.7-0.9,0.9-1.9,1.5-2.7c0.5-0.7,0.2-1.5-0.2-1.6c-0.1,0-0.2-0.1-0.3-0.1c0.1,0,0.2,0,0.3,0.1c0.4,0.2,0.6,1,0.2,1.6
			C266.7,38,266.5,39,265.8,39.8c-0.9,1.1,0.1,1.3,1.2,1.3C265.9,41.2,264.9,40.9,265.8,39.8z M267,41.1L267,41.1L267,41.1L267,41.1
			z M267.6,31.5c0.1,0.3-0.7-0.2-1.2-0.1c0,0.9,1,1.6,1,2.5l0,0c0-0.9-1-1.5-1-2.5c-0.3,0.1-0.6,0.2-1,0.3c-0.2-0.3-0.4-0.8-1-0.8
			c-0.1,0.2-0.1,0.4-0.3,0.5c0.2,0,0.2-0.2,0.3-0.5c-0.3,0-0.5,0-0.7,0.3l0,0c-0.2,0-0.4,0-0.7,0c0.2,0.3,0.5,0.5,0.7,0.8
			c-0.3,0-0.7,0-1,0l0,0c0.2,0.4,0.5,0.5,1,0.5l0,0l0,0c-0.5,0-0.8-0.2-1-0.5c-0.8-0.1-1.1-0.3-1.2-0.4c0.1,0.1,0.5,0.3,1.2,0.4l0,0
			l0,0c0.3,0,0.7,0,1,0c-0.2-0.3-0.5-0.5-0.7-0.8c-0.3,0.1-0.3,0.4-0.3,0.6c0-0.2,0-0.5,0.3-0.6c0.2,0,0.4,0,0.7,0
			c0.1-0.2,0.4-0.3,0.7-0.3c0.6,0,0.8,0.5,1,0.8c0.3-0.1,0.6-0.2,1-0.3C266.8,31.4,267.6,31.8,267.6,31.5c-0.2-0.7,0.6-1.5,0.4-2
			C268.2,30,267.4,30.8,267.6,31.5z M266.4,29.9c0-0.1,0.2-0.2,0.4-0.2C266.6,29.7,266.4,29.8,266.4,29.9z M266.9,29.8
			c-0.1,0.1-0.2,0.2-0.2,0.3C266.8,30,266.9,29.9,266.9,29.8z M267.4,23.9c-0.2,0.4-0.4,0.8-0.6,1.3c0.5,0.6-0.1,0.7-0.6,0.8
			c0,0.4,0,0.7,0,1.1v0.1c0,0,0-0.1-0.1-0.1l0,0c0-0.4,0-0.7,0-1.1l0,0c0.6-0.1,1.1-0.2,0.6-0.8l0,0C267,24.7,267.2,24.3,267.4,23.9
			c0.1-0.2,0.3-0.5,0.3-0.7C267.7,23.4,267.5,23.7,267.4,23.9z M265.2,22.5c-0.1,0-0.2,0-0.2-0.1v0.1v-0.1
			C265.1,22.5,265.1,22.5,265.2,22.5z M262.4,13.8C262.4,13.9,262.4,13.9,262.4,13.8C262.4,13.9,262.4,13.9,262.4,13.8
			C262.4,13.9,262.4,13.9,262.4,13.8C262.4,13.9,262.4,13.9,262.4,13.8z M261.4,13.5c0.1,0,0.2,0,0.3-0.1
			C261.7,13.4,261.6,13.4,261.4,13.5c-0.2,0-0.3-0.1-0.5-0.1C261.1,13.4,261.3,13.4,261.4,13.5z M259.1,13.1c0.1-0.1,0.2-0.1,0.2,0
			C259.2,13.1,259.2,13.1,259.1,13.1c-0.8,0-1.9-0.1-1.5,1.1C257.2,13,258.2,13.2,259.1,13.1z M260.5,13.8
			C260.5,13.9,260.5,13.9,260.5,13.8C260.5,13.9,260.5,13.9,260.5,13.8L260.5,13.8z M261.3,14.7c-0.1,0-0.3-0.1-0.4-0.1
			C261.1,14.7,261.2,14.7,261.3,14.7c0.1,0,0.3,0,0.4-0.1C261.6,14.7,261.5,14.7,261.3,14.7z M261,19.4c-0.2,0-0.4,0.1-0.6,0.4l0,0
			l0,0C260.5,19.5,260.8,19.4,261,19.4z M260,19.8c-0.4,0-0.8,0.1-1.2,0.4l0,0C259.1,19.9,259.5,19.8,260,19.8z M258.8,20.2
			c-0.3,0-0.6,0-0.9,0l0,0c-0.1,0-0.3-0.1-0.4-0.1c0.1,0,0.2,0.1,0.4,0.1C258.1,20.2,258.4,20.2,258.8,20.2z M252.1,21.5L252.1,21.5
			c0.1,0,0.2,0,0.3,0l0,0c0,0.3,0,0.5,0,0.8l0,0l0,0c0-0.3,0-0.5,0-0.8C252.3,21.5,252.2,21.5,252.1,21.5s-0.2,0-0.3,0l0,0
			C251.9,21.6,252,21.6,252.1,21.5z M251.2,21.7c-0.2,0.2-0.2,0.4-0.2,0.7c0.2,0,0.3,0,0.4-0.1c-0.1,0-0.2,0.1-0.4,0.1l0,0
			C251.1,22.1,251.1,21.8,251.2,21.7z M250.7,24.1c0-0.1,0-0.2,0-0.3C250.7,23.9,250.7,24,250.7,24.1c0.1,0.8-0.1,1.7-0.3,2.5l0,0
			C250.7,25.8,250.8,24.9,250.7,24.1z M251.9,28.6c-0.8,0-1.3-0.4-1.5-1l0,0c-0.1-0.1-0.1-0.2-0.1-0.3c0,0.1,0,0.2,0.1,0.2
			C250.6,28.3,251.1,28.6,251.9,28.6c1,0,1.9,0,2.8,0.1l0,0l0,0C253.8,28.7,252.8,28.7,251.9,28.6z M254.4,33.3c0,0.2,0,0.4,0,0.7
			c0.2,0,0.4,0,0.7,0c0.6,0.3,0.5,1.1,1.3,1.1c0.4-0.2,0.3-0.5,0.3-0.8c0,0.3,0.1,0.6-0.3,0.8l0,0c-0.9,0-0.8-0.9-1.3-1.1
			c-0.2,0-0.4,0-0.7,0l0,0C254.3,33.7,254.3,33.4,254.4,33.3z M253.4,33.3C253.4,33.3,253.3,33.3,253.4,33.3
			C253.3,33.3,253.4,33.3,253.4,33.3z M251.1,38.8c0.4-0.1,0.7-0.2,1.1-0.4l0,0C251.9,38.5,251.5,38.7,251.1,38.8z M252.5,38.8
			L252.5,38.8c-0.1,0.2-0.2,0.4-0.3,0.6C252.3,39.2,252.4,39,252.5,38.8z M253.7,41.3c1.1,0.4,2.3-0.5,3.4,0.2l0,0
			c0,0.5,0,1.1,0,1.6l0,0c0-0.5,0-1.1,0-1.6C256,40.8,254.8,41.6,253.7,41.3c-0.9-0.3-1.3,0.1-1.6,0.7l0,0
			C252.4,41.4,252.8,40.9,253.7,41.3z M254.3,42.8l0.1-0.1C254.4,42.7,254.3,42.7,254.3,42.8z M254.5,42.6c0.1-0.1,0.1-0.1,0.2-0.2
			l0,0C254.7,42.4,254.6,42.5,254.5,42.6z M261.7,47.8L261.7,47.8L261.7,47.8z M265.7,48.4c0.2,0.2,0.4,0.5,0.5,0.8
			C266,48.9,265.9,48.6,265.7,48.4z M266.5,43c-0.6,0.4-1.2,0.6-2,0.7c-1.9,0.2-3.9,0.4-5.8,0.6c0.3,0.7,1.5,0.2,1.7,0.9l0,0
			c-0.2-0.8-1.4-0.2-1.7-0.9c1.9-0.2,3.9-0.4,5.8-0.6C265.3,43.6,265.9,43.4,266.5,43c0.2-0.1,0.4-0.3,0.5-0.4c-0.3,0-0.6,0-0.9,0
			l0,0c-1.5-1-2.7-2.1-2.7-3.9l0,0c0,1.7,1.2,2.9,2.7,3.9c0.3,0,0.6,0,0.9,0l0,0C266.9,42.7,266.7,42.9,266.5,43z"/>
	</g>
	<g>
		<path class="st0" d="M293.7,61.7c0.1,1,1.4,2.2-0.4,3c-1.5,0.7-3.4,0.2-4.6-1.1c0.2-0.4-0.1-1,0.4-1.4
			C290.7,62.6,292.2,62.1,293.7,61.7z"/>
		<path class="st0" d="M293.7,61.7c-1.5,0.4-3,0.9-4.6,0.5c0-0.3,0.1-0.5,0.1-0.8c0.2,0,0.3-0.1,0.3-0.3c0.5,0,0.5-0.2,0.6-0.6
			c0.2-2,1.2-2.5,3.5-1.9C294,59.7,293.7,60.7,293.7,61.7z"/>
		<path class="st0" d="M293.5,58.7c-2.3-0.6-3.3-0.1-3.5,1.9c0,0.4-0.1,0.6-0.6,0.6c-0.3-0.1-0.7-0.2-1-0.3l0,0
			c-0.1-1.7,0.8-3.3,0.6-4.9c0.5,0,0.8,0.2,1.1,0.5c0.4,0.3,0,1.2,0.9,1.1c0.8-0.1,1.6-0.1,2.2-0.7C293.8,57.4,293.7,58,293.5,58.7z
			"/>
		<path class="st0" d="M289.1,61.4c0,0.3-0.1,0.5-0.1,0.8c-0.5,0.4-0.1,0.9-0.4,1.4c-1.3-0.2-1.3-1.2-1.6-2
			c-0.2-0.6,0.9-0.5,1.3-0.8l0,0C288.4,61.2,288.7,61.4,289.1,61.4z"/>
		<path class="st0" d="M289.1,61.4c-0.5,0-0.8-0.2-0.7-0.6c0.3,0.1,0.7,0.2,1,0.3C289.4,61.3,289.3,61.4,289.1,61.4z"/>
		<g>
			<path class="st0" d="M306.2,36.8c0.4-1.2,0-2.4-0.1-3.6l0,0c-0.7-1.1-0.3-2.2,0.1-3.4c0.9-2.5,0.7-5.1,0.6-7.7
				c-0.1-1.5-0.7-2.9-3-3.1l0,0c-0.8-0.2-1.6-0.4-2.4-0.7l0,0c-0.5-0.3-0.9-0.6-1.4-0.9c-0.1-0.2-0.2-0.5-0.6-0.6l0,0
				c-0.1-0.8,0.4-1.5,0.8-2.2c0.7-1.2,0-4-1.1-5c-0.1,1.8-0.6,2.2-3,2.8l0,0l0,0c2.4-0.6,3-1.1,3-2.8c-0.1-0.1-0.2-0.2-0.3-0.2l0,0
				c-1.5-1.3-3-1.3-4.4,0h-0.1c-0.7,0.1-0.8,0.6-0.9,1c-0.2,0.6-0.2,1.3-0.6,1.8c-0.8,1.1-0.3,1.9,0.8,2.5c0.2-0.4,0.4-0.9,0.5-1.3
				c-0.3-1.2,0.7-1.1,1.5-1.1c0.2-0.1,0.2-0.1,0.3,0.1c-0.1-0.1-0.1-0.1-0.3,0c-0.9,0-1.9-0.1-1.6,1.1c-0.2,0.4-0.4,0.9-0.5,1.3
				c0.1,0.9,0.3,1.7,0.1,2.6c1.2,1.3,2.8,1,4.4,0.6c0.2-0.2,0.4-0.3,0.7-0.5c-0.2,0.2-0.5,0.3-0.7,0.5l0,0c-1.6,0.5-3.1,0.7-4.3-0.6
				c-0.1,0.1-0.2,0.2-0.3,0.3l0,0c-0.5,0.3-0.9,0.5-1.4,0.8l0,0c-0.7,0-1.4,0.2-2,0.5c0,0.5-0.5,0.7-0.9,1c0.4-0.3,1-0.5,0.9-1
				c-1,0.3-2.3,0.2-2.7,1.2c-1,2.3-1,4.7-1.5,7.1l0,0c-0.1,0.5-0.5,0.9-0.1,1.4c1.4-0.5,2.9-0.5,4.3,0.1c1.2,0.5,2.2,0.5,3.4,0.2
				c0.6-0.2,1.1,0,1.4,0.4c-0.3-0.4-0.9-0.5-1.4-0.4c-1.3,0.4-2.3,0.3-3.4-0.2c-1.4-0.6-2.8-0.6-4.3-0.1c-0.1,2.4,0.1,2.6,3.3,3.6
				c0.5-1.5,2.2-0.8,3.3-1.1c0.1,0,0.3-0.1,0.4-0.1c-0.2,0-0.3,0-0.5,0.1c-1.1,0.3-2.8-0.4-3.3,1.1c0,0.1,0,0.2,0.1,0.2l0,0v0.1
				c0,0.1,0.1,0.1,0.1,0.2c0.6,0.2,1,0.5,0.4,1.1c-0.6,0.5-1.9,1.4-0.4,1.3c-1.6,0.1-0.3-0.8,0.3-1.3c0.6-0.6,0.2-0.9-0.4-1.1
				c-1.8,1.3-3,2.9-3.1,4.9l0,0c-0.8,0-1.6,0.2-2,0.8c-0.1,0.4,0.3,0.5,0.7,0.5l0,0c-0.4,0-0.7-0.1-0.7-0.5
				c-1.6,0.2-2.8,1.1-4.3,1.4c-0.1,0.9-1.1,1.4-1.4,2.2c0.1,0.2,0.2,0.4,0.4,0.5l0,0c1,1.5,1.4,1.7,2.7,1.1c0,0,0,0-0.1,0l0,0
				c1.2-0.9,2.5-1.8,3.7-2.7l0,0c0.8,0,1.4-0.4,2-0.7c0-0.7-0.5-1.7,1.2-1.6c0.6,0,0.7-0.5,0.9-0.9c0.2,0.1,0.3,0.2,0.5,0.3
				c-0.1-0.1-0.3-0.2-0.5-0.3c-0.3,0.4-0.3,0.9-0.9,0.9c-1.7-0.1-1.2,0.9-1.2,1.6c0.4,0.1,0.3,0.4,0.5,0.7l0,0
				c-0.1,0.4-0.1,0.7-0.2,1.1c0.2,0.1,0.3,0.3,0.3,0.4c0-0.1-0.1-0.3-0.3-0.4c-0.3,0-0.7,0.1-0.7,0.4c0,0.3,0.4,0.3,0.7,0.4
				c-0.5,4,0.9,8,0.9,12c0,0.4,0.1,0.7,0.7,0.7c0.5,0,0.8,0.2,1.1,0.5c0.4,0.3,0,1.2,0.9,1.1c0.8-0.1,1.6-0.1,2.2-0.7
				c-0.2-0.4-0.5-0.8-0.5-1.1c0.7-2.5,0.2-4.9,0.3-7.4c0-0.2,0-0.5,0-0.7l0,0c0,0.2,0,0.4,0,0.7c2.2-0.2,4.5-0.4,6.7,0
				c0.1,0,0.2-0.1,0.2-0.2c0,0.1-0.1,0.2-0.2,0.2c1.1,0.5,1.5,1.3,1.6,2.3l0,0c0.2,1.5,0.9,2.9,1,4.4c0.1,1.7,0.6,3.2,1.2,4.8
				c0.2,0.5,0.5,0.7,1.1,0.6c0.8-0.1,0.3-0.6,0.2-0.9c-0.2-0.7-0.5-1.3-0.6-2c-0.6-2.8-0.8-5.7-1.1-8.6c-0.1,0-0.1,0-0.2,0
				c0,0,0.1,0,0.2,0c-0.1-0.7-0.1-1.5-0.2-2.2c-0.3-1.8-0.4-3.4,2.4-3.9c-0.6-0.5-1.1-0.8-1.5-1.1h-0.2l0,0h0.2
				c-0.1-0.3-0.2-0.6-0.3-0.9c0.3-0.1,0.8-0.1,0.9-0.2C305.2,39.4,306.6,38.4,306.2,36.8c-0.2,0.1-0.4,0.2-0.5,0.3
				C305.8,37,306,36.9,306.2,36.8z M287.7,38c0.4-0.1,0.7-0.2,1.1-0.4l0,0C288.5,37.8,288.1,37.9,287.7,38z M301,47.1L301,47.1
				L301,47.1c0.1,0,0.3,0,0.4-0.1c0-0.6-0.1-1.2-0.1-1.8c0.1-0.7-0.2-1-0.7-1c0.6,0,0.8,0.3,0.7,1c-0.1,0.6,0,1.2,0.1,1.8
				C301.3,47,301.2,47.1,301,47.1z M297.8,47C297.7,47,297.7,47,297.8,47C297.7,47,297.7,47,297.8,47c0.1-0.2,0.4-0.2,0.7-0.2l0,0
				c0,0.1-0.1,0.2-0.1,0.2c0-0.1,0.1-0.1,0.1-0.2C298.1,46.8,297.9,46.8,297.8,47z M293,34.6L293,34.6L293,34.6c0.5,0,1-0.1,1.3,0.3
				l0,0l0,0C294,34.5,293.5,34.6,293,34.6z M288.1,25.6L288.1,25.6c0.2-0.1,0.3-0.1,0.5-0.1C288.4,25.5,288.2,25.5,288.1,25.6
				c-0.2,0.1-0.5,0.1-0.7,0.2C287.6,25.7,287.8,25.7,288.1,25.6z M289,21.9L289,21.9c0.3,1.3,0.6,2.5,0.9,3.8l0,0
				C289.7,24.4,289.3,23.1,289,21.9c-0.2-0.1-0.2-0.1-0.1-0.2C288.8,21.7,288.9,21.8,289,21.9z M293.6,21.9V22V21.9z M298.4,19.1
				L298.4,19.1c0,0.1,0,0.2,0,0.3C298.4,19.3,298.4,19.2,298.4,19.1z M300.8,31.7c0.1,0,0.1-0.1,0.1-0.1
				C300.9,31.7,300.9,31.7,300.8,31.7z M295.4,36.5L295.4,36.5c-0.1,0.2-0.2,0.4-0.4,0.5c-0.3,0-0.5-0.1-0.7-0.3
				c0.2,0.2,0.4,0.3,0.7,0.3C295.2,36.9,295.3,36.7,295.4,36.5L295.4,36.5z M297,44.4c0.2,0,0.5,0,0.7,0
				C297.5,44.5,297.3,44.5,297,44.4L297,44.4c-0.2-0.8-1.4-0.2-1.7-0.9l0,0C295.7,44.2,296.9,43.7,297,44.4z M293.4,44.5L293.4,44.5
				c0-0.4,0-0.9,0-1.3l0,0l0,0C293.4,43.6,293.4,44,293.4,44.5L293.4,44.5z M292.6,39.1c-0.1,0.1-0.3,0.1-0.4,0.2
				C292.3,39.2,292.5,39.1,292.6,39.1c-0.5-0.6-1.1-0.2-1.7-0.5c1.1-0.8,2-1.6,3.4-1.8c0-0.1,0-0.2,0-0.3c0.2-0.3,0.6-0.3,1-0.3
				c-0.4,0-0.7,0-1,0.3c0.1,0,0.2,0.1,0.2,0.1s-0.1-0.1-0.2-0.1c0,0.1,0,0.2,0,0.3c-1.4,0.3-2.4,1.1-3.4,1.8
				C291.5,38.9,292.1,38.5,292.6,39.1z M292.8,39.9c0.2,0.2,0.6,0.2,0.8,0.4C293.4,40.1,293,40.1,292.8,39.9z M293.7,40.7
				c0,0.5,0,1.1,0,1.6l0,0C293.7,41.8,293.7,41.2,293.7,40.7L293.7,40.7z M293.7,42.3L293.7,42.3L293.7,42.3L293.7,42.3z
				 M296.1,34.1c-0.2-0.4-0.5-0.6-0.9-0.6C295.6,33.5,295.9,33.6,296.1,34.1L296.1,34.1z M300.4,31.8c-0.3,0-0.6-0.1-0.8-0.3
				C299.8,31.7,300,31.8,300.4,31.8L300.4,31.8z M296.8,30.1c-0.1-0.5,0.1-1.1,0.2-1.6c0-0.5-0.5-0.6-1-0.6l0,0c0.5,0,1,0,1,0.6l0,0
				C297,29.1,296.7,29.6,296.8,30.1c0.3,1.2-0.4,1.2-1.4,1.1l0,0C296.4,31.3,297.2,31.3,296.8,30.1z M294.9,24.2
				c0-0.1-0.1-0.1-0.1-0.2C294.8,24,294.8,24.1,294.9,24.2z M294.9,23.7c0.1,0.1,0.1,0.1,0.1,0.2C295,23.9,294.9,23.8,294.9,23.7z
				 M294.9,22.7c-0.1-0.1-0.2-0.2-0.2-0.3C294.7,22.5,294.8,22.6,294.9,22.7c0.7,0.4,0.9,1.2,1.8,1.4c0.1-0.5,0.2-1.1,0.4-1.6l0,0
				c-0.1,0.5-0.2,1.1-0.4,1.6l0,0C295.8,23.9,295.5,23.1,294.9,22.7z M297.3,28.5L297.3,28.5c0.1-0.2,0.1-0.4,0.2-0.6
				c0-0.1,0.1-0.2,0.1-0.3c0,0.1-0.1,0.2-0.1,0.3l0,0C297.4,28.1,297.4,28.3,297.3,28.5L297.3,28.5z M299.4,29.6
				c-0.7-0.1-1.6,0.1-1.9-0.4C297.8,29.8,298.7,29.5,299.4,29.6L299.4,29.6z M301.8,28.2c0-0.2-0.1-0.4-0.1-0.6
				C301.7,27.8,301.8,28,301.8,28.2z M301.7,21.8v-0.1c0.1,0,0.1,0,0.2,0.1C301.8,21.8,301.7,21.8,301.7,21.8z M301.7,25.2
				L301.7,25.2c0.4,0.7-0.7,1.4,0,2.2l0,0C301,26.7,302.1,25.9,301.7,25.2L301.7,25.2z M298.2,26.6c0-0.1-0.1-0.2-0.1-0.3
				C298.1,26.4,298.2,26.5,298.2,26.6s0.1,0.1,0.1,0.1S298.3,26.7,298.2,26.6z M290.8,25.1c-0.1-0.1-0.2,0-0.2,0
				S290.6,25,290.8,25.1z M292.3,25.9c0.3,0.2,0.5,0.5,0.4,1C292.8,26.4,292.6,26.1,292.3,25.9z M292.3,26.8c-0.1,0-0.1,0-0.2,0
				C292.1,26.8,292.2,26.8,292.3,26.8z M291.9,26.7c-0.1,0-0.2-0.1-0.3-0.1C291.6,26.6,291.8,26.6,291.9,26.7z M293,25.2
				c0.3,0.2,0.6,0.4,1,0.5c-0.1-1.1,0.3-2.2-0.3-3.3l0,0c0.6,1.1,0.2,2.2,0.3,3.3c0,0.4,0,0.7,0,1.1l0,0c-0.1,0.1-0.2,0.2-0.3,0.3
				c0.1,0,0.2-0.1,0.3-0.3c0-0.4,0-0.7,0-1.1C293.6,25.6,293.3,25.4,293,25.2z M293.6,27.1C293.6,27.1,293.6,27.2,293.6,27.1
				C293.6,27.2,293.6,27.2,293.6,27.1z M293.6,21.7c0.1-0.5,0.4-0.9,0.7-1.3C294,20.8,293.7,21.2,293.6,21.7z M289.9,25.7
				L289.9,25.7c-0.1,0-0.1,0-0.2,0C289.8,25.7,289.9,25.7,289.9,25.7z M289.9,25.7L289.9,25.7c0.5,0.7,1,1.5,1.5,2.2l0,0
				C290.9,27.2,290.4,26.5,289.9,25.7z M294.3,27.1c0.2,0.3,0.1,0.6,0.1,0.8l0,0l0,0C294.4,27.7,294.4,27.3,294.3,27.1z M291,39.3
				C291,39.3,291.1,39.3,291,39.3C291.1,39.3,291,39.3,291,39.3c0.3,0.8,1.1,0.4,1.7,0.5l0,0l0,0C292.1,39.7,291.3,40.2,291,39.3
				c-0.5,0-0.7-0.3-1-0.5C290.3,39.1,290.5,39.3,291,39.3z M293.7,42.5L293.7,42.5L293.7,42.5z M293.4,42.9c0.1-0.1,0.2-0.2,0.2-0.3
				C293.6,42.7,293.6,42.8,293.4,42.9c-0.1,0-0.2,0.1-0.2,0.1S293.3,42.9,293.4,42.9z M293.1,46.7L293.1,46.7
				c0.9,0.2,1.8-0.1,2.6,0.3l0,0C294.9,46.6,293.9,46.9,293.1,46.7z M296.4,36.5c-0.2,0-0.5,0-0.7,0l0,0c-0.1-0.1-0.2-0.2-0.3-0.3
				l0,0c0.1,0.1,0.2,0.2,0.3,0.3C295.9,36.5,296.1,36.5,296.4,36.5c0-0.4,0.2-0.5,0.7-0.5c0.1-0.6,0.9-0.8,1.4-1.1
				c0.7-0.3,1.3-0.6,2-0.8c0.1-0.3,0.3-0.6,0.4-0.7c-0.2,0.1-0.3,0.4-0.4,0.7c1.1,0.1,2-0.1,2.7-0.8l0,0l0,0c-0.7,0.7-1.6,1-2.7,0.8
				c-0.7,0.3-1.3,0.6-2,0.8c-0.5,0.3-1.2,0.5-1.3,1.1C296.6,36,296.4,36.2,296.4,36.5c0,0.2,0.2,0.4,0.3,0.5
				C296.6,36.9,296.4,36.7,296.4,36.5z M300.6,31.8L300.6,31.8L300.6,31.8z M298.1,38.2L298.1,38.2c0-0.2-0.1-0.4-0.3-0.5
				C298,37.8,298,38,298.1,38.2z M302.4,39.1c0.7-0.9,0.9-1.9,1.5-2.7c0.4-0.6,0.3-1.3,0-1.5c0.3,0.3,0.5,1,0,1.6
				C303.3,37.2,303.1,38.2,302.4,39.1c-0.4,0.6-0.4,0.9-0.1,1.1C302,40,302,39.6,302.4,39.1z M303.7,40.4L303.7,40.4L303.7,40.4
				L303.7,40.4z M304.2,30.8c0.1,0.3-0.7-0.2-1.1-0.1c0,0.9,1,1.6,1,2.5l0,0c0-0.9-1-1.5-1-2.5c-0.3,0.1-0.6,0.2-1,0.3
				c-0.2-0.3-0.4-0.8-1-0.8c-0.1,0.3-0.1,0.5-0.4,0.5c0.2,0.1,0.3-0.2,0.4-0.5c-0.3,0-0.5,0-0.7,0.3l0,0c-0.2,0-0.4,0-0.7,0
				c0.2,0.3,0.4,0.5,0.7,0.8c0.3,0,0.5,0.1,0.7,0.3l0,0c-0.1-0.2-0.4-0.3-0.7-0.3c-0.3,0-0.7,0-1,0l0,0l0,0
				c-0.8-0.1-1.1-0.3-1.2-0.4c0.1,0.1,0.5,0.3,1.2,0.4l0,0c0-0.3-0.1-0.6,0.3-0.8c0.2,0,0.5,0,0.7,0c0.2-0.2,0.4-0.3,0.7-0.3
				c0.7,0,0.8,0.5,1,0.8c0.3-0.1,0.6-0.2,1-0.3C303.5,30.6,304.3,31,304.2,30.8c-0.2-0.7,0.6-1.5,0.4-2
				C304.8,29.3,304,30.1,304.2,30.8z M303,29.2c0,0.1,0.2,0.1,0.4,0.1C303.2,29.3,303,29.3,303,29.2z M303,29.1
				c0-0.1,0.2-0.2,0.4-0.2C303.2,28.9,303,29,303,29.1z M304,23.1c-0.2,0.4-0.4,0.8-0.6,1.3c0.5,0.6-0.1,0.7-0.6,0.8
				c0,0.4,0,0.7,0,1.1l0,0l0,0c0-0.4,0-0.7,0-1.1c0.5-0.1,1.1-0.2,0.6-0.8c-0.1,0-0.2,0.1-0.3,0.1c0.1-0.1,0.2-0.1,0.3-0.1
				C303.6,23.9,303.8,23.5,304,23.1c0.1-0.2,0.3-0.5,0.3-0.7C304.3,22.6,304.1,22.9,304,23.1z M300.7,21c-0.1-0.2-0.2-0.4-0.2-0.7
				C300.5,20.6,300.6,20.8,300.7,21L300.7,21z M300.2,21.6c0,0.1,0.2,0.1,0.2,0.1c0.4-0.1,0.2-0.4,0.3-0.7c1.1-0.2,2.2,0.4,3.3,0
				l0,0c-1.1,0.4-2.2-0.2-3.3,0c-0.1,0.2,0.1,0.5-0.3,0.7C300.4,21.8,300.2,21.7,300.2,21.6L300.2,21.6z M299.7,17.5
				c-0.4,0.3-0.3,0.9-0.6,1.3C299.4,18.5,299.3,17.9,299.7,17.5z M299,13.1L299,13.1L299,13.1L299,13.1L299,13.1z M295.3,13.8
				c0.2,0,0.5,0,0.7-0.2l0,0l0,0C295.8,13.8,295.6,13.8,295.3,13.8z M297.1,13.1C297.1,13.1,297.2,13.1,297.1,13.1
				C297.2,13.1,297.1,13.1,297.1,13.1L297.1,13.1z M298,14c-0.1,0-0.3-0.1-0.4-0.1C297.7,13.9,297.8,14,298,14c0.1,0,0.3,0,0.4-0.1
				C298.2,13.9,298.1,14,298,14z M298.4,18.9L298.4,18.9c-0.2-0.1-0.5-0.2-0.7-0.2C297.9,18.7,298.1,18.8,298.4,18.9z M294.7,19.7
				c0.2,0,0.5,0,0.7,0c0.6,0.4,1.1-0.1,1.6-0.1l0,0c0.3,0.3,0.5,0.8,1.1,1c0.2-0.2,0.3-0.4,0.3-0.6c0,0.2,0,0.5-0.3,0.6l0,0
				c-0.6-0.2-0.7-0.6-1.1-1c-0.5,0-1,0.6-1.6,0.2C295.2,19.6,295,19.7,294.7,19.7c-0.1-0.1-0.2-0.1-0.3-0.2
				c-0.3-0.1-0.5-0.2-0.6-0.3c0.1,0.1,0.4,0.2,0.6,0.3C294.5,19.5,294.6,19.6,294.7,19.7z M292.5,19.7c-0.6,0.8-0.2,1.6-0.2,2.3
				c0,0.4,0.1,0.7,0.3,0.8c-0.1-0.1-0.2-0.4-0.3-0.8C292.3,21.2,291.9,20.4,292.5,19.7c0.3-0.3,0.1-0.6-0.2-0.9
				C292.6,19,292.8,19.3,292.5,19.7z M289.1,20.1C289.1,20.1,289,20.1,289.1,20.1C289,20.1,289.1,20.1,289.1,20.1z M288.9,20.3
				L288.9,20.3L288.9,20.3z M288.7,20.5c0,0.1,0,0.1,0,0.2C288.7,20.6,288.7,20.6,288.7,20.5z M288.7,20.8L288.7,20.8
				c0.1,0,0.2,0,0.3,0c0.7,0,1.1,0.1,1.4,0.4c-0.3-0.3-0.7-0.4-1.4-0.4c0,0.3,0,0.5,0,0.8l0,0l0,0c0-0.3,0-0.5,0-0.8
				C288.9,20.8,288.8,20.8,288.7,20.8s-0.2,0-0.3,0l0,0l0,0l0,0C288.5,20.8,288.6,20.8,288.7,20.8z M288,20.9
				c-0.3,0.1-0.3,0.4-0.3,0.7c0.2,0,0.3,0,0.4-0.1c-0.1,0-0.2,0.1-0.4,0.1l0,0C287.7,21.3,287.7,21,288,20.9z M287.4,23.3
				c0-0.1,0-0.2,0-0.3C287.4,23.1,287.4,23.2,287.4,23.3c0.1,0.9-0.1,1.7-0.3,2.5l0,0l0,0l0,0C287.3,25,287.4,24.2,287.4,23.3z
				 M287,26.9L287,26.9c0.1,0.3,0.3,0.6,0.5,0.7C287.3,27.4,287.1,27.2,287,26.9z M291,32.5c0,0.2,0,0.4,0,0.7c0.2,0,0.4,0,0.7,0
				c0.2-0.9,1.1-0.4,1.7-0.5c0-0.1,0-0.2,0-0.3l0,0c0,0.1,0,0.2,0,0.3c0,0.3,0,0.5,0,0.8c0.1,0,0.2,0,0.3,0c-0.1,0-0.2,0-0.3,0
				c0-0.3,0-0.5,0-0.8c-0.6,0.1-1.4-0.3-1.7,0.5c0.6,0.3,0.5,1.1,1.3,1.1l0,0c-0.9,0-0.8-0.8-1.3-1.1c-0.2,0-0.4,0-0.7,0l0,0
				C291,32.9,291,32.7,291,32.5z M290.3,32.8C290.2,32.8,290.2,32.8,290.3,32.8C290.2,32.8,290.2,32.8,290.3,32.8z M289.5,36.6
				c0.1-0.1,0.3-0.1,0.4-0.2c0.2-0.2,0.3-0.5,0.5-0.7c-0.1-0.1-0.2-0.4-0.3-0.4l0,0c0.1,0,0.2,0.3,0.3,0.4l0,0
				c-0.2,0.2-0.3,0.5-0.5,0.7l0,0C289.8,36.5,289.7,36.6,289.5,36.6c0.1,0,0.1,0.1,0.1,0.1l0,0C289.6,36.7,289.6,36.7,289.5,36.6z
				 M290.9,42l0.1-0.1C291,41.9,291,42,290.9,42z M291.2,41.8c0.1-0.1,0.1-0.1,0.2-0.2l0,0C291.3,41.7,291.2,41.8,291.2,41.8z
				 M299,46.8c0.5,0,0.9-0.1,1.4,0C300,46.7,299.5,46.7,299,46.8z M301.8,49.7c0.1-0.8-0.5-1.5-1.1-2.2c-0.4-0.1-0.5,0-0.6,0.2
				c0.1-0.2,0.2-0.3,0.6-0.2l0,0C301.4,48.3,301.9,48.9,301.8,49.7z M302.3,47.6c0.2,0.2,0.4,0.5,0.5,0.8
				C302.7,48.1,302.5,47.8,302.3,47.6z M301.8,42.8c0.1,0,0.2-0.1,0.3-0.1C302,42.7,301.9,42.8,301.8,42.8z M303.4,42
				c0.1-0.1,0.2-0.1,0.2-0.2c-0.3,0-0.6,0-0.9,0c-2.4-0.2-4-1.3-5-3l0,0c1,1.8,2.6,2.8,5,3c-1.5-1-2.7-2.1-2.7-3.8l0,0
				c0,1.7,1.2,2.9,2.7,3.8c0.3,0,0.6,0,0.9,0l0,0C303.6,41.9,303.5,41.9,303.4,42z"/>
			<path class="st0" d="M301.7,21.8c0,0,0.1,0,0.2,0C301.8,21.7,301.7,21.7,301.7,21.8C301.7,21.7,301.7,21.8,301.7,21.8z"/>
			<path class="st0" d="M299.4,31.3c0.3,0,0.7,0,1,0c-0.2-0.3-0.5-0.5-0.7-0.8C299.3,30.6,299.4,31,299.4,31.3z"/>
		</g>
	</g>
	<g>
		<path class="st0" d="M328.9,62.9c0.1,1,1.4,2.2-0.4,3c-1.5,0.7-3.4,0.2-4.6-1.1c0.2-0.4-0.1-1,0.4-1.4
			C325.9,63.8,327.4,63.4,328.9,62.9z"/>
		<path class="st0" d="M328.9,62.9c-1.5,0.4-3,0.9-4.6,0.5c0-0.3,0.1-0.5,0.1-0.8c0.2,0,0.3-0.1,0.3-0.3c0.5,0,0.5-0.2,0.6-0.6
			c0.2-2,1.2-2.5,3.5-1.9C329.2,60.9,328.9,61.9,328.9,62.9z"/>
		<path class="st0" d="M328.7,59.9c-2.3-0.6-3.3-0.1-3.5,1.9c0,0.4-0.1,0.6-0.6,0.6c-0.3-0.1-0.7-0.2-1-0.3l0,0
			c-0.1-1.7,0.8-3.3,0.6-4.9c0.5,0,0.8,0.2,1.1,0.5c0.4,0.3,0,1.2,0.9,1.1c0.8-0.1,1.6-0.1,2.2-0.7C329,58.6,328.9,59.3,328.7,59.9z
			"/>
		<path class="st0" d="M324.3,62.7c0,0.3-0.1,0.5-0.1,0.8c-0.5,0.4-0.1,0.9-0.4,1.4c-1.3-0.2-1.3-1.2-1.6-2
			c-0.2-0.6,0.9-0.5,1.3-0.8l0,0C323.6,62.5,323.9,62.6,324.3,62.7z"/>
		<path class="st0" d="M324.3,62.7c-0.5,0-0.8-0.2-0.7-0.6c0.3,0.1,0.7,0.2,1,0.3C324.6,62.5,324.5,62.6,324.3,62.7z"/>
		<g>
			<path class="st0" d="M341.3,34.4c-0.7-1.1-0.3-2.2,0-3.4c0.9-2.5,0.7-5.1,0.6-7.7c-0.1-1.5-0.7-2.9-3-3.1l0,0
				c-0.8-0.2-1.6-0.4-2.4-0.7l0,0c-0.5-0.3-0.9-0.6-1.4-0.9l0,0c-0.1-0.2-0.2-0.5-0.6-0.6l0,0c-0.1-0.8,0.4-1.5,0.8-2.2
				c0.7-1.2,0-4-1.1-5c-0.1,1.8-0.6,2.2-3,2.8c0.2,0.4,0.5,0.7,0,1.1c-0.6,0.5-1.1,0.2-1.7,0c0.5,0.2,1.1,0.5,1.7,0
				c0.5-0.4,0.2-0.7,0-1.1l0,0l0,0c2.4-0.6,3-1.1,3-2.8c-0.1-0.1-0.2-0.2-0.3-0.2l0,0c-1.5-1.3-3-1.3-4.4,0h-0.1
				c-0.7,0.1-0.8,0.6-0.9,1c-0.2,0.6-0.2,1.3-0.6,1.8c-0.8,1.1-0.3,1.9,0.8,2.5c0.2-0.4,0.4-0.9,0.5-1.3l0,0
				c-0.2,0.4-0.4,0.9-0.5,1.3c0.1,0.9,0.3,1.7,0.1,2.6c1.2,1.3,2.8,1.1,4.3,0.6c0.2-0.2,0.4-0.3,0.7-0.5c-0.2,0.2-0.5,0.3-0.7,0.5
				c-1.6,0.5-3.1,0.7-4.3-0.6c-0.1,0.1-0.2,0.2-0.3,0.3l0,0c-0.5,0.3-0.9,0.5-1.4,0.8l0,0c-0.7,0-1.4,0.2-2,0.5c0,0.6-0.6,0.8-1,1.1
				c0.4-0.3,1.1-0.5,1-1.1c-1,0.3-2.3,0.2-2.7,1.2c-1,2.3-1,4.7-1.5,7.1l0,0c-0.1,0.5-0.5,0.9-0.1,1.4c1.4-0.5,2.9-0.5,4.3,0.1
				c1.2,0.5,2.2,0.5,3.4,0.2c0.6-0.2,1.1,0,1.4,0.4c-0.3-0.4-0.9-0.5-1.4-0.4c-1.3,0.4-2.3,0.3-3.4-0.2c-1.4-0.6-2.8-0.6-4.3-0.1
				c-0.1,2.4,0.1,2.6,3.3,3.6c0.5-1.5,2.2-0.8,3.3-1.1c0.5-0.1,0.9-0.1,1.5-0.1c-0.5,0-1,0-1.5,0.1c-1.1,0.3-2.8-0.4-3.3,1.1
				c0,0.1,0,0.2,0.1,0.2l0,0v0.1c0,0.1,0.1,0.1,0.1,0.2l0,0c-1.8,1.3-3,2.9-3.1,4.9l0,0c-0.8,0-1.6,0.1-2,0.8v0.1v-0.1
				c-1.6,0.2-2.8,1.1-4.3,1.4c-0.1,0.9-1.1,1.4-1.4,2.2c0.1,0.2,0.2,0.3,0.3,0.5l0,0c1,1.5,1.4,1.6,2.7,1.1c0,0,0,0-0.1,0l0,0
				c1.2-0.9,2.5-1.8,3.7-2.7c-0.1-0.7-0.3-1.3-0.4-2l0,0c0.1,0.7,0.3,1.3,0.4,2c0.8,0,1.4-0.4,2-0.7l0,0c0.4,0.1,0.3,0.5,0.5,0.7
				l0,0c-0.1,0.4-0.1,0.7-0.2,1.1c-0.3,0-0.7,0.1-0.7,0.4c0,0.3,0.4,0.3,0.7,0.4c-0.5,4,0.9,8,0.9,12c0,0.4,0.1,0.7,0.7,0.7
				c0.5,0,0.8,0.2,1.1,0.5c0.4,0.3,0,1.2,0.9,1.1c0.8-0.1,1.7-0.1,2.2-0.7c-0.2-0.4-0.6-0.8-0.5-1.1c0.7-2.5,0.2-4.9,0.3-7.4
				c0-0.2,0-0.5,0-0.7l0,0c0,0.2,0,0.5,0,0.7c2.2-0.2,4.5-0.4,6.7,0c0.1,0,0.2-0.1,0.2-0.2c0,0.1-0.1,0.2-0.2,0.2
				c1.1,0.5,1.5,1.3,1.6,2.3l0,0c0.2,1.5,0.9,2.9,1,4.4c0.1,1.7,0.6,3.2,1.2,4.8c0.2,0.5,0.5,0.7,1.1,0.6c0.8-0.1,0.3-0.6,0.2-0.9
				c-0.2-0.7-0.5-1.3-0.6-2c-0.6-2.8-0.8-5.7-1.1-8.6c-0.1-0.7,0-1.5-0.2-2.2c-0.4-1.8-0.4-3.4,2.4-3.9c-0.7-0.5-1.1-0.8-1.5-1.1
				h-0.2h-0.2c-0.3,0-0.6,0-0.9,0l0,0c-1.5-1-2.7-2.1-2.7-3.9l0,0c0,1.7,1.2,2.9,2.7,3.8c0.3,0,0.6,0,0.9,0h0.2h0.2
				c-0.1-0.3-0.2-0.6-0.3-1c0-0.2,0-0.3,0-0.5l0,0c1.1-1.1,0.9-2.8,2.5-3.5C341.9,36.9,341.4,35.7,341.3,34.4
				C341.3,34.5,341.3,34.5,341.3,34.4z M329.3,14.3c0-0.8,0.9-0.7,1.6-0.7c0.1-0.1,0.2-0.1,0.2,0c0,0-0.1,0-0.2,0.1
				C330.2,13.7,329.3,13.6,329.3,14.3z M329.6,14.8L329.6,14.8L329.6,14.8z M339.4,32c0.1,0.3-0.7-0.2-1.1-0.1c0,0.9,1,1.6,1,2.5
				l0,0c0-0.9-1-1.5-1-2.5c-0.3,0.1-0.6,0.2-1,0.3c-0.2-0.3-0.4-0.8-1-0.8c-0.1,0.2-0.1,0.4-0.3,0.5c0.2,0,0.2-0.2,0.3-0.5
				c-0.3,0-0.5,0-0.7,0.3l0,0c-0.2,0-0.4,0-0.7,0c0.2,0.3,0.4,0.5,0.7,0.8c-0.2-0.3-0.4-0.5-0.7-0.8c-0.4,0.2-0.3,0.5-0.3,0.8
				c0.3,0,0.7,0,1,0l0,0c-0.3,0-0.7,0-1,0l0,0c0.2,0.4,0.5,0.5,1,0.5l0,0c-0.5,0-0.8-0.2-1-0.5c-0.9-0.2-1.2-0.4-1.2-0.5
				c0,0.2,0.3,0.3,1.2,0.5l0,0c0-0.3-0.1-0.6,0.3-0.8c0.2,0,0.4,0,0.7,0c0.1-0.2,0.4-0.3,0.7-0.3c0.6,0,0.8,0.5,1,0.8
				c0.3-0.1,0.6-0.2,1-0.3C338.7,31.9,339.5,32.3,339.4,32c-0.2-0.7,0.6-1.5,0.4-2C340.1,30.5,339.2,31.3,339.4,32z M328.6,45.7
				c0-0.4,0-0.9,0-1.3l0,0c0-0.1,0-0.2,0-0.3c-0.1,0-0.2,0.1-0.2,0.1c0-0.1,0.1-0.1,0.2-0.1c0.2-0.1,0.3-0.3,0.3-0.5l0,0
				c0-0.5,0-1.1,0-1.6c0.1-0.6-0.7-0.5-1-0.8c0.2,0.3,1.1,0.2,1,0.8c0,0.5,0,1.1,0,1.6c0,0.2,0,0.4-0.3,0.6c0,0.1,0,0.2,0,0.3
				C328.6,44.9,328.6,45.3,328.6,45.7L328.6,45.7c-0.1,0.2-0.2,0.4-0.2,0.5C328.4,46.1,328.5,45.9,328.6,45.7z M323.9,42.5
				L323.9,42.5c0.3-0.6,0.7-1,1.6-0.7c0.4,0.1,0.8,0.1,1.2,0.1c-0.4,0.1-0.8,0.1-1.2-0.1C324.6,41.4,324.2,41.9,323.9,42.5
				L323.9,42.5z M331.2,45.2c0.3,0.1,0.6,0.1,0.8,0.2C331.7,45.2,331.5,45.2,331.2,45.2z M328.3,47.9L328.3,47.9
				c0.9,0.2,1.8-0.1,2.6,0.4l0,0C330.1,47.9,329.1,48.1,328.3,47.9L328.3,47.9L328.3,47.9z M336.6,46.5c0-0.1,0-0.2,0-0.3
				C336.6,46.3,336.6,46.4,336.6,46.5c0,0.2,0,0.3,0,0.4C336.6,46.8,336.6,46.6,336.6,46.5z M332.9,40L332.9,40
				c0.2,0.3,0.4,0.6,0.6,0.8C333.3,40.5,333.1,40.3,332.9,40z M331.6,37.8c-0.2,0-0.4,0-0.7,0c-0.1-0.1-0.2-0.2-0.3-0.3
				c0,0.1,0,0.2,0,0.3c-0.1,0.2-0.2,0.4-0.4,0.5c0.1-0.2,0.2-0.4,0.4-0.5c0-0.1,0-0.2,0-0.3c-0.4,0-0.8,0-1,0.3
				c0.1,0,0.2,0.1,0.2,0.1s-0.1-0.1-0.2-0.1c0,0.1,0,0.2,0,0.3l0,0c-1.4,0.3-2.4,1.1-3.4,1.8l0,0c1.1-0.8,2-1.6,3.4-1.8
				c0-0.1,0-0.2,0-0.3c0.2-0.3,0.6-0.3,1-0.3c0.1,0.1,0.2,0.2,0.3,0.3C331.1,37.8,331.4,37.8,331.6,37.8c0.2,0.8,1.6,0.8,1.7,1.7
				l0,0C333.2,38.5,331.8,38.6,331.6,37.8z M328.4,33.9c0.1,0,0.2,0,0.2,0c0-0.1,0-0.2,0-0.3l0,0c0,0.1,0,0.2,0,0.3
				c0,0.3,0,0.6,0,0.8h0.1c-0.1,0-0.1,0-0.2,0c0,0.3,0.1,0.6-0.3,0.8c0.4-0.2,0.3-0.5,0.3-0.8s0-0.6,0-0.8H328.4z M323.3,22.8
				c-0.1,0-0.2,0.1-0.4,0.1l0,0C323.1,22.8,323.2,22.8,323.3,22.8z M323.3,26.9L323.3,26.9c0.2-0.1,0.3-0.1,0.5-0.1
				C323.6,26.8,323.4,26.8,323.3,26.9c-0.2,0.1-0.5,0.1-0.7,0.2C322.8,27,323,26.9,323.3,26.9z M325.9,26.3c-0.2,0,0,0.5,0.1,0.7
				c0.4,0.7,1.1,1,2,1.1l0,0c0.4,0.3,0.9,0.6,1.3,0c0-0.4,0-0.7,0-1.1c-0.4-0.1-0.7-0.3-1-0.5c0.3,0.2,0.6,0.4,1,0.5
				c-0.1-0.7,0.1-1.4,0-2.1c0,0.7-0.1,1.4,0,2.1c0,0.4,0,0.7,0,1.1l0,0c-0.4,0.6-0.9,0.3-1.3,0c-0.9,0-1.6-0.4-2-1.1
				c-0.3,0-0.6,0-0.8,0l0,0c0.3,0,0.6,0,0.8,0C325.9,26.8,325.7,26.3,325.9,26.3z M327.7,20.9c-0.2,0.3-0.3,0.6-0.3,0.9
				C327.4,21.5,327.5,21.2,327.7,20.9c0.1-0.1,0.1-0.2,0.1-0.3C327.8,20.7,327.8,20.8,327.7,20.9z M327.9,28.1c0-0.5-0.1-0.8-0.4-1
				C327.8,27.3,328,27.6,327.9,28.1z M325.2,26.9c-0.1,0-0.2,0-0.2,0S325.1,26.9,325.2,26.9L325.2,26.9z M329.4,28.2
				c0.3,0.3,0.2,0.6,0.2,1l0,0C329.5,28.9,329.7,28.5,329.4,28.2z M335.6,23L335.6,23L335.6,23L335.6,23z M334.6,31
				C334.6,31,334.6,30.9,334.6,31c-0.7-0.2-1.6,0-1.9-0.5c0.4,0.5,1.3,0.3,1.9,0.4c0.8-0.1,1.5-0.2,2-0.8c-1.3-0.4-2.5-0.8-3.9-0.9
				l0,0c1.4,0.1,2.7,0.5,3.9,0.9c0.6-0.4,0.2-0.9,0.3-1.4l0,0c0,0.5,0.3,1-0.3,1.4c-0.5,0.5-1.3,0.7-2,0.8V31z M337.1,34.3
				c0.1,0,0.3,0,0.4,0C337.3,34.3,337.2,34.3,337.1,34.3z M336.2,32.9l-0.1,0.1C336.1,32.9,336.2,32.9,336.2,32.9z M335.8,33.1
				C335.8,33.1,335.8,33,335.8,33.1C335.8,33,335.8,33.1,335.8,33.1z M332,31.3c-0.1-0.5,0.1-1.1,0.2-1.6c0-0.3-0.1-0.4-0.3-0.5
				c0.2,0.1,0.3,0.2,0.3,0.5l0,0C332.2,30.3,331.9,30.9,332,31.3c0.3,1-0.3,1.2-1.1,1.2C331.8,32.5,332.3,32.4,332,31.3z
				 M329.6,36.1L329.6,36.1c-0.1-0.1-0.2-0.2-0.3-0.2C329.4,36,329.5,36,329.6,36.1z M331.3,35.3L331.3,35.3
				c-0.2-0.3-0.3-0.5-0.5-0.5C331,34.9,331.2,35,331.3,35.3L331.3,35.3z M337,28.6L337,28.6c-0.2-0.2-0.3-0.3-0.3-0.5
				C336.7,28.3,336.8,28.4,337,28.6c0.8,0,0.5-0.7,0.8-1C337.5,28,337.8,28.7,337,28.6z M336.9,23C336.9,23,336.8,23,336.9,23
				c0-0.1,0.1-0.1,0.2,0C337,23,336.9,23,336.9,23L336.9,23z M336.9,26.5c0,0.1,0.1,0.2,0.1,0.3C337,26.6,337,26.5,336.9,26.5
				L336.9,26.5z M333.7,28.1c-0.1-0.1-0.2-0.1-0.3-0.2c-0.1-0.2-0.2-0.4-0.4-0.5c0.1,0.1,0.3,0.2,0.4,0.5
				C333.5,28,333.6,28.1,333.7,28.1z M331.6,27.3L331.6,27.3c-0.1-0.4,0-0.8,0.1-1.2C331.6,26.4,331.5,26.8,331.6,27.3z M328.3,35.8
				L328.3,35.8C328.2,35.8,328.2,35.8,328.3,35.8L328.3,35.8z M325.2,37.7c0.2-0.2,0.3-0.5,0.5-0.7c-0.1-0.1-0.2-0.4-0.3-0.4l0,0
				c0.1,0,0.2,0.3,0.3,0.4l0,0C325.5,37.2,325.3,37.5,325.2,37.7L325.2,37.7c-0.1,0.1-0.3,0.1-0.4,0.2l0.1,0.1l0,0l-0.1-0.1
				C324.9,37.8,325,37.8,325.2,37.7z M325.4,34l0.1,0.1C325.5,34,325.4,34,325.4,34z M338.2,30.4c0-0.1,0.2-0.2,0.4-0.2
				C338.4,30.2,338.2,30.3,338.2,30.4z M339.2,24.4c-0.2,0.4-0.4,0.8-0.6,1.3c0.5,0.6-0.1,0.7-0.6,0.8c0,0.4,0,0.7,0,1.1
				c0,0,0,0.1,0.1,0.1c0,0,0-0.1-0.1-0.1l0,0l0,0c0-0.4,0-0.7,0-1.1c0.5-0.1,1.1-0.2,0.6-0.8c-0.1,0-0.2,0.1-0.3,0.1
				c0.1-0.1,0.2-0.1,0.3-0.1C338.8,25.2,339,24.8,339.2,24.4c0.1-0.3,0.4-0.6,0.2-0.8C339.7,23.8,339.3,24.1,339.2,24.4z
				 M339.3,22.3L339.3,22.3c-1.1,0.4-2.2-0.2-3.3,0c0,0,0,0,0,0.1c0,0,0,0,0-0.1l0,0c-0.1-0.2-0.2-0.4-0.2-0.6
				c0,0.2,0.1,0.4,0.2,0.6l0,0C337.1,22.1,338.2,22.7,339.3,22.3z M334.2,14.4L334.2,14.4L334.2,14.4L334.2,14.4z M334.2,14.3
				c0-0.3-0.3-0.4-0.6-0.4C333.9,13.9,334.2,14,334.2,14.3z M333.2,15.2c-0.2,0-0.4-0.1-0.6-0.3C332.7,15.1,332.9,15.2,333.2,15.2
				c0.1,0,0.3,0,0.4-0.1C333.4,15.2,333.3,15.2,333.2,15.2z M333.6,20.1c0,0.1,0,0.1-0.1,0.2l0,0C333.5,20.3,333.6,20.2,333.6,20.1
				c-0.2-0.1-0.5-0.2-0.7-0.2C333.1,20,333.3,20.1,333.6,20.1z M329.9,20.9c0.2,0,0.5,0,0.7,0c0.6,0.4,1.1-0.1,1.6-0.1
				c0-0.1,0-0.3,0-0.4l0,0c0,0.1,0,0.2,0,0.4c0.3,0.3,0.5,0.8,1.1,1c0.5-0.4,0.2-0.9,0.3-1.3l0,0c-0.2,0.4,0.2,0.9-0.3,1.3
				c-0.2,0.7-0.6,1.4-1,2c-0.1,0.5-0.2,1.1-0.4,1.6l0,0c-0.9-0.2-1.2-1-1.8-1.4c-0.1,0-0.1-0.1-0.1-0.1l0.1,0.1
				c0.7,0.4,0.9,1.2,1.8,1.4c0.1-0.5,0.2-1.1,0.4-1.6l0,0c0.5-0.6,0.8-1.3,1-2c-0.6-0.2-0.7-0.6-1.1-1c-0.5,0-1,0.6-1.6,0.2
				C330.4,20.9,330.2,20.9,329.9,20.9c-0.1-0.1-0.2-0.1-0.3-0.2c-0.3-0.1-0.5-0.2-0.6-0.3c0.1,0.1,0.4,0.2,0.6,0.3
				C329.7,20.8,329.8,20.8,329.9,20.9z M323.9,22L323.9,22c0.1,0,0.2,0,0.3,0c0.7,0,1.1,0.1,1.4,0.4c-0.3-0.3-0.7-0.4-1.4-0.4
				c0,0.3,0,0.5,0,0.8c0,0.1,0,0.2,0,0.3c0.3,1.3,0.6,2.5,0.9,3.8l0,0c-0.3-1.3-0.6-2.5-0.9-3.8c-0.2-0.1-0.2-0.2,0-0.3
				c0-0.3,0-0.5,0-0.8C324.1,22,324,22,323.9,22s-0.2,0-0.3,0l0,0C323.7,22,323.8,22,323.9,22z M322.9,22.8L322.9,22.8L322.9,22.8
				L322.9,22.8z M322.6,24.6L322.6,24.6L322.6,24.6c0.1,0.9-0.1,1.7-0.3,2.5l0,0C322.5,26.3,322.7,25.4,322.6,24.6z M322.2,28.1
				L322.2,28.1c0.1,0.3,0.3,0.6,0.5,0.7C322.5,28.7,322.3,28.4,322.2,28.1z M329.1,32.5L329.1,32.5L329.1,32.5z M326.2,33.8
				c0,0.2,0,0.4,0,0.7c0.2,0,0.4,0,0.7,0c0.1-0.4,0.4-0.5,0.7-0.6c-0.3,0-0.6,0.1-0.7,0.6c0.6,0.3,0.5,1.1,1.3,1.1l0,0l0,0
				c-0.9,0-0.8-0.9-1.3-1.1c-0.2,0-0.4,0-0.7,0l0,0C326.2,34.2,326.2,33.9,326.2,33.8z M325.2,33.8L325.2,33.8L325.2,33.8z
				 M324.9,33.7L324.9,33.7L324.9,33.7z M324.5,33.8c0,0-0.1,0-0.1,0.1C324.5,33.8,324.5,33.8,324.5,33.8z M324.8,35.3
				c0.4-0.4,0.4-0.6,0.2-0.8C325.2,34.7,325.2,34.9,324.8,35.3c-0.4,0.4-1.3,1-1,1.3C323.4,36.3,324.3,35.7,324.8,35.3z M323.9,38.9
				c-0.9,0.1-1.6,0.2-2.1,0.2C322.3,39,323,39,323.9,38.9z M319.3,40.3L319.3,40.3L319.3,40.3z M324.1,38.9L324.1,38.9
				c-0.2,0.1-0.3,0.1-0.5,0.2C323.7,39,323.9,38.9,324.1,38.9z M322.2,41c0-0.5,0.2-0.8,1.3-0.8c0.6,0,0.7-0.5,0.9-0.9
				c0.7,0.3,0.9,1.2,1.8,1.3c0.5-0.1,1.1,0.1,1.6-0.2l0,0c-0.5,0.3-1.1,0.1-1.6,0.2c-1-0.1-1.1-0.9-1.8-1.3
				c-0.3,0.4-0.3,0.9-0.9,0.9C322.4,40.1,322.2,40.5,322.2,41z M322.9,44.1c0-0.1,0-0.2-0.1-0.3C322.9,43.9,322.9,44,322.9,44.1z
				 M335.9,48.8c-0.4-0.1-0.5,0-0.6,0.2C335.4,48.8,335.5,48.7,335.9,48.8c0.5,0.6,1,1.1,1.1,1.8C336.9,50,336.4,49.4,335.9,48.8z
				 M338.3,50.2C338.4,50.2,338.4,50.2,338.3,50.2C338.4,50.2,338.4,50.2,338.3,50.2c-0.5-0.7-0.7-1.5-1.7-1.9c-0.1,0-0.3,0-0.4,0.1
				c-0.8-0.5-1.7-0.3-2.6-0.2c0,0.1-0.1,0.2-0.1,0.2c0-0.1,0.1-0.1,0.1-0.2c-0.2-0.1-0.5,0-0.6,0.1c0.1-0.2,0.4-0.2,0.6-0.1
				c0.9-0.1,1.8-0.3,2.6,0.2c0.1,0,0.3,0,0.4-0.1l0,0C337.7,48.6,337.8,49.5,338.3,50.2z M339.1,37.6c-0.6,0.8-0.8,1.8-1.5,2.7
				c-0.4,0.5-0.4,0.9-0.1,1.1c-0.3-0.2-0.3-0.5,0.1-1.1C338.3,39.5,338.5,38.5,339.1,37.6c0.4-0.6,0.3-1.3,0-1.6
				C339.4,36.4,339.6,37.1,339.1,37.6z M339.6,34.7C339.6,34.8,339.6,34.8,339.6,34.7c0.2,0.2,0,0.7,0.3,0.9
				C339.6,35.5,339.8,35,339.6,34.7z"/>
			<path class="st0" d="M338.9,41.6c0,0.2,0,0.3,0,0.5c0.3-0.1,0.8-0.1,0.9-0.2c0.6-1.2,2-2.3,1.6-3.8
				C339.8,38.9,339.9,40.5,338.9,41.6z"/>
			<path class="st0" d="M324.2,23.1c0-0.1,0-0.2,0-0.3C324,22.9,324,23,324.2,23.1z"/>
		</g>
	</g>
</g>
<g id="banco">
	<rect x="234.5" y="35" width="117" height="29.4"/>
</g>
<path class="st1" d="M296.1,229.2c-61.4,0-122.7,0-184.1,0c-1.3,0-3,0.8-3.7-0.7c-0.8-1.7,0.3-3.2,1.2-4.9
	c4.8-8.7,9.2-17.5,13.8-26.3c6.3-12.3,12.6-24.6,19-36.8c6.5-12.5,13-24.9,19.5-37.4c8.8-17,17.6-34.1,26.3-51.2
	c1.5-2.9,3.2-4.1,6.4-4.1c68.1,0.1,136.2,0.1,204.4,0c3.4,0,5.1,1.4,6.7,4.6c6.6,13,13.6,25.8,20.3,38.7
	c6.6,12.8,13.1,25.8,19.8,38.6c5.1,10,10.6,19.7,15.5,29.8c6.7,13.7,14.1,27,21,40.6c0.6,1.3,1,2.9,2,3.8c1.1,1.1,1.8,2.3,1.1,3.7
	c-0.7,1.3-1.9,1.8-3.4,1.7c-5.9-0.1-11.8-0.1-17.7-0.1C408,229.2,352.1,229.2,296.1,229.2L296.1,229.2z M296.8,197.9
	c0,0.1,0,0.1,0,0.2c40.5,0,81,0,121.5-0.1c2,0,4.1,0.5,6.2-0.2c1.5-0.5,2.2-0.9,1.4-2.7c-4.6-11.7-9.1-23.5-13.9-35.2
	c-5.3-13.2-10.4-26.6-15.6-40c-5-12.6-9.6-25.3-14.6-37.9c-0.9-2.3-2-3.2-4.4-3.2c-53.8,0-107.5,0-161.2,0c-2.5,0-3.7,0.9-4.6,3.4
	c-3.9,10.6-8.5,20.8-12.3,31.5c-3.2,9-7.1,17.8-10.5,26.8c-6.4,16.6-12.6,33.2-19,49.7c-3,7.7-3.1,7.7,4.4,7.7
	C215.1,197.9,255.9,197.9,296.8,197.9z"/>
<path class="st2" d="M296.8,197.9c-40.9,0-81.7,0-122.6,0c-7.6,0-7.4,0-4.4-7.7c6.4-16.5,12.6-33.2,19-49.7
	c3.4-9,7.3-17.7,10.5-26.8c3.8-10.6,8.4-20.9,12.3-31.5c0.9-2.5,2.1-3.4,4.6-3.4c53.8,0.1,107.5,0.1,161.2,0c2.3,0,3.4,0.9,4.4,3.2
	c5,12.6,9.6,25.3,14.6,37.9c5.2,13.3,10.3,26.7,15.6,40c4.7,11.7,9.2,23.5,13.9,35.2c0.7,1.8,0,2.3-1.4,2.7
	c-2.1,0.7-4.1,0.2-6.2,0.2c-40.5,0.1-81,0.1-121.5,0.1C296.8,198,296.8,197.9,296.8,197.9z M243,147.7L243,147.7
	c5,0,10.1-0.1,15.1,0c2.3,0.1,3.5-0.3,3.8-3.3c1.3-11.5,2.7-23.1,4.2-34.6c0.4-3.2-1.2-3.2-3.2-3.2c-8.2,0-16.4,0.1-24.6,0
	c-2.5,0-3.8,1-4.3,3.7c-2.2,11.6-6.2,22.6-8.6,34.1c-0.6,2.9,0.1,3.3,2.3,3.3C232.6,147.7,237.8,147.7,243,147.7z M350.1,147.7
	L350.1,147.7c5.3,0,10.6,0,15.8,0c1.8,0,3.1-0.2,2.4-3c-3-11.3-5.8-22.6-8.6-34c-0.7-2.9-1.9-4.3-4.8-4.2c-7.7,0.2-15.5,0.1-23.2,0
	c-4,0-5.5,1.8-4.5,6.1c0.3,1.1,0.6,2.3,0.7,3.5c1.3,9.5,2.6,19,3.8,28.6c0.3,2.6,1.4,3,3.4,3C340.1,147.7,345.1,147.7,350.1,147.7z"
	/>
<path class="st3" d="M243,147.7c-5.1,0-10.3,0-15.4,0c-2.1,0-2.9-0.4-2.3-3.3c2.4-11.5,6.4-22.6,8.6-34.1c0.5-2.7,1.8-3.7,4.3-3.7
	c8.2,0.1,16.4,0.1,24.7,0c2,0,3.7,0,3.2,3.2c-1.5,11.5-3,23-4.2,34.6c-0.3,3-1.6,3.4-3.8,3.3C253,147.6,248,147.7,243,147.7
	L243,147.7z"/>
<path class="st3" d="M350.1,147.7c-5,0-10.1-0.1-15.1,0c-2,0-3.1-0.4-3.4-3c-1.1-9.5-2.5-19.1-3.8-28.6c-0.2-1.2-0.5-2.3-0.7-3.5
	c-1-4.3,0.5-6.1,4.5-6.1c7.7,0,15.5,0.1,23.2,0c2.9-0.1,4.1,1.3,4.8,4.2c2.8,11.3,5.6,22.7,8.6,34c0.7,2.8-0.6,3-2.4,3
	C360.7,147.8,355.4,147.7,350.1,147.7L350.1,147.7z"/>
<g>
	<path class="st4" d="M588.2,250.3c-0.3,0.5-0.2,1-0.5,1.4c-0.2,0.2-0.3,0.5-0.6,0.4s-0.2-0.4-0.2-0.5c0-1.3-0.1-2.6,0.2-3.9
		c0.2-0.8,0.9-1.4,1.1-2.2c0.5-1.7,0-3.4-0.5-5.1c-0.7-2.4-1.1-4.9-1.6-7.4c-0.2-1-0.2-2.1-0.7-3.1c-0.1-0.1-0.1-0.3-0.4-0.4
		c-0.1,1.2-0.9,2.3-0.4,3.6c0.6,1.7,0.8,3.4,0.3,5.2c0,0.1,0,0.3,0,0.4c1,1.4,0.8,2.7,0.2,4.2c-0.6,1.4-1.2,2.9-1.1,4.5
		c0.2,1.9-0.9,3.5-1.4,5.2c-0.2,0.9-0.5,1.7-0.9,2.5c-0.2,0.6-0.1,1.2-0.2,1.9c-0.2,1.3,0.3,2.4,0.6,3.6c0.3,1.5,0,3-0.3,4.5
		c-0.5,3.4-0.8,6.8-1.2,10.1c0,0.4,0,0.7-0.6,0.6c-0.4,0-0.5,0.2-0.5,0.5c-0.2,1-0.5,2.1-0.7,3.1c0,0.2,0,0.4,0.2,0.5
		c0.2,0.2,0.2,0.5,0.1,0.7c-0.5,2,0.1,3.9,0.3,5.9c0.1,0.5,0,1-0.9,1.1c-2.6,0.2-5.3,0.7-7.9,0.3c-0.4-0.1-1,0.1-1.1-0.5
		s0-1.3,0.7-1.5c2.3-1,3-2.7,3-4.9c0-0.7,0.8-1.2,0.3-1.9c-2.1-3.9-2.2-8.5-4-12.5c-0.5-1.2-0.4-2.4-0.5-3.6
		c-0.3-1.9-1.2-3.6-1.1-5.5c0-4.1-1.1-8-1.6-12c0-0.3,0-0.6-0.4-0.8c-0.8-0.3-0.8-0.9-0.8-1.5c0-1.4,0.3-2.8,0.2-4.1
		c0-0.7,0.3-1.3,0.7-1.9c0.9-1.4,1.3-2.9,0.3-4.5c-0.2-0.4-0.3-0.8-0.4-1.3c-0.1-0.4-0.2-0.7-0.7-0.6c-0.6,0-0.5,0.5-0.5,0.8
		c0.2,1.8-0.4,3.5-0.8,5.1c-0.3,1.3-0.8,2.5-1.3,3.7c-0.3,0.7-0.5,1.5-0.5,2.3c0,0.4,0.1,0.7,0.3,1c0.5,0.5,0.7,1,0.8,1.6
		c0.1,1,0.2,1.9,0.3,2.9c0,0.2,0.1,0.5-0.3,0.6c-0.3,0-0.6-0.2-0.7-0.4c-0.2-0.4-0.3-0.8-0.3-1.3c0-0.2,0-0.4-0.2-0.4
		c-0.3,0-0.3,0.2-0.4,0.4c-0.2,1,0.2,1.9,0.8,2.7c0.3,0.5,0.8,1.1,0.4,1.5c-0.4,0.3-1-0.3-1.4-0.6c-1.5-0.7-2.1-2-2.5-3.3
		c-0.3-0.9,0.2-1.9,0.3-2.8c0.1-1.9,0.4-3.8,0.2-5.7c-0.2-2.5,0-4.9,0.5-7.4c0.1-0.3,0.2-0.6,0.3-0.9c0.2-0.4,0.3-0.7-0.3-0.8
		c-0.3,0-0.4-0.1-0.3-0.5c0.8-2.6,1.3-5.3,1.9-7.9c0.6-2.8,2-5.4,5.2-6.6c1.2-0.5,2.4-1.1,3.3-2c0.1-0.1,0.2-0.2,0.4-0.2
		c1.7-0.4,2.4-1.5,1.6-2.9c-0.8-1.4-0.9-3-1.2-4.5v-0.1c1.1-1.1,0.3-2.3,0.3-3.5c0-0.9,1.2-2,2.2-2.2c0.5-0.1,1-0.2,1.5-0.4
		c1.2-0.5,2.8,0,3.6,1c0.3,0.4,0.9,0.6,1.1,1.2c0.5,1,0.8,2,0.5,3.1c-0.1,0.3-0.2,0.6,0.3,0.7c0.2,0,0.3,0.3,0.3,0.5
		c-0.2,0.9-0.1,1.9-1.2,2.4c0,0-0.1,0-0.2,0.1c-0.3,0.9-0.3,1.8-0.3,2.6s0.7,1.3,1.8,1.7c1.3,0.5,2.5,1.2,3.8,1.9
		c0.5,0.3,0.9,0.6,1.4,0.8c2.4,1.1,3.4,2.9,3.5,5.4c0.2,2.7,0.7,5.3,1,8c0,0.3,0.2,0.6-0.2,0.9c-0.3,0.2-0.2,0.7-0.1,1
		c0.7,2.9,0.8,5.8,0.8,8.7c-0.1,2.4,0.2,4.8,0.2,7.2c0,0.4,0.1,0.9,0.2,1.3c0.3,1.1,0.2,2.1,0.1,3.2c0,0.5-0.5,0.8-0.8,1.1
		c-0.8,0.9-1.7,1.7-2.9,2.1c-0.2,0-0.3,0.1-0.4,0c-0.2-0.2-0.1-0.4,0-0.5c0.3-0.7,0.8-1.3,0.9-2.1
		C588.3,251,588.4,250.7,588.2,250.3z"/>
</g>
<g>
	<path class="st4" d="M166.1,40.1c-0.1,0.3-0.1,0.6-0.2,0.8c-0.1,0.1-0.1,0.2-0.3,0.2s-0.1-0.2-0.1-0.3c0-0.7-0.1-1.4,0.1-2.1
		c0.1-0.4,0.4-0.8,0.5-1.2c0.2-1,0-1.9-0.2-2.8c-0.4-1.3-0.6-2.7-0.8-4.1c-0.1-0.6-0.1-1.1-0.3-1.7c0-0.1,0-0.2-0.2-0.2
		c-0.1,0.7-0.4,1.2-0.2,2c0.3,0.9,0.4,1.9,0.2,2.8c0,0.1,0,0.2,0,0.2c0.5,0.8,0.4,1.5,0.1,2.3c-0.3,0.8-0.6,1.6-0.6,2.5
		c0.1,1-0.4,1.9-0.7,2.9c-0.1,0.5-0.3,0.9-0.4,1.4c-0.1,0.3-0.1,0.7-0.1,1c-0.1,0.7,0.2,1.3,0.3,2c0.2,0.8,0,1.7-0.1,2.5
		c-0.3,1.9-0.4,3.7-0.6,5.6c0,0.2,0,0.4-0.3,0.3c-0.2,0-0.2,0.1-0.2,0.2c-0.1,0.6-0.2,1.1-0.4,1.7c0,0.1,0,0.2,0.1,0.3
		s0.1,0.3,0.1,0.4c-0.2,1.1,0,2.2,0.1,3.2c0,0.3,0,0.6-0.5,0.6c-1.3,0.1-2.6,0.4-3.9,0.1c-0.2,0-0.5,0.1-0.5-0.3
		c0-0.3,0-0.7,0.3-0.8c1.1-0.5,1.5-1.5,1.5-2.7c0-0.4,0.4-0.6,0.2-1.1c-1.1-2.2-1.1-4.6-2-6.9c-0.3-0.6-0.2-1.3-0.3-2
		c-0.1-1-0.6-2-0.6-3c0-2.2-0.6-4.4-0.8-6.6c0-0.2,0-0.4-0.2-0.4c-0.4-0.1-0.4-0.5-0.4-0.8c0-0.8,0.2-1.5,0.1-2.3
		c0-0.4,0.2-0.7,0.4-1.1c0.4-0.8,0.6-1.6,0.2-2.5c-0.1-0.2-0.1-0.5-0.2-0.7c0-0.2-0.1-0.4-0.4-0.4c-0.3,0-0.2,0.3-0.2,0.4
		c0.1,1-0.2,1.9-0.4,2.8c-0.2,0.7-0.4,1.4-0.6,2c-0.1,0.4-0.2,0.8-0.2,1.2c0,0.2,0,0.4,0.2,0.6c0.2,0.3,0.4,0.6,0.4,0.9
		c0.1,0.5,0.1,1.1,0.1,1.6c0,0.1,0,0.3-0.1,0.3c-0.2,0-0.3-0.1-0.3-0.2c-0.1-0.2-0.1-0.5-0.1-0.7c0-0.1,0-0.2-0.1-0.2
		s-0.2,0.1-0.2,0.2c-0.1,0.6,0.1,1,0.4,1.5c0.2,0.3,0.4,0.6,0.2,0.8s-0.5-0.2-0.7-0.3c-0.7-0.4-1-1.1-1.2-1.8
		c-0.1-0.5,0.1-1,0.1-1.5c0.1-1,0.2-2.1,0.1-3.1c-0.1-1.4,0-2.7,0.2-4.1c0-0.2,0.1-0.4,0.2-0.5c0.1-0.2,0.1-0.4-0.2-0.4
		c-0.1,0-0.2-0.1-0.1-0.3c0.4-1.4,0.6-2.9,0.9-4.4c0.3-1.5,1-2.9,2.6-3.6c0.6-0.3,1.2-0.6,1.7-1.1c0.1-0.1,0.1-0.1,0.2-0.1
		c0.9-0.2,1.2-0.8,0.8-1.6c-0.4-0.8-0.4-1.6-0.6-2.5l0,0c0.5-0.6,0.1-1.3,0.2-1.9c0-0.5,0.6-1.1,1.1-1.2c0.2,0,0.5-0.1,0.7-0.2
		c0.6-0.2,1.4,0,1.8,0.5c0.2,0.2,0.4,0.4,0.6,0.6c0.2,0.6,0.4,1.1,0.2,1.7c-0.1,0.2-0.1,0.4,0.2,0.4c0.1,0,0.1,0.2,0.1,0.3
		c-0.1,0.5-0.1,1.1-0.6,1.3h-0.1c-0.1,0.5-0.1,1-0.1,1.4c0,0.5,0.3,0.7,0.9,0.9c0.6,0.3,1.2,0.7,1.9,1c0.2,0.1,0.5,0.3,0.7,0.5
		c1.2,0.6,1.7,1.6,1.8,3c0.1,1.5,0.3,2.9,0.5,4.4c0,0.2,0.1,0.4-0.1,0.5c-0.1,0.1-0.1,0.4-0.1,0.6c0.4,1.6,0.4,3.2,0.4,4.8
		c0,1.3,0.1,2.6,0.1,4c0,0.2,0.1,0.5,0.1,0.7c0.2,0.6,0.1,1.2,0.1,1.8c0,0.3-0.2,0.5-0.4,0.6c-0.4,0.5-0.9,0.9-1.4,1.2
		c-0.1,0-0.1,0-0.2,0c-0.1-0.1,0-0.2,0-0.3c0.2-0.4,0.4-0.7,0.4-1.1C166.2,40.5,166.2,40.3,166.1,40.1z"/>
</g>
<g>
	<path class="st4" d="M36,247.5c-0.3,0.5-0.2,1-0.5,1.4c-0.2,0.2-0.3,0.5-0.6,0.4s-0.2-0.4-0.2-0.5c0-1.3-0.1-2.6,0.2-3.9
		c0.2-0.8,0.9-1.4,1.1-2.2c0.5-1.7,0-3.4-0.5-5.1c-0.7-2.4-1.1-4.9-1.6-7.4c-0.2-1-0.2-2.1-0.7-3.1c-0.1-0.1-0.1-0.3-0.4-0.4
		c-0.1,1.2-0.9,2.3-0.4,3.6c0.6,1.7,0.8,3.4,0.3,5.2c0,0.1,0,0.3,0,0.4c1,1.4,0.8,2.7,0.2,4.2c-0.6,1.4-1.2,2.9-1.1,4.5
		c0.2,1.9-0.9,3.5-1.4,5.2c-0.2,0.9-0.5,1.7-0.9,2.5c-0.2,0.6-0.1,1.2-0.2,1.9c-0.2,1.3,0.3,2.4,0.6,3.6c0.3,1.5,0,3-0.3,4.5
		c-0.5,3.4-0.8,6.8-1.2,10.1c0,0.4,0,0.7-0.6,0.6c-0.4,0-0.5,0.2-0.5,0.5c-0.2,1-0.5,2.1-0.7,3.1c0,0.2,0,0.4,0.2,0.5
		c0.2,0.2,0.2,0.5,0.1,0.7c-0.5,2,0.1,3.9,0.3,5.9c0.1,0.5,0,1-0.9,1.1c-2.6,0.2-5.3,0.7-7.9,0.3c-0.4-0.1-1,0.1-1.1-0.5
		s0-1.3,0.6-1.5c2.3-1,3-2.7,3-4.9c0-0.7,0.8-1.2,0.4-1.9c-2.1-3.9-2.2-8.5-4-12.5c-0.5-1.2-0.4-2.4-0.5-3.6
		c-0.3-1.9-1.2-3.6-1.1-5.5c0-4.1-1.1-8-1.6-12c0-0.3,0-0.6-0.4-0.8c-0.8-0.3-0.8-0.9-0.8-1.5c0-1.4,0.3-2.8,0.2-4.1
		c0-0.7,0.3-1.3,0.7-1.9c0.9-1.4,1.3-2.9,0.4-4.5c-0.2-0.4-0.3-0.8-0.4-1.3c-0.1-0.4-0.2-0.7-0.7-0.6c-0.6,0-0.5,0.5-0.5,0.8
		c0.2,1.8-0.4,3.5-0.8,5.1c-0.3,1.3-0.8,2.5-1.3,3.7c-0.3,0.7-0.5,1.5-0.5,2.3c0,0.4,0.1,0.7,0.3,1c0.5,0.5,0.7,1,0.8,1.6
		c0.1,1,0.2,1.9,0.3,2.9c0,0.2,0.1,0.5-0.3,0.6c-0.3,0-0.6-0.2-0.7-0.4c-0.2-0.4-0.3-0.8-0.3-1.3c0-0.2,0-0.4-0.2-0.4
		c-0.3,0-0.3,0.2-0.4,0.4c-0.2,1,0.2,1.9,0.8,2.7c0.3,0.5,0.8,1.1,0.4,1.5c-0.4,0.3-1-0.3-1.4-0.6c-1.5-0.7-2.1-2-2.5-3.3
		c-0.3-0.9,0.2-1.9,0.3-2.8c0.1-1.9,0.4-3.8,0.2-5.7c-0.2-2.5,0-4.9,0.5-7.4c0.1-0.3,0.2-0.6,0.3-0.9c0.2-0.4,0.3-0.7-0.3-0.8
		c-0.3,0-0.4-0.1-0.3-0.5c0.8-2.6,1.3-5.3,1.9-7.9c0.6-2.8,2-5.4,5.2-6.6c1.2-0.5,2.4-1.1,3.4-2c0.1-0.1,0.2-0.2,0.4-0.2
		c1.7-0.4,2.4-1.5,1.6-2.9s-0.9-3-1.2-4.5v-0.1c1.1-1.1,0.3-2.3,0.3-3.5c0-0.9,1.2-2,2.2-2.2c0.5-0.1,1-0.2,1.5-0.4
		c1.2-0.5,2.8,0,3.6,1c0.3,0.4,0.9,0.6,1.1,1.2c0.5,1,0.8,2,0.5,3.1c-0.1,0.3-0.2,0.6,0.3,0.7c0.2,0,0.3,0.3,0.3,0.5
		c-0.2,0.9-0.1,1.9-1.2,2.4c0,0-0.1,0-0.2,0.1c-0.3,0.9-0.3,1.8-0.3,2.6s0.7,1.3,1.8,1.7c1.3,0.5,2.5,1.2,3.8,1.9
		c0.5,0.3,0.9,0.6,1.4,0.8c2.4,1.1,3.4,2.9,3.5,5.4c0.2,2.7,0.7,5.3,1,8c0,0.3,0.2,0.6-0.2,0.9c-0.3,0.2-0.2,0.7-0.1,1
		c0.7,2.9,0.8,5.8,0.8,8.7c-0.1,2.4,0.2,4.8,0.2,7.2c0,0.4,0.1,0.9,0.2,1.3c0.3,1.1,0.2,2.1,0.1,3.2c0,0.5-0.5,0.8-0.8,1.1
		c-0.8,0.9-1.7,1.7-2.9,2.1c-0.2,0-0.3,0.1-0.4,0c-0.2-0.2-0.1-0.4,0-0.5c0.3-0.7,0.8-1.3,0.9-2.1C36.2,248.2,36.2,247.9,36,247.5z"
		/>
</g>
<path class="st5" d="M98.4,121c-0.8,0-1.3-0.3-1.4-1.2c-1.2,0-1.9,0.2-2.1,0.7c0.2-0.5,0.9-0.7,2.1-0.7c0.8-0.8-0.2-1.6,0.7-1.9
	c-0.2-0.2-0.5-0.5-0.4-0.9c-0.6,0-3.8,2.3-3.9,0c0.2,2.3,3.4,0,3.9,0c-0.2-1.2-0.4-2.4-0.6-3.6c-1.9-0.7-6.1,1.3-7.2-0.7
	c-1.5,0-1.4-2.4-3.1-2.3c-0.1-0.2-0.2-0.5-0.3-0.7c-0.3,0.3-0.9,2.4-0.8,2.5c-0.2-0.1,0.5-2.2,0.8-2.5c-0.7-1.4-1.2-2.3-1.7-3.8
	s-1.3-2.9-2.3-4.1l0,0c-0.1-0.4,0.3-1.9,0-2.1c-0.3,0-0.5,0.1-0.7,0.2c-0.4-0.1,0.7-1.2,0.7-1.3c-0.1-0.1-0.1-0.2-0.2-0.3
	c0.1,0.1,0.2,0.2,0.2,0.3c1.8,0.4,1.5-0.1,1.7-1.5c0.2-1.6,0.8-2.4-0.5-3.8c-0.1,0-1.4,2.1-1.4,0.7c0.1,1.3,1.4-0.7,1.4-0.7
	c0-0.2,0.1-0.3,0.1-0.5l0,0l0,0l0,0l0,0c-0.6-2.7-2.2-3.7-4.8-3.6c0,0.4,0.1,2.2,0.9,1.6c0,0.1-0.6,0-0.5,0.1
	c-0.6-0.2-0.4-1.2-0.4-1.6c-2.1-0.1-3.4,2.4-2.8,4.8l0,0c0.2,0.7,0.5,1.4,0.7,2.1l0,0c0,0.4,0,0.7,0.1,1.1c0.1,0.1,0.2,0.2,0.3,0.3
	c1.1,0.6,4.1,1.6,4.1,3.1c0-1.4-3.1-2.5-4.1-3l0,0c-0.1-0.1-0.2-0.2-0.3-0.3c-0.7,0.6-1,1.5-1.1,2.5c1.3,0.8,0.1,1.8,0.2,2.7
	c0.3,0.1,2.9,0.6,3.1,0.4c-0.1,0.2-2.8-0.4-3.1-0.4c-0.1,0-0.1,0-0.2,0c0.1,0,0.1,0,0.2,0c-0.2-0.9,1.1-1.9-0.2-2.7
	c-0.7,0.7-1,1.6-1.5,2.4l0,0c-0.8,1.4-1,3-1.1,4.6l0,0c-0.7,1.7,0.2,4.5,0.7,6.1c1.7-0.6-1.5-4.7,0.2-4.8l0,0
	c-1.7,0.2,1.5,4.3-0.2,4.8c0,0.2,0.1,0.4,0.2,0.6c0.3,0,0.5,0.2,0.7,0.4c-0.1-0.2-0.3-0.3-0.7-0.4c0.6,4.9,1.5,9.8,1.8,14.7
	c0.3,5-0.2,9.9-0.9,14.9l0,0c-0.3,1.6,0.8,1.6,0.9,0l0,0c1-3.7,0.7-8,2.2-11.5c1.4-0.6,3.1-0.6,4.6-0.6c0.1,0.1,0.2,0.1,0.3,0
	c0.2,0,0.4,0,0.5,0l0,0c0.2,0,0.4,0,0.6,0l0,0c0.8,0.2,1.5,0.7,2,1.5c0.6-0.7,0.1-1.1-0.3-1.5l0,0l0,0c0-0.1,0-0.2,0-0.3
	c0,0.1,0,0.2,0,0.3c0.4,0.4,1,0.8,0.3,1.5c0.2,1.4,0.4,2.8,0.6,4.2l0,0c0,0.2,0,0.4,0,0.6c0.1-0.1,0.4-0.1,0.4-0.2
	c0,0.1-0.4,0.2-0.4,0.3c0.1,1.6,0,4.9,1.1,6.2c1,1.3,1,0.2,0.8-0.8c-0.5-3.8-0.5-7.6-0.9-11.4c-0.2-0.2-0.4-0.6-0.7-0.8
	c0.2,0.2,0.4,0.6,0.7,0.8c0-1.1-0.9-3.8-0.1-4.5c0.9-0.8,2.6,0.2,2.3-1.8c1,0,4.4-1,4.3,0.6c1.7-0.1,2.5-0.9,2.5-2.4
	c0,1.6-0.8,2.3-2.5,2.4c-0.2,1.7-0.3,3.3-0.5,5c-0.1,1-0.9,3.6-0.1,4.4c-0.1,0.7-0.3,1.4-0.4,2.1c-0.4,0.6-0.2,1.4-0.8,1.8
	c0.9,0.2,1.8,0.6,2.6,0.6c-0.9,0-1.8-0.4-2.6-0.6c-0.7,1.1-0.7,2.3-0.6,3.5c0.2,0.5,0.6,0.7,1.1,0.6c0.7,0.2,1.3,0.2,2,0.1
	c0.2-0.6,0.5-0.8,0.8-0.8c-0.3,0-0.6,0.2-0.8,0.8c0.6-0.1,1.2-0.2,1.7-0.2c1,0.5,7.4,1.6,6.2-0.7c-0.4-0.8-2.1-0.6-2.8-1
	c-1.1-0.6-1.7-2.5-3.1-2.6c-0.2-0.5-0.3-1-0.5-1.5c0-0.5,0-0.9,0-1.4c-0.9-0.3-1.9,0.1-2.7-0.7l0,0c0.7,0.8,1.8,0.4,2.7,0.7
	c2.9-3.1,0.6-9.1,3.1-12.3c0.1-0.7-0.5-1.3-0.6-2C98.6,121.2,98.5,121.1,98.4,121z M93.8,114.7c0.2-0.1,0.5-0.4,0.7-0.1
	C94.2,114.2,93.9,114.6,93.8,114.7L93.8,114.7z M75.9,94c0.1-0.1,0.2-0.3,0.3-0.4C76.1,93.8,76.1,93.9,75.9,94z M87.4,122.8
	c-0.3,0.5-1.9,1.3-2.6,1.1C85.4,124.1,87,123.3,87.4,122.8L87.4,122.8z M87.4,114.6L87.4,114.6c-1.2,0.7-1.8,1.7-1.7,3
	C85.6,116.3,86.2,115.3,87.4,114.6z M84.8,113.1c0-0.4,0-0.8,0-1.2l0,0C84.8,112.3,84.8,112.7,84.8,113.1c0.2,0.1,0.3,0.3,0.3,0.6
	c0.1,0.1,0.2,0.2,0.3,0.3c0,0.2,0,0.4,0,0.6l0,0c0-0.2,0-0.4,0-0.6c-0.1-0.1-0.2-0.2-0.3-0.3c-0.1,0.2-0.1,0.5-0.2,0.7
	c0.1-0.2,0.2-0.4,0.2-0.7C85.1,113.5,85,113.3,84.8,113.1c-1.6-0.5-2.9,0.6-4.3,0.9l0,0C81.9,113.7,83.2,112.6,84.8,113.1z
	 M84.7,117c0,0.1,0,0.1,0,0.2C84.7,117.1,84.7,117,84.7,117z M83.6,118.4c0.1,0.9,0.6,1.6,0.6,2.5C84.3,120,83.6,119.2,83.6,118.4z
	 M84.2,121.1c0,0.4,0,0.9-0.1,1.3C84.2,121.9,84.2,121.5,84.2,121.1z M83.9,122.8L83.9,122.8L83.9,122.8L83.9,122.8z M83,120
	c0.3-0.2,0.3-0.4,0.3-0.7C83.3,119.5,83.3,119.8,83,120c-0.3-0.3-0.4-0.5-0.4-0.8C82.6,119.4,82.7,119.7,83,120z M83.3,118.7
	c0-0.3,0-0.5,0.3-0.7l0,0C83.4,118.2,83.3,118.4,83.3,118.7z M82.7,116.3c-0.3,0.2-0.5,0.4-0.5,0.8l0,0
	C82.2,116.7,82.4,116.5,82.7,116.3z M81.2,111.8c0,0,0.1,0.1,0.1,0.2l0,0C81.2,111.9,81.2,111.8,81.2,111.8z M84.4,110L84.4,110
	c-0.7,0.5-0.3,1.1-0.2,1.6c-0.9-0.1-1.7-0.7-2.6-0.6l0,0c-0.7-0.3-1.4-0.5-2.2-0.8l0,0c0.7,0.3,1.4,0.5,2.1,0.8
	c0.9-0.1,1.7,0.5,2.6,0.6C84.1,111.1,83.7,110.5,84.4,110z M81.7,103.8c0.4,0.4,0.7,0.8,0.7,1.4c-0.1-1.1-1.3-1.6-1.4-2.7
	C81.1,103,81.4,103.4,81.7,103.8z M80.9,101.9L80.9,101.9L80.9,101.9L80.9,101.9z M80.8,91.2c0.3,0.1,0.6,0.4,0.6,0.7
	c0-0.7-1.1-1.1-1.2-0.2C80.3,91.4,80.5,91.1,80.8,91.2z M78.7,94.4c-0.2,0.1-0.5,0.1-0.7,0.1C78.2,94.5,78.4,94.5,78.7,94.4
	c0.4-0.2,1.1-0.3,1.3-0.8C79.8,94.2,79,94.2,78.7,94.4L78.7,94.4z M79.5,96.5c0-0.2-0.1-0.3-0.3-0.3c0.4,0,0.5,1.4,1,1.8
	s1.1,0.1,1.6,0.4C80.7,97.7,79.5,98.5,79.5,96.5z M80.8,101.9L80.8,101.9c0-0.1-0.1-0.3-0.1-0.4C80.7,101.7,80.7,101.8,80.8,101.9z
	 M80.7,104.7L80.7,104.7L80.7,104.7c0.1,1.2,2,1.4,2,2.4C82.7,106,80.8,106,80.7,104.7c-0.4,0-0.6-0.2-0.6-0.6
	c-0.2-0.1-0.3-0.4-0.3-0.6l0,0c0,0.2,0.1,0.4,0.3,0.6l0,0l0,0C80.2,104.4,80.4,104.6,80.7,104.7z M80.8,108.5L80.8,108.5
	c-0.6-0.5-0.8-1.4-1.4-1.9C80,107,80.2,108,80.8,108.5z M79.4,105.8c0.1-0.2,0.3-0.5,0.3-0.9l0,0C79.7,105.3,79.6,105.5,79.4,105.8z
	 M77.6,99.2L77.6,99.2L77.6,99.2c1.1,0.6,1.6,1.9,2.7,2.5C79.2,101.1,78.6,99.8,77.6,99.2z M78.8,107.8L78.8,107.8L78.8,107.8
	C78.7,107.8,78.7,107.8,78.8,107.8z M78.4,107.7L78.4,107.7c0,0.1,0,0.2,0,0.3l0,0C78.4,107.9,78.4,107.8,78.4,107.7L78.4,107.7
	c-0.1-0.2-0.1-0.3-0.1-0.4C78.3,107.4,78.4,107.5,78.4,107.7z M78.1,107.9c0.1,0,0.2,0.1,0.3,0.1c0.5,1.1,2,0.8,2.5,1.9l0,0
	c-0.6-1-2-0.7-2.5-1.8C78.3,108,78.2,107.9,78.1,107.9L78.1,107.9z M77.7,115.8c-0.1,0.2,0,0.4,0.2,0.7c0.2,0,0.5,0.1,0.6,0.3
	c0.6,0,0.6,0.5,0.6,0.9c0.4,0.8,2.4,0.4,3.2,0.3c0.3-0.2,0.5-0.2,0.5-0.1c-0.1-0.2-0.2-0.2-0.5,0.1c0.1,0.5-0.9,3.5-2.1,2.9
	c1.2,0.4,2.1-2.3,2-2.9c-0.8,0.1-2.7,0.6-3.2-0.3c-0.4-0.2-0.6-0.5-0.6-0.9c-0.1-0.2-0.3-0.3-0.6-0.3l0,0
	C77.7,116.2,77.6,116,77.7,115.8z M81,123.5c0.1,0.2,0.2,0.3,0.3,0.5c-0.2,0.1-0.3,0.3-0.5,0.3c0.2-0.1,0.4-0.2,0.5-0.3
	C81.2,123.8,81.1,123.6,81,123.5z M76.4,118.9c0,0.1,0,0.2,0,0.3l0,0C76.4,119.1,76.4,119,76.4,118.9c1.5-1.2,2.6,0.5,3.9,0.5l0,0
	C79,119.4,77.9,117.7,76.4,118.9z M77.6,121.3L77.6,121.3c0,0.1,0,0.2,0,0.3C77.6,121.5,77.6,121.4,77.6,121.3L77.6,121.3z
	 M77.5,107.6c-0.8,0.2-1.2,0-1.7-0.7C76.5,106.9,76.9,107.2,77.5,107.6z M77,116.2c0.1,0.2,0.2,0.4,0.4,0.5
	c-0.7-0.1-1.3-1.5-2.2-1.7l0,0C76,115.1,76.6,115.6,77,116.2z M73.8,108.6L73.8,108.6c0-0.2,0-0.4,0-0.5l0,0
	C73.8,108.2,73.8,108.4,73.8,108.6z M74.1,105.9L74.1,105.9c-0.1,0-0.2-0.1-0.3-0.1C73.9,105.8,74,105.8,74.1,105.9L74.1,105.9z
	 M74.1,105.6L74.1,105.6c0.4,0,1-0.1,1.1,0.6l0,0C75.1,105.5,74.5,105.6,74.1,105.6z M74.4,114.6c0-0.1,0-0.1,0-0.2
	c0.3,1.4,0.6,2.8,0.9,4.2c0.6-0.1,0.6-0.4,0.6-0.8c0,0.4-0.1,0.7-0.6,0.8c0,0.8,0,1.6,0,2.4c0.3,0.1,0.4,0.3,0.5,0.5
	c-0.1-0.2-0.2-0.4-0.5-0.5l0,0c0-0.8,0-1.6,0-2.4C75,117.3,74.7,115.9,74.4,114.6z M85.7,129.6c0,0-2.9,0-3.2,0.1l0,0
	c-0.3,0-0.6,0.1-0.9,0.1c0.5,0.9,1.3,0.3,2,0.4l0,0c-0.7-0.1-1.4,0.6-2-0.4c-0.4,0-0.8,0-1.1,0.1c-1,0.6-2.1,0.7-3.2,1l0,0l0,0
	c-0.3-0.2-0.3-0.5-0.3-0.8c-0.1-0.1-0.1-0.1-0.1-0.2c0,0.1,0,0.1,0.1,0.2c1.1-0.7,2.3-0.5,3.5-0.2c1.2-0.1,2.4-0.5,3.5-0.5
	s2,0.7,2-1C85.9,128.9,85.9,129.2,85.7,129.6z M87,134.9c-0.6-0.5-0.7-1.1-0.7-1.7C86.2,133.8,86.3,134.4,87,134.9
	c0.2-1,0.3-1.8-0.7-2.3C87.3,133.1,87.1,133.9,87,134.9z M81.7,125.8c-0.1,0.3-0.2,0.6-0.3,0.9C81.4,126.4,81.5,126.1,81.7,125.8
	c-0.3,0-0.6,0-0.9,0c-1,0.7-2,0.3-2.9-0.3c-1-0.3-1.7-0.9-1.8-2.1c-0.7-0.5-0.8-1.1-0.8-1.8c0,0.7,0.1,1.3,0.8,1.8
	c-0.1-0.1-0.1-0.3-0.1-0.4c0,0.1,0.1,0.3,0.1,0.4c0.1,1.2,0.8,1.8,1.8,2.1l0,0c0.9,0.6,1.9,1,2.9,0.3c-0.7-0.6-1.6,0.1-2.3-0.6
	c-0.2-0.3-0.4,0-0.6,0l0,0c-1.6-1.4-1.1-3.4-1.3-5.3c0.2,1.8-0.3,3.8,1.3,5.3c0.2,0,0.4-0.3,0.6,0c0.2-0.2,0.4-0.4,0.6-0.6l0,0l0,0
	c-0.2,0.2-0.4,0.4-0.6,0.6c0.6,0.7,1.6-0.1,2.3,0.6C81,125.8,81.4,125.8,81.7,125.8c1.9-0.5,3.9-0.3,5.8-0.6
	C85.5,125.5,83.6,125.3,81.7,125.8z M92,117.6c-0.9,1.3-2.2,2.2-2.9,3.6c0.2,0.1,1.9,0.9,1.9,0.9c0.1,0-1.8-0.9-1.9-0.9l0,0
	C89.8,119.8,91.1,118.9,92,117.6c0.9,0.6,1.3,2,3,1.4l0,0C93.3,119.7,92.9,118.2,92,117.6z"/>
<polygon class="st5" points="98.3,121 98.4,121 98.4,121 "/>
<path class="st5" d="M84.2,111.6L84.2,111.6L84.2,111.6L84.2,111.6z"/>
<path class="st5" d="M91.2,113.6c1.8,0,3.6-0.8,5.4-0.1c0-1.5-0.8-2.4-2-3l0,0c-1.6-1.4-3.9,0.9-4.8,2l0,0c-0.2,0.1-0.3,0.2-0.4,0.4
	C89.8,113.5,90.2,113.6,91.2,113.6z M93.7,111.7c-0.1-0.1-0.2-0.3-0.3-0.4C93.5,111.4,93.6,111.5,93.7,111.7z"/>
<path class="st5" d="M101.5,119.1L101.5,119.1c-0.9,0-1.7,0-2.6,0l0,0c-0.4-0.4-0.9-0.8-1.3-1.2c-0.9,0.3,0.1,1.1-0.7,1.9
	c0.1,0.9,0.6,1.2,1.5,1.2c-0.2-0.2-0.2-0.4-0.2-0.6c0,0.2,0.1,0.4,0.2,0.6l0,0c0.1,0.1,0.2,0.2,0.3,0.3c0,0.7,0.6,1.2,0.6,2
	c1.4,0.4,2-1.3,3.2-1.4l0,0C104.7,121.2,103.8,118.6,101.5,119.1z"/>
<path class="st5" d="M77.5,107.6c-0.6-0.4-1-0.7-1.7-0.7C76.3,107.6,76.7,107.8,77.5,107.6z"/>
<path class="st5" d="M77.3,131c1.1-0.3,2.2-0.5,3.2-1c-1.2-0.3-2.4-0.4-3.5,0.2C77,130.5,77,130.8,77.3,131z"/>
<path class="st5" d="M79,117.7c0-0.4,0-0.9-0.6-0.9C78.4,117.2,78.6,117.5,79,117.7z"/>
<path class="st0" d="M498.2,125.9L498.2,125.9L498.2,125.9z"/>
<path class="st0" d="M505.7,118.5c0.9,0,1.5-0.1,1.9-0.8c-0.2-0.1-0.3-0.2-0.5-0.4l0,0c-1-1.1-3.3-3.4-5-2v0.1v-0.1
	c-1.2,0.6-2.1,1.5-2,3C502,117.7,503.9,118.4,505.7,118.5z M502.1,115.7c0,0.2,0,0.4,0,0.6C502.1,116.1,502.1,115.9,502.1,115.7z"/>
<path class="st0" d="M525,112L525,112c0-0.1,0-0.2-0.1-0.3l0,0c0-1.6-0.3-3.2-1.1-4.6l0,0c-0.5-0.8-0.9-1.7-1.6-2.3l0,0
	c-0.1-0.9-0.4-1.8-1.2-2.5l0,0c0-0.4,0-0.7,0.1-1.1l0,0c0.2-0.7,0.5-1.4,0.7-2.1l0,0c0.6-2.3-0.7-4.9-2.9-4.8
	c-0.1,1.1-0.4,2.3-1.2,0.9c0.8,1.3,1.1,0.2,1.2-0.9c-2.7-0.1-4.4,0.8-5,3.6l0,0l0,0l0,0l0,0c0.1,0.2,0.1,0.3,0.2,0.5
	c-0.1,0,1.7,2.1,1.4,0.6c0.4,1.5-1.6-0.7-1.4-0.6c-1.3,1.4-0.7,2.2-0.5,3.8c0.2,1.4-0.1,1.9,1.7,1.5c0.1-0.1,0.2-0.2,0.2-0.2
	c-0.1,0.1-0.1,0.2-0.2,0.2c0,0.1,1.2,1.2,0.8,1.3c-0.2-0.1-0.5-0.2-0.8-0.2c-0.3,0.2,0.1,1.7,0,2.1c0.4,0,0.8,0.1,1.2,0l0,0
	c-0.1,0-0.2,0-0.3,0c0.2,1.6-1.9,2.2-1.4,3.8l0,0c-0.5-1.6,1.6-2.2,1.4-3.8c-0.3,0-0.6,0-1,0c-1.1,1.2-1.9,2.5-2.4,4.1
	c-0.5,1.5-1,2.4-1.7,3.8l0,0c-0.1,0.2-0.2,0.5-0.3,0.7l0,0c-1.7-0.1-1.7,2.3-3.2,2.3c-1.2,2-5.5-0.1-7.5,0.7
	c-0.2,1.2-0.4,2.4-0.7,3.6l0,0l0,0c0,0.4-0.2,0.6-0.4,0.9l0,0c-0.5,0.4-0.9,0.8-1.4,1.2l0,0c-0.9,0-1.8,0-2.7,0l0,0
	c-2.3-0.5-3.3,2-0.9,2.7l0,0c1.2,0.1,1.8,1.8,3.3,1.4c-0.1-0.7,0.6-1.3,0.6-2c0.1-0.1,0.2-0.2,0.3-0.3c0.8,0,1.4-0.3,1.5-1.2l0,0
	c1.6,0,2.3,0.3,2.3,1.1c0-0.9-0.7-1.1-2.3-1.1c-0.1,0.9-0.7,1.2-1.5,1.2c-0.1,0.1-0.2,0.2-0.3,0.3c0,0.7-0.7,1.2-0.6,2
	c2.5,3.2,0.2,9.3,3.2,12.3l0,0c0,0.5,0,0.9,0,1.4c-0.2,0.5-0.4,1-0.5,1.5c0.1,0.2,0.3,0.3,0.4,0.4c-0.1-0.1-0.3-0.3-0.4-0.4
	c-1.5,0.1-1.8,1.8-2.9,2.5c-0.8,0.5-2.8,0.3-3.3,1.2c-1.3,2.3,5.6,1.2,6.5,0.7c0.6,0.1,1.2,0.2,1.8,0.2c-0.2-0.5-0.5-0.8-0.8-0.8
	c0.3,0,0.6,0.2,0.8,0.8c0.7,0.1,1.4,0.1,2.1-0.1l0,0c0.5,0,0.9-0.1,1.1-0.6c0.1-1.2,0.1-2.4-0.6-3.5c-0.6-0.4-0.5-1.3-0.8-1.8
	c-0.1-0.7-0.3-1.4-0.4-2.1l0,0c0.7-0.7,0-3.5-0.1-4.4c-0.2-1.7-0.3-3.3-0.5-5c-1.3-0.1-2.1-0.5-2.4-1.3c0.4,0.8,1.1,1.2,2.4,1.3
	c-0.1-1.6,3.5-0.6,4.4-0.6c-0.4,2.2,2.5,1,2.8,2.8c0.1,1-0.5,3-0.5,4c-0.1,1.5-0.2,3-0.2,4.5c0,1.3-0.1,2.6-0.2,4
	c-0.1,0.6-1,3.1-0.7,3.6c0.7,1.3,1.3-0.7,1.4-1.2c0.5-1.7,0.7-3.4,0.8-5.2l0,0c0-0.2,0-0.4,0-0.6l0,0c0.2-1.4,0.4-2.8,0.6-4.2l0,0
	c0.5-0.8,1.2-1.2,2.1-1.4l0,0c0.2,0,0.4,0,0.6,0l0,0c0.2,0,0.4,0,0.6,0c0.1,0.1,0.2,0.1,0.3,0c1.6,0,3.3,0,4.8,0.6l0,0
	c1.6,3.5,1.3,7.8,2.3,11.5l0,0c0.1,1.6,1.3,1.5,1,0l0,0c-0.7-4.9-1.3-9.9-0.9-14.9c0.4-4.9,1.3-9.8,1.9-14.7c-0.4,0-0.7,0.2-0.8,0.5
	c0.1-0.3,0.3-0.5,0.8-0.6c0-0.2,0.1-0.4,0.1-0.6l0,0C524.8,115.9,525.2,114,525,112z M498.2,125.9L498.2,125.9L498.2,125.9
	L498.2,125.9z M497.6,124c0.2,0.4,0.8,0.8,0.8,1.3C498.4,124.8,497.8,124.5,497.6,124z M499.4,123.3c0.1-0.2,0.1-0.3,0.1-0.3
	c0.3,0.3-0.5,1,0.2,1.7C499.3,124.3,498.9,123.9,499.4,123.3z M502.3,119.5L502.3,119.5L502.3,119.5L502.3,119.5z M500.5,122.5
	L500.5,122.5c0.6,0.5,3,0.6,3.1-0.6C503.5,123.2,501.1,123,500.5,122.5z M504.8,122.6c-1,0.6-1.4,2-3.1,1.4c0.3,0.3,4,3.2,4.1,3.1
	s0.1-0.2,0.2-0.4c-0.1,0.1-0.1,0.2-0.2,0.4c-0.1,0.1-3.9-2.8-4.1-3.1C503.5,124.6,503.9,123.1,504.8,122.6c0-1-1.2-3.1-2.3-3.2
	C503.6,119.5,504.8,121.7,504.8,122.6c0.6,0.8,1.4,1.5,2,2.2C506.2,124,505.4,123.4,504.8,122.6z M522.2,104.7
	c-1.3,0.8-0.1,1.7-0.2,2.6C522,106.5,520.9,105.5,522.2,104.7z M522,107.4c0.1,0,0.2,0,0.2,0C522.1,107.4,522,107.4,522,107.4
	c-0.6,0.2-1.3,0-1.9,0.2c-0.3,0.1-0.8,0.5-1.1,0.4C519.2,108.1,521.6,107.5,522,107.4z M521.6,121.7L521.6,121.7
	c0-0.1,0.1-0.2,0.1-0.2C521.7,121.5,521.6,121.6,521.6,121.7z M521.6,122.2c0-0.1,0-0.1,0-0.2l0,0c0-0.1,0-0.2,0-0.3l0,0
	c0,0.1,0,0.2,0,0.3C521.6,122,521.6,122.1,521.6,122.2z M521.7,116.4c0.1-0.1,0.1-0.1,0.2-0.2l0,0
	C521.8,116.3,521.8,116.3,521.7,116.4z M517,124.3c0,0.2,0,0.3,0.1,0.4C517,124.6,516.9,124.5,517,124.3c1.4,0,2.5-1.7,4-0.6l0,0
	C519.5,122.6,518.3,124.3,517,124.3z M519.5,130.1L519.5,130.1L519.5,130.1c-0.2,0-0.4-0.3-0.6,0c-0.2-0.2-0.4-0.4-0.6-0.6l0,0
	c0.2,0.2,0.4,0.4,0.6,0.6C519.1,129.8,519.3,130.1,519.5,130.1z M514.5,122.9c0-0.3,0.2-0.4,0.6-0.1c0.6,0,2.4,0.4,2.8,0.2
	c-0.5,0.2-2.3-0.2-2.8-0.2l0,0C514.7,122.6,514.5,122.7,514.5,122.9z M512.9,125.8c-0.1-0.9,0.6-1.7,0.6-2.5
	C513.5,124.1,512.8,124.9,512.9,125.8z M513.2,127.7L513.2,127.7c-1-0.1-0.2,1.3-1.7,1C513,129,512.2,127.6,513.2,127.7z
	 M516.8,118.9c0-0.1,0.1-0.2,0.1-0.3C516.9,118.7,516.9,118.8,516.8,118.9L516.8,118.9c-1.5-0.3-2.8-1.4-4.5-0.9
	c-0.1,0.1-0.2,0.1-0.2,0.2c0-0.1,0.1-0.2,0.2-0.3c0-0.2,0-0.4,0-0.6c0,0.2,0,0.4,0,0.6C514,117.5,515.3,118.6,516.8,118.9z
	 M515.9,116.8c0.1-0.1,0.2-0.2,0.2-0.3C516.1,116.6,516.1,116.7,515.9,116.8C515.9,116.9,515.9,116.9,515.9,116.8z M513.5,122.9
	L513.5,122.9L513.5,122.9L513.5,122.9c0.2,0.2,0.3,0.4,0.3,0.7C513.8,123.3,513.8,123.1,513.5,122.9z M514.2,124.9
	c0.6-0.5,0.5-1,0.4-1.6C514.7,123.9,514.7,124.4,514.2,124.9c-0.3-0.2-0.3-0.4-0.3-0.7C513.8,124.4,513.9,124.7,514.2,124.9z
	 M516.7,125.6c0.4,0.2,0.8,0.2,0.6-0.5c0.5,1.4-1.1,0.2-1.3,0C516.2,125.3,516.4,125.4,516.7,125.6z M516.9,129.4
	c-0.1,0-0.2-0.1-0.4-0.1C516.7,129.3,516.8,129.4,516.9,129.4z M517.7,129.5c-0.3,0-0.5,0-0.8-0.1
	C517.2,129.5,517.4,129.5,517.7,129.5z M516.4,113.1c0-0.2,0.1-0.3,0.1-0.5C516.4,112.8,516.4,112.9,516.4,113.1z M518.9,112.6
	c-0.1,0-0.2,0.1-0.4,0.1l0,0C518.6,112.7,518.8,112.6,518.9,112.6z M518.9,112.6L518.9,112.6L518.9,112.6L518.9,112.6z M518.9,112.6
	c0.1-0.2,0.1-0.4,0.1-0.6C519,112.2,519,112.4,518.9,112.6L518.9,112.6z M516.9,106.7c1.2-0.6,1.8-1.9,2.9-2.6l0,0l0,0
	C518.7,104.8,518.1,106.2,516.9,106.7z M519.7,120.7c0.1,0.2,0,0.4-0.2,0.7c0.2,0.2,0.3,0.2,0.4,0.2c-0.1,0-0.2,0-0.4-0.2
	c-0.2,0-0.4,0-0.5,0.1c0.1-0.1,0.3-0.2,0.5-0.2C519.7,121.1,519.7,120.9,519.7,120.7z M518.9,120.1L518.9,120.1
	c0.4-0.7,0.9-1.4,1.4-2C519.8,118.7,519.3,119.4,518.9,120.1z M518.3,122.6c0-0.4,0-0.9,0.6-0.9l0,0l0,0
	C518.3,121.7,518.3,122.1,518.3,122.6L518.3,122.6L518.3,122.6z M520.7,102.6L520.7,102.6c-1,0.5-3.6,1.4-4.1,2.5
	C517.1,104,519.8,103.1,520.7,102.6L520.7,102.6z M518.7,101.2c0.1,0,0.1,0,0.2-0.1C518.8,101.1,518.7,101.1,518.7,101.2
	L518.7,101.2z M517.4,98.7c0.3,0.5,0.8,0.4,1.2,0.6c0.5,0.2,0.8,0.1,1.2-0.1c-0.3,0.2-0.7,0.2-1.2,0.1c0,0.4,0.6,1.5,0.4,1.7
	c0.3-0.2-0.4-1.3-0.4-1.7c-0.3-0.2-1.2-0.3-1.3-0.8C517.3,98.6,517.4,98.6,517.4,98.7z M515.8,96.8c0-0.7,1.2-1.1,1.3-0.2
	C516.9,95.8,515.8,96.1,515.8,96.8z M516.4,103.2c1.4-0.3,0.7-1.4,1.5-2C517.1,101.9,517.9,102.9,516.4,103.2z M515.4,111
	c0.6-0.3,1.1-0.7,1.1-1.4l0,0l0,0c0.4,0,0.6-0.2,0.6-0.6l0,0l0,0c0.2-0.1,0.3-0.3,0.3-0.6l0,0c0,0.2-0.1,0.5-0.3,0.6
	c0,0.4-0.2,0.6-0.6,0.6c-0.1,1.3-2,1.3-2.1,2.4C514.5,111.5,514.9,111.2,515.4,111z M512.9,116.5c0.9-0.1,1.7-0.7,2.7-0.6
	c0.7-0.3,1.5-0.5,2.3-0.8l0,0c-0.8,0.3-1.5,0.6-2.3,0.8v0.1v-0.1C514.7,115.8,513.8,116.4,512.9,116.5L512.9,116.5z M512.7,114.9
	C512.8,114.9,512.8,115,512.7,114.9L512.7,114.9c-0.6,0.6-0.3,1.3-0.3,1.9l0,0c-0.2,0.1-0.4,0.4-0.5,0.3c0.1,0,0.3-0.2,0.5-0.3
	C512.4,116.2,512.1,115.4,512.7,114.9z M509.7,123.3c2.2-1.1-1-2.5-0.1-3.8c0-0.1,0-0.2,0-0.3c-0.2-0.2-0.4-0.3-0.7-0.5
	c0.2,0,0.4-0.1,0.7-0.1c0-0.5,0.2-0.9,0.4-1.2c-0.2,0.4-0.4,0.8-0.4,1.2c0.7,0.1,1.4,0.2,2.1,0.3c0.1-0.1,0.2-0.2,0.3-0.3l0,0
	c-0.1,0.1-0.2,0.2-0.3,0.3l0,0c-0.7-0.1-1.4-0.2-2.1-0.3c-0.2,0-0.4,0.1-0.7,0.1c0.2,0.2,0.4,0.3,0.7,0.5c0.7,0.1,1.4,0.2,2.1,0.3
	c0,0.9,1,1.3,1.2,2.1l0,0c-0.2,0-0.6,0.1-0.5,0.4c-0.1-0.3,0.3-0.4,0.5-0.4c-0.2-0.8-1.2-1.2-1.2-2.1c-0.7-0.1-1.4-0.2-2.1-0.3
	c0,0.1,0,0.2,0,0.3l0,0c-0.7,1,1.3,2,0.7,3.3c-0.3,0.6-1.1,0.8-1.5,1.4c-0.3,0.6-0.4,1.3-0.7,1.9c0.2,0.5,0.9,0.8,0.9,1.5l0,0l0,0
	c0-0.7-0.7-0.9-0.9-1.5l0,0C508.6,125.2,508.5,123.9,509.7,123.3z M510.1,139.8c-0.1-0.4-0.1-0.7-0.1-1
	C509.9,139.1,510,139.4,510.1,139.8c0.7-0.6,0.7-1.1,0.7-1.7C510.8,138.7,510.7,139.3,510.1,139.8z M511.7,135.9
	c-0.2,0.2-0.5,0.4-0.6,0.6C511.3,136.3,511.5,136.1,511.7,135.9L511.7,135.9c0.2-0.1,0.4-0.1,0.4-0.2
	C512.1,135.8,511.9,135.8,511.7,135.9z M512.4,134.5c-1.5,0.6-1.5-1.5-1.1-2.5c-1,3.3,1.4,2.1,3.4,2.6l0,0
	C513.9,134.5,513.2,134.2,512.4,134.5z M520.1,135.9c0.2-0.1,0.2-0.2,0.3-0.3C520.3,135.7,520.3,135.8,520.1,135.9
	c0,0.1,0,0.1,0,0.1C520.1,135.9,520.1,135.9,520.1,135.9c-1.1-0.3-2.3-0.4-3.3-1c-0.4,0-0.8,0-1.2-0.1c-0.6,1-1.4,0.3-2.1,0.4l0,0
	c0.7-0.1,1.5,0.5,2-0.4c0.4,0,0.8,0,1.2,0.1c1.2-0.3,2.4-0.4,3.6,0.2c-1.2-0.7-2.4-0.5-3.6-0.2C517.8,135.4,519,135.6,520.1,135.9z
	 M520.4,135.1L520.4,135.1L520.4,135.1c0.1-0.1,0.1-0.1,0.1-0.2C520.5,135,520.5,135,520.4,135.1z M519.5,130.4c-1,0.6-1.9,1-3,0.3
	c-0.3,0-0.6,0-0.9,0c-2.6-0.6-5.4-0.2-8-0.9l0,0c2.6,0.8,5.4,0.3,8,0.9c0.3,0,0.6,0,0.9,0C517.6,131.4,518.5,131,519.5,130.4
	L519.5,130.4c0.9-0.3,1.6-0.8,1.8-1.7C521.1,129.7,520.4,130.2,519.5,130.4z M522.2,125.9c-1.1,0.6-0.4,1.7-0.8,2.5
	c0.1-0.1,0.2-0.2,0.3-0.2c-0.1,0.1-0.2,0.2-0.3,0.3l0,0C521.8,127.6,521.1,126.4,522.2,125.9L522.2,125.9z M522.2,121.1
	c0.1-0.4,0-0.8,0-1.2C522.1,120.3,522.3,120.7,522.2,121.1z M523.4,110.5L523.4,110.5c-0.3,0-0.6,0-0.8,0.1
	C522.8,110.5,523.1,110.5,523.4,110.5z M523.4,110.8c-0.3,0-0.5,0.4-0.8,0.5C522.9,111.2,523.1,110.8,523.4,110.8L523.4,110.8
	c0.1,0,0.2-0.1,0.3,0C523.6,110.7,523.5,110.7,523.4,110.8z M523.7,112.9c0,0.2,0,0.4,0,0.6l0,0
	C523.7,113.3,523.7,113.1,523.7,112.9L523.7,112.9z M524.5,113.8c-0.2,0.9-1.1,2.6-0.8,3.6C523.4,116.4,524.3,114.6,524.5,113.8
	C524.5,113.7,524.5,113.7,524.5,113.8z"/>
<line class="st6" x1="172.3" y1="194.1" x2="422" y2="193.4"/>
<line class="st6" x1="421" y1="188.8" x2="422.1" y2="198.2"/>
<line class="st7" x1="169.8" y1="190.2" x2="424" y2="190.2"/>
<line class="st8" x1="34.4" y1="270.7" x2="558.5" y2="271.7"/>
<line class="st7" x1="175.3" y1="197.2" x2="218.1" y2="79.3"/>
<line class="st9" x1="451.6" y1="133.3" x2="455" y2="136.5"/>
<line class="st9" x1="458.3" y1="133.3" x2="455" y2="136.5"/>
<text transform="matrix(1 0 0 1 277.4209 278.7931)" class="st10 st11">10 a 12 metros</text>
<text transform="matrix(0.2913 -0.8734 0.9486 0.3164 178.2794 184.2676)" class="st12 st10 st13">8 metros</text>
<circle class="st14" cx="517.7" cy="120.1" r="3.8"/>
<circle class="st14" cx="433.1" cy="26.6" r="3.7"/>
<circle class="st14" cx="296.5" cy="35.3" r="3.8"/>
<circle class="st14" cx="82.6" cy="117.2" r="3.8"/>
<circle class="st14" cx="160.1" cy="25.2" r="3.8"/>
<circle class="st14" cx="23.1" cy="222" r="3.8"/>
<text transform="matrix(0.9207 -2.435404e-03 2.645235e-03 1 399.4269 189.3335)" class="st12 st10 st13">8 metros</text>
<line class="st8" x1="178.3" y1="57.7" x2="58.2" y2="270.7"/>
<text transform="matrix(0.4909 -0.8712 0.8712 0.4909 103.7613 184.2694)" class="st10 st11">10 a 12 metros</text>
<circle class="st14" cx="575.2" cy="229.4" r="3.8"/>
<text transform="matrix(1 0 0 1 516.1744 121.6405)" class="st10 st11">1</text>
<text transform="matrix(1 0 0 1 158.6094 26.4)" class="st10 st11">2</text>
<text transform="matrix(1.0001 0 0 1 431.5957 28.5098)" class="st10 st15">3</text>
<text transform="matrix(1 0 0 1 21.5636 223.7907)" class="st10 st11">4</text>
<text transform="matrix(1 0 0 1 573.6134 231.387)" class="st10 st11">5</text>
<text transform="matrix(1 0 0 1 295.4582 37.4769)" class="st10 st11">7</text>
<text transform="matrix(1 0 0 1 80.8606 119.4999)" class="st10 st11">1</text>
<line class="st8" x1="362.3" y1="59.7" x2="413.3" y2="59.7"/>
<g>
	<path class="st4" d="M439,40.8c-0.1,0.3-0.1,0.6-0.2,0.8c-0.1,0.1-0.1,0.2-0.3,0.2c-0.2,0-0.1-0.2-0.1-0.3c0-0.7,0-1.4,0.1-2.1
		c0.1-0.4,0.4-0.8,0.5-1.2c0.2-1,0-1.9-0.2-2.8c-0.4-1.3-0.6-2.7-0.8-4c-0.1-0.6-0.1-1.1-0.3-1.7c0-0.1,0-0.2-0.2-0.2
		c-0.1,0.7-0.4,1.2-0.2,2c0.3,0.9,0.4,1.9,0.2,2.8c0,0.1,0,0.2,0,0.2c0.5,0.8,0.4,1.5,0.1,2.3s-0.6,1.6-0.5,2.5
		c0.1,1-0.4,1.9-0.7,2.9c-0.1,0.5-0.3,0.9-0.4,1.4c-0.1,0.3-0.1,0.7-0.1,1c-0.1,0.7,0.2,1.3,0.3,2c0.2,0.8,0,1.7-0.1,2.5
		c-0.3,1.9-0.4,3.6-0.6,5.5c0,0.2,0,0.4-0.3,0.3c-0.2,0-0.2,0.1-0.2,0.2c-0.1,0.6-0.2,1.1-0.4,1.7c0,0.1,0,0.2,0.1,0.3
		s0.1,0.3,0.1,0.4c-0.2,1.1,0,2.2,0.1,3.2c0,0.3,0,0.6-0.5,0.6c-1.3,0.1-2.6,0.4-3.8,0.1c-0.2,0-0.5,0.1-0.5-0.3
		c0-0.3,0-0.7,0.3-0.8c1.1-0.5,1.5-1.5,1.5-2.7c0-0.4,0.4-0.6,0.2-1.1c-1-2.2-1.1-4.5-2-6.8c-0.3-0.6-0.2-1.3-0.3-2
		c-0.1-1-0.6-2-0.6-3c0-2.2-0.5-4.3-0.8-6.5c0-0.2,0-0.4-0.2-0.4c-0.4-0.1-0.4-0.5-0.4-0.8c0-0.8,0.2-1.5,0.1-2.3
		c0-0.4,0.2-0.7,0.4-1.1c0.4-0.8,0.6-1.6,0.2-2.5c-0.1-0.2-0.1-0.5-0.2-0.7c0-0.2-0.1-0.4-0.4-0.4s-0.2,0.3-0.2,0.4
		c0.1,1-0.2,1.9-0.4,2.8c-0.2,0.7-0.4,1.4-0.6,2c-0.1,0.4-0.2,0.8-0.2,1.2c0,0.2,0,0.4,0.2,0.6c0.2,0.3,0.4,0.6,0.4,0.9
		c0.1,0.5,0.1,1.1,0.1,1.6c0,0.1,0,0.3-0.1,0.3c-0.2,0-0.3-0.1-0.3-0.2c-0.1-0.2-0.1-0.5-0.1-0.7c0-0.1,0-0.2-0.1-0.2
		s-0.2,0.1-0.2,0.2c-0.1,0.6,0.1,1,0.4,1.5c0.2,0.3,0.4,0.6,0.2,0.8c-0.2,0.2-0.5-0.2-0.7-0.3c-0.7-0.4-1-1.1-1.2-1.8
		c-0.1-0.5,0.1-1,0.1-1.5c0.1-1,0.2-2.1,0.1-3.1c-0.1-1.4,0-2.7,0.2-4c0-0.2,0.1-0.4,0.2-0.5c0.1-0.2,0.1-0.4-0.2-0.4
		c-0.1,0-0.2-0.1-0.1-0.3c0.4-1.4,0.6-2.9,1-4.3c0.3-1.5,1-2.9,2.6-3.5c0.6-0.3,1.2-0.6,1.7-1.1c0-0.1,0.1-0.1,0.2-0.1
		c0.9-0.2,1.2-0.8,0.8-1.6c-0.4-0.8-0.4-1.6-0.6-2.5l0,0c0.5-0.6,0.1-1.3,0.2-1.9c0-0.5,0.6-1.1,1.1-1.2c0.2,0,0.5-0.1,0.7-0.2
		c0.6-0.2,1.4,0,1.8,0.5c0.2,0.2,0.4,0.4,0.5,0.6c0.2,0.6,0.4,1.1,0.2,1.7c0,0.2-0.1,0.4,0.2,0.4c0.1,0,0.1,0.2,0.1,0.3
		c-0.1,0.5,0,1.1-0.6,1.3h-0.1c-0.1,0.5-0.1,1-0.1,1.4c0,0.5,0.3,0.7,0.9,0.9c0.6,0.3,1.2,0.7,1.9,1c0.2,0.1,0.5,0.3,0.7,0.5
		c1.2,0.6,1.7,1.6,1.8,3c0.1,1.5,0.3,2.9,0.5,4.3c0,0.2,0.1,0.4-0.1,0.5c-0.1,0.1-0.1,0.4-0.1,0.6c0.4,1.6,0.4,3.2,0.4,4.7
		c0,1.3,0.1,2.6,0.1,3.9c0,0.2,0,0.5,0.1,0.7c0.2,0.6,0.1,1.2,0,1.8c0,0.3-0.2,0.5-0.4,0.6c-0.4,0.5-0.9,0.9-1.5,1.2
		c-0.1,0-0.1,0-0.2,0c-0.1-0.1,0-0.2,0-0.3c0.2-0.4,0.4-0.7,0.4-1.1C439.1,41.2,439.1,41.1,439,40.8z"/>
</g>
<path class="st16" d="M296.4,285.1c-84.5,0-168.9,0-253.4,0.1c-3.1,0-4.5-1-5.1-4.1c-0.3-1.6-0.7-3.2-1.5-4.5
	c-3.8-6.7-1.8-12,2.2-17.9c19.1-28.8,37.7-57.8,56.5-86.8c11.9-18.3,23.7-36.6,35.6-55c12.4-19,24.8-38,37.1-57.1
	c1.4-2.1,2.7-3,5.1-3c82.5,0.1,165,0.1,247.5,0c2.3,0,3.9,0.6,5.1,2.9c3.6,7,8.5,13.1,12.8,19.7c12.3,19.1,24.3,38.4,36.9,57.3
	c9.9,14.8,19.5,29.8,29.3,44.7c18.1,27.7,36,55.5,54,83.2c1.3,2,1.5,3.5,0.5,5.8c-1.6,3.9-2.7,8-3.9,12.1c-0.6,2-1.5,2.9-3.4,2.6
	c-1.3-0.2-2.7,0-4,0C463.9,285.2,380.1,285.2,296.4,285.1L296.4,285.1z M296.1,229.2L296.1,229.2c56,0,111.9,0,167.9,0
	c5.9,0,11.8,0,17.7,0.1c1.5,0,2.8-0.4,3.4-1.7c0.7-1.4,0.1-2.6-1.1-3.7c-0.9-0.9-1.3-2.5-2-3.8c-6.9-13.6-14.3-26.9-21-40.6
	c-4.9-10.1-10.4-19.9-15.5-29.8c-6.6-12.8-13.1-25.8-19.8-38.6C419,98.2,412,85.4,405.4,72.4c-1.6-3.2-3.3-4.6-6.7-4.6
	c-68.1,0.1-136.2,0.1-204.4,0c-3.1,0-4.9,1.2-6.4,4.1c-8.7,17.1-17.5,34.2-26.3,51.2c-6.4,12.5-13,24.9-19.5,37.4
	c-6.4,12.2-12.6,24.5-19,36.8c-4.5,8.8-9,17.6-13.8,26.3c-0.9,1.7-2.1,3.1-1.2,4.9c0.7,1.5,2.5,0.7,3.7,0.7
	C173.4,229.2,234.8,229.2,296.1,229.2z"/>
<line class="st6" x1="438.1" y1="60.2" x2="439.3" y2="59.6"/>
<circle class="st14" cx="433.2" cy="27.2" r="3.7"/>
<text transform="matrix(1.0001 0 0 1 431.8438 29.459)" class="st10 st15">3</text>
<line class="st7" x1="34.5" y1="262.8" x2="559.6" y2="262.8"/>
<line class="st7" x1="64.1" y1="263.3" x2="182.1" y2="56.8"/>
<text transform="matrix(0.4621 -0.8632 0.8589 0.5121 104.435 188.1447)" class="st12 st10 st17">10 a 12 metros</text>
<text transform="matrix(0.9976 -1.690017e-02 -4.346661e-02 0.9991 472.2544 260.6032)" class="st12 st10 st18">10 a 12 metros</text>
<g id="Capa_3_00000129191324470231634700000010893614868781760146_">
</g>
<path class="st19" d="M333.7,160.9c-0.4-0.3,0.1-1.2,0.1-1.2c0.9-1.8,0.9-3.6,0.3-3.1c-0.8,0.7-2.5,4-3.7,5.6
	c-0.3,0.4-1.5,0.6-2.5,0.6c-0.7,0-1.2-0.3-1.9-0.1c-0.3,0.1-0.5,0.2-0.7,0.4c-0.3,0.2-0.7,0.2-1.1,0.3c-0.8,0.1-2.6,0.1-2.7,0l0,0
	c-0.5,0-1.2-0.1-1.8,0.1c-0.2,0.1-0.3,0.2-0.6,0.3c-0.3,0.1-0.6,0-0.8,0c-0.6,0-0.9,0.3-1.4,0.5s-1,0-1.6,0
	c-0.6-0.1-3.8-0.4-3.8-0.4c-0.4-0.1-4.2-0.4-5.8-0.5c-0.6-0.1-1.9-0.1-2.5-0.4c-0.6-0.3,0.2-2.2,0.2-2.6c0-0.1,0.2-0.8,0.2-0.9
	c0.1-0.1,0.7-0.3,0.9-1.1c0.1-0.8-0.1-1.1-0.1-1.3c0,0,0-1.8-0.2-2.8s-1.4-1.7-2.5-2c-0.6-0.2-1.6-0.2-1.6-0.2s-1,0-1.6,0.2
	c-1.1,0.4-2.3,1.1-2.5,2c-0.2,1-0.2,2.8-0.2,2.8c0,0.2-0.2,0.5-0.1,1.3s0.7,1.1,0.9,1.1c0,0.1,0.2,0.8,0.2,0.9
	c0.1,0.4,0.8,2.2,0.2,2.6c-0.6,0.3-1.9,0.4-2.5,0.4c-1.6,0.1-5.4,0.4-5.8,0.5c0,0-3.2,0.2-3.8,0.4c-0.5,0-1,0.1-1.6,0
	s-0.9-0.4-1.4-0.5c-0.3,0-0.6,0.1-0.8,0c-0.2-0.1-0.4-0.2-0.6-0.3c-0.5-0.2-1.2-0.1-1.8-0.1l0,0c-0.1,0-1.9,0.1-2.7,0
	c-0.4,0-0.7-0.1-1.1-0.3c-0.2-0.2-0.4-0.3-0.7-0.4c-0.6-0.2-1.2,0.1-1.9,0.1c-0.9,0-2.1-0.2-2.5-0.6c-1.2-1.6-2.9-5-3.7-5.6
	c-0.6-0.6-0.6,1.3,0.3,3.1c0,0,0.5,0.9,0.1,1.2s-1.7-0.6-1.4,0.2c0.3,0.7,1.4,0.8,1.5,1s0.1,0.5,0.2,0.7c0.2,0.5,0.8,1.1,1.4,1.2
	c1,0.2,1.9,1.2,2.5,1.5c0.3,0.1,0.8,0.1,1,0.3s0.3,0.6,0.5,0.8c0.9,1,5.2,2,5.2,2s1.9,0.4,2.5,0.8c0.6,0.4,1.7,0.9,1.7,0.9
	c1.4,0.5,3,0.6,4.4,0.8c0.9,0.1,2.7-0.2,2.8,1.1h0.1h-0.1c0.2,1.8,0.4,3.5,0.9,5.3c0.2,0.7,0.4,7.5,0.6,8.2c0.5,1.5,1.9,1.9,1.9,1.9
	c-0.4,1.2-1,2.6-1,3.9c0,1.4,0.6,2.7,0.8,4c0.4,2.8,0.4,5.7,0.7,8.5c0.3,2.7,0.6,8.4,1.4,11c0.5,1.4,1,4.4,1.6,7.1
	c-3.2,5.5,2.9,4.9,4,4c0.3-0.2-0.7-29.2,0.2-29.3s-0.2,29,0.1,29.3c1.1,0.9,6.9,1.3,4-4c0.6-2.7,1.2-5.7,1.6-7.1
	c0.8-2.6,1.2-8.3,1.4-11c0.3-2.8,0.2-5.7,0.7-8.5c0.2-1.4,0.8-2.7,0.8-4s-0.6-2.7-1-3.9c0,0,1.4-0.4,1.9-1.9
	c0.2-0.7,0.4-7.5,0.6-8.2c0.5-1.7,0.7-3.5,0.9-5.3h-0.1h0.1c0.2-1.3,1.9-1,2.8-1.1c1.5-0.1,3.1-0.2,4.4-0.8c0,0,1.1-0.6,1.7-0.9
	c0.6-0.4,2.5-0.8,2.5-0.8s4.3-1.1,5.2-2c0.2-0.2,0.3-0.6,0.5-0.8s0.8-0.2,1-0.3c0.6-0.3,1.5-1.3,2.5-1.5c0.6-0.1,1.2-0.6,1.4-1.2
	c0.1-0.2,0.1-0.5,0.2-0.7c0.2-0.2,1.3-0.3,1.5-1C335.4,160.3,334.1,161.1,333.7,160.9z"/>
<circle class="st14" cx="300" cy="170.3" r="3.8"/>
<text transform="matrix(1 0 0 1 298.3317 172.9084)" class="st10 st11">6</text>
<path class="st12" d="M302.1,61.6c0.2,0.1,0.4,0.2,0.6,0.4c0.9,0.6,1.3,1.5,1.8,2.4c0.2,0.4,0.4,0.9,0.6,1.3
	c0.1,0.2,0.4,0.5,0.6,0.7c0.8,0.8,1.6,1.5,2.3,2.4c0.6,0.6,1.2,1.3,1.8,2c0.7,0.9,1.5,1.9,2.1,2.9c0.6,0.9,1.1,1.8,1.7,2.6
	c0.2,0.3,0.4,0.5,0.6,0.8c0.5,0.8,1,1.5,1.1,2.5c0,0.1,0.2,0.2,0.3,0.2c0.6,0.1,0.9,0.5,1.1,1c0.2,0.7,0.7,1.1,1.4,1.3
	c0.5,0.1,1,0.2,1.4,0.3c0.7,0.2,1.4,0.3,2.1,0.5c1,0.2,2,0.4,3,0.6c0.4,0.1,0.9,0.1,1.3,0.1c0.5,0,1,0,1.5,0.1c0.7,0,1.3,0.1,2,0.2
	c0.4,0,0.8,0,1.2,0c1.1,0,2.2,0,3.2,0.5c0.3,0.2,0.6,0.5,0.9,0.7c0.1,0.1,0.2,0.1,0.3,0.2c0.5,0.3,1,0.7,1.7,0.7
	c0.4,0,0.7,0.3,1,0.5c0.1,0,0.3,0.1,0.4,0.1c0.1-0.1,0.2-0.3,0.3-0.4c0.1-0.4,0.2-0.7,0.2-1.1c0.1-0.5,0.5-0.9,0.7-1.4
	c0.1-0.2,0.1-0.4,0.2-0.6s0.1-0.4,0.3-0.6c0.3-0.4,0.5-0.8,0.9-1.2c0.4-0.4,0.9-0.7,1.5-0.8c0.7-0.1,1.4-0.1,2,0.1
	c1.3,0.4,2.3,1.1,2.6,2.5c0.2,1.1,0.2,2.3-0.6,3.2c-0.3,0.4-0.5,0.7-0.6,1.2c-0.1,0.4-0.6,0.5-1,0.7c-0.3,0.1-0.8,0.1-1,0.3
	c-0.4,0.4-0.7,0.9-1,1.4c0,0.1,0,0.2,0.1,0.3c0.2,0.5,0.4,0.9-0.1,1.4c-0.3,0.3-0.3,0.7-0.1,1.1c0.4,0.7,0.7,1.5,1,2.2
	c0.1,0.3,0.3,0.5,0.5,0.7c0.5,0.5,0.7,1,0.7,1.7c0,0.3,0,0.6,0.1,0.9s0,0.6-0.1,0.8c-0.2,0.4-0.5,0.9-0.7,1.3c-0.1,0.3,0,0.6,0,1
	c0,0.7,0,1.4-0.1,2.1c-0.1,0.6-0.7,1.1-1.2,1.5c-0.6,0.4-1.2,0.7-1.8,1c-0.4,0.2-0.8,0.4-1.3,0.2c-0.8-0.3-1.4-0.7-1.8-1.3
	c-0.4-0.6-0.5-1.2-0.5-1.9c0-0.5,0-0.7-0.7-0.5c-0.6,0.2-1.3,0.3-1.9,0.4c-0.9,0.1-1.8,0.3-2.7,0.4c-0.6,0.1-1.2,0.2-1.9,0.2
	c-1,0-2,0-2.9,0c-0.8,0-1.4-0.2-1.8-0.9c-0.2-0.3-0.3-0.7-0.5-1c-0.1-0.1-0.2-0.2-0.3-0.3c-0.1,0.1-0.2,0.3-0.2,0.4
	c-0.1,0.5,0.1,1,0.4,1.5c0.1,0.2,0.2,0.4,0.3,0.6c0.2,0.3,0.3,0.5,0.5,0.8c0.3,0.3,0.5,0.6,0.6,1.1c0.1,0.8-0.6,1.3-1.1,1.6
	c-0.3,0.1-0.6,0.2-0.7,0.4c-0.2,0.2-0.2,0.5-0.2,0.7c0,0.1,0,0.3,0,0.4c0,0.8-0.1,1.7-0.1,2.5c0,0.5,0.1,1.1,0.2,1.6
	c0.2,1.1,0.5,2.2,0.2,3.3c-0.1,0.2-0.1,0.4-0.2,0.6c-0.2,0.7,0,1.4,0.4,2.1c0.1,0.3,0.2,0.5,0.3,0.8c0.1,0.8,0.2,1.7,0.3,2.5
	c0,0.3,0,0.5,0,0.8c0,0.6,0,1.2,0.1,1.7c0.1,0.9,0.4,1.7,0.6,2.6c0.1,0.5,0.3,1,0.4,1.4c0,0.1,0.1,0.2,0,0.2
	c-0.4,0.5,0.1,0.8,0.3,1.1c0.3,0.6,0.7,1.1,1.2,1.6c0.4,0.4,1,0.7,1.6,0.9c0.8,0.3,1.6,0.5,2.4,0.9c0.7,0.3,1.2,0.8,1.8,1.2
	c0.1,0,0.1,0.2,0.1,0.3c-0.1,0.1-0.3,0.3-0.4,0.3c-0.3,0-0.6-0.1-0.9-0.1c-0.7,0-1.3-0.1-2-0.1c-0.5,0-1.1,0-1.6,0.1
	c-0.5,0-1,0.1-1.5,0.2c-1.2,0-2.4,0-3.6,0c0-0.1-0.1-0.3-0.1-0.5c0-0.7,0.1-1.4,0-2c-0.2-1.1-0.5-2.2-0.8-3.4c-0.5,0-0.9,0-1.3-0.1
	c-0.7-0.1-1.4-0.1-2.2,0c-0.3,0-0.7,0-1-0.1c-0.1,0-0.1-0.4-0.2-0.6l0,0c-0.2-0.7-0.3-1.4-0.5-2.1c-0.3-1.2-0.3-2.5-0.4-3.7
	c-0.1-0.8-0.2-1.6-0.3-2.4c-0.1-0.9-0.3-1.8-0.3-2.7c0-2.3-0.2-4.6-0.4-6.9c-0.1-1.4-0.2-2.8-0.3-4.2c0-0.3,0-0.7-0.1-1
	c-0.1-1.2-0.2-2.4-0.3-3.7c-0.1-1-0.1-1.9-0.1-2.9c0-0.6,0-1.2,0-1.8c0-0.4,0-0.8-0.1-1.2c-0.2-0.5-0.4-1.1-0.4-1.6
	c0-0.3-0.1-0.7-0.3-1c-0.2-0.2-0.3-0.5-0.5-0.8c-0.8-1.1-1.5-2.2-2.3-3.3c-0.2-0.4-0.5-0.7-0.7-1.1c-0.4-0.7-0.7-1.4-1.1-2.2
	c-0.2-0.5-0.5-1-0.7-1.5c-0.4-1.1-1.1-2-2-2.7c-0.6-0.4-1.1-0.9-1.5-1.5c-0.5-0.7-1.1-1.4-1.7-2.1c-0.5-0.6-1-1.1-1.5-1.6
	c-0.2-0.2-0.2-0.3,0-0.4c0.3-0.2,0.6-0.5,0.8-0.8c0.8-0.9,1.6-1.7,2.4-2.6c0.1-0.1,0.1-0.2,0-0.3c-0.2-0.6-0.4-1.2-0.6-1.8
	c-0.3-0.8-0.6-1.6-1-2.4c-0.1-0.2-0.1-0.5-0.5-0.5c-0.2,0-0.5-0.1-0.6-0.3c-0.2-0.2-0.5-0.3-0.8-0.3c-0.4,0-0.9-0.4-0.9-0.7
	c0-0.3,0-0.7,0.1-1c0-0.3,0.1-0.6-0.1-0.9c-0.2-0.2-0.4-0.5-0.6-0.7c0-0.3,0-0.7,0-1c0.2-0.2,0.3-0.4,0.5-0.5
	c0.2-0.2,0.5-0.3,0.7-0.5C301.7,61.6,301.9,61.6,302.1,61.6z M322.7,88.3c0.1,0.1,0.1,0.3,0.1,0.4c0.2,0.2,0.4,0.3,0.5,0.5
	c0.2,0.1,0.4,0.2,0.6,0.4c0.2,0.3,0.9,0.3,1.2,0.1c0.4-0.4,0.2-0.9,0.2-1.3c0-0.1-0.2-0.2-0.3-0.2C324.2,88.2,323.5,88.3,322.7,88.3
	z"/>
<path class="st12" d="M309.4,83.8c0.3,0.6,0.5,1.1,0.8,1.5c0.1,0.2,0.2,0.4,0.4,0.4c0.2,0,0.5-0.1,0.6-0.2c0.5-0.7,1.2-1.4,0.8-2.3
	c-0.1-0.3,0.2-0.8,0.4-1.1c0.3-0.5,0.7-1,0-1.5s-1.3-0.3-2,0c-0.5,0.2-1.1,0.4-1.7,0.5c-0.1,0-0.4,0-0.5,0.1c-1.3,1.4-3.5,1.4-5.3,2
	c-3.4,1.2-6.6,2.6-9.6,4.3c-2.6,1.5-5.5,2.9-8.2,4.3c-0.2,0.1-0.4,0.2-0.6,0.3c-1.9,1.3-1.9,1.3-4.6,1.5c1-0.5,2.1-1,3.2-1.4
	c1.2-0.4,1.7-1,1.2-1.9c-0.3-0.5-0.1-0.7,0.3-1c1.4-0.8,1-2-0.4-3.2c-0.9-0.7-1.6-0.3-2.3-0.1c-0.5,0.2-0.7,0.8-1,1.3
	c-0.1,0.3,0,0.8-0.2,1c-0.6,0.4-1.3,0.9-2,1c-1.6,0.2-2.9,0.8-4.1,1.6c-0.2,0.2-0.6,0.4-0.9,0.3c-2.9-0.1-5.9,0.2-8.8-0.3
	c-2.5-0.4-5-0.2-7,1.3c-0.1,0-0.1-0.1-0.2-0.1c0.1-0.4,0.2-0.9,0.3-1.3c0-0.2,0-0.4-0.1-0.6c-0.2-0.6-0.6-1.1-0.8-1.7
	c-0.1-0.2,0.3-0.5,0.5-0.8c-0.8-0.6-1.6-1.4-2.5-2c-0.5-0.3-1.4-0.4-2.1-0.4c-1.5,0.1-3.1,0.3-4.3,1.2c-0.7,0.5-1.1,1.1-1.1,1.8
	c-0.1,1.7,0.5,3.3,1.4,4.8c0.2,0.4,0.9,0.6,1.5,0.9c-0.3,0.5-0.7,1-1.1,1.6c-0.1,0.2-0.2,0.5-0.1,0.7c0.7,1.3,0.2,2.5-0.2,3.7
	c-0.2,0.5-0.7,1.2-0.4,1.7c0.5,0.9,1.4,1.6,2.1,2.4c0.7,0.7,1.4,1.4,2.2,2c0.3,0.3,0.7,0.6,1.1,0.7c1.3,0.2,2.6,0.4,4,0.5
	c1.7,0.2,2.6-0.5,2.7-1.9c0-0.5,0-1.1,0-1.6c1.4,0.1,2.8,0.5,3.9,1.3c0.8,0.6,1.6,0.8,2.7,0.8c0.9,0,1.4,0.5,1.4,1
	c0,1.4,0.3,2.7-0.5,4c-0.9,1.5-1.6,3-2.3,4.5c-0.6,1.2-0.5,1.3,1.3,1.7c1-2,2-4,3.1-6.1c0.6,0.7,0.5,1.4,0.3,2
	c-0.6,2.3-1.2,4.6-1.7,6.9c0,0.2,0,0.4,0,0.6c0.5,0.1,1,0.2,1.5,0.3c0.3-0.8,0.6-1.5,0.8-2.2c0.1,0,0.1,0,0.2,0c0,0.2,0,0.4,0.1,0.6
	c0.2,1.1-0.1,2.2,0.6,3.3c0.5,0.7,0.4,1.6,0.5,2.5c0.2,1.5,0.5,3,0.5,4.5c0,0.8-0.5,1.6-1,2.3c-0.4,0.5-1.2,1-1.9,1.3
	c-0.9,0.5-1.9,0.8-3,1.2c0,0.4,0.3,0.6,1,0.5c1.7-0.3,3.4,0.1,5.1-0.5c0.5-0.2,1.3,0.1,2,0.1c1.3,0,1.5-0.2,1.4-1.2
	c-0.1-0.8-0.3-1.6-0.3-2.4c0-0.6,0.3-0.9,1.2-1c1.4-0.2,2.7-0.5,4-0.9c0.2-0.1,0.5-0.5,0.4-0.7c-0.6-3.6-1.1-7.3-1.9-10.9
	c-0.4-1.8,0.1-3.5,0.5-5.1c0.4-2.2,0.9-4.3,1.5-6.5c0.1-0.4,0.4-0.8,0.8-1.1c1-1.1,2.1-2.1,3.2-3.2c0.6-0.5,1.1-1,1.8-1.5
	c1.9-1.3,3.8-2.5,5.7-3.8c4-2.7,8.5-4.7,13.4-6.2c0.7-0.2,1.1-0.4,0.8-1.1c-0.4-0.8-0.5-1.7-0.8-2.6c-0.2-0.6-0.1-1,0.6-1.3
	C308,84.5,308.6,84.2,309.4,83.8z"/>
<circle class="st14" cx="274.7" cy="99.5" r="3.8"/>
<circle class="st14" cx="331.5" cy="95.8" r="3.8"/>
<text transform="matrix(1 0 0 1 330.0373 97.6967)" class="st10 st11">8</text>
<text transform="matrix(1 0 0 1 273.1248 101.5)" class="st10 st11">9</text>
</svg>
