<?xml version="1.0" encoding="utf-8"?>
<!-- Generator: Adobe Illustrator 27.0.0, SVG Export Plug-In . SVG Version: 6.00 Build 0)  -->
<svg version="1.1" xmlns="http://www.w3.org/2000/svg" xmlns:xlink="http://www.w3.org/1999/xlink" x="0px" y="0px"
	 viewBox="0 0 593.2 245.8" style="enable-background:new 0 0 593.2 245.8;" xml:space="preserve">
<style type="text/css">
	.st0{display:none;}
	.st1{display:inline;opacity:0.59;}
	.st2{fill:#D80909;}
	.st3{fill:#B9C6E5;stroke:#B9C6E5;stroke-miterlimit:10;}
	.st4{opacity:0.79;fill:#191642;stroke:#191642;stroke-miterlimit:10;enable-background:new    ;}
	.st5{fill:#191642;stroke:#191642;stroke-miterlimit:10;}
	.st6{fill:#191642;stroke:#191642;stroke-miterlimit:10;enable-background:new    ;}
	.st7{fill:none;stroke:#CC061E;stroke-width:0.75;stroke-miterlimit:10;}
	.st8{fill:none;}
	.st9{font-family:'MyriadPro-Regular';}
	.st10{font-size:10px;}
	.st11{fill:none;stroke:#000000;stroke-width:0.75;stroke-miterlimit:10;}
	.st12{fill:none;stroke:#050001;stroke-width:0.75;stroke-miterlimit:10;}
	.st13{font-size:10.4939px;}
</style>
<g id="Capa_2" class="st0">
	<g id="Capa_1_00000047017611766032638150000015933222403883770528_" class="st1">
		<polygon class="st2" points="-0.4,174.2 592.9,161.1 593.5,94.5 0.4,72 		"/>
	</g>
</g>
<g id="Capa_1">
	<g>
		<path class="st3" d="M392.7,82.4c1.2-1.7,2.4-3.4,3.6-5.1c1.2-3.8,2.3-7.6,3.5-11.3c4.9-5.5,9.8-11.1,14.7-16.6
			c-4.8,5-9.6,9.9-14.4,14.9c0.3-2.8,0.5-5.7,1.1-8.4c0.2-0.9,0.6-1.8,0.9-2.7c-0.1,0.1-0.3,0.2-0.4,0.3c0-0.5,0-1,0.1-1.5
			c0.2-0.3,0.3-0.7,0.2-1.1c1.3-2.1,2.6-4.1,3.8-6.2c0.5-0.5,1.1-1,1.5-1.5c1.7-2,3.3-4,5.1-5.9c1-0.5,1.9-1,2.9-1.5
			c0.2,0.2,0.4,0.4,0.6,0.6c-0.1-1.3-0.2-2.5-0.2-3.8c1.3,2.3,2.6,4.7,3.9,7c0.2,0.2,0.4,0.3,0.6,0.5c0.6,1.1,1.1,2.2,1.7,3.2
			c11.8-1.5,23.6-3.9,35.5-4.1c3.9-0.1,7.9,5.4,11.8,8.3v0.1c0.8,1.1,1.7,2,2.3,3.1c-0.4,2.7-1.5,5.6-1,8c0.5,2.6,2.5,4.8,4,7.1
			c2.2-0.1,5.3-0.3,8.9-0.8c0,0,5.5-0.6,10.5-1.5c10.3-1.8,21.7-7.9,32.3-12.7c5.4-2.4,13.3-5.8,23.3-9.2c4.7-0.5,9.4-0.9,13.9-1.4
			c0.5,2.5,1.1,4.9,1.7,7.3v0.1h0.1c-0.5-2.5-1.1-4.9-1.7-7.3c2-1.2,5.9-3,10.9-2.8c1.6,0.1,3,0.3,4.2,0.7c1.1-0.6,2-0.9,2.7-1.2
			c1.4-0.5,2.1-0.7,3.1-0.6c1.1,0.2,1.8,0.8,2.3,1.2c-0.7,6.1-1.4,12.1-2.1,19.7c-2.2,2.6-5.7,2.9-7.6,1.2c-1.3-1.2-1.8-3.3-1.3-5.3
			c2.4-6.1,2.3-7.6,1.8-7.9c-0.7-0.4-2.2,1.5-6.1,4.1c-1.7,1.1-3.1,1.9-4.1,2.4c-0.5,0.1-0.9,0.2-1.4,0.3c1.3,6.4-1.2,10.9-7.1,11.4
			c-6,0.6-6.8,4.3-6.7,9.4c-0.5,1-1,2-1.5,3c-3.3,1.5-6.5,3-9.8,4.5c-0.9,0.4-1.8,0.9-2.6,1.3c-4.8,2.5-9.5,5.1-14.2,7.6
			c-6.3,3.1-12.6,6.2-18.9,9.2c0,0.1-0.1,0.1-0.1,0.2c-1.9,0.7-3.5,1.4-5.4,2.2c-2.6,1.8-5.4,3.6-8,5.5c-4.8,3.4-9.5,6.9-9.2,14.3
			c0,0.8-1.5,1.6-2.1,2.4h-0.1c-0.2,1.9-0.4,3.8-0.5,5.7l-0.1,0.1c0.3,3.5,0.5,7,0.8,10.5c-0.5,0-1,0-1.5,0.1
			c-3.7,6.1-7.1,12.3-11.1,18.1c-2.4,3.7-5.6,6.8-8.5,10.1c0,0.1-0.1,0.2-0.1,0.3c3-3.5,6.3-6.7,8.9-10.4c4-5.8,7.4-12,11.1-18.1
			c0,3.5,0,7,0,10.5l0.1,3c0,1.1-0.1,2.2-0.1,3.3c0,1.9,0,3.7,0,5.6c0,2.1,0,4.1,0,6.2c-0.2,7.6-0.5,15-0.7,22.6
			c0.6,3,1.2,6.1,1.8,9.1c-0.1,10.5-0.5,10.9-11.7,12.2c-1.7,0-3.4-0.1-5.1-0.1V212c-1.9,0-3.6,0-5.5,0c-1.3-2.6-2.5-5.2-3.9-7.8
			c-0.1-1.4-0.2-2.9-0.3-4.3l-0.3-9c-0.3-2.6-0.7-5-1-7.5c0,0,0,0,0-0.1c0.3-1.5,0.6-2.9,0.9-4.3c5,8.1,10.6,0.5,16.9-0.1v-0.1
			c-6.3,0.6-12,8.1-16.9,0.1c0-0.5-0.1-1-0.1-1.5c1.6-2,3.1-4.1,4.8-6.2c-1.7,2-3.2,4-4.9,6.2c-0.8-3.4-1.9-6.8-2.3-10.3
			c-0.7-4.6-1-9.2-1.4-13.8c-0.1-3-0.1-6-0.2-9.1c8.7-1.3,12.8-9.1,18.2-15c0.1,0.2,0.2,0.5,0.3,0.7c-0.1-0.3-0.2-0.5-0.3-0.8
			c2.3-4,4.6-8.1,6.9-12.1c0.1-0.2,0.2-0.5,0.4-0.7c-5.5-0.9-8,3.4-11,7.1c-2.4,2.9-5.4,5.2-8.3,8c0,0.1,0.1,0.2,0.1,0.3
			c2.7-2.6,5.4-4.7,7.6-7.5c3-3.8,5.6-8.2,11.1-7.3c-2.2,4.1-4.6,8.2-6.8,12.2c-5.5,5.9-9.4,13.8-18.2,15c0-1,0-2.1-0.1-3.1
			c4.6-2,6.3-2.8,6.6-4.4c-0.9,0.9-2.7,1.7-5.9,3.1c3.2-5.4,3.8-10.8,0.9-16.9c-1.4-2.7-0.6-6.6-0.7-9.9c0.3-1.4,0.6-2.8,0.8-4.2
			c-0.1-0.3-0.3-0.5-0.4-0.8c0-2.7-0.6-5.7,0.2-8.1c3.7-11,7.8-21.9,11.8-32.8h-0.1c-1.5,0.2-2.8,0.4-4.3,0.6
			c1.5-0.2,2.8-0.4,4.3-0.6c-3.9,10.9-8,21.8-11.8,32.8c-0.8,2.4-0.2,5.3-0.2,8.1c-0.4,1.9-0.7,3.8-1.1,5.7c-1-0.4-1.9-0.7-2.9-1
			c-0.1-0.7-0.2-1.3-0.3-2c-2.8,1.1-6,3.1-8.3,2.5c-6-2-10.4-1.8-13.1,5c-0.2,0.8-0.8,2.6-2.5,4.1c-1.2,1.1-2.4,1.6-3.1,1.8
			c-11.2,1.8-14.6-8.7-19.9-15.9c0,0,0,0-0.1,0c-8-5.3-7.1-14.4-8.1-22.7C391.7,84.4,392.2,83.4,392.7,82.4z M454,185.7
			c0.5,0.7,1,1.4,1.4,2.1C455,187.1,454.5,186.4,454,185.7z M470.3,197.9c0.9,0.6,1.8,1.1,2.6,1.7c0.5-0.8,1-1.5,1.5-2.3
			c-0.5,0.7-1,1.5-1.5,2.2C472.1,198.9,471.2,198.4,470.3,197.9L470.3,197.9z M438.4,100.2c0,0.1,0,0.1,0.1,0.2
			c0.4-2.9,1.5-5.8,2.2-8.8c-0.2,0.1-0.4,0.3-0.6,0.4C439.3,94.8,438.5,97.5,438.4,100.2z M400.9,94.2L400.9,94.2
			c0.4,0.3,0.7,0.6,1.1,0.8C401.6,94.7,401.3,94.5,400.9,94.2z M409.5,82.2C409.5,82.2,409.4,82.2,409.5,82.2
			c0.6,4.2,1.3,8.1,1.9,12c1.6,1.6,2.9,3.1,4.5,4.7l0,0c-1.5-1.5-2.9-3.1-4.4-4.6C410.8,90.4,410.2,86.4,409.5,82.2z M424.3,60.2
			c0.1-0.4,0.2-0.8,0.3-1.2c-0.2,0.4-0.3,0.7-0.5,1.1C424.2,60.2,424.3,60.2,424.3,60.2z M434.5,58.5c0.1-0.5,0.1-0.9,0.2-1.4h-0.1
			C434.5,57.5,434.5,57.9,434.5,58.5h-9.5H434.5z M433.5,53l-0.2-0.5l-0.2,0.5H433.5z M435.3,51.7c-1.6-0.8-4.1,0.9-6.2,1.5
			c0.1,0.5,0.2,1.1,0.2,1.6h0.1c-0.1-0.5-0.2-1.1-0.2-1.5C431.4,52.7,433.9,51,435.3,51.7c0.4,0.2,0.7,0.5,0.9,0.9
			C435.9,52.2,435.6,51.8,435.3,51.7z M450.1,50.1c1,0.6,1.9,1.1,2.8,1.7C452,51.2,451,50.7,450.1,50.1L450.1,50.1z M454.5,52.8
			c0.4,0.3,0.9,0.5,1.3,0.8c-0.7,1.5-1.4,3.2-2,4.7c0.5,0.6,1.3,0.9,2.1,0.8c-0.9,0-1.6-0.2-2-0.8c0.7-1.5,1.4-3.2,2-4.7
			C455.4,53.3,454.9,53.1,454.5,52.8z M483,77.2c-0.3-0.4-0.5-0.8-0.7-1.3C482.5,76.4,482.7,76.8,483,77.2L483,77.2z M525.6,69.4
			c0.3,0.2,0.6,0.3,0.9,0.4c-0.1,0.3-0.2,0.5-0.3,0.8c0.1-0.3,0.2-0.5,0.3-0.8C526.2,69.6,525.9,69.5,525.6,69.4z M525.9,71.1
			L525.9,71.1c-0.4-0.2-0.9-0.3-1-0.6c-0.1-0.3,0.3-0.8,0.5-1.2h-0.1c-0.2,0.4-0.6,0.9-0.5,1.2C525,70.8,525.5,70.9,525.9,71.1z
			 M499.4,83.8c0-0.4,0.1-0.9,0.1-1.3c0.9-0.6,1.8-1.1,2.6-1.7h-0.1c0.7-1.9,1.5-3.9,2.3-6.3c2.6,1.8,4.6,3.1,6.8,4.5
			c1.5-2.2,2.9-4.4,5-7.6c0.3,2.5,0.5,4.1,0.8,6.3c2.3-1.5,4.3-2.8,6.2-4.1l1,1.1l0.1-0.1l-1.1-1.2c-1.9,1.3-4,2.6-6.2,4.1
			c-0.3-2.2-0.5-3.8-0.8-6.3c-2,3.2-3.5,5.3-5,7.6c-2.2-1.5-4.1-2.8-6.8-4.5c-0.9,2.4-1.6,4.4-2.3,6.3c-0.9,0.6-1.8,1.1-2.6,1.7
			c-4-2.8-8.2-5.5-12-8.5c-0.8-0.6-1.6-3.1-1.2-3.6c1.7-2,3.7-3.7,5.6-5.5c-1.9,1.8-4.1,3.5-5.7,5.6c-0.4,0.5,0.3,3,1.2,3.6
			c3.9,3.1,8.1,5.8,12.1,8.6C499.4,82.9,499.3,83.4,499.4,83.8c-0.6,0.5-1,1.1-1.5,1.6h0.1C498.6,84.9,498.9,84.3,499.4,83.8z
			 M493.8,91.4C493.8,91.4,493.7,91.4,493.8,91.4c-0.5,0.5-0.9,0.9-1.4,1.3v0.1C492.9,92.3,493.3,91.8,493.8,91.4z M486.8,95.8
			c1-0.5,1.9-1.1,3-1.6C488.7,94.7,487.7,95.3,486.8,95.8c1.6-4.5,3-8.9,5.3-15.2c0-0.1,0-0.1-0.1-0.2
			C489.7,86.8,488.2,91.3,486.8,95.8c-1,0.5-1.9,1.1-2.6,1.7c-0.6,0.2-1.2,0.3-1.8,0.5c0.7-0.1,1.4-0.2,1.9-0.4
			C485.1,97,486,96.4,486.8,95.8z M460.6,153.5c-1-0.5-1.9-0.9-2.9-1.5C458.7,152.6,459.6,153.1,460.6,153.5z M456.1,151.3
			c-1.1-0.5-2.2-1.1-3.5-1.8C453.9,150.1,455,150.7,456.1,151.3z M468.9,132.3v0.1C468.9,132.3,468.9,132.3,468.9,132.3
			c0-0.1,0-0.1,0.1-0.2c-0.2-0.3-0.4-0.7-0.6-1C468.6,131.5,468.7,131.9,468.9,132.3z M479.1,99.4c0.5-0.6,1.4-1,2.2-1.2
			c-1.1,0.3-2,0.6-2.7,1.3c-2.7,3.2-5,6.9-7.9,11.4c0,0.1,0.1,0.2,0.1,0.3C474.1,106.4,476.3,102.6,479.1,99.4z M474.3,67.2
			c3.8-0.5,5.4,1.1,6.3,3.4c-0.9-2.3-2.4-4.2-6.4-3.6L474.3,67.2c-3.8-0.1-7.7-0.2-11.5-0.2C466.6,67,470.4,67.1,474.3,67.2z
			 M452.1,65.9c-1.9,2.5-3.7,4.9-5.6,7.4c-1.2,1.7-2,3.8-3.6,4.8c-6.6,4.2-13.4,8.1-21.9,13.1c0,0.1-0.1,0.1-0.1,0.2
			c8.6-5.1,15.4-9,22-13.2c1.6-1,2.4-3.2,3.6-4.8C448.4,70.9,450.3,68.5,452.1,65.9c1.9,0.7,3.8,1.2,5.6,1.8v-0.1l0,0
			C455.9,67,454,66.5,452.1,65.9z M446.6,100.6c0.9-2.9,1.8-5.7,2.6-8.6C448.4,94.9,447.5,97.8,446.6,100.6z M417.9,101.9
			c-0.1,0-0.1,0-0.2,0c0.3,0.3,0.6,0.6,0.9,0.9C418.3,102.5,418.1,102.2,417.9,101.9z M414.6,109.6L414.6,109.6c2,0.2,4,0.5,6.7,0.8
			l0,0C418.7,110.1,416.6,109.8,414.6,109.6c-0.5-2-1.4-3-2.4-3.6C413.2,106.6,414.1,107.6,414.6,109.6z"/>
		<path class="st3" d="M455.6,188.1c0-0.1-0.1-0.1-0.1-0.2C455.5,188,455.6,188.1,455.6,188.1z"/>
		<path class="st3" d="M407.2,99c-0.4-0.3-0.7-0.5-1.1-0.8C406.5,98.5,406.8,98.7,407.2,99L407.2,99z"/>
		<path class="st3" d="M414.9,49c-0.1,0.1-0.1,0.1-0.2,0.2C414.8,49.1,414.9,49,414.9,49L414.9,49z"/>
		<path class="st3" d="M436.4,52.9C436.4,52.8,436.4,52.8,436.4,52.9C436.4,52.8,436.4,52.8,436.4,52.9z"/>
		<polygon class="st3" points="493.8,85.3 493.8,85.3 493.8,85.3 		"/>
		<path class="st3" d="M480.9,71.3C480.9,71.3,480.9,71.2,480.9,71.3C480.8,71.2,480.8,71.3,480.9,71.3z"/>
		<path class="st3" d="M411.7,37.3c-1.8,1.9-3.4,3.9-5.2,5.8c-1,0.8-2.5,2.4-3.6,4.8c-0.7,1.6-1,3.1-1.2,4.1
			c-1.7-0.1-3.5-0.3-5.2-0.4c-0.8-0.6-1.9-1.6-2.7-3.1c-1.2-2.5-0.9-4.9-0.5-7.9c0.3-1.9,0.9-4.7,2.4-8c0.6-0.8,1.5-1.8,2.8-2.9
			c1.5-1.3,2.7-2.3,4.5-2.9c0.8-0.2,2.5-0.6,4.7,0.1c0.8,0.2,1.5,0.4,2,0.6c1.8,0.6,2.5,1.1,2.8,1.3c0.3,0.3,0.6,0.5,0.7,0.7
			c0.3,0.1,0.5,0.3,0.7,0.4c1.9,1.7,1.1,5.4,1,5.9c-0.5,0.2-1,0.5-1.5,0.8C412.8,36.7,412.2,37,411.7,37.3z"/>
		<path class="st3" d="M392.6,82.4c1.2-1.7,2.4-3.4,3.6-5.1C395,79,393.9,80.7,392.6,82.4z"/>
		<path class="st3" d="M401.2,54.4c0-0.1,0-0.1,0-0.2c0.1,0,0.1,0.1,0.2,0.1L401.2,54.4z"/>
		<path class="st3" d="M401.4,52.4c0,0.6,0,1.2-0.2,1.8c-1.1-0.7-2.2-1.3-3.3-2.1C399,52.2,400.3,52.2,401.4,52.4z"/>
		<path class="st3" d="M558.8,63.8c5.9-0.5,8.4-5,7.1-11.5c0.2-0.1,0.4-0.2,0.7-0.2c1.4,0.5,0.7,7.3-0.7,11.2
			c-2.9,8-11.7,11.5-15.4,12.7c-0.1-6.4,1.6-9,3.2-10.2C554.1,65.6,554,64.2,558.8,63.8z"/>
		<path class="st3" d="M440.8,228.2c6.1-1.4,12.5-5.6,14.9-11.5c0.4-1.1,0.6-2.2,0.5-3.2c0.5-0.5,1-1,1.5-1.5h5.5
			c1.7,0,3.4,0.1,5.1,0.1c0.4,4.5,0.6,8.9,0.9,13.4c0,0.5,0.1,1.1,0.1,1.6c-0.4,0.4-0.8,0.8-1.2,1.2c-0.8,0.5-1.5,1-2.3,1.4
			c-1.5,0.9-2.7,1.8-4,2.8c-4.4-0.2-8.9-0.5-13.3-0.9c-2.4-0.2-4.9-1-7.3-1.5c-0.1-0.5-0.3-1-0.4-1.5
			C440.7,228.5,440.8,228.4,440.8,228.2z"/>
		<path class="st3" d="M402.2,49.4c1.3-2.1,2.6-4.2,4-6.3C404.9,45.2,403.5,47.3,402.2,49.4z"/>
	</g>
	<g>
		<path class="st4" d="M325,102.5c-3.2-1.4-5.5-0.3-7.3,1.9c2.9,0.2,5.9,0.9,8.6,2.2C326,105.2,325.5,103.9,325,102.5z"/>
		<path class="st4" d="M263.7,14.3c-0.3,0.8-0.6,1.6-0.7,2.1c-0.9,2.8-0.9,5.7-0.8,8.6c0.7-0.6,1.2-1.2,1.9-1.8
			C264.1,20.1,264.2,17,263.7,14.3z"/>
		<path class="st4" d="M266.1,11.7c1.7,0.4,3.4,0.8,4.9,1.2c0.1-0.9,0.2-1.7,0.3-2.6c0.1-0.8,0.2-2.2-0.2-2.4
			C270.8,7.6,269.5,8.2,266.1,11.7z"/>
		<path class="st4" d="M249.6,68.9c-0.1-0.8-0.1-1.5-0.1-2.3c0-5.4,1.4-10.3,3.6-15c1.3,1.2,1.7,3.9,0.7,8.8c0-0.1,0.1-0.1,0.1-0.2
			c1-4.8,0.7-7.4-0.8-8.7c0.2-0.4,0.4-0.8,0.6-1.2c1.3-2.7,2.8-5.3,4.2-7.9c0.5-0.9,0.9-1.9,1.4-2.8c0.4-0.2,0.8-0.5,1.3-0.7
			c-0.4,0.2-0.8,0.4-1.2,0.6c0.7-1.5,1.3-3,1.9-4.6c1-3.1,1-6.4,1-9.6c0.7-0.6,1.3-1.3,2-1.9c0-0.1,0-0.2,0-0.3
			c-0.1,0-0.1,0.1-0.2,0.1c0.1,0,0.1-0.1,0.2-0.1c0.1-3,0.3-6.1-0.4-8.8c0.9-2.3,2.2-5.4,3.7-7.3c-0.6,1.2-1.2,2.7-2.2,5
			c2,0.5,3.9,1,5.8,1.4c-0.3,1.7-0.6,3.4-0.7,5.2v0.3c-0.2,3.7,2.8,5.3,5.4,4.7c0.6,0.8,1.1,1.6,1.7,2.4c0.1-0.1,0.1-0.1,0.2-0.2
			c-0.6-0.8-1.1-1.5-1.7-2.3c1.8-0.4,3.3-2,3.4-4.6c0-0.7,0-1.3,0.1-2c1.6,5.4,1.1,11.2,0.6,17c-0.1,0-0.1,0-0.1,0
			c11.4,2.2,20.5,9,28.1,18.8c-0.8,1-1,2.5-0.5,4.2c1.2,3.5,2,6.6,1.9,10.4c0,2.7-0.5,5.5,0.2,8.1c0.2,0.7,0.5,1.4,0.8,2
			c0.6,3.6,1.1,7.1,1.8,11.1c0-0.1,0.1-0.1,0.1-0.1c-0.7-3.9-1.2-7.4-1.8-10.8c2,4,6.2,4.4,9.2,7.7c1.1,1.3,2.3,2.7,3.3,4.1
			c-0.3,2.1-0.6,4.1-0.9,6.1h0.1c0.4-2,0.7-4,0.9-6c4.7,6.6,8.4,14.5,12.9,21.3c2.4,3.6,5.3,7.6,6.4,11.9c0.1,0.3,0.3,0.5,0.4,0.8
			c-1.6-0.5-1.9,1.2-3.1-0.8c-1.3-2.2-1.5-5.2-3-7.5s-3.4-4.2-5.5-5.8c-1.4-1.1-2.9-2-4.5-2.7c-0.5-1.4-0.9-2.8-1.4-4.2
			c-0.2-2.1,0.8-4.8-0.7-6.1c1.3,1.3,0.4,4,0.6,6c-3.3-1.4-5.6-0.2-7.4,2.1c-0.9-0.1-1.7-0.1-2.6-0.1c-2.1,0.1-3.4,1.4-4,3
			c-0.3,0.2-0.7,0.5-0.9,0.8c-0.9,0.9-1.3,2.1-1.3,3.5c0,0.7,0.1,1.5,0.3,2.2c0.2,0.4,0.4,0.9,0.6,1.3c-0.5,0.5-0.9,1.1-1.3,1.6
			c-1.7,2.9-3.4,5.8-5,8.7c-1.4,2.4-2.9,4.9-5.2,8.5c0,0,0,0.1,0,0.2c2.2-3.8,3.8-6.1,5.2-8.5c1.7-2.9,3.3-5.8,5-8.7
			c-0.1,2.5-0.3,4.9-0.4,7.3c-0.8,7.3-1.5,14.5-2.4,21.8c-0.4,3-0.9,5.9-1.2,8.9c-0.4,1.9-0.7,3.9-0.9,5.8v2.6
			c0.8,1.1,1.4,2.1,2.1,3.3v7.2h0.1c-0.4,0.5-0.7,1-0.9,1.5c-0.1-0.5-0.2-0.9-0.2-1.4h-0.1c0,0.4,0.1,1,0.1,1.5
			c-0.1,1.5-0.2,2.9-0.3,4.4c-1.3,9.2-2.6,18.4-3.9,27.6c0,0.5,0.3,1.3,0.5,1.9c0.8,3.2,1.6,6.5,2.4,9.7c-2.6,1.5-5.2,3-7.8,4.5
			c-0.4,1.5-1.1,4.5-0.6,8.1c-0.4,0.7-0.7,1.5-0.9,2.4c-0.2,0.3-0.4,0.6-0.6,0.9c-1,2.1-2.1,4-3.3,5.9c-0.6-0.1-1.1-0.2-1.8-0.4
			c-2.8-0.9-4.9-2.3-6.3-3.3c0.8-1.7,1.6-3.3,2.4-5c1.1-2.4,2.2-4.7,3.2-7c0.1-0.4,0.2-0.8,0.4-1.2h-0.1c-1.3-5-2.6-10.1-3.9-15.1
			c0-1.4-0.1-2.8-0.3-4.2c-0.4-3.4-0.7-6.9-1-10.3c2.9,1.9,5.9,3.7,10.3,6.5c0-0.1-0.1-0.1-0.1-0.2c-4.4-2.8-7.3-4.6-10.1-6.4
			c-0.5-3.3-0.9-6.6-1.3-9.8c-0.9-7.4-1.7-14.8-2.6-22.3c-0.1-0.5-0.2-1-0.3-1.5c0.5-6.7,1.5-13.6,1.4-20.4c0-5.5-1.5-10.9-2.3-16.3
			c-1.2-2.5-2.5-4.9-3.7-7.3c0.1-0.4,0.1-0.9,0-1.3c0-0.5,0.1-1.1,0.1-1.7c1.2-1.1,1.6-2.6,1.4-4.1c0.2-0.2,0.4-0.5,0.6-0.7
			l-0.1-0.1c7.9-10.9,15.8-22,23.6-32.9c-0.1,0-0.1,0-0.1,0c-8,10.9-15.8,22-23.6,32.9c-0.2,0.3-0.4,0.5-0.6,0.7
			c-0.6-3-3.6-5.6-6.7-3.7c-0.7,0.4-4.3-3.2-5-3.6c-2.4-1.2-5.6-0.1-7.7-1.3c-3.2-1.8-3.6-7.9-4-11.9c0.1-0.1,0.2-0.3,0.3-0.4
			l-0.1-0.1c0,0.2-0.1,0.3-0.2,0.4c0-0.4-0.1-0.8-0.1-1.2C251.4,81.4,249.9,75.3,249.6,68.9c1-0.2,2-0.5,2.9-0.9v-0.1
			C251.5,68.2,250.6,68.5,249.6,68.9z M299.9,150c-0.1,0.6-0.3,1.3-0.5,1.9C299.7,151.3,299.9,150.7,299.9,150z M265.5,21.2
			c0.5-1.3,0.8-2.9,1.6-3.5C266.3,18.3,266,19.9,265.5,21.2z M269,30.8L269,30.8c0.3,1.3,0.9,2.7,1.2,4
			C269.8,33.4,269.3,32.1,269,30.8z M273,30.4c0.1,0,0.2-0.1,0.2-0.1c1.6-1,2.9-2.8,4.3-4.2C276,27.6,274.7,29.4,273,30.4z
			 M300.8,74.5c2,0.5,3.9,1,5.9,1.4C304.8,75.4,302.8,75,300.8,74.5z M291.8,171.7c-1.4,2-2.7,4.4-4.1,6.6
			C289.1,176.1,290.4,173.9,291.8,171.7z M291.2,167.5c-1.7,3.1-3.5,6.2-5.2,9.4C287.8,173.8,289.5,170.7,291.2,167.5z M289.5,163
			c2.3-2,4.2-4.5,6.3-6.7c-0.4,1.4-0.7,3-1.1,4.4c0.5-1.4,0.8-2.9,1.1-4.4c-0.4-1-0.9-1.9-1.3-2.9c0.4,1,0.9,1.9,1.2,2.9
			C293.7,158.5,291.7,161.1,289.5,163c-2.2,1.8-4.5,3.3-6.4,1.9C285.2,166.5,287.4,164.9,289.5,163z M279.9,114.1
			c-1.1-1-2-2.3-2.8-3.7C277.9,111.8,278.7,113.3,279.9,114.1c2.2,1.6,4.7,2.5,7.1,3.7C284.6,116.5,281.9,115.6,279.9,114.1z
			 M296.1,118.6c-5.3,6-7.2,6.2-13.9,1.8C289,125,290.9,124.9,296.1,118.6c3.2-3.6,6-7.8,9.1-11.7c2.9-3.5,6-6.9,8.9-10.3
			c0,0,0-0.1,0-0.3c-3,3.5-6.2,6.8-9,10.5C301.9,110.7,299.2,114.9,296.1,118.6z M278.3,74.3c0.1-0.1,0.1-0.1,0.2-0.1
			c-0.1-0.3-0.2-0.7-0.5-1.1c0.9-0.5,1.7-1,2.7-1.5c-0.9,0.5-2,1-2.8,1.5C278.1,73.5,278.2,73.9,278.3,74.3z M276.5,59.2
			c0.9,0.2,1.9,0.4,2.7,0.5c0.1,0,0.1-0.1,0.2-0.1c0.6-0.4,1.1-0.7,1.8-1.1c0.4,0,0.8-0.1,1.1-0.2c2.1,1.5,4.1,2.9,6.2,4.4
			c2,0.5,4,1,6.1,1.5c0,1,0.1,2.1,0.2,3.1c2.7,0,5.5-0.1,8.3-0.1c-2.7,0-5.5,0-8.3,0.1c0-1-0.1-2.1-0.2-3.3
			c-2.5-3.6-4.9-7.4-7.4-11.1c-0.4,0.2-0.7,0.3-0.9,0.5v0.1c0.4-0.2,0.7-0.3,0.9-0.5c2.5,3.6,4.9,7.4,7.4,11.1c-2-0.5-4-1-6.1-1.5
			v-0.1c-2.1-1.4-4.1-2.9-6.2-4.3c-0.4,0.1-0.8,0.1-1.1,0.2c-1-1-2.1-2.2-3.3-2.6c1.1,0.4,2.2,1.7,3.3,2.6c-0.6,0.4-1.1,0.7-1.8,1.1
			c0,0.1,0,0.1,0,0.1c-0.1,0-0.1,0-0.1,0c-0.9-0.2-1.8-0.4-2.7-0.5c0.1-0.3,0-0.5-0.2-0.7c1.1,0,2.3,0.1,3.4,0.2
			c0.1,0,0.1-0.1,0.1-0.1c-1.2,0-2.5-0.1-3.7-0.2l0.1,0.1c0,0,0.1,0,0.1,0c0.1,0.2,0.2,0.4,0.1,0.6c-2.1-1.6-4.1-3.2-6.3-4.8
			c0.4-1.5,0.7-3.1,1-4.6v-0.1l-0.1,0.3c-0.4,1.5-0.7,3.1-1,4.6C272.2,56.1,274.4,57.7,276.5,59.2z M275.2,44.1
			c-0.9,1.3-1.8,2.6-2.7,4C273.5,46.8,274.3,45.4,275.2,44.1z M271.8,103.6c-5.4-1.3-6.4-4-4.6-12.7c-0.3-0.1-0.5-0.1-0.8-0.2
			c0,0,0,0.1,0,0.1c-0.1,0-0.1,0-0.1,0c-0.4,0.2-0.9,0.4-1.3,0.5c0.5-0.2,0.9-0.4,1.4-0.5C264.5,100,265.6,102.6,271.8,103.6z
			 M262.9,37.7l0.4-0.1l10.8,2c4.5,0.8,7.2,3.6,7.1,7.3h0.1c0.2-3.8-2.6-6.5-7.1-7.4c-3.6-0.6-7.2-1.3-10.8-2L262.9,37.7
			c-0.3,0.1-0.7,0.4-1.1,0.6C262.2,38.1,262.5,37.9,262.9,37.7z M256.7,94.7c0.2,0.3,1.6-0.7,2.5-1.1c-0.1-0.1-0.1-0.1-0.1-0.1
			C258.3,93.9,256.9,94.9,256.7,94.7C256.7,94.6,256.7,94.7,256.7,94.7z M256.5,94.3c-1.4-1.9-2.7-3.8-3.8-5.5
			C253.7,90.5,255,92.5,256.5,94.3z"/>
		<path class="st4" d="M264.9,26.6L264.9,26.6c0.4,0,0.8,0.1,1,0.1C265.7,26.7,265.3,26.7,264.9,26.6z"/>
		<path class="st4" d="M281.2,72.9L281.2,72.9c4.5,0.1,9,0.2,13.5,0.3l0,0C290.3,73.1,285.7,73,281.2,72.9z"/>
		<path class="st4" d="M299.5,122.9L299.5,122.9c-0.3,1.8-0.5,3.7-0.8,5.9C299,126.6,299.2,124.8,299.5,122.9z"/>
		<path class="st4" d="M305.5,182.8c-0.1-1.1-0.9-2-1.3-3c-1.3,9.2-2.6,18.4-3.9,27.7c-0.1,0.6,0.3,1.3,0.5,1.9
			c0.8,3.2,1.6,6.5,2.4,9.7c6.2-0.7,3.8-6,3.8-10.1C306.5,200.2,306.1,191.5,305.5,182.8z"/>
	</g>
	<g>
		<path class="st5" d="M112.4,28.7c-1-2.6-2.1-4.9-3-7.3h0.1c0.8-2.1,1.6-4.3,2.7-6.7c-0.9,2.4-1.9,4.6-2.7,6.7c0.9,2.3,2,4.8,3,7.4
			c-3,2-5.6,3.9-7.8,5.4l0,0C107,32.5,109.5,30.7,112.4,28.7z"/>
		<path class="st5" d="M80.1,112c-0.4,0.1-0.7,0.2-1.2,0.2c0.9,6.4,1.8,12.7,2.6,19.1c0.9-0.1,2-0.2,2.9-0.3
			C83,124.7,81.6,118.3,80.1,112z"/>
		<path class="st5" d="M131.8,132.9c-1-0.9-1.9-1.5-2.4-2c3-4.5-0.5-7-2.8-9.4c-3.9-4.2-8-8.1-6.6-15h-0.1c-0.1-1.2-0.3-2.3-0.4-3.5
			c-0.4,0.2-0.8,0.4-1.2,0.5c-3.1,1.2-5.1-1.5-5.2-4.5c0,0,0-0.1,0-0.1c-0.1-1.2,0.2-2.5,0.9-3.5c0,0,0.1-0.1,0.1-0.1
			c0.5-0.7,1.1-1.2,2-1.6c3.1-1.2,5.9-3.2,8.4-5.5c1.3-1.2,2.9-1.7,4.4-1.2c0.5-2,0.6-4.3,0.5-6.8c0-0.2-0.1-0.5-0.1-0.7
			c5-3.8,6.3-6.3,4.3-9.4c-0.6,1.3-1.8,2.2-3.4,2.2c-1.3,0.1-2.6,0.9-3.9,1.4c0,0.1,0,0.1-0.1,0.2c-1.1,2.6-3.2,4.8-4.8,7.2
			c0.5,1.5,1,3,1.5,4.5c-0.5-1.4-1-3-1.5-4.4c-1.2-1.3-2.4-2.5-3.7-3.8c1.1,1,2.1,2,3.1,3c1.6-2.1,3.5-4.1,4.7-6.4c0,0,0,0-0.1,0
			c-1.9,0.5-3.9,0.7-5.8,0.8c-2,0-3.3-1.3-3.9-3c-2.2,2-6.1,1.7-6.9-2.4c-1.3-6.3-4.9-12.4-5.2-18.9c-0.1-1.2,0.1-2.3,0.4-3.4
			c-0.8-0.9-1.5-1.8-2.4-2.7c-2.7-3.3-5.4-6.6-8.1-9.9c-4.1-1-4.4,1.9-4.4,5.1c0.5,0,0.8,0,1.2,0c-0.4,0-0.8,0-1.2,0
			c-6.1,1.9-10.2,6.2-12.3,12.8c-1.3,4-2.1,8.2-3.1,12.3c0,0-0.1,0.1-0.1,0.1c-3.3,13.8-1.3,26.2,7.6,36.9h0.1
			c0.2,1.1,0.5,2.3,0.7,3.4H82c-0.5,0.7-1.2,1.4-1.8,2v4.2c1.3,2.3,2.7,5.7,2.1,9.5c-0.4,2.5-1.3,3-1.7,5.4
			c-0.2,1.1-0.2,3.6,3.4,12.5c3.3,8.3,5,8.9,5.1,13.1c0,2.1-0.4,3.2-0.6,9c-0.1,2.1-0.1,3.9-0.1,5.1c0,2.1-0.1,5-0.2,8.5
			c-0.1,1.5-0.2,8.5-1.2,17.8c-0.4,3.4-0.8,6.8-1.1,10c-0.4,2.5-0.7,4.9-1.1,7.5c-0.7,4.6-1,9.1-2.2,13.5c-1.8,6.6,0.1,9.8,6.3,10
			c0.8,0.1,1.5,0.8,2.4,1.2c3-0.9,5.9-1.9,8.9-2.5c2.6-0.5,5.3-0.4,8-0.6c-0.1-1.3-0.1-2.6-0.1-4c0-3.6,0.4-6.4,0.6-7.9
			c1.8-12.4,2.7-18.7,5.2-23.6c0.5-0.9,2.9-4.2,7.7-10.5c10.2-13.4,10-13,10.1-13.3c5.2-9.6,13.4-19.5,10.5-27.2
			C140.6,140.5,135.4,136,131.8,132.9z M115,75.4L115,75.4c-5.3,1.2-10.7,2.2-16,3.3c-0.5,0.5-1.1,0.9-1.6,1.4
			c0.5-0.5,1.1-1,1.6-1.5C104.3,77.5,109.7,76.5,115,75.4z M101.5,50.3c-0.9,1.6-2.5,3.1-2.6,4.7c0,2,0.6,4.1,1.1,6.1
			C99.4,59,98.8,57,98.8,55C98.9,53.4,100.6,51.8,101.5,50.3z M101,69.4c-0.4-2.3-0.8-4.6-1.2-6.8c0.2,0,0.4,0,0.5,0
			c0.4,2.4,0.8,4.8,1.2,7.3V70c-2-0.4-4.1-0.7-6.2-1.1c-0.1-0.2-0.1-0.3-0.2-0.5C97.2,68.8,99.1,69.1,101,69.4z M94.2,59.4
			c0.2,0.3-0.2,0.8-0.4,1.2C94.1,60.2,94.3,59.7,94.2,59.4z M92.9,60c-0.2-0.3,0.2-0.8,0.4-1.2C93.1,59.2,92.8,59.7,92.9,60z
			 M98.6,119.1c7.1,2.5,13.5,4.8,19.8,7c0.4-2.4,0.5-3.9,0.7-5.4l0,0c-0.2,1.4-0.4,2.9-0.7,5.4C112.1,124,105.6,121.7,98.6,119.1
			c-0.5,1.3-1.2,2.5-1.7,3.7C97.4,121.6,97.9,120.4,98.6,119.1z M122.8,131.2C122.7,131.2,122.7,131.2,122.8,131.2
			C122.7,131.2,122.7,131.2,122.8,131.2c-8.6-3.9-17.2-7-26.7-4.3C105.5,124.2,114.2,127.4,122.8,131.2z M87.8,105.4
			c2.7-0.2,5.3-0.4,8.1-0.6l0,0C93.1,105.1,90.5,105.3,87.8,105.4z M98.9,211.7c-1.6,2.3-3.3,4.7-5.3,7.5h-0.1
			C95.5,216.4,97.2,214.1,98.9,211.7L98.9,211.7c0,0,0.1,0,0.2,0C99,211.7,98.9,211.7,98.9,211.7z M96.4,186.3
			c-2.3-2.8-4.1-2.5-5.6,0.5c0,0,0,0,0-0.1c-0.5,1.4-1.2,2.8-2.6,6c1.4-3.2,2-4.7,2.6-6C92.4,183.7,94.2,183.4,96.4,186.3
			c1.3,1.6,2.5,3.2,3.8,4.8l0,0c0.8,2.5,1.8,4.9,2.6,7.5v0.1c-0.8-2.5-1.7-4.9-2.6-7.4C98.9,189.6,97.7,187.9,96.4,186.3z
			 M102.8,198.7c-0.5,3.9-0.8,7.7-1.2,11.6c0.4-3.9,0.7-7.7,1.1-11.5C102.7,198.8,102.7,198.8,102.8,198.7z M103.1,215.7
			c-0.5-1.4-1.1-2.8-1.6-4.2v-0.1C102.1,212.9,102.6,214.3,103.1,215.7C103.2,215.7,103.2,215.7,103.1,215.7z M104.2,163.5
			L104.2,163.5c0.2-1.4,0.7-2.9,0.8-4.1C105,160.6,104.5,162.1,104.2,163.5z M132,147.4c-10.3-1.4-20.5-2.9-30.7-4.3
			c4.9,2.9,9.9,5.8,14.8,8.8c3.4,0.4,6.8,0.8,10.2,1.3l0,0c-3.4-0.4-6.9-0.8-10.2-1.3c-4.9-2.9-9.9-5.9-14.8-8.8
			c-0.3-0.3-0.6-0.5-0.9-0.8c0.3,0.2,0.5,0.5,0.8,0.7C111.5,144.4,121.7,145.9,132,147.4L132,147.4z M121.7,143.3
			c3.9,0.6,8,0.7,11.9,1C129.7,144,125.7,143.9,121.7,143.3z M139.6,148.9c-1.9-2.4-2.7-3.4-3.5-4.4c-2.7-1.9-5.3-3.9-8-5.8
			c-2.2-1.5-4.3-2.9-6.6-4.4v-0.1c2.2,1.4,4.3,2.9,6.6,4.3c2.7,1.9,5.3,3.9,8,5.8C136.9,145.4,137.7,146.3,139.6,148.9
			C139.6,148.9,139.6,148.9,139.6,148.9z"/>
		<path class="st5" d="M114.9,158.7L114.9,158.7l0.3-1.8C115.1,157.5,115,158.1,114.9,158.7z"/>
		<path class="st5" d="M107.5,193.7c0.3,0.2,0.5,0.3,0.7,0.5C108,194.1,107.7,193.9,107.5,193.7z"/>
		<path class="st5" d="M99.9,232.4c-3,0.6-5.9,1.6-8.9,2.5c0.2,0.4,0.6,0.9,1.2,1.4c3,2.9,6.2,1.2,13.3,1.7c4.8,0.4,7.6,1.6,8.9-0.2
			c0.1-0.1,0.6-0.9,0.5-1.9c-0.2-2-3-3.8-7-4.2C105.3,232.1,102.6,232,99.9,232.4z"/>
		<path class="st5" d="M88.4,160.5c0.5-0.5,0.7-1.1,1.1-1.6C89.2,159.4,88.8,160,88.4,160.5z"/>
	</g>
	<g>
		<path class="st4" d="M325.2,102.1c-3.4-1.5-5.8-0.1-7.6,2.3c3.1,0.2,6.3,1,9.2,2.4C326.3,105.2,325.7,103.6,325.2,102.1z"/>
		<path class="st4" d="M263.9,13.8c-0.4,1-0.7,2-0.9,2.6c-0.8,2.7-0.9,5.5-0.8,8.3c0.7-0.7,1.3-1.3,2.1-2
			C264.3,19.7,264.4,16.6,263.9,13.8z"/>
		<path class="st4" d="M249.5,66.6c0-5.5,1.5-10.6,3.8-15.4c1.3,1.3,1.7,4,0.7,8.8c0-0.1,0.1-0.1,0.1-0.2c1-4.8,0.6-7.4-0.8-8.7
			c0.1-0.3,0.3-0.5,0.4-0.8c1.4-2.7,2.9-5.4,4.4-8.2c0.5-0.9,0.9-1.8,1.4-2.8c1.2-0.7,2.4-1.3,3.6-1.9l0.4-0.1l10.8,2
			c4.5,0.8,7.2,3.6,7.1,7.3h0.1c0.2-3.8-2.6-6.5-7.1-7.4c-3.6-0.6-7.2-1.3-10.8-2l-0.4,0.1c-1.2,0.6-2.4,1.2-3.6,1.8
			c0.7-1.3,1.2-2.7,1.7-4.1c1.1-3.2,1-6.6,1-9.9c0.7-0.7,1.3-1.4,2.1-2.1c0-0.1,0-0.2,0-0.3c1.5-0.8,1.6-4.4,2.8-5.5
			c-1.5,1.1-1.3,4.7-2.8,5.5c0.1-3,0.3-6.1-0.4-8.8c0.9-2.3,2.1-5,3.5-6.8c-0.6,1.2-1.1,2.6-2,4.6c2,0.5,3.9,1,5.7,1.4
			c-0.3,2-0.7,4-0.8,6c-0.2,4,3.1,5.5,5.8,4.6c0.5,0.6,1,1.3,1.5,2c0.1-0.1,0.1-0.1,0.2-0.2c-0.5-0.7-1-1.3-1.5-2
			c1.6-0.6,2.9-2.1,3-4.5c0-1,0.1-1.9,0.2-2.8c1.7,5.4,1.2,11.3,0.7,17.3c-0.1,0-0.1,0-0.1,0c11.4,2.2,20.6,9,28.2,18.9
			c-0.9,1-1.3,2.6-0.7,4.5c1.2,3.5,2,6.6,1.9,10.4c0,2.7-0.5,5.5,0.2,8.1c0.2,1.1,0.6,1.9,1,2.7c0.5,3.2,1,6.4,1.6,10
			c0-0.1,0.1-0.1,0.1-0.1c-0.6-3.4-1.1-6.6-1.6-9.7c2.1,3.3,6,3.9,8.8,7c1.2,1.3,2.4,2.7,3.4,4.2c-0.3,1.8-0.6,3.7-0.9,5.5h0.1
			c0.3-1.8,0.6-3.6,0.9-5.4c4.8,6.6,8.4,14.5,12.9,21.2c2.4,3.6,5.3,7.6,6.4,11.9c0.1,0.3,0.3,0.5,0.4,0.8c-1.6-0.5-1.9,1.2-3.1-0.8
			c-1.3-2.2-1.5-5.2-3-7.5c-1.5-2.3-3.4-4.2-5.5-5.8c-1.3-1.1-2.7-1.9-4.2-2.6l-1.6-4.8c-0.2-2.1,0.8-4.8-0.7-6.1
			c1.3,1.3,0.4,4,0.6,6c-3.6-1.5-5.9-0.1-7.8,2.5c-0.9-0.1-1.6-0.1-2.5-0.1c-2.1,0.1-3.4,1.4-4,3c-0.3,0.2-0.7,0.5-0.9,0.8
			c-0.9,0.9-1.3,2.1-1.3,3.5c0,0.7,0.1,1.5,0.3,2.2c0.1,0.4,0.3,0.8,0.5,1.2c-0.4,0.4-0.7,0.9-1,1.3c-1.7,2.9-3.4,5.8-5,8.7
			c-1.4,2.4-2.9,4.9-5.2,8.5c0,0,0,0.1,0,0.2c2.2-3.8,3.8-6.1,5.2-8.5c1.7-2.9,3.3-5.8,5-8.7c-0.1,2.5-0.3,4.9-0.4,7.3
			c-0.8,7.3-1.5,14.5-2.4,21.8c-0.4,3-0.9,5.9-1.2,8.9c-0.4,1.9-0.7,3.9-0.9,5.8v3c0.8,1.1,1.4,2.1,2.1,3.3v7.2h0.1
			c-0.4,0.5-0.7,1-0.9,1.5c-0.1-0.5-0.2-0.9-0.2-1.4h-0.1c0,0.4,0.1,1,0.1,1.5c-0.1,1.5-0.2,2.9-0.3,4.4c-1.3,9.2-2.6,18.4-3.9,27.6
			c0,0.5,0.3,1.3,0.5,1.9c0.8,3.2,1.6,6.5,2.4,9.7c-2.6,1.5-5.2,3-7.8,4.5c0.2,1.7,0.3,4.6-0.6,8.1c-0.5,0.7-0.8,1.6-1,2.5
			c-0.2,0.3-0.4,0.6-0.6,0.9c-0.8,1.6-1.6,3.1-2.5,4.7c-0.2,0.2-0.3,0.4-0.5,0.5c-0.6,0.1-1.2,0.2-2,0.2c-1.7,0-3-0.4-3.9-0.8
			c-0.6-0.4-1.2-0.9-1.8-1.3c-0.2-0.4-0.4-0.8-0.6-1.1c0.5-1,1.5-2.9,2.8-5.6c1.2-2.5,2.3-4.1,2.9-6.6c0.1-0.4,0.2-0.8,0.4-1.2h-0.1
			c-1.3-5-2.6-10.1-3.9-15.1c0-1.4-0.1-2.8-0.3-4.2c-0.4-3.4-0.7-6.9-1-10.3c2.9,1.9,5.9,3.7,10.3,6.5c0-0.1-0.1-0.1-0.1-0.2
			c-4.4-2.8-7.3-4.6-10.1-6.4c-0.5-3.3-0.9-6.6-1.3-9.8c-0.9-7.4-1.7-14.8-2.6-22.3c-0.1-0.5-0.2-1-0.3-1.5
			c0.5-6.7,1.5-13.6,1.4-20.4c0-5.5-1.5-10.9-2.3-16.3c-1.2-2.5-2.5-4.9-3.7-7.3v-2.8c1.1-1.2,1.5-2.7,1.2-4.2
			c0.3-0.4,0.5-0.7,0.8-1l-0.1-0.1c7.9-10.9,15.8-22,23.6-32.9c-0.1,0-0.1,0-0.1,0c-8,10.9-15.8,22-23.6,32.9
			c-0.3,0.3-0.5,0.6-0.8,0.9c-0.6-2.9-3.5-5.4-6.6-3.5c-0.7,0.4-4.3-3.2-5-3.6c-2.4-1.2-5.6-0.1-7.7-1.3c-3.2-1.8-3.6-8-4-12
			c0.2-0.2,0.3-0.5,0.5-0.7l-0.1-0.1c-0.1,0.2-0.2,0.4-0.4,0.6c0-0.4-0.1-0.8-0.1-1.1c-0.8-6.4-2.3-12.8-2.5-19.3
			c1-0.4,1.9-0.7,2.9-1c-1,0.3-1.9,0.6-2.9,0.9C249.6,67.7,249.5,67.2,249.5,66.6z M269.2,30.3L269.2,30.3c0.3,1.3,0.9,2.7,1.2,4
			C270,33,269.5,31.7,269.2,30.3z M273.1,30.1c0.1,0,0.2-0.1,0.2-0.1c1.6-1,2.9-2.8,4.3-4.2C276.1,27.3,274.8,29.1,273.1,30.1z
			 M300.1,149.6c-0.1,0.6-0.3,1.3-0.5,1.9C299.9,150.9,300,150.3,300.1,149.6z M272.8,47.6c0.6-0.8,1.1-1.6,1.6-2.4
			C273.8,46.1,273.3,46.9,272.8,47.6z M301,74.1c2,0.5,3.9,1,5.9,1.4C305,75,303,74.5,301,74.1z M287.9,177.9
			c1.4-2.2,2.7-4.4,4.1-6.6C290.6,173.3,289.2,175.7,287.9,177.9c-0.5-0.5-1.1-0.9-1.7-1.4c1.8-3.1,3.5-6.2,5.2-9.4
			c-1.7,3.1-3.5,6.2-5.2,9.4C286.7,177,287.3,177.4,287.9,177.9z M289.7,162.5c2.3-2,4.2-4.5,6.3-6.7c-0.5,1.9-0.9,4-1.7,5.7
			c0.9-1.6,1.2-3.7,1.7-5.7c-0.4-1-0.9-1.9-1.3-2.9c0.4,1,0.9,1.9,1.2,2.9C293.9,158,291.9,160.6,289.7,162.5
			c-2.2,1.8-4.5,3.3-6.4,1.9C285.4,166,287.6,164.4,289.7,162.5z M280.1,113.7c-1.1-1-2-2.4-2.8-3.7
			C278.1,111.4,278.9,112.9,280.1,113.7c2.2,1.6,4.7,2.5,7.1,3.7C284.8,116.1,282.1,115.2,280.1,113.7z M296.2,118.2
			c-5.3,6-7.2,6.2-13.9,1.8c6.8,4.6,8.7,4.5,14-1.7c3.1-3.7,5.9-7.9,9-11.8c2.9-3.5,6-6.9,8.9-10.3c0.1-0.1,0.1-0.2,0-0.3
			c-3,3.5-6.2,6.8-9,10.5C302,110.3,299.3,114.5,296.2,118.2z M278.5,73.9c0.1-0.1,0.1-0.1,0.2-0.1c-0.2-0.4-0.2-0.7-0.5-1.1
			c0.9-0.5,1.7-1,2.7-1.5c-0.9,0.5-2,1-2.8,1.5C278.3,73.1,278.3,73.5,278.5,73.9z M276.6,58.8c0.9,0.2,1.9,0.4,2.7,0.5
			c0.1,0,0.1-0.1,0.2-0.1c-0.1,0-0.1,0-0.1,0c0.6-0.4,1.1-0.7,1.8-1.1c0.4,0,0.8-0.1,1.1-0.2c2.1,1.5,4.1,2.9,6.2,4.4
			c2,0.5,4,1,6.1,1.5c0,1,0.1,2.1,0.2,3.1c2.8,0,5.6-0.1,8.3-0.1c-2.7,0-5.5,0-8.3,0.1c0-1.1,0-2.1-0.2-3.3
			c-2.5-3.6-4.9-7.4-7.4-11.1c-0.4,0.2-0.7,0.3-0.9,0.5v0.1c0.4-0.2,0.7-0.3,0.9-0.5c2.5,3.6,4.9,7.4,7.4,11.1c-2-0.5-4-1-6.1-1.5
			v-0.1c-2.1-1.4-4.1-2.9-6.2-4.3c-0.4,0.1-0.8,0.1-1.1,0.2c-1-1-2.1-2.2-3.3-2.6c1.1,0.4,2.2,1.7,3.3,2.6c-0.6,0.4-1.1,0.7-1.8,1.1
			c0,0.1,0,0.1,0,0.1c-0.9-0.2-1.8-0.4-2.7-0.5c0.1-0.3,0-0.5-0.2-0.7c1.1,0,2.3,0.1,3.4,0.2c0.1,0,0.1-0.1,0.1-0.1
			c-1.2,0-2.5-0.1-3.7-0.2l0.1,0.1c0,0,0.1,0,0.1,0c0.1,0.2,0.2,0.4,0.1,0.6c-2.1-1.6-4.1-3.2-6.3-4.8c0.4-1.5,0.7-3.1,1-4.6v-0.1
			l-0.1,0.3c-0.4,1.5-0.7,3.1-1,4.6C272.4,55.7,274.6,57.3,276.6,58.8z M256.9,94.2c0.2,0.3,1.6-0.7,2.5-1.1
			c2.4-0.9,4.7-1.8,7.2-2.8c-1.9,9.2-0.9,11.8,5.4,12.9c-5.4-1.4-6.4-4-4.6-12.7c-0.3-0.1-0.5-0.1-0.8-0.2c-0.1,0-0.1,0-0.1,0
			c-2.4,1-4.8,1.8-7.1,2.8c-0.1,0-0.1,0-0.1-0.1C258.5,93.4,257.1,94.4,256.9,94.2C256.9,94.1,256.9,94.2,256.9,94.2z M256.7,93.9
			c-1.4-1.9-2.7-3.8-3.8-5.5C253.9,90.1,255.2,92.1,256.7,93.9z"/>
		<path class="st4" d="M265.1,26.2L265.1,26.2c0.4,0,0.8,0.1,1,0.1C265.8,26.3,265.5,26.3,265.1,26.2z"/>
		<path class="st4" d="M281.4,72.5L281.4,72.5c4.5,0.1,9,0.2,13.5,0.3l0,0C290.4,72.7,285.8,72.6,281.4,72.5z"/>
		<path class="st4" d="M299.7,122.5L299.7,122.5c-0.3,1.8-0.5,3.7-0.8,5.9C299.2,126.2,299.4,124.3,299.7,122.5z"/>
		<path class="st4" d="M305.6,182.4c-0.1-1.1-0.9-2-1.3-3c-1.3,9.2-2.6,18.4-3.9,27.7c-0.1,0.6,0.3,1.3,0.5,1.9
			c0.8,3.2,1.6,6.5,2.4,9.7c6.2-0.7,3.8-6,3.8-10.1C306.7,199.8,306.3,191.1,305.6,182.4z"/>
	</g>
	<g>
		<path class="st4" d="M325,102.8c-3.1-1.3-5.3-0.3-7,1.7c2.8,0.2,5.7,0.9,8.3,2.1C325.9,105.3,325.4,104,325,102.8z"/>
		<path class="st4" d="M263.6,14.4c-0.3,0.8-0.5,1.5-0.7,2c-0.9,2.9-0.9,5.8-0.8,8.8c0.6-0.6,1.2-1.2,1.9-1.8
			C264,20.3,264.2,17.2,263.6,14.4z"/>
		<path class="st4" d="M266.1,12c1.7,0.4,3.3,0.8,4.9,1.2c0.1-1,0.3-1.9,0.3-2.9c0.1-1.5-0.1-2.5-0.7-3.6c-0.7-0.2-1.3-0.5-2-0.7
			C268,7.5,267.5,9.1,266.1,12z"/>
		<path class="st6" d="M249.9,69.2c-0.1-0.8-0.1-1.7-0.1-2.5c0-5.3,1.3-10.2,3.5-14.8c1.4,1.2,1.8,3.9,0.8,8.9
			c0-0.1,0.1-0.1,0.1-0.2c1-4.9,0.6-7.6-0.9-8.8c0.2-0.5,0.5-0.9,0.7-1.4c1.3-2.6,2.7-5.1,4.1-7.7c0.9,1.1,1.6,2.2,2.5,3.4
			c-0.9-1.3-1.7-2.4-2.5-3.5c0.5-0.9,0.9-1.7,1.3-2.6c1.2-0.7,2.6-1.3,3.8-2l0.4-0.1l10.8,2c4.5,0.8,7.2,3.6,7.1,7.3h0.1
			c0.2-3.8-2.6-6.5-7.1-7.4c-3.6-0.6-7.2-1.3-10.8-2l-0.4,0.1c-1.2,0.6-2.6,1.3-3.8,1.9c0.8-1.6,1.5-3.2,2.1-4.9c1-3,1-6.2,1-9.3
			c0.6-0.6,1.2-1.3,1.9-1.9c0-0.2,0-0.3,0-0.5c1.2-1.1,1.4-4.2,2.5-5.3c-1.4,1-1.4,4.2-2.5,5.3c0.1-2.9,0.2-5.9-0.5-8.7
			c0.9-2.5,2.3-5.8,3.9-7.7c-0.6,1.4-1.2,3-2.4,5.6c2,0.5,4,1,5.8,1.4c-0.3,1.7-0.6,3.4-0.7,5.2c-0.1,3.6,2.7,5.2,5.2,4.7
			c0.7,0.9,1.2,1.7,1.9,2.6c0.1-0.1,0.1-0.1,0.2-0.2c-0.7-0.8-1.2-1.7-1.9-2.5c1.8-0.4,3.5-2,3.6-4.7c0-0.5,0.1-1.1,0.1-1.7
			c1.6,5.4,1.1,11.2,0.6,17c-0.1,0-0.1,0-0.1,0c11.3,2.2,20.4,8.9,28,18.7c-0.7,1-0.9,2.4-0.3,4c1.2,3.5,2,6.6,1.9,10.4
			c0,2.7-0.5,5.5,0.2,8.1c0.1,0.7,0.3,1.3,0.6,1.8c0.6,3.7,1.1,7.4,1.9,11.6c0-0.1,0.1-0.1,0.1-0.1c-0.8-4-1.3-7.6-1.9-11.2
			c2,4.1,6.3,4.5,9.3,7.8c1.1,1.3,2.3,2.6,3.3,4.1c-0.4,2.1-0.7,4.2-1,6.3h0.1c0.3-2.1,0.7-4.1,0.9-6.2c4.3,6.7,8.6,13.8,12.9,21.3
			c2.6,4.5,5,8.9,7.3,13.2c-1.6-0.5-1.9,1.2-3.1-0.8c-1.3-2.2-1.5-5.2-3-7.5s-3.4-4.2-5.5-5.8c-1.5-1.2-3.1-2.1-4.7-2.8
			c-0.5-1.3-0.9-2.6-1.3-3.9c-0.2-2.1,0.8-4.8-0.7-6.1c1.3,1.3,0.4,4,0.6,6c-3.2-1.4-5.4-0.3-7.2,1.8c-0.9-0.1-1.8-0.1-2.7-0.1
			c-2.1,0.1-3.4,1.4-4,3c-0.3,0.2-0.7,0.5-0.9,0.8c-0.9,0.9-1.3,2.1-1.3,3.5c0,0.7,0.1,1.5,0.3,2.2c0.1,0.5,0.3,1,0.6,1.5
			c-0.5,0.6-0.9,1.1-1.4,1.7c-1.7,2.9-3.4,5.8-5,8.7c-1.4,2.4-2.9,4.9-5.2,8.5c0,0,0,0.1,0,0.2c2.2-3.8,3.8-6.1,5.2-8.5
			c1.7-2.9,3.3-5.8,5-8.7c-0.1,2.5-0.3,4.9-0.4,7.3c-0.8,7.3-1.5,14.5-2.4,21.8c-0.2,1.5-0.4,3-0.6,4.5c-0.6,4.4-0.6,4.4-0.6,4.4
			c-0.4,3.7,0.6,5,1.3,10.2c0.1,0.5,0.5,3.9,0.3,7.7c-0.2,5-1.2,8.6-1.6,9.9c-3.9,15.1,3,31.2-5.1,38.5c-0.7,0.6-1.9,1.6-3.9,2.2
			c0,1,0,2-0.1,3.2c-0.3,2.7-1,5-1.6,6.6c-1.4,2.5-2.8,4.9-4.2,7.4c-2.7,1.1-5.5,0.5-7-1.3c-0.9-1.1-1.1-2.5-1.2-3.2
			c1-1.5,2-3.1,3-4.8c1.5-2.6,2.8-5.1,3.8-7.5h-0.1c-1.3-5-2.6-10.1-3.9-15.1c0-1.4-0.1-2.8-0.3-4.2c-0.4-3.4-0.7-6.9-1-10.3
			c-0.6-4.2-1-7.7-1.2-9.9c-0.9-8.3-0.9-13.6-2.6-22.3c-0.1-0.5-0.2-1-0.3-1.5c0.5-6.7,1.5-13.6,1.4-20.4c0-5.5-1.5-10.9-2.3-16.3
			c-1.1-3.9-2.2-7.7-3.4-11.6c0.3,0.1,0.4,0.1,0.6,0c0.6-0.2,0.9-1.4,0.6-2.9c0.2-0.3,0.4-0.5,0.6-0.7l-0.1-0.1
			c7.9-10.9,15.8-22,23.6-32.9c-0.1,0-0.1,0-0.1,0c-8,10.9-15.8,22-23.6,32.9c-0.2,0.2-0.3,0.4-0.5,0.6c-0.5-3.1-3.5-5.8-6.7-3.9
			c-0.7,0.4-4.3-3.2-5-3.6c-2.4-1.2-5.6-0.1-7.7-1.3c-3.1-1.8-3.6-7.7-4-11.7c0,0,0.1-0.1,0.1-0.1c1,1.7,2.3,3.6,3.7,5.3
			c-1.4-1.8-2.6-3.7-3.7-5.3c0.1-0.1,0.1-0.2,0.2-0.3l-0.1-0.1c-0.1,0.1-0.1,0.2-0.2,0.2c0,0,0,0,0,0c0,0,0,0,0,0.1c0,0,0,0,0,0
			c-0.1-0.6-0.1-1.1-0.2-1.5C251.7,81.5,250.3,75.5,249.9,69.2c0.9-0.2,1.9-0.5,2.8-0.9v-0.1C251.8,68.6,250.9,68.8,249.9,69.2z
			 M269,31.1L269,31.1c0.3,1.3,0.9,2.7,1.2,4C269.8,33.7,269.3,32.4,269,31.1z M273.1,30.7c0.1,0,0.2-0.1,0.2-0.1
			c1.6-1,2.9-2.8,4.3-4.2C276.1,27.9,274.8,29.7,273.1,30.7z M299.9,150.3c-0.1,0.6-0.3,1.3-0.5,1.9
			C299.7,151.6,299.9,151,299.9,150.3z M272.6,48.4c0.9-1.3,1.7-2.7,2.7-4C274.3,45.7,273.4,47,272.6,48.4z M300.8,74.8
			c2,0.5,3.9,1,5.9,1.4C304.8,75.7,302.8,75.2,300.8,74.8z M287.7,178.6c1.4-2.2,2.7-4.4,4.1-6.6C290.4,174,289.1,176.4,287.7,178.6
			c-0.5-0.5-1.1-0.9-1.7-1.4c1.8-3.1,3.5-6.2,5.2-9.4c-1.7,3.1-3.5,6.2-5.2,9.4C286.5,177.7,287.2,178.1,287.7,178.6z M289.5,163.2
			c2.3-2,4.2-4.5,6.3-6.7c-0.5,1.9-0.9,4-1.7,5.7c0.9-1.6,1.2-3.7,1.7-5.7c-0.4-1-0.9-1.9-1.3-2.9c0.4,1,0.9,1.9,1.2,2.9
			C293.7,158.7,291.7,161.3,289.5,163.2c-2.2,1.8-4.5,3.3-6.4,1.9C285.2,166.7,287.4,165.1,289.5,163.2z M279.9,114.4
			c-1.1-1-2-2.4-2.8-3.7C277.9,112.1,278.7,113.6,279.9,114.4c2.2,1.6,4.7,2.5,7.1,3.7C284.6,116.8,281.9,115.9,279.9,114.4z
			 M296,118.9c-5.3,6-7.2,6.2-13.9,1.8C288.9,125.3,290.8,125.2,296,118.9c3.2-3.6,6-7.8,9.1-11.7c2.9-3.5,6-6.9,8.9-10.3
			c0.1-0.1,0.1-0.1,0-0.3c-3,3.5-6.2,6.8-9,10.5C301.8,111,299.1,115.2,296,118.9z M278.3,74.6c0.1-0.1,0.1-0.1,0.2-0.1
			c-0.2-0.4-0.3-0.7-0.5-1.1c0.9-0.5,1.7-1,2.7-1.5c-0.9,0.5-2,1-2.8,1.5C278.1,73.8,278.2,74.2,278.3,74.6z M276.5,59.5
			c0.9,0.2,1.9,0.4,2.7,0.5c0.1,0,0.1-0.1,0.2-0.1c-0.1,0-0.1,0-0.1,0h0c0.6-0.4,1.1-0.7,1.8-1.1c0.4,0,0.8-0.1,1.1-0.2
			c2.1,1.5,4.1,2.9,6.2,4.4c2,0.5,4,1,6.1,1.5c0,1,0.1,2.1,0.2,3.1c2.8,0,5.6-0.1,8.3-0.1c-2.7,0-5.5,0-8.3,0.1c0-1.1,0-2.1-0.2-3.3
			c-2.5-3.6-4.9-7.4-7.4-11.1c-0.4,0.2-0.7,0.3-0.9,0.5v0.1c0.4-0.2,0.7-0.3,0.9-0.5c2.5,3.6,4.9,7.4,7.4,11.1c-2-0.5-4-1-6.1-1.5
			v-0.1c-2.1-1.4-4.1-2.9-6.2-4.3c-0.4,0.1-0.8,0.1-1.1,0.2c-1-1-2.1-2.2-3.3-2.6c1.1,0.4,2.2,1.7,3.3,2.6c-0.6,0.4-1.1,0.7-1.8,1.1
			c0,0.1,0,0.1,0,0.1c-0.9-0.2-1.8-0.4-2.7-0.5c0.1-0.3,0-0.5-0.2-0.7c1.1,0,2.3,0.1,3.4,0.2c0.1,0,0.1-0.1,0.1-0.1
			c-1.2,0-2.5-0.1-3.7-0.2l0.1,0.1c0,0,0.1,0,0.1,0c0.1,0.2,0.2,0.4,0.1,0.6c-2.1-1.6-4.1-3.2-6.3-4.8c0.4-1.5,0.7-3.1,1-4.6v-0.1
			l-0.1,0.3c-0.4,1.5-0.7,3.1-1,4.6C272.2,56.4,274.4,58,276.5,59.5z M271.8,103.9c-5.4-1.4-6.4-4-4.6-12.7
			c-0.3-0.1-0.5-0.1-0.8-0.2c0,0,0,0.1,0,0.1c-0.1,0-0.1,0-0.1,0c-0.4,0.2-0.9,0.4-1.3,0.5c0.5-0.2,0.9-0.4,1.4-0.5
			C264.5,100.3,265.6,102.9,271.8,103.9z M256.7,95c0.2,0.3,1.6-0.7,2.5-1.1c-0.1-0.1-0.1-0.1-0.1-0.1
			C258.3,94.2,256.9,95.2,256.7,95C256.7,94.9,256.7,95,256.7,95z"/>
		<path class="st4" d="M264.9,26.9L264.9,26.9c0.4,0,0.8,0.1,1,0.1C265.7,27,265.3,27,264.9,26.9z"/>
		<path class="st4" d="M281.2,73.2L281.2,73.2c4.5,0.1,9,0.2,13.5,0.3l0,0C290.2,73.4,285.6,73.3,281.2,73.2z"/>
		<path class="st4" d="M299.5,123.2L299.5,123.2c-0.3,1.8-0.5,3.7-0.8,5.9C299,126.9,299.2,125,299.5,123.2z"/>
		<path class="st4" d="M305.4,183.1c-0.1-1.1-0.9-2-1.3-3c-1.3,9.2-2.6,18.4-3.9,27.7c-0.1,0.6,0.3,1.3,0.5,1.9
			c0.8,3.2,1.6,6.5,2.4,9.7c6.2-0.7,3.8-6,3.8-10.1C306.5,200.5,306.1,191.8,305.4,183.1z"/>
	</g>
	<g>
		<path class="st3" d="M92.9,35.1c2.8,3.3,5.5,6.6,8.3,9.9c0,0,0,0,0-0.1c1.3,1.4,2.5,2.8,3.8,4.2c2-1.8,3.8-3.9,5.9-5.5
			c1-0.8,3-0.6,3.4-1.5c4.1-7.8,5.6-16.1,3-24.9v-0.1c-0.2-0.9-0.4-1.7-0.5-2.6c-3.2-2.5-6.1-6.6-9.5-7.2
			c-12.9-2.2-19.2,8.4-14.4,23.1C92.9,32,92.9,33.5,92.9,35.1z M112.1,14.6c-1,2.4-1.9,4.5-2.8,6.7c1,2.3,2,4.7,3.1,7.3
			c-3.1,2-5.7,3.9-8.1,5.4l0,0c2.4-1.5,5.1-3.4,8-5.4c-1.1-2.6-2.1-4.9-3.1-7.3h0.1C110.2,19.1,111.1,17,112.1,14.6z"/>
		<path class="st3" d="M84.3,129.7c-2.8-14.8-4.4-18.6-5.3-18.5c-1.1,0.1-2.3,6.1-0.4,11.3C80.1,127,83.3,129.1,84.3,129.7z"/>
		<path class="st3" d="M145.3,144.2c-1.6-3.5-3.9-4.4-11.7-10.4c-1.8-1.3-3.2-2.5-4.1-3.2c0.9-1.4,1.2-2.5,1.2-3.6
			c-0.2-2.5-2.1-3.6-4.1-5.8c-2.7-3-4-8.1-6.7-18.2c-0.5-1.8-0.8-3.3-1-4.2c0-0.1,0-0.1,0-0.2c7.5-3.3,11-9.4,10.6-18.5
			c0-0.2-0.1-0.5-0.1-0.7c4.6-2.6,6.3-7,5.4-9c-0.9-1.9-5.1-2.7-9.5-0.2c0.4,0.8,0.9,2.1,0.8,3.7c-0.1,3-2.1,5.7-5,7.2
			c0.5,1.5,1.1,3,1.6,4.4c-0.5-1.4-1-3-1.6-4.4c-1.3-1.3-2.5-2.5-3.8-3.8c1.1,1,2.2,2,3.2,3c3-0.5,5.1-3.5,5-6.7
			c-0.1-3.4-2.6-5.9-5.5-6.2c-2.7-0.3-5.3,1.6-6.3,4.5c-2-4.3-4.1-8.5-6.1-12.8c-1-3.5-1.9-6.9-3-10.3c-1.3-1.5-2.6-2.8-3.8-4.3
			c-2.8-3.3-5.5-6.6-8.3-9.9c-4.2-1-4.6,1.9-4.6,5.1c0.5,0,0.8,0,1.3,0c-0.4,0-0.8,0-1.3,0c-6.2,1.9-10.5,6.2-12.6,12.8
			c-1.4,4-2.1,8.2-3.2,12.3c3.1,5.4,5.4,11.5,9.2,16.2c2.5,3.2,7.1,4.7,10.8,6.9c0,0,0,0.1-0.1,0.1c-3.7-2.2-8.2-3.8-10.8-7
			c-3.8-4.7-6.2-10.7-9.2-16.2C68.7,76.2,70,82.9,72,86.9c4.5,9,5.4,11.3,7.1,15.9c0.2,0.5,0.6,1.7,0.7,3.3c0.1,2.2-0.4,4-0.9,5.2
			c1.4,5.8,2.7,11.7,4.1,17.5c0.5,0.4,0.9,0.7,1.3,1c3.3-1.2,6.5-2.5,9.9-3.7c0.3-0.5,0.5-0.9,0.7-1.4c-0.3,0.5-0.5,1-0.7,1.5h0.1
			c-3.3,1.2-6.5,2.5-9.8,3.7c6.3,4.9,13.7,8.5,20.7,11.8c1,0.5,2,1,3.1,1.5c3,1.3,6.4,3.4,8.7,7.2c0.2,0.3,0.3,0.5,0.5,0.8
			c0.5,1.2,1.1,3,1,5.1c-0.1,3.4-1.8,5.7-3.4,8c-4.2,6-6.7,9.4-7.9,11.3c-1.8,2.9-4,7.4-5.1,14.4c0.1,2.4,0.2,4.8,0.3,7.3
			c0,0.1,0,0.1,0.1,0.2c0,2.6,0,5.3,0,7.9c0,2.5,0,5.1-0.1,7.6c0.5,1.7,1.8,3,3.3,3.3c2.3,0.4,3.7-1.5,3.8-1.6
			c0.3-0.9,0.5-1.8,0.8-2.7s0.5-1.8,0.7-2.7c0.9-4,1.9-8.1,2.8-12.1c2.6-1.3,5.9-1.8,7.6-4.2c5.3-7,10-14.6,14.9-21.9
			c2.8-4.4,5.5-8.7,8.1-13c0.7-1.2,2-3.8,2.1-7.3C146.6,149.6,146.6,147,145.3,144.2z M140.9,148.7c-1.8,2.3-4.5,2.7-8.3,1.3v-0.1
			C136.3,151.2,139,150.8,140.9,148.7z M118.4,125.8c0.4-2.4,0.5-3.9,0.7-5.3l0,0C118.9,121.9,118.8,123.4,118.4,125.8
			c-6.5-2.1-13.1-4.4-20.4-6.9c-0.6,1.2-1.2,2.4-1.7,3.6c0.5-1.2,1.1-2.4,1.7-3.6C105.3,121.3,111.9,123.6,118.4,125.8z M98.7,97.6
			c5.5,0.5,11,1,16.6,1.6C109.7,98.7,104.2,98.2,98.7,97.6z M115,75.3L115,75.3c-5.5,1.2-11,2.2-16.5,3.3c-0.5,0.5-1.2,0.9-1.6,1.4
			c0.5-0.5,1.1-1,1.6-1.5C103.9,77.4,109.5,76.3,115,75.3z M101.1,50.2c-1,1.5-2.6,3.1-2.7,4.6c0,2,0.6,4.1,1.2,6.1
			c-0.5-2.1-1.3-4.1-1.2-6.1C98.4,53.3,100.1,51.7,101.1,50.2z M100.7,69.2c-0.4-2.3-0.8-4.5-1.2-6.8c0.2,0,0.4,0,0.5,0
			c0.4,2.4,0.9,4.8,1.3,7.3v0.1c-2.1-0.4-4.2-0.7-6.3-1.1c-0.1-0.2-0.1-0.3-0.2-0.5C96.7,68.6,98.7,69,100.7,69.2z M93.7,59.3
			c0.2,0.3-0.2,0.8-0.4,1.2C93.4,60,93.8,59.6,93.7,59.3z M92.2,59.8c-0.2-0.3,0.2-0.8,0.4-1.2C92.5,59.1,92.2,59.6,92.2,59.8z
			 M91.4,94.3c8.1,1.4,16.3-1.6,24.1,1.7c0,0.4-0.1,0.8-0.2,1.3c0-0.4,0.1-0.8,0.1-1.2C107.7,92.7,99.4,95.6,91.4,94.3
			c0,0.9-0.1,1.8-0.2,2.6l0,0C91.2,96,91.3,95.1,91.4,94.3z M87,105.2c2.7-0.2,5.5-0.4,8.3-0.6l0,0C92.5,104.9,89.8,105,87,105.2z
			 M95.6,126.7c9.7-2.8,18.6,0.4,27.4,4.3h-0.1l0,0C114.1,127,105.3,124,95.6,126.7z M121.6,133.8c2.2,1.4,4.4,2.9,6.8,4.3
			c2.8,1.9,5.4,3.9,8.2,5.8c0.9,1.1,1.7,2,3.7,4.5h-0.1c-1.9-2.4-2.8-3.4-3.6-4.4c-2.8-1.9-5.4-3.9-8.2-5.8
			C126.2,136.8,123.8,135.4,121.6,133.8L121.6,133.8z M121.9,142.9c4,0.6,8.1,0.7,12.3,1C130.2,143.7,126,143.6,121.9,142.9z
			 M107.3,211.5c0.2-0.8,0.1-1.8-0.5-3.2c0,0,0,0,0.1,0C107.4,209.7,107.5,210.7,107.3,211.5z M143.2,155.8c-3.1,2-6.2,4-9.4,6
			c-1,0.9-1.9,1.8-2.9,2.7c0,0-0.1,0-0.1,0.1c-2.9,0.8-7.9-2.6-7.8,4.3c0,0-0.1,0-0.1,0.1c-5.5,4.2-11.1,8.4-16.4,12.3
			c-0.1,0-0.1,0-0.2,0c5.2-4,10.9-8.2,16.7-12.5c-0.1-7.2,5.1-3.5,8.1-4.4c1-0.9,1.9-1.8,2.9-2.7C136.9,159.6,140,157.7,143.2,155.8
			c0-0.1,0.1,0,0.2,0H143.2z"/>
		<path class="st3" d="M107.3,193.2c0.3,0.2,0.5,0.3,0.7,0.5C107.7,193.6,107.5,193.4,107.3,193.2z"/>
	</g>
	<path class="st3" d="M343.4,122.5C343.3,122.5,343.3,122.5,343.4,122.5c-1.6-3.4-3.2-6.6-4.8-9.9c-0.4-1.6-0.8-3-1.2-4.5
		c-1.3-0.8-2.7-1.6-3.9-2.3c1.2,0.7,2.6,1.6,3.9,2.3c-0.8-2.9-1.5-5.8-2.3-8.7c-2.4-4.4-4.8-8.8-7.3-13.2c-0.4-0.1-1.1-0.4-1.8-0.9
		c-3.3-2.2-2.8-5.8-5.6-7.3c-0.8-0.4-1.7-0.5-3.6-0.8c-2-0.3-2.7-0.1-3.7-0.8c-0.2-0.1-1.2-0.9-1.5-2.3c-0.1-0.3-0.1-0.9,0.1-1.6
		c0.8-2.9,1.8-3.5,2.2-5.6c0.2-1.3,0-2.3-0.3-3.7c-0.2-1.2-0.6-2.2-1.2-3.7c-0.5-1-1.6-3.7-2.9-5.9c-4.5-7.5-11.7-12.8-11.7-12.8
		c-6.9-5-13.7-6.8-17.6-7.4c0,0,0.1,0,0.1,0c0.9-2.4,2.1-6.7,1.8-12.2c-0.3-5.6-2.1-9.8-3.2-12.1c-0.7-1-2.2-3-4.8-4.3
		c-3.9-1.9-7.4-1-8.4-0.7c-4.6,1.2-7,4.6-7.7,5.6c-0.2,0.5-3.1,7.6-2.4,13.1c0.2,1.3,0.4,3.2,1.4,5.1c0.5,0.9,1.4,2.4,1.4,2.4
		c0,0,0,0,0,0c-0.9,2-1.8,4.1-2.9,6.3c-2.8,5.6-5.9,10.3-8.9,14.2h-0.1c-1.4,4.9-2.8,9.7-4.2,14.6c-0.2,3.9-0.4,7.8-0.6,11.7
		c0.1,1,0.3,2.2,0.7,3.6c0.4,1.5,1,2.8,1.5,3.8c1.3,3.9,2.6,7.9,3.9,11.8c3,8.7,5.4,10.6,7.1,10.6c0.4,0,0.5-0.1,1.9-0.6
		c3.4-1.1,5-1.6,6.4-1.5c3.8,0.2,4.5,4.4,10.5,6c0.6,0.2,1,0.2,1.3,0.3c0,0.4,0,0.9,0,1.3c2.1,0.1,4.1,0.8,5.8,2.1
		c0.3,0,0.6,0.1,0.8,0.1c-0.4-0.2-0.6-0.4-0.8-0.5c0,0-0.1-0.1-0.1-0.1c0,0,0.5,0.3,0.9,0.6c1.5,0.3,2.9,0.7,4.4,1.1
		c4.4,0.7,8.7,0.9,13.1,0.5v0c3.5-0.3,7-0.9,10.5-1.7c0.6-0.1,1-0.2,1.5-0.1c0.6-0.8,1.4-2,2.7-3.2c1.8-1.9,2.7-2.8,3.8-3
		c1.6-0.3,2.1,0.9,7.4,4.4c1.8,1.2,2.2,1.4,4.7,3c1.2,0.8,2.5,1.7,3.7,2.5c-0.1,0.1-0.8,0.9-0.6,2.1c0.2,1,0.9,1.5,1,1.6
		c0.6,0.3,1.3,0.7,1.9,1c0.5,1.1,1.3,2.7,2.7,4.3c1.5,1.7,2.7,3.2,4.7,3.6c2.6,0.5,4.7-1,5.4-1.6c-0.8-1-1.6-2-2.4-3.1
		C345,124.8,344.2,123.7,343.4,122.5z M264.1,22.9c-1.6,1.6-3.2,3.1-4.7,4.7c-0.2,1.7-0.1,2.9,0.3,3.6c-0.5-0.6-0.6-1.9-0.4-3.7
		h-0.1C260.8,25.9,262.4,24.3,264.1,22.9c0.1-5.2,0.5-10.3-2.9-14.1C264.7,12.6,264.3,17.8,264.1,22.9L264.1,22.9z M264.1,22.9
		c1.7-0.6,1.5-4.5,3-5.6C265.7,18.4,265.8,22.3,264.1,22.9z M270.2,34.4c-0.4-1.3-0.9-2.7-1.3-4h0.1
		C269.3,31.8,269.9,33.1,270.2,34.4C270.3,34.4,270.2,34.4,270.2,34.4z M273,29.9c0,0-0.1,0.1-0.2,0.1c1.7-1.1,3-2.9,4.6-4.5
		c-1.4-1.8-2.7-3.8-4.2-5.5c-0.5-0.7-1.2-1.1-1.9-1.6c-0.4-0.1-0.8-0.2-1.1-0.3l0,0c0.5,0.1,0.8,0.2,1.2,0.3l0.1-0.1
		c0.6,0.5,1.3,0.9,1.9,1.5c1.4,1.8,2.8,3.7,4.2,5.5C276.2,26.9,274.7,28.8,273,29.9z M275.3,43.8L275.3,43.8c-0.9,1.3-1.7,2.7-2.7,4
		l0,0C273.5,46.4,274.4,45.1,275.3,43.8z M242.3,70.8c0-0.1-0.1-0.2-0.1-0.2c1.4-0.8,2.8-1.7,4.3-2.4c0.1-0.3,0.2-0.6,0.2-0.9
		c0,0.4,0,0.7-0.2,1.1c0.1,0.1,0.1,0.3,0.1,0.4c0-0.1-0.1-0.2-0.1-0.3C245.3,69.2,243.8,70.1,242.3,70.8z M245.9,83.7
		c0.5-0.8,0.8-1.6,1.2-2.3C246.7,82.1,246.2,83,245.9,83.7z M252.3,67.5c-1,0.4-2,0.7-3,1.1v-0.1l0,0
		C250.3,68.1,251.3,67.8,252.3,67.5L252.3,67.5z M249.8,50.1c3.5-0.1,5.5,2.2,3.9,9.7c0,0.1-0.1,0.1-0.1,0.2
		C255.3,52.4,253.4,50.1,249.8,50.1z M252.7,88.7c1.1,1.7,2.5,3.6,3.8,5.5C255,92.4,253.7,90.4,252.7,88.7z M259.2,93.4
		c-0.9,0.4-2.3,1.4-2.5,1.1c0,0,0-0.1-0.1-0.1C256.9,94.7,258.3,93.7,259.2,93.4C259.1,93.4,259.1,93.4,259.2,93.4
		c2.3-1,4.7-1.8,7.1-2.8c0,0,0,0,0.1,0C264,91.6,261.6,92.5,259.2,93.4z M271.8,103.5C271.8,103.5,271.8,103.6,271.8,103.5
		c-6.3-1.1-7.3-3.7-5.4-12.9c0.3,0.1,0.5,0.1,0.8,0.2C265.5,99.5,266.4,102.1,271.8,103.5C271.9,103.5,271.9,103.5,271.8,103.5z
		 M270.2,54.2c0.4-1.6,0.7-3.1,1-4.7l0.1-0.3l0,0v0.1c-0.4,1.6-0.7,3.1-1,4.7c2.2,1.7,4.2,3.2,6.3,4.9c0.1-0.2,0-0.4-0.1-0.6
		c0.2,0.2,0.3,0.4,0.2,0.7c0.9,0.1,1.7,0.3,2.7,0.5l0,0l0,0c0,0,0,0,0.1,0c-0.1,0-0.1,0.1-0.2,0.1c-0.9-0.1-1.8-0.3-2.7-0.5
		C274.5,57.5,272.3,55.8,270.2,54.2z M276.4,58c1.2,0.1,2.5,0.2,3.7,0.2c0,0,0,0.1-0.1,0.1C278.8,58.2,277.6,58.1,276.4,58
		C276.4,58.1,276.4,58.1,276.4,58z M278.6,74c-0.1,0-0.1,0-0.2,0.1c-0.2-0.4-0.3-0.8-0.5-1.2c0.9-0.5,1.9-1,2.8-1.5
		c-0.9,0.5-1.8,1-2.7,1.5C278.3,73.3,278.4,73.6,278.6,74z M294.7,67.1L294.7,67.1c-0.1-1-0.2-2.1-0.2-3.1c-2.1-0.5-4.1-1-6.1-1.5
		c-2.1-1.5-4.2-2.9-6.2-4.4c-0.4,0.1-0.8,0.2-1.1,0.2c-0.7,0.4-1.2,0.7-1.8,1.1c0,0,0,0,0-0.1c0.7-0.4,1.2-0.7,1.9-1.1
		c-1.1-0.9-2.2-2.2-3.3-2.6c1.2,0.4,2.3,1.7,3.3,2.6c0.4-0.1,0.8-0.1,1.1-0.2l0,0c2.1,1.5,4.1,2.9,6.2,4.4v0.1
		c2.1,0.5,4.1,1,6.1,1.5c-2.5-3.7-4.9-7.5-7.4-11.2c-0.3,0.2-0.6,0.3-0.9,0.5v-0.1c0.3-0.2,0.6-0.3,0.9-0.5
		c2.5,3.7,4.9,7.5,7.4,11.2C294.7,64.9,294.7,66,294.7,67.1c2.8-0.1,5.7-0.1,8.3-0.1l0,0C300.3,67,297.6,67.1,294.7,67.1z
		 M300.9,74.3L300.9,74.3c2,0.5,4,0.9,6,1.4l0,0C304.8,75.2,302.9,74.8,300.9,74.3z"/>
	<path class="st5" d="M439.8,228.6c0.3-0.2,0.6-0.3,0.8-0.4c6.1-1.3,12.7-5.6,15.2-11.6c1-2.5,0.8-5.3-1.7-6.8
		c-0.2-0.1-0.3-0.2-0.5-0.3c-1-2.1-1.3-3.2-1.5-4.2c-0.1-0.8-0.2-1.5-0.1-2l-0.2-8.4c-0.1-0.8-0.4-2.1-0.5-3.6
		c-0.4-3.9-0.3-6.8-0.3-7.9c0.1-4.3-0.8-4.6-2.3-14.2c-1-6.8-1.4-11.9-1.5-14c-0.1-3-0.1-6.1-0.2-9.2c0-0.5,0-1,0-1.5
		c0-0.6,0-1.1,0-1.6c3.4-5.6,4-11.2,0.9-17.5c-1.1-2.1-1.1-5.8-0.8-10.3c-0.2-0.6-0.4-1.6-0.6-2.7c-0.3-1.7-0.3-1.8-0.3-2
		c2.4-0.5,4.8-1,7.3-1.5c7.6-1.4,14.8-2.1,21.5-2.4c2.2,0.3,5.5,0.6,9.4,0.1c5.2-0.6,9-2.3,9.3-1.6c0.4,0.8-6.2,2.7-8.3,8.2
		c-0.4,1-0.8,2.5-2,5.5c-0.3,0.7-0.3,0.6-1.4,3.3c-1.5,3.5-1.9,4.6-2,6c-0.1,1.2,0,2.1,0.1,2.8c0.8,3.2,0.8,5.6,0.6,7.2
		c0,0.4-0.2,1.5-0.5,3.6c-0.4,2.6-0.4,3-0.5,3.9c-0.1,1-0.2,2.6-0.2,4.5c0.1,1.8,0.2,3.6,0.2,5.4c0.1,1.2,0.1,2.4,0.2,3.6
		c0,4.1-0.1,8.1-0.1,12.2c-0.4,2.5-0.8,6.1-0.9,10.5c-0.5,16.7,4.3,25.2-0.1,30.1c-1.4,1.5-3.9,3.1-9.3,2.8c1.3,5.6,1.4,9.8,0.9,11
		c-0.4,1-1.1,1.8-1.1,1.8c-1.1,1.5-2.3,2.3-3.3,3c-0.8,0.6-2.1,1.3-3.6,1.9c-3.7,1.3-7.5,1.6-14.4,2.1c-5.1,0.4-7.7,0.6-8.6-1
		C438.3,232.2,438.4,229.6,439.8,228.6z M469.6,200.7c1,0.6,1.9,1.1,2.8,1.7c0.5-0.8,1.1-1.5,1.6-2.3c-0.6,0.8-1.1,1.5-1.6,2.2
		C471.5,201.7,470.6,201.2,469.6,200.7L469.6,200.7z M468,134.3v-0.1c0.1-0.1,0.1-0.1,0.1-0.1c-0.2-0.3-0.4-0.6-0.6-1
		C467.6,133.5,467.8,133.9,468,134.3z M465.9,161.7c-2.5,3.1-5.5,5.9-8.3,8.9c-0.1,0.1-0.1,0.1-0.1,0.2
		C460.3,167.7,463.3,164.8,465.9,161.7z"/>
	<path class="st5" d="M457.7,152.6c0.6,0.3,1.1,0.5,1.6,0.8C458.6,153.2,458.1,152.9,457.7,152.6z"/>
	<path class="st5" d="M452.4,150.1c0.7,0.3,1.3,0.6,1.9,0.9C453.7,150.7,453.1,150.4,452.4,150.1z"/>
	<path class="st5" d="M311.4,116.4"/>
</g>
<g id="Capa_3">
	<path class="st7" d="M482.3,169.7c20.7,0.3,35.5-4.5,44.9-8.8c10.6-4.8,36.1-17,47.7-52.3c3.8-11.7,5.2-22.8,5.6-30.9"/>
	<line class="st7" x1="583.5" y1="82" x2="580.7" y2="77"/>
	<line class="st7" x1="574.8" y1="79.2" x2="580.9" y2="77.3"/>
	<rect x="465.9" y="11.8" class="st8" width="141.5" height="29.4"/>
	<text transform="matrix(1 0 0 1 465.8577 18.9149)"><tspan x="0" y="0" class="st9 st10">El talón debe apuntar arriba</tspan><tspan x="0" y="12" class="st9 st10">y la punta del pie al suelo</tspan></text>
	<text transform="matrix(1 0 0 1 143.3723 75.9489)"><tspan x="0" y="0" class="st9 st10">Las manos deben </tspan><tspan x="0" y="12" class="st9 st10">mantenerse </tspan><tspan x="0" y="24" class="st9 st10">empuñadas</tspan></text>
	<text transform="matrix(1 0 0 1 324.8115 126.1985)"><tspan x="0" y="0" class="st9 st10">Llevar la rodilla </tspan><tspan x="0" y="12" class="st9 st10">al pecho</tspan></text>
	<path class="st11" d="M120.9,48.8c15,0.2,30,0.5,44.9,0.7"/>
	<path class="st11" d="M166.6,49.1c-0.3,4.5-0.5,9-0.8,13.5"/>
	<path class="st11" d="M273.4,88.4c-0.5-14.3-1.1-28.6-1.6-42.8"/>
	<path class="st11" d="M256.9,45.7c4.9-0.1,9.9-0.2,14.8-0.3"/>
	<path class="st12" d="M536.2,29c0.2,5.5,0.4,10.9,0.6,16.4"/>
	<path class="st12" d="M550.2,45.5c-4.5,0-9-0.1-13.6-0.1"/>
	<path class="st11" d="M517.5,94c8.3,11.2,9,26.5,2.1,37.6c-8.2,13.1-25.5,18.1-40.2,10.6"/>
	<text transform="matrix(1 0 0 1 492.4232 123.6981)" class="st9 st10">120º</text>
	<text transform="matrix(0.9529 0 0 1 201.4194 43.1326)"><tspan x="0" y="0" class="st9 st13">Rotación en 90º </tspan><tspan x="0" y="12.6" class="st9 st13">de la cadera</tspan></text>
	<path class="st11" d="M311.4,110.7c9.9-0.1,19.8-0.3,29.8-0.4"/>
	<path class="st11" d="M341.8,117.9c-0.2-2.6-0.3-5.1-0.5-7.7"/>
	<text transform="matrix(1 0 0 1 324.0521 224.7743)"><tspan x="0" y="0" class="st9 st10">Rotación en 90º </tspan><tspan x="0" y="12" class="st9 st10">de el pie de apoyo</tspan></text>
	<path class="st11" d="M300.3,228.3c7.2-0.1,14.4-0.2,21.6-0.3"/>
	<text transform="matrix(1 0 0 1 493.9935 222.1457)"><tspan x="0" y="0" class="st9 st10">El pie rota en total</tspan><tspan x="0" y="12" class="st9 st10">120º</tspan></text>
	<path class="st11" d="M470.6,222.5c7.2-0.1,14.4-0.2,21.6-0.3"/>
</g>
</svg>
