<?xml version="1.0" encoding="utf-8"?>
<!-- Generator: Adobe Illustrator 26.5.3, SVG Export Plug-In . SVG Version: 6.00 Build 0)  -->
<svg version="1.1" xmlns="http://www.w3.org/2000/svg" xmlns:xlink="http://www.w3.org/1999/xlink" x="0px" y="0px"
	 viewBox="0 0 593.2 245.8" style="enable-background:new 0 0 593.2 245.8;" xml:space="preserve">
<style type="text/css">
	.st0{fill:#E83B44;}
	.st1{fill:#B9C6E5;stroke:#B9C6E5;stroke-miterlimit:10;}
	.st2{fill:#191642;stroke:#191642;stroke-miterlimit:10;}
</style>
<g id="Capa_4">
	<g id="Capa_1_00000033336240409989258840000011092447899686601141_">
		<polygon class="st0" points="593.2,71.9 0,91.9 0,166.5 593.2,186.5 		"/>
	</g>
</g>
<g id="Capa_3">
	<path class="st1" d="M483.6,216.2c0.2,6.8,5.3,18.8-6.8,19.5c-8.7,3.8,8.3,7.4,17,3c3.6-1.8,4-3.7,9-5.6c4.1-1.6,6-1.2,7.4-3
		c3.4-5-4.4-23.7-5-31.2c-4.8-19.4,1.7-25.7-2.1-41.1c-0.5-1.9-1.6-6.1,0-10.7c0.9-2.6,1.9-3.2,4.6-7.6c3.8-6.2,8.6-22.9,7.6-24.5
		c-1.9-3-16.9,15.2-20.5,16.6c-14.5,5.7-21.8,8.5-25.2,15.2C466.4,159.6,479.7,187.3,483.6,216.2z"/>
</g>
<g id="Capa_2">
	<path class="st1" d="M204.8,230.5c-8.8,2.5-11.5-0.1-22.9,1.1c-13,3.4-12.1-4.9-9.8-14.1"/>
	<path class="st2" d="M157.1,108.7c-2.9-5.3-14.4-9.4-19-9.5c-14.2-4.1-14.6-12.1-31.8-18.9C95.6,76.9,76.6,71.3,71,64
		c-5.6-6.1-6.3-11.9-10.3-12c-3.8-0.1-5.6,4.9-7.8,4.1c-2.2-0.9-0.3-6.3-1.3-19.1c-0.1-9.4,1.2-1.1,6.6,0.9c1.7,0.4,2.1-0.4,4.8-0.6
		c3.4-0.3,5.1,0.6,9.6,1.6C96.4,39.1,122,63.4,153.9,64c12,0.9,14-0.5,14.9-1.6c2.5-3.1-1.1-6.5,1.1-12.5
		c5.8-10.7,11.5-11.9,24.6-10.9c32.4,6,20,9,36.5-11.8c14.1-6.8,24.4,13.6,15,22.5c-4.2,2.2-5.6,4.4-3.4,9.6
		c0.7,11.3,8.3,20.7,9.1,31.6c-0.3,10-14.9,35.7-28.2,32.2c-2.7-1.3-2.2-4.1-6.4-8.4c-6.8-7.7-8.2-2.5-16-2.9c-2-0.5-2.9-2-4.1-1.5
		c-1.3,0.5-1.3,2.4-1.8,3.6C192.2,119.9,168,120.3,157.1,108.7z"/>
	<path class="st2" d="M318,113.6c-1.3-3.2-7.6-6.2-12.4-3.9c-3.9,1-3.9-1.4-6,3.8c-0.5,1.3-6.7,5.3-7.3,7.5
		c-0.4,1.7-4.8,9.8-10,11.3c-13.5,3.3,3-12.7,3.4-19c2.8-7.9,1.2-8.3,3.4-13.9c5.8-18.2,21.5-15.6,27.7-27c0.9-3.7-2.6-5.2-3.2-9.6
		c-1.3-8.4,9.3-19.1,19.7-23.7c7.8-3.5,11.6-1.8,14.2-5.8c2.9-4.6-0.9-8.8,1.9-17.5c1-3,2.4-7.2,6.3-9.2c8.6-3.1,16.1,2.3,18.8,8.1
		c1.9,5.3-2.1,8.1-2.5,15.1c-1.3,7.2,12,27.1,14.1,32.2c4.1,10.5,0.5,40.4-8.7,43.9c-3.2,0.9-4.3-1.9-9.7-1.8
		c-8,0.4-14.9,4.9-12.7,12c-0.2,2-21.4,1.8-30.4,1.7"/>
	<path class="st1" d="M487.9,46.7"/>
	<path class="st1" d="M487.8,45.7"/>
	<path class="st2" d="M475.6,70.7c-6.2,1.8-11.8-4.8-16.2-6c-3,0-6.5,4.1-6,7.4c0.4,2.7,3,2.9,4.4,6.4c1.2,3.1-0.5,3.9,0.2,6.9
		c1.4,6.7,10.4,7.4,11.3,14c0.1,1,0,1.4,0.2,4.7c0.3,4.8,0.7,4.9,0.6,6.1c-0.5,5.6-8.7,5.8-10.9,12.7c-1,3.1,0.3,4.1-1.3,6.8
		c-16.4,12.9-21.6,18.2-8.7,38.1c6.7,11.2,13.4,14.7,16.4,22c1.5,5.4,5.7,5.1,10,6.9c4.2,3.2,2.9,14.4,5.6,17.5
		c7.3,5.9,5.9-1.9,7.8-12.8c1.3-9.3,2.4-11.4,0.8-14.6c-1.3-2.7-2.7-2.9-6.5-6.2c-6.8-5.7-17.5-17.6-10-30.8c2.3-3.6,5.5-5,11.3-7.7
		c21.2-9.5,22.5-10.4,24.3-12.4c1-1.2,8-9.4,6.1-17.6c-1.7-4.4-3.7-10.7,1.7-13c11.9-11.2,9-26.4,4.9-39.7
		c-4.1-18.2-9.8-12.7-16.6-19.8c1.2-1.6,0.3-4.3-1.9-5c-1.5-0.5-2.5,0.6-3.2-0.1c-1-1-0.1-3.7,0.3-4.3c2.2-6.1,3.3-17.2-7.2-23
		c-11.9-3.7-17.6,3.6-20.3,9c-2.5,5.3-1.3,11.1,1,22.7c0.2,0.9,0.5,2.4,1.8,3.5c3,2,8,0.9,10.2,6.7C483.7,55.6,482,67.4,475.6,70.7z
		"/>
</g>
<g id="Capa_7">
	<path class="st1" d="M153.4,104.8c1.3-1.2,6,3.9,12,5.6c3.5,1,6.9,1.1,13.7,1.3c5.2,0.2,14.6,0,16.5-0.8c1.5-0.5,0.1,0.7-0.3,2
		c2,14-8.3,15.5-2.5,29.1c2.7,11.2-2.6,30.3-3.1,51.1c2,9.3-0.5,8.2-3.5,15.5c-4,10.2,15.1,14.9,19.6,15.4c2.9,0.5,5.2,0.6,5.6,2
		c-0.1,3.1-1.5,4-5.6,4.6c-12.1,2-18.8-0.6-29.2,1.6c-4.8,2.2-7.3-1.4-7.3-5.9c0.1-2.6,1.7-3.1,2.1-6.9c0.1-1.9,0.2-5-0.6-6.2
		c-4.6-1.2-10.5,0.9-9.7-8.2c0.4-1.4-0.8-13.1-1.8-16.9c-2.4-20,2.5-32.3,3.8-57c-0.3-10.8-4-16.4-7.2-20.9
		C154.4,108.4,152.3,105.8,153.4,104.8z"/>
</g>
<g id="Capa_6">
	<path class="st1" d="M317.9,115.7c0.3-4.7,8,0.9,9.8-0.1c1.4,1.3,24.7-5.9,28.6-5.8c0.3,0.3-0.8,1.1-1,2.3
		c-0.3,1.6-0.1,1.6,0.3,3.5c0.4,3.7-1.2,6.4-3.5,8.2c-2.3,1.1-3.9,7.8-3.2,9.3c0,0,1,10.3,1.6,26.9c0.2,7.5-1.3,4.9-2.2,18.2
		c-1.2,18,1.6,22.6-2.5,29.4c-2,2.5-6.3,12-4.2,17.3c0,1.9,8.6,10.2,8,13c-0.8,0.5-19,9.9-18.7-0.9c0.2-3.1,4.2-8.7,2.1-12.3
		c-2.8-2.5-10.2-6.5-11.2-9.9c-1.9-3.5-0.2-7.7,0.8-12.6c1-6.4,1.6-41.8-0.6-47C316.6,142.6,319.4,130.5,317.9,115.7z"/>
</g>
<g id="Capa_5">
</g>
</svg>
