<?xml version="1.0" encoding="utf-8"?>
<!-- Generator: Adobe Illustrator 26.5.3, SVG Export Plug-In . SVG Version: 6.00 Build 0)  -->
<svg version="1.1" xmlns="http://www.w3.org/2000/svg" xmlns:xlink="http://www.w3.org/1999/xlink" x="0px" y="0px"
	 viewBox="0 0 595.3 242.6" style="enable-background:new 0 0 595.3 242.6;" xml:space="preserve">
<style type="text/css">
	.st0{fill:#E83B44;}
	.st1{fill:#B9C6E5;stroke:#B9C6E5;stroke-miterlimit:10;}
	.st2{fill:#191642;stroke:#191642;stroke-miterlimit:10;}
</style>
<g id="Capa_4_00000015331463458540460340000013373480219857461410_">
	<g id="Capa_2_00000112625080707063329940000008775206915519741060_">
		<g id="Capa_2_00000167379193944929177340000007176710244435611291_">
			<g id="Capa_2_00000062904711006830528670000008686314115569230519_">
				<polygon class="st0" points="0,82.7 595.3,62.7 595.3,177.2 0,157.2 				"/>
			</g>
		</g>
	</g>
</g>
<g id="Capa_3_00000009555546049797595850000007216303946938782853_">
	<path class="st1" d="M150.3,110.3c-6.7,8.4-6.3,35.2-6.4,39.8c0.6,2.7-0.6,4.3-1.4,8.2c-0.4,2.4-1.3,14.2-1.2,16.3
		c0.1,5.3,2.3,16.7,2.7,24.4c-0.5,10.6,7.2,7.8,12.5,7.8c1.1,0.8,0.2,2.7,0.1,6.8c-0.1,5.4,1.3,7.6-0.3,9.1
		c-0.5,0.4-0.5,0.1-3.2,1.4c-2.8,1.2-2.8,1.5-3.8,1.7c-0.8,0.1-0.8-0.1-4.2-0.3c-2-0.2-2.6-0.1-2.9,0.2c-2.1,8.2,22.9,13.8,27.5,7.7
		c1.4-6.7-3.5-17-0.2-22.7c0.9-2,1.1-5.3,1.7-11.6c1.1-12.2,1.6-18.2,0.7-21.4c-1.6-5.4-3.9-7-3.8-12.1
		c1.9-13.1,16.1-27.5,11.1-39.3c-2-3.9,8.2,3-12.8-2.5C152.9,120.2,152.4,108.4,150.3,110.3z"/>
	<path class="st1" d="M301.4,118.9c-0.2,1.8,1.6,2.5,4.1,8.4c9.2,34.8,12.9,46.9,10.3,76.3c-1,5-0.4,17.1,2.8,19.8
		c3.2,2.1,7.8-1.9,10.3,0.3c3.1,3.2-0.8,6.8-4,7.2c-5.3,1.6-10.6-0.7-13.8,3.8c-0.1,1.7,4.6,3.2,5.7,3.5c4.3,1.3,6.4,0.8,12.1,0.9
		c11.4,0.5,15.5,3.2,18.5-5.4c-0.1-1.3-1.1-1.3-2.3-3.9c-1.1-1.6-0.8-3.1-1.5-4.2c-0.3-0.8,2.7,0.2,3.8-0.7c1.8-1.3-0.8-7-2-12.3
		c-1.4-6.3,0.1-8.1,0-15.6c1.6-7.4-11.8-33.6-6.2-46.3c9.4-8.2,0-12.8,8.4-19.9c4.8-4.9,8.8-14,7.5-17.7
		C351.3,103.5,302.3,109.9,301.4,118.9z"/>
	<path class="st1" d="M514.3,200.1c2.4,6.4-1.6,7.9,0.5,14c2.9,7.6,4,8.3,4.3,18.8c-4.4,0.3-3.6,2-3.3,5.1
		c-5.2,4.8-21.9-0.2-29.9,2.4c-8.2,2.7-13.8-6-3-8.2c7-2.3,11.6,0.4,7.5-5.8c-3.1-6-3.3-13.5-4.4-20.9c-2.1-10.4-8.3-19.5-8.3-32.1
		c-0.2-9.9,2.6-10.9,1.9-18.7c-0.5-6.1-2.3-6.2-2-11.3c0.3-4.2,1.5-4.8,2.8-11.7c1.1-5.9,0.5-7.3,2-8.8c2.8-2.9,9-3.6,11.9-0.9
		c5.9,14.9-18.4,47.9,3.5,65.9C504.5,191.3,511.9,191.9,514.3,200.1z"/>
</g>
<g id="Capa_2">
	<path class="st2" d="M39.4,60c-2-1.4-4.1-7.4-7-11.9c-4.3-8.8-7.6-11.4-3.1-18.2c1.5-1.2,3.8-2,4.9-1.1c0.9,0.7,0.5,2.1,0.7,4
		c2.4,9.7,7.4,9.6,15.6,13.8c4.8,3.9,8.8,7.2,14.8,7.7c16.4,3.8,18.2,3.9,38.9,14.2c8.6,4.2,17.9,7,26.2,11.6
		c3.2,2.6,13.6,5.3,14.4-1.9c-1.9-2.7-6.1-6.8-4-10.8c0.8-1.5,1.8-1,3.4-2.9c2.7-4.1,1.3-7.3,7.8-10.1c3.2-1,4,1.3,7.6,0.9
		c4.8-0.2,15.3-11.8,6.9-12c-6.7-1.6-10.3-7.3-8.4-18c0-4.9,1.8-6.4,4.3-10.4c1.1-5.1,0.9-6.6,6.2-7.7c6.8-1.8,22.6,2.5,23.4,13.7
		c-0.7,3.3-4.2,9.5-4.8,13.5c0.2,3.6,2.5,3,4.6,4.2c1.2,1.5-0.6,4,0.7,5.3c2.6,0.9,7.5,2.4,7.7,5.5c0.2,1.7-1.5,2.5-1,4.4
		c6.7,11,6.8,19.4,1.8,36.4c-3.4,15.7-15,2.6-17.5,29.2c-1.8,7.2-5,10-14.2,6.3c-6.1-1.5-5.8,0-14.4-1.3
		c-19.4-2.4-43-14.3-60.8-24.5c-12.9-6.7-24.3-19.2-33.4-26.4c-3-2-9.5-6-10.9-8.7c-1.8-3.1-0.8-5-2.4-5.9
		C45.2,57.6,42.3,61.2,39.4,60z"/>
	<path class="st2" d="M215.9,135.2c0,4.4,3.5,6.8,8.2,6.6c10.3-1.5,16.6,4.4,25.7,1.1c2.8-2.2,0.9-6,3.5-10.3c1.7-2.7,3-2,6.9-5.2
		c3.6-3,5.7-6.4,9.8-13.2c9.7-17.4,4.5-3.2,31.3,4.6c7.3,2.8,18.5,1.3,40.7-1.6c3.2-0.4,11.7-1.6,12.6-5.6
		c-4.2-18.8,9.5-13.3,15.6-28.6c1.1-1.7-5.4-25.4-5.2-27c-0.9-5.9-0.3-5.6-1.1-7.8c-0.2-3.9-12-14.2-14.2-18c-1.7-4,0.2-6.3,0-11.5
		c0.3-10.2-8.2-20.5-20.8-15.7c-1.9,0.6-8.2,2.3-11.2,8.2c-3.8,9.7-0.9,13.8,3.5,21.5c2.5,5.9,2.8,4.9,7.7,5.4
		c10.2,6.1,7.6,17.5-4.4,20.7c-9.8,3.6-7.4,2.7-10.7-2c-2-1.9-3.6-0.8-7.7-2.6c-5.7-3.6-7-3.5-9.2,1.3c-1,5.4,0.6,6.7,3.3,9.5
		c2.7,1.8,5.1,0.8,6.1,2.3c1,2.5-1.6,9.4-1.3,10.8c0.1,3.1,1.7,4.3,1,5.1c-1.5,2.4-16.5-5.7-17.3-6.3c-12.4-6.9-24.7-3.8-33.2,8.6
		c-7,8.1-7.7,13.5-16.5,22.1c-3,1.9-7.2,4.6-5.1,11.5c1.5,3.6,3.9,4.1,6.1,6.4c3.5,3.9,2.1,5.5-4.6,5.9c-6.6,1-5.8,1.7-9,1.8
		C219.8,133.5,215.2,129.3,215.9,135.2z"/>
	<path class="st2" d="M541.1,203.1c3.7,2.3,3.5,5.1,3.5,11.3c-0.5,7.1-1.5,9.3,4.1,10.2c6.3-3.6,8.2-19.5,8.1-30.5
		c-0.3-8.2-2.4-9.6-9.3-10.8c-4.8-1.1-3.6-1.7-12.4-5c-35-11.6-6.6-11.9-4.5-46.1c0.3-3.6,0.8-10.2-1.1-18.1
		c-2.3-9.5-5.4-9.2-7-17.3c-0.6-3-0.1-8.9,0.9-20.7c1.1-16.5,2.7-21.6-5.3-31.6c-6.1-5.1-17.4-4.9-18.4-8.4
		c-0.2-0.8-1.9-5.9-2.2-5.6c-1.1-0.7-2.1,0.4-3.2-0.1c-1.2-0.6-1.3-2.8-1.3-4.7c0.1-5.8,1.1-7.4,1-9.9c-3.3-15.5-22.8-15.3-29.8-6
		c-1.3,1.7-7.2,8.7-2.9,13.8c-1.5,3.5,0.2,10,1.3,11c1.2,2.1,2.5,1.8,3.3,3.9c0.6,1.4,0.2,2,0.9,2.8c1.7,2.3,8.9-0.2,10.3,0.6
		c8.3,9.2-9.3,19-14.2,24.9c-3.4,4.3-5.1,8.6-6.4,8.3c-1.3-1.5-2.2-6.2-4.4-7.7c-4.4-2.7-13.8,1.7-14.3,6.6
		c-0.1,2.2,1.5,4.5,3.3,5.5c2.5,1.4,4.6-0.1,5.6,1.2c0.6,6.3-7,15.2,6.2,16.7c7.9,3.3,15.9-2.9,23.1,1.8
		c5.5,10.6-14.2,34.6-6.9,44.8c1.9,0.5,3.8-6.7,10.6-11.8c34.7-24.1-15.2,44.1,22.6,58.7c3.4,1.6,10.8,4.2,11.4,8.2
		c-0.3,1.7,2.5,4.9,4.6,4.9c3.3,1.1,3.3,2.7,7.2,5.2C536.5,217.2,535.8,205.4,541.1,203.1z"/>
</g>
</svg>
