<?xml version="1.0" encoding="utf-8"?>
<!-- Generator: Adobe Illustrator 27.0.0, SVG Export Plug-In . SVG Version: 6.00 Build 0)  -->
<svg version="1.1" xmlns="http://www.w3.org/2000/svg" xmlns:xlink="http://www.w3.org/1999/xlink" x="0px" y="0px"
	 viewBox="0 0 595.3 242.6" style="enable-background:new 0 0 595.3 242.6;" xml:space="preserve">
<style type="text/css">
	.st0{fill:#B9C6E5;stroke:#B9C6E5;stroke-miterlimit:10;}
	.st1{stroke:#0C0C0C;stroke-miterlimit:10;}
	.st2{fill:#3C3E42;stroke:#3C3E42;stroke-miterlimit:10;}
	.st3{fill:#191642;stroke:#191642;stroke-miterlimit:10;}
	.st4{fill:none;stroke:#CC061E;stroke-width:0.75;stroke-miterlimit:10;}
	.st5{fill:none;stroke:#000000;stroke-width:0.75;stroke-miterlimit:10;}
	.st6{font-family:'MyriadPro-Regular';}
	.st7{font-size:12px;}
	.st8{font-size:10px;}
	.st9{fill:none;}
	.st10{font-size:10.5649px;}
</style>
<g id="Capa_2">
</g>
<g id="Capa_1">
	<g id="Capa_3">
	</g>
	<path class="st0" d="M400.7,51.6c2.1-1.4,4.2-1.5,7-4.3c2.8-2.9,4.1-6.4,4.7-8.9c-0.1-1.6-0.3-4.1-1-7.1c-1.2-5.6-2.8-7.8-2-11.1
		c0.4-1.9,1.4-3.7,3.1-5.6c4.9-5.3,11.5-5.1,17.7-4.3c2.4,0.3,4.9,0.9,7.2,3c3.2,2.9,3.9,6.9,4,8.3c0.1,4.5,0.5,9,0.1,13.5
		c-0.5,5.4-2.4,10.2-9.9,10.1c-0.8,0-1.6,1.6-2.4,2.5c1.7,1.8,3.2,3.5,4.9,5.2c0.8,0.8,1.6,1.5,2.4,2.3c0.8,0.8,1.6,1.5,2.4,2.2
		c3.6-2.6,7.8-2.7,10.2-0.6c1.2,1,2.5,3,2.2,5.1c-0.3,2.2-2.4,3.2-2,3.9c0.4,0.9,3.1-0.6,5.9,0.5c1.9,0.8,4.1,2.8,4.2,5
		c0.1,3.9-6.6,5.5-6.4,9c0.1,1.9,2.1,3.4,3.6,4.3c2-0.7,3.9-1.7,6-2.1c2-0.4,3.9-0.2,5.9-0.3c0.1-0.1,0.2-0.2,0.3-0.3
		c5.3-2.5,10.8-5.3,16.3-8.1c5-1.8,9.9-3.7,14.9-5.6c5.6-2.7,11.2-5.5,16.9-8.2c7.4-1.8,14.6-3.7,22-5.5c2.6-1.4,5-2.9,7.6-4.2
		c3.3-1.7,5.8-3.6,7.5-4.9c4.4-3.6,7.7-6.3,7.8-10.1c0.1-1.8-0.6-3,0.3-4c1-1.2,3.4-1.4,5-0.5c3,1.7,2.8,6.7,2.8,8
		c-0.2,4.9-2.9,8.3-4.2,9.7c0,0,0-0.1,0-0.1c-2.8,5.2-2,12.6-10.4,14.2c-3.2,0.6-4,0.7-6,1.3c-3.4,1.1-5.4,3.5-7.7,6.2
		c-3.1,3.6-2.9,5.2-6,8.1c-1.7,1.6-3.3,2.7-4.4,3.3c0,0,0,0,0.1,0c-2.5,2.2-4.9,4.4-7.3,6.7c-6.2,4.2-12.2,8.4-18.2,12.6
		c-4.7,2.7-9.5,5.4-14.2,8.1c-5.9,2.8-10.8,4.6-14.3,5.8c-6.1,2-7.9,2-9.8,4.2c-2.8,3.2-1.8,6.6-3.5,15.2c-0.9,4.5-2,8-2.8,10.2
		c-0.2-1-0.5-1.7-0.8-2.3c0.3,0.5,0.5,1.2,0.7,2.1c-1,2.7-2.1,5.5-3,8.3c0,0,0,0,0,0c0.9,6.6,1.3,12.2,1.6,16.4
		c0.3,6.2,0.6,11.7-0.1,18.9c-0.4,3.8-0.9,6.9-1.4,9c-0.1,2.3-0.2,4.6-0.3,6.9c0,0.4-0.2,1.7-1.1,2.8c-1,1.2-2.3,1.5-2.7,1.6
		c-3,0.3-6,0.7-9,1c-0.3,2-0.6,5.1-0.5,8.8c0.1,5.6,0.2,8.9,2.4,10.6c2.7,2,6.8,0.6,8.2,0.1c2.4-1.3,4.4-1,4.9-0.1
		c0.4,0.7-0.1,1.8-0.2,2.1c-0.5,0.5-1.1,1.2-1.9,1.8c-0.9,0.7-1.8,1.3-2.5,1.7c-3.4,0.9-7.3,1.9-11.7,3c-2.5,0.6-5.2,1.2-8.3,0.1
		c-1-0.3-1.7-0.8-2.2-1.1c-0.5-3.3-0.8-5.3-0.7-5.3s0.7,3.5,0.7,3.4c-0.5-0.7-0.7-1.8-0.6-3.2c0.2-1.7,0.5-3.3,0.8-4.9
		c0.2,0.2,0.4,0.3,0.6,0.5c-0.2-0.2-0.5-0.4-0.7-0.6c0.1-0.9,0.3-2.2,0.4-3.8c0.1-3.5-0.4-6.2-0.7-8c-0.2-1.1-0.5-2.5-1-4.2
		c-0.4-3.4-0.8-6.9-1.1-10.4c0-2.3,0.1-4.6,0.1-6.9c0.1-1.8,0.3-3.6,0.2-5.4c-0.5-6.2-2.6-12.2,2.5-18.4c1.9-2.2-1.5-8.1-2.5-12.4
		c-1.1-4.4-2.1-9-3.1-13.4c-1.5-4.6-2.9-9.3-4.4-13.9c-0.8-0.6-1.9-1.6-3-2.9c-2-2.4-2.8-4.8-3.8-7.6c-1.4-4-1.2-5.1-2.8-9
		c-0.7-1.8-1.4-3.2-1.9-4.1l-0.1,0.1c-3.4-0.8-6.1-2.3-8.1-4.3c-2.5-2.5-3.4-5.3-3.9-7.1C398.9,90.5,389.4,59.1,400.7,51.6z
		 M437.8,16.8c-0.2,0-0.4-0.1-0.5-0.1C437.4,16.7,437.6,16.7,437.8,16.8L437.8,16.8z M443.7,167.8c-0.1-0.2-0.1-0.4-0.2-0.5
		C443.6,167.4,443.7,167.6,443.7,167.8z M441.6,221.5c-0.9,2.6-1.9,5.2-2.9,8.3c-1.1-0.8-1.9-1.5-2.7-2c0.8,0.6,1.7,1.3,2.8,2.1
		c1.1-3.1,2-5.7,2.9-8.3C441.7,221.6,441.6,221.5,441.6,221.5L441.6,221.5z M444.6,207.6C444.6,207.6,444.6,207.7,444.6,207.6
		c2.6-0.6,5.1-1.2,7.8-1.9c1.1-4.7,2.3-9.7,3.5-15c-0.1,0-0.2,0-0.3,0.1c-1.3,5.1-2.4,10-3.4,14.5c-2.7,0.7-5.2,1.4-7.8,2
		c-2.3,0.6-4.5,1.1-6.8,1.5C439.8,208.4,442.2,208,444.6,207.6z M452,142.8c0,8.5-0.1,17-9.3,21.8c0,0.1,0,0.1,0.1,0.2
		C452,160,452,151.4,452,142.8L452,142.8z M433.8,95.8L433.8,95.8c-1,1.8-1.9,3.4-2.8,5.2l0,0L433.8,95.8z M424.7,94.2
		c-0.4,0.5-0.7,1-1,1.5C424,95.2,424.4,94.7,424.7,94.2z M431.4,80.7c-0.7,0.6-1.7,1-3.2,1.2c0.1-0.2,0.2-0.4,0.2-0.6
		c-0.1,0.2-0.2,0.3-0.2,0.5v0.1V82C429.7,81.8,430.7,81.4,431.4,80.7z M429.4,78.8c0.1-0.3,0.3-0.6,0.4-0.9l0,0
		C429.6,78.2,429.5,78.5,429.4,78.8z M427,62.8c0.2-0.5,0.9-0.8,1.5-1.4C427.8,62,427.1,62.3,427,62.8C427,62.7,427,62.8,427,62.8z
		 M428.9,62.2c0.2,0.4,0.4,0.7,0.4,0.9C429.3,63,429.1,62.7,428.9,62.2z M430.1,66.2c-0.3,2.8-0.4,4.3-0.5,5.8
		c-3.8,0.5-7,3.5-6.9,6.2c0-2.6,3-5.5,6.9-6.1C429.7,70.6,429.9,69,430.1,66.2c1.9,1.6,2.9,2.5,4,3.4c-0.5,0.8-1,1.7-1.5,2.7
		c0.5-0.9,1-1.8,1.5-2.7v-0.1C433.1,68.6,432,67.7,430.1,66.2z M434.2,77.7c-0.5-0.9-1.1-1.9-1.6-2.8c0,0.1,0,0.2,0,0.3
		C433.2,76.1,433.7,77,434.2,77.7L434.2,77.7c2.5,0.9,4.9,1.9,7.4,2.8c1,0.9,2,1.8,2.9,2.8c-2,3.2-4,6.4-6,9.6c0,0,0,0,0.1,0h0.1
		c2-3.2,3.9-6.4,5.9-9.6c0,0,0,0,0-0.1c-1.2-1-2.1-1.9-3-2.7C439.2,79.6,436.7,78.6,434.2,77.7z M444.9,76.3
		c2.2,0.8,4.3,1.7,6.4,2.5C449.1,77.9,447,77.1,444.9,76.3z M519.5,78.3c-2.3,0.8-4.5,1.6-6.5,2.6c2-0.9,4.1-1.8,6.3-2.5
		c1-0.3,1.9-0.7,2.8-1.1C521.3,77.7,520.4,78,519.5,78.3z M479.4,107.1c0.1,0,0.1-0.1,0.2-0.1c-0.4-0.4-0.8-0.8-1.2-1.1
		c1.3-3.8,2.6-7.7,3.8-11.6c-0.5-0.1-1.1-0.2-1.6-0.4l-0.1,0.1c0.5,0.1,1,0.2,1.5,0.4c-1.3,3.8-2.6,7.7-3.8,11.6
		C478.6,106.4,479,106.8,479.4,107.1z M405.5,63.6c2.3,1,3.5,4.4,4.6,6.9c2.3,5.7,3.7,11.7,6.1,17.3c2,4.6,5.4,4.8,8.9,1.1
		c0.5-0.5,1-0.9,1.5-1.4s1-0.9,1.5-1.4V86c-0.5,0.5-0.9,0.8-1.4,1.3c-0.6,0.6-1.1,1-1.6,1.5c-3.5,3.8-7,3.6-8.9-1.1
		c-2.4-5.7-3.8-11.6-6.1-17.3C409.1,67.9,407.7,64.5,405.5,63.6c-1.7-0.9-2.5-1.8-2.8-2.9C403,61.8,403.8,62.8,405.5,63.6z"/>
	<g id="Capa_4">
	</g>
	<path class="st1" d="M594.7,134.6L594.7,134.6L594.7,134.6z"/>
	<path class="st2" d="M667.8,185.1L667.8,185.1L667.8,185.1L667.8,185.1z"/>
	<g>
		<g>
			<path class="st0" d="M298.5,120.5c-1.9,4-3.7,7.9-5.6,11.9c-7.3-2.3-14.8-1.6-22.3,0c-2.7,1.1-5.1,2.2-7.8,3.1
				c-1.7,0.6-3.4,0.8-5.1,1.2c-0.9-1.7-1.7-3.4-2.7-5.1c-0.2-0.8-0.6-1.6-1.1-2.3c-1.6-4.6-3.2-9-4.9-13.5c2-6.7,1.1-10.7,0-13.1
				c-2.3-4.8-6.3-4.9-10.7-11.7c-1.2-1.9-2.8-4.5-3.4-8.1c-0.8-4.8,0.7-7.8,2.3-13.3c4.5-15.7,0.9-21.6,6-25.8
				c1.7-1.4,4.3-2.5,6.8-6c1.6-2.2,2.5-4.2,2.8-5c0.8-2,1.2-3.7,1.2-4.2c0.3-4-0.4-6.9-0.4-10.3c0-1.6,0.1-4,0.8-6.8
				c0.9-1.5,2.5-3.5,4.8-5.4c2.6-2.1,5.1-3.1,6.7-3.7c0.9-0.3,6.9-2.2,12.1,1.8c2.3,1.7,3.5,3.9,4.1,5.3c0.2,1.3,0.5,2.5,0.7,3.8
				c0.2,0.7,3.8,15.4-4.8,24.6c-3.2,3.5-7,4.9-9.4,5.5h0c0.5,0.7,1,1.5,1.6,2.3c1.8,2.9,3,5.7,3.8,8.2c0.1,0.7,1,4.4,4.3,6.6
				c2.6,1.7,5.2,1.5,6,1.4c0.6-0.5,1.5-1.2,2.5-2.2c1.6-1.4,2.5-2.6,2.9-2.9c3-2.4,6.4-5.1,9.3-3.8c3.3,1.5,4.7,7.8,2.9,12.1
				c-0.7,1.7-1.8,2.8-2.6,3.5l0.1,0.1c0.1,0.7,0.2,1.7,0,2.9c-0.5,2.7-2.5,4.1-4.5,5.8c-1.8,1.5-4.2,3.7-7,6.9c-0.1,0-0.1,0-0.1,0
				c0,0,2.5-0.3,7.4-1c5.6-3.1,13.4-6.6,22.6-7.7c8.4-1,12.4,0.5,15.1,2.5c1.2,0.8,2,1.7,2.6,2.3c1.6,2.1,3.1,4.2,4.6,6.3
				c1.4,1.9,2.8,3.7,4.1,5.6c3.7,4.6,7.4,9.2,11.2,13.9c2.6,2.5,3.7,4.9,3.9,7.1c0.3,3.4-1.8,6.3-6.1,12c-0.6,0.8-4.3,5.7-6.8,6.3
				c-0.2,0.1-1.5,0.3-3.2,1.1c-0.5,0.2-0.8,0.4-1,0.5c-8.5-9.4-12.2-14-14.1-16.4c-0.3-0.4-2.2-2.9-4.7-6.2
				c-0.9-1.2-1.8-2.3-2.7-3.4 M280.1,9.5c-0.8-0.5-1.7-1-2.7-1.4c-1.9,4.5-4.1,8.2-7.6,8.2c3.5-0.1,5.7-3.8,7.6-8.2
				C278.3,8.6,279.2,9,280.1,9.5z M274.9,35.3c-2.1,0.1-4-1.6-5.7-1.5C270.8,33.8,272.7,35.4,274.9,35.3z M337.7,92.2
				c-0.7-2.2-1.9-4.4-3.5-6.7v0.1C335.8,87.9,336.9,90,337.7,92.2z M325.1,99.1c-0.1,0-0.3,0-0.4,0c-1.7,0.1-3.6,0.8-5.6,1.3v0.1
				C321.4,99.9,323.3,99.2,325.1,99.1z M311,100.2c3.1-3.7,5.6-7.7,8.4-11.6c-0.1,0-0.3-0.1-0.4-0.1c-2.8,3.9-5.2,8-8.3,11.7
				c-0.6,0.8-1.7,2.9-2.8,3.1C309.1,103.4,310.3,101,311,100.2z M284.6,65.5c2-1.6,3.8-2.4,5.4-2.5
				C288.4,63.1,286.5,63.8,284.6,65.5C284.5,65.5,284.5,65.5,284.6,65.5c-3.8,2.4-7.3,4.9-10.9,7.1c0,0,0,0,0,0.1
				C277.2,70.3,280.9,67.9,284.6,65.5z M284.5,118.8c0.1,0,0.1,0,0.2,0c1.4-3,2.8-5.8,4-8.8c-0.1,0-0.1-0.1-0.2-0.1
				C287.2,112.9,285.8,115.8,284.5,118.8c-3,1.8-6,3.5-8.9,5.3C278.6,122.3,281.6,120.6,284.5,118.8z M273.8,97.6
				c-3.8-1.8-7.6-3.5-11.5-5.3h-0.1c-1.1-1.5-2.2-3-4.1-5.8H258c2.1,2.9,3.1,4.4,4.2,5.9l0,0C265.9,94.2,269.8,95.8,273.8,97.6
				c3.3,1.8,3.7,10.8,0.8,14.6C277.6,108.5,277.2,99.2,273.8,97.6z M256,129.1c1.9-7.1,9.4-8.6,13.4-13.4c1.5-0.9,3.2-1.6,4.4-2.7
				c-1.4,1.1-3,1.8-4.6,2.8c-0.3-0.1-0.5-0.3-0.7-0.4c0.2,0.1,0.4,0.2,0.6,0.3c-4,4.8-11.3,6.3-13.2,13.4c0,0.1,0,0.2-0.1,0.2
				C255.9,129.2,256,129.2,256,129.1z M253,102.7c1.3-1.8,2.5-3.6,3.9-5.2c1.6-1.9,3.3-3.4,5.1-5c-0.2,0.1-0.4,0.2-0.6,0.3
				c-1.6,1.5-3.1,2.9-4.5,4.6C255.4,99.1,254.2,100.9,253,102.7z M244.4,67.6c4.8,9.6,13.4,13.8,22.7,10.5V78
				C257.8,81.3,249.2,77.1,244.4,67.6c-0.4-0.8-0.6-1.5-1-2.2C243.7,66.1,244,66.9,244.4,67.6z"/>
			<path class="st0" d="M266.3,36.9L266.3,36.9c0.2,0.1,0.4,0.2,0.6,0.3C266.8,37.1,266.6,37,266.3,36.9z"/>
			<path class="st0" d="M264.2,13.9L264.2,13.9L264.2,13.9z"/>
			<path class="st0" d="M252,104.1C252,104.1,252,104.2,252,104.1C252,104.2,252.1,104.2,252,104.1
				C252.1,104.1,252.1,104.1,252,104.1z"/>
			<path class="st0" d="M287.6,164.2c-0.1,1.4-0.2,2.7-0.3,4.1c-0.4,0.5-0.7,1-1.1,1.5c0.2,7.8,0.4,15.6,0.6,23.4
				c-0.1,3.2-0.1,6.5-0.2,9.7c-0.1,5.1-0.3,10.1-0.4,15.2c-0.1,5.2-2.6,7.5-7.7,6.9c-2.4-0.3-4.9,0-7.3,0c-3.6,0.5-7.1,1.1-10.6,1.6
				c-0.8-0.1-1.6-0.1-2.4-0.2c-0.1-2.8-0.1-5.5-0.2-8.2c0-3.1,0.1-6.1,0.1-9.2c-0.3-1.3-0.3-2.6-0.3-3.9c0.1-2.6,0.2-5.2,0.3-7.8
				c1.2-5.5,2.3-11.1,3.4-16.5h-0.1c2.3-10.6,6.2-21.3-1.3-31.5c-0.4-1.4-0.7-2.7-1.2-4.1c3-1.6,6-3.3,9-4.9
				c-0.2-0.3-0.4-0.5-0.6-0.8c-2.8,1.5-5.4,3.1-8.2,4.6c0.2-1.5,0.5-3,0.7-4.5h-0.1c-0.6-0.9-1.2-1.8-1.7-2.6
				c1.7-0.4,3.4-0.7,5.1-1.2c2.6-0.9,5.1-2.1,7.7-3.1c7.3-1.6,14.6-2.3,22,0c-0.9,5.1-1.7,10.3-2.6,15.4c-0.3-0.7-0.6-1.4-1.6-3.5
				v2.3c0.8,1.9,1.1,2.4,1.4,3.1c-0.4,0.5-0.6,1-1,1.6c0,1,0,1.9,0,2.8C288.5,157.7,288.1,160.9,287.6,164.2z M271.2,175.5
				c-0.1,0.1-0.1,0.1-0.2,0.2l0,0C271.1,175.6,271.2,175.5,271.2,175.5z M270.6,137.5c0.2,0.1,0.3,0.4,0.5,0.4
				c0.2,0,0.4-0.2,0.6-0.3C271.3,137.6,270.9,137.5,270.6,137.5z M289.2,135.6l-0.2-0.1c-4.1,9.6-8.4,19.1-12.5,28.7
				c-0.9-0.3-1.7-0.7-2.6-1l0,0c1,0.4,1.8,0.9,2.8,1.3C280.9,154.8,285.1,145.2,289.2,135.6z"/>
			<path class="st0" d="M351.2,128.2c0.6-0.7,1.5-1.6,2.4-2.8c2.3,2.6,4.5,4,6.1,4.8c3.4,1.7,5.8,1.6,12.2,3.8
				c1.4,0.5,2.5,0.9,3.2,1.2c0.3,0.3,0.7,0.9,0.8,1.7c0.2,1.1-0.2,2-0.6,3c-0.4,0.9-0.9,1.6-1.3,2.1c-0.1,0.2-0.4,0.4-0.7,0.6
				c-2.7,2.2-6.2,1.3-9.8,0.9c-2.2-0.2-5.2-0.4-9.1,0.2c-0.9,0.5-1.8,0.9-2.8,1.4c-9,1-8.4-5.6-9.1-11.2c0.7-0.5,1.6-1,2.3-1.4
				c0.5-0.1,1.2-0.4,2.1-0.8C348.6,130.8,349.8,129.7,351.2,128.2z M350.8,135.4c0.4,0.2,0.8,0.6,1.1,0.4
				C351.6,135.9,351.2,135.5,350.8,135.4z M351.4,134.3c0.2-0.1,0.7,0.3,1.1,0.4C352.1,134.5,351.6,134.2,351.4,134.3z"/>
			<path class="st0" d="M276.9,232.2c1.2,0.4,2.4,0.7,3.6,1.1C279.3,233,278.1,232.6,276.9,232.2z"/>
		</g>
		<path class="st3" d="M263.6,120.2c-3.1,2.1-6.2,4.4-7.3,8.6c0,0.1,0,0.2-0.1,0.2c0.2-0.1,0.3-0.1,0.3-0.2c1.1-4.2,4.2-6.5,7.4-8.6
			c2.8,0.4,5.8,0.6,8.6,0.9c2.4,0.2,4.7,0.4,7.1,0.5c-1.2,0.7-2.4,1.4-3.6,2.1c1.2-0.7,2.4-1.4,3.6-2.1c6.3,0.3,12.7,0.1,18.9-1.1
			c-1.7,3.8-3.4,7.6-5.1,11.4c-7.3-2.3-14.8-1.6-22.3,0c-2.2,1.1-4.8,2.2-7.8,3.1c-2.1,0.6-4,1-5.7,1.3c-2.2-4.2-4.1-7.5-5.4-9.7
			c-2.2-3.7-4.1-6.7-3.3-10c0.1-0.6,0.3-1,0.5-1.3c1.9,1.1,4.2,2.2,7,3.2C258.9,119.4,261.5,120,263.6,120.2z"/>
		<path class="st3" d="M288,164c-0.1,1.4-0.2,2.7-0.3,4.1c-0.3,13.3-0.5,20.6-0.6,24.9c0,1.5-0.1,5-0.2,9.7
			c-0.1,5.1-0.3,10.1-0.4,15.2c0,2.8-0.6,4.2-1.8,5.4c-1.3,1.3-3,1.4-6.3,1.7c-1.7,0.1-4.1,0.1-7-0.2c-3.6,0.5-7.1,1.1-10.6,1.6
			c-1,0.5-2.4,0.8-3.2,0.1c-1.3-1-0.7-3.7-0.4-8c0.2-2.3,0.4-5.6,0.3-9.6c0.1-1.3,0.1-2.6,0.2-3.9c0.1-2.6,0.2-5.2,0.3-7.8
			c0.3-2.1,0.7-5.4,1.4-9.3c0.6-3.1,1-5.4,1.4-7.3c2-9.5,2.9-11.6,3-15.9c0-2.8-0.3-5-0.6-6.4c-0.2-2.4-0.9-4-1.4-5
			c-1.2-2.2-2.6-3.2-3.2-5.8c-0.2-0.9-0.2-1.7-0.2-2.3c0.8-1.7,0.8-3.2,0.7-3.8c-0.1-1.1-0.4-2.1-0.8-3.1c-0.3-0.9-0.7-1.6-1-2.1
			c1.7,0,3.8-0.2,6.1-0.7c3.3-0.8,5.9-2,7.7-3.1c7.3-1.6,14.6-2.3,22,0c-0.9,5.1-1.7,10.3-2.6,15.4c-0.2,0.8-0.5,1.7-0.7,2.7
			c-0.3,1.3-0.4,2.6-0.5,3.6C288.9,157.5,288.5,160.7,288,164z M271.6,175.2c-0.1,0.1-0.1,0.1-0.2,0.2l0,0
			C271.6,175.3,271.6,175.3,271.6,175.2z"/>
		<path class="st3" d="M257.5,240C257.5,240,257.5,240.1,257.5,240c-0.5-0.6-0.8-1.4-1.1-2.3c-0.7-2.3,0.6-4.8,1.7-7.2
			c0.1-0.2,0.4-0.8,0.8-1.8c0.3-0.7,0.5-1.2,0.7-1.5c0.4-0.1,1.1-0.2,1.9-0.4c2.4-0.4,3.9-0.4,5.4-0.5c1.3-0.1,3.2-0.3,5.5-0.8
			c-0.6,4.8,2.8,6.3,6.5,7.3c1.2,0.4,2.4,0.7,3.6,1.1c0.3,0.1,0.7,0.1,1.2,0.2c3.2,0.4,4.1-0.2,5.2,0.5c1.2,0.8,1.9,2.7,1.4,3.9
			c-0.4,0.9-1.3,1.2-4.3,1.7c-4.5,0.7-6.9,0.7-6.9,0.7c-6.2,0-9.2-0.2-9.2-0.2C267.1,240.5,262.8,240.3,257.5,240z"/>
		<path class="st3" d="M267.8,135.7c0.4,0.2,0.8,0.6,1.1,0.4C268.6,136.2,268.2,135.8,267.8,135.7z M268.3,134.6
			c0.2-0.1,0.7,0.3,1.1,0.4C269.1,134.8,268.6,134.5,268.3,134.6z"/>
	</g>
	<g>
		<g>
			<path class="st0" d="M134.3,129c-2.9-4.6-5.8-9.4-8.7-14c-3.9-1.7-7.7-3.3-11.6-5c-6.5-3.3-13.1-6.5-19.6-9.9
				c0.2-0.4,0.5-1.1,0.7-1.9c0.3-1.5,0.2-2.6,0.2-3.1c-0.5-5.6-1-8.2-1-8.2c-1.3-6.6-1.6-8.5-1.8-10.1c-0.4-3-0.5-4.7-0.1-6.6
				c0.3-2,1-3.6,1.5-4.6c0.1-0.8,0.2-1.7,0.2-2.5c0-1.8,0-3.7,0-5.5c0.3-9.1,6.8-17.9,15.5-20.4c2.5-0.7,5-1.3,7.5-1.9
				c0.9-2.6,0.9-6.2,5.6-5c0.3-1.2,0.6-2.3,0.9-3.5l0,0c-0.2-5.3-2.2-11.3-0.2-15.7c4.3-9.6,18.9-10.6,27-2.9
				c1.2,3.8,2.6,7.6,3.8,11.4c-0.4,1-1.5,2.4-1.1,3.1c3.4,7-3.2,11.5-5.1,17c-0.7,1.9-6.4,2.1-9.9,3.1c-0.2,0.3-0.6,0.7-0.8,1.4
				c-0.4,1.3,0,2.4,0.1,2.7c0.2,0.7,0.6,1.1,0.9,1.4c1.5,2.2,3.1,4.5,4.6,6.8c1.5,2.3,3.1,4.6,4.5,6.9c0.9,0.6,2.3,1.7,3.6,3.2
				c1.7,1.9,2.1,3.3,3.8,5.7c0.8,1.1,2,2.7,3.8,4.5c2-3.8,0.4-10.5,7.9-9.6c2.6,0.3,6,1.6,7.3,3.5c2.2,3.2,3.5,7.5-2.1,9.4
				c-4,1.5-5.4,4-4.3,7.9c1.2,2.8,1.5,5,0.6,6.8c-1.3,2.7-5,3.3-6.3,3.5c-4.6,0.8-11.6,3.6-22.2,12.2c-0.1,0.1-0.1,0.1-0.2,0.2
				c2.6,7.7,5.3,15.4,7.6,23.1c0.9,3.3,4.6,7.1-0.9,10.7c-1.9-3.5-3.4-7.1-5.7-10.3C138.1,131.5,136.2,130.3,134.3,129z M131.3,31.2
				c0.9,0.1,1.7,0.1,2.6,0.1L131.3,31.2z M131.2,31.3c0.6,0,1,0,1.6,0.1c-0.1,0.4-0.1,0.7-0.2,1.1c0,0,0,0,0.1,0.1
				c0.1-0.4,0.1-0.8,0.2-1.3h0.7h0.5l0,0h-0.6h-0.7C132.3,31.3,131.8,31.3,131.2,31.3l-0.1-0.1c-0.9-0.9-1.9-1.9-2.9-2.8l0,0
				C129.3,29.4,130.3,30.3,131.2,31.3z M115.4,67.4L115.4,67.4L115.4,67.4L115.4,67.4z M119.6,74.1c0,0.1,0,0.1,0,0.2
				C119.6,74.2,119.7,74.2,119.6,74.1C119.7,74.1,119.7,74.1,119.6,74.1z M119,84.2c0.4,0.2,0.9,0.5,1.1,0.4
				C119.8,84.7,119.3,84.3,119,84.2z M114,85.2L114,85.2c0.6,0.7,1.1,1.4,1.7,2.1C115.2,86.6,114.5,85.9,114,85.2z M119.5,71.6
				L119.5,71.6c0-0.1-0.1-0.1-0.1-0.2c-2,0.2-3.9,0.4-6.2,0.7c0.7-1.3,1.1-2.5,1.7-3.7c-0.6,1.2-1.1,2.5-1.8,3.9
				C115.6,72,117.5,71.8,119.5,71.6z M113.2,53c0.2,1.2,0.4,2.3,0.6,3.5c-0.1-1-0.3-2-0.5-3c0.4-0.3,0.8-0.7,1.1-1.1
				c1.9,2.8,3.8,5.6,5.7,8.4c0.9-0.5,1.6-1,2.5-1.4c0-0.1,0-0.1,0-0.2c-0.8,0.5-1.5,0.9-2.4,1.4c-2-2.9-3.9-5.8-5.9-8.7
				C114,52.2,113.6,52.6,113.2,53z M127.3,45.8c-2.3,1.2-4.6,2.4-6.7,3.4c0,0.2,0.1,0.3,0.1,0.5c1.9-0.8,4.1-1.9,6.1-3
				c2.9,5.5,5.9,11,8.8,16.4c-2.1,3.7-4.2,7.3-6.3,11c0.2,0,0.4,0,0.6,0c0.5,0.5,0.9,1.1,1.3,1.7c0.5,0.6,0.9,1.2,1.3,1.7l0,0l0,0
				c-0.5-0.5-0.9-1.1-1.3-1.7c-0.5-0.6-0.9-1.1-1.3-1.7c2.2-3.8,4.3-7.6,6.5-11.4C133.3,57,130.3,51.3,127.3,45.8z M130.4,78.6
				L130.4,78.6L130.4,78.6L130.4,78.6z M136.8,64.4c0.5,1.8,0.9,3.6,1.5,5.5C137.8,68,137.3,66.2,136.8,64.4z M147.1,88
				c0.5,0.5,0.8,0.9,1,1.3C147.9,88.8,147.6,88.4,147.1,88c0-0.1,0-0.2,0-0.2c-2.5,2.3-4.9,4.6-7.4,6.9c-0.2-0.1-0.5-0.1-0.7-0.1
				l0.1,0.1c0.3,0,0.5,0.1,0.7,0.1C142.3,92.5,144.7,90.2,147.1,88z M146,94.6L146,94.6c0.8-0.3,1.4-0.6,1.9-1.1
				C147.4,93.9,146.7,94.3,146,94.6z M165.2,89.3L165.2,89.3L165.2,89.3L165.2,89.3L165.2,89.3z M145.8,94.7L145.8,94.7
				c-0.1-0.1-0.2,0-0.3,0v0.1C145.7,94.8,145.7,94.8,145.8,94.7z M137.3,96.4L137.3,96.4c0.2-0.2,0.3-0.3,0.4-0.4
				c0-0.8,0-1.5,0.1-2.3c-0.2-0.2-0.4-0.3-0.6-0.5l-0.1-0.1c-4.4-0.1-8.8-0.2-13.2-0.3c-0.9,0-1.6,0-2.5,0.1
				c-4.9-0.8-9.7-1.6-14.5-2.4c-1.4-1.8-2.8-3.5-4.2-5.3c-0.1,0.1-0.2,0.2-0.4,0.3c1.3,1.6,2.6,3.2,3.7,4.7c0,0.4,0,0.7,0,1.1
				c0.3,0.2,0.5,0.4,0.8,0.6c0-0.4,0-0.7,0-1.2c4.9,0.8,9.7,1.6,14.6,2.5c-2.1,0.6-4.1,1.2-6,1.8l0,0c2.1-0.6,4.1-1.2,6-1.8
				c0.9,0,1.6,0,2.5-0.1c4.4,0.1,8.8,0.2,13.2,0.3l0.1,0.1c0,1,0,1.9-0.1,2.9c-1,1.3-2.1,1.9-3.1,2
				C135.1,98.3,136.2,97.7,137.3,96.4z M133,96.4c-1.9,0-3.9,0-5.8,0.1l0,0C129.2,96.5,131.1,96.4,133,96.4z M104,97.7L104,97.7
				C104.1,97.7,104,97.7,104,97.7c0.4,0.5,0.9,0.9,1.2,1.3c0.1,0.1,0.2,0.1,0.2,0.1C105,98.6,104.5,98.1,104,97.7z"/>
			<path class="st0" d="M62.9,189.5c0.2-0.8,0.9-3.6,3.3-5.2c0.6-0.4,1.2-0.6,1.7-0.8c0.3,0,0.6,0.1,0.9,0c0.3,0,0.5,0,0.8,0
				c0.4,2.3,0.8,4.6,1.1,6.8c0.6,1.8,1.1,3.6,1.6,5.5c-1.8,3.8-3.5,7.6-5.3,11.4c-0.3-0.1-0.6-0.1-0.9-0.2c0.4,0.1,0.8,0.2,1.1,0.3
				c1.8-3.8,3.5-7.6,5.3-11.4l-0.1-0.1c-0.6-1.7-1.1-3.5-1.5-5.3c0,0,0,0-0.1,0c-0.4-2.4-0.8-4.7-1.2-7c8.2-3.6,16.4-6.9,24.6-10.7
				c7.5-3.6,6.9-5.3,4.2-12.7c-5.5-14.6-14.7-28.7-10-45.5c0.7-2.2,1.7-4.1,2.6-6.2c0,0,0-0.1-0.1-0.1c0.1-0.8,0.3-1.6,0.4-2.4
				c0.4-0.6,0.8-1.2,1.1-1.7c0.8-1.4,1.4-2.7,2.1-3.9c6.5,3.3,13,6.5,19.6,9.8c0,0,0.1,0,0.1-0.1c3.9,1.7,7.7,3.4,11.6,5.1
				c-2,1.5-4,3.1-6,4.6c-3.1-2.1-6.2-4.2-9.8-6.7c0,0,0,0-0.1,0.1c3.7,2.5,6.8,4.6,9.9,6.7c1,2.7,2.1,5.4,3,8.1
				c-2.7,1-5.5,1.6-8.1,1.6c2.7,0,5.5-0.6,8.2-1.6l0,0c-1-2.7-2.1-5.4-3-8.1c2-1.5,4-3.1,6-4.6c2.9,4.6,5.8,9.3,8.7,13.9
				c1.9,4.7,3.7,9.5,5.6,14.2h-0.1c-0.6,5.5-1,11-1.6,16.5c-1.9,0.4-3.7,0.9-5.6,1.3c-1.1-3.6-2.7-7.2-3.3-10.9c0-0.2,0-0.3,0-0.5
				c0,0.2,0,0.5,0,0.7c0.6,3.7,2.2,7.3,3.3,10.9c0,0.3,0,0.7,0.1,1c0-0.4,0-0.8-0.1-1.1c1.9-0.4,3.7-0.9,5.6-1.3
				c0.1,7.2,0.5,14.5,0.3,21.7c-0.1,2.9-1,5.7-1.7,8.6h0.1l0,0l0,0c-0.2,0.3-0.4,0.5-0.7,0.7c-0.2,0.2-0.5,0.5-0.7,0.7
				c-0.5,2.3-0.9,4.6-1.3,6.9c-0.1,1.8-0.2,3.6-0.4,5.5c-0.9,2.3-1.8,4.7-2.7,7c-3.6,0.8-7.1,1.5-10.7,2.2c0,0,0,0.1,0.1,0.1
				c3.6-0.8,7.1-1.5,10.7-2.2c-0.6,2.7-1,5.4-1.6,8c-0.6,1-1,1.9-1.6,2.9c-0.1,3.2-0.2,6.3-0.4,9.5c2.2,0.8,4.4,1.7,6.6,2.7
				c-2.6,1.7-5.2,3.4-7.7,5.1c-7.4-0.2-14.6-0.4-22-0.6c-0.9,0-3-0.1-4-0.1c-0.2-0.5-0.4-1-0.5-1.4c0-1,0.1-1.9,0.1-2.9
				c-0.3-0.7-0.5-1.4-0.8-2.1c-0.3,0-0.6-0.1-0.9-0.1c-0.1-1.4-0.2-2.7-0.3-4.1c0.9-3.3,1.9-6.5,2.8-9.8c0.1-0.1,0.1-0.1,0.2-0.2
				c0.5-1.4,0.9-2.8,1.3-4.1c5-6.6,10-13.2,15-19.9c-0.3-0.3-0.6-0.6-0.9-0.8l0,0c0.3,0.3,0.6,0.6,0.9,0.8c-5,6.6-10,13.2-15,19.9
				c0-4.2,0-8.4-0.1-12.5c-1.9,0.9-3.9,1.8-5.8,2.7c1.4-2,2.6-4.3,4.3-5.9c2.1-2,4.7-3.4,7.2-5.1c2-1.1,4-2.2,6-3.2c0,0,0,0,0-0.1
				c-2,1.1-4,2.1-6,3.2c-7.1-0.4-14.2-0.7-21.3-1.1c7.1,0.4,14.2,0.7,21.3,1.1c-2.5,1.7-5,3.1-7.2,5.1c-1.8,1.6-2.9,3.9-4.3,5.9
				l-0.1,0.1c-1.4,1.3-2.9,2.6-4.3,3.9c-4.1,4-7.5,2.7-10.6-1.1c-1.3-1.6-2.6-3-4-4.6c-1.1,2.9-2.6,5.7-3.1,8.6
				c-0.5,2.6,0.1,5.4,0.2,8.1c0.2,2.1-0.9,4-2.4,4.6c-2,0.8-4.6-0.5-5.4-3.1c-0.8-2.7-1.6-5.7-2.2-8.9c-0.7-3.5-1.1-6.8-1.5-9.8
				C63.2,197.7,63,193.6,62.9,189.5z M129.8,204.7L129.8,204.7c-2.8-0.8-5.8-1.4-8.5-2c0,0,0,0,0,0.1
				C124.2,203.5,127,204.1,129.8,204.7z M113.6,176.7L113.6,176.7L113.6,176.7L113.6,176.7z M128.4,180.5L128.4,180.5L128.4,180.5
				L128.4,180.5z M123.7,142c0,0,0-0.1,0.1-0.1c-0.7-0.2-1.3-0.4-2-0.6c0.2-0.7,0.4-1.3,0.6-2c-0.2,0.7-0.5,1.4-0.7,2.1
				C122.4,141.6,123,141.8,123.7,142z M122.8,129.7c0,0.4,0,0.7,0.1,1.1c0.3,1,0.8,2,1.1,3c0,0,0,0,0-0.1c0,0,0,0,0.1,0
				c-0.4-1-0.9-1.8-1.1-2.9C122.9,130.4,122.8,130.1,122.8,129.7z M131,140.7c0.1,1.4,0.1,2.7,0.2,4.1c-0.1,0.4-0.3,0.8-0.5,1.1
				c0.2-0.4,0.4-0.8,0.6-1.2h0.1c-0.1-1.4-0.1-2.6-0.2-4c0.2-1.9,0-3.4-0.7-4.6C131.1,137.2,131.3,138.7,131,140.7
				c-1.2-1.2-2.6-2.3-4.3-3.7l-0.1,0.1C128.4,138.5,129.7,139.6,131,140.7z M133.4,169.1c-0.2,0-0.3-0.2-0.4-0.5
				c0.1,0.4,0.2,0.6,0.4,0.6c2.1,0.4,2.7,1.2,2.8,2.1C136.2,170.3,135.6,169.5,133.4,169.1z M112.3,209.6c-0.9,0.7-1.8,1.4-2.7,2.1
				C110.6,211,111.5,210.3,112.3,209.6z M102.5,201.5c12-8.1,24-16.2,36-24.3C126.6,185.3,114.5,193.4,102.5,201.5z M113.4,188.1
				c-0.5-2.8,4.3-2.5,4.9-4.6l0,0C117.5,185.5,112.7,185.2,113.4,188.1z M65,206.8c-0.3-0.1-0.6-0.2-0.9-0.3l0,0
				C64.4,206.6,64.7,206.7,65,206.8z"/>
			<path class="st0" d="M92.4,208.2c1.4-1.3,2.8-2.7,4.3-3.9C95.3,205.6,93.8,206.9,92.4,208.2z"/>
		</g>
		<path class="st2" d="M131.6,151.8c1.5,4,3,8.5,4.3,13.4c1.1,4.2,2,8.2,2.6,11.9"/>
		<path class="st3" d="M102.5,207.4c-0.1-1.3-0.4-4.4,0.7-8.2c0.1-0.5,0.3-0.8,0.3-1.1c4.6-4,9.4-7.5,14.3-11.2
			c4.3-3.2,8.1-7,9.8-12.4c2.1-6.8,1.2-14.6,0.4-21.5c-1-7.6-2.5-15.2-3.7-22.8c-0.7-4-1.7-8-3.3-11.8c1.3-1,2.6-2.1,4.1-3.1
			c0.6,0.4,1,0.9,1.6,1.3c2.6,4,5,8.1,7.7,12.2c1.9,4.7,3.7,9.5,5.6,14.2h-0.1c-0.6,5.5-1,11-1.6,16.5c-1.9,0.4-3.7,0.9-5.6,1.3
			c-1.1-3.6-2.7-7.2-3.3-10.9c0-0.2,0-0.3,0-0.5c0,0.2,0,0.5,0,0.7c0.6,3.7,2.2,7.3,3.3,10.9c0,0.3,0,0.7,0.1,1c0-0.4,0-0.8-0.1-1.1
			c1.9-0.4,3.7-0.9,5.6-1.3c0.6,6.4,0.9,13.7,0.3,21.7c-0.2,3.3-0.6,6.4-1,9.4c-0.4,1.5-0.8,3-1.2,4.5c-0.8,2.9-1.6,5.7-2.4,8.6
			c-0.4,0.9-0.8,2-1.3,3.5c-1.3,3.7-1.9,6.6-2.1,7.6c-0.5,2.7-0.2,2.2-0.7,4.3c-0.8,3.8-1.7,4.8-1.9,7.3c-0.1,1,0,2.5,0.4,4.3
			c0.8,0.6,1.6,1.2,2.7,1.8c1.6,0.9,3.1,1.6,4.4,2c1.1,0,2.2,0.9,2.4,2c0.2,0.9-0.2,1.9-0.9,2.5c-1.1,0.1-2.9,0.3-5.1,0.5
			c-8.7,0.5-9.6-0.9-16.6-0.5c-3.5,0.2-7,0.2-10.5,0.2c-0.9,0-3.8,0.2-4.3-1.2c-0.2-0.4-0.2-1.1-0.1-2.6c0-0.6,0-1.1,0-1.5
			c0-0.3-0.1-0.7-0.4-1.1c-0.4-0.5-0.8-0.6-1.1-0.7c-1-0.6-0.9-2.7-0.8-3.4c0.2-3,1.5-5.3,1.9-6
			C103.1,216.4,102.6,208.4,102.5,207.4z M133.3,168.8c2.1,0.4,2.7,1.2,2.8,2.1C136.1,170,135.5,169.2,133.3,168.8
			c-0.2-0.1-0.3-0.3-0.4-0.6C133,168.5,133.1,168.8,133.3,168.8z M131,140.3c0.1,1.4,0.1,2.7,0.2,4.1c-0.1,0.4-0.3,0.8-0.5,1.1
			c0.2-0.4,0.4-0.8,0.6-1.2h0.1c-0.1-1.4-0.1-2.6-0.2-4c0.2-1.9,0-3.4-0.7-4.6C131,136.8,131.2,138.3,131,140.3
			c-1.2-1.2-2.6-2.3-4.3-3.7l-0.1,0.1C128.3,138.1,129.6,139.2,131,140.3z M129.7,204.4C129.7,204.3,129.7,204.3,129.7,204.4
			c-2.8-0.8-5.8-1.4-8.5-2c0,0,0,0,0,0.1C124,203.1,126.9,203.7,129.7,204.4z"/>
		<path class="st2" d="M133.2,237.4"/>
	</g>
	<path class="st3" d="M429.8,128.9c0.5,0,6.6-1,18.7-4.2c5.8-1.5,10.5-3,13.6-4.1c0.6-0.1,1.4-0.3,2.3-0.3c0.8-0.1,1.6,0,2.3,0
		c-0.4,1.7-1,4.2-1.6,7.3c-0.7,3.5-1,5.8-1.2,7.1c-1.1,7.2-2.8,8.4-4,14.3c-1.6,7.8-0.6,15,0.2,20.9c0.4,3.2,0.9,5.2,1.1,9.2
		c0.1,1.7,0.2,5.3-0.3,10.6c-0.9,9.3-1.4,14-4.2,16.7c-1,1-4.4,4-12.2,3.3c0.9,5.6,1.7,11.1,2.5,16.7v0.1c1,0.5,2.3,1,3.8,1.3
		c1.6,0.3,2.9,0.4,4,0.4c2.9-0.8,5.2-0.7,5.8,0.3c0.8,1.5-2.5,4.6-2.8,4.8c-2.5,2.3-4.2,2-14.5,4.3c-3.6,0.8-6,1.4-8.3,0.1
		c-0.3-0.2-1.7-1-2.4-2.6c-0.7-1.5-0.4-2.8,0-6.1c0.2-1.2,0.6-4.3,0.7-6.3c0.2-3.6-0.4-6.2-0.7-8c-1-4.9-1.3-10.4-2-21.5
		c-0.8-12.5-1.2-18.7-0.2-23.7c0.4-2.1,1.6-7.3,0.4-12.5c-0.6-2.8-1.1-4.7-1.1-4.7c-0.8-3-1.3-4.5-1.6-6.3c-0.1-0.4-0.2-1.2-0.4-2.4
		c-0.3-1.8-0.7-4.1-1.3-6.3c-1.3-4.6-2.7-5.4-2.1-6.7C425,129.1,427.8,129,429.8,128.9z M438.2,230.5c-1.1-0.8-1.9-1.5-2.7-2
		C436.3,229.1,437.2,229.8,438.2,230.5c1.2-3,2.1-5.6,3-8.2c0-0.1-0.1-0.2-0.1-0.2v0.1C440.2,224.8,439.3,227.4,438.2,230.5z
		 M444.1,208.3C444.1,208.3,444.1,208.4,444.1,208.3c2.6-0.6,5.1-1.2,7.8-1.9c1.1-4.7,2.3-9.7,3.5-15c-0.1,0-0.2,0-0.3,0.1
		c-1.3,5.1-2.4,10-3.4,14.5c-2.7,0.7-5.2,1.4-7.8,2c-2.3,0.6-4.5,1.1-6.8,1.5C439.3,209.1,441.7,208.7,444.1,208.3z M442.2,165.3
		c0,0.1,0,0.1,0.1,0.2c9.2-4.8,9.2-13.4,9.2-22l0,0C451.5,152,451.4,160.5,442.2,165.3z"/>
	<path class="st3" d="M454,207.7"/>
	<path class="st4" d="M463,176.8c19.5-1.5,33-7.5,41.5-12.6c9.6-5.7,32.4-20,40.1-56.2c2.5-12,2.8-23.2,2.5-31.3"/>
	<line class="st4" x1="550.2" y1="80.7" x2="547" y2="76"/>
	<line class="st4" x1="541.8" y1="78.7" x2="547.2" y2="76.2"/>
	<path class="st5" d="M502.9,105.8c8.9,10.4,9.7,24.6,2.3,34.9c-8.7,12.2-27.2,16.8-42.9,9.9"/>
	<text transform="matrix(1 0 0 1 474.9148 134.3221)" class="st6 st7">120º</text>
	<text transform="matrix(0.9992 -3.889172e-02 3.889172e-02 0.9992 164.1069 41.4628)"><tspan x="0" y="0" class="st6 st8">Las manos deben </tspan><tspan x="0" y="12" class="st6 st8">mantenerse </tspan><tspan x="0" y="24" class="st6 st8">empuñadas</tspan></text>
	<path class="st5" d="M163.9,81.8c9.3,0,18.7-0.1,28-0.1"/>
	<path class="st5" d="M192.3,68.1c-0.1,4.5-0.2,9-0.2,13.6"/>
	<text transform="matrix(1 0 0 1 303.6402 191.0986)"><tspan x="0" y="0" class="st6 st8">El pie de apollo </tspan><tspan x="0" y="12" class="st6 st8">rota manteniendo</tspan><tspan x="0" y="24" class="st6 st8">el tobillo en el lugar</tspan></text>
	<path class="st5" d="M284.9,231.6c15,0.2,30,0.5,44.9,0.7"/>
	<path class="st5" d="M330.8,218.8c-0.3,4.5-0.5,9-0.8,13.5"/>
	<text transform="matrix(1 0 0 1 471.0517 27.2321)"><tspan x="0" y="0" class="st6 st8">Rodilla y pie </tspan><tspan x="0" y="12" class="st6 st8">totalmente</tspan><tspan x="0" y="24" class="st6 st8">estirados</tspan></text>
	<path id="SVGID_x5F_1_x5F_" class="st9" d="M491.9,54.9c0.3,4.5,0.5,9,0.8,13.5"/>
	<text>	<textPath  xlink:href="#SVGID_x5F_1_x5F_" startOffset="33.6176%">
	</textPath>
</text>
	<path class="st5" d="M517.1,65.6c-9.3-0.3-18.6-0.6-28-0.9"/>
	<path class="st5" d="M489.3,54.9c-0.1,3.3-0.2,6.5-0.3,9.8"/>
	<text transform="matrix(0.8967 -3.489825e-02 3.889119e-02 0.9992 177.8806 109.9392)"><tspan x="0" y="0" class="st6 st10">La cadera y</tspan><tspan x="0" y="12.7" class="st6 st10">el pecho miran </tspan><tspan x="0" y="25.4" class="st6 st10">frente al oponente</tspan></text>
	<path class="st5" d="M254.1,96.8c-9.2,0-18.4,0.1-27.7,0.1"/>
	<path class="st5" d="M226,107.8c0.1-3.6,0.2-7.3,0.2-10.9"/>
</g>
</svg>
