<?xml version="1.0" encoding="utf-8"?>
<!-- Generator: Adobe Illustrator 27.0.0, SVG Export Plug-In . SVG Version: 6.00 Build 0)  -->
<svg version="1.1" xmlns="http://www.w3.org/2000/svg" xmlns:xlink="http://www.w3.org/1999/xlink" x="0px" y="0px"
	 viewBox="0 0 593.2 245.8" style="enable-background:new 0 0 593.2 245.8;" xml:space="preserve">
<style type="text/css">
	.st0{fill:#3C55A2;}
	.st1{opacity:0.79;fill:#191642;stroke:#191642;stroke-miterlimit:10;enable-background:new    ;}
	.st2{fill:#191642;stroke:#191642;stroke-miterlimit:10;}
	.st3{fill:#6B6B8E;stroke:#6B6B8E;stroke-miterlimit:10;}
</style>
<g id="Capa_2">
	<polygon class="st0" points="0,62.7 593.2,82.7 593.2,157.3 0,177.3 	"/>
</g>
<g id="Capa_1">
	<g>
		<path class="st1" d="M285.4,102c-3.6-1.4-6.1-0.3-8.1,1.9c3.3,0.2,6.5,0.9,9.6,2.2C286.4,104.7,285.9,103.4,285.4,102z"/>
		<path class="st1" d="M217.4,13.8c-0.3,0.8-0.6,1.6-0.8,2.1c-0.9,2.8-0.9,5.7-0.9,8.6c0.7-0.6,1.4-1.2,2.1-1.8
			C217.9,19.6,218,16.6,217.4,13.8z"/>
		<path class="st1" d="M220.1,11.2c1.9,0.4,3.7,0.8,5.5,1.2c0.1-0.9,0.2-1.7,0.3-2.6c0.1-1.6-0.2-2.7-1-4c-0.6-0.2-1.3-0.4-1.9-0.6
			C222.2,6.8,221.5,8.3,220.1,11.2z"/>
		<path class="st1" d="M304.9,122.2c-1.2-4.3-4.5-8.3-7.1-11.9c-4.9-6.8-9-14.7-14.3-21.3c-0.3,2-0.7,4-1,6c0,0-0.1,0-0.1,0
			c0.4-2,0.7-4,1.1-6.1c-1.2-1.4-2.4-2.8-3.7-4.1c-3.3-3.3-7.9-3.7-10.2-7.7c0.6,3.4,1.2,6.9,2,10.8c0,0-0.1,0-0.1,0.1
			c-0.8-4-1.4-7.5-2-11.1c-0.3-0.6-0.6-1.3-0.8-2c-0.7-2.6-0.2-5.4-0.2-8.1c0.1-3.8-0.7-6.9-2.1-10.4c-0.7-1.7-0.4-3.2,0.5-4.2
			c-8.5-9.8-18.6-16.6-31.2-18.8c0,0,0,0,0.1,0c0.6-5.8,1.1-11.6-0.6-17c-0.1,0.7-0.1,1.3-0.1,2c-0.1,2.6-1.8,4.2-3.8,4.6
			c0.6,0.8,1.3,1.5,1.9,2.3c-1.7,1.5-3.2,3.4-5.1,4.5c-0.1,0-0.1,0.1-0.2,0.1c1.9-1.1,3.4-2.9,5.1-4.4c-0.6-0.8-1.3-1.6-1.9-2.4
			c-2.9,0.6-6.1-1-6-4.7c0-0.1,0-0.2,0-0.3c0,0-0.1,0-0.1,0c0,0,0,0,0,0c0,0,0.1,0,0.1,0c0.1-1.8,0.5-3.5,0.7-5.2
			c-2-0.4-4.2-0.9-6.4-1.4c1.1-2.3,1.8-3.8,2.4-5c-1.6,1.9-3.1,5-4,7.3c0.7,2.8,0.5,6,0.4,9.1h0c-0.7,0.6-1.4,1.3-2.2,1.9
			c0,3.2,0.1,6.5-1.2,9.6c-0.6,1.6-1.3,3.1-2.1,4.6c1.3-0.6,2.7-1.2,4-1.9l0.4-0.1c4,0.7,8,1.4,12,2c5,0.9,8.1,3.6,7.9,7.4
			c0,0-0.1,0-0.1,0c0.1-3.7-2.9-6.5-7.9-7.3l-12-2l-0.4,0.1c0,0,0,0,0,0c-1.3,0.6-2.7,1.3-4,1.9c-0.5,0.9-1,1.9-1.5,2.8
			c0.8,1.1,1.7,2.2,2.6,3.3c0,0,0,0,0,0c-0.9-1.2-1.8-2.2-2.6-3.3c-1.5,2.6-3.1,5.2-4.6,7.9c-0.2,0.4-0.4,0.8-0.6,1.2
			c1.5,1.3,2,3.9,0.9,8.7c0,0.1-0.1,0.1-0.1,0.2c1.2-4.9,0.7-7.6-0.8-8.8c-2.4,4.7-4,9.6-4,15c0,0.8,0,1.5,0.1,2.3
			c1.1-0.4,2.1-0.7,3.2-1v0.1c-1.1,0.4-2.1,0.7-3.2,1c0.3,6.3,2,12.4,2.8,18.6c0,0.4,0.1,0.8,0.1,1.2c0.1-0.1,0.2-0.2,0.3-0.4
			c0,0,0.1,0.1,0.1,0.1c-0.1,0.1-0.2,0.3-0.3,0.4c0.4,4,0.9,10.1,4.4,11.9c2.3,1.2,5.9,0.1,8.5,1.3c0.9,0.4,4.8,4,5.5,3.6
			c3.5-1.9,6.8,0.7,7.4,3.7c0.2-0.2,0.4-0.4,0.6-0.7c8.6-10.9,17.4-22,26.1-32.9c0,0,0,0,0.1,0c0,0,0,0,0,0
			c-8.7,10.9-17.4,22-26.1,32.9c0,0,0.1,0.1,0.1,0.1c-0.2,0.2-0.4,0.5-0.6,0.7c0.2,1.5-0.2,3-1.6,4.1c0,0.6-0.1,1.2-0.1,1.7
			c0.1,0.4,0.1,0.9,0,1.3c1.3,2.4,2.8,4.8,4.1,7.3c0.9,5.4,2.5,10.8,2.6,16.3c0.1,6.8-1,13.7-1.6,20.4c0.1,0.5,0.2,1,0.3,1.5
			c1,7.5,1.9,14.9,2.9,22.3c0.5,3.2,1,6.5,1.4,9.8c3.2,1.8,6.4,3.6,11.2,6.4c0,0.1,0.1,0.1,0.1,0.2c-4.9-2.8-8.2-4.6-11.4-6.5
			c0.4,3.4,0.8,6.9,1.1,10.3c0.2,1.4,0.3,2.8,0.3,4.2c1.4,5,2.9,10.1,4.3,15.1c0,0,0.1,0,0.1,0c-0.2,0.4-0.3,0.8-0.4,1.2
			c-1.6,2-3.3,4-4.9,6c-1.5,1.8-2.9,3.8-4.5,5.6c0.5,0.4,1,0.8,1.3,1.2c0.9,0.2,1.7,0.3,2.6,0.5c0.4-0.2,0.9-0.4,1.3-0.5
			c0.3,0.6,0.5,1.1,0.7,1.8c2.9,0.5,5.8,1.1,8.7,1.5h3c0.7-0.1,1.3-0.1,2-0.2c0.4-0.5,0.7-1,1-1.5c-0.1-1.9-0.3-3.8-0.5-5.7
			c-0.6-3.4-1.2-6.8-1.9-10.2c-0.3,0-0.7,0.1-1,0.2c0.3-0.1,0.7-0.1,1-0.2c2.9-1.5,5.8-3,8.7-4.5c-0.9-3.2-1.8-6.5-2.7-9.7
			c-0.2-0.6-0.6-1.4-0.5-1.9c1.4-9.2,2.9-18.4,4.3-27.6c0.1-1.5,0.2-2.9,0.3-4.4c0-0.5-0.1-1.1-0.1-1.5c0,0,0.1,0,0.1,0
			c0,0.5,0.1,0.9,0.2,1.4c0.3-0.5,0.7-1,1-1.5c0,0-0.1,0-0.1,0v-7.2c-0.8-1.2-1.5-2.2-2.3-3.3v-2.6c0,0,0,0,0,0c0,0,0,0,0,0
			c0.3-1.9,0.7-3.9,1-5.8c0,0,0,0,0,0c0.4-3,1-5.9,1.3-8.9c1-7.3,1.8-14.5,2.7-21.8c0.1-2.4,0.3-4.8,0.4-7.3
			c-1.9,2.9-3.7,5.8-5.6,8.7c-1.6,2.4-3.3,4.7-5.8,8.5c0-0.1,0-0.2,0-0.2c2.5-3.6,4.2-6.1,5.8-8.5c1.8-2.9,3.7-5.8,5.6-8.7
			c0.5-0.5,1-1.1,1.4-1.6c-0.2-0.4-0.4-0.9-0.6-1.3c-0.2-0.7-0.3-1.5-0.3-2.2c0-1.4,0.6-2.6,1.5-3.5c0.3-0.3,0.7-0.6,1.1-0.8
			c0.7-1.6,2.1-2.9,4.4-3c1,0,1.9,0,2.8,0.1c2-2.3,4.5-3.5,8.2-2.1c-0.2-2,0.8-4.7-0.6-6c1.6,1.3,0.5,4,0.7,6.1
			c0.5,1.4,1,2.8,1.6,4.2c1.8,0.7,3.5,1.6,5.1,2.7c2.3,1.6,4.4,3.5,6.1,5.8c1.7,2.3,1.9,5.3,3.4,7.5c1.4,2,1.7,0.3,3.5,0.8
			C305,122.5,304.9,122.1,304.9,122.2z M217.8,22.8c1.8-0.6,1.7-4.5,3.3-5.6C219.7,18.3,219.7,22.2,217.8,22.8z M224.6,34.3
			c-0.5-1.3-1-2.7-1.5-4c0,0,0.1,0,0.1,0C223.7,31.6,224.2,33,224.6,34.3C224.7,34.3,224.6,34.3,224.6,34.3z M257.6,149.6
			c-0.1,0.7-0.3,1.3-0.5,1.9C257.3,150.8,257.5,150.1,257.6,149.6z M265.1,75.4C265.1,75.4,265.1,75.4,265.1,75.4
			c-2.2-0.4-4.3-0.9-6.6-1.4c0,0,0,0,0,0C260.7,74.5,262.9,74.9,265.1,75.4z M230.2,43.6C230.2,43.6,230.2,43.6,230.2,43.6
			c-1,1.3-1.9,2.7-2.9,4l0,0C228.2,46.2,229.2,44.9,230.2,43.6z M205.2,88.4c1.3,1.7,2.7,3.6,4.2,5.5
			C207.8,92.1,206.4,90,205.2,88.4z M212.4,93.1c-1,0.4-2.5,1.4-2.8,1.1c0,0,0-0.1-0.1-0.1c0.3,0.3,1.8-0.7,2.7-1.1
			C212.3,93,212.3,93.1,212.4,93.1c2.6-1,5.2-1.8,7.9-2.8c0,0,0,0,0.1,0C217.7,91.3,215.1,92.1,212.4,93.1z M226.4,103.2
			C226.4,103.2,226.4,103.2,226.4,103.2c-6.9-1.1-8.1-3.7-6-12.9c0.3,0.1,0.5,0.1,0.8,0.2C219.3,99.1,220.4,101.8,226.4,103.2
			C226.4,103.1,226.4,103.1,226.4,103.2z M224.6,54c0.4-1.5,0.8-3.1,1.1-4.6l0.1-0.3c0,0,0,0,0,0l0,0.1c-0.4,1.5-0.8,3.1-1.1,4.6
			c2.4,1.6,4.7,3.2,6.9,4.8c0.1-0.2,0-0.4-0.1-0.6c0.2,0.2,0.3,0.4,0.2,0.7c0.9,0.1,1.9,0.3,3,0.5c0,0,0,0,0,0c0,0,0,0,0,0
			c0,0,0,0,0.1,0c-0.1,0-0.1,0.1-0.2,0.1c-1-0.1-2-0.3-3-0.5C229.2,57.2,226.9,55.6,224.6,54z M231.3,57.8c1.3,0.1,2.8,0.2,4.1,0.2
			c0,0,0,0.1-0.1,0.1c-1.3-0.1-2.6-0.2-3.9-0.2C231.4,57.9,231.4,57.9,231.3,57.8z M233.9,73.7c-0.1,0-0.1,0-0.2,0.1
			c-0.2-0.4-0.3-0.8-0.5-1.2c1-0.5,2.1-1,3.2-1.5c-1,0.5-2,1-3,1.5C233.6,73,233.7,73.4,233.9,73.7z M251.8,66.8
			C251.7,66.8,251.7,66.8,251.8,66.8c-0.1-1-0.2-2.1-0.2-3.1c-2.3-0.5-4.5-1-6.7-1.5c-2.3-1.5-4.6-2.9-6.8-4.4
			c-0.4,0.1-0.9,0.2-1.2,0.2c-0.7,0.4-1.3,0.7-2,1.1c0,0,0,0,0-0.1c0.7-0.4,1.3-0.7,2-1.1c-1.2-0.9-2.4-2.2-3.7-2.6
			c1.3,0.4,2.5,1.6,3.7,2.6c0.4-0.1,0.9-0.1,1.2-0.2v0c2.3,1.4,4.5,2.9,6.8,4.3c0,0,0,0.1,0,0.1c2.3,0.5,4.5,1,6.7,1.5
			c-2.8-3.7-5.4-7.5-8.2-11.1c-0.3,0.2-0.6,0.3-1,0.5c0,0,0-0.1,0-0.1c0.3-0.2,0.7-0.3,1-0.5c2.8,3.7,5.4,7.5,8.2,11.1
			C251.7,64.7,251.8,65.8,251.8,66.8c3.1-0.1,6.3-0.1,9.2-0.1c0,0,0,0,0,0C257.9,66.7,254.9,66.8,251.8,66.8z M235.3,113.6
			c-1.3-0.8-2.2-2.3-3.2-3.7C233.1,111.3,234,112.6,235.3,113.6c2.3,1.5,5.2,2.4,7.9,3.7c0,0,0,0,0,0
			C240.6,116.1,237.8,115.3,235.3,113.6z M244.1,177.9c-0.7-0.5-1.3-0.9-1.9-1.4c1.9-3.2,3.9-6.3,5.8-9.4c-1.9,3.2-3.8,6.3-5.8,9.4
			C242.8,177,243.5,177.4,244.1,177.9c1.5-2.2,2.9-4.6,4.6-6.6C247,173.4,245.6,175.6,244.1,177.9z M251.2,161.5
			C251.2,161.5,251.2,161.5,251.2,161.5C251.2,161.5,251.2,161.5,251.2,161.5c1-1.7,1.3-3.8,1.9-5.7c-2.4,2.2-4.6,4.7-7,6.7
			c-2.4,1.9-4.9,3.5-7.1,1.9c2.2,1.4,4.7-0.1,7.1-1.9c2.6-1.9,4.8-4.5,7-6.7c-0.5-1-0.9-1.9-1.4-2.9c0,0,0,0,0,0
			c0.5,1,1,1.9,1.5,2.9C252.5,157.7,252.2,159.8,251.2,161.5z M273.2,96.2c-3.3,3.4-6.6,6.8-9.8,10.3c-3.4,3.9-6.5,8.1-10,11.8
			c-5.9,6.2-8,6.3-15.6,1.7c0,0,0,0,0.1,0c7.5,4.4,9.6,4.2,15.4-1.8c3.5-3.7,6.6-7.9,10-11.8c3.1-3.7,6.7-7,10-10.5
			C273.2,96,273.2,96.1,273.2,96.2z"/>
		<path class="st1" d="M218.8,26.2C218.8,26.2,218.8,26.1,218.8,26.2c0.4,0,0.8,0.1,1.1,0.1C219.5,26.2,219.2,26.2,218.8,26.2z"/>
		<path class="st1" d="M236.8,72.5C236.8,72.5,236.8,72.5,236.8,72.5c5,0.1,10,0.2,14.9,0.3c0,0,0,0,0,0
			C246.8,72.6,241.8,72.6,236.8,72.5z"/>
		<path class="st1" d="M257.1,122.4C257.1,122.4,257.1,122.4,257.1,122.4c-0.3,1.8-0.5,3.7-0.9,5.9
			C256.5,126.1,256.8,124.3,257.1,122.4z"/>
		<path class="st1" d="M263.8,182.3c-0.1-1.1-1-2-1.4-3c-1.4,9.2-2.9,18.4-4.3,27.7c-0.1,0.6,0.3,1.3,0.5,1.9
			c0.9,3.2,1.8,6.5,2.7,9.7c6.8-0.7,4.2-6,4.2-10.1C264.9,199.7,264.4,191,263.8,182.3z"/>
	</g>
	<g>
		<path class="st2" d="M342.6,83.3c1.4-1.8,2.7-3.6,4-5.4C345.3,79.7,343.9,81.5,342.6,83.3z"/>
		<path class="st2" d="M349.1,51.2c0.8,0.6,1.7,1.1,2.4,1.6c0.1-0.5,0.1-0.9,0.1-1.4C350.8,51.3,349.9,51.3,349.1,51.2z"/>
		<path class="st2" d="M351.6,52.9C351.5,52.9,351.5,52.9,351.6,52.9c-0.1,0-0.1,0.1-0.1,0.1L351.6,52.9z"/>
		<path class="st2" d="M534.3,51.6c1.4,6.8-1.3,11.6-7.9,12.1c-6.8,0.6-7.5,4.5-7.4,9.9c16.3-2.6,21.3-9.4,16.8-22.3
			C535.2,51.4,534.8,51.5,534.3,51.6z"/>
		<path class="st2" d="M571.1,30.8c-2.1-3-11.3-1.2-27.3,5.4v0c-1.6,0.3-3.3,1.7-6,2.5c-1.4,0.4-3.6,0.8-6.5,0.4c0-0.1,0-0.1,0-0.2
			c-5.1,0.5-10.2,0.9-15.4,1.5c-8.6,3.2-18,5-25.7,9.7c-10.8,6.5-21.4,12.1-34.1,12.4c-1.1,0.6-2,1.3-3.1,1.7c0,0-0.1,0.1-0.1,0.1
			c-6.7,0.4-13.2,0.9-19.8,1.4c0,0,0,0.1,0,0.1c-1.6-2.4-3.9-4.7-4.4-7.5c-0.5-2.5,0.6-5.6,1.1-8.4c-0.8-1.1-1.8-2.2-2.6-3.3
			c0,0,0-0.1,0-0.1c-4.3-3-8.7-8.8-13-8.7c-13.1,0.2-26.2,2.7-39.2,4.3c0,0-0.1,0.1-0.1,0.1c-0.6-1-1.3-2.2-1.9-3.4
			c-0.2-0.2-0.4-0.4-0.7-0.5c-1.4-2.6-2.7-5.2-4-7.9c0,1.5,0.1,3.2,0.2,4.7c-0.4-0.3-0.8-0.6-1.2-1c-1.1,0.5-2.3,1.1-3.3,1.6
			l-5.8,6.3c-0.5,0.5-1.2,1.1-1.7,1.6c-1.4,2.2-2.9,4.4-4.4,6.6c0,0,0-0.1,0-0.1c1.4-2.2,2.9-4.4,4.4-6.6c0,0,0,0,0,0
			c0.4-0.5,0.7-1,1.1-1.4c0,0,0-0.1,0-0.1L363,36c0.3-0.1,0.6-0.1,1-0.2c1.1-0.5,2.3-1.1,3.3-1.6c-0.1-1.9-0.2-3.8-0.3-5.7
			c-0.5-0.3-1-0.6-1.5-0.9c-0.5-0.4-1.1-0.9-1.6-1.5c-1.5-0.4-3-0.7-4.5-1.2h-3.2c-0.9,1.1-1.8,2.1-2.8,3.2c0.9-1.1,1.8-2.1,2.8-3.2
			c-1.3,0-2.7-0.1-4-0.1c-1.9,2-4,4.1-6,6.1c-3.3,5.2-3.6,10.5-0.2,15.8c0.4,0.8,0.9,1.7,1.3,2.5c0,0.3,0.2,0.5,0.5,0.5
			c0.1,0.6,0.4,0.9,1,0.9c0,0.3,0.2,0.5,0.5,0.5c0.8,0.1,1.6,0.1,2.5,0.2c0.2-0.2,0.2-0.5,0.3-0.8c0,0.3-0.1,0.6-0.3,0.9
			c-0.1,0.5-0.1,1-0.1,1.5l0,0l0,0c0,0,0,0.1,0,0.1c0,0,0,0,0.1,0c-0.5,1.8-1.4,3.7-1.5,5.5c-0.1,2.4,0.2,4.9,0.4,7.4L367,48.3
			c1.2-0.9,2.4-1.9,3.6-2.8c-1.2,0.9-2.3,1.9-3.5,2.8c-5.5,5.9-11,11.8-16.5,17.7c-1.3,3.9-2.6,7.9-3.9,11.9c-1.3,1.8-2.7,3.6-4,5.4
			v3.3c4,7.3,8,14.7,12,22c0,0,0,0-0.1,0c0,0,0,0,0,0c-4-7.3-8-14.7-12-22c-0.5-0.1-1.1-0.1-1.6,0c1.1,8.7,0.1,18.3,8.9,23.9
			c0,0,0,0,0.1,0c6.2,7.8,10.2,18.9,23.1,17.1c-2.6-2.5-5.2-5.2-7.8-7.7c-3-3.6-6.1-7.4-9.1-11c0,0,0,0,0,0c0,0,0-0.1,0-0.1
			c3,3.7,6.1,7.5,9.1,11.1c0.4-2.6,1-5.3,1.5-7.9c-0.4,2.6-1,5.3-1.5,7.9c2.6,2.5,5.2,5.2,7.8,7.7c1.5-1.5,3-2.9,4.6-4.4
			c0-3.9-0.1-7.7-0.1-11.7c0.3-0.2,0.5-0.3,0.8-0.5c0,3.3,0.1,6.5,0.1,9.9c3-7.3,8-7.5,14.6-5.4c2.4,0.7,5.6-1.1,8.5-2.3
			c0.1,0.7,0.2,1.3,0.3,2c1.1,0.3,2.2,0.6,3.2,1.1c0.4-2,0.8-4,1.2-6c0-2.9-0.6-6,0.2-8.5c4.2-11.6,8.7-23,13-34.5
			c-1.7,0.2-3.3,0.4-5.1,0.6c0,0,0,0.1,0,0.1c-2-0.6-4.2-1.1-6.2-1.8c-2,2.6-4.1,5.2-6.1,7.8c-1.3,1.7-2.3,4-4,5
			c-7.3,4.4-14.9,8.5-24.3,13.9c0-0.1,0.1-0.1,0.1-0.2c9.4-5.3,16.9-9.4,24.2-13.8c1.7-1.1,2.7-3.3,4-5c2-2.6,4.1-5.2,6.1-7.8
			c2,0.6,4.2,1.2,6.2,1.8c1.7-0.2,3.3-0.4,5.1-0.6c0,0,0.1,0,0.1,0c-4.4,11.5-8.9,22.9-13,34.5c-0.9,2.5-0.2,5.6-0.2,8.4
			c-0.4,2-0.8,4-1.2,6c0.1,3.6-0.8,7.8,0.8,10.7c3.2,6.6,2.6,12.3-0.9,18.2c0,0-0.1,0-0.1,0c0,0,0,0.1,0,0.1c0,0,0,0,0,0
			c0,0,0,0,0,0c0.1,1,0.1,2.1,0.1,3.2c9.7-1.3,14.1-9.6,20.1-15.8c2.5-4.2,5-8.5,7.5-12.7c0.1,0,0.1,0,0.2,0
			c-2.6,4.2-5.1,8.5-7.6,12.7c0.1,0.3,0.2,0.5,0.4,0.8c-0.1-0.2-0.2-0.5-0.4-0.7c-6,6.2-10.6,14.4-20.1,15.8
			c0.1,3.3,0.1,6.4,0.2,9.6c0.4,4.8,0.8,9.7,1.5,14.5c0.5,3.7,1.7,7.3,2.6,10.8c1.8-2.2,3.5-4.4,5.4-6.5c-1.7,2.2-3.5,4.3-5.2,6.5
			c0,0.5,0.1,1.1,0.1,1.6c5.5,8.4,11.7,0.5,18.7-0.1v0.1c-7,0.6-13.2,8.6-18.7,0.1c-0.3,1.5-0.6,3-1,4.6c1.5,2.2,3.3,4.2,4.2,6.6
			c2.5,7,4.8,14.1,7.1,21.2c-2.2-6.5-4.5-13.1-6.9-19.6c-1-2.2-2.7-4.1-4.1-6.1c0.3,2.4,0.8,4.8,1.1,7.4l0.2,8.7
			c0.1,1.4,0.2,2.8,0.3,4.2c1.5,2.5,2.8,5,4.2,7.6h0.4c-3.2,2.5-6.3,5-9.5,7.6c-2.5,0.9-5.1,1.9-7.5,2.9c-0.2,0.8-0.5,1.8-0.8,2.6
			c0.2,0.3,0.2,0.8,0.1,1.3c0.1,0.4,0.3,0.9,0.4,1.4c2.7,0.4,5.4,1.2,8.1,1.4c7.9,0.6,15.7,0.8,23.6,1.3c-0.2-2.4-0.4-4.7-0.6-6.9
			c-0.3-3.8-0.5-7.6-0.9-11.5c10.6-1.2,11-2.1,11.1-12.6c-0.6-3.2-1.3-6.4-1.9-9.6c0.2-8,0.5-15.8,0.8-23.8v-12.4
			c0-1.2,0.1-2.3,0.1-3.5l-0.1-3.2v-10.7c0.1-0.1,0.1-0.2,0.2-0.3c0.5-0.1,1.1-0.1,1.6-0.1c-0.3-3.8-0.5-7.5-0.9-11.3
			c-1.6,1.9-3.4,3.7-4.7,5.7c-4,6.1-7.8,12.3-11.7,18.5c3.8-6.2,7.6-12.3,11.5-18.3c1.3-2.1,3.1-3.8,4.6-5.7c0.1-2,0.3-4,0.5-6
			c0,0,0.1,0,0.1,0c0.8-0.8,2.4-1.7,2.4-2.5c-0.4-7.8,4.8-11.5,10.1-15c0.4-0.3,0.9-0.6,1.3-0.9c-3.2-2.3-3.4-8.1,1.5-9.4
			c6.1-1.5,12.4-2.4,18.5-3.9c1.8-0.5,3.4,0,4.5,0.8c3.3-1.5,6.6-3.1,9.9-4.6c5.2-2.6,10.4-5.4,15.7-8c1-0.4,1.9-0.9,2.9-1.4
			c3.7-1.6,7.2-3.2,10.9-4.7l1.6-3.2c-0.1-5.4,0.8-9.3,7.4-9.9c6.6-0.5,9.2-5.2,7.9-12.1c0.4-0.1,0.8-0.2,1.2-0.2
			c0.5-0.5,2-2.1,4.5-2.5c2-0.4,3.6,0.1,4.3,0.3c2.1,0.6,5.1,1.1,7.8-0.2c2.4-1.1,1.9-2.3,4.8-4.3c3.4-2.4,5.4-1.8,10-4.6
			c1.4-0.9,2.4-1.7,3-2.2C571.6,34.5,572,32.2,571.1,30.8z M357.6,37.2c1.8-0.4,3.5-0.9,5.3-1.2C361.1,36.4,359.3,36.9,357.6,37.2
			C357.6,37.2,357.6,37.2,357.6,37.2z M373.1,104c0,0.7,0,1.4,0.1,2.1c-0.2-0.2-0.4-0.4-0.6-0.5c0-0.4,0-0.9,0-1.3
			c-0.5,0-0.9,0-1.4-0.1c-0.1-0.1-0.1-0.1-0.2-0.1c0-0.1-0.1-0.1-0.1-0.2C371.7,103.9,372.4,103.9,373.1,104z M352.9,96.5
			c-0.4-0.3-0.8-0.6-1.2-0.8c0,0,0-0.1,0-0.1c3.8,0,7.8,0,11.6,0.1c-0.6-4.1-1.4-8.2-2.1-12.6c0,0,0.1,0,0.1,0
			c0.8,4.4,1.4,8.6,2.2,12.7c1.2,1.2,2.4,2.4,3.6,3.6c-1.1-0.9-2.2-1.8-3.3-2.7C360.2,96.5,356.5,96.5,352.9,96.5z M357.7,103.8
			c0.4-1,0.8-2,1.2-3c-0.5-0.4-1-0.7-1.5-1.1c0.6,0.3,1.1,0.7,1.7,1h9.4c0,0,0.1,0.1,0.1,0.1l0.2,0.3h-9.9
			C358.4,102,358.1,102.9,357.7,103.8z M376.2,106.8c0.4-0.4,0.8-0.8,1.2-1.2c0.3,0.8,0.7,1.6,1,2.3c0,0.4,0,0.8,0,1.2
			c-0.4-0.7-0.7-1.4-1-2c-1.1,0-2.2-0.1-3.2-0.1c-0.1-0.1-0.2-0.2-0.3-0.3C374.7,106.8,375.5,106.8,376.2,106.8z M374.6,112.6
			c-0.1,0-0.1,0.1-0.1,0.1c-3-0.3-5.3-0.6-7.5-0.8c-0.5-2.1-1.5-3.2-2.7-3.8c1.5,0.5,2.7,1.6,3.3,3.8
			C369.8,112.1,371.9,112.3,374.6,112.6z M377.7,60c0,0-0.1,0-0.1-0.1c0.1-0.4,0.3-0.8,0.5-1.2C377.9,59.1,377.8,59.5,377.7,60z
			 M388.9,58.2h-10.6l10.4-0.1c0.1-0.5,0.1-0.9,0.2-1.4c0,0,0.1,0,0.1,0C389,57.2,389,57.6,388.9,58.2z M387.4,52.4l0.2-0.5l0.2,0.5
			H387.4z M390,51.1c-1.7-0.8-4.5,0.9-6.9,1.6c0,0.5,0.1,1.1,0.2,1.6c0,0-0.1,0-0.1,0c0-0.5-0.1-1.2-0.2-1.7
			c2.4-0.6,5.2-2.4,6.9-1.6c0.3,0.2,0.7,0.5,1,0.9C390.6,51.6,390.3,51.3,390,51.1z M406.1,49.4C406.1,49.3,406.1,49.3,406.1,49.4
			c1.1,0.6,2.1,1.2,3.1,1.8C408.2,50.5,407.2,50,406.1,49.4z M412.6,58.8c-1,0-1.8-0.2-2.3-0.9c0.8-1.6,1.5-3.4,2.3-4.9
			c-0.5-0.3-0.9-0.6-1.4-0.8c0.5,0.3,1,0.5,1.5,0.8c-0.8,1.6-1.5,3.4-2.3,4.9C410.9,58.6,411.6,58.8,412.6,58.8z M433,204.1
			c-0.5,0.8-1,1.6-1.6,2.4c-1-0.6-1.9-1.2-2.9-1.8v-0.1c1,0.6,1.9,1.2,2.9,1.8C432,205.7,432.5,204.9,433,204.1z M425.9,162.6
			c-2.8,4-6.4,7.3-9.7,11c0-0.1,0-0.1,0.1-0.2C419.5,169.8,423.2,166.5,425.9,162.6z M426.9,135.9c0,0,0-0.1,0-0.1
			c-0.2-0.4-0.4-0.9-0.5-1.3c0.2,0.4,0.4,0.7,0.6,1.1c0,0,0,0.1-0.1,0.1C426.9,135.7,426.9,135.8,426.9,135.9z M442.5,77.8
			C442.5,77.8,442.5,77.8,442.5,77.8c-0.3-0.4-0.6-0.9-0.8-1.4C442,76.9,442.2,77.4,442.5,77.8z M420.2,67.1c4.2,0,8.5,0.1,12.6,0.1
			c0,0,0-0.1,0-0.1c4.3-0.6,6.1,1.3,7.1,3.8c-1-2.4-2.7-4.1-7-3.6C428.7,67.2,424.4,67.1,420.2,67.1z M454.4,92.7
			C454.4,92.7,454.4,92.7,454.4,92.7C454.5,92.7,454.5,92.7,454.4,92.7c-0.4,0.4-0.9,1-1.4,1.5c-2,1.1-4.2,2.1-6.2,3.2
			c-0.9,0.6-1.8,1.3-2.8,1.9c-2,0.6-4.8,0.6-6.1,2.1c-3.1,3.5-5.6,7.7-9.3,12.8c0-0.1,0-0.1-0.1-0.2c3.5-5.1,6-9.2,9.2-12.7
			c1.3-1.4,4.1-1.5,6.1-2.1c0.9-0.6,1.8-1.3,2.8-1.9c0,0,0-0.1,0-0.1c2-1,3.9-2,6-2.9c0-0.5,0.1-1.1,0.1-1.6c0.4-2.1,1-4.2,1.4-6.3
			c-0.3-0.9-0.6-1.8-1.8-4.9c0-0.1,0.1-0.2,0.1-0.3c1.3,3.4,1.6,4.3,1.9,5.2c0.1,0,0.2,0,0.3,0c-0.4,2.1-1,4.2-1.4,6.3h-0.2
			c-0.1,0.5-0.1,1.1-0.1,1.5C453.5,93.7,453.9,93.2,454.4,92.7z M488.1,75.2L487,74c-2.2,1.4-4.3,2.7-6.9,4.3
			c-0.3-2.3-0.5-4-0.9-6.6c-2.3,3.4-3.9,5.7-5.5,8c-2.5-1.5-4.6-2.8-7.5-4.7c-1,2.5-1.8,4.6-2.6,6.6c0,0,0.1,0,0.1,0
			c-1,0.6-1.9,1.2-2.9,1.8c0,0.4-0.1,0.9-0.1,1.4c-0.5,0.5-1,1.2-1.5,1.7c0,0-0.1,0-0.1,0c0.5-0.5,1-1.1,1.5-1.7
			c0-0.4,0.1-0.9,0.1-1.4c-4.4-2.9-9-5.8-13.4-9c-1-0.6-1.7-3.3-1.3-3.8c1.8-2.2,4.1-4,6.3-5.9c-2.1,1.9-4.4,3.6-6.2,5.8
			c-0.4,0.5,0.4,3.2,1.3,3.8c4.2,3.2,8.8,6,13.2,8.9c1-0.6,1.9-1.2,2.9-1.8c0.9-2,1.6-4.1,2.6-6.6c3,1.8,5.1,3.2,7.5,4.7
			c1.6-2.4,3.2-4.6,5.5-8c0.3,2.6,0.5,4.3,0.9,6.6c2.5-1.6,4.7-2.9,6.9-4.3l1.2,1.3C488.1,75.1,488.1,75.2,488.1,75.2z M490,71.4
			c-0.4-0.2-1.1-0.3-1.2-0.6c-0.1-0.3,0.3-0.8,0.5-1.3c0,0,0.1,0,0.1,0c-0.2,0.4-0.6,0.9-0.5,1.2C489,71.1,489.6,71.2,490,71.4
			C490,71.4,490,71.4,490,71.4z M490.3,70.9c0.1-0.3,0.2-0.6,0.4-0.9c-0.4-0.1-0.7-0.3-1-0.4c0.3,0.1,0.7,0.3,1,0.4
			C490.5,70.4,490.4,70.6,490.3,70.9z M538.7,45.8c-2.2,1.2-4.4,1.1-5.6,1c0,0,0-0.1,0-0.1C535,46.4,536.8,46.1,538.7,45.8
			C538.7,45.8,538.7,45.8,538.7,45.8z"/>
		<path class="st2" d="M361.3,32.1c-0.4-0.1-0.8-0.3-1.2-0.5C360.5,31.8,360.9,32,361.3,32.1z"/>
		<path class="st2" d="M359.7,31.4c-0.4-0.3-0.8-0.6-1.2-0.9C358.9,30.8,359.3,31.1,359.7,31.4z"/>
		<path class="st2" d="M354.9,28.1c-0.3-0.1-0.5-0.1-0.8-0.1C354.3,28,354.6,28,354.9,28.1z"/>
		<path class="st2" d="M432.9,66c0,0.4-0.1,0.7-0.1,1.1C432.8,66.7,432.9,66.3,432.9,66z"/>
		<path class="st2" d="M391.1,52.2C391.1,52.2,391.1,52.2,391.1,52.2C391.1,52.2,391.1,52.2,391.1,52.2z"/>
		<path class="st2" d="M440.2,71.6c0-0.1,0-0.1-0.1-0.2C440.2,71.5,440.2,71.6,440.2,71.6z"/>
		<path class="st2" d="M415.3,156.9c0.6,0.3,1.1,0.5,1.7,0.8C416.5,157.5,415.9,157.2,415.3,156.9z"/>
		<path class="st2" d="M409.9,154.3c0.7,0.3,1.4,0.6,2,1C411.2,155,410.6,154.7,409.9,154.3z"/>
	</g>
	<g>
		<path class="st2" d="M94.8,38.8c2.4-1.8,4.7-0.9,6.1,1c3.3-6.9,4.3-14.2,1.7-21.7c0,0,0-0.1,0-0.1c-0.2-0.9-0.4-1.7-0.6-2.6
			c-3.6-2.5-6.8-6.6-10.7-7.2C76.7,5.9,69.6,16.6,75,31.3c-0.1,1.5-0.1,3-0.1,4.6c3.1,3.3,6.3,6.6,9.4,9.9c0,0,0,0,0-0.1
			c0.8,0.9,1.7,1.7,2.6,2.6C88.1,44.3,91.4,41.4,94.8,38.8z M96.8,29.4c-1.2-2.6-2.4-4.9-3.4-7.3c0,0,0.1,0,0.1,0
			c1-2.1,1.9-4.3,3.1-6.7c-1.1,2.4-2.2,4.6-3.1,6.7c1.1,2.3,2.3,4.8,3.5,7.4c-3.5,2-6.5,3.9-9.1,5.4c0,0,0,0,0,0
			C90.5,33.2,93.5,31.4,96.8,29.4z"/>
		<path class="st2" d="M59.4,112.7c-0.4,0.1-0.9,0.2-1.4,0.2c1.1,6.4,2.1,12.7,3,19.1c1.1-0.1,2.3-0.2,3.3-0.3
			C62.7,125.4,61,119,59.4,112.7z"/>
		<path class="st2" d="M133.4,143.9c-0.5,0-1,0-1.5-0.1c0,0,0-0.1,0-0.1l-0.1-0.1c-0.4-0.5-1-0.9-1.4-1.4c0,0.1-0.1-0.1-0.1-0.1
			c-0.4-0.4-1-0.8-1.4-1.2l-0.3-0.2c-0.4-0.3-0.8-0.7-1.2-1l-0.4-0.5l-1.3-1.2c-3.1-2.1-6.1-4.1-9.2-6.3c3.5-4.5-0.6-7-3.3-9.4
			c-4.5-4.2-9.3-8.1-7.7-15c0,0-0.1,0-0.1,0c-0.2-1.2-0.3-2.3-0.5-3.5c-0.5,0.2-0.9,0.4-1.4,0.5c-3.6,1.2-5.9-1.5-6.1-4.5
			c-5.3-0.4-10.7-0.9-16-1.4c5.4,0.4,10.7,0.9,16,1.3c-0.1-1.2,0.3-2.5,1.1-3.5c-8.2-2.4-16.9,0.1-25.2-1.1c0,0.8-0.1,1.7-0.2,2.5
			c0,0,0,0,0,0c0-0.9,0.1-1.7,0.2-2.6c8.4,1.3,17-1.2,25.3,1.1c0.5-0.7,1.3-1.2,2.3-1.6c3.6-1.2,6.8-3.2,9.8-5.5
			c1.5-1.2,3.4-1.7,5.1-1.2c0.5-2,0.7-4.3,0.6-6.8c0-0.2-0.1-0.5-0.1-0.7c5.7-3.8,7.4-6.3,4.9-9.4c-0.8,1.3-2.1,2.2-4,2.2
			c-1.5,0.1-3,0.9-4.5,1.4c0,0.1,0,0.1-0.1,0.2c-1.3,2.6-3.7,4.8-5.6,7.2c0.6,1.5,1.2,3,1.8,4.5c0,0,0,0,0,0c-0.6-1.4-1.2-3-1.8-4.4
			c-1.4-1.3-2.8-2.5-4.3-3.8c1.2,1,2.4,2,3.6,3c1.9-2.1,4.1-4.1,5.4-6.4c0,0,0,0-0.1,0c-2.2,0.5-4.5,0.7-6.7,0.8
			c-2.4,0-3.8-1.3-4.5-3c-2.6,2-7,1.7-7.9-2.4c-1.5-6.3-5.7-12.4-6-18.9c-0.1-1.2,0.1-2.3,0.4-3.4c-0.9-0.9-1.8-1.8-2.7-2.7
			c-3.1-3.3-6.3-6.6-9.4-9.9c-4.7-1-5.2,1.9-5.2,5.1c0.5,0,1,0,1.4,0c-0.5,0-0.9,0-1.4,0c-7,1.9-11.9,6.2-14.2,12.8
			c-1.5,4-2.4,8.2-3.6,12.3c3.5,5.4,6.2,11.5,10.5,16.3c2.9,3.2,8.1,4.7,12.1,7c0,0,0,0.1-0.1,0.1c-4.2-2.2-9.3-3.8-12.2-7
			c-4.3-4.8-7-10.8-10.5-16.3c-3.8,13.8-1.5,26.2,8.8,36.9c0,0,0.1,0,0.1,0c0.2,1.1,0.5,2.3,0.8,3.4c0,0-0.1,0-0.1,0
			c-0.6,0.7-1.4,1.4-2.1,2v4.2c1.6,6.3,3.3,12.7,5,19c4.1-1.4,8.1-2.7,12.2-4.1c0.3-0.5,0.5-0.9,0.8-1.4c-0.3,0.5-0.5,1-0.8,1.5h0.1
			c-4.1,1.4-8.1,2.7-12.2,4.1c-1.1,0.1-2.3,0.2-3.3,0.3c2.6,4.9,5.3,9.8,7.9,14.6c1.5,0,3-0.1,4.5-0.1c0,0,0,0,0,0
			c-1.5,0-2.9,0.1-4.4,0.1c0.4,4.3,1,8.6,1.4,13c-0.4,0.5-0.9,1.1-1.3,1.6c-0.1,0.6-0.1,1.1-0.2,1.6v4.3c4.2,0.5,5.1,2.5,3,5.9
			c0,0-0.1-0.1-0.1-0.1c0,0,0,0,0,0c2-3.3,1.2-5.4-3.1-5.8c0,1.5-0.1,2.9-0.3,4.4c0,0,0.1,0,0.1,0.1c0.1,1.3,0.1,2.7,0.1,4
			c-0.4,6-1,11.9-1.4,17.8c-0.4,3.4-1,6.8-1.3,10c-0.4,2.5-0.9,4.9-1.3,7.5c-0.9,4.6-1.2,9.1-2.5,13.5c-2.1,6.6,0.1,9.8,7.3,10
			c1,0.1,1.8,0.8,2.7,1.2c3.5-0.9,6.8-1.9,10.3-2.5c3-0.5,6.2-0.4,9.3-0.6c-0.1-1.3-0.1-2.6-0.1-4c0.2-2.6,0.2-5.3,0.8-7.9
			c0.1-0.4,0.2-0.8,0.3-1.1c-0.2-0.3-0.3-0.7-0.4-1c-0.2-1.4-0.4-2.8-0.6-4.2c-0.2-0.4-0.4-0.9-0.5-1.4c0,0,0,0,0,0.1c0,0,0,0,0-0.1
			c-0.1-0.5-0.1-1.1,0-1.7c-0.1-0.4-0.3-0.9-0.6-1.4c0,0,0,0,0.1,0c0.3,0.5,0.4,0.9,0.6,1.3c0.2-0.9,0.6-1.7,1.4-2.5
			c1.6-1.6,1.9-3.7,2.7-5.7c0.9-2.1,2-4,3.3-5.9c2.7-3.7,5.9-7,8.9-10.5c3.8-4.5,7.9-8.9,11.8-13.3c1-1.2,2-2.4,2.9-3.6
			c-1.3-1.4-1.8-3.4-0.4-5.5c0.4-0.6,0.8-1.3,1.3-1.9c-0.6,0.3-1.2,0.7-1.8,1c-1.1,0.9-2.2,1.8-3.2,2.7c0,0-0.1,0-0.1,0.1
			c-3.3,0.8-8.9-2.6-8.8,4.3c0,0-0.1,0-0.1,0.1c-6.3,4.2-12.5,8.4-18.5,12.3c-0.1,0-0.1,0-0.2,0c5.9-4,12.4-8.2,18.8-12.5
			c-0.1-7.2,5.7-3.5,9.1-4.5c1.1-0.9,2.2-1.8,3.2-2.7c0.6-0.4,1.3-0.7,1.9-1.1c2.4-3.5,4.9-7,5.3-11.2c-2,1.7-4.9,1.9-8.7,0.7V151
			c3.8,1.1,6.7,1,8.7-0.6c0,0,0-0.1,0-0.1c0.3-2.7,2.1-5,5-5c0.2,0,0.4,0,0.7,0.1C133.8,144.8,133.6,144.3,133.4,143.9z M99.8,76.1
			c0,0,0.1,0.1,0.1,0.1c-6.3,1.1-12.5,2.1-18.7,3.2c-0.6,0.5-1.3,0.9-1.8,1.4c0.6-0.5,1.3-1,1.8-1.5C87.4,78.2,93.7,77.2,99.8,76.1z
			 M84.2,51c-1.1,1.6-2.9,3.1-3,4.7c0,2,0.7,4.1,1.3,6.1c-0.6-2.1-1.4-4.1-1.3-6.1C81.2,54.1,83.1,52.5,84.2,51z M83.6,70.1
			c-0.4-2.3-0.9-4.6-1.3-6.8c0.2,0,0.4,0,0.6,0c0.4,2.4,1,4.8,1.4,7.3c0,0,0,0.1,0,0.1c-2.4-0.4-4.7-0.7-7.2-1.1
			c-0.1-0.2-0.1-0.3-0.2-0.5C79.2,69.5,81.4,69.8,83.6,70.1z M75.8,60.1c0.2,0.3-0.2,0.8-0.4,1.2C75.5,60.9,75.9,60.4,75.8,60.1z
			 M74.1,60.7c-0.2-0.3,0.2-0.8,0.4-1.2C74.5,59.9,74,60.4,74.1,60.7z M80.7,119.8c8.2,2.5,15.6,4.8,23,7c0.4-2.4,0.6-3.9,0.8-5.4
			c0,0,0,0,0,0c-0.2,1.4-0.4,2.9-0.8,5.4C96.4,124.7,88.9,122.4,80.7,119.8c-0.7,1.3-1.3,2.5-2,3.7C79.4,122.3,80,121.1,80.7,119.8z
			 M108.9,131.9c0,0-0.1,0-0.1,0c0,0,0,0,0,0c-9.9-3.9-19.9-7-30.8-4.3C88.8,124.9,99,128.1,108.9,131.9z M68.3,106.1
			c3.1-0.2,6.2-0.4,9.4-0.6c0,0,0,0,0,0C74.5,105.8,71.4,106,68.3,106.1z M81.2,212.4c-1.9,2.3-3.9,4.7-6.2,7.5c0,0-0.1,0-0.1,0
			c2.3-2.8,4.3-5.1,6.2-7.5c0,0,0,0,0,0c0.1,0,0.2,0,0.3,0C81.3,212.4,81.2,212.4,81.2,212.4z M78.2,187c-2.6-2.8-4.7-2.5-6.6,0.5
			c0,0,0,0,0-0.1c-0.6,1.4-1.4,2.8-3,6c1.6-3.2,2.3-4.7,3-6C73.6,184.4,75.8,184.1,78.2,187c1.5,1.6,2.9,3.2,4.4,4.8h0
			c1,2.5,2.1,4.9,3,7.5c0,0,0,0.1,0,0.1c-1-2.5-2-4.9-3-7.4C81.2,190.3,79.8,188.6,78.2,187z M85.7,199.4c-0.5,3.9-0.9,7.7-1.4,11.6
			c0.4-3.9,0.9-7.7,1.3-11.5C85.6,199.5,85.6,199.5,85.7,199.4z M86.1,216.4c-0.6-1.4-1.3-2.8-1.9-4.2c0,0,0-0.1,0-0.1
			C84.8,213.6,85.5,215,86.1,216.4C86.1,216.4,86.1,216.4,86.1,216.4z M87.3,164.2C87.3,164.2,87.3,164.2,87.3,164.2
			c0.2-1.4,0.8-2.9,1-4.1C88.2,161.3,87.6,162.8,87.3,164.2z M119.6,148.1c-11.9-1.4-23.8-2.9-35.6-4.3c5.7,2.9,11.4,5.8,17.3,8.8
			c3.9,0.4,7.9,0.8,11.8,1.3c0,0,0,0,0,0c-4-0.4-7.9-0.8-11.9-1.3c-5.7-2.9-11.4-5.9-17.2-8.8c-0.3-0.3-0.7-0.5-1-0.8
			c0.3,0.2,0.6,0.5,0.9,0.7C95.8,145.1,107.7,146.6,119.6,148.1L119.6,148.1z M107.7,144c4.5,0.6,9.2,0.7,13.9,1
			C116.9,144.7,112.3,144.6,107.7,144z M128.3,149.6c-2.2-2.4-3.1-3.4-4.1-4.4c-3.1-1.9-6.2-3.9-9.3-5.8c-2.5-1.5-5.1-2.9-7.7-4.4
			l0-0.1c2.5,1.4,5,2.9,7.6,4.3c3.1,1.9,6.2,3.9,9.3,5.8c1,1.1,1.9,2,4.2,4.6C128.4,149.6,128.4,149.6,128.3,149.6z"/>
		<path class="st2" d="M99.7,159.4C99.7,159.4,99.7,159.4,99.7,159.4l0.4-1.8C99.9,158.2,99.8,158.8,99.7,159.4z"/>
		<path class="st2" d="M91.1,194.4c0.3,0.2,0.6,0.3,0.8,0.5C91.7,194.8,91.4,194.6,91.1,194.4z"/>
		<path class="st2" d="M82.3,233.1c-3.5,0.6-6.8,1.6-10.3,2.5c0.9,1,1.8,1.9,2.8,2.9c1.6,0,3.2,0,4.9,0.1c1.1,0.1,2.1,0.3,3,0.4
			c4,0,8.1,0.1,12.1,0.1c1.1-0.1,2.1-0.3,3.1-0.4c-2.2-2.1-4.3-4.2-6.4-6.2C88.5,232.8,85.4,232.7,82.3,233.1z"/>
		<path class="st2" d="M68.9,162.9c-0.2,0.1-0.5,0.3-0.5,0.3c0.1,0.3,0.3,0.7,0.5,1C68.9,163.7,68.9,163.2,68.9,162.9z"/>
		<path class="st2" d="M69,161.2c0.5-0.5,0.9-1.1,1.3-1.6C69.8,160.1,69.4,160.7,69,161.2z"/>
	</g>
	<g>
		<path class="st1" d="M285.6,101.6c-3.8-1.5-6.4-0.1-8.4,2.3c3.5,0.2,7,1,10.2,2.4C286.8,104.7,286.2,103.2,285.6,101.6z"/>
		<path class="st1" d="M217.5,13.3c-0.4,1-0.8,2-1,2.6c-0.9,2.7-0.9,5.5-0.9,8.3c0.7-0.7,1.5-1.3,2.3-2
			C218.1,19.2,218.2,16.1,217.5,13.3z"/>
		<path class="st1" d="M223.1,5.1c-0.7,1.5-1.4,3-2.7,5.8c1.9,0.4,3.6,0.8,5.3,1.1c0.1-0.7,0.2-1.4,0.2-2.1c0.1-1.7-0.2-2.8-1.1-4.2
			c-0.1-0.2-0.2-0.3-0.3-0.4c-0.4-0.1-0.7-0.2-1.1-0.4C223.3,4.9,223.2,5,223.1,5.1z"/>
		<path class="st1" d="M304.9,122.2c-1.2-4.3-4.5-8.3-7.1-11.9c-4.9-6.7-9-14.6-14.2-21.2c-0.3,1.8-0.6,3.6-0.9,5.4c0,0-0.1,0-0.1,0
			c0.3-1.8,0.7-3.7,1-5.5c-1.2-1.5-2.5-2.9-3.8-4.2c-3.2-3.1-7.4-3.7-9.8-7c0.6,3.1,1.1,6.3,1.8,9.7c0,0-0.1,0-0.1,0.1
			c-0.7-3.6-1.2-6.8-1.8-10c-0.5-0.8-0.9-1.6-1.2-2.7c-0.7-2.6-0.2-5.4-0.2-8.1c0.1-3.8-0.7-6.9-2.1-10.4c-0.7-1.9-0.3-3.5,0.8-4.5
			c-8.5-9.9-18.7-16.7-31.3-18.9c0,0,0,0,0.1,0c0.6-6,1.1-11.9-0.7-17.3c-0.1,0.9-0.2,1.8-0.2,2.8c-0.1,2.4-1.6,3.9-3.4,4.5
			c0.6,0.7,1.1,1.3,1.7,2c-1.7,1.5-3.2,3.4-5.1,4.5c-0.1,0-0.1,0.1-0.2,0.1c1.9-1.1,3.4-2.9,5.1-4.4c-0.6-0.7-1.1-1.4-1.7-2
			c-2.9,0.9-6.6-0.6-6.4-4.6c0.1-2,0.5-4,0.8-6c-2-0.4-4.1-0.9-6.3-1.4c0.9-2,1.6-3.4,2.2-4.6c-1.5,1.8-2.9,4.5-3.8,6.8
			c0.8,2.8,0.6,6,0.4,9.1h0c-0.8,0.7-1.6,1.4-2.4,2.1c0,3.3,0.1,6.7-1.2,9.9c-0.6,1.4-1.2,2.8-1.9,4.1c1.3-0.6,2.7-1.2,4-1.8
			l0.4-0.1c4,0.7,8,1.4,12,2c5,0.9,8.1,3.6,7.9,7.4c0,0-0.1,0-0.1,0c0.1-3.7-2.9-6.5-7.9-7.3l-12-2l-0.4,0.1c0,0,0,0,0,0
			c-1.3,0.6-2.7,1.2-4,1.9c-0.5,1-1,1.9-1.5,2.8c0.8,1.1,1.7,2.1,2.6,3.3c0,0,0,0,0,0c-0.9-1.2-1.7-2.2-2.6-3.3
			c-1.6,2.8-3.3,5.5-4.8,8.2c-0.1,0.3-0.3,0.5-0.4,0.8c1.5,1.3,2,3.9,0.9,8.7c0,0.1-0.1,0.1-0.1,0.2c1.2-4.8,0.7-7.5-0.8-8.8
			c-2.6,4.8-4.2,9.9-4.2,15.4c0,7.1,1.9,14,2.9,21c0,0.3,0.1,0.7,0.1,1.1c0.2-0.2,0.3-0.4,0.5-0.6c0,0,0.1,0.1,0.1,0.1
			c-0.2,0.2-0.4,0.5-0.5,0.7c0.4,4,0.8,10.2,4.4,12c2.3,1.2,5.9,0.1,8.5,1.3c0.9,0.4,4.8,4,5.5,3.6c3.5-1.9,6.7,0.6,7.4,3.5
			c0.3-0.3,0.6-0.6,0.8-0.9c8.6-10.9,17.4-22,26.1-32.9c0,0,0,0,0.1,0c0,0,0,0,0,0c-8.7,10.9-17.4,22-26.1,32.9c0,0,0.1,0.1,0.1,0.1
			c-0.3,0.3-0.6,0.6-0.9,1c0.3,1.5-0.1,3-1.4,4.2c0,0.5,0,1,0,1.5c0.1,0.4,0.1,0.9,0,1.3c1.3,2.4,2.8,4.8,4.1,7.3
			c0.9,5.4,2.5,10.8,2.6,16.3c0.1,6.8-1,13.7-1.6,20.4c0.1,0.5,0.2,1,0.3,1.5c1,7.5,1.9,14.9,2.9,22.3c0.5,3.2,1,6.5,1.4,9.8
			c3.2,1.8,6.4,3.6,11.2,6.4c0,0.1,0.1,0.1,0.1,0.2c-4.9-2.8-8.2-4.6-11.4-6.5c0.4,3.4,0.8,6.9,1.1,10.3c0.2,1.4,0.3,2.8,0.3,4.2
			c1.4,5,2.9,10.1,4.3,15.1c0,0,0.1,0,0.1,0c-0.2,0.4-0.3,0.8-0.4,1.2c-1.6,2-3.3,4-4.9,6c-1.5,1.8-2.9,3.8-4.5,5.6
			c0.5,0.4,1,0.8,1.3,1.2c0.9,0.2,1.7,0.3,2.6,0.5c0.4-0.2,0.9-0.4,1.3-0.5c0.3,0.6,0.5,1.1,0.7,1.8c2.9,0.5,5.8,1.1,8.7,1.5h3
			c0.7-0.1,1.3-0.1,2-0.2c0.4-0.5,0.7-1,1-1.5c-0.1-1.9-0.3-3.8-0.5-5.7c-0.6-3.4-1.2-6.8-1.9-10.2c-0.3,0-0.7,0.1-1,0.2
			c0.3-0.1,0.7-0.1,1-0.2c2.9-1.5,5.8-3,8.7-4.5c-0.9-3.2-1.8-6.5-2.7-9.7c-0.2-0.6-0.6-1.4-0.5-1.9c1.4-9.2,2.9-18.4,4.3-27.6
			c0.1-1.5,0.2-2.9,0.3-4.4c0-0.5-0.1-1.1-0.1-1.5c0,0,0.1,0,0.1,0c0,0.5,0.1,0.9,0.2,1.4c0.3-0.5,0.7-1,1-1.5c0,0-0.1,0-0.1,0v-7.2
			c-0.8-1.2-1.5-2.2-2.3-3.3v-2.6c0,0,0,0,0,0c0,0,0,0,0,0c0.3-1.9,0.7-3.9,1-5.8c0,0,0,0,0,0c0.4-3,1-5.9,1.3-8.9
			c1-7.3,1.8-14.5,2.7-21.8c0.1-2.4,0.3-4.8,0.4-7.3c-1.9,2.9-3.7,5.8-5.6,8.7c-1.6,2.4-3.3,4.7-5.8,8.5c0-0.1,0-0.2,0-0.2
			c2.5-3.6,4.2-6.1,5.8-8.5c1.8-2.9,3.7-5.8,5.6-8.7c0.4-0.4,0.8-0.9,1.2-1.3c-0.2-0.4-0.4-0.8-0.5-1.2c-0.2-0.7-0.3-1.5-0.3-2.2
			c0-1.4,0.6-2.6,1.5-3.5c0.3-0.3,0.7-0.6,1.1-0.8c0.7-1.6,2.1-2.9,4.4-3c0.9,0,1.8,0,2.7,0.1c2.1-2.6,4.7-4,8.6-2.5
			c-0.2-2,0.8-4.7-0.6-6c1.6,1.3,0.5,4,0.7,6.1l1.8,4.8c1.6,0.7,3.2,1.5,4.6,2.6c2.3,1.6,4.4,3.5,6.1,5.8c1.7,2.3,1.9,5.3,3.4,7.5
			c1.4,2,1.7,0.3,3.5,0.8C305,122.5,304.9,122.1,304.9,122.2z M218,22.3c1.8-0.6,1.7-4.5,3.3-5.6C219.9,17.9,219.9,21.7,218,22.3z
			 M224.8,33.9c-0.5-1.3-1-2.7-1.5-4c0,0,0.1,0,0.1,0C223.9,31.2,224.4,32.5,224.8,33.9C224.9,33.9,224.8,33.9,224.8,33.9z
			 M204.9,66.8c-1.1,0.4-2.2,0.7-3.3,1.1v-0.1l0,0C202.7,67.4,203.8,67.1,204.9,66.8L204.9,66.8z M257.8,149.1
			c-0.1,0.7-0.3,1.3-0.5,1.9C257.5,150.4,257.7,149.7,257.8,149.1z M265.3,75C265.3,75,265.3,75,265.3,75c-2.2-0.4-4.3-0.9-6.6-1.4
			c0,0,0,0,0,0C260.9,74,263.1,74.5,265.3,75z M230.4,43.2C230.4,43.2,230.4,43.2,230.4,43.2c-1,1.3-1.9,2.7-2.9,4l0,0
			C228.4,45.8,229.4,44.5,230.4,43.2z M205.4,87.9c1.3,1.7,2.7,3.6,4.2,5.5C208,91.6,206.6,89.6,205.4,87.9z M212.6,92.7
			c-1,0.4-2.5,1.4-2.8,1.1c0,0,0-0.1-0.1-0.1c0.3,0.3,1.8-0.7,2.7-1.1C212.5,92.6,212.5,92.6,212.6,92.7c2.6-1,5.2-1.8,7.9-2.8
			c0,0,0,0,0.1,0C217.9,90.8,215.3,91.7,212.6,92.7z M226.6,102.7C226.6,102.8,226.6,102.8,226.6,102.7c-6.9-1.1-8.1-3.7-6-12.9
			c0.3,0.1,0.5,0.1,0.8,0.2C219.5,98.7,220.6,101.3,226.6,102.7C226.6,102.7,226.6,102.7,226.6,102.7z M224.8,53.5
			c0.4-1.5,0.8-3.1,1.1-4.6l0.1-0.3c0,0,0,0,0,0l0,0.1c-0.4,1.5-0.8,3.1-1.1,4.6c2.4,1.6,4.7,3.2,6.9,4.8c0.1-0.2,0-0.4-0.1-0.6
			c0.2,0.2,0.3,0.4,0.2,0.7c0.9,0.1,1.9,0.3,3,0.5c0,0,0,0,0,0c0,0,0,0,0,0c0,0,0,0,0.1,0c-0.1,0-0.1,0.1-0.2,0.1
			c-1-0.1-2-0.3-3-0.5C229.4,56.8,227.1,55.2,224.8,53.5z M231.5,57.4c1.3,0.1,2.8,0.2,4.1,0.2c0,0,0,0.1-0.1,0.1
			c-1.3-0.1-2.6-0.2-3.9-0.2C231.6,57.5,231.6,57.4,231.5,57.4z M234.1,73.3c-0.1,0-0.1,0-0.2,0.1c-0.2-0.4-0.3-0.8-0.5-1.2
			c1-0.5,2.1-1,3.2-1.5c-1,0.5-2,1-3,1.5C233.8,72.6,233.9,73,234.1,73.3z M252,66.4C251.9,66.4,251.9,66.4,252,66.4
			c-0.1-1-0.2-2.1-0.2-3.1c-2.3-0.5-4.5-1-6.7-1.5c-2.3-1.5-4.6-2.9-6.8-4.4c-0.4,0.1-0.9,0.2-1.2,0.2c-0.7,0.4-1.3,0.7-2,1.1
			c0,0,0,0,0-0.1c0.7-0.4,1.3-0.7,2-1.1c-1.2-0.9-2.4-2.2-3.7-2.6c1.3,0.4,2.5,1.6,3.7,2.6c0.4-0.1,0.9-0.1,1.2-0.2v0
			c2.3,1.4,4.5,2.9,6.8,4.3c0,0,0,0.1,0,0.1c2.3,0.5,4.5,1,6.7,1.5c-2.8-3.7-5.4-7.5-8.2-11.1c-0.3,0.2-0.6,0.3-1,0.5
			c0,0,0-0.1,0-0.1c0.3-0.2,0.7-0.3,1-0.5c2.8,3.7,5.4,7.5,8.2,11.1C251.9,64.3,252,65.3,252,66.4c3.1-0.1,6.3-0.1,9.2-0.1
			c0,0,0,0,0,0C258.1,66.3,255.1,66.4,252,66.4z M235.5,113.2c-1.3-0.8-2.2-2.3-3.2-3.7C233.3,110.9,234.2,112.2,235.5,113.2
			c2.3,1.5,5.2,2.4,7.9,3.7c0,0,0,0,0,0C240.8,115.7,238,114.8,235.5,113.2z M244.3,177.4c-0.7-0.5-1.3-0.9-1.9-1.4
			c1.9-3.2,3.9-6.3,5.8-9.4c-1.9,3.2-3.8,6.3-5.8,9.4C243,176.6,243.7,176.9,244.3,177.4c1.5-2.2,2.9-4.6,4.6-6.6
			C247.2,173,245.8,175.2,244.3,177.4z M251.4,161.1C251.4,161.1,251.4,161.1,251.4,161.1C251.4,161.1,251.4,161.1,251.4,161.1
			c1-1.7,1.3-3.8,1.9-5.7c-2.4,2.2-4.6,4.7-7,6.7c-2.4,1.9-4.9,3.5-7.1,1.9c2.2,1.4,4.7-0.1,7.1-1.9c2.6-1.9,4.8-4.5,7-6.7
			c-0.5-1-0.9-1.9-1.4-2.9c0,0,0,0,0,0c0.5,1,1,1.9,1.5,2.9C252.7,157.3,252.4,159.4,251.4,161.1z M273.4,95.7
			c-3.3,3.4-6.6,6.8-9.8,10.3c-3.4,3.9-6.5,8.1-10,11.8c-5.9,6.2-8,6.3-15.6,1.7c0,0,0,0,0.1,0c7.5,4.4,9.6,4.2,15.4-1.8
			c3.5-3.7,6.6-7.9,10-11.8c3.1-3.7,6.7-7,10-10.5C273.4,95.6,273.4,95.6,273.4,95.7z"/>
		<path class="st1" d="M219,25.7C219,25.7,219,25.7,219,25.7c0.4,0,0.8,0.1,1.1,0.1C219.7,25.8,219.4,25.8,219,25.7z"/>
		<path class="st1" d="M237,72C237,72,237,72,237,72c5,0.1,10,0.2,14.9,0.3c0,0,0,0,0,0C247,72.2,242,72.1,237,72z"/>
		<path class="st1" d="M257.3,122C257.3,122,257.3,122,257.3,122c-0.3,1.8-0.5,3.7-0.9,5.9C256.7,125.7,257,123.8,257.3,122z"/>
		<path class="st1" d="M264,181.9c-0.1-1.1-1-2-1.4-3c-1.4,9.2-2.9,18.4-4.3,27.7c-0.1,0.6,0.3,1.3,0.5,1.9c0.9,3.2,1.8,6.5,2.7,9.7
			c6.8-0.7,4.2-6,4.2-10.1C265.1,199.3,264.6,190.6,264,181.9z"/>
	</g>
	<g>
		<path class="st1" d="M285.4,102.3c-3.5-1.3-5.9-0.3-7.8,1.7c3.2,0.2,6.3,0.9,9.2,2.1C286.3,104.8,285.9,103.5,285.4,102.3z"/>
		<path class="st1" d="M217.3,13.9c-0.3,0.8-0.6,1.5-0.7,2c-0.9,2.9-0.9,5.8-0.9,8.8c0.7-0.6,1.4-1.2,2.1-1.8
			C217.8,19.9,218,16.7,217.3,13.9z"/>
		<path class="st1" d="M220.1,11.5c1.9,0.4,3.7,0.8,5.4,1.2c0.2-1,0.3-1.9,0.3-2.9c0.1-1.5-0.1-2.5-0.7-3.6
			c-0.7-0.2-1.4-0.5-2.2-0.7C222.2,7.1,221.5,8.6,220.1,11.5z"/>
		<path class="st1" d="M304.9,122.2c-1.2-4.3-4.5-8.3-7.1-11.9c-4.9-6.8-9-14.7-14.3-21.3c-0.4,2.1-0.7,4.1-1.1,6.2c0,0-0.1,0-0.1,0
			c0.4-2.1,0.7-4.2,1.1-6.3c-1.2-1.5-2.4-2.8-3.7-4.1c-3.4-3.3-8.1-3.7-10.3-7.8c0.7,3.6,1.3,7.2,2.1,11.2c0,0-0.1,0-0.1,0.1
			c-0.8-4.2-1.4-7.9-2.1-11.6c-0.3-0.5-0.5-1.1-0.7-1.8c-0.7-2.6-0.2-5.4-0.2-8.1c0.1-3.8-0.7-6.9-2.1-10.4c-0.6-1.6-0.4-3,0.4-4
			c-8.5-9.8-18.6-16.5-31.1-18.7c0,0,0,0,0.1,0c0.6-5.8,1.1-11.6-0.6-17c-0.1,0.6-0.1,1.2-0.1,1.7c-0.1,2.7-2,4.3-4,4.7
			c0.7,0.8,1.4,1.7,2.1,2.5c-1.7,1.5-3.2,3.4-5.1,4.5c-0.1,0-0.1,0.1-0.2,0.1c1.9-1.1,3.4-2.9,5.1-4.4c-0.7-0.9-1.4-1.7-2.1-2.6
			c-2.8,0.5-5.9-1.1-5.8-4.7c0,0-0.1,0-0.1,0c0,0,0,0,0,0c0,0,0.1,0,0.1,0c0.1-1.8,0.4-3.5,0.7-5.2c-2-0.4-4.1-0.9-6.4-1.4
			c1.2-2.6,1.9-4.2,2.6-5.6c-1.8,1.9-3.4,5.2-4.4,7.7c0.8,2.9,0.6,6.1,0.5,9.2h0c-0.7,0.6-1.4,1.3-2.1,1.9c0,3.1,0,6.3-1.2,9.3
			c-0.7,1.7-1.5,3.3-2.3,4.9c1.4-0.6,2.8-1.3,4.2-1.9l0.4-0.1c4,0.7,8,1.4,12,2c5,0.9,8.1,3.6,7.9,7.4c0,0-0.1,0-0.1,0
			c0.1-3.7-2.9-6.5-7.9-7.3l-12-2l-0.4,0.1c0,0,0,0,0,0c-1.4,0.7-2.8,1.3-4.2,2c-0.5,0.9-0.9,1.7-1.4,2.6c0.9,1.1,1.8,2.2,2.7,3.5
			c0,0,0,0,0,0c-0.9-1.2-1.8-2.3-2.7-3.4c-1.5,2.6-3.1,5.1-4.5,7.7c-0.3,0.5-0.5,0.9-0.7,1.4c1.6,1.2,2.1,3.9,1,8.8
			c0,0.1-0.1,0.1-0.1,0.2c1.2-5,0.7-7.7-0.9-8.9c-2.4,4.6-3.9,9.5-3.9,14.8c0,0.8,0,1.7,0.1,2.5c1.1-0.4,2.1-0.6,3.2-1v0.1
			c-1.1,0.4-2.1,0.7-3.2,1c0.4,6.2,2,12.2,2.8,18.4c0.1,0.4,0.1,0.9,0.2,1.5c0.1-0.1,0.1-0.2,0.2-0.3c0,0,0.1,0.1,0.1,0.1
			c-0.1,0.1-0.2,0.3-0.3,0.4c0.4,4,0.9,9.9,4.4,11.7c2.3,1.2,5.9,0.1,8.5,1.3c0.9,0.4,4.8,4,5.5,3.6c3.6-1.9,7,0.8,7.5,3.9
			c0.2-0.2,0.4-0.4,0.5-0.6c8.6-10.9,17.4-22,26.1-32.9c0,0,0,0,0.1,0c0,0,0,0,0,0c-8.7,10.9-17.4,22-26.1,32.9c0,0,0.1,0.1,0.1,0.1
			c-0.2,0.2-0.4,0.4-0.6,0.7c0.2,1.4-0.3,2.9-1.6,3.9c0,0.7-0.1,1.3-0.1,2c0.1,0.4,0.1,0.9,0,1.3c1.3,2.4,2.8,4.8,4.1,7.3
			c0.9,5.4,2.5,10.8,2.6,16.3c0.1,6.8-1,13.7-1.6,20.4c0.1,0.5,0.2,1,0.3,1.5c1,7.5,1.9,14.9,2.9,22.3c0.5,3.2,1,6.5,1.4,9.8
			c3.2,1.8,6.4,3.6,11.2,6.4c0,0.1,0.1,0.1,0.1,0.2c-4.9-2.8-8.2-4.6-11.4-6.5c0.4,3.4,0.8,6.9,1.1,10.3c0.2,1.4,0.3,2.8,0.3,4.2
			c1.4,5,2.9,10.1,4.3,15.1c0,0,0.1,0,0.1,0c-0.2,0.4-0.3,0.8-0.4,1.2c-1.6,2-3.3,4-4.9,6c-1.5,1.8-2.9,3.8-4.5,5.6
			c0.5,0.4,1,0.8,1.3,1.2c0.9,0.2,1.7,0.3,2.6,0.5c0.4-0.2,0.9-0.4,1.3-0.5c0.3,0.6,0.5,1.1,0.7,1.8c2.9,0.5,5.8,1.1,8.7,1.5h3
			c0.7-0.1,1.3-0.1,2-0.2c0.4-0.5,0.7-1,1-1.5c-0.1-1.9-0.3-3.8-0.5-5.7c-0.6-3.4-1.2-6.8-1.9-10.2c-0.3,0-0.7,0.1-1,0.2
			c0.3-0.1,0.7-0.1,1-0.2c2.9-1.5,5.8-3,8.7-4.5c-0.9-3.2-1.8-6.5-2.7-9.7c-0.2-0.6-0.6-1.4-0.5-1.9c1.4-9.2,2.9-18.4,4.3-27.6
			c0.1-1.5,0.2-2.9,0.3-4.4c0-0.5-0.1-1.1-0.1-1.5c0,0,0.1,0,0.1,0c0,0.5,0.1,0.9,0.2,1.4c0.3-0.5,0.7-1,1-1.5c0,0-0.1,0-0.1,0v-7.2
			c-0.8-1.2-1.5-2.2-2.3-3.3v-2.6c0,0,0,0,0,0c0,0,0,0,0,0c0.3-1.9,0.7-3.9,1-5.8c0,0,0,0,0,0c0.4-3,1-5.9,1.3-8.9
			c1-7.3,1.8-14.5,2.7-21.8c0.1-2.4,0.3-4.8,0.4-7.3c-1.9,2.9-3.7,5.8-5.6,8.7c-1.6,2.4-3.3,4.7-5.8,8.5c0-0.1,0-0.2,0-0.2
			c2.5-3.6,4.2-6.1,5.8-8.5c1.8-2.9,3.7-5.8,5.6-8.7c0.5-0.6,1-1.1,1.5-1.7c-0.3-0.5-0.5-1-0.7-1.5c-0.2-0.7-0.3-1.5-0.3-2.2
			c0-1.4,0.6-2.6,1.5-3.5c0.3-0.3,0.7-0.6,1.1-0.8c0.7-1.6,2.1-2.9,4.4-3c1,0,2.1,0,3.1,0.1c2-2.1,4.4-3.2,8-1.8
			c-0.2-2,0.8-4.7-0.6-6c1.6,1.3,0.5,4,0.7,6.1c0.5,1.3,1,2.6,1.4,3.9c1.8,0.7,3.6,1.6,5.2,2.8c2.3,1.6,4.4,3.5,6.1,5.8
			c1.7,2.3,1.9,5.3,3.4,7.5c1.4,2,1.7,0.3,3.5,0.8C305,122.5,304.9,122.1,304.9,122.2z M217.8,23c1.8-0.6,1.7-4.5,3.3-5.6
			C219.6,18.6,219.7,22.4,217.8,23z M224.6,34.6c-0.5-1.3-1-2.7-1.5-4c0,0,0.1,0,0.1,0C223.7,31.9,224.2,33.2,224.6,34.6
			C224.6,34.6,224.6,34.6,224.6,34.6z M257.6,149.8c-0.1,0.7-0.3,1.3-0.5,1.9C257.3,151.1,257.5,150.4,257.6,149.8z M265.1,75.7
			C265.1,75.7,265.1,75.7,265.1,75.7c-2.2-0.4-4.3-0.9-6.6-1.4c0,0,0,0,0,0C260.7,74.8,262.9,75.2,265.1,75.7z M230.2,43.9
			C230.2,43.9,230.2,43.9,230.2,43.9c-1,1.3-1.9,2.7-2.9,4l0,0C228.2,46.5,229.2,45.2,230.2,43.9z M205.2,88.6
			c1.3,1.7,2.7,3.6,4.2,5.5C207.8,92.3,206.4,90.3,205.2,88.6z M212.4,93.4c-1,0.4-2.5,1.4-2.8,1.1c0,0,0-0.1-0.1-0.1
			c0.3,0.3,1.8-0.7,2.7-1.1C212.3,93.3,212.3,93.3,212.4,93.4c2.6-1,5.2-1.8,7.9-2.8c0,0,0,0,0.1,0
			C217.7,91.5,215.1,92.4,212.4,93.4z M226.4,103.4C226.4,103.5,226.4,103.5,226.4,103.4c-6.9-1.1-8.1-3.7-6-12.9
			c0.3,0.1,0.5,0.1,0.8,0.2C219.3,99.4,220.4,102.1,226.4,103.4C226.4,103.4,226.4,103.4,226.4,103.4z M224.6,54.2
			c0.4-1.5,0.8-3.1,1.1-4.6l0.1-0.3c0,0,0,0,0,0l0,0.1c-0.4,1.5-0.8,3.1-1.1,4.6c2.4,1.6,4.7,3.2,6.9,4.8c0.1-0.2,0-0.4-0.1-0.6
			c0.2,0.2,0.3,0.4,0.2,0.7c0.9,0.1,1.9,0.3,3,0.5c0,0,0,0,0,0c0,0,0,0,0,0c0,0,0,0,0.1,0c-0.1,0-0.1,0.1-0.2,0.1
			c-1-0.1-2-0.3-3-0.5C229.2,57.5,226.9,55.9,224.6,54.2z M231.3,58.1c1.3,0.1,2.8,0.2,4.1,0.2c0,0,0,0.1-0.1,0.1
			c-1.3-0.1-2.6-0.2-3.9-0.2C231.4,58.2,231.4,58.1,231.3,58.1z M233.9,74c-0.1,0-0.1,0-0.2,0.1c-0.2-0.4-0.3-0.8-0.5-1.2
			c1-0.5,2.1-1,3.2-1.5c-1,0.5-2,1-3,1.5C233.6,73.3,233.7,73.7,233.9,74z M251.8,67.1C251.7,67.1,251.7,67.1,251.8,67.1
			c-0.1-1-0.2-2.1-0.2-3.1c-2.3-0.5-4.5-1-6.7-1.5c-2.3-1.5-4.6-2.9-6.8-4.4c-0.4,0.1-0.9,0.2-1.2,0.2c-0.7,0.4-1.3,0.7-2,1.1
			c0,0,0,0,0-0.1c0.7-0.4,1.3-0.7,2-1.1c-1.2-0.9-2.4-2.2-3.7-2.6c1.3,0.4,2.5,1.6,3.7,2.6c0.4-0.1,0.9-0.1,1.2-0.2v0
			c2.3,1.4,4.5,2.9,6.8,4.3c0,0,0,0.1,0,0.1c2.3,0.5,4.5,1,6.7,1.5c-2.8-3.7-5.4-7.5-8.2-11.1c-0.3,0.2-0.6,0.3-1,0.5
			c0,0,0-0.1,0-0.1c0.3-0.2,0.7-0.3,1-0.5c2.8,3.7,5.4,7.5,8.2,11.1C251.7,65,251.8,66.1,251.8,67.1C254.9,67,258,67,261,67
			c0,0,0,0,0,0C257.9,67,254.8,67.1,251.8,67.1z M235.3,113.9c-1.3-0.8-2.2-2.3-3.2-3.7C233.1,111.6,234,112.9,235.3,113.9
			c2.3,1.5,5.2,2.4,7.9,3.7c0,0,0,0,0,0C240.6,116.4,237.8,115.5,235.3,113.9z M244.1,178.1c-0.7-0.5-1.3-0.9-1.9-1.4
			c1.9-3.2,3.9-6.3,5.8-9.4c-1.9,3.2-3.8,6.3-5.8,9.4C242.8,177.3,243.5,177.7,244.1,178.1c1.5-2.2,2.9-4.6,4.6-6.6
			C247,173.7,245.6,175.9,244.1,178.1z M251.2,161.8C251.2,161.8,251.2,161.8,251.2,161.8C251.2,161.8,251.2,161.8,251.2,161.8
			c1-1.7,1.3-3.8,1.9-5.7c-2.4,2.2-4.6,4.7-7,6.7c-2.4,1.9-4.9,3.5-7.1,1.9c2.2,1.4,4.7-0.1,7.1-1.9c2.6-1.9,4.8-4.5,7-6.7
			c-0.5-1-0.9-1.9-1.4-2.9c0,0,0,0,0,0c0.5,1,1,1.9,1.5,2.9C252.5,158,252.1,160.1,251.2,161.8z M273.2,96.4
			c-3.3,3.4-6.6,6.8-9.8,10.3c-3.4,3.9-6.5,8.1-10,11.8c-5.9,6.2-8,6.3-15.6,1.7c0,0,0,0,0.1,0c7.5,4.4,9.6,4.2,15.4-1.8
			c3.5-3.7,6.6-7.9,10-11.8c3.1-3.7,6.7-7,10-10.5C273.2,96.3,273.2,96.4,273.2,96.4z"/>
		<path class="st1" d="M218.7,26.4C218.8,26.4,218.8,26.4,218.7,26.4c0.4,0,0.8,0.1,1.1,0.1C219.5,26.5,219.2,26.5,218.7,26.4z"/>
		<path class="st1" d="M236.8,72.7C236.8,72.7,236.8,72.7,236.8,72.7c5,0.1,10,0.2,14.9,0.3c0,0,0,0,0,0
			C246.8,72.9,241.8,72.8,236.8,72.7z"/>
		<path class="st1" d="M257.1,122.7C257.1,122.7,257.1,122.7,257.1,122.7c-0.3,1.8-0.5,3.7-0.9,5.9
			C256.5,126.4,256.8,124.6,257.1,122.7z"/>
		<path class="st1" d="M263.7,182.6c-0.1-1.1-1-2-1.4-3c-1.4,9.2-2.9,18.4-4.3,27.7c-0.1,0.6,0.3,1.3,0.5,1.9
			c0.9,3.2,1.8,6.5,2.7,9.7c6.8-0.7,4.2-6,4.2-10.1C264.9,200,264.4,191.3,263.7,182.6z"/>
	</g>
</g>
<g id="Capa_3">
	<g>
		<path class="st3" d="M74.2,35.8c3.2,3.3,6.4,6.6,9.7,9.9c0,0,0,0,0-0.1c1.4,1.4,3,2.8,4.4,4.2c2.3-1.8,4.4-3.9,6.9-5.5
			c1.1-0.8,3.4-0.6,4-1.5c4.7-7.8,6.5-16.1,3.5-24.9c0,0,0-0.1,0.1-0.1c-0.2-0.9-0.4-1.7-0.7-2.6c-3.7-2.5-7-6.6-11-7.2
			c-15-2.2-22.3,8.4-16.8,23.1C74.2,32.7,74.2,34.2,74.2,35.8z M96.5,15.3c-1.1,2.4-2.2,4.5-3.2,6.7c1.1,2.3,2.3,4.7,3.6,7.3
			c-3.6,2-6.7,3.9-9.3,5.4c0,0,0,0,0,0c2.8-1.5,5.8-3.4,9.2-5.4c-1.2-2.6-2.4-4.9-3.5-7.3c0,0,0.1,0,0.1,0
			C94.2,19.8,95.2,17.7,96.5,15.3z"/>
		<path class="st3" d="M62.9,129.9c-1.5-5.8-3.2-11.6-4.7-17.4c-0.4,0.1-0.9,0.2-1.4,0.2c0.8,4.8,1.6,9.5,2.4,14.3
			C60.3,128,61.6,129,62.9,129.9z"/>
		<path class="st3" d="M135.7,146.3c-0.4-1-1-1.8-1.4-2.8c-0.5,0-1.1,0-1.6-0.1c0,0,0-0.1,0-0.1l-0.1-0.1c-0.4-0.5-1-0.9-1.4-1.4
			c0,0.1-0.1-0.1-0.1-0.1c-0.4-0.4-1-0.8-1.4-1.2l-0.3-0.2c-0.4-0.3-0.8-0.7-1.2-1l-0.4-0.5l-1.3-1.2c-3.2-2.1-6.3-4.1-9.5-6.3
			c3.6-4.5-0.6-7-3.4-9.4c-4.7-4.2-9.5-8.1-7.9-15c0,0-0.1,0-0.1,0c-0.3-2.5-0.7-5-1-7.4c0-0.1,0-0.1,0-0.2
			c8.7-3.3,12.8-9.4,12.3-18.5c0-0.2-0.1-0.5-0.1-0.7c8.7-5.5,8.3-8.4-1.3-14.1c-0.8,2.9-1.1,6-2.4,8.6c-1.3,2.6-3.8,4.8-5.8,7.2
			c0.7,1.5,1.2,3,1.9,4.4c0,0,0,0,0,0c-0.7-1.4-1.2-3-1.9-4.4c-1.4-1.3-2.9-2.5-4.4-3.8c1.2,1,2.5,2,3.7,3c2-2.2,4.4-4.3,5.8-6.7
			c1.3-2.4,1.7-5.3,2.4-8c-5.3,2.2-12.8,0.5-16.1,6.3c-2.3-4.3-4.7-8.5-7-12.8c-1.1-3.5-2.2-6.9-3.4-10.3c-1.4-1.5-3-2.8-4.4-4.3
			c-3.2-3.3-6.4-6.6-9.7-9.9c-4.9-1-5.3,1.9-5.3,5.1c0.5,0,1,0,1.5,0c-0.5,0-0.9,0-1.5,0c-7.2,1.9-12.2,6.2-14.6,12.8
			c-1.6,4-2.4,8.2-3.7,12.3c3.6,5.4,6.3,11.5,10.8,16.2c3,3.2,8.3,4.7,12.5,6.9c0,0,0,0.1-0.1,0.1c-4.3-2.2-9.5-3.8-12.5-7
			c-4.4-4.7-7.2-10.7-10.8-16.2c-3.9,13.7-1.6,26.1,9.1,36.8c0,0,0.1,0,0.1,0c0.2,1.1,0.5,2.3,0.8,3.4c0,0-0.1,0-0.1,0
			c-0.7,0.7-1.4,1.4-2.1,2v4.2c1.5,5.8,3.2,11.7,4.7,17.5c0.5,0.4,1,0.7,1.5,1c3.8-1.2,7.6-2.5,11.4-3.7c0.3-0.5,0.5-0.9,0.8-1.4
			c-0.3,0.5-0.5,1-0.8,1.5h0.1c-3.8,1.2-7.6,2.5-11.4,3.7c7.4,4.9,15.8,8.5,24,11.8c1.2,0.5,2.4,1,3.6,1.5
			c9.3,1.1,18.6,2.2,27.9,3.3v0.1c-9.3-1.1-18.5-2.2-27.6-3.3c3.8,1.6,7.6,3.7,9.8,7.1c0.2,0.3,0.3,0.5,0.5,0.8
			c3.6,0.3,7.1,0.7,10.7,1.1c0,0,0,0,0,0c-3.5-0.3-7.1-0.7-10.6-1.1c2.3,4.3,0.9,9-3.3,11.9c-4.2,2.9-9.9,3.7-13.1,7.9
			c-3.3,4.2-1.5,10.3-1.4,15.1c0,1.3-0.1,2.6-0.1,3.9c0.3,2.4,0.4,4.9,0.3,7.3c0,0.1,0.1,0.2,0.1,0.3c0,0,0,0,0,0.1
			c0-0.1-0.1-0.2-0.1-0.3c0,0.2,0,0.4,0,0.6c0-0.1,0-0.1,0-0.2c0,0,0.1-0.1,0.1-0.1c-0.1,0.5-0.1,1-0.2,1.5c0,0.4,0,0.9,0,1.3
			c-0.1,3.3-1.1,8.5,0,12.4c1.2,1.7,3.4,2,6.9,1.7c0.5,0,1,0,1.5,0.1c0.6-1.8,1.2-3.6,1.8-5.4h1.1c0.8-4.1,1.4-8,2.1-12.1
			c3-1.3,6.9-1.8,8.9-4.2c6.2-7,11.7-14.6,17.4-21.9c0,0,0,0,0,0c3.2-4.4,6.4-8.7,9.4-13c0-1-0.1-1.9-0.1-2.9h0.2
			C134.7,153.1,135.2,149.7,135.7,146.3z M129.9,149.4c-2.1,2.3-5.2,2.7-9.7,1.3v-0.1C124.6,151.9,127.8,151.5,129.9,149.4z
			 M103.8,126.5c0.4-2.4,0.6-3.9,0.8-5.3c0,0,0,0,0,0C104.4,122.6,104.2,124.1,103.8,126.5c-7.5-2.1-15.2-4.4-23.6-6.9
			c-0.7,1.2-1.4,2.4-2,3.6c0.6-1.2,1.3-2.4,2-3.6C88.6,122,96.2,124.3,103.8,126.5z M80.8,98.3c6.4,0.5,12.8,1,19.2,1.6
			C93.6,99.4,87.3,98.9,80.8,98.3z M99.7,76c0,0,0.1,0.1,0.1,0.1c-6.5,1.1-12.9,2.1-19.3,3.2c-0.6,0.5-1.3,0.9-1.9,1.4
			c0.6-0.5,1.3-1,1.9-1.5C87,78.1,93.5,77,99.7,76z M83.7,50.9c-1.1,1.5-3,3.1-3.1,4.6c0,2,0.7,4.1,1.3,6.1
			c-0.7-2.1-1.4-4.1-1.3-6.1C80.6,54,82.6,52.4,83.7,50.9z M83.2,69.9c-0.4-2.3-0.9-4.5-1.4-6.8c0.2,0,0.4,0,0.6,0
			c0.4,2.4,1,4.8,1.4,7.3c0,0,0,0.1,0,0.1c-2.4-0.4-4.9-0.7-7.4-1.1c-0.1-0.2-0.1-0.3-0.2-0.5C78.6,69.3,80.9,69.7,83.2,69.9z
			 M75.1,60c0.2,0.3-0.2,0.8-0.4,1.2C74.8,60.7,75.2,60.3,75.1,60z M73.4,60.5c-0.2-0.3,0.2-0.8,0.4-1.2
			C73.7,59.8,73.3,60.3,73.4,60.5z M72.5,95c9.3,1.4,18.9-1.6,28,1.7c0,0.4-0.1,0.8-0.2,1.3c0-0.4,0.1-0.8,0.1-1.2
			C91.4,93.4,81.7,96.3,72.5,95c0,0.9-0.1,1.8-0.2,2.6c0,0,0,0,0,0C72.3,96.7,72.4,95.8,72.5,95z M67.4,105.9
			c3.2-0.2,6.4-0.4,9.6-0.6c0,0,0,0,0,0C73.8,105.6,70.6,105.7,67.4,105.9z M77.3,127.4c11.2-2.8,21.6,0.4,31.8,4.3c0,0-0.1,0-0.1,0
			c0,0,0,0,0,0C98.8,127.7,88.5,124.7,77.3,127.4z M107.5,134.5c2.5,1.4,5.2,2.9,7.8,4.3c3.2,1.9,6.3,3.9,9.5,5.8c1,1.1,2,2,4.3,4.5
			c0,0-0.1,0-0.1,0c-2.2-2.4-3.2-3.4-4.2-4.4c-3.2-1.9-6.3-3.9-9.5-5.8C112.8,137.5,110.1,136.1,107.5,134.5L107.5,134.5z
			 M107.9,143.6c4.7,0.6,9.5,0.7,14.3,1C117.4,144.4,112.6,144.3,107.9,143.6z M90.8,212.2c0.3-0.8,0.1-1.8-0.7-3.2c0,0,0,0,0.1,0
			C91,210.4,91.1,211.4,90.8,212.2z M132.5,156.5c-3.6,2-7.2,4-10.9,6c-1.1,0.9-2.2,1.8-3.3,2.7c0,0-0.1,0-0.1,0.1
			c-3.4,0.8-9.1-2.6-9.1,4.3c0,0-0.1,0-0.1,0.1c-6.4,4.2-12.9,8.4-19,12.3c-0.1,0-0.1,0-0.2,0c6.1-4,12.8-8.2,19.3-12.5
			c-0.1-7.2,5.9-3.5,9.3-4.4c1.1-0.9,2.2-1.8,3.3-2.7C125.3,160.3,128.9,158.4,132.5,156.5c0-0.1,0.1,0,0.2,0H132.5z"/>
		<path class="st3" d="M90.9,193.9c0.3,0.2,0.6,0.3,0.9,0.5C91.4,194.3,91.1,194.1,90.9,193.9z"/>
	</g>
	<path class="st3" d="M305.8,122C305.8,122,305.7,122,305.8,122c-1.8-3.4-3.5-6.6-5.3-9.9c-0.4-1.6-0.9-3-1.3-4.5
		c-1.4-0.8-3-1.6-4.3-2.3c1.3,0.7,2.9,1.6,4.3,2.3c-0.9-2.9-1.7-5.8-2.6-8.7c-2.7-4.4-5.3-8.8-8.1-13.2c-1.3-0.6-2.7-1.1-4-1.7
		c-0.7,3.6-1.2,7.1-1.9,10.8c0,0-0.1,0-0.1,0c0.7-3.6,1.2-7.2,1.9-10.9c-1-1.9-1.9-3.8-2.9-5.7c-0.9-0.4-1.8-0.9-2.7-1.4
		c-1.8,0-3.6-0.1-5.3-0.1c0,0,0,0,0,0c-1-0.5-1.9-1-3-1.5c-0.4,0-0.9,0-1.2,0.1c0.8,4,1.4,7.9,2.3,12.4c0,0-0.1,0-0.1,0.1
		c-0.9-4.5-1.5-8.5-2.3-12.4c0,0-0.1,0-0.1,0c0.4-0.1,0.8-0.1,1.2-0.1c0.1-1.2,0.1-2.2,0.2-3.3c0.8-1.9,1.6-3.8,2.4-5.6
		c0.2-0.5,0.2-0.9,0.2-1.4c-0.4-1.6-0.7-3-1-4.6c-0.6-0.9-1.1-1.8-1.7-2.8c-0.3-0.4-0.7-0.9-1-1.4c-0.1-0.6-0.2-1.1-0.3-1.6
		c-0.3-0.5-0.7-1-1-1.5c-8.8-10.6-19.2-17.9-32.4-20.2c0,0,0,0,0.1,0c0.9-8.3,1.5-16.4-4-23.4c0,0,0,0,0,0c0,0,0,0,0,0
		c-0.1-0.7-0.1-1.4-0.2-2c-2.8-0.9-5.5-1.8-8.3-2.7c-0.8,1.6-1.4,3.1-2.9,6c4,0.9,7.5,1.6,11,2.4c0,0.1,0,0.2,0.1,0.3
		c0,0-0.1,0.1-0.1,0.1c-3.8-0.9-7.6-1.6-12-2.6c1.3-2.9,2.1-4.5,2.9-6c-2.7,0.9-5.4,1.7-8.2,2.6c0,0-0.1-0.1-0.1-0.1
		c-6.5,6.2-7.2,10.4-3.6,19.2c0,0,0,0,0,0c0.6,1.7,1,3.4,0.9,3.1c-2.5,4.8-4.2,8.1-5.9,11.4c1.5-0.5,3-1,4.5-1.5
		c2.3-1,4.6-2,6.9-3.1l0.4-0.1c4,0.7,8,1.4,12,2c5,0.9,8.1,3.6,7.9,7.4c0,0-0.1,0-0.1,0c0.1-3.7-2.9-6.5-7.9-7.3l-12-2l-0.4,0.1
		c0,0,0,0,0,0c-2.3,1.1-4.5,2.1-6.8,3.2c1.2,1.6,2.5,3.1,3.8,4.9c0,0,0,0,0,0c-1.1-1.5-2.2-2.8-3.3-4.2c-1.5,0.5-3,1-4.5,1.5
		c-0.3,1.1-0.6,2.1-0.9,3.1c0.2,0.3,0.3,0.6,0.5,0.9c-0.3-0.4-0.7-0.9-1-1.6c-2.2,1.9-4.4,3.9-6.5,5.8c0,0-0.1,0-0.1,0
		c-0.5,3.9-1,7.8-1.6,11.7c-1.2,0.9-2.4,2-3.7,2.9c0,0-0.1,0-0.1,0v11.7c0.1,0.4,0.2,0.8,0.2,1.3c0.4,1.5,0.8,3,1.1,4.5h-0.1
		c0.4,0.6,0.8,1.1,1.1,1.6c1.4,3.9,2.9,7.9,4.3,11.8c1.9-2.5,3.7-5.1,5.9-8.1c0,0,0.1,0.1,0.1,0.1c-2.2,2.9-4,5.5-5.9,8.1
		c-0.1,0.5-0.1,1-0.1,1.6c2.3,4.5,5.4,10.8,10,8.3c7.9-4.4,10.9,0.2,14,6.5c1.3-1.3,2.3-2.2,3.2-3.1c0,0,0-0.1,0-0.1
		c0.3,0.3,0.3,0.7,0,0.9c1,0.2,2,0.4,3,0.6c0.7-0.8,1.3-1.5,2-2.2c8.7-11,17.4-22,26.2-33c0,0,0,0,0.1,0c0,0,0,0,0,0
		c-8.7,11-17.4,22.1-26.2,33c0,0,0.1,0.1,0.1,0.1c-0.7,0.8-1.3,1.4-2,2.2c-0.1,0.4-0.1,0.8-0.2,1.2c2.3,0.1,4.5,0.8,6.4,2.1
		c0.3,0,0.6,0.1,0.9,0.1c-0.3-0.2-0.6-0.3-0.8-0.5c-1.3-0.8-2.2-2.3-3.2-3.7c0.9,1.3,1.9,2.7,3.1,3.6c0.3,0.2,0.6,0.4,1,0.6
		c1.6,0.3,3.3,0.7,4.8,1.1c4.8,0.7,9.6,0.9,14.5,0.5c2.6-3.1,5.1-6.4,7.8-9.4c3.1-3.7,6.7-7,10-10.5c0,0.1,0,0.2-0.1,0.3
		c-3.3,3.4-6.7,6.8-9.8,10.3c-2.7,3-5.1,6.3-7.7,9.3c3.9-0.3,7.8-0.9,11.6-1.7c0.6-0.1,1.1-0.2,1.6-0.1c2-2.2,3.9-4.3,5.9-6.5
		c2.5-4.3,5.3-7.7,10.7-5.6c-0.2-2,0.8-4.7-0.6-6c1.6,1.3,0.5,4.1,0.7,6.1c1.4,3.9,2.9,7.8,4.3,11.7c-1.5-3.9-3-7.7-4.4-11.6
		c-5.3-2-8.2,1.4-10.7,5.6c0.9,0,1.8,0.1,2.7,0.1c2.4,1.4,4.7,2.8,7,4.3c1.7,1,3.5,2,5.2,3c1.3,0.8,2.8,1.7,4.1,2.5
		c0.3,1.2,0.5,2.2,0.8,3.3c0.7,0.4,1.3,0.9,1.9,1.4l0.2,0.2c0,0,0,0.1,0,0.1c2.5,10,4.6,11,14.4,6.4
		C309.4,126.6,307.6,124.2,305.8,122z M217.9,22.4c-1.8,1.6-3.5,3.1-5.2,4.7c-0.2,1.7-0.1,2.9,0.3,3.6c-0.5-0.6-0.6-1.9-0.4-3.7
		c0,0-0.1,0-0.1,0C214.3,25.4,216,23.8,217.9,22.4c0.1-5.2,0.5-10.3-3.3-14.1C218.5,12.1,218.1,17.3,217.9,22.4L217.9,22.4z
		 M217.9,22.4c1.8-0.6,1.7-4.5,3.3-5.6C219.7,17.9,219.8,21.8,217.9,22.4z M224.6,34c-0.5-1.3-1-2.7-1.5-4c0,0,0.1,0,0.1,0
		C223.7,31.3,224.3,32.6,224.6,34C224.7,33.9,224.7,33.9,224.6,34z M227.8,29.4c-0.1,0-0.1,0.1-0.2,0.1c1.9-1.1,3.4-2.9,5.1-4.5
		c-1.5-1.8-3-3.8-4.7-5.5c-0.6-0.7-1.3-1.1-2.1-1.6c-0.4-0.1-0.8-0.2-1.2-0.3c0,0,0,0,0,0c0.5,0.1,0.9,0.2,1.3,0.3
		c0,0,0.1-0.1,0.1-0.1c0.7,0.5,1.5,0.9,2.1,1.5c1.6,1.8,3.1,3.7,4.7,5.5C231.2,26.4,229.7,28.3,227.8,29.4z M230.3,43.3
		C230.3,43.3,230.3,43.3,230.3,43.3c-1,1.3-1.9,2.7-3,4l0,0C228.3,45.9,229.2,44.6,230.3,43.3z M193.8,70.3c0-0.1-0.1-0.2-0.1-0.2
		c1.5-0.8,3.1-1.7,4.8-2.4c0.1-0.3,0.2-0.6,0.2-0.9c0,0.4,0,0.7-0.2,1.1c0.1,0.1,0.1,0.3,0.1,0.4c0-0.1-0.1-0.2-0.1-0.3
		C197,68.7,195.4,69.6,193.8,70.3z M197.6,83.2c0.5-0.8,0.9-1.6,1.3-2.3C198.5,81.7,198.1,82.5,197.6,83.2z M204.7,67
		c-1.1,0.4-2.2,0.7-3.3,1.1V68l0,0C202.5,67.6,203.6,67.3,204.7,67L204.7,67z M202.1,49.6c3.9-0.1,6.1,2.2,4.3,9.7
		c0,0.1-0.1,0.1-0.1,0.2C208.1,51.9,206,49.6,202.1,49.6z M205.2,88.2c1.3,1.7,2.7,3.6,4.2,5.5C207.8,91.9,206.4,89.9,205.2,88.2z
		 M212.4,92.9c-1,0.4-2.5,1.4-2.8,1.1c0,0,0-0.1-0.1-0.1c0.3,0.3,1.8-0.7,2.7-1.1C212.3,92.9,212.3,92.9,212.4,92.9
		c2.6-1,5.2-1.8,7.9-2.8c0,0,0,0,0.1,0C217.8,91.1,215.1,92,212.4,92.9z M226.4,103C226.4,103.1,226.4,103.1,226.4,103
		c-7-1.1-8.1-3.7-6-12.9c0.3,0.1,0.5,0.1,0.8,0.2C219.3,99,220.4,101.6,226.4,103C226.5,103,226.5,103,226.4,103z M224.6,53.7
		c0.4-1.6,0.8-3.1,1.1-4.7l0.1-0.3c0,0,0,0,0,0l0,0.1c-0.4,1.6-0.8,3.1-1.1,4.7c2.4,1.7,4.7,3.2,7,4.9c0.1-0.2,0-0.4-0.1-0.6
		c0.2,0.2,0.3,0.4,0.2,0.7c0.9,0.1,1.9,0.3,3,0.5c0,0,0,0,0,0c0,0,0,0,0,0c0,0,0,0,0.1,0c-0.1,0-0.1,0.1-0.2,0.1c-1-0.1-2-0.3-3-0.5
		C229.3,57,226.9,55.3,224.6,53.7z M231.4,57.6c1.3,0.1,2.8,0.2,4.1,0.2c0,0,0,0.1-0.1,0.1c-1.3-0.1-2.7-0.2-3.9-0.2
		C231.5,57.6,231.4,57.6,231.4,57.6z M233.9,73.5c-0.1,0-0.1,0-0.2,0.1c-0.2-0.4-0.3-0.8-0.5-1.2c1-0.5,2.1-1,3.2-1.5
		c-1,0.5-2,1-3,1.5C233.7,72.8,233.8,73.2,233.9,73.5z M251.9,66.6C251.8,66.6,251.8,66.6,251.9,66.6c-0.1-1-0.2-2.1-0.2-3.1
		c-2.3-0.5-4.5-1-6.8-1.5c-2.3-1.5-4.6-2.9-6.9-4.4c-0.4,0.1-0.9,0.2-1.2,0.2c-0.7,0.4-1.3,0.7-2,1.1c0,0,0,0,0-0.1
		c0.7-0.4,1.3-0.7,2-1.1c-1.2-0.9-2.4-2.2-3.7-2.6c1.3,0.4,2.5,1.7,3.7,2.6c0.4-0.1,0.9-0.1,1.2-0.2v0c2.3,1.5,4.5,2.9,6.8,4.4
		c0,0,0,0.1,0,0.1c2.3,0.5,4.5,1,6.8,1.5c-2.8-3.7-5.4-7.5-8.2-11.2c-0.3,0.2-0.7,0.3-1,0.5c0,0,0-0.1,0-0.1c0.3-0.2,0.7-0.3,1-0.5
		c2.8,3.7,5.4,7.5,8.2,11.2C251.8,64.5,251.9,65.5,251.9,66.6c3.1-0.1,6.3-0.1,9.2-0.1c0,0,0,0,0,0C258,66.5,255,66.6,251.9,66.6z
		 M258.6,73.8C258.6,73.8,258.6,73.8,258.6,73.8c2.2,0.5,4.4,0.9,6.6,1.4c0,0,0,0,0,0C263,74.8,260.8,74.3,258.6,73.8z"/>
	<g>
		<path class="st3" d="M349.1,51.2c0.8,0.6,1.7,1.1,2.4,1.6c0.1-0.5,0.1-0.9,0.1-1.4C350.8,51.3,349.9,51.3,349.1,51.2z"/>
		<path class="st3" d="M351.6,52.9C351.5,52.9,351.5,52.9,351.6,52.9c-0.1,0-0.1,0.1-0.1,0.1L351.6,52.9z"/>
		<path class="st3" d="M534.3,51.6c1.4,6.8-1.3,11.6-7.9,12.1c-6.8,0.6-7.5,4.5-7.4,9.9c16.3-2.6,21.3-9.4,16.8-22.3
			C535.2,51.4,534.8,51.5,534.3,51.6z"/>
		<path class="st3" d="M571.1,30.8c-2.1-3-11.3-1.2-27.3,5.4v0c-1.6,0.3-3.3,1.7-6,2.5c-1.4,0.4-3.6,0.8-6.5,0.4c0-0.1,0-0.1,0-0.2
			c-5.1,0.5-10.2,0.9-15.4,1.5c-8.6,3.2-18,5-25.7,9.7c-10.8,6.5-21.4,12.1-34.1,12.4c-1.1,0.6-2,1.3-3.1,1.7c0,0-0.1,0.1-0.1,0.1
			c-6.7,0.4-13.2,0.9-19.8,1.4c0,0,0,0.1,0,0.1c-1.6-2.4-3.9-4.7-4.4-7.5c-0.5-2.5,0.6-5.6,1.1-8.4c-0.8-1.1-1.8-2.2-2.6-3.3
			c0,0,0-0.1,0-0.1c-4.3-3-8.7-8.8-13-8.7c-13.1,0.2-26.2,2.7-39.2,4.3c0,0-0.1,0.1-0.1,0.1c-0.6-1-1.3-2.2-1.9-3.4
			c-0.2-0.2-0.4-0.4-0.7-0.5c-1.4-2.6-2.7-5.2-4-7.9c0,1.5,0.1,3.2,0.2,4.7c-0.4-0.3-0.8-0.6-1.2-1c-1.1,0.5-2.3,1.1-3.3,1.6
			l-5.8,6.3c-0.5,0.5-1.2,1.1-1.7,1.6c-1.4,2.2-2.9,4.4-4.4,6.6c0,0,0-0.1,0-0.1c1.4-2.2,2.9-4.4,4.4-6.6c0,0,0,0,0,0
			c0.4-0.5,0.7-1,1.1-1.4c0,0,0-0.1,0-0.1L363,36c0.3-0.1,0.6-0.1,1-0.2c1.1-0.5,2.3-1.1,3.3-1.6c-0.1-1.9-0.2-3.8-0.3-5.7
			c-0.5-0.3-1-0.6-1.5-0.9c-0.5-0.4-1.1-0.9-1.6-1.5c-1.5-0.4-3-0.7-4.5-1.2h-3.2c-0.9,1.1-1.8,2.1-2.8,3.2c0.9-1.1,1.8-2.1,2.8-3.2
			c-1.3,0-2.7-0.1-4-0.1c-1.9,2-4,4.1-6,6.1c-3.3,5.2-3.6,10.5-0.2,15.8c0.4,0.8,0.9,1.7,1.3,2.5c0,0.3,0.2,0.5,0.5,0.5
			c0.1,0.6,0.4,0.9,1,0.9c0,0.3,0.2,0.5,0.5,0.5c0.8,0.1,1.6,0.1,2.5,0.2c0.2-0.2,0.2-0.5,0.3-0.8c0,0.3-0.1,0.6-0.3,0.9
			c-0.1,0.5-0.1,1-0.1,1.5l0,0l0,0c0,0,0,0.1,0,0.1c0,0,0,0,0.1,0c-0.5,1.8-1.4,3.7-1.5,5.5c-0.1,2.4,0.2,4.9,0.4,7.4L367,48.3
			c1.2-0.9,2.4-1.9,3.6-2.8c-1.2,0.9-2.3,1.9-3.5,2.8c-5.5,5.9-11,11.8-16.5,17.7c-1.3,3.9-2.6,7.9-3.9,11.9c-1.3,1.8-2.7,3.6-4,5.4
			v3.3c4,7.3,8,14.7,12,22c0,0,0,0-0.1,0c0,0,0,0,0,0c-4-7.3-8-14.7-12-22c-0.5-0.1-1.1-0.1-1.6,0c1.1,8.7,0.1,18.3,8.9,23.9
			c0,0,0,0,0.1,0c6.2,7.8,10.2,18.9,23.1,17.1c-2.6-2.5-5.2-5.2-7.8-7.7c-3-3.6-6.1-7.4-9.1-11c0,0,0,0,0,0c0,0,0-0.1,0-0.1
			c3,3.7,6.1,7.5,9.1,11.1c0.4-2.6,1-5.3,1.5-7.9c-0.4,2.6-1,5.3-1.5,7.9c2.6,2.5,5.2,5.2,7.8,7.7c1.5-1.5,3-2.9,4.6-4.4
			c0-3.9-0.1-7.7-0.1-11.7c0.3-0.2,0.5-0.3,0.8-0.5c0,3.3,0.1,6.5,0.1,9.9c3-7.3,8-7.5,14.6-5.4c2.4,0.7,5.6-1.1,8.5-2.3
			c0.1,0.6,0.2,1.2,0.3,1.8c1.2-0.5,2.5-0.8,3.7-1.1c0.2-1.2,0.5-2.4,0.7-3.6c0-2.9-0.6-6,0.2-8.5c4.2-11.6,8.7-23,13-34.5
			c-1.7,0.2-3.3,0.4-5.1,0.6c0,0,0,0.1,0,0.1c-2-0.6-4.2-1.1-6.2-1.8c-2,2.6-4.1,5.2-6.1,7.8c-1.3,1.7-2.3,4-4,5
			c-7.3,4.4-14.9,8.5-24.3,13.9c0-0.1,0.1-0.1,0.1-0.2c9.4-5.3,16.9-9.4,24.2-13.8c1.7-1.1,2.7-3.3,4-5c2-2.6,4.1-5.2,6.1-7.8
			c2,0.6,4.2,1.2,6.2,1.8c1.7-0.2,3.3-0.4,5.1-0.6c0,0,0.1,0,0.1,0c-4.4,11.5-8.9,22.9-13,34.5c-0.9,2.5-0.2,5.6-0.2,8.4
			c-0.3,1.2-0.5,2.5-0.7,3.7c3-0.6,6.1-0.7,9.2-0.2c2.5-1.4,7.1-3.6,13.3-4.1c8.6-0.7,15.1,2.4,17.8,3.8c-0.8-4.7-1.5-9.4-2.3-14.1
			c0.9-0.6,1.8-1.3,2.8-1.9c0,0,0-0.1,0-0.1c2-1,3.9-2,6-2.9c0-0.5,0.1-1.1,0.1-1.6c0.4-2.1,1-4.2,1.4-6.3c-0.3-0.9-0.6-1.8-1.8-4.9
			c0-0.1,0-0.1,0.1-0.1c0.1,0,0.5,1.1,1.3,3.1c0.3,0.8,0.6,1.5,0.7,1.9c0,0,0.1,0,0.2,0c0.3,0.2-0.1,1.6-0.5,3.2
			c-0.2,0.8-0.5,1.8-0.7,3.1h-0.2c-0.1,0.5-0.1,1.1-0.1,1.5c0.5-0.4,0.9-0.9,1.4-1.4c0,0,0.1,0,0.1,0c0,0,0,0,0,0
			c-0.5,0.4-1,0.9-1.5,1.5c-2,1.1-4.2,2.1-6.2,3.2c-0.4,0.3-0.9,0.6-1.4,0.9c-3.3,2.2-6.5,4-9.7,5.4c0.6,1.4,2,4.3,5.2,6.4
			c1.3,0.9,3.6,2.5,6.2,2.3c3.2-0.3,4.8-2.9,7.5-5.4c2.4-2.3,6.3-5,12.6-6.7c9.8-4.1,16.3-7.4,20.7-9.6c5.2-2.6,10.4-5.4,15.7-8
			c1-0.4,1.9-0.9,2.9-1.4c3.7-1.6,7.2-3.2,10.9-4.7l1.6-3.2c-0.1-5.4,0.8-9.3,7.4-9.9c6.6-0.5,9.2-5.2,7.9-12.1
			c0.4-0.1,0.8-0.2,1.2-0.2c0.5-0.5,2-2.1,4.5-2.5c2-0.4,3.6,0.1,4.3,0.3c2.1,0.6,5.1,1.1,7.8-0.2c2.4-1.1,1.9-2.3,4.8-4.3
			c3.4-2.4,5.4-1.8,10-4.6c1.4-0.9,2.4-1.7,3-2.2C571.6,34.5,572,32.2,571.1,30.8z M357.6,37.2c1.8-0.4,3.5-0.9,5.3-1.2
			C361.1,36.4,359.3,36.9,357.6,37.2C357.6,37.2,357.6,37.2,357.6,37.2z M373.1,104c0,0.7,0,1.4,0.1,2.1c-0.2-0.2-0.4-0.4-0.6-0.5
			c0-0.4,0-0.9,0-1.3c-0.5,0-0.9,0-1.4-0.1c-0.1-0.1-0.1-0.1-0.2-0.1c0-0.1-0.1-0.1-0.1-0.2C371.7,103.9,372.4,103.9,373.1,104z
			 M352.9,96.5c-0.4-0.3-0.8-0.6-1.2-0.8c0,0,0-0.1,0-0.1c3.8,0,7.8,0,11.6,0.1c-0.6-4.1-1.4-8.2-2.1-12.6c0,0,0.1,0,0.1,0
			c0.8,4.4,1.4,8.6,2.2,12.7c1.2,1.2,2.4,2.4,3.6,3.6c-1.1-0.9-2.2-1.8-3.3-2.7C360.2,96.5,356.5,96.5,352.9,96.5z M357.7,103.8
			c0.4-1,0.8-2,1.2-3c-0.5-0.4-1-0.7-1.5-1.1c0.6,0.3,1.1,0.7,1.7,1h9.4c0,0,0.1,0.1,0.1,0.1l0.2,0.3h-9.9
			C358.4,102,358.1,102.9,357.7,103.8z M376.2,106.8c0.4-0.4,0.8-0.8,1.2-1.2c0.3,0.8,0.7,1.6,1,2.3c0,0.4,0,0.8,0,1.2
			c-0.4-0.7-0.7-1.4-1-2c-1.1,0-2.2-0.1-3.2-0.1c-0.1-0.1-0.2-0.2-0.3-0.3C374.7,106.8,375.5,106.8,376.2,106.8z M374.6,112.6
			c-0.1,0-0.1,0.1-0.1,0.1c-3-0.3-5.3-0.6-7.5-0.8c-0.5-2.1-1.5-3.2-2.7-3.8c1.5,0.5,2.7,1.6,3.3,3.8
			C369.8,112.1,371.9,112.3,374.6,112.6z M377.7,60c0,0-0.1,0-0.1-0.1c0.1-0.4,0.3-0.8,0.5-1.2C377.9,59.1,377.8,59.5,377.7,60z
			 M388.9,58.2h-10.6l10.4-0.1c0.1-0.5,0.1-0.9,0.2-1.4c0,0,0.1,0,0.1,0C389,57.2,389,57.6,388.9,58.2z M387.4,52.4l0.2-0.5l0.2,0.5
			H387.4z M390,51.1c-1.7-0.8-4.5,0.9-6.9,1.6c0,0.5,0.1,1.1,0.2,1.6c0,0-0.1,0-0.1,0c0-0.5-0.1-1.2-0.2-1.7
			c2.4-0.6,5.2-2.4,6.9-1.6c0.3,0.2,0.7,0.5,1,0.9C390.6,51.6,390.3,51.3,390,51.1z M406.1,49.4C406.1,49.3,406.1,49.3,406.1,49.4
			c1.1,0.6,2.1,1.2,3.1,1.8C408.2,50.5,407.2,50,406.1,49.4z M412.6,58.8c-1,0-1.8-0.2-2.3-0.9c0.8-1.6,1.5-3.4,2.3-4.9
			c-0.5-0.3-0.9-0.6-1.4-0.8c0.5,0.3,1,0.5,1.5,0.8c-0.8,1.6-1.5,3.4-2.3,4.9C410.9,58.6,411.6,58.8,412.6,58.8z M432.9,67.3
			c-4.3-0.1-8.6-0.2-12.7-0.2c4.2,0,8.5,0.1,12.6,0.1c0,0,0-0.1,0-0.1c4.3-0.6,6.1,1.3,7.1,3.8C438.9,68.5,437.2,66.7,432.9,67.3z
			 M442.5,77.8c-0.3-0.4-0.6-0.9-0.8-1.4C442,76.9,442.2,77.4,442.5,77.8C442.5,77.8,442.5,77.8,442.5,77.8z M488.1,75.2L487,74
			c-2.2,1.4-4.3,2.7-6.9,4.3c-0.3-2.3-0.5-4-0.9-6.6c-2.3,3.4-3.9,5.7-5.5,8c-2.5-1.5-4.6-2.8-7.5-4.7c-1,2.5-1.8,4.6-2.6,6.6
			c0,0,0.1,0,0.1,0c-1,0.6-1.9,1.2-2.9,1.8c0,0.4-0.1,0.9-0.1,1.4c-0.5,0.5-1,1.2-1.5,1.7c0,0-0.1,0-0.1,0c0.5-0.5,1-1.1,1.5-1.7
			c0-0.4,0.1-0.9,0.1-1.4c-4.4-2.9-9-5.8-13.4-9c-1-0.6-1.7-3.3-1.3-3.8c1.8-2.2,4.1-4,6.3-5.9c-2.1,1.9-4.4,3.6-6.2,5.8
			c-0.4,0.5,0.4,3.2,1.3,3.8c4.2,3.2,8.8,6,13.2,8.9c1-0.6,1.9-1.2,2.9-1.8c0.9-2,1.6-4.1,2.6-6.6c3,1.8,5.1,3.2,7.5,4.7
			c1.6-2.4,3.2-4.6,5.5-8c0.3,2.6,0.5,4.3,0.9,6.6c2.5-1.6,4.7-2.9,6.9-4.3l1.2,1.3C488.1,75.1,488.1,75.2,488.1,75.2z M490,71.4
			c-0.4-0.2-1.1-0.3-1.2-0.6c-0.1-0.3,0.3-0.8,0.5-1.3c0,0,0.1,0,0.1,0c-0.2,0.4-0.6,0.9-0.5,1.2C489,71.1,489.6,71.2,490,71.4
			C490,71.4,490,71.4,490,71.4z M490.3,70.9c0.1-0.3,0.2-0.6,0.4-0.9c-0.4-0.1-0.7-0.3-1-0.4c0.3,0.1,0.7,0.3,1,0.4
			C490.5,70.4,490.4,70.6,490.3,70.9z M538.7,45.8c-2.2,1.2-4.4,1.1-5.6,1c0,0,0-0.1,0-0.1C535,46.4,536.8,46.1,538.7,45.8
			C538.7,45.8,538.7,45.8,538.7,45.8z"/>
		<path class="st3" d="M361.3,32.1c-0.4-0.1-0.8-0.3-1.2-0.5C360.5,31.8,360.9,32,361.3,32.1z"/>
		<path class="st3" d="M359.7,31.4c-0.4-0.3-0.8-0.6-1.2-0.9C358.9,30.8,359.3,31.1,359.7,31.4z"/>
		<path class="st3" d="M354.9,28.1c-0.3-0.1-0.5-0.1-0.8-0.1C354.3,28,354.6,28,354.9,28.1z"/>
		<path class="st3" d="M432.9,66c0,0.4-0.1,0.7-0.1,1.1C432.8,66.7,432.9,66.3,432.9,66z"/>
		<path class="st3" d="M391.1,52.2C391.1,52.2,391.1,52.2,391.1,52.2C391.1,52.2,391.1,52.2,391.1,52.2z"/>
		<path class="st3" d="M440.2,71.6c0-0.1,0-0.1-0.1-0.2C440.2,71.5,440.2,71.6,440.2,71.6z"/>
	</g>
</g>
</svg>
