<?xml version="1.0" encoding="utf-8"?>
<!-- Generator: Adobe Illustrator 27.0.0, SVG Export Plug-In . SVG Version: 6.00 Build 0)  -->
<svg version="1.1" xmlns="http://www.w3.org/2000/svg" xmlns:xlink="http://www.w3.org/1999/xlink" x="0px" y="0px"
	 viewBox="0 0 593.2 245.8" style="enable-background:new 0 0 593.2 245.8;" xml:space="preserve">
<style type="text/css">
	.st0{fill:#E83B44;}
	.st1{opacity:0.79;fill:#5AA1D6;enable-background:new    ;}
	.st2{fill:#B9C6E5;stroke:#B9C6E5;stroke-miterlimit:10;}
	.st3{opacity:0.79;fill:#191642;stroke:#191642;stroke-miterlimit:10;enable-background:new    ;}
	.st4{fill:#191642;stroke:#191642;stroke-miterlimit:10;}
</style>
<g id="Capa_1">
	<polygon class="st0" points="593.2,62.7 0,82.7 0,157.3 593.2,177.3 	"/>
</g>
<g id="Capa_2">
	<path class="st1" d="M328.1,245.8c-1.1,0-2.1,0-3.2,0C326,245.8,327.1,245.8,328.1,245.8z"/>
	<g>
		<path class="st2" d="M250.7,84.7c-3.7,7-7.5,13.9-11.2,20.9c0,0-0.1,0-0.1,0c3.7-7,7.5-13.9,11.2-20.9c0-1,0-2,0-3.1
			c-1.2-1.7-2.5-3.4-3.7-5.1c-1.2-3.8-2.4-7.6-3.6-11.3c-5-5.5-10.1-11.1-15.1-16.6c4.9,5,9.9,9.9,14.8,14.9
			c-0.3-2.8-0.5-5.7-1.1-8.4c-0.2-0.9-0.6-1.8-0.9-2.7c0.1,0.1,0.3,0.2,0.4,0.3c0-0.5,0-1-0.1-1.5c-0.2-0.3-0.3-0.7-0.2-1.1
			c-1.3-2.1-2.7-4.1-3.9-6.2c-0.5-0.5-1.1-1-1.5-1.5c-1.7-2-3.4-4-5.2-5.9c-1-0.5-2-1-3-1.5c-0.2,0.2-0.4,0.4-0.6,0.6
			c0.1-1.3,0.2-2.5,0.2-3.8c-1.3,2.3-2.7,4.7-4,7c-0.2,0.2-0.4,0.3-0.6,0.5c-0.6,1.1-1.1,2.2-1.7,3.2c-12.1-1.5-24.2-3.9-36.4-4.1
			c-4-0.1-8.1,5.4-12.1,8.3c0,0,0,0.1,0,0.1c-0.8,1.1-1.7,2-2.4,3.1c0.4,2.7,1.5,5.6,1,8c-0.5,2.6-2.6,4.8-4.1,7.1c0,0,0-0.1,0-0.1
			c-6.1-0.4-12.2-0.9-18.4-1.3c0,0-0.1-0.1-0.1-0.1c-1-0.4-1.9-1-2.9-1.6c-11.8-0.3-21.7-5.6-31.7-11.8c-7.2-4.4-15.9-6.2-23.9-9.2
			c-4.8-0.5-9.6-0.9-14.3-1.4c-0.5,2.5-1.1,4.9-1.7,7.3c0,0,0,0.1,0,0.1c0,0-0.1,0-0.1,0c0.5-2.5,1.1-4.9,1.7-7.3
			c-3.7-1-7.4-2.3-11.2-2.8c-1.4-0.2-3,1.5-4.5,2.4c-1.6-1.4-3.2-2.8-4.8-4.3c-0.8,0.6-1.6,1.2-2.4,1.8c-0.3,0.2-0.6,0.3-0.9,0.3
			c0.7,6.1,1.4,12.1,2.2,19.7c3.6-1.8,5.5-2.8,7.4-3.8c-2-1.7-4.1-3.5-7-5.9c2.9,2.4,4.9,4.1,7,5.9c3-3.4,6-6.4,10.2-1.7
			c0.5,0.1,0.9,0.2,1.4,0.3c-1.3,6.4,1.2,10.9,7.3,11.4c6.2,0.6,7,4.3,6.9,9.4c0.5,1,1,2,1.5,3c3.4,1.5,6.7,3,10.1,4.5
			c0.9,0.4,1.8,0.9,2.7,1.3c4.9,2.5,9.8,5.1,14.6,7.6c6.5,3.1,12.9,6.2,19.4,9.2c0,0.1,0.1,0.1,0.1,0.2c1.9,0.7,3.6,1.4,5.5,2.2
			c0,0,0,0,0,0c2.7,1.8,5.5,3.6,8.2,5.5c4.9,3.4,9.8,6.9,9.4,14.3c0,0.8,1.5,1.6,2.2,2.4c0,0,0.1,0,0.1,0c0.2,1.9,0.4,3.8,0.5,5.7
			c0,0,0.1,0.1,0.1,0.1c-0.3,3.5-0.5,7-0.8,10.5c0.5,0,1,0,1.5,0.1c3.8,6.1,7.3,12.3,11.4,18.1c2.5,3.7,5.7,6.8,8.7,10.1
			c0,0.1,0.1,0.2,0.1,0.3c-3.1-3.5-6.5-6.7-9.1-10.4c-4.1-5.8-7.6-12-11.4-18.1c0,3.5,0,7,0,10.5l-0.1,3c0,1.1,0.1,2.2,0.1,3.3
			c0,1.9,0,3.7,0,5.6c0,2.1,0,4.1,0,6.2c0.2,7.6,0.5,15,0.7,22.6c-0.6,3-1.2,6.1-1.8,9.1c0.1,10.5,0.5,10.9,12,12.2
			c1.7,0,3.5-0.1,5.2-0.1c0,0,0-0.1,0-0.1c1.9,0,3.7,0,5.6,0c1.3-2.6,2.6-5.2,4-7.8c0.1-1.4,0.2-2.9,0.3-4.3l0.3-9
			c0.3-2.6,0.7-5,1-7.5c0,0,0,0,0,0c0,0,0,0,0,0c0,0,0,0,0-0.1c0,0,0,0,0,0c-0.3-1.5-0.6-2.9-0.9-4.3c-5.1,8.1-10.9,0.5-17.4-0.1
			V178c6.5,0.6,12.3,8.1,17.4,0.1c0-0.5,0.1-1,0.1-1.5c-1.6-2-3.2-4.1-4.9-6.2c1.7,2,3.3,4,5,6.2c0.8-3.4,1.9-6.8,2.4-10.3
			c0.7-4.6,1-9.2,1.4-13.8c0.1-3,0.1-6,0.2-9.1c-8.9-1.3-13.1-9.1-18.7-15c-0.1,0.2-0.2,0.5-0.3,0.7c0.1-0.3,0.2-0.5,0.3-0.8
			c-2.4-4-4.7-8.1-7.1-12.1c-0.1-0.2-0.2-0.5-0.4-0.7c5.6-0.9,8.2,3.4,11.3,7.1c2.5,2.9,5.5,5.2,8.5,8c0,0.1-0.1,0.2-0.1,0.3
			c-2.8-2.6-5.5-4.7-7.8-7.5c-3.1-3.8-5.7-8.2-11.4-7.3c2.3,4.1,4.7,8.2,7,12.2c5.6,5.9,9.7,13.8,18.7,15c0-1,0-2.1,0.1-3.1
			c-4.7-2-6.5-2.8-6.8-4.4c0.9,0.9,2.8,1.7,6.1,3.1c-3.3-5.4-3.9-10.8-0.9-16.9c1.4-2.7,0.6-6.6,0.7-9.9c-0.3-1.4-0.6-2.8-0.8-4.2
			c0.1-0.3,0.3-0.5,0.4-0.8c0-2.7,0.6-5.7-0.2-8.1c-3.8-11-8-21.9-12.1-32.8c0,0,0.1,0,0.1,0c1.5,0.2,2.9,0.4,4.4,0.6
			c-1.5-0.2-2.9-0.4-4.4-0.6c4,10.9,8.2,21.8,12.1,32.8c0.8,2.4,0.2,5.3,0.2,8.1c0.4,1.9,0.7,3.8,1.1,5.7c1-0.4,2-0.7,3-1
			c0.1-0.7,0.2-1.3,0.3-2c2.9,1.1,6.2,3.1,8.5,2.5c6.2-2,10.7-1.8,13.5,5c0-4,0.1-8,0.1-11.9c0.4-0.9,0.7-1.7,1.1-2.6
			c0.2,0.2,0.3,0.3,0.5,0.5c0.9,0,1.9-0.1,2.8-0.1c0-0.5,0-1,0.1-1.5c0.1,0.6,0.2,1.2,0.3,1.8c-0.1,0.1-0.2,0.2-0.3,0.3
			c-0.9,0-1.9,0.1-2.8,0.1c-0.4,1.1-0.9,2.2-1.4,3.3c0,0,0,0,0,0c0,0,0,0,0,0c0,4.1-0.1,8.1-0.1,12.1c1.5,1.4,3,2.8,4.4,4.2
			c2.5-2.4,4.9-4.9,7.4-7.3c0-0.1,0-0.2-0.1-0.3c2.7-3.4,5.5-6.9,8.3-10.3c0,0,0,0.1,0,0.1c0.1,0,0.2,0,0.3,0
			c-2.7,3.4-5.4,6.9-8,10.3c-2.3,2.4-4.6,4.8-6.9,7.2c11.5,1.8,15-8.7,20.4-15.9c0,0,0,0,0.1,0c8.2-5.3,7.3-14.4,8.3-22.7
			C251.7,84.6,251.2,84.6,250.7,84.7z M187.6,184.9c-0.5,0.7-1,1.4-1.4,2.1C186.6,186.3,187.1,185.6,187.6,184.9z M186,187.3
			c0-0.1,0.1-0.1,0.1-0.2C186.1,187.2,186,187.3,186,187.3z M170.9,197.1c-0.9,0.6-1.8,1.1-2.7,1.7c-0.5-0.8-1-1.5-1.5-2.3
			c0.5,0.7,1,1.5,1.5,2.2C169.1,198.1,170,197.6,170.9,197.1L170.9,197.1z M203.7,99.4c0,0.1,0,0.1-0.1,0.2
			c-0.4-2.9-1.5-5.8-2.3-8.8c0.2,0.1,0.4,0.3,0.6,0.4C202.7,94,203.6,96.7,203.7,99.4z M235.7,98.2c0.4-0.3,0.7-0.5,1.1-0.8
			C236.4,97.7,236.1,97.9,235.7,98.2C235.7,98.2,235.7,98.2,235.7,98.2z M242.2,93.4C242.2,93.4,242.2,93.4,242.2,93.4
			c-0.4,0.3-0.7,0.6-1.1,0.8C241.5,93.9,241.8,93.7,242.2,93.4z M233.3,81.4C233.3,81.4,233.4,81.4,233.3,81.4
			c-0.6,4.2-1.3,8.1-1.9,12c-1.6,1.6-3,3.1-4.6,4.7c0,0,0,0,0,0c1.5-1.5,3-3.1,4.5-4.6C232,89.6,232.6,85.6,233.3,81.4z M227.8,48.2
			c0.1,0.1,0.1,0.1,0.2,0.2C227.9,48.3,227.8,48.2,227.8,48.2C227.8,48.2,227.8,48.2,227.8,48.2z M218.1,59.4
			c-0.1-0.4-0.2-0.8-0.3-1.2c0.2,0.4,0.3,0.7,0.5,1.1C218.2,59.4,218.1,59.4,218.1,59.4z M207.7,57.7c-0.1-0.5-0.1-0.9-0.2-1.4
			c0,0,0.1,0,0.1,0C207.7,56.7,207.7,57.1,207.7,57.7h9.8H207.7z M208.7,52.2l0.2-0.5l0.2,0.5H208.7z M206.8,50.9
			c1.6-0.8,4.2,0.9,6.4,1.5c-0.1,0.5-0.2,1.1-0.2,1.6c0,0-0.1,0-0.1,0c0.1-0.5,0.2-1.1,0.2-1.5c-2.2-0.6-4.8-2.3-6.4-1.5
			c-0.3,0.1-0.6,0.4-0.8,0.8C206.2,51.4,206.5,51,206.8,50.9z M205.7,52.1C205.7,52,205.7,52,205.7,52.1
			C205.7,52,205.7,52,205.7,52.1z M191.7,49.3c-1,0.6-2,1.1-2.9,1.7C189.7,50.4,190.7,49.9,191.7,49.3
			C191.7,49.3,191.7,49.3,191.7,49.3z M187.1,52c-0.4,0.3-0.9,0.5-1.3,0.8c0.7,1.5,1.4,3.2,2.1,4.7c-0.5,0.6-1.3,0.9-2.2,0.8
			c0.9,0,1.6-0.2,2.1-0.8c-0.7-1.5-1.4-3.2-2.1-4.7C186.2,52.5,186.7,52.3,187.1,52z M166.9,66.2c0-0.3-0.1-0.7-0.1-1
			C166.9,65.5,166.9,65.8,166.9,66.2z M157.9,76.4c0.3-0.4,0.5-0.8,0.7-1.3C158.4,75.6,158.2,76,157.9,76.4
			C157.9,76.4,157.9,76.4,157.9,76.4z M114.1,68.6c-0.3,0.2-0.6,0.3-0.9,0.4c0.1,0.3,0.2,0.5,0.3,0.8c-0.1-0.3-0.2-0.5-0.3-0.8
			C113.5,68.8,113.8,68.7,114.1,68.6z M113.8,70.3C113.8,70.3,113.8,70.3,113.8,70.3c0.4-0.2,0.9-0.3,1-0.6c0.1-0.3-0.3-0.8-0.5-1.2
			c0,0,0.1,0,0.1,0c0.2,0.4,0.6,0.9,0.5,1.2C114.8,70,114.2,70.1,113.8,70.3z M141,83c0-0.4-0.1-0.9-0.1-1.3
			c-0.9-0.6-1.8-1.1-2.7-1.7c0,0,0.1,0,0.1,0c-0.7-1.9-1.5-3.9-2.4-6.3c-2.7,1.8-4.7,3.1-7,4.5c-1.5-2.2-3-4.4-5.1-7.6
			c-0.3,2.5-0.5,4.1-0.8,6.3c-2.4-1.5-4.4-2.8-6.4-4.1l-1,1.1c0,0-0.1-0.1-0.1-0.1l1.1-1.2c2,1.3,4.1,2.6,6.4,4.1
			c0.3-2.2,0.5-3.8,0.8-6.3c2.1,3.2,3.6,5.3,5.1,7.6c2.3-1.5,4.2-2.8,7-4.5c0.9,2.4,1.6,4.4,2.4,6.3c0.9,0.6,1.8,1.1,2.7,1.7
			c4.1-2.8,8.4-5.5,12.3-8.5c0.8-0.6,1.6-3.1,1.2-3.6c-1.7-2-3.8-3.7-5.8-5.5c2,1.8,4.2,3.5,5.9,5.6c0.4,0.5-0.3,3-1.2,3.6
			c-4,3.1-8.3,5.8-12.4,8.6c0,0.4,0.1,0.9,0.1,1.3c0.5,0.5,0.9,1.1,1.4,1.6c0,0-0.1,0-0.1,0C141.9,84.1,141.5,83.5,141,83z
			 M146.8,84.5C146.8,84.5,146.8,84.5,146.8,84.5C146.8,84.5,146.8,84.5,146.8,84.5C146.8,84.5,146.8,84.5,146.8,84.5z M146.8,90.6
			C146.8,90.6,146.9,90.6,146.8,90.6c0.5,0.5,0.9,0.9,1.4,1.3c0,0,0,0.1,0,0.1C147.7,91.5,147.3,91,146.8,90.6z M154,95
			c-1-0.5-2-1.1-3.1-1.6C152,93.9,153,94.5,154,95c-1.6-4.5-3.1-8.9-5.4-15.2c0-0.1,0-0.1,0.1-0.2c2.3,6.4,3.8,10.9,5.4,15.3
			c0.9,0.6,1.8,1.2,2.6,1.8c0.6,0.2,1.2,0.3,1.8,0.5c-0.7-0.1-1.4-0.2-2-0.4C155.7,96.2,154.8,95.6,154,95z M180.9,152.7
			c1-0.5,1.9-0.9,3-1.5C182.8,151.8,181.9,152.3,180.9,152.7z M185.5,150.5c1.1-0.5,2.3-1.1,3.6-1.8
			C187.8,149.3,186.6,149.9,185.5,150.5z M172.4,131.5c0,0,0,0.1,0,0.1c0-0.1,0-0.1,0-0.2c0,0,0,0-0.1-0.1c0.2-0.3,0.4-0.7,0.6-1
			C172.7,130.7,172.6,131.1,172.4,131.5z M161.9,98.6c-0.5-0.6-1.4-1-2.3-1.2c1.1,0.3,2.1,0.6,2.8,1.3c2.8,3.2,5.1,6.9,8.1,11.4
			c0,0.1-0.1,0.2-0.1,0.3C167,105.6,164.8,101.8,161.9,98.6z M166.8,66.4c-3.9-0.5-5.5,1.1-6.5,3.4c0.9-2.3,2.5-4.2,6.6-3.6
			c0,0,0,0.1,0,0.1c3.8,0,7.8-0.1,11.7-0.1C174.7,66.2,170.8,66.3,166.8,66.4z M160,70.5c0,0,0-0.1,0.1-0.1
			C160.1,70.4,160.1,70.5,160,70.5z M189.6,65.1c1.9,2.5,3.8,4.9,5.7,7.4c1.2,1.7,2.1,3.8,3.7,4.8c6.8,4.2,13.8,8.1,22.5,13.1
			c0,0.1,0.1,0.1,0.1,0.2c-8.8-5.1-15.8-9-22.6-13.2c-1.6-1-2.5-3.2-3.7-4.8C193.4,70.1,191.5,67.7,189.6,65.1
			c-1.9,0.7-3.9,1.2-5.8,1.8c0,0,0-0.1,0-0.1h0C185.7,66.2,187.7,65.7,189.6,65.1z M195.2,99.8c-0.9-2.9-1.8-5.7-2.7-8.6
			C193.4,94.1,194.3,97,195.2,99.8z M224.7,101.1c0.1,0,0.1,0,0.2,0c-0.3,0.3-0.6,0.6-0.9,0.9C224.3,101.7,224.5,101.4,224.7,101.1z
			 M228.1,108.8C228.1,108.8,228.1,108.8,228.1,108.8c-2.1,0.2-4.1,0.5-6.9,0.8c0,0,0,0,0,0C223.9,109.3,226,109,228.1,108.8
			c0.5-2,1.4-3,2.5-3.6C229.5,105.8,228.6,106.8,228.1,108.8z"/>
		<path class="st2" d="M231.1,36.5c1.8,1.9,3.5,3.9,5.3,5.8c0.2-0.5,0.3-1,0.5-1.6c0,0,0,0.1,0,0.1c0.1,0.2,0.2,0.5,0.3,0.7
			c-0.1,0.3-0.2,0.6-0.3,0.9c0.3,0.3,0.6,0.6,0.9,0.8c0.1,0.2,0.2,0.4,0.2,0.7c1.4,2.1,2.8,4.2,4.1,6.3c-0.1,0.4,0,0.8,0.2,1.1
			c0.8-0.1,1.6-0.1,2.3-0.2c0.3,0,0.5-0.2,0.5-0.5c0.5,0,0.8-0.3,0.9-0.9c0.3,0,0.5-0.2,0.5-0.5c0.4-0.8,0.8-1.6,1.2-2.4
			c3.1-5,2.9-10.1-0.2-15c-1.9-1.9-3.8-3.9-5.6-5.8c-1.2,0-2.5,0.1-3.7,0.1c0.9,1,1.8,2,2.6,3c-0.9-1-1.8-2-2.6-3c-1,0-2,0-3,0
			c-1.4,0.4-2.8,0.7-4.2,1.1c-0.5,0.5-1,1-1.5,1.4c-0.5,0.3-0.9,0.6-1.4,0.9c-0.1,1.8-0.2,3.6-0.3,5.4c1,0.5,2.1,1,3.1,1.5
			C231,36.4,231.1,36.4,231.1,36.5z"/>
		<path class="st2" d="M250.7,81.6c-1.2-1.7-2.5-3.4-3.7-5.1C248.2,78.2,249.4,79.9,250.7,81.6z"/>
		<path class="st2" d="M241.9,53.6c0-0.1,0-0.1,0-0.2c-0.1,0-0.1,0.1-0.2,0.1L241.9,53.6z"/>
		<path class="st2" d="M241.7,51.6c0,0.6,0,1.2,0.2,1.8c1.1-0.7,2.3-1.3,3.4-2.1C244.1,51.4,242.8,51.4,241.7,51.6z"/>
		<path class="st2" d="M80,63c-6.1-0.5-8.6-5-7.3-11.5c-0.5-0.1-0.9-0.2-1.4-0.3c-4.2,12.3,0.5,18.7,15.6,21.2
			C87,67.3,86.3,63.6,80,63z"/>
		<path class="st2" d="M200.7,223.7c-2.3-1.1-4.7-2.1-7-3.2c-3.3-3.1-6.6-6.1-9.9-9.2c-1.9,0-3.7,0-5.6,0c-1.7,0-3.5,0.1-5.2,0.1
			c-0.4,4.5-0.6,8.9-0.9,13.4c-0.2,2.4-0.4,4.9-0.6,7.4c7.3-0.4,14.6-0.7,21.9-1.3c2.5-0.2,5-1,7.5-1.5c0.1-0.5,0.3-1,0.4-1.5
			c-0.1-0.5-0.1-1,0.1-1.4C201.2,225.6,200.9,224.6,200.7,223.7z"/>
		<path class="st2" d="M240.8,48.6c-1.3-2.1-2.7-4.2-4.1-6.3C238.1,44.4,239.5,46.5,240.8,48.6z"/>
	</g>
	<g>
		<path class="st3" d="M301.5,102.2c3.4-1.4,5.8-0.3,7.7,1.9c-3.1,0.2-6.2,0.9-9.1,2.2C300.5,104.9,301,103.6,301.5,102.2z"/>
		<path class="st3" d="M366.3,14c0.3,0.8,0.6,1.6,0.7,2.1c0.9,2.8,0.9,5.7,0.8,8.6c-0.7-0.6-1.3-1.2-2-1.8
			C365.8,19.8,365.7,16.7,366.3,14z"/>
		<path class="st3" d="M363.7,11.4c-1.8,0.4-3.6,0.8-5.2,1.2c-0.1-0.9-0.2-1.7-0.3-2.6c-0.1-1.6,0.1-2.7,0.9-4
			c0.6-0.2,1.2-0.4,1.8-0.6C361.7,7,362.3,8.5,363.7,11.4z"/>
		<path class="st3" d="M282.9,122.4c1.2-4.3,4.3-8.3,6.8-11.9c4.7-6.8,8.6-14.7,13.6-21.3c0.3,2,0.6,4,1,6c0,0,0.1,0,0.1,0
			c-0.4-2-0.7-4-1-6.1c1.1-1.4,2.3-2.8,3.5-4.1c3.2-3.3,7.6-3.7,9.7-7.7c-0.6,3.4-1.2,6.9-1.9,10.8c0,0,0.1,0,0.1,0.1
			c0.7-4,1.3-7.5,1.9-11.1c0.3-0.6,0.6-1.3,0.8-2c0.7-2.6,0.2-5.4,0.2-8.1c-0.1-3.8,0.7-6.9,2-10.4c0.6-1.7,0.3-3.2-0.5-4.2
			c8.1-9.8,17.7-16.6,29.7-18.8c0,0,0,0-0.1,0c-0.6-5.8-1.1-11.6,0.6-17c0.1,0.7,0.1,1.3,0.1,2c0.1,2.6,1.7,4.2,3.6,4.6
			c-0.6,0.8-1.2,1.5-1.8,2.3c1.6,1.5,3.1,3.4,4.9,4.5c0,0,0.1,0.1,0.2,0.1c-1.8-1.1-3.2-2.9-4.9-4.4c0.6-0.8,1.2-1.6,1.8-2.4
			c2.7,0.6,5.9-1,5.7-4.7c0-0.1,0-0.2,0-0.3c0,0,0.1,0,0.1,0c0,0,0,0,0,0c0,0-0.1,0-0.1,0c-0.1-1.8-0.4-3.5-0.7-5.2
			c2-0.4,4-0.9,6.1-1.4c-1-2.3-1.7-3.8-2.3-5c1.6,1.9,3,5,3.9,7.3c-0.7,2.8-0.5,6-0.4,9.1h0c0.7,0.6,1.4,1.3,2.1,1.9
			c0,3.2,0,6.5,1.1,9.6c0.6,1.6,1.3,3.1,2,4.6c-1.3-0.6-2.6-1.2-3.8-1.9l-0.4-0.1c-3.8,0.7-7.6,1.4-11.4,2c-4.8,0.9-7.7,3.6-7.5,7.4
			c0,0,0.1,0,0.1,0c-0.1-3.7,2.8-6.5,7.5-7.3l11.4-2l0.4,0.1c0,0,0,0,0,0c1.3,0.6,2.6,1.3,3.8,1.9c0.5,0.9,1,1.9,1.5,2.8
			c-0.8,1.1-1.6,2.2-2.5,3.3c0,0,0,0,0,0c0.9-1.2,1.7-2.2,2.5-3.3c1.4,2.6,3,5.2,4.4,7.9c0.2,0.4,0.4,0.8,0.6,1.2
			c-1.5,1.3-1.9,3.9-0.8,8.7c0,0.1,0.1,0.1,0.1,0.2c-1.1-4.9-0.7-7.6,0.7-8.8c2.3,4.7,3.8,9.6,3.8,15c0,0.8,0,1.5-0.1,2.3
			c-1-0.4-2-0.7-3.1-1v0.1c1,0.4,2,0.7,3.1,1c-0.3,6.3-1.9,12.4-2.7,18.6c0,0.4-0.1,0.8-0.1,1.2c-0.1-0.1-0.2-0.2-0.2-0.4
			c0,0-0.1,0.1-0.1,0.1c0.1,0.1,0.2,0.3,0.3,0.4c-0.4,4-0.8,10.1-4.2,11.9c-2.2,1.2-5.6,0.1-8.1,1.3c-0.8,0.4-4.6,4-5.3,3.6
			c-3.3-1.9-6.5,0.7-7.1,3.7c-0.2-0.2-0.4-0.4-0.6-0.7c-8.2-10.9-16.5-22-24.9-32.9c0,0,0,0-0.1,0c0,0,0,0,0,0
			c8.2,10.9,16.6,22,24.9,32.9c0,0-0.1,0.1-0.1,0.1c0.2,0.2,0.4,0.5,0.6,0.7c-0.2,1.5,0.2,3,1.5,4.1c0,0.6,0.1,1.2,0.1,1.7
			c-0.1,0.4-0.1,0.9,0,1.3c-1.3,2.4-2.6,4.8-3.9,7.3c-0.8,5.4-2.4,10.8-2.4,16.3c-0.1,6.8,1,13.7,1.5,20.4c-0.1,0.5-0.2,1-0.3,1.5
			c-0.9,7.5-1.8,14.9-2.7,22.3c-0.5,3.2-0.9,6.5-1.4,9.8c-3,1.8-6.1,3.6-10.7,6.4c0,0.1-0.1,0.1-0.1,0.2c4.7-2.8,7.8-4.6,10.9-6.5
			c-0.4,3.4-0.7,6.9-1.1,10.3c-0.2,1.4-0.3,2.8-0.3,4.2c-1.4,5-2.7,10.1-4.1,15.1c0,0-0.1,0-0.1,0c0.2,0.4,0.3,0.8,0.4,1.2
			c1.5,2,3.2,4,4.7,6c1.4,1.8,2.8,3.8,4.3,5.6c-0.5,0.4-0.9,0.8-1.3,1.2c-0.8,0.2-1.6,0.3-2.4,0.5c-0.4-0.2-0.9-0.4-1.3-0.5
			c-0.3,0.6-0.4,1.1-0.6,1.8c-2.8,0.5-5.5,1.1-8.2,1.5h-2.9c-0.6-0.1-1.3-0.1-1.9-0.2c-0.4-0.5-0.6-1-0.9-1.5
			c0.1-1.9,0.3-3.8,0.5-5.7c0.5-3.4,1.2-6.8,1.8-10.2c0.3,0,0.6,0.1,1,0.2c-0.3-0.1-0.6-0.1-1-0.2c-2.7-1.5-5.5-3-8.2-4.5
			c0.8-3.2,1.7-6.5,2.5-9.7c0.2-0.6,0.5-1.4,0.5-1.9c-1.4-9.2-2.7-18.4-4.1-27.6c-0.1-1.5-0.2-2.9-0.3-4.4c0-0.5,0.1-1.1,0.1-1.5
			c0,0-0.1,0-0.1,0c0,0.5-0.1,0.9-0.2,1.4c-0.3-0.5-0.6-1-1-1.5c0,0,0.1,0,0.1,0v-7.2c0.7-1.2,1.4-2.2,2.2-3.3v-2.6c0,0,0,0,0,0
			c0,0,0,0,0,0c-0.3-1.9-0.6-3.9-1-5.8c0,0,0,0,0,0c-0.4-3-0.9-5.9-1.3-8.9c-0.9-7.3-1.7-14.5-2.5-21.8c-0.1-2.4-0.3-4.8-0.4-7.3
			c1.8,2.9,3.5,5.8,5.3,8.7c1.5,2.4,3.2,4.7,5.5,8.5c0-0.1,0-0.2,0-0.2c-2.4-3.6-4-6.1-5.5-8.5c-1.7-2.9-3.5-5.8-5.3-8.7
			c-0.5-0.5-0.9-1.1-1.4-1.6c0.2-0.4,0.4-0.9,0.6-1.3c0.2-0.7,0.3-1.5,0.3-2.2c0-1.4-0.5-2.6-1.4-3.5c-0.3-0.3-0.7-0.6-1-0.8
			c-0.6-1.6-2-2.9-4.2-3c-0.9,0-1.8,0-2.7,0.1c-1.9-2.3-4.3-3.5-7.8-2.1c0.2-2-0.8-4.7,0.6-6c-1.5,1.3-0.5,4-0.7,6.1
			c-0.5,1.4-1,2.8-1.5,4.2c-1.7,0.7-3.3,1.6-4.8,2.7c-2.2,1.6-4.2,3.5-5.8,5.8c-1.6,2.3-1.8,5.3-3.2,7.5c-1.3,2-1.6,0.3-3.3,0.8
			C282.9,122.7,283,122.3,282.9,122.4z M365.8,22.9c-1.8-0.6-1.6-4.5-3.2-5.6C364.1,18.5,364.1,22.3,365.8,22.9z M359.4,34.5
			c0.4-1.3,1-2.7,1.4-4c0,0-0.1,0-0.1,0C360.3,31.8,359.8,33.1,359.4,34.5C359.4,34.5,359.4,34.5,359.4,34.5z M328,149.7
			c0.1,0.7,0.3,1.3,0.5,1.9C328.3,151,328.1,150.3,328,149.7z M320.9,75.6C320.9,75.6,320.9,75.6,320.9,75.6
			c2.1-0.4,4.1-0.9,6.2-1.4c0,0,0,0,0,0C325,74.7,322.9,75.1,320.9,75.6z M354.1,43.8C354.1,43.8,354.1,43.8,354.1,43.8
			c1,1.3,1.8,2.7,2.8,4l0,0C356,46.4,355.1,45.1,354.1,43.8z M377.9,88.5c-1.2,1.7-2.5,3.6-4,5.5C375.4,92.2,376.8,90.2,377.9,88.5z
			 M371,93.3c0.9,0.4,2.4,1.4,2.6,1.1c0,0,0-0.1,0.1-0.1c-0.3,0.3-1.7-0.7-2.6-1.1C371.1,93.2,371.1,93.2,371,93.3
			c-2.4-1-5-1.8-7.5-2.8c0,0,0,0-0.1,0C366,91.4,368.5,92.3,371,93.3z M357.7,103.3C357.7,103.4,357.7,103.4,357.7,103.3
			c6.6-1.1,7.7-3.7,5.7-12.9c-0.3,0.1-0.5,0.1-0.8,0.2C364.5,99.3,363.4,102,357.7,103.3C357.7,103.3,357.7,103.3,357.7,103.3z
			 M359.4,54.1c-0.4-1.5-0.7-3.1-1.1-4.6l-0.1-0.3c0,0,0,0,0,0l0,0.1c0.4,1.5,0.7,3.1,1.1,4.6c-2.3,1.6-4.4,3.2-6.6,4.8
			c-0.1-0.2,0-0.4,0.1-0.6c-0.2,0.2-0.3,0.4-0.2,0.7c-0.9,0.1-1.8,0.3-2.8,0.5c0,0,0,0,0,0c0,0,0,0,0,0c0,0,0,0-0.1,0
			c0.1,0,0.1,0.1,0.2,0.1c0.9-0.1,1.9-0.3,2.9-0.5C355,57.4,357.3,55.8,359.4,54.1z M353,58c-1.3,0.1-2.6,0.2-3.9,0.2
			c0,0,0,0.1,0.1,0.1c1.2-0.1,2.5-0.2,3.7-0.2C352.9,58.1,353,58,353,58z M350.6,73.9c0.1,0,0.1,0,0.2,0.1c0.2-0.4,0.3-0.8,0.5-1.2
			c-0.9-0.5-2-1-3-1.5c1,0.5,1.9,1,2.8,1.5C350.8,73.2,350.7,73.6,350.6,73.9z M333.5,67C333.6,67,333.6,67,333.5,67
			c0.1-1,0.2-2.1,0.2-3.1c2.2-0.5,4.3-1,6.4-1.5c2.2-1.5,4.3-2.9,6.5-4.4c0.4,0.1,0.8,0.2,1.2,0.2c0.7,0.4,1.3,0.7,1.9,1.1
			c0,0,0,0,0-0.1c-0.7-0.4-1.3-0.7-1.9-1.1c1.2-0.9,2.3-2.2,3.5-2.6c-1.3,0.4-2.4,1.6-3.5,2.6c-0.4-0.1-0.8-0.1-1.2-0.2v0
			c-2.2,1.4-4.3,2.9-6.5,4.3c0,0,0,0.1,0,0.1c-2.2,0.5-4.3,1-6.4,1.5c2.6-3.7,5.2-7.5,7.8-11.1c0.3,0.2,0.6,0.3,1,0.5
			c0,0,0-0.1,0-0.1c-0.3-0.2-0.6-0.3-1-0.5c-2.6,3.7-5.2,7.5-7.8,11.1C333.6,64.9,333.5,66,333.5,67c-3-0.1-6-0.1-8.8-0.1
			c0,0,0,0,0,0C327.7,66.9,330.6,67,333.5,67z M349.2,113.8c1.2-0.8,2.1-2.3,3-3.7C351.3,111.5,350.4,112.8,349.2,113.8
			c-2.2,1.5-5,2.4-7.5,3.7c0,0,0,0,0,0C344.2,116.3,346.9,115.4,349.2,113.8z M340.9,178c0.6-0.5,1.3-0.9,1.8-1.4
			c-1.8-3.2-3.7-6.3-5.5-9.4c1.8,3.2,3.6,6.3,5.5,9.4C342.1,177.2,341.4,177.6,340.9,178c-1.4-2.2-2.8-4.6-4.3-6.6
			C338.1,173.6,339.4,175.8,340.9,178z M334.1,161.7C334.1,161.7,334.1,161.7,334.1,161.7C334.1,161.7,334.1,161.7,334.1,161.7
			c-0.9-1.7-1.3-3.8-1.8-5.7c2.3,2.2,4.3,4.7,6.7,6.7c2.2,1.9,4.6,3.5,6.8,1.9c-2.1,1.4-4.5-0.1-6.7-1.9c-2.4-1.9-4.5-4.5-6.7-6.7
			c0.4-1,0.9-1.9,1.3-2.9c0,0,0,0,0,0c-0.4,1-1,1.9-1.4,2.9C332.8,157.9,333.2,160,334.1,161.7z M313.1,96.3
			c3.1,3.4,6.3,6.8,9.4,10.3c3.3,3.9,6.2,8.1,9.5,11.8c5.6,6.2,7.6,6.3,14.8,1.7c0,0,0,0,0,0c-7.1,4.4-9.1,4.2-14.7-1.8
			c-3.3-3.7-6.2-7.9-9.5-11.8c-3-3.7-6.3-7-9.5-10.5C313.1,96.2,313.1,96.3,313.1,96.3z"/>
		<path class="st3" d="M365,26.3C365,26.3,365,26.3,365,26.3c-0.4,0-0.8,0.1-1.1,0.1C364.2,26.4,364.6,26.4,365,26.3z"/>
		<path class="st3" d="M347.8,72.6C347.8,72.6,347.8,72.6,347.8,72.6c-4.7,0.1-9.5,0.2-14.2,0.3c0,0,0,0,0,0
			C338.2,72.8,343,72.7,347.8,72.6z"/>
		<path class="st3" d="M328.5,122.6C328.5,122.6,328.5,122.6,328.5,122.6c0.3,1.8,0.5,3.7,0.8,5.9
			C329,126.3,328.8,124.5,328.5,122.6z"/>
		<path class="st3" d="M322.1,182.5c0.1-1.1,0.9-2,1.4-3c1.4,9.2,2.7,18.4,4.1,27.7c0.1,0.6-0.3,1.3-0.5,1.9
			c-0.8,3.2-1.7,6.5-2.5,9.7c-6.5-0.7-4-6-4-10.1C321.1,199.9,321.5,191.2,322.1,182.5z"/>
	</g>
	<g>
		<path class="st4" d="M479.9,38.2c-2.3-1.8-4.5-0.9-5.8,1c-3.1-6.9-4-14.2-1.6-21.7c0,0,0-0.1,0-0.1c0.2-0.9,0.4-1.7,0.6-2.6
			c3.4-2.5,6.5-6.6,10.2-7.2c13.9-2.2,20.6,8.4,15.5,23.2c0.1,1.5,0.1,3,0.1,4.6c-3,3.3-6,6.6-8.9,9.9c0,0,0,0,0-0.1
			c-0.8,0.9-1.6,1.7-2.5,2.6C486.4,43.7,483.1,40.8,479.9,38.2z M478,28.8c1.1-2.6,2.3-4.9,3.3-7.3c0,0-0.1,0-0.1,0
			c-0.9-2.1-1.8-4.3-3-6.7c1,2.4,2.1,4.6,3,6.7c-1,2.3-2.2,4.8-3.3,7.4c3.3,2,6.2,3.9,8.6,5.4c0,0,0,0,0,0
			C484,32.6,481.2,30.8,478,28.8z"/>
		<path class="st4" d="M513.7,112.1c0.4,0.1,0.8,0.2,1.3,0.2c-1,6.4-2,12.7-2.9,19.1c-1-0.1-2.2-0.2-3.2-0.3
			C510.5,124.8,512.1,118.4,513.7,112.1z"/>
		<path class="st4" d="M443.2,143.3c0.5,0,1,0,1.5-0.1c0,0,0-0.1,0-0.1l0.1-0.1c0.4-0.5,0.9-0.9,1.3-1.4c0,0.1,0.1-0.1,0.1-0.1
			c0.4-0.4,0.9-0.8,1.3-1.2l0.3-0.2c0.4-0.3,0.7-0.7,1.1-1l0.4-0.5l1.2-1.2c3-2.1,5.8-4.1,8.8-6.3c-3.3-4.5,0.6-7,3.1-9.4
			c4.3-4.2,8.8-8.1,7.3-15c0,0,0.1,0,0.1,0c0.1-1.2,0.3-2.3,0.4-3.5c0.4,0.2,0.9,0.4,1.3,0.5c3.4,1.2,5.6-1.5,5.8-4.5
			c5.1-0.4,10.2-0.9,15.3-1.4c-5.1,0.4-10.2,0.9-15.3,1.3c0.1-1.2-0.2-2.5-1-3.5c7.8-2.4,16.1,0.1,24-1.1c0,0.8,0.1,1.7,0.2,2.5
			c0,0,0,0,0,0c0-0.9-0.1-1.7-0.2-2.6c-8,1.3-16.2-1.2-24.1,1.1c-0.5-0.7-1.2-1.2-2.2-1.6c-3.4-1.2-6.5-3.2-9.3-5.5
			c-1.4-1.2-3.2-1.7-4.9-1.2c-0.5-2-0.7-4.3-0.6-6.8c0-0.2,0.1-0.5,0.1-0.7c-5.5-3.8-7-6.3-4.7-9.4c0.7,1.3,2,2.2,3.8,2.2
			c1.4,0.1,2.9,0.9,4.3,1.4c0,0.1,0,0.1,0.1,0.2c1.2,2.6,3.5,4.8,5.3,7.2c-0.6,1.5-1.1,3-1.7,4.5c0,0,0,0,0,0c0.6-1.4,1.1-3,1.7-4.4
			c1.3-1.3,2.7-2.5,4.1-3.8c-1.2,1-2.3,2-3.4,3c-1.8-2.1-3.9-4.1-5.2-6.4c0,0,0,0,0.1,0c2.1,0.5,4.3,0.7,6.4,0.8
			c2.2,0,3.7-1.3,4.3-3c2.4,2,6.7,1.7,7.6-2.4c1.4-6.3,5.4-12.4,5.7-18.9c0.1-1.2-0.1-2.3-0.4-3.4c0.9-0.9,1.7-1.8,2.6-2.7
			c3-3.3,6-6.6,8.9-9.9c4.5-1,4.9,1.9,4.9,5.1c-0.5,0-0.9,0-1.3,0c0.4,0,0.9,0,1.3,0c6.7,1.9,11.3,6.2,13.6,12.8
			c1.4,4,2.3,8.2,3.4,12.3c-3.3,5.4-5.9,11.5-10,16.3c-2.8,3.2-7.7,4.7-11.6,7c0,0,0,0.1,0.1,0.1c4-2.2,8.8-3.8,11.6-7
			c4.1-4.8,6.7-10.8,10-16.3c3.6,13.8,1.4,26.2-8.4,36.9c0,0-0.1,0-0.1,0c-0.2,1.1-0.5,2.3-0.8,3.4c0,0,0.1,0,0.1,0
			c0.6,0.7,1.3,1.4,2,2v4.2c-1.5,6.3-3.2,12.7-4.7,19c-3.9-1.4-7.7-2.7-11.6-4.1c-0.3-0.5-0.5-0.9-0.8-1.4c0.3,0.5,0.5,1,0.8,1.5
			h-0.1c3.9,1.4,7.7,2.7,11.6,4.1c1,0.1,2.2,0.2,3.2,0.3c-2.5,4.9-5,9.8-7.5,14.6c-1.4,0-2.9-0.1-4.3-0.1c0,0,0,0,0,0
			c1.4,0,2.8,0.1,4.2,0.1c-0.4,4.3-0.9,8.6-1.3,13c0.4,0.5,0.8,1.1,1.2,1.6c0.1,0.6,0.1,1.1,0.2,1.6v4.3c-4,0.5-4.8,2.5-2.9,5.9
			c0,0,0.1-0.1,0.1-0.1c0,0,0,0,0,0c-1.9-3.3-1.1-5.4,2.9-5.8c0,1.5,0.1,2.9,0.3,4.4c0,0-0.1,0-0.1,0.1c-0.1,1.3-0.1,2.7-0.1,4
			c0.4,6,0.9,11.9,1.3,17.8c0.4,3.4,0.9,6.8,1.2,10c0.4,2.5,0.8,4.9,1.2,7.5c0.8,4.6,1.1,9.1,2.4,13.5c2,6.6-0.1,9.8-7,10
			c-0.9,0.1-1.7,0.8-2.6,1.2c-3.3-0.9-6.5-1.9-9.8-2.5c-2.9-0.5-5.9-0.4-8.8-0.6c0.1-1.3,0.1-2.6,0.1-4c-0.2-2.6-0.2-5.3-0.7-7.9
			c-0.1-0.4-0.2-0.8-0.3-1.1c0.2-0.3,0.3-0.7,0.4-1c0.2-1.4,0.4-2.8,0.6-4.2c0.2-0.4,0.4-0.9,0.5-1.4c0,0,0,0,0,0.1c0,0,0,0,0-0.1
			c0.1-0.5,0.1-1.1,0-1.7c0.1-0.4,0.3-0.9,0.6-1.4c0,0,0,0-0.1,0c-0.3,0.5-0.4,0.9-0.5,1.3c-0.2-0.9-0.6-1.7-1.3-2.5
			c-1.5-1.6-1.8-3.7-2.5-5.7c-0.8-2.1-1.9-4-3.1-5.9c-2.6-3.7-5.7-7-8.5-10.5c-3.7-4.5-7.5-8.9-11.2-13.3c-1-1.2-1.9-2.4-2.7-3.6
			c1.2-1.4,1.7-3.4,0.4-5.5c-0.4-0.6-0.8-1.3-1.2-1.9c0.6,0.3,1.2,0.7,1.8,1c1,0.9,2.1,1.8,3.1,2.7c0,0,0.1,0,0.1,0.1
			c3.1,0.8,8.5-2.6,8.4,4.3c0,0,0.1,0,0.1,0.1c6,4.2,11.9,8.4,17.6,12.3c0.1,0,0.1,0,0.2,0c-5.7-4-11.8-8.2-17.9-12.5
			c0.1-7.2-5.4-3.5-8.6-4.5c-1-0.9-2.1-1.8-3.1-2.7c-0.6-0.4-1.2-0.7-1.8-1.1c-2.2-3.5-4.6-7-5.1-11.2c1.9,1.7,4.6,1.9,8.3,0.7v-0.1
			c-3.7,1.1-6.4,1-8.3-0.6c0,0,0-0.1,0-0.1c-0.2-2.7-2-5-4.8-5c-0.2,0-0.4,0-0.6,0.1C442.8,144.2,443,143.7,443.2,143.3z
			 M475.2,75.5c0,0-0.1,0.1-0.1,0.1c6,1.1,11.9,2.1,17.8,3.2c0.6,0.5,1.2,0.9,1.8,1.4c-0.5-0.5-1.2-1-1.8-1.5
			C487,77.6,481,76.6,475.2,75.5z M490.1,50.4c1,1.6,2.8,3.1,2.9,4.7c0,2-0.7,4.1-1.2,6.1c0.6-2.1,1.3-4.1,1.2-6.1
			C492.9,53.5,491.1,51.9,490.1,50.4z M490.6,69.5c0.4-2.3,0.9-4.6,1.3-6.8c-0.2,0-0.4,0-0.5,0c-0.4,2.4-0.9,4.8-1.3,7.3
			c0,0,0,0.1,0,0.1c2.2-0.4,4.5-0.7,6.9-1.1c0.1-0.2,0.1-0.3,0.2-0.5C494.8,68.9,492.7,69.2,490.6,69.5z M498.1,59.5
			c-0.2,0.3,0.2,0.8,0.4,1.2C498.3,60.3,498,59.8,498.1,59.5z M499.6,60.1c0.2-0.3-0.2-0.8-0.4-1.2
			C499.3,59.3,499.7,59.8,499.6,60.1z M493.3,119.2c-7.8,2.5-14.9,4.8-21.9,7c-0.4-2.4-0.6-3.9-0.8-5.4c0,0,0,0,0,0
			c0.2,1.4,0.4,2.9,0.8,5.4C478.4,124.1,485.5,121.8,493.3,119.2c0.6,1.3,1.3,2.5,1.9,3.7C494.6,121.7,494,120.5,493.3,119.2z
			 M466.5,131.3C466.6,131.3,466.6,131.3,466.5,131.3c0.1,0,0.1,0,0.1,0c9.4-3.9,18.9-7,29.4-4.3C485.6,124.3,476,127.5,466.5,131.3
			z M505.2,105.5c-3-0.2-5.9-0.4-8.9-0.6c0,0,0,0,0,0C499.3,105.2,502.2,105.4,505.2,105.5z M492.9,211.8c1.8,2.3,3.7,4.7,5.9,7.5
			c0,0,0.1,0,0.1,0c-2.2-2.8-4.1-5.1-5.9-7.5c0,0,0,0,0,0c-0.1,0-0.2,0-0.3,0C492.8,211.8,492.9,211.8,492.9,211.8z M495.7,186.4
			c2.5-2.8,4.5-2.5,6.2,0.5c0,0,0,0,0-0.1c0.6,1.4,1.3,2.8,2.9,6c-1.5-3.2-2.2-4.7-2.9-6C500.1,183.8,498.1,183.5,495.7,186.4
			c-1.4,1.6-2.8,3.2-4.2,4.8h0c-0.9,2.5-2,4.9-2.9,7.5c0,0,0,0.1,0,0.1c0.9-2.5,1.9-4.9,2.9-7.4C492.9,189.7,494.3,188,495.7,186.4z
			 M488.6,198.8c0.5,3.9,0.9,7.7,1.3,11.6c-0.4-3.9-0.8-7.7-1.2-11.5C488.7,198.9,488.7,198.9,488.6,198.8z M488.3,215.8
			c0.6-1.4,1.2-2.8,1.8-4.2c0,0,0-0.1,0-0.1C489.4,213,488.8,214.4,488.3,215.8C488.2,215.8,488.2,215.8,488.3,215.8z M487.1,163.6
			C487.1,163.6,487.1,163.6,487.1,163.6c-0.2-1.4-0.8-2.9-0.9-4.1C486.2,160.7,486.8,162.2,487.1,163.6z M456.4,147.5
			c11.4-1.4,22.6-2.9,33.9-4.3c-5.4,2.9-10.9,5.8-16.4,8.8c-3.8,0.4-7.5,0.8-11.3,1.3c0,0,0,0,0,0c3.8-0.4,7.6-0.8,11.3-1.3
			c5.4-2.9,10.9-5.9,16.3-8.8c0.3-0.3,0.7-0.5,1-0.8c-0.3,0.2-0.6,0.5-0.9,0.7C479,144.5,467.7,146,456.4,147.5L456.4,147.5z
			 M467.7,143.4c-4.3,0.6-8.8,0.7-13.2,1C458.9,144.1,463.3,144,467.7,143.4z M448,149c2.1-2.4,3-3.4,3.9-4.4c3-1.9,5.9-3.9,8.8-5.8
			c2.4-1.5,4.8-2.9,7.3-4.4l0-0.1c-2.4,1.4-4.8,2.9-7.3,4.3c-3,1.9-5.9,3.9-8.8,5.8c-0.9,1.1-1.8,2-4,4.6C448,149,448,149,448,149z"
			/>
		<path class="st4" d="M475.3,158.8C475.3,158.8,475.3,158.8,475.3,158.8l-0.3-1.8C475,157.6,475.2,158.2,475.3,158.8z"/>
		<path class="st4" d="M483.4,193.8c-0.3,0.2-0.5,0.3-0.8,0.5C482.9,194.2,483.2,194,483.4,193.8z"/>
		<path class="st4" d="M491.8,232.5c3.3,0.6,6.5,1.6,9.8,2.5c-0.8,1-1.7,1.9-2.7,2.9c-1.5,0-3.1,0-4.6,0.1c-1,0.1-2,0.3-2.9,0.4
			c-3.8,0-7.7,0.1-11.5,0.1c-1-0.1-2-0.3-3-0.4c2.1-2.1,4.1-4.2,6.1-6.2C485.9,232.2,488.9,232.1,491.8,232.5z"/>
		<path class="st4" d="M504.6,162.3c0.2,0.1,0.5,0.3,0.5,0.3c-0.1,0.3-0.3,0.7-0.5,1C504.6,163.1,504.6,162.6,504.6,162.3z"/>
		<path class="st4" d="M504.5,160.6c-0.5-0.5-0.8-1.1-1.2-1.6C503.7,159.5,504.1,160.1,504.5,160.6z"/>
	</g>
	<g>
		<path class="st3" d="M301.3,101.8c3.6-1.5,6.1-0.1,8,2.3c-3.3,0.2-6.6,1-9.7,2.4C300.2,104.9,300.8,103.3,301.3,101.8z"/>
		<path class="st3" d="M366.1,13.5c0.4,1,0.7,2,0.9,2.6c0.8,2.7,0.9,5.5,0.8,8.3c-0.7-0.7-1.4-1.3-2.2-2
			C365.6,19.4,365.5,16.3,366.1,13.5z"/>
		<path class="st3" d="M360.9,5.2c0.7,1.5,1.3,3,2.6,5.8c-1.8,0.4-3.5,0.8-5.1,1.1c-0.1-0.7-0.2-1.4-0.2-2.1c-0.1-1.7,0.2-2.8,1-4.2
			c0.1-0.2,0.2-0.3,0.3-0.4c0.3-0.1,0.7-0.2,1-0.4C360.6,5.1,360.8,5.2,360.9,5.2z"/>
		<path class="st3" d="M282.9,122.4c1.2-4.3,4.3-8.3,6.8-11.9c4.7-6.7,8.5-14.6,13.6-21.2c0.3,1.8,0.6,3.6,0.9,5.4c0,0,0.1,0,0.1,0
			c-0.3-1.8-0.6-3.7-0.9-5.5c1.1-1.5,2.3-2.9,3.6-4.2c3-3.1,7.1-3.7,9.3-7c-0.5,3.1-1.1,6.3-1.7,9.7c0,0,0.1,0,0.1,0.1
			c0.6-3.6,1.2-6.8,1.7-10c0.5-0.8,0.9-1.6,1.1-2.7c0.7-2.6,0.2-5.4,0.2-8.1c-0.1-3.8,0.7-6.9,2-10.4c0.7-1.9,0.3-3.5-0.7-4.5
			c8.1-9.9,17.8-16.7,29.8-18.9c0,0,0,0-0.1,0c-0.6-6-1.1-11.9,0.7-17.3c0.1,0.9,0.2,1.8,0.2,2.8c0.1,2.4,1.5,3.9,3.2,4.5
			c-0.5,0.7-1.1,1.3-1.6,2c1.6,1.5,3.1,3.4,4.9,4.5c0,0,0.1,0.1,0.2,0.1c-1.8-1.1-3.2-2.9-4.9-4.4c0.5-0.7,1.1-1.4,1.6-2
			c2.8,0.9,6.3-0.6,6.1-4.6c-0.1-2-0.5-4-0.8-6c1.9-0.4,3.9-0.9,6-1.4c-0.9-2-1.5-3.4-2.1-4.6c1.5,1.8,2.8,4.5,3.7,6.8
			c-0.7,2.8-0.5,6-0.4,9.1h0c0.8,0.7,1.5,1.4,2.2,2.1c0,3.3-0.1,6.7,1.1,9.9c0.5,1.4,1.1,2.8,1.8,4.1c-1.3-0.6-2.5-1.2-3.8-1.8
			l-0.4-0.1c-3.8,0.7-7.6,1.4-11.4,2c-4.8,0.9-7.7,3.6-7.5,7.4c0,0,0.1,0,0.1,0c-0.1-3.7,2.8-6.5,7.5-7.3l11.4-2l0.4,0.1
			c0,0,0,0,0,0c1.3,0.6,2.5,1.2,3.8,1.9c0.5,1,1,1.9,1.5,2.8c-0.8,1.1-1.6,2.1-2.5,3.3c0,0,0,0,0,0c0.8-1.2,1.7-2.2,2.5-3.3
			c1.5,2.8,3.1,5.5,4.6,8.2c0.1,0.3,0.3,0.5,0.4,0.8c-1.4,1.3-1.9,3.9-0.8,8.7c0,0.1,0.1,0.1,0.1,0.2c-1.1-4.8-0.7-7.5,0.7-8.8
			c2.4,4.8,4,9.9,4,15.4c0,7.1-1.8,14-2.7,21c0,0.3-0.1,0.7-0.1,1.1c-0.2-0.2-0.3-0.4-0.4-0.6c0,0-0.1,0.1-0.1,0.1
			c0.2,0.2,0.3,0.5,0.5,0.7c-0.4,4-0.8,10.2-4.2,12c-2.2,1.2-5.6,0.1-8.1,1.3c-0.8,0.4-4.6,4-5.3,3.6c-3.3-1.9-6.4,0.6-7,3.5
			c-0.3-0.3-0.5-0.6-0.8-0.9c-8.2-10.9-16.5-22-24.9-32.9c0,0,0,0-0.1,0c0,0,0,0,0,0c8.2,10.9,16.6,22,24.9,32.9
			c0,0-0.1,0.1-0.1,0.1c0.3,0.3,0.5,0.6,0.8,1c-0.3,1.5,0.1,3,1.3,4.2c0,0.5,0,1,0,1.5c-0.1,0.4-0.1,0.9,0,1.3
			c-1.3,2.4-2.6,4.8-3.9,7.3c-0.8,5.4-2.4,10.8-2.4,16.3c-0.1,6.8,1,13.7,1.5,20.4c-0.1,0.5-0.2,1-0.3,1.5
			c-0.9,7.5-1.8,14.9-2.7,22.3c-0.5,3.2-0.9,6.5-1.4,9.8c-3,1.8-6.1,3.6-10.7,6.4c0,0.1-0.1,0.1-0.1,0.2c4.7-2.8,7.8-4.6,10.9-6.5
			c-0.4,3.4-0.7,6.9-1.1,10.3c-0.2,1.4-0.3,2.8-0.3,4.2c-1.4,5-2.7,10.1-4.1,15.1c0,0-0.1,0-0.1,0c0.2,0.4,0.3,0.8,0.4,1.2
			c1.5,2,3.2,4,4.7,6c1.4,1.8,2.8,3.8,4.3,5.6c-0.5,0.4-0.9,0.8-1.3,1.2c-0.8,0.2-1.6,0.3-2.4,0.5c-0.4-0.2-0.9-0.4-1.3-0.5
			c-0.3,0.6-0.4,1.1-0.6,1.8c-2.8,0.5-5.5,1.1-8.2,1.5h-2.9c-0.6-0.1-1.3-0.1-1.9-0.2c-0.4-0.5-0.6-1-0.9-1.5
			c0.1-1.9,0.3-3.8,0.5-5.7c0.5-3.4,1.2-6.8,1.8-10.2c0.3,0,0.6,0.1,1,0.2c-0.3-0.1-0.6-0.1-1-0.2c-2.7-1.5-5.5-3-8.2-4.5
			c0.8-3.2,1.7-6.5,2.5-9.7c0.2-0.6,0.5-1.4,0.5-1.9c-1.4-9.2-2.7-18.4-4.1-27.6c-0.1-1.5-0.2-2.9-0.3-4.4c0-0.5,0.1-1.1,0.1-1.5
			c0,0-0.1,0-0.1,0c0,0.5-0.1,0.9-0.2,1.4c-0.3-0.5-0.6-1-1-1.5c0,0,0.1,0,0.1,0v-7.2c0.7-1.2,1.4-2.2,2.2-3.3V160c0,0,0,0,0,0
			c0,0,0,0,0,0c-0.3-1.9-0.6-3.9-1-5.8c0,0,0,0,0,0c-0.4-3-0.9-5.9-1.3-8.9c-0.9-7.3-1.7-14.5-2.5-21.8c-0.1-2.4-0.3-4.8-0.4-7.3
			c1.8,2.9,3.5,5.8,5.3,8.7c1.5,2.4,3.2,4.7,5.5,8.5c0-0.1,0-0.2,0-0.2c-2.4-3.6-4-6.1-5.5-8.5c-1.7-2.9-3.5-5.8-5.3-8.7
			c-0.4-0.4-0.7-0.9-1.1-1.3c0.2-0.4,0.4-0.8,0.5-1.2c0.2-0.7,0.3-1.5,0.3-2.2c0-1.4-0.5-2.6-1.4-3.5c-0.3-0.3-0.7-0.6-1-0.8
			c-0.6-1.6-2-2.9-4.2-3c-0.9,0-1.7,0-2.6,0.1c-2-2.6-4.4-4-8.2-2.5c0.2-2-0.8-4.7,0.6-6c-1.5,1.3-0.5,4-0.7,6.1l-1.7,4.8
			c-1.5,0.7-3,1.5-4.4,2.6c-2.2,1.6-4.2,3.5-5.8,5.8c-1.6,2.3-1.8,5.3-3.2,7.5c-1.3,2-1.6,0.3-3.3,0.8
			C282.9,122.7,283,122.3,282.9,122.4z M365.7,22.5c-1.8-0.6-1.6-4.5-3.2-5.6C363.9,18.1,363.9,21.9,365.7,22.5z M359.2,34
			c0.4-1.3,1-2.7,1.4-4c0,0-0.1,0-0.1,0C360.1,31.4,359.6,32.7,359.2,34C359.2,34,359.2,34,359.2,34z M378.1,67
			c1.1,0.4,2.1,0.7,3.2,1.1V68l0,0C380.2,67.6,379.2,67.3,378.1,67L378.1,67z M327.8,149.3c0.1,0.7,0.3,1.3,0.5,1.9
			C328.1,150.6,327.9,149.9,327.8,149.3z M320.7,75.2C320.7,75.2,320.7,75.2,320.7,75.2c2.1-0.4,4.1-0.9,6.2-1.4c0,0,0,0,0,0
			C324.8,74.2,322.7,74.7,320.7,75.2z M353.9,43.3C353.9,43.4,353.9,43.4,353.9,43.3c1,1.3,1.8,2.7,2.8,4l0,0
			C355.8,46,354.9,44.7,353.9,43.3z M377.7,88.1c-1.2,1.7-2.5,3.6-4,5.5C375.2,91.8,376.6,89.8,377.7,88.1z M370.8,92.8
			c0.9,0.4,2.4,1.4,2.6,1.1c0,0,0-0.1,0.1-0.1c-0.3,0.3-1.7-0.7-2.6-1.1C370.9,92.8,370.9,92.8,370.8,92.8c-2.4-1-5-1.8-7.5-2.8
			c0,0,0,0-0.1,0C365.8,91,368.3,91.9,370.8,92.8z M357.5,102.9C357.5,102.9,357.5,103,357.5,102.9c6.6-1.1,7.7-3.7,5.7-12.9
			c-0.3,0.1-0.5,0.1-0.8,0.2C364.3,98.9,363.2,101.5,357.5,102.9C357.5,102.9,357.5,102.9,357.5,102.9z M359.2,53.7
			c-0.4-1.5-0.7-3.1-1.1-4.6l-0.1-0.3c0,0,0,0,0,0l0,0.1c0.4,1.5,0.7,3.1,1.1,4.6c-2.3,1.6-4.4,3.2-6.6,4.8c-0.1-0.2,0-0.4,0.1-0.6
			c-0.2,0.2-0.3,0.4-0.2,0.7c-0.9,0.1-1.8,0.3-2.8,0.5c0,0,0,0,0,0c0,0,0,0,0,0c0,0,0,0-0.1,0c0.1,0,0.1,0.1,0.2,0.1
			c0.9-0.1,1.9-0.3,2.9-0.5C354.8,57,357.1,55.4,359.2,53.7z M352.8,57.6c-1.3,0.1-2.6,0.2-3.9,0.2c0,0,0,0.1,0.1,0.1
			c1.2-0.1,2.5-0.2,3.7-0.2C352.7,57.7,352.8,57.6,352.8,57.6z M350.4,73.5c0.1,0,0.1,0,0.2,0.1c0.2-0.4,0.3-0.8,0.5-1.2
			c-0.9-0.5-2-1-3-1.5c1,0.5,1.9,1,2.8,1.5C350.6,72.8,350.6,73.1,350.4,73.5z M333.4,66.6C333.4,66.6,333.4,66.6,333.4,66.6
			c0.1-1,0.2-2.1,0.2-3.1c2.2-0.5,4.3-1,6.4-1.5c2.2-1.5,4.3-2.9,6.5-4.4c0.4,0.1,0.8,0.2,1.2,0.2c0.7,0.4,1.3,0.7,1.9,1.1
			c0,0,0,0,0-0.1c-0.7-0.4-1.3-0.7-1.9-1.1c1.2-0.9,2.3-2.2,3.5-2.6c-1.3,0.4-2.4,1.6-3.5,2.6c-0.4-0.1-0.8-0.1-1.2-0.2v0
			c-2.2,1.4-4.3,2.9-6.5,4.3c0,0,0,0.1,0,0.1c-2.2,0.5-4.3,1-6.4,1.5c2.6-3.7,5.2-7.5,7.8-11.1c0.3,0.2,0.6,0.3,1,0.5
			c0,0,0-0.1,0-0.1c-0.3-0.2-0.6-0.3-1-0.5c-2.6,3.7-5.2,7.5-7.8,11.1C333.4,64.5,333.4,65.5,333.4,66.6c-3-0.1-6-0.1-8.8-0.1
			c0,0,0,0,0,0C327.5,66.5,330.4,66.6,333.4,66.6z M349,113.4c1.2-0.8,2.1-2.3,3-3.7C351.1,111,350.2,112.4,349,113.4
			c-2.2,1.5-5,2.4-7.5,3.7c0,0,0,0,0,0C344,115.9,346.7,115,349,113.4z M340.7,177.6c0.6-0.5,1.3-0.9,1.8-1.4
			c-1.8-3.2-3.7-6.3-5.5-9.4c1.8,3.2,3.6,6.3,5.5,9.4C341.9,176.7,341.2,177.1,340.7,177.6c-1.4-2.2-2.8-4.6-4.3-6.6
			C337.9,173.2,339.2,175.4,340.7,177.6z M333.9,161.2C333.9,161.3,333.9,161.3,333.9,161.2C333.9,161.3,333.9,161.3,333.9,161.2
			c-0.9-1.7-1.3-3.8-1.8-5.7c2.3,2.2,4.3,4.7,6.7,6.7c2.2,1.9,4.6,3.5,6.8,1.9c-2.1,1.4-4.5-0.1-6.7-1.9c-2.4-1.9-4.5-4.5-6.7-6.7
			c0.4-1,0.9-1.9,1.3-2.9c0,0,0,0,0,0c-0.4,1-1,1.9-1.4,2.9C332.6,157.5,333,159.6,333.9,161.2z M313,95.9c3.1,3.4,6.3,6.8,9.4,10.3
			c3.3,3.9,6.2,8.1,9.5,11.8c5.6,6.2,7.6,6.3,14.8,1.7c0,0,0,0,0,0c-7.1,4.4-9.1,4.2-14.7-1.8c-3.3-3.7-6.2-7.9-9.5-11.8
			c-3-3.7-6.3-7-9.5-10.5C312.9,95.7,312.9,95.8,313,95.9z"/>
		<path class="st3" d="M364.8,25.9C364.8,25.9,364.8,25.9,364.8,25.9c-0.4,0-0.8,0.1-1.1,0.1C364,26,364.4,26,364.8,25.9z"/>
		<path class="st3" d="M347.6,72.2C347.6,72.2,347.6,72.2,347.6,72.2c-4.7,0.1-9.5,0.2-14.2,0.3c0,0,0,0,0,0
			C338.1,72.4,342.9,72.3,347.6,72.2z"/>
		<path class="st3" d="M328.3,122.2C328.3,122.2,328.3,122.2,328.3,122.2c0.3,1.8,0.5,3.7,0.8,5.9
			C328.8,125.9,328.6,124,328.3,122.2z"/>
		<path class="st3" d="M322,182.1c0.1-1.1,0.9-2,1.4-3c1.4,9.2,2.7,18.4,4.1,27.7c0.1,0.6-0.3,1.3-0.5,1.9c-0.8,3.2-1.7,6.5-2.5,9.7
			c-6.5-0.7-4-6-4-10.1C320.9,199.5,321.3,190.8,322,182.1z"/>
	</g>
	<g>
		<path class="st3" d="M301.5,102.5c3.3-1.3,5.6-0.3,7.4,1.7c-3,0.2-6,0.9-8.8,2.1C300.6,105,301.1,103.7,301.5,102.5z"/>
		<path class="st3" d="M366.4,14.1c0.3,0.8,0.5,1.5,0.7,2c0.9,2.9,0.9,5.8,0.8,8.8c-0.6-0.6-1.3-1.2-2-1.8
			C365.9,20,365.7,16.9,366.4,14.1z"/>
		<path class="st3" d="M363.7,11.7c-1.8,0.4-3.5,0.8-5.2,1.2c-0.1-1-0.3-1.9-0.3-2.9c-0.1-1.5,0.1-2.5,0.7-3.6
			c0.7-0.2,1.4-0.5,2.1-0.7C361.7,7.2,362.3,8.8,363.7,11.7z"/>
		<path class="st3" d="M282.9,122.4c1.2-4.3,4.3-8.3,6.8-11.9c4.7-6.8,8.6-14.7,13.6-21.3c0.3,2.1,0.7,4.1,1,6.2c0,0,0.1,0,0.1,0
			c-0.4-2.1-0.7-4.2-1.1-6.3c1.1-1.5,2.3-2.8,3.5-4.1c3.2-3.3,7.7-3.7,9.8-7.8c-0.6,3.6-1.2,7.2-2,11.2c0,0,0.1,0,0.1,0.1
			c0.8-4.2,1.4-7.9,2-11.6c0.3-0.5,0.5-1.1,0.6-1.8c0.7-2.6,0.2-5.4,0.2-8.1c-0.1-3.8,0.7-6.9,2-10.4c0.6-1.6,0.4-3-0.3-4
			c8.1-9.8,17.7-16.5,29.6-18.7c0,0,0,0-0.1,0c-0.6-5.8-1.1-11.6,0.6-17c0,0.6,0.1,1.2,0.1,1.7c0.1,2.7,1.9,4.3,3.8,4.7
			c-0.7,0.8-1.3,1.7-2,2.5c1.6,1.5,3.1,3.4,4.9,4.5c0,0,0.1,0.1,0.2,0.1c-1.8-1.1-3.2-2.9-4.9-4.4c0.7-0.9,1.3-1.7,2-2.6
			c2.7,0.5,5.6-1.1,5.5-4.7c0,0,0.1,0,0.1,0c0,0,0,0,0,0c0,0-0.1,0-0.1,0c-0.1-1.8-0.4-3.5-0.7-5.2c1.9-0.4,4-0.9,6.1-1.4
			c-1.2-2.6-1.9-4.2-2.5-5.6c1.7,1.9,3.2,5.2,4.1,7.7c-0.8,2.9-0.6,6.1-0.5,9.2h0c0.7,0.6,1.4,1.3,2,1.9c0,3.1,0,6.3,1.1,9.3
			c0.6,1.7,1.4,3.3,2.2,4.9c-1.3-0.6-2.7-1.3-4-1.9l-0.4-0.1c-3.8,0.7-7.6,1.4-11.4,2c-4.8,0.9-7.7,3.6-7.5,7.4c0,0,0.1,0,0.1,0
			c-0.1-3.7,2.8-6.5,7.5-7.3l11.4-2l0.4,0.1c0,0,0,0,0,0c1.3,0.7,2.7,1.3,4,2c0.4,0.9,0.9,1.7,1.4,2.6c-0.8,1.1-1.7,2.2-2.6,3.5
			c0,0,0,0,0,0c0.9-1.2,1.7-2.3,2.6-3.4c1.4,2.6,2.9,5.1,4.3,7.7c0.2,0.5,0.5,0.9,0.7,1.4c-1.5,1.2-2,3.9-0.9,8.8
			c0,0.1,0.1,0.1,0.1,0.2c-1.1-5-0.7-7.7,0.8-8.9c2.3,4.6,3.7,9.5,3.7,14.8c0,0.8,0,1.7-0.1,2.5c-1-0.4-2-0.6-3-1v0.1
			c1,0.4,2,0.7,3,1c-0.4,6.2-1.9,12.2-2.7,18.4c-0.1,0.4-0.1,0.9-0.2,1.5c-0.1-0.1-0.1-0.2-0.2-0.3c0,0-0.1,0.1-0.1,0.1
			c0.1,0.1,0.2,0.3,0.3,0.4c-0.4,4-0.9,9.9-4.2,11.7c-2.2,1.2-5.6,0.1-8.1,1.3c-0.8,0.4-4.6,4-5.3,3.6c-3.4-1.9-6.6,0.8-7.1,3.9
			c-0.2-0.2-0.3-0.4-0.5-0.6c-8.2-10.9-16.5-22-24.9-32.9c0,0,0,0-0.1,0c0,0,0,0,0,0c8.2,10.9,16.6,22,24.9,32.9
			c0,0-0.1,0.1-0.1,0.1c0.2,0.2,0.4,0.4,0.6,0.7c-0.2,1.4,0.3,2.9,1.5,3.9c0,0.7,0.1,1.3,0.1,2c-0.1,0.4-0.1,0.9,0,1.3
			c-1.3,2.4-2.6,4.8-3.9,7.3c-0.8,5.4-2.4,10.8-2.4,16.3c-0.1,6.8,1,13.7,1.5,20.4c-0.1,0.5-0.2,1-0.3,1.5
			c-0.9,7.5-1.8,14.9-2.7,22.3c-0.5,3.2-0.9,6.5-1.4,9.8c-3,1.8-6.1,3.6-10.7,6.4c0,0.1-0.1,0.1-0.1,0.2c4.7-2.8,7.8-4.6,10.9-6.5
			c-0.4,3.4-0.7,6.9-1.1,10.3c-0.2,1.4-0.3,2.8-0.3,4.2c-1.4,5-2.7,10.1-4.1,15.1c0,0-0.1,0-0.1,0c0.2,0.4,0.3,0.8,0.4,1.2
			c1.5,2,3.2,4,4.7,6c1.4,1.8,2.8,3.8,4.3,5.6c-0.5,0.4-0.9,0.8-1.3,1.2c-0.8,0.2-1.6,0.3-2.4,0.5c-0.4-0.2-0.9-0.4-1.3-0.5
			c-0.3,0.6-0.4,1.1-0.6,1.8c-2.8,0.5-5.5,1.1-8.2,1.5h-2.9c-0.6-0.1-1.3-0.1-1.9-0.2c-0.4-0.5-0.6-1-0.9-1.5
			c0.1-1.9,0.3-3.8,0.5-5.7c0.5-3.4,1.2-6.8,1.8-10.2c0.3,0,0.6,0.1,1,0.2c-0.3-0.1-0.6-0.1-1-0.2c-2.7-1.5-5.5-3-8.2-4.5
			c0.8-3.2,1.7-6.5,2.5-9.7c0.2-0.6,0.5-1.4,0.5-1.9c-1.4-9.2-2.7-18.4-4.1-27.6c-0.1-1.5-0.2-2.9-0.3-4.4c0-0.5,0.1-1.1,0.1-1.5
			c0,0-0.1,0-0.1,0c0,0.5-0.1,0.9-0.2,1.4c-0.3-0.5-0.6-1-1-1.5c0,0,0.1,0,0.1,0v-7.2c0.7-1.2,1.4-2.2,2.2-3.3v-2.6c0,0,0,0,0,0
			c0,0,0,0,0,0c-0.3-1.9-0.6-3.9-1-5.8c0,0,0,0,0,0c-0.4-3-0.9-5.9-1.3-8.9c-0.9-7.3-1.7-14.5-2.5-21.8c-0.1-2.4-0.3-4.8-0.4-7.3
			c1.8,2.9,3.5,5.8,5.3,8.7c1.5,2.4,3.2,4.7,5.5,8.5c0-0.1,0-0.2,0-0.2c-2.4-3.6-4-6.1-5.5-8.5c-1.7-2.9-3.5-5.8-5.3-8.7
			c-0.5-0.6-1-1.1-1.5-1.7c0.3-0.5,0.5-1,0.6-1.5c0.2-0.7,0.3-1.5,0.3-2.2c0-1.4-0.5-2.6-1.4-3.5c-0.3-0.3-0.7-0.6-1-0.8
			c-0.6-1.6-2-2.9-4.2-3c-1,0-2,0-2.9,0.1c-1.9-2.1-4.2-3.2-7.6-1.8c0.2-2-0.8-4.7,0.6-6c-1.5,1.3-0.5,4-0.7,6.1
			c-0.5,1.3-0.9,2.6-1.4,3.9c-1.7,0.7-3.4,1.6-5,2.8c-2.2,1.6-4.2,3.5-5.8,5.8c-1.6,2.3-1.8,5.3-3.2,7.5c-1.3,2-1.6,0.3-3.3,0.8
			C282.9,122.7,283,122.3,282.9,122.4z M365.9,23.2c-1.8-0.6-1.6-4.5-3.2-5.6C364.1,18.8,364.1,22.6,365.9,23.2z M359.4,34.8
			c0.4-1.3,1-2.7,1.4-4c0,0-0.1,0-0.1,0C360.3,32.1,359.8,33.4,359.4,34.8C359.4,34.7,359.4,34.8,359.4,34.8z M328,150
			c0.1,0.7,0.3,1.3,0.5,1.9C328.3,151.3,328.1,150.6,328,150z M320.9,75.9C320.9,75.9,320.9,75.9,320.9,75.9
			c2.1-0.4,4.1-0.9,6.2-1.4c0,0,0,0,0,0C325,74.9,322.9,75.4,320.9,75.9z M354.1,44.1C354.1,44.1,354.1,44.1,354.1,44.1
			c1,1.3,1.8,2.7,2.8,4l0,0C356,46.7,355.1,45.4,354.1,44.1z M377.9,88.8c-1.2,1.7-2.5,3.6-4,5.5C375.4,92.5,376.8,90.5,377.9,88.8z
			 M371,93.6c0.9,0.4,2.4,1.4,2.6,1.1c0,0,0-0.1,0.1-0.1c-0.3,0.3-1.7-0.7-2.6-1.1C371.1,93.5,371.1,93.5,371,93.6
			c-2.4-1-5-1.8-7.5-2.8c0,0,0,0-0.1,0C366,91.7,368.5,92.6,371,93.6z M357.7,103.6C357.7,103.7,357.7,103.7,357.7,103.6
			c6.6-1.1,7.7-3.7,5.7-12.9c-0.3,0.1-0.5,0.1-0.8,0.2C364.5,99.6,363.4,102.2,357.7,103.6C357.7,103.6,357.7,103.6,357.7,103.6z
			 M359.4,54.4c-0.4-1.5-0.7-3.1-1.1-4.6l-0.1-0.3c0,0,0,0,0,0l0,0.1c0.4,1.5,0.7,3.1,1.1,4.6c-2.3,1.6-4.4,3.2-6.6,4.8
			c-0.1-0.2,0-0.4,0.1-0.6c-0.2,0.2-0.3,0.4-0.2,0.7c-0.9,0.1-1.8,0.3-2.8,0.5c0,0,0,0,0,0c0,0,0,0,0,0c0,0,0,0-0.1,0
			c0.1,0,0.1,0.1,0.2,0.1c0.9-0.1,1.9-0.3,2.9-0.5C355,57.7,357.3,56.1,359.4,54.4z M353,58.3c-1.3,0.1-2.6,0.2-3.9,0.2
			c0,0,0,0.1,0.1,0.1c1.2-0.1,2.5-0.2,3.7-0.2C352.9,58.4,353,58.3,353,58.3z M350.6,74.2c0.1,0,0.1,0,0.2,0.1
			c0.2-0.4,0.3-0.8,0.5-1.2c-0.9-0.5-2-1-3-1.5c1,0.5,1.9,1,2.8,1.5C350.9,73.5,350.8,73.8,350.6,74.2z M333.6,67.3
			C333.6,67.3,333.6,67.3,333.6,67.3c0.1-1,0.2-2.1,0.2-3.1c2.2-0.5,4.3-1,6.4-1.5c2.2-1.5,4.3-2.9,6.5-4.4c0.4,0.1,0.8,0.2,1.2,0.2
			c0.7,0.4,1.3,0.7,1.9,1.1c0,0,0,0,0-0.1c-0.7-0.4-1.3-0.7-1.9-1.1c1.2-0.9,2.3-2.2,3.5-2.6c-1.3,0.4-2.4,1.6-3.5,2.6
			c-0.4-0.1-0.8-0.1-1.2-0.2v0c-2.2,1.4-4.3,2.9-6.5,4.3c0,0,0,0.1,0,0.1c-2.2,0.5-4.3,1-6.4,1.5c2.6-3.7,5.2-7.5,7.8-11.1
			c0.3,0.2,0.6,0.3,1,0.5c0,0,0-0.1,0-0.1c-0.3-0.2-0.6-0.3-1-0.5c-2.6,3.7-5.2,7.5-7.8,11.1C333.6,65.2,333.6,66.2,333.6,67.3
			c-3-0.1-6-0.1-8.8-0.1c0,0,0,0,0,0C327.7,67.2,330.6,67.3,333.6,67.3z M349.2,114.1c1.2-0.8,2.1-2.3,3-3.7
			C351.3,111.7,350.4,113.1,349.2,114.1c-2.2,1.5-5,2.4-7.5,3.7c0,0,0,0,0,0C344.2,116.6,346.9,115.7,349.2,114.1z M340.9,178.3
			c0.6-0.5,1.3-0.9,1.8-1.4c-1.8-3.2-3.7-6.3-5.5-9.4c1.8,3.2,3.6,6.3,5.5,9.4C342.1,177.4,341.4,177.8,340.9,178.3
			c-1.4-2.2-2.8-4.6-4.3-6.6C338.1,173.9,339.4,176.1,340.9,178.3z M334.1,161.9C334.1,162,334.1,162,334.1,161.9
			C334.1,162,334.1,162,334.1,161.9c-0.9-1.7-1.3-3.8-1.8-5.7c2.3,2.2,4.3,4.7,6.7,6.7c2.2,1.9,4.6,3.5,6.8,1.9
			c-2.1,1.4-4.5-0.1-6.7-1.9c-2.4-1.9-4.5-4.5-6.7-6.7c0.4-1,0.9-1.9,1.3-2.9c0,0,0,0,0,0c-0.4,1-1,1.9-1.4,2.9
			C332.8,158.2,333.2,160.3,334.1,161.9z M313.2,96.6c3.1,3.4,6.3,6.8,9.4,10.3c3.3,3.9,6.2,8.1,9.5,11.8c5.6,6.2,7.6,6.3,14.8,1.7
			c0,0,0,0,0,0c-7.1,4.4-9.1,4.2-14.7-1.8c-3.3-3.7-6.2-7.9-9.5-11.8c-3-3.7-6.3-7-9.5-10.5C313.1,96.5,313.1,96.5,313.2,96.6z"/>
		<path class="st3" d="M365,26.6C365,26.6,365,26.6,365,26.6c-0.4,0-0.8,0.1-1.1,0.1C364.2,26.7,364.6,26.7,365,26.6z"/>
		<path class="st3" d="M347.8,72.9C347.8,72.9,347.8,72.9,347.8,72.9c-4.7,0.1-9.5,0.2-14.2,0.3c0,0,0,0,0,0
			C338.3,73.1,343.1,73,347.8,72.9z"/>
		<path class="st3" d="M328.5,122.9C328.5,122.9,328.5,122.9,328.5,122.9c0.3,1.8,0.5,3.7,0.8,5.9
			C329,126.6,328.8,124.7,328.5,122.9z"/>
		<path class="st3" d="M322.2,182.8c0.1-1.1,0.9-2,1.4-3c1.4,9.2,2.7,18.4,4.1,27.7c0.1,0.6-0.3,1.3-0.5,1.9
			c-0.8,3.2-1.7,6.5-2.5,9.7c-6.5-0.7-4-6-4-10.1C321.1,200.2,321.5,191.5,322.2,182.8z"/>
	</g>
	<g>
		<path class="st2" d="M499.6,35.2c-3.1,3.3-6.1,6.6-9.2,9.9c0,0,0,0,0-0.1c-1.4,1.4-2.8,2.8-4.2,4.2c-2.2-1.8-4.2-3.9-6.5-5.5
			c-1.1-0.8-3.3-0.6-3.8-1.5c-4.5-7.8-6.2-16.1-3.3-24.9c0,0,0-0.1,0-0.1c0.2-0.9,0.4-1.7,0.6-2.6c3.5-2.5,6.7-6.6,10.5-7.2
			c14.3-2.2,21.2,8.4,15.9,23.1C499.6,32.1,499.6,33.6,499.6,35.2z M478.4,14.7c1.1,2.4,2.1,4.5,3.1,6.7c-1.1,2.3-2.2,4.7-3.4,7.3
			c3.4,2,6.3,3.9,8.9,5.4c0,0,0,0,0,0c-2.6-1.5-5.6-3.4-8.8-5.4c1.2-2.6,2.3-4.9,3.4-7.3c0,0-0.1,0-0.1,0
			C480.5,19.2,479.5,17.1,478.4,14.7z"/>
		<path class="st2" d="M510.3,129.3c1.5-5.8,3-11.6,4.5-17.4c0.4,0.1,0.8,0.2,1.4,0.2c-0.8,4.8-1.5,9.5-2.2,14.3
			C512.8,127.4,511.6,128.4,510.3,129.3z"/>
		<path class="st2" d="M441,145.7c0.4-1,1-1.8,1.4-2.8c0.5,0,1,0,1.5-0.1c0,0,0-0.1,0-0.1l0.1-0.1c0.4-0.5,1-0.9,1.4-1.4
			c0,0.1,0.1-0.1,0.1-0.1c0.4-0.4,1-0.8,1.4-1.2l0.3-0.2c0.4-0.3,0.7-0.7,1.2-1l0.4-0.5l1.3-1.2c3-2.1,6-4.1,9-6.3
			c-3.4-4.5,0.6-7,3.2-9.4c4.4-4.2,9.1-8.1,7.5-15c0,0,0.1,0,0.1,0c0.3-2.5,0.6-5,0.9-7.4c0-0.1,0-0.1,0-0.2
			c-8.3-3.3-12.2-9.4-11.7-18.5c0-0.2,0.1-0.5,0.1-0.7c-8.2-5.5-7.9-8.4,1.3-14.1c0.7,2.9,1.1,6,2.3,8.6c1.3,2.6,3.6,4.8,5.5,7.2
			c-0.6,1.5-1.2,3-1.8,4.4c0,0,0,0,0,0c0.6-1.4,1.1-3,1.8-4.4c1.4-1.3,2.8-2.5,4.2-3.8c-1.2,1-2.4,2-3.5,3c-1.9-2.2-4.2-4.3-5.5-6.7
			c-1.3-2.4-1.6-5.3-2.3-8c5,2.2,12.2,0.5,15.3,6.3c2.2-4.3,4.5-8.5,6.7-12.8c1.1-3.5,2.1-6.9,3.3-10.3c1.4-1.5,2.9-2.8,4.2-4.3
			c3.1-3.3,6.1-6.6,9.2-9.9c4.6-1,5.1,1.9,5.1,5.1c-0.5,0-0.9,0-1.4,0c0.4,0,0.9,0,1.4,0c6.9,1.9,11.6,6.2,13.9,12.8
			c1.5,4,2.3,8.2,3.5,12.3c-3.4,5.4-6,11.5-10.2,16.2c-2.8,3.2-7.9,4.7-11.9,6.9c0,0,0,0.1,0.1,0.1c4.1-2.2,9.1-3.8,11.9-7
			c4.2-4.7,6.9-10.7,10.2-16.2c3.7,13.7,1.5,26.1-8.7,36.8c0,0-0.1,0-0.1,0c-0.2,1.1-0.5,2.3-0.8,3.4c0,0,0.1,0,0.1,0
			c0.6,0.7,1.4,1.4,2,2v4.2c-1.5,5.8-3,11.7-4.5,17.5c-0.5,0.4-1,0.7-1.4,1c-3.6-1.2-7.2-2.5-10.9-3.7c-0.3-0.5-0.5-0.9-0.8-1.4
			c0.3,0.5,0.5,1,0.8,1.5h-0.1c3.6,1.2,7.2,2.5,10.8,3.7c-7,4.9-15.1,8.5-22.9,11.8c-1.1,0.5-2.2,1-3.4,1.5
			c-8.9,1.1-17.7,2.2-26.6,3.3v0.1c8.8-1.1,17.6-2.2,26.3-3.3c-3.6,1.6-7.2,3.7-9.3,7.1c-0.2,0.3-0.3,0.5-0.5,0.8
			c-3.4,0.3-6.8,0.7-10.2,1.1c0,0,0,0,0,0c3.4-0.3,6.7-0.7,10.1-1.1c-0.5,1.2-1.1,3-1,5.1c0.2,3.3,2,5.7,3.8,8
			c8.2,10.6,8.3,10.7,8.9,11.6c2,2.9,4.3,7.3,5.4,14.1c-0.1,2.4-0.2,4.8-0.3,7.3c0,0.1,0,0.1-0.1,0.2c0,0.1,0,0.1-0.1,0.2
			c0,0,0,0,0,0.1c0-0.1,0.1-0.2,0.1-0.3c0,0.2,0,0.4,0,0.6c0-0.1,0-0.1,0-0.2c0,0-0.1-0.1-0.1-0.1c0.1,5.1,0.2,10.1,0.2,15.2
			c-0.5,1.7-2,3-3.7,3.3c-2.5,0.4-4.1-1.5-4.2-1.6c-0.3-0.9-0.6-1.8-0.9-2.7c-0.3-0.9-0.6-1.8-0.8-2.7h-1.1c-0.7-4.1-1.4-8-2-12.1
			c-2.9-1.3-6.5-1.8-8.4-4.2c-5.9-7-11.1-14.6-16.5-21.9c0,0,0,0,0,0c-3.1-4.4-6.1-8.7-9-13c0-1,0.1-1.9,0.1-2.9h-0.2
			C441.9,152.5,441.5,149.1,441,145.7z M446.5,148.8c2,2.3,5,2.7,9.2,1.3V150C451.6,151.3,448.6,150.9,446.5,148.8z M471.4,125.9
			c-0.4-2.4-0.6-3.9-0.8-5.3c0,0,0,0,0,0C470.8,122,471,123.5,471.4,125.9c7.2-2.1,14.5-4.4,22.5-6.9c0.7,1.2,1.3,2.4,1.9,3.6
			c-0.6-1.2-1.2-2.4-1.9-3.6C485.9,121.4,478.6,123.7,471.4,125.9z M493.2,97.7c-6.1,0.5-12.2,1-18.3,1.6
			C481,98.8,487.1,98.3,493.2,97.7z M475.2,75.4c0,0-0.1,0.1-0.1,0.1c6.2,1.1,12.3,2.1,18.3,3.2c0.6,0.5,1.3,0.9,1.8,1.4
			c-0.6-0.5-1.2-1-1.8-1.5C487.4,77.5,481.2,76.4,475.2,75.4z M490.5,50.3c1.1,1.5,2.9,3.1,3,4.6c0,2-0.7,4.1-1.3,6.1
			c0.6-2.1,1.4-4.1,1.3-6.1C493.5,53.4,491.6,51.8,490.5,50.3z M491,69.3c0.4-2.3,0.9-4.5,1.3-6.8c-0.2,0-0.4,0-0.5,0
			c-0.4,2.4-1,4.8-1.4,7.3c0,0,0,0.1,0,0.1c2.3-0.4,4.6-0.7,7-1.1c0.1-0.2,0.1-0.3,0.2-0.5C495.4,68.7,493.2,69.1,491,69.3z
			 M498.7,59.4c-0.2,0.3,0.2,0.8,0.4,1.2C499,60.1,498.6,59.7,498.7,59.4z M500.3,59.9c0.2-0.3-0.2-0.8-0.4-1.2
			C500,59.2,500.4,59.7,500.3,59.9z M501.2,94.4c-8.9,1.4-18-1.6-26.6,1.7c0,0.4,0.1,0.8,0.2,1.3c0-0.4-0.1-0.8-0.1-1.2
			C483.2,92.8,492.4,95.7,501.2,94.4c0,0.9,0.1,1.8,0.2,2.6c0,0,0,0,0,0C501.4,96.1,501.3,95.2,501.2,94.4z M506.1,105.3
			c-3-0.2-6.1-0.4-9.2-0.6c0,0,0,0,0,0C500,105,503,105.1,506.1,105.3z M496.6,126.8c-10.7-2.8-20.6,0.4-30.3,4.3c0,0,0.1,0,0.1,0
			c0,0,0,0,0,0C476.1,127.1,485.9,124.1,496.6,126.8z M467.9,133.9c-2.4,1.4-4.9,2.9-7.5,4.3c-3.1,1.9-6,3.9-9.1,5.8
			c-1,1.1-1.9,2-4.1,4.5c0,0,0.1,0,0.1,0c2.1-2.4,3.1-3.4,4-4.4c3.1-1.9,6-3.9,9.1-5.8C462.8,136.9,465.4,135.5,467.9,133.9
			L467.9,133.9z M467.5,143c-4.4,0.6-9,0.7-13.6,1C458.4,143.8,463,143.7,467.5,143z M483.7,211.6c-0.2-0.8-0.1-1.8,0.6-3.2
			c0,0,0,0-0.1,0C483.5,209.8,483.4,210.8,483.7,211.6z M444,155.9c3.4,2,6.9,4,10.4,6c1.1,0.9,2.1,1.8,3.2,2.7c0,0,0.1,0,0.1,0.1
			c3.2,0.8,8.7-2.6,8.6,4.3c0,0,0.1,0,0.1,0.1c6.1,4.2,12.3,8.4,18.1,12.3c0.1,0,0.1,0,0.2,0c-5.8-4-12.1-8.2-18.4-12.5
			c0.1-7.2-5.6-3.5-8.9-4.4c-1.1-0.9-2.1-1.8-3.2-2.7C450.9,159.7,447.5,157.8,444,155.9c0-0.1-0.1,0-0.2,0H444z"/>
		<path class="st2" d="M483.7,193.3c-0.3,0.2-0.5,0.3-0.8,0.5C483.2,193.7,483.4,193.5,483.7,193.3z"/>
	</g>
	<path class="st2" d="M282.1,122.2C282.2,122.2,282.2,122.2,282.1,122.2c1.7-3.4,3.4-6.6,5.1-9.9c0.4-1.6,0.8-3,1.3-4.5
		c1.4-0.8,2.8-1.6,4.1-2.3c-1.3,0.7-2.7,1.6-4.1,2.3c0.8-2.9,1.6-5.8,2.4-8.7c2.5-4.4,5.1-8.8,7.7-13.2c1.3-0.6,2.5-1.1,3.8-1.7
		c0.6,3.6,1.2,7.1,1.8,10.8c0,0,0.1,0,0.1,0c-0.6-3.6-1.2-7.2-1.8-10.9c0.9-1.9,1.8-3.8,2.7-5.7c0.8-0.4,1.7-0.9,2.5-1.4
		c1.7,0,3.4-0.1,5.1-0.1c0,0,0,0,0,0c0.9-0.5,1.8-1,2.8-1.5c0.4,0,0.8,0,1.2,0.1c-0.7,4-1.4,7.9-2.2,12.4c0,0,0.1,0,0.1,0.1
		c0.8-4.5,1.5-8.5,2.2-12.4c0,0,0.1,0,0.1,0c-0.4-0.1-0.8-0.1-1.2-0.1c-0.1-1.2-0.1-2.2-0.2-3.3c-0.7-1.9-1.5-3.8-2.3-5.6
		c-0.2-0.5-0.2-0.9-0.2-1.4c0.4-1.6,0.6-3,1-4.6c0.5-0.9,1.1-1.8,1.6-2.8c0.3-0.4,0.6-0.9,1-1.4c0.1-0.6,0.2-1.1,0.3-1.6
		c0.3-0.5,0.6-1,1-1.5c8.3-10.6,18.3-17.9,30.9-20.2c0,0,0,0-0.1,0c-0.8-8.3-1.5-16.4,3.8-23.4c0,0,0,0,0,0c0,0,0,0,0,0
		c0.1-0.7,0.1-1.4,0.2-2c2.6-0.9,5.3-1.8,7.9-2.7c0.7,1.6,1.4,3.1,2.7,6c-3.8,0.9-7.2,1.6-10.5,2.4c0,0.1,0,0.2-0.1,0.3
		c0,0,0.1,0.1,0.1,0.1c3.6-0.9,7.2-1.6,11.4-2.6c-1.3-2.9-2-4.5-2.7-6c2.5,0.9,5.2,1.7,7.8,2.6c0,0,0.1-0.1,0.1-0.1
		c6.2,6.2,6.9,10.4,3.4,19.2c0,0,0,0,0,0c-0.5,1.7-1,3.4-0.9,3.1c2.4,4.8,4,8.1,5.6,11.4c-1.5-0.5-2.8-1-4.3-1.5
		c-2.2-1-4.4-2-6.5-3.1l-0.4-0.1c-3.8,0.7-7.6,1.4-11.4,2c-4.8,0.9-7.7,3.6-7.5,7.4c0,0,0.1,0,0.1,0c-0.1-3.7,2.8-6.5,7.5-7.3
		l11.4-2l0.4,0.1c0,0,0,0,0,0c2.1,1.1,4.3,2.1,6.4,3.2c-1.2,1.6-2.4,3.1-3.6,4.9c0,0,0,0,0,0c1.1-1.5,2.1-2.8,3.1-4.2
		c1.5,0.5,2.8,1,4.3,1.5c0.3,1.1,0.5,2.1,0.8,3.1c-0.2,0.3-0.3,0.6-0.5,0.9c0.3-0.4,0.6-0.9,0.9-1.6c2.1,1.9,4.1,3.9,6.2,5.8
		c0,0,0.1,0,0.1,0c0.5,3.9,1,7.8,1.5,11.7c1.1,0.9,2.3,2,3.5,2.9c0,0,0.1,0,0.1,0v11.7c-0.1,0.4-0.2,0.8-0.2,1.3
		c-0.4,1.5-0.7,3-1.1,4.5h0.1c-0.4,0.6-0.7,1.1-1.1,1.6c-1.4,3.9-2.7,7.9-4.1,11.8c-1.8-2.5-3.5-5.1-5.6-8.1c0,0-0.1,0.1-0.1,0.1
		c2.1,2.9,3.8,5.5,5.6,8.1c0.1,0.5,0.1,1,0.1,1.6c-2.2,4.5-5.2,10.8-9.5,8.3c-7.5-4.4-10.3,0.2-13.3,6.5c-1.3-1.3-2.2-2.2-3.1-3.1
		c0,0,0-0.1,0-0.1c-0.3,0.3-0.3,0.7,0,0.9c-0.9,0.2-1.9,0.4-2.8,0.6c-0.6-0.8-1.3-1.5-1.9-2.2c-8.2-11-16.6-22-24.9-33
		c0,0,0,0-0.1,0c0,0,0,0,0,0c8.2,11,16.6,22.1,24.9,33c0,0-0.1,0.1-0.1,0.1c0.6,0.8,1.3,1.4,1.9,2.2c0.1,0.4,0.1,0.8,0.2,1.2
		c-2.2,0.1-4.3,0.8-6.1,2.1c-0.3,0-0.6,0.1-0.8,0.1c0.3-0.2,0.5-0.3,0.8-0.5c1.2-0.8,2.1-2.3,3-3.7c-0.9,1.3-1.8,2.7-2.9,3.6
		c-0.3,0.2-0.6,0.4-0.9,0.6c-1.6,0.3-3.1,0.7-4.6,1.1c-4.6,0.7-9.2,0.9-13.8,0.5c-2.5-3.1-4.9-6.4-7.4-9.4c-3-3.7-6.3-7-9.5-10.5
		c0,0.1,0,0.2,0.1,0.3c3.1,3.4,6.3,6.8,9.4,10.3c2.5,3,4.9,6.3,7.4,9.3c-3.7-0.3-7.4-0.9-11.1-1.7c-0.6-0.1-1.1-0.2-1.6-0.1
		c-1.9-2.2-3.7-4.3-5.6-6.5c-2.4-4.3-5.1-7.7-10.2-5.6c0.2-2-0.8-4.7,0.6-6c-1.5,1.3-0.5,4.1-0.7,6.1c-1.4,3.9-2.7,7.8-4.1,11.7
		c1.5-3.9,2.8-7.7,4.2-11.6c5.1-2,7.8,1.4,10.2,5.6c-0.8,0-1.7,0.1-2.5,0.1c-2.3,1.4-4.4,2.8-6.6,4.3c-1.6,1-3.4,2-5,3
		c-1.3,0.8-2.6,1.7-3.9,2.5c-0.3,1.2-0.5,2.2-0.7,3.3c-0.6,0.4-1.3,0.9-1.8,1.4l-0.2,0.2c0,0,0,0.1,0,0.1c-2.3,10-4.4,11-13.7,6.4
		C278.7,126.7,280.4,124.4,282.1,122.2z M365.8,22.6c1.7,1.6,3.4,3.1,5,4.7c0.2,1.7,0.1,2.9-0.3,3.6c0.5-0.6,0.6-1.9,0.4-3.7
		c0,0,0.1,0,0.1,0C369.3,25.6,367.6,24,365.8,22.6c-0.1-5.2-0.5-10.3,3.1-14.1C365.2,12.3,365.6,17.5,365.8,22.6L365.8,22.6z
		 M365.8,22.6c-1.8-0.6-1.6-4.5-3.2-5.6C364.1,18.1,364,22,365.8,22.6z M359.4,34.1c0.4-1.3,1-2.7,1.4-4c0,0-0.1,0-0.1,0
		C360.3,31.5,359.7,32.8,359.4,34.1C359.3,34.1,359.4,34.1,359.4,34.1z M356.4,29.6c0,0,0.1,0.1,0.2,0.1c-1.8-1.1-3.2-2.9-4.9-4.5
		c1.5-1.8,2.9-3.8,4.4-5.5c0.5-0.7,1.3-1.1,2-1.6c0.4-0.1,0.8-0.2,1.2-0.3c0,0,0,0,0,0c-0.5,0.1-0.8,0.2-1.3,0.3
		c0,0-0.1-0.1-0.1-0.1c-0.6,0.5-1.4,0.9-2,1.5c-1.5,1.8-3,3.7-4.4,5.5C353.1,26.6,354.6,28.5,356.4,29.6z M354,43.5
		C354,43.5,354,43.5,354,43.5c1,1.3,1.8,2.7,2.8,4l0,0C355.9,46.1,355,44.8,354,43.5z M388.8,70.5c0-0.1,0.1-0.2,0.1-0.2
		c-1.5-0.8-3-1.7-4.5-2.4c-0.1-0.3-0.2-0.6-0.2-0.9c0,0.4,0,0.7,0.2,1.1c-0.1,0.1-0.1,0.3-0.1,0.4c0-0.1,0.1-0.2,0.1-0.3
		C385.7,68.9,387.3,69.8,388.8,70.5z M385.1,83.4c-0.5-0.8-0.8-1.6-1.3-2.3C384.2,81.8,384.7,82.7,385.1,83.4z M378.3,67.2
		c1.1,0.4,2.1,0.7,3.2,1.1v-0.1l0,0C380.4,67.8,379.4,67.5,378.3,67.2L378.3,67.2z M380.9,49.8c-3.7-0.1-5.8,2.2-4.1,9.7
		c0,0.1,0.1,0.1,0.1,0.2C375.1,52.1,377.1,49.8,380.9,49.8z M377.9,88.4c-1.2,1.7-2.6,3.6-4,5.5C375.4,92.1,376.8,90.1,377.9,88.4z
		 M371,93.1c0.9,0.4,2.4,1.4,2.6,1.1c0,0,0-0.1,0.1-0.1c-0.3,0.3-1.7-0.7-2.6-1.1C371.1,93.1,371.1,93.1,371,93.1
		c-2.4-1-5-1.8-7.5-2.8c0,0,0,0-0.1,0C365.9,91.3,368.5,92.2,371,93.1z M357.7,103.2C357.7,103.2,357.7,103.3,357.7,103.2
		c6.6-1.1,7.7-3.7,5.7-12.9c-0.3,0.1-0.5,0.1-0.8,0.2C364.4,99.2,363.4,101.8,357.7,103.2C357.6,103.2,357.6,103.2,357.7,103.2z
		 M359.4,53.9c-0.4-1.6-0.7-3.1-1.1-4.7l-0.1-0.3c0,0,0,0,0,0l0,0.1c0.4,1.6,0.7,3.1,1.1,4.7c-2.3,1.7-4.4,3.2-6.6,4.9
		c-0.1-0.2,0-0.4,0.1-0.6c-0.2,0.2-0.3,0.4-0.2,0.7c-0.9,0.1-1.8,0.3-2.8,0.5c0,0,0,0,0,0c0,0,0,0,0,0c0,0,0,0-0.1,0
		c0.1,0,0.1,0.1,0.2,0.1c0.9-0.1,1.9-0.3,2.9-0.5C354.9,57.2,357.2,55.5,359.4,53.9z M352.9,57.7c-1.3,0.1-2.6,0.2-3.9,0.2
		c0,0,0,0.1,0.1,0.1c1.2-0.1,2.5-0.2,3.7-0.2C352.9,57.8,352.9,57.8,352.9,57.7z M350.5,73.7c0.1,0,0.1,0,0.2,0.1
		c0.2-0.4,0.3-0.8,0.5-1.2c-0.9-0.5-2-1-3-1.5c1,0.5,1.9,1,2.8,1.5C350.8,73,350.7,73.3,350.5,73.7z M333.5,66.8
		C333.5,66.8,333.5,66.8,333.5,66.8c0.1-1,0.2-2.1,0.2-3.1c2.2-0.5,4.3-1,6.4-1.5c2.2-1.5,4.4-2.9,6.5-4.4c0.4,0.1,0.8,0.2,1.2,0.2
		c0.7,0.4,1.3,0.7,1.9,1.1c0,0,0,0,0-0.1c-0.7-0.4-1.3-0.7-2-1.1c1.2-0.9,2.3-2.2,3.5-2.6c-1.3,0.4-2.4,1.7-3.5,2.6
		c-0.4-0.1-0.8-0.1-1.2-0.2v0c-2.2,1.5-4.3,2.9-6.5,4.4c0,0,0,0.1,0,0.1c-2.2,0.5-4.3,1-6.4,1.5c2.6-3.7,5.2-7.5,7.8-11.2
		c0.3,0.2,0.6,0.3,1,0.5c0,0,0-0.1,0-0.1c-0.3-0.2-0.6-0.3-1-0.5c-2.6,3.7-5.2,7.5-7.8,11.2C333.5,64.6,333.5,65.7,333.5,66.8
		c-3-0.1-6-0.1-8.8-0.1c0,0,0,0,0,0C327.6,66.7,330.5,66.8,333.5,66.8z M327,74C327,74,327,74,327,74c-2.1,0.5-4.2,0.9-6.3,1.4
		c0,0,0,0,0,0C322.9,74.9,324.9,74.5,327,74z"/>
	<path class="st4" d="M166.1,105c10.8,3.1,17.7,3.5,22.2,3.3c0.2,0,6.9-0.4,7.5,1.5c0,0.2,0,0.3-0.3,2c-0.2,1.1-0.4,2.1-0.6,2.7
		c0.3,4.5,0.3,8.2-0.8,10.3c-3.2,6.3-2.6,11.9,0.9,17.5c0,0,0.1,0,0.1,0c0,0,0,0.1,0,0.1c0,0,0,0,0,0c0,0,0,0,0,0
		c-0.1,1-0.1,2.1-0.1,3c-9.7-1.2-14.2-9.2-20.2-15.2c-2.5-4-5-8.1-7.5-12.3c-0.1,0-0.1,0-0.2,0c2.6,4,5.1,8.2,7.7,12.2
		c-0.1,0.3-0.2,0.5-0.4,0.8c0.1-0.2,0.2-0.5,0.4-0.7c6.1,6,10.6,13.9,20.2,15.2c-0.1,3.1-0.1,6.2-0.2,9.2c-0.4,4.7-0.8,9.3-1.5,14
		c-0.5,3.5-1.7,7-2.6,10.4c-1.8-2.2-3.6-4.2-5.4-6.2c1.8,2.1,3.5,4.2,5.3,6.2c0,0.5-0.1,1-0.1,1.5c-5.5,8.1-11.8,0.5-18.8-0.1v0.1
		c7,0.6,13.3,8.3,18.8,0.1c0.3,1.4,0.6,2.9,1,4.5c-1.5,2.1-3.4,4-4.2,6.4c-2.5,6.8-4.8,13.6-7.1,20.4c2.2-6.3,4.5-12.6,6.9-18.8
		c1-2.1,2.7-3.9,4.1-5.9c-0.3,2.3-0.8,4.7-1.1,7.1l-0.2,8.4c-0.1,1.3-0.2,2.7-0.3,4c-1.5,2.4-2.8,4.9-4.2,7.3h-0.4
		c3.2,2.4,6.3,4.9,9.5,7.3c2.5,0.9,5.1,1.8,7.6,2.8c0.2,0.8,0.5,1.7,0.8,2.5c-0.2,0.3-0.2,0.8-0.1,1.2c-0.1,0.4-0.3,0.9-0.4,1.3
		c-2.7,0.4-5.4,1.1-8.1,1.3c-7.9,0.6-15.8,0.8-23.7,1.2c0.2-2.3,0.4-4.6,0.6-6.7c0.3-3.7,0.5-7.4,0.9-11
		c-10.7-1.2-11.1-2.1-11.2-12.2c0.6-3,1.3-6.2,1.9-9.2c-0.2-7.7-0.5-15.2-0.8-22.9V158c0-1.1-0.1-2.2-0.1-3.3l0.1-3v-10.3
		c-0.1-0.1-0.1-0.2-0.2-0.3c-0.5-0.1-1.1-0.1-1.6-0.1c0.3-3.6,0.5-7.2,0.9-10.8c1.6,1.8,3.5,3.5,4.8,5.5c4,5.9,7.8,11.8,11.7,17.8
		c-3.8-5.9-7.7-11.8-11.5-17.7c-1.3-2-3.1-3.6-4.7-5.5c-0.1-1.9-0.3-3.8-0.5-5.7c0,0-0.1,0-0.1,0c-0.4-0.7-1-1.8-1.7-3.2
		c-2.3-4.8-2.2-6.4-3.5-8.8c-2.8-5.3-8.1-6.7-7.7-7.6c0.3-0.7,3.8,0.7,8.7,1C160.5,106.1,163.8,105.6,166.1,105z M167.1,199.3
		c0.5,0.8,1.1,1.5,1.6,2.3c1-0.6,1.9-1.1,2.9-1.7v-0.1c-1,0.6-1.9,1.1-2.9,1.7C168.2,200.8,167.7,200.1,167.1,199.3z M174.3,159.4
		c2.8,3.8,6.4,7,9.8,10.6c0-0.1,0-0.1-0.1-0.2C180.7,166.3,177,163.1,174.3,159.4z M173.3,133.6c0,0,0-0.1,0-0.1
		c0.2-0.4,0.4-0.8,0.5-1.2c-0.2,0.4-0.4,0.7-0.6,1c0,0,0,0,0.1,0.1C173.3,133.5,173.3,133.6,173.3,133.6z"/>
	<path class="st4" d="M183.9,151.8c-0.6,0.3-1.1,0.5-1.6,0.8C182.9,152.4,183.4,152.1,183.9,151.8z"/>
	<path class="st4" d="M189.3,149.3c-0.7,0.3-1.3,0.6-2,0.9C188,149.9,188.6,149.6,189.3,149.3z"/>
</g>
</svg>
