<?xml version="1.0" encoding="utf-8"?>
<!-- Generator: Adobe Illustrator 27.0.0, SVG Export Plug-In . SVG Version: 6.00 Build 0)  -->
<svg version="1.1" xmlns="http://www.w3.org/2000/svg" xmlns:xlink="http://www.w3.org/1999/xlink" x="0px" y="0px"
	 viewBox="0 0 595.3 266.8" style="enable-background:new 0 0 595.3 266.8;" xml:space="preserve">
<style type="text/css">
	.st0{fill:#3C55A2;}
	.st1{fill:#B9C6E5;stroke:#B9C6E5;stroke-miterlimit:10;}
	.st2{fill:#191642;stroke:#191642;stroke-miterlimit:10;}
</style>
<g id="Capa_2">
	<g id="Capa_2_00000113345653653091836170000001723977628234796168_">
		<polygon class="st0" points="0,73 595.3,93 595.3,167.6 0,187.6 		"/>
	</g>
</g>
<g id="Capa_1">
	<path class="st1" d="M485.7,189.5c-0.9-4-1.7-7.9-2.5-11.9c-4.1-0.3-8.3-0.7-11.3-0.9c-3,9.1-5.8,17.7-8.6,26.3
		c6.2,0.9,12.3,1.9,18.4,2.9C483,200.4,484.4,194.9,485.7,189.5z"/>
	<path class="st1" d="M529.7,106.3c-2.1-3.3-5.3-6.4-8.5-9.2c-9.1-7.9-19.6-14.4-35-14.3c-0.6-0.6-1.2-1.3-1.8-2.1c0,0,0,0,0,0
		c-0.3-1-0.5-2-0.7-2.9c0,0,0,0-0.1,0c2.2-5.1,4.3-10,6.5-15.1c2.2-9.3-4-15.6-16-15.2c-4.8,0.1-9.5,2.1-14.3,3.3
		c1.1,1.1,2.3,2.1,3.4,3.2c6.1,0.6,12.3,1.2,18.4,1.7c1,0.8,1.9,1.6,2.9,2.4c-0.9-0.7-1.9-1.5-2.9-2.2c0,0,0-0.1,0.1-0.1
		c-6.1-0.6-12.3-1.2-18.4-1.7c0.1,1.3,0.1,2.7,0.2,4.1c0.7,7.5,1.5,15,2.2,22.5c-0.2,0.4-0.6,0.6-1.2,0.6l-0.2,0.2
		c-0.3-0.1-0.7-0.2-1-0.3c0.4,0,0.7,0.1,1.1,0.1c0.6,0,1-0.2,1.2-0.6c-0.7-7.5-1.5-15-2.3-22.5c0,0,0.1,0,0.1,0
		c-0.1-1.4-0.1-2.8-0.2-4.2c-1.1-1.1-2.3-2.1-3.4-3.2c0.3-5.9,0.7-11.6,1-17.5c0,0,0,0,0,0c0.6-1.5,1.1-3,1.7-4.5
		c0.7-4.6,1.5-9.2,2.3-13.8c0.1-1.8,0.3-3.6,0.5-5.4c-2.4-3.2-4.9-6.4-7.4-9.6c-2.9,1.2-5.7,2.5-8.6,3.7c-1.3,4.2-2.7,8.5-4.1,12.7
		c0.5,1.6,1,3.3,1.5,4.9c0,0.1,0,0.2,0.1,0.3c-0.8,5.7-1.2,11.4-2.6,17c-0.9,3.3-3.3,6.5-5.1,9.7c-0.1,0.5-0.1,0.9,0,1.4
		c3.9,3.5,7.7,6.8,11.7,10.3c0,0,0,0.1,0,0.1c-2,5.5-4.1,10.9-6.1,16.4c-2.7,3-5.4,5.9-8.2,8.9l6-2.1c0,0,0,0,0,0
		c-2,0.7-3.9,1.4-5.9,2.1c-1.7,7.1,6.5,6.3,11.7,7.1c0.6,0.1,1.4-0.2,2.2-0.7c-0.9,0.6-1.7,0.9-2.4,0.8c-5.2-0.8-13.4,0-11.7-7.1
		c2.7-2.9,5.5-5.9,8.2-8.9c2-5.5,4.1-10.9,6.1-16.4c-3.9-3.5-7.9-6.9-11.8-10.4c-1.4,7.2-4.2,14.4-3.9,21.5
		c0.3,7.8-3.2,11.9-13.7,13c0.1-3.5,0.1-7,0.1-10.5c-1.3,0.2-3.3,0.2-4.1,0.4c0.4-0.3,2.8-0.3,4.3-0.5c-4.3-0.2-8.6-0.8-12.6-0.2
		c-1.5,0.2-3.5,4.3-2.6,5.4c4,4.7-1.6,6.6-4.2,9.4c0,0.1,0,0.1,0,0.2c-1.5,2.8-3.6,5.5-4.4,8.4c-1.2,4-1.4,8.2-2,12.3
		c7,4.6,14.4,8.1,24.3,4.5c2.7-0.1,5.3-0.1,8.1-0.1c-1,2-1.6,4.4-3.3,6c-7.8,7.4-6.9,14.8-0.6,22.3c1.2,0.6,2.5,1.3,3.6,1.7
		c3.7-2.3,7.3-4.6,11.6-7.4c0,0.1,0.1,0.2,0.1,0.3c-4.4,2.8-8,5.1-11.6,7.4c4.4,5.7,8.8,11.5,13.2,17.2c0.4,1.6,0.3,3.4,1.4,4.7
		c6,6.9,4.9,13.8,2.1,21.2c-1.7,4.3-0.5,9.1-1.2,13.7c-1.2,7.1-2.8,14.2-4.3,21.3c-0.6,2.5-1.3,5.1-2,7.6c1.3,2.5,2.7,5,4.1,7.4h0
		c-1.1,4.5-2.2,8.9-3.2,13.4c0,0.4,0,1-0.3,1.5c-0.8,1.2-2.3,0.9-2.7,1.6c-0.7,1.2,2.6,5.4,7.1,7.2c4.7,1.8,9.2,0.4,11.1-0.4
		c0,0,0,0.1,0,0.1c-7.8-0.1-11.1,0.1-11.1,0.4c0,0.9,28.5,3.9,28.9,1.9c0.1-0.6-2.4-1.7-6.5-2.9c-3.2-2.6-6.4-5.1-9.6-7.7
		c-0.4-3.4-0.7-6.8-1-10.2c-1.7-0.6-3.4-1.2-5.1-1.8c-0.4,1.1-1,2.2-1.5,3.3c0.5-1.1,1.1-2.3,1.5-3.4c0,0,0,0.1,0,0.1
		c1.9,0.6,3.7,1.2,5.6,1.8c5.6-4,11.1-8.1,16.7-12c0,0-0.1-0.1-0.1-0.1c0.1,0,0.2,0,0.2,0c3.5-8,6.9-15.9,10.4-23.8
		c-6.2-0.9-12.3-1.9-18.4-2.9c-3.9,6.5-7.9,13-11.2,18.5c-0.5,4.2-0.8,7.7-1.2,11.2c4.4-2.1,8.8-4.1,13.2-6.1
		c-0.5-0.6-1-1.3-1.5-1.9c0.9,0.7,1.8,1.3,2.6,2c-4.7,2-9.4,3.9-14.1,6c-0.8,1.5-1.6,3.1-2.4,4.6c0,0,0-0.1,0-0.1
		c-2.5,0-4.9,0-7.4-0.2c2.5,0,4.9,0.1,7.4,0.1c0.7-1.5,1.5-3.1,2.2-4.6c0.4-3.5,0.7-7,1.2-11.2c3.3-5.5,7.3-12,11.2-18.5
		c2.8-8.6,5.6-17.2,8.6-26.3c3,0.3,7.2,0.6,11.3,1v-2.9c0,0-0.1-0.1-0.1-0.1c-0.4-3.4-0.8-6.8-1.2-10.2c-3.6-4.1-7.4-8.1-11.1-12.2
		c0-0.1-0.1-0.3-0.1-0.4c3.8,4.1,7.5,8.3,11.3,12.4c-0.2-3.5-0.4-6.8-0.5-10.3c0.8-2.7,1.5-5.4,2.3-8.1c-0.6-2-0.8-4.1-1.9-5.8
		c-2.6-4.9-5.4-9.7-8.6-15.3c0.1,0,0.2,0,0.3,0c3.1,5.5,6,10.2,8.4,15c1,1.9,1.2,4.1,1.8,6.1c5,5.4,10,10.9,15.1,16.1
		c1.2-0.6,2.4-1.2,3.6-1.8c-1.7-2.1-3.6-4.2-5-6.5c-3.9-6.3-7.7-12.8-11.5-19.2c-0.4-1.4-0.7-2.7-1-4.1c-0.6-1.4-1.1-2.9-1.6-4.3
		c1.6-1.3,4.4-2.5,4.3-3.7c-0.3-5.4-1.4-10.7-2.3-16.1c0,0,0.1-0.1,0.1-0.1c0.8-1.1,1.6-2.1,2.5-3c-0.3-0.4-0.3-0.8-0.1-1.1
		c-0.1,0.3-0.1,0.7,0.1,1c1.8,1,5.2,2.4,5,2.9c0,0,0,0.1,0,0.1c-0.8-0.6-3.2-1.6-4.7-2.4c-0.8,1-1.6,2-2.3,2.8
		c0.7,5.2,1.9,10.4,2.2,15.7c0.1,1.2-2.8,2.5-4.4,3.7c0.6,1.5,1.1,2.9,1.7,4.4c3-1.1,6-2.1,9-3.2c2-4.3,4.2-8.7,6.2-13
		c0-0.1-0.1-0.1-0.1-0.2c1.9,1,3.8,2,5.6,3c2.6,0.1,4.9-0.2,6.8-0.9c-1.9,0.6-4.1,1-6.8,0.9c4.5,4.7,10.3,7.5,18.2,5
		C530.1,119.9,533,111.3,529.7,106.3z M482.8,83.7c0.2-0.4,0.5-0.8,0.7-1.2C483.2,82.9,483,83.3,482.8,83.7z M461.1,80.9
		c0,0,0.1,0,0.1,0c0.1,0.4,0.2,0.8,0.3,1.2C461.4,81.7,461.2,81.3,461.1,80.9c-1-2.3-2.1-4.7-2.8-6.4
		C459.1,76.2,460.1,78.5,461.1,80.9z M455,88.4c0.5-0.3,1-0.6,1.5-0.9C456.1,87.8,455.6,88.1,455,88.4C455.1,88.4,455,88.4,455,88.4
		z M418.7,99.6c0.1,0.3,0.2,0.6,0.2,0.9C418.8,100.2,418.8,99.9,418.7,99.6z M428.8,90.4C428.8,90.4,428.8,90.4,428.8,90.4
		c-3.4,2.9-6.8,5.7-10.3,8.5v0.2c0,0-0.1,0-0.1-0.1v-0.1C421.9,96,425.3,93.2,428.8,90.4z M409.7,97.2c-2.8,0.4-5.6,0.7-8.5,1.1
		c0,0,0-0.1,0-0.1c2.8-0.4,5.6-0.7,8.5-1.1c0,0,0,0,0,0c1.5-0.5,2.8-0.9,4.3-1.4c1.3-1.9,2.7-3.9,4-5.7c0,0,0,0,0,0
		c-1.3,1.9-2.7,3.9-4,5.8c0,0,0,0,0,0C412.6,96.2,411.1,96.7,409.7,97.2z M432.3,132.1c-0.9,1.6-2.1,3.1-3.4,4.6
		c1.2-1.5,2.3-3,3.2-4.6c1.2-2,0.4-4.5,0.4-6.8c0-2.9,0-5.8,0-9.6c0.6,0,1.2-0.1,1.8-0.1c-0.5,0-1,0.1-1.6,0.1c0,3.8,0,6.7,0,9.6
		C432.7,127.6,433.4,130.2,432.3,132.1z M444.7,134.1c0.4-0.3,0.8-0.6,1.2-1C445.5,133.5,445.1,133.8,444.7,134.1
		C444.7,134.1,444.7,134.1,444.7,134.1z M461.4,120.1C461.4,120.1,461.4,120.1,461.4,120.1c-1.8,1.5-3.6,3.1-5.4,4.6
		C457.7,123.1,459.6,121.6,461.4,120.1z M459.9,140.4c-0.6,0.5-1.1,1-1.6,1.6C458.8,141.4,459.3,140.9,459.9,140.4z M456.3,144.6
		c0.4-0.6,0.9-1.2,1.3-1.8C457.1,143.4,456.7,144,456.3,144.6z M459.6,165.9c0.5-1.1,0.9-2.2,1.4-3.3
		C460.5,163.7,460,164.8,459.6,165.9z M448.8,109.3c-0.5,0.3-0.9,0.7-1.4,1C447.9,110,448.4,109.6,448.8,109.3
		C448.8,109.3,448.8,109.3,448.8,109.3z M456.8,162.4c0.7,2.3-7.3,4.9-5.2,7.2C449.3,167.4,457.2,164.7,456.8,162.4z M466.8,165.2
		c-0.2,0.6-0.5,1.2-0.8,1.7c0.3-0.5,0.5-1,0.7-1.5c0.9-2.4-2.2-5.6-3.4-8.4c0-0.1,0-0.1,0.1-0.2c-1.4-3.5-2-6.1-1.7-7.8
		c-0.3,1.7,0.4,4.2,1.7,7.7C464.7,159.5,467.8,162.8,466.8,165.2z M465.1,168.3c0.1-0.1,0.1-0.2,0.1-0.2
		C465.2,168.2,465.1,168.3,465.1,168.3z M474.6,142.7c-1-2.4-2.1-4.9-3.1-7.3C472.6,137.8,473.7,140.3,474.6,142.7z M463.7,86.2
		c-5,7.7-9.9,15.4-14.9,23c-2.1,1.5-4.1,3-6,4.5c0.5-0.3,0.9-0.7,1.4-1c-0.5,0.4-1,0.7-1.5,1.1c0,0.5,0,0.9,0,1.4
		c-0.2,0-0.3,0-0.5,0c0.1,0,0.3,0,0.4,0c0-0.5,0-1,0-1.5c2.1-1.5,4.1-3,6.1-4.5c5-7.7,9.9-15.4,14.9-23.1c-0.5-0.7-1-1.4-1.5-2.1
		c0,0,0,0,0.1,0l-0.2-0.4c0-0.1,0-0.1-0.1-0.2c0.7-0.5,1.3-1,1.9-1.5l-1.8,1.7l0.2,0.4c0.5,0.7,1,1.4,1.5,2.1
		c4.7,8.6,9.5,17.2,14.8,26.9c0,0-0.1,0.1-0.1,0.1C473.2,103.4,468.4,94.8,463.7,86.2z M482.5,109c1.1-1.1,2-2,2.9-2.9
		C484.5,107.1,483.6,108,482.5,109z M490.5,100.9c-1.4-0.8-2.7-1.5-4.1-2.2l0,0c-0.5-0.2-0.8-0.6-0.8-1c-9.2-1.3-11.4-7-14.4-12.2
		c0,0,0,0,0.1,0c3,5.2,5.1,10.9,14.3,12.1c0.1,0.4,0.3,0.7,0.8,1c1.4,0.8,2.8,1.5,4.2,2.3C490.6,100.9,490.5,100.9,490.5,100.9z
		 M500.4,112.6c0,0.1,0,0.1,0,0.1c-2.4-1.3-6.7-1.4-7.5-3.7C494.1,111,498.3,111.2,500.4,112.6c3.6-0.9,5-1.9,5.4-3
		C505.5,110.8,504.1,111.8,500.4,112.6z M515,114.9c0.9-0.5,1.7-1.2,2.4-1.9C516.7,113.8,515.9,114.4,515,114.9z"/>
	<path class="st1" d="M485.4,130.9c0.2,1.2,0.4,2.3,0.6,3.4c2.2-2,4.4-3.9,6.6-5.9C490.3,129.2,487.8,130.1,485.4,130.9z"/>
	<path class="st1" d="M150.8,13.8C150.8,13.8,150.8,13.8,150.8,13.8c0.1,0.1,0.1,0.1,0.1,0.1L150.8,13.8z"/>
	<path class="st1" d="M177.1,94c0.1-0.1,0.1-0.1,0.2-0.2c2.1,1.2,4,2.4,5.9,3.8c-1.5-8.6-3.1-17.3-4.6-25.9c-2.7,1.7-5.4,3.3-9,5.4
		c0,0-0.1-0.1-0.1-0.1c3.5-2.2,6.2-3.9,8.8-5.6c-1.4-2.3-2.6-4.6-4.2-6.8c-5.8-8.2-16.6-8.6-25.5-11.8c0,0.1,0,0.3,0,0.4
		c-1.3-2.3-2.6-4.7-3.8-6.9c-0.5-0.1-1.1-0.1-1.6,0c-0.1,0.4-0.3,0.8-0.4,1.2c-0.3,3.3-0.6,6.5-0.9,9.7c0,0,0,0,0,0
		c0.3-3.5,0.6-6.9,0.8-10.4c0,0,0.1,0,0.1,0c0.1-0.4,0.3-0.8,0.4-1.2c-0.6-1.6-1.2-3.1-1.8-4.6c0-0.4,0-0.7,0-1.1
		c0,0,0.1-0.1,0.1-0.1c0,0.3,0,0.6,0,1c0.6,1.6,1.2,3.1,1.8,4.6c0.5,0,1.1-0.1,1.6,0c0.4-0.1,0.7-0.3,0.7-0.7
		c0.3-0.6,0.5-1.1,0.8-1.7c0.3-0.5,0.5-1.1,0.8-1.6c0.3-0.6,0.6-1.2,0.9-1.8c1.6-1.5,3.2-3,4.8-4.5c0.6-2.3,1.3-4.6,2-6.9
		c-0.5-0.1-1-0.2-1.6-0.2c-1.3-1.5-2.4-3.1-3.9-4.4c-2.6-2.3-5.5-4.4-8.2-6.6c0.3,1.9,1.6,4.6,1,5.6c0.5-1.2-0.7-3.8-1-5.6
		c-2-0.5-3.7-1-5.2-1.3c1.7,0.3,3.6,0.8,5.9,1.4c2.9,2.2,5.8,4.3,8.5,6.6c1.5,1.3,2.7,2.9,4,4.4c0.2-2.4,0.3-4.7,0.4-7.1
		c-0.1-0.7-0.3-1.4-0.4-2.1c-0.5-0.7-0.9-1.4-1.3-2.1c-0.5-0.2-0.6-0.5-0.5-0.9c-0.7-0.7-1.2-1.3-1.7-1.9c-0.7-0.5-1.3-1-1.9-1.5
		c-2.2-0.6-4.4-1.2-6.7-1.7c-14.7-3.4-25.6,4.4-23.4,17c0,3.5,0.1,6.9,0.2,10.4c1.1,1.8,2.2,3.6,3.3,5.4c1,1.6,2.1,3.3,3.1,5
		c0,0,0,0,0,0c-1-1.6-2.1-3.3-3.1-5c-1.1,0.4-2.1,0.9-3.1,1.3c-0.8,2.1-1.6,4.1-2.4,6.1c0,0,0,0,0,0c-3.3,1-6.7,2-10,3
		c-14.7,4.1-25.1,15-26,27.1c0.8,0.4,1.5,1.2,2.2,1.2c0,0,0,0,0,0c-0.6,0.1-1.5-0.8-2.2-1.2c-6.1,12-0.1,22.7,14.5,25.7c0,0,0,0,0,0
		c-0.8,2.5-1.6,5-2.3,7.5c0.6,5.8,1.2,11.5,1.8,17.3c4.2-1.3,8.8-2.3,12.6-4.2c6.5-3.3,12.5-7.1,18.5-10.6c0,0.1,0,0.2-0.1,0.2
		c-6,3.5-12,7.4-18.4,10.6c-3.8,1.9-8.4,2.8-12.6,4.2c1.7,2,3.4,4,5.1,5.9c1.2,2.1,2.2,4.3,3.2,6.3c2.2,0.5,4.5,1.1,6.7,1.6
		c3.4-1.4,6.7-2.7,10-4.1c0,0,0,0.1,0.1,0.1c2.2-0.6,4.4-1.2,6.7-1.8c1.2-2.7,2.4-5.5,3.6-8.2c2.7-6.1,5.3-12.1,8-18.2
		c-0.4-0.2-0.7-0.4-1.1-0.6c0,0,0,0,0,0c0.6,0.3,1.1,0.6,1.7,0.9c-2.7,6.1-5.3,12.1-8,18.2c0.5,1.4,1,2.7,1.5,4.1
		c0.4,0.5,0.7,1,1,1.5c-0.4-0.5-0.7-0.9-1-1.4c-0.4,1-0.9,1.9-1.4,2.9c1.1,1.1,2.2,2.2,3.2,3.3c0.1-1.1,0.2-2.2,0.3-3.3
		c0,0,0.1,0,0.1,0c-0.1,1.1-0.2,2.2-0.3,3.3c0.5,1.9,0.3,3.3-0.5,4.4c0.5-0.9,0.6-2.2,0.3-3.7c-1-1.2-2-2.4-3-3.6
		c-1.2,0.4-2.5,0.9-3.6,1.3c-3.1,3-6.2,6-9.2,9c0.9,0,1.9-0.1,2.8-0.1c-0.7,0.1-1.3,0.1-2,0.2c-0.6,0.3-1.1,0.5-1.7,0.8
		c1.1,9.1,2.2,18.2,3.4,27.3c3.3-4.6,6.5-9.1,9.7-13.6c-3.2,4.6-6.5,9.1-9.7,13.6c-0.6,4.3-1.2,8.7-1.7,13c2.1-0.9,5.6-1.3,6.2-2.7
		c-0.6,1.4-4,1.8-6.2,2.7c-0.2,7.2-0.3,14.4-0.5,21.6c0,2.4,0.1,4.9,0.2,7.2c3.4-1.9,6.9-3.9,10.3-5.9l3.5-20.2v0c0,0,0.1,0,0.1,0.1
		c-1.1,6.7-2.3,13.5-3.5,20.1c-1.7,11.6-3.5,23.1-5.2,34.7c0.1,0.9,0.2,1.8,0.3,2.7c0,0-0.1,0-0.1,0c-0.1-0.9-0.2-1.8-0.3-2.6
		c1.7-11.6,3.5-23.1,5.2-34.7c-3.4,1.9-6.9,3.9-10.3,5.9c-1,0.9-1.9,1.9-2.8,2.9c-1.2,8.1-2.3,16.1-3.5,24.2
		c0.6,0.6,1.2,1.1,1.8,1.6c-0.4,1.1-0.6,2.3-1.4,3.3c-5.6,6.9,2.7,8.7,6.4,12.2c2.1-0.4,4.3-0.9,6.5-1.3c3.4,1.4,6.9,2.9,10.3,4.3
		c3.9-0.5,7.7-0.9,11.6-1.4c1.6-7.1-7.5-4.9-10.2-8.3l-0.8-0.1c-0.1,0.5-0.3,1-0.5,1.6c-0.4-0.6-0.9-1.2-1.5-1.8
		c-2.4-2.1-4.8-4.1-7.3-6.1c0,0,0.1,0,0.1,0c1.1-1.8,2.6-3.5,3.3-5.6c2.5-6.2,4.7-12.4,7-18.6c0.6-1.4,1.2-2.9,1.8-4.3
		c4.1-8.6,8.1-17.2,12.1-25.9c5.2,3.7,11.2,4.6,15.2,2c0.9-0.6,2-1.5,3.1-3.2c0.1-0.3,0.5-1.1,0.2-2.1c-0.3-1.3-1.3-2-1.5-2.1
		c-1-0.6-2-1.2-3-1.8c0,0,0-0.1,0-0.1c-4-7.2-3.3-16.3-12.2-21.5c-1.7,0-3.5,0.1-5.2,0.1c-0.6,0.9-1.2,1.8-1.8,2.7c0,0,0,0,0,0
		c-1.4,2.2-2.8,4.3-4.3,6.5c0.9,2,1.9,4.1,2.8,6.1c0,0.7,0,1.3-0.1,1.9l1.8,2.9c0.6,2.3,1.2,4.7,1.8,7c1,0,2,0.1,3,0.2c0,0,0,0,0,0
		c0,0,0,0,0,0c-1,0-2-0.1-3-0.2c-1.8,2.6-3.5,5.1-4.8,7c0,0,0,0-0.1-0.1c1.3-1.9,3.1-4.4,4.8-6.9c-0.6-2.3-1.2-4.6-1.8-6.9
		c-0.6-1-1.2-2-1.8-2.9c-1.1-2.4-2.2-4.8-3.3-7.2c4-3.4,7.9-6.8,11.9-10.2c3.1-1.9,6.1-3.9,9.3-5.6c3.6-1.9,7.5-3.7,11.2-5.5
		c-0.7-1.1-1.4-2.2-2.1-3.3c0-0.9-0.1-1.8-0.1-2.7c-0.9-2.5-1.7-5-2.6-7.6c2.1,0.4,4.1,0.8,6.2,1.1c-0.4-1.6-0.3-3.5-1.3-4.9
		c-1.8-2.7-4.2-5.1-6.3-7.7c0-0.2,0-0.3-0.1-0.5c-1.3-2.7-2.6-5.3-3.9-8c0-1.5,0-2.9,0-4.3c0-2,0-3.9,0.1-5.8c0,0-0.1,0-0.1,0
		c-0.2-1.8-0.3-3.7-0.5-5.5c-1.8,1-2.9,1.9-3.1,2.7c0-0.9,1.1-2,3.2-3c0-0.2,0.1-0.6,0.1-0.9c4.1-0.1,8.2-0.2,12.3-0.3
		c-0.5-0.4-1.1-0.9-1.7-1.3c-1.1-0.5-2.3-1-3.4-1.5c-2.4-1.1-4.8-2.6-7.4-3.4c-2-0.7-4.3-0.6-6.5-0.8c0,0-0.1-0.1-0.1-0.1
		c2.3,0.3,4.6,0.1,6.7,0.8c2.6,0.8,4.8,2.2,7.3,3.4c0,0,0.1,0.1,0.1,0.1c1.1,0.5,2.3,1,3.4,1.5c0.5,0.4,1.1,0.9,1.7,1.3
		c2.7-2.4,5.4-4.8,8.2-7.2c-2.1-1.4-4.3-2.8-6.5-4.2C177.4,94.2,177.2,94.1,177.1,94z M146,179.3c0.1-0.2,0.3-0.5,0.5-0.6
		c0.5-0.4,0.9-0.7,1.3-1.1C147.4,178.2,146.8,178.8,146,179.3z M110.6,87C110.6,87,110.6,87,110.6,87L110.6,87
		C110.6,87,110.6,87,110.6,87z M134.6,67c0.6-0.4,1.2-0.7,1.8-1.1c-0.6,0.4-1.3,0.8-1.9,1.2c4.3,4.2,8.6,8.5,12.9,12.8
		c-1.7,4.9-5.2,6.3-10.7,3.9c-0.7-0.9-1.3-1.8-1.9-2.7c0.7,0.9,1.3,1.8,1.9,2.7c5.5,2.4,8.9,0.9,10.7-3.9
		c-4.3-4.2-8.6-8.5-12.9-12.8c-1.6,0.5-3.3,1-4.9,1.5c0,0,0,0,0,0C131.2,68.1,132.8,67.6,134.6,67z M127.7,94.1
		c2.2,0.8,4.4,1.7,6.6,2.6c0,0-0.1,0-0.1,0.1C132.1,96,129.8,95.1,127.7,94.1C127.7,94.2,127.7,94.2,127.7,94.1
		C127.7,94.2,127.7,94.2,127.7,94.1z M135.9,84.4C135.9,84.4,136,84.4,135.9,84.4c0.7,4.1,1.9,6.4,3.7,7.3
		C137.8,90.8,136.5,88.4,135.9,84.4z M147,90.4C147,90.4,147,90.4,147,90.4c1.5,2.5,3.1,5.3,4.6,8c0,0,0,0,0,0
		C150.1,95.7,148.5,93.1,147,90.4z M153.5,86.9C153.5,86.9,153.6,86.9,153.5,86.9c0,3.9,0,7.6-0.1,11.4c0,0-0.1,0-0.1,0
		C153.4,94.5,153.4,90.7,153.5,86.9z M129.4,68.6c1.2,2.6,2.5,5.1,3.6,7.7c0.3,0.7,0.6,1.4,0.9,2.1c-0.3-0.7-0.6-1.4-0.9-2
		C131.8,73.8,130.5,71.2,129.4,68.6c-2.3,2.8-4.6,5.7-6.9,8.5c0,0.5,0,0.9,0,1.4c0.5,0,1,0.1,1.5,0.2c-0.8,6.1-1.7,12.1-2.5,18.3
		c0,0-0.1,0-0.1,0c0.8-6.1,1.7-12.2,2.5-18.3c-0.5,0-1-0.1-1.5-0.2c-0.4,0-0.8-0.1-1.2-0.2c0.4-0.5,0.8-0.9,1.3-1.2
		C124.7,74.3,127,71.4,129.4,68.6L129.4,68.6z M169.6,66c0.1,0,0.3,0,0.5,0.1c-0.3,0.2-0.4,0.7-0.5,1c0.3,0.1,0.6,0.3,0.9,0.4
		c-0.1,0-0.1,0.1-0.2,0.1c-0.3,0.1-0.9-0.3-1.4-0.5C169.2,66.7,169.2,66.1,169.6,66z M163.2,70.5c0.1,0.1,0.2,0.2,0.3,0.3
		c-0.5,0.2-1.2,0.6-1.9,0.9c1.5,2.1,2.6,4.5,4.6,6.2c2.6,2.3,6,3.8,8.8,6c2.8,2.3,3.9,5.1,3.3,7.4c0.3-2.3-0.9-5-3.5-7
		c-2.7-2.3-6.2-3.9-8.8-6.3c-2.1-1.8-3.1-4.3-4.7-6.5C161.8,71.2,162.5,70.8,163.2,70.5z M148.2,64.2
		C148.2,64.2,148.2,64.2,148.2,64.2c0.1-1.6,0.1-3.1,0.2-4.7C148.3,61.1,148.3,62.6,148.2,64.2z M138.5,27.2
		c-0.5,2.9,4.7,3.7,10.4,4.8c-0.1,0.1-0.1,0.1-0.2,0.2C142.9,31.1,137.8,30.3,138.5,27.2z M118.9,27.7c0.6-0.4,1.4-0.7,2-1.1
		C120.3,27,119.5,27.3,118.9,27.7z M118.6,62.8c1-1.8,3.2-3.1,4.8-4.7c0,0,0,0,0.1,0.1c2.5,1,5,2.1,7.4,3.2
		c-0.7-2.8-1.4-5.7-2.1-8.5c1.6-0.8,3-1,4.3-1c-1.2,0-2.6,0.3-4.2,1c0.7,2.8,1.4,5.7,2.1,8.5c0,0,0,0.1,0,0.1
		c-2.5-1.1-4.9-2.1-7.4-3.2c-1.7,1.5-3.9,2.9-4.9,4.7c-3.5,6.6-6.6,13.4-9.8,20.1c0,0,0,0,0-0.1C112.1,76.3,115.1,69.5,118.6,62.8z
		 M106.9,54.8c0,5.5-3,11.1-3.1,16.6C103.9,65.9,106.9,60.3,106.9,54.8z M92.6,86c1-0.5,2.1-1.9,2-2.7c-0.2-1.2-1.6-3.1-2.3-3.1
		c0,0,0,0,0.1,0c0.7-0.1,2.1,1.9,2.3,3.1c0.1,0.9-1,2.3-2,2.7c-4.8,2-4.8,1.9-3.6,7.3c0,0-0.1,0-0.1,0C87.8,87.9,87.8,88,92.6,86z
		 M96.6,91.5C96.6,91.5,96.7,91.5,96.6,91.5c3.3,4.5-7,7.5-0.1,11.3c0,0,0,0,0,0C89.4,99,99.8,96,96.6,91.5z M117,105.4
		c-0.1-0.7-0.2-1.4-0.3-2.1l-0.1-0.1c-5.6-1-11.1-2.1-16.7-3.2l0,0c2.9-4.2,11.1-5.2,11-11.1c0.1,5.9-8.1,7-11,11.1
		c5.6,1,11.2,2.1,16.8,3.2c0,0,0.1,0,0.1,0l0,0c0.3,0.1,0.5,0.1,0.8,0.2c0.1,0.6,0.2,1.2,0.2,1.9c-0.2,0.1-0.4,0.1-0.7,0.2
		C117.1,105.4,117,105.4,117,105.4z M133.6,159.1c-0.7,1.2-1.4,2.4-2.2,3.5C132.2,161.5,132.8,160.3,133.6,159.1z M136.4,181
		c-1.7,4-2.6,8.3-3.8,12.4C133.8,189.2,134.7,185,136.4,181z M144,140.7c1.5-0.1,2.9-0.5,4.4-1.6c0,0,0,0,0,0
		C146.9,140.2,145.5,140.7,144,140.7z M158.5,91c0.7,0,1.5-0.3,2.6-1.1l0.1,0C160,90.7,159.2,91,158.5,91z"/>
	<g>
		<path class="st1" d="M338.6,86.4c-3.8-1.5-7.6-2.9-11.4-4.4c-1.2,2.3-2.3,4.7-3.5,7c-3.5-0.9-7-1.9-10.5-2.7
			c-7.3-1.9-14.7-3.9-22.1-5.8c1.6,2.3,3.2,4.7,4.8,7c0,0,0,0,0,0c-1.6-2.4-3.3-4.7-4.8-7.1c-1-0.6-2.1-1.2-3.3-1.5
			c-0.9,1.1-1.6,2.3-2.1,3.4c0.5-1.3,1.2-2.5,2.2-3.7c0,0,0,0,0,0.1c1.1,0.5,2.2,1.1,3.3,1.5c7.3,1.9,14.7,3.9,22.1,5.8
			c3.5,1,7,1.9,10.5,2.8c1.2-2.3,2.3-4.7,3.5-7c0-0.1,0-0.1,0.1-0.2c3.6,1.4,7.3,2.8,10.9,4.2c0.6-4.2,1.2-8.6,1.8-12.8c0,0,0,0,0,0
			c2.7-4.8,2.1-8.5-4.5-10.1c0,0-0.1,0.1-0.1,0.1c-13.7-2.5-27.6-5-41.4-7.5c-3.7,2.6-7.5,5.1-11.2,7.6c0,0,0-0.1,0-0.1c0,0,0,0,0,0
			c3.6-2.6,7.4-5,11-7.5c1-4.6,1.8-9.2,2.8-13.8c0.7-3.4,1.6-6.7,2.4-10c0.4-5.9,1-12-6.4-15.5c-7.9-3.7-15.2-2.4-22.3,1.8
			c-4.5,2.7-5,4-3.3,9.5c0,0,0,0.1-0.1,0.1c-0.8,3.8-1.5,7.5-2.2,11.3c1.6,3.4,3.2,6.8,4.8,10.2v0c-2.7,2.3-5.4,4.5-8.1,6.8
			c0,0,0,0,0,0c-17.1,4.2-25.9,15.6-32.5,28.8c0,2.9-0.1,5.8-0.1,8.6c0.1,0.5,0.1,0.9,0,1.1c3.1,3.1,6.2,6.1,9.3,9.1
			c6.2-2.8,15.6-16.8,15.8-22.6c0.1-1.1,2.6-2.2,4-3.3c0,0,0,0,0,0c1.3,0.5,2.6,1,3.8,1.6c2,1.8,4.1,3.5,6.1,5.3
			c0.7-4.8,1.3-9.6,2-14.4c-0.5,0.4-1.1,0.8-1.6,1.2c0.5-0.4,1-0.8,1.5-1.2c3.1-3.2,6.3-6.3,9.4-9.5c0,0,0,0,0.1,0
			c-3.1,3.1-6.2,6.2-9.3,9.4c-0.7,4.9-1.3,9.7-2,14.5c0,0,0,0.1,0,0.1c-2-1.8-4-3.4-6-5.2c-1.3-0.6-2.6-1.1-3.8-1.7
			c-1.5,1.1-4.1,2.2-4.1,3.4c-0.2,5.8-9.6,19.8-15.8,22.6c3.3,1.3,6.6,2.6,10.1,4.1c-0.4,3.7-0.9,7.5-1.3,11.2
			c1.8-0.3,3.5-0.5,4.2,0.2c-0.8-0.8-2.5-0.5-4.2-0.2c2.7,5.3,5.4,10.5,8.3,15.7c0.5,0.5,0.9,0.9,1.4,1.4s1,1,1.6,1.5
			c3.1-1.8,6.5-3.5,9.5-5.5c0.3-0.2,0.6-0.4,0.8-0.6c-0.3,0.2-0.6,0.5-0.9,0.7c-3,2-6.3,3.7-9.5,5.5c2.2,2.4,4.3,4.8,6.6,7.2
			c0,0,0,0-0.1,0c3.4,3.8,6.9,7.5,10.3,11.3c0.4,3.9,0.9,7.7,1.3,11.6c0,0,0,0,0,0c0.6,4.9,1.2,9.6,1.8,14.4
			c0.6-0.1,1.3-0.1,1.9-0.2c-0.6,2.4-1.2,4.8-1.8,7.2c0,0,0,0,0,0c-0.7,5.7-1.4,11.4-2.1,17.1c1.8,0.9,3.5,1.8,5.1,2.6
			c3.5-3.4,6.7-6.6,9.9-9.7c2.8-8,5.2-16.1,8.5-24c2.1-5,3.2-11.8,12.6-10.4c-0.6-2.8-1.2-5.6-1.8-8.4c-1.9-7.3-0.2-14.1,3.8-20.6
			c0,0,0,0,0,0c1.5,1.7,3.3,3.2,4.5,5c2.9,4.4,5.6,3.2,8.8,0.1c-5.9-8.9-11.7-17.4-17.4-26c-2-3.3-3.9-6.7-5.9-10.1c0,0-0.1,0-0.1,0
			c-1.7-1.5-3.2-2.9-4.8-4.4c0,0,0,0-0.1-0.1c1.7,1.4,3.3,2.9,4.9,4.3c2,3.1,3.9,6.4,5.9,9.7c0.8-3.6,1.5-7.4,2.3-11.1
			c0,0,0.1,0,0.1,0.1c0-0.9,0-1.9-0.1-2.9c0-0.1,0-0.2-0.1-0.2c1.1-1.7,2.4-3.4,3.7-5c-0.4-0.3-0.9-0.7-1.3-1
			c0.4,0.2,0.7,0.5,1.1,0.7c2.2,0.9,4.5,1.8,6.7,2.7c0,0,0,0,0,0c3.6,3.5,7.1,6.8,10.7,10.2c4.2-5.2,9.6-9,16.9-10.4
			c3.3-1.8,6.5-3.6,9.7-5.4c-0.4-1-0.7-2-1.1-3C351.9,88.1,345.3,87.3,338.6,86.4z M298.8,99.8c-1.3-1.5-2.7-3-4-4.5
			C296.1,96.8,297.5,98.3,298.8,99.8z M285.7,111.6c2.6-5.7,5.7-11.2,8.6-16.8c-1.1-2.1-2.2-4.3-3.4-6.6c0,0,0,0,0,0
			c1.2,2.3,2.3,4.4,3.4,6.5c0,0,0.1,0.1,0.1,0.1C291.5,100.4,288.5,105.9,285.7,111.6c-0.2,0.7,1.4,2.1,2.1,3.2
			c-1.6,4.8-3.3,9.6-4.9,14.3c1.1-0.4,2.1-0.9,3.2-1.4c1.7,0,3.3-0.1,4.9-0.1c0,0,0,0,0,0c-1.6,0-3.3,0.1-4.8,0.1
			c-1.2,0.5-2.2,1-3.3,1.4c0,0.2,0,0.3-0.1,0.4c0-0.1,0-0.2,0-0.4c1.6-4.8,3.3-9.6,4.9-14.4C287,113.8,285.4,112.3,285.7,111.6z
			 M295.7,133.3c-0.3,2-1.9,3.8-2.9,5.7c0,0,0,0.1-0.1,0.1c-0.3,0-0.6,0-0.8,0c0.3,0,0.5,0,0.8,0c1-1.9,2.5-3.7,2.9-5.7
			c0.6-3.3,4-7.2-1.2-10c0,0,0,0,0,0c0,0,0-0.1,0-0.1C299.7,126.1,296.3,129.9,295.7,133.3z M273.1,124.7c0.4-0.3,0.7-0.5,1-0.8
			c-0.3,0.3-0.7,0.6-1,0.9c0,0,0,0,0,0C273.1,124.8,273.1,124.7,273.1,124.7z M282.2,129.6C282.2,129.6,282.2,129.6,282.2,129.6
			c0.2,0.2,0.4,0.6,0.6,0.9c0,0,0,0,0,0C282.6,130.3,282.3,130,282.2,129.6z M276.1,122.1c-0.1,0.1-0.2,0.2-0.3,0.3
			c-0.9,0.3-1.9,0.6-2.8,0.9c1.1-0.4,2.1-0.9,3.2-1.3C276.1,122,276.1,122.1,276.1,122.1z M289.1,43.5L289.1,43.5
			c1.9-2.2,3.8-4.5,5.7-6.7c-0.6-0.7-0.9-1.4-1.3-2.2c-2.3,0.5-5.8,0.3-6.6,1.5c0.7-1.2,4.3-1.1,6.6-1.5c0.4,0.7,0.9,1.5,1.3,2.2
			C292.9,39.1,291,41.3,289.1,43.5z M289.4,21.7c-2.5,6-4.8,12-7.6,17.8c-0.1,0.1-0.3,0.2-0.6,0.2c0.3,0,0.5-0.1,0.5-0.2
			C284.4,33.6,286.8,27.6,289.4,21.7c-4.6-1.9-8.1-2.9-11-2.9C281.3,18.8,284.8,19.8,289.4,21.7z M266,73c-0.3,1-0.8,2.1-1.2,3.1
			C265.2,75.1,265.6,74,266,73C266,73,266,73,266,73c0.5-0.4,1-0.8,1.5-1.1C267,72.2,266.5,72.6,266,73z M273.8,57.2
			c0.3-0.8,0.5-1.6,0.7-2.3C274.3,55.6,274.1,56.4,273.8,57.2z M273.2,54.5c0.5,0.1,1,0.2,1.3,0.4C274.1,54.7,273.6,54.6,273.2,54.5
			c-1.3-1.8-2.5-3.6-3.7-5.4C270.8,50.9,272,52.7,273.2,54.5c3.5-1.8,7.2-3.6,9.7-4.8c-1.5-2.8-3.4-6.3-5.4-10c0,0,0.1,0,0.1,0
			c2,3.7,3.9,7.2,5.4,10C280.5,50.9,276.8,52.7,273.2,54.5z M251.7,121.7h13.2c2.2-4.4,2.1-10.1,10.3-10.3c2,0,4-5,5.9-7.7
			c1.2-1.6,2.1-3.1,3.2-4.7c0,0.1,0,0.1,0,0.2c0,0.1,0,0.1-0.1,0.2c-1,1.5-2.1,3-2.9,4.5c-1.9,2.7-3.9,7.6-5.9,7.7
			c-8.2,0.1-8.1,5.9-10.3,10.3c-4.7,0-9,0-13.4,0C251.7,121.8,251.7,121.8,251.7,121.7z M272.9,127.8
			C272.9,127.8,272.9,127.8,272.9,127.8c0,0-0.1,0.1-0.1,0.1C272.8,127.9,272.9,127.8,272.9,127.8z M290.6,191.8
			C290.6,191.8,290.6,191.8,290.6,191.8c-2.2-2-4.7-3.7-7.2-5.5c0,0,0,0,0.1-0.1c2.4,1.8,4.9,3.5,7.1,5.5
			C290.6,191.7,290.6,191.8,290.6,191.8z M301,148.1c-0.7-0.2-1.3-0.3-2-0.4c-3.7,10.5-7.5,21-11.2,31.5c-2.8-2-5.5-4-8.6-6.2
			c0,0,0.1-0.1,0.1-0.1c3.1,2.2,5.7,4.2,8.5,6.1c3.7-10.5,7.5-21,11.2-31.5c0.7,0.2,1.3,0.3,2,0.4C301,148,301,148,301,148.1z
			 M302.5,97.7c-1.1,0.9-2.2,1.7-3.3,2.6l0,0c1.2-0.9,2.3-1.8,3.3-2.8c0.6-2.3,1.2-4.7,1.8-7c0,0,0.1,0,0.1,0
			c-0.6,2.4-1.2,4.7-1.8,7.1c2.6,1.5,5.1,3,7.7,4.5C307.7,100.6,305.1,99.1,302.5,97.7z M311.2,96.7c-0.6-2-1.3-4.1-1.9-6.1
			c0.2,0.1,0.4,0.3,0.6,0.4C310.2,92.9,310.7,94.8,311.2,96.7z"/>
		<path class="st1" d="M299.7,175.3c-3.2,7.9-5.7,16-8.5,24c1.7,1.4,3.3,2.8,4.9,4.2c0,0,0,0,0,0c-1.7-1.4-3.3-2.8-4.9-4.2
			c-3.2,3.1-6.4,6.3-9.9,9.7c-1.6-0.8-3.3-1.7-5.1-2.6c-1,2.9-2,5.7-2.7,8.6c-0.1,2.8-0.2,5.7-0.3,8.6c0.1,3.1,0.2,6.3,0.3,9.5
			c0,0-0.1,0-0.1,0c-0.7,3.4-1.4,6.8-1.9,10.2c2.2,1.1,4.5,2.3,7.2,3.7c-1.3,2.2-2.7,4.6-4.9,8.3c3.2-1.2,5.1-1.9,6.9-2.6
			c0.5,0.5,1,1,1.5,1.5c-1.5,1.1-3.4,2.1-4.5,3.4c-1,1.1-1,2.6-1.5,4c7.4,3,17,5.3,27.7,3.9c1.1-0.1,2.2-0.3,3.2-0.5
			c0.3-0.4,0.7-1.3,0.8-2.5c0.1-1.7-0.6-3-0.9-3.4c-4.3-1-8.5-2-12.8-3c-3.8-2-7.6-4.1-11.4-6.1c-1.5-5.1-3-10.2-4.5-15.3
			c0.2,0,0.5,0.1,0.7,0.1c1.5,5.1,3,10.2,4.6,15.3c1.8-4.3,3.6-8.8,5.3-13.3c0.8-0.2,1.6-0.3,2.4-0.5c0-0.1,0-0.2,0-0.3
			c2.5-3.2,5.1-6.5,7.8-9.7c0-1.4,0.1-2.8,0.1-4.2c3.3-9.6,6.5-19.1,9.8-28.7c-0.4,0-0.7-0.1-1.1-0.1c0.4,0,0.8,0,1.3,0.1
			c0.6-2.3,1.2-4.7,1.8-7c0.4-0.4,0.7-0.8,1.1-1.2c0.1-0.1,0.2-0.2,0.3-0.3h0.2c0-6.7-0.1-13.4-0.2-20.1
			C302.9,163.5,301.8,170.3,299.7,175.3z M294.2,215c-3,1.7-6.1,3.2-9.8,5.3c0,0,0-0.1,0-0.1c3.7-2,6.8-3.6,9.8-5.3
			c0.6-1.9,1.1-3.7,1.7-5.5l0,0c-0.6,1.9-1.1,3.7-1.7,5.5C294.2,214.9,294.2,215,294.2,215z"/>
		<path class="st1" d="M334,108.2c6.4,1.4,12.9-2.7,16.9-10.6C343.6,99,338.2,102.9,334,108.2z"/>
		<path class="st1" d="M277.4,257.8c1.2-1.4,3-2.3,4.5-3.4c-0.5-0.5-1-1-1.5-1.5c-1.9,0.7-3.7,1.4-6.9,2.6c2.2-3.7,3.6-6.1,4.9-8.3
			c-2.7-1.3-4.9-2.5-7.2-3.7c-1,1.8-1.9,3.7-2.8,5.6c-1.2,3.7-2.4,7.4-3.4,11.1c0,0,0,0-0.1,0c-0.1,0.9-0.1,1.9-0.2,2.8l-0.1,0.1
			c0.6,0.5,1.1,1.1,1.7,1.6c12.4,0.2,24.9,0.5,37.3,0.8c-9.2-1.3-18.5-2.6-27.7-3.9C276.2,260.3,276.4,258.8,277.4,257.8z"/>
	</g>
	<path class="st2" d="M485.7,189.9c-0.9-4-1.7-7.9-2.5-11.9c-4.1-0.3-8.3-0.7-11.3-0.9c-3,9.1-5.8,17.7-8.6,26.3
		c6.2,0.9,12.3,1.9,18.4,2.9C483,200.8,484.4,195.3,485.7,189.9z"/>
	<path class="st2" d="M435.1,253.9c-0.8,1.5-1.7,2.4-1.6,3.7c0.1,1.2,0.7,2.2,1.1,2.6c5,1.7,11.2,3.4,18.5,4.3
		c4.1,0.5,7.8,0.6,11.2,0.5c5,0.6,8.8,0.3,9.1-0.8c0.3-1.2-3-3.3-8-5.3c-1.5-0.5-3.5-1.3-5.6-2.6c-2.1-1.3-3.7-2.7-4.8-3.8
		c-0.4-3.4-0.7-6.8-1-10.2c-1.7-0.6-3.4-1.2-5.1-1.8c-0.4,1.1-1,2.2-1.5,3.3c0.5-1.1,1.1-2.3,1.5-3.4c0,0,0,0.1,0,0.1
		c1.9,0.6,3.7,1.2,5.6,1.8c5.6-4,11.1-8.1,16.7-12c0,0-0.1-0.1-0.1-0.1c0.1,0,0.2,0,0.2,0c3.5-8,6.9-15.9,10.4-23.8
		c-6.2-0.9-12.3-1.9-18.4-2.9c-3.9,6.5-7.9,13-11.2,18.5c-0.5,4.2-0.8,7.7-1.2,11.2c4.4-2.1,8.8-4.1,13.2-6.1
		c-0.5-0.6-1-1.3-1.5-1.9c0.9,0.7,1.8,1.3,2.6,2c-4.7,2-9.4,3.9-14.1,6c-0.8,1.5-1.6,3.1-2.4,4.6c0,0,0-0.1,0-0.1
		c-2.5,0-4.9,0-7.4-0.2c-1.1,4.5-2.2,8.9-3.2,13.4C437.1,251.9,435.7,252.8,435.1,253.9z"/>
	<path class="st2" d="M483.1,174.9c-0.4-3.4-0.8-6.8-1.2-10.2c-3.6-4.1-7.4-8.1-11.1-12.2c0-0.1-0.1-0.3-0.1-0.4
		c3.8,4.1,7.5,8.3,11.3,12.4c-0.2-3.5-0.4-6.8-0.5-10.3c0.4-1.5,0.8-3,1.3-4.4c-11.4-7.4-24-13.3-37-15.4c-0.7,1.5-2.1,2.6-4.2,2.6
		c-0.9,0-1.7,0.1-2.5,0.3c-3.9,2.5-7.1,4.5-10.3,6.6c-0.2,0.2-0.4,0.4-0.6,0.6c4.4,5.6,8.7,11.4,13.1,17.1c0.4,1.6,0.3,3.4,1.4,4.7
		c6,6.9,4.9,13.8,2.1,21.2c-1.7,4.3-0.5,9.1-1.2,13.7c-1.2,7.1-2.8,14.2-4.3,21.3c-0.6,2.5-1.3,5.1-2,7.6c1.3,2.5,2.7,5,4.1,7.4h0
		c2.5,0,4.9,0.1,7.4,0.1c0.7-1.5,1.5-3.1,2.2-4.6c0.4-3.5,0.7-7,1.2-11.2c3.3-5.5,7.3-12,11.2-18.5c2.8-8.6,5.6-17.2,8.6-26.3
		c3,0.3,7.2,0.6,11.3,1V175C483.2,174.9,483.1,174.9,483.1,174.9z M451.6,170c-2.4-2.2,5.6-4.9,5.2-7.2
		C457.5,165.1,449.5,167.7,451.6,170z M466.8,165.6c-0.2,0.6-0.5,1.2-0.8,1.7c0.3-0.5,0.5-1,0.7-1.5c0.9-2.4-2.2-5.6-3.4-8.4
		c0-0.1,0-0.1,0.1-0.2c-1.4-3.5-2-6.1-1.7-7.8c-0.3,1.7,0.4,4.2,1.7,7.7C464.7,159.9,467.8,163.2,466.8,165.6z"/>
	<path class="st2" d="M459.6,166.3c0.5-1.1,0.9-2.2,1.4-3.3C460.5,164.1,460,165.2,459.6,166.3z"/>
	<path class="st2" d="M465.1,168.7c0.1-0.1,0.1-0.2,0.1-0.2C465.2,168.5,465.2,168.6,465.1,168.7z"/>
	<g>
		<path class="st2" d="M312.5,138.7c-4.4-4.1-9.9-7-15.7-9c-0.4,1.2-0.9,2.4-1.1,3.6c-0.3,2-1.9,3.8-2.9,5.7c0,0,0,0.1-0.1,0.1
			c-0.3,0-0.6,0-0.8,0c0.3,0,0.5,0,0.8,0c1-1.9,2.5-3.7,2.9-5.7c0.2-1.2,0.8-2.4,1.2-3.7c-2.5-0.9-5.1-1.5-7.6-2.1c-1,0-2,0.1-3,0.1
			c-1.2,0.5-2.2,1-3.3,1.4c0,0.2,0,0.3-0.1,0.4c0-0.1,0-0.2,0-0.4c0.3-0.8,0.5-1.6,0.8-2.4c-9.9-1.1-21.2-0.1-29.6,5.6
			c0.4,0.8,0.8,1.5,1.3,2.3l1.4,1.4c0.5,0.5,1,1,1.6,1.5c3.1-1.8,6.5-3.5,9.5-5.5c0.3-0.2,0.6-0.4,0.8-0.6c-0.3,0.2-0.6,0.5-0.9,0.7
			c-3,2-6.3,3.7-9.5,5.5c2.2,2.4,4.3,4.8,6.6,7.2c0,0,0,0-0.1,0c3.4,3.8,6.9,7.5,10.3,11.3c0.4,3.9,0.9,7.7,1.3,11.6c0,0,0,0,0,0
			c0.6,4.9,1.2,9.6,1.8,14.4c0.6-0.1,1.3-0.1,1.9-0.2c-0.6,2.4-1.2,4.8-1.8,7.2c0,0,0,0,0,0l-2.1,17.1c1.8,0.9,3.5,1.8,5.1,2.6
			c3.5-3.4,6.7-6.6,9.9-9.7c2.8-8,5.2-16.1,8.5-24c2.1-5,3.2-11.8,12.6-10.4c-0.6-2.8-1.2-5.6-1.8-8.4
			C308.8,150.2,309.8,144.4,312.5,138.7z M282.2,129.5c0.2,0.3,0.4,0.7,0.6,1c0,0,0,0,0,0C282.6,130.3,282.3,130,282.2,129.5
			C282.2,129.6,282.2,129.6,282.2,129.5z M290.6,191.8c-2.2-2-4.7-3.7-7.2-5.5c0,0,0,0,0.1-0.1c2.4,1.8,4.9,3.5,7.1,5.5
			C290.6,191.7,290.6,191.8,290.6,191.8C290.6,191.8,290.6,191.8,290.6,191.8z M301,148.1c-0.7-0.2-1.3-0.3-2-0.4
			c-3.7,10.5-7.5,21-11.2,31.5c-2.8-2-5.5-4-8.6-6.2c0,0,0.1-0.1,0.1-0.1c3.1,2.2,5.7,4.2,8.5,6.1c3.7-10.5,7.5-21,11.2-31.5
			c0.7,0.2,1.3,0.3,2,0.4C301,148,301,148,301,148.1z"/>
		<path class="st2" d="M299.7,175.3c-3.2,7.9-5.7,16-8.5,24c1.7,1.4,3.3,2.8,4.9,4.2c0,0,0,0,0,0c-1.7-1.4-3.3-2.8-4.9-4.2
			c-3.2,3.1-6.4,6.3-9.9,9.7c-1.6-0.8-3.3-1.7-5.1-2.6c-1,2.9-2,5.7-2.7,8.6c-0.1,2.8-0.2,5.7-0.3,8.6c0.1,3.1,0.2,6.3,0.3,9.5
			c0,0-0.1,0-0.1,0c-0.7,3.4-1.4,6.8-1.9,10.2c2.2,1.1,4.5,2.3,7.2,3.7c-1.3,2.2-2.7,4.6-4.9,8.3c3.2-1.2,5.1-1.9,6.9-2.6
			c0.5,0.5,1,1,1.5,1.5c-1.5,1.1-3.4,2.1-4.5,3.4c-1,1.1-1,2.6-1.5,4c7.4,3,17,5.3,27.7,3.9c1.1-0.1,2.2-0.3,3.2-0.5
			c0.3-0.4,0.7-1.3,0.8-2.5c0.1-1.7-0.6-3-0.9-3.4c-4.3-1-8.5-2-12.8-3c-3.8-2-7.6-4.1-11.4-6.1c-1.5-5.1-3-10.2-4.5-15.3
			c0.2,0,0.5,0.1,0.7,0.1c1.5,5.1,3,10.2,4.6,15.3c1.8-4.3,3.6-8.8,5.3-13.3c0.8-0.2,1.6-0.3,2.4-0.5c0-0.1,0-0.2,0-0.3
			c2.5-3.2,5.1-6.5,7.8-9.7c0-1.4,0.1-2.8,0.1-4.2c3.3-9.6,6.5-19.1,9.8-28.7c-0.4,0-0.7-0.1-1.1-0.1c0.4,0,0.8,0,1.3,0.1
			c0.6-2.3,1.2-4.7,1.8-7c0.4-0.4,0.7-0.8,1.1-1.2c0.1-0.1,0.2-0.2,0.3-0.3h0.2c0-6.7-0.1-13.4-0.2-20.1
			C302.9,163.5,301.8,170.3,299.7,175.3z M294.2,215c-3,1.7-6.1,3.2-9.8,5.3c0,0,0-0.1,0-0.1c3.7-2,6.8-3.6,9.8-5.3
			c0.6-1.9,1.1-3.7,1.7-5.5l0,0c-0.6,1.9-1.1,3.7-1.7,5.5C294.2,214.9,294.2,215,294.2,215z"/>
		<path class="st2" d="M277.4,257.8c1.2-1.4,3-2.3,4.5-3.4c-0.5-0.5-1-1-1.5-1.5c-1.9,0.7-3.7,1.4-6.9,2.6c2.2-3.7,3.6-6.1,4.9-8.3
			c-2.7-1.3-4.9-2.5-7.2-3.7c-1,1.8-1.9,3.7-2.8,5.6c-1.2,3.7-2.4,7.4-3.4,11.1c0,0,0,0-0.1,0c-0.1,0.9-0.1,1.9-0.2,2.8l-0.1,0.1
			c0.6,0.5,1.1,1.1,1.7,1.6c12.4,0.2,24.9,0.5,37.3,0.8c-9.2-1.3-18.5-2.6-27.7-3.9C276.2,260.3,276.4,258.8,277.4,257.8z"/>
	</g>
	<g>
		<path class="st2" d="M137.1,257.5l-0.8-0.1c-0.1,0.5-0.3,1-0.5,1.6c-0.4-0.6-0.9-1.2-1.5-1.8c-2.4-2.1-4.8-4.1-7.3-6.1
			c0,0,0.1,0,0.1,0c1.1-1.8,2.6-3.5,3.3-5.6c2.5-6.2,4.7-12.4,7-18.6c0.5-1.3,0.9-2.3,1.8-4.3c2.2-5.1,6.1-13.7,12.4-25.8
			c-0.2-0.6-0.7-1.8-1.5-3.1c-3.8-6.4-8.7-7.4-11.8-13.3c-0.8-1.6-1.2-2.9-1.5-4.4c-0.9-4.4,0.5-8.6,0.8-19.2
			c0.2-5.7-1.7-10.3-3.6-15.6c-1.2-3.3-2.4-6-3.5-8.1c-0.5,1.2-1,2.5-1.5,3.7c-0.6,1.4-1.2,2.8-1.9,4c-1.5,0-3.5,0.2-5.8,0.8
			c-2.6,0.7-4.5,1.8-5.8,2.6c0.5,2.2,1,4.3,1.5,6.5c1.1,9.1,2.2,18.2,3.4,27.3c-0.6,4.3-1.2,8.7-1.7,13c0,0,0,0,0,0
			c-0.2,7.2-0.3,14.4-0.5,21.6c0,2.4,0.1,4.9,0.2,7.2c3.4-1.9,6.9-3.9,10.3-5.9l3.5-20.2v0c0,0,0.1,0,0.1,0.1
			c-1.1,6.7-2.3,13.5-3.5,20.1c-1.7,11.6-3.5,23.1-5.2,34.7c0.1,0.9,0.2,1.8,0.3,2.7c0,0-0.1,0-0.1,0c-0.1-0.9-0.2-1.8-0.3-2.6
			c1.7-11.6,3.5-23.1,5.2-34.7c-3.4,1.9-6.9,3.9-10.3,5.9c-1,0.9-1.9,1.9-2.8,2.9c-1.2,8.1-2.3,16.1-3.5,24.2
			c0.6,0.6,1.2,1.1,1.8,1.6c-0.4,1.1-0.6,2.3-1.4,3.3c-5.6,6.9,2.7,8.7,6.4,12.2c2.1-0.4,4.3-0.9,6.5-1.3c3.4,1.4,6.9,2.9,10.3,4.3
			c3.9-0.5,7.7-0.9,11.6-1.4C148.9,258.7,139.8,260.9,137.1,257.5z M131,163c0.7-1.2,1.4-2.3,2.2-3.5
			C132.4,160.7,131.7,161.9,131,163z M132.2,193.8c1.2-4.2,2.1-8.4,3.8-12.4C134.3,185.4,133.4,189.7,132.2,193.8z"/>
		<path class="st2" d="M167.5,203.4"/>
	</g>
	<path class="st2" d="M150.2,196.5"/>
</g>
</svg>
