<?xml version="1.0" encoding="utf-8"?>
<!-- Generator: Adobe Illustrator 27.0.0, SVG Export Plug-In . SVG Version: 6.00 Build 0)  -->
<svg version="1.1" xmlns="http://www.w3.org/2000/svg" xmlns:xlink="http://www.w3.org/1999/xlink" x="0px" y="0px"
	 viewBox="0 0 595.3 242.6" style="enable-background:new 0 0 595.3 242.6;" xml:space="preserve">
<style type="text/css">
	.st0{fill:#E83B44;}
	.st1{fill:#B9C6E5;stroke:#B9C6E5;stroke-miterlimit:10;}
	.st2{fill:#3C3E42;stroke:#3C3E42;stroke-miterlimit:10;}
	.st3{stroke:#0C0C0C;stroke-miterlimit:10;}
	.st4{fill:#191642;stroke:#191642;stroke-miterlimit:10;}
	.st5{fill:#070707;stroke:#020202;stroke-miterlimit:10;}
</style>
<g id="Capa_2">
	<g id="Capa_2_00000121970788549775891080000011168171937628478349_">
		<g id="Capa_2_00000006699335846374057990000008047924228890963885_">
			<polygon class="st0" points="1,82.7 594.2,62.7 594.2,177.3 1,157.3 			"/>
		</g>
	</g>
</g>
<g id="Capa_1">
	<g id="Capa_3">
	</g>
	<g>
		<path class="st1" d="M370.4,81.7c-1.3-8.9-3.6-17.8-5.5-26.6c-0.2,0.6-0.5,1.1-0.7,1.7c0.2-0.6,0.5-1.2,0.7-1.8
			c-0.1-7.9-2.8-14.5-11-18.4c-0.8-0.4-1.6-0.8-2.3-1.2c0.1-0.8,0.3-1.6,0.4-2.4c-0.8-0.9-1.5-1.8-2.2-2.7c-0.2-1.9-0.3-3.8-0.5-5.7
			l0,0l0,0c0.5-5,0.9-9.9,1.4-14.9c-4.5-3.2-9-6.4-13.5-9.7c-4.6,0.9-9.4,1.4-13.8,3c-2,0.7-3,3.5-4.5,5.3c0.8,0,1.5,0,2.3,0.1
			c-0.9,0.8-1.8,1.6-2.6,2.4c-0.2,0.4-0.3,0.9-0.5,1.3c1.8,3.3,4,6.4,5.1,9.8c-1.1-3.4-3.4-6.6-5.1-9.8c-1.8,8.8-1.4,17.5,5.2,24.6
			c2.4,2.6,6.8,3.7,10.2,5.5c0.4,0,0.8,0.1,1.1,0.3c0,0,0,0,0.1,0c2.8,3,5.6,6,7.7,8.2v0.1c-2.2-2.3-5-5.3-7.8-8.3
			c-0.3-0.2-0.7-0.3-1.1-0.3c-1.1,1.5-2.3,3.1-3.4,4.6h0.1c-4.6,4.6-9.2,9.2-13.8,13.9c-0.5-0.1-0.9-0.3-1.4-0.4
			c-0.9-1.2-1.8-2.4-2.6-3.6c-0.6-0.4-1.3-0.7-1.9-1.1c-10-6.1-11.4-5.7-15.9,4.8c1.8,2.4,3.6,4.7,5.5,7l-0.1,0.1
			c0,1.9,0,3.8-0.1,5.7c3.3,2,6.7,3.9,10,5.9c0.3-2.3,0.6-4.6,1-8c0.1,0.1,0.2,0.2,0.3,0.3c-0.5,3.2-0.8,5.5-1.1,7.7
			c0.8,1.3,1.6,2.7,2.4,4c0.1,0,0.1,0,0.2,0.1c-1.2,0.8-2.2,1.5-3.4,2.2c2.9,2.3,5.9,4.4,8.9,6.7c-0.1,0-0.1,0-0.2,0
			c5.9,6.1,4.8,13.2,3.9,22.1c0,0-0.1,0-0.1-0.1c1-8.8,1.9-15.9-3.9-21.9c-3.1-2.3-6.1-4.5-9.2-6.8c1.3-0.8,2.6-1.5,3.8-2.2
			c-0.9-1.3-1.7-2.6-2.6-3.9c-3.5-2-7.2-3.8-10.7-5.8c1.8,2.8,3.6,5.7,5.3,8.6c-8.2-2.7-16.2-5.7-24.6-7.7c-4.2-1-9,0.1-13.6,0.3
			c-0.3,7.1-0.7,14.1-1,21.2c-1,0-1.9-0.1-2.9-0.1v-0.1c1,0,1.9,0.1,2.9,0.1c0.3-7.1,0.7-14.1,1-21.2c-1.9,1.5-3.7,3-5.6,4.6
			c-1.7,2.1-3.4,4.2-5,6.3c-1.5,1.9-3,3.7-4.5,5.6c-4,4.6-8.1,9.2-12.2,13.9c-8,7.2-3.2,13.2,2.4,19.1c1.7,1.8,3.4,3.7,5.2,5.5
			c1.5,0.5,2.9,1.1,4.4,1.6c0.1-0.1,0.2-0.2,0.2-0.3c0.7,0.4,1.4,0.8,2.2,1.1c2.3-1.5,4.6-3,6.9-4.5c2.8-4,5.6-8,8.4-11.9
			c0.8-0.8,1.7-1.5,2.4-2.3c-0.1-0.1-0.3-0.2-0.4-0.3c2.1-2.4,4.3-4.8,6.1-7c4.8,2.8,9.8,5.8,14.8,8.7c-0.3-1.2-0.4-2.4-1-3.4
			c-1-1.8-2.4-3.3-3.5-4.8c4.9-0.6,8.7-1.1,12.4-1.6c-2-1.8-4.1-3.6-6.1-5.4c0,0,0-0.1,0.1-0.1c-0.4-0.5-0.8-1-1.1-1.5h0.1
			c0.4,0.5,0.7,0.9,1.1,1.4c0,0.1,0,0.1,0.1,0.2c2,1.8,4.1,3.7,6.1,5.5c4.1,4.1,8.1,8,12.1,12.1c-0.1,0-0.2,0-0.3,0
			c-4-4.1-7.9-8-11.8-12.1c-3.7,0.5-7.4,1-12.2,1.6c1,1.4,2.4,3.1,3.4,4.9c0.6,1,0.7,2.4,1,3.5c3.1,1.4,6.2,2.8,9.3,4.3
			c-0.9-1.5-1.7-3.1-2.6-4.7c0.1-0.1,0.1-0.1,0.2-0.2c0.9,1.5,1.7,2.9,2.5,4.5c2,4.1,4,8.2,6,12.3c8-2.3,16.1-1.6,24.3,0l0,0
			c2.9,1.1,5.6,2.2,8.5,3.1c1.8,0.6,3.7,0.8,5.5,1.2c1-1.7,1.9-3.4,2.9-5.1c0.2-0.8,0.7-1.6,1.2-2.3c1.7-4.6,3.5-9,5.3-13.5
			c-0.4-3.4-0.8-6.8-1.2-10.2c0.1,0.1,0.3,0.2,0.4,0.2c0.6-2,1-4.1,1.6-6.1c-2.4-1.2-4.8-2.4-7.2-3.6c2.4,1.1,4.7,2.2,7.1,3.3
			c3.7-2.8,7.8-5.2,10.9-8.4C368.8,87.6,370.8,84.2,370.4,81.7z M321.3,8.3c0.9-0.5,1.9-1,2.9-1.4c2.1,4.5,4.5,8.2,8.3,8.2
			c-3.8-0.1-6.2-3.8-8.3-8.2C323.2,7.4,322.3,7.8,321.3,8.3z M327,34.1c2.3,0.1,4.4-1.6,6.2-1.5C331.4,32.6,329.3,34.2,327,34.1z
			 M258.6,91c0.8-2.2,2.1-4.4,3.8-6.7v0.1C260.7,86.7,259.5,88.8,258.6,91z M272.3,97.9c0.1,0,0.3,0,0.4,0c1.9,0.1,3.9,0.8,6.1,1.3
			v0.1C276.3,98.7,274.3,98,272.3,97.9z M287.7,99c-3.4-3.7-6.1-7.7-9.1-11.6c0.1,0,0.3-0.1,0.4-0.1c3,3.9,5.7,8,9,11.7
			c0.6,0.8,1.8,2.9,3.1,3.1C289.7,102.2,288.4,99.8,287.7,99z M316.4,64.3c-2.2-1.6-4.1-2.4-5.9-2.5
			C312.3,61.9,314.3,62.6,316.4,64.3C316.5,64.3,316.5,64.3,316.4,64.3c4.1,2.4,8,4.9,11.9,7.1c0,0,0,0,0,0.1
			C324.4,69.1,320.4,66.7,316.4,64.3z M316.5,117.6c-0.1,0-0.1,0-0.2,0c-1.5-3-3-5.8-4.4-8.8c0.1,0,0.1-0.1,0.2-0.1
			C313.6,111.7,315.1,114.6,316.5,117.6c3.3,1.8,6.5,3.5,9.7,5.3C322.9,121.1,319.7,119.4,316.5,117.6z M328.2,96.4
			c4.1-1.8,8.3-3.5,12.5-5.3h0.1c1.2-1.5,2.4-3,4.5-5.8h0.1c-2.3,2.9-3.4,4.4-4.6,5.9l0,0C336.7,93,332.5,94.6,328.2,96.4
			c-3.6,1.8-4,10.8-0.9,14.6C324,107.3,324.5,98,328.2,96.4z M347.5,127.9c-2.1-7.1-10.2-8.6-14.6-13.4c-1.6-0.9-3.5-1.6-4.8-2.7
			c1.5,1.1,3.3,1.8,5,2.8c0.3-0.1,0.5-0.3,0.8-0.4c-0.2,0.1-0.4,0.2-0.6,0.3c4.4,4.8,12.3,6.3,14.4,13.4c0,0.1,0,0.2,0.1,0.2
			C347.6,128,347.5,128,347.5,127.9z M350.8,101.5c-1.4-1.8-2.7-3.6-4.3-5.2c-1.7-1.9-3.6-3.4-5.5-5c0.2,0.1,0.4,0.2,0.6,0.3
			c1.7,1.5,3.4,2.9,4.9,4.6C348.2,97.9,349.5,99.7,350.8,101.5z M360.2,66.4c-5.2,9.6-14.6,13.8-24.7,10.5v-0.1
			C345.6,80.1,354.9,75.9,360.2,66.4c0.4-0.8,0.7-1.5,1.1-2.2C360.9,64.9,360.6,65.7,360.2,66.4z"/>
		<path class="st1" d="M336.3,35.7L336.3,35.7c-0.2,0.1-0.4,0.2-0.6,0.3C335.8,35.9,336,35.8,336.3,35.7z"/>
		<path class="st1" d="M338.6,12.7L338.6,12.7L338.6,12.7z"/>
		<path class="st1" d="M351.9,102.9C351.9,102.9,351.9,103,351.9,102.9C351.9,103,351.8,103,351.9,102.9
			C351.8,102.9,351.8,102.9,351.9,102.9z"/>
		<path class="st1" d="M320.5,8.7c-0.8,0-1.6,0-2.3-0.1c-0.1,0.9-0.2,1.8-0.3,2.7C318.7,10.5,319.6,9.6,320.5,8.7z"/>
		<path class="st1" d="M313.1,163c0.1,1.4,0.2,2.7,0.3,4.1c0.4,0.5,0.8,1,1.2,1.5c-0.2,7.8-0.4,15.6-0.6,23.4
			c0.1,3.2,0.1,6.5,0.2,9.7c0.1,5.1,0.3,10.1,0.4,15.2c0.1,5.2,2.8,7.5,8.4,6.9c2.6-0.3,5.3,0,8,0c3.9,0.5,7.7,1.1,11.5,1.6
			c0.9-0.1,1.7-0.1,2.6-0.2c0.1-2.8,0.1-5.5,0.2-8.2c0-3.1-0.1-6.1-0.1-9.2c0.3-1.3,0.3-2.6,0.3-3.9c-0.1-2.6-0.2-5.2-0.3-7.8
			c-1.3-5.5-2.5-11.1-3.7-16.5h0.1c-2.5-10.6-6.7-21.3,1.4-31.5c0.4-1.4,0.8-2.7,1.3-4.1c-3.3-1.6-6.5-3.3-9.8-4.9
			c0.2-0.3,0.4-0.5,0.6-0.8c3,1.5,5.9,3.1,8.9,4.6c-0.2-1.5-0.5-3-0.8-4.5h0.1c0.7-0.9,1.3-1.8,1.9-2.6c-1.9-0.4-3.7-0.7-5.5-1.2
			c-2.8-0.9-5.6-2.1-8.4-3.1c-8-1.6-15.9-2.3-23.9,0c1,5.1,1.9,10.3,2.8,15.4c0.3-0.7,0.7-1.4,1.7-3.5v2.3c-0.9,1.9-1.2,2.4-1.5,3.1
			c0.4,0.5,0.7,1,1.1,1.6c0,1,0,1.9,0,2.8C312.1,156.5,312.6,159.7,313.1,163z M331,174.3c0.1,0.1,0.1,0.1,0.2,0.2l0,0
			C331.1,174.4,331,174.3,331,174.3z M331.6,136.3c-0.2,0.1-0.3,0.4-0.5,0.4s-0.4-0.2-0.6-0.3C330.9,136.4,331.3,136.3,331.6,136.3z
			 M311.4,134.4l0.2-0.1c4.5,9.6,9.1,19.1,13.6,28.7c1-0.3,1.9-0.7,2.8-1l0,0c-1.1,0.4-2,0.9-3.1,1.3
			C320.4,153.6,315.8,144,311.4,134.4z"/>
		<path class="st1" d="M352.7,33.8c0,0.6-0.2,1.2-0.2,1.8c0.8,0.2,1.7,0.4,2.4,0.6C354.2,35.5,353.4,34.6,352.7,33.8z"/>
		<path class="st1" d="M346.3,239.1L346.3,239.1c-0.4-3.3-0.7-6.6-1-9.8c-0.4-1-0.9-2-1.4-3c-0.9,0.1-1.8,0.1-2.7,0.3
			c-2.8,0.8-5.7,1.7-7.9,3.1c2.3-1.7,5.5-2.6,8.6-3.5c-4-0.5-7.9-1.1-11.9-1.6c0.6,4.8-3,6.3-7.1,7.3c-1.3,0.4-2.6,0.7-3.9,1.1
			c-0.9,0.1-1.7,0.3-2.6,0.4c-1.6,1.3-3.2,2.6-4.8,3.9c1.4,0.4,2.8,0.7,4.2,1.1c0.9-0.1,1.8-0.2,2.7-0.3c5.7-0.3,10.2-0.1,13.3,0.2
			c2.2,0.2,6.3,0.7,12.1,0.8C344.9,239.1,345.7,239.1,346.3,239.1z"/>
		<path class="st1" d="M246.5,129.7L246.5,129.7c-1.7-1.8-3.5-3.7-5.2-5.5c-4.4,3.2-8.8,6.4-13.1,9.7c-1.2,1.3-2.5,2.7-4.5,4.9
			c6.5,0.5,12.3,1.5,18,1.5c-5.7,0-11.6-1-18.1-1.5c2-2.2,3.3-3.6,4.5-4.9c-1.3-0.6-3.7-1.4-6.7-1.1c-1.7,0.1-3.1,0.5-4.1,0.9
			c-0.2,0.8-0.5,2.9,0.5,5c0.4,0.9,1,1.6,1.4,2.1c0.5,0.4,1,0.9,1.5,1.3c6.6,0.2,13.2,0.3,19.8,0.4c1,0.5,2,0.9,3,1.4
			c9.8,1,9.2-5.6,9.9-11.2c-0.8-0.5-1.7-1-2.5-1.4C249.3,130.8,248,130.2,246.5,129.7z M244.3,134.2c-0.4,0.2-0.9,0.6-1.2,0.4
			C243.4,134.7,243.9,134.3,244.3,134.2z M243.7,133.1c-0.2-0.1-0.8,0.3-1.2,0.4C242.9,133.3,243.4,133,243.7,133.1z"/>
		<path class="st1" d="M324.8,231c-1.3,0.4-2.6,0.7-3.9,1.1C322.2,231.8,323.5,231.4,324.8,231z"/>
	</g>
	<g>
		<path class="st1" d="M481.4,129.8c3.1-4.6,6.1-9.4,9.2-14c4.1-1.7,8.2-3.3,12.3-5c6.9-3.3,13.9-6.5,20.8-9.9
			c-0.5-1.3-0.9-2.5-1.4-3.8c-0.8-0.2-1.7-0.5-2.5-0.7c0.3-0.1,0.6-0.2,0.8-0.3c0.6,0.2,1.3,0.4,2,0.6c0.1-0.6,0.3-1.1,0.4-1.7
			c-0.2,0-0.4,0.1-0.6,0.1c1-5,2-10,2.8-14.8c-1.8,0.3-3.5,0.5-5.3,0.8c0,0,0-0.1-0.1-0.1c1.8-0.3,3.4-0.5,5.2-0.8
			c0.5-1.8,1-3.5,1.6-5.3c0.1-0.1,0.2-0.1,0.3-0.2c-0.3-0.8-0.7-1.6-1.1-2.4c0.1,0,0.2-0.1,0.3-0.1c0-0.4-0.1-0.9-0.2-1.3
			c-0.6-1.7-1.1-3.1-1.6-4.6c-0.1-0.8-0.2-1.7-0.2-2.5c0-1.8,0-3.7,0-5.5c-0.3-9.1-7.2-17.9-16.4-20.4c-2.6-0.7-5.3-1.3-7.9-1.9l0,0
			c-1-2.6-1-6.2-5.9-5l-0.1-0.2l0,0c-0.3-1.1-0.5-2.2-0.8-3.3c-2-1.7-5.3-3.3-6.3-5.1c1.1,1.8,4.3,3.4,6.3,5.1
			c0.2-5.3,2.3-11.3,0.2-15.7c-4.6-9.6-20-10.6-28.6-2.9c-1.3,3.8-2.7,7.6-4,11.4c0.4,1,1.6,2.4,1.2,3.1c-3.6,7,3.4,11.5,5.4,17
			c0.7,1.9,6.8,2.1,10.5,3.1c0.2-0.2,0.5-0.4,0.7-0.6c-0.6-2.4-1.1-4.8-1.6-7.2h0.1c0.5-1.1,1.1-2.3,1.7-3.6
			c-3.7-1.4-7.3-2.8-11-4.3c0.5,3.5,0.9,7.1,1.4,10.6h-0.1c-0.5-3.6-0.9-7.1-1.4-10.6c0.1-2.4-0.3-4.9,0.5-7
			c0.4-1.1,2.8-1.7,4.3-2.5l0.1-1.6h0.1c0,0.5-0.1,1.1-0.1,1.6c-1.5,0.8-3.9,1.4-4.3,2.5c-0.8,2.2-0.4,4.6-0.5,7
			c3.7,1.4,7.3,2.8,11,4.3c0.9,0,1.7-0.1,2.6-0.1c-0.8,0.1-1.7,0.1-2.6,0.1c-0.6,1.2-1.1,2.4-1.7,3.7c0.6,2.4,1.1,4.8,1.6,7.2
			c-0.2,0.2-0.5,0.4-0.7,0.6c0.5,0.8,1,1.7,1.5,2.5c0.7,0.4,1.4,0.8,2.1,1.3c-1-1.5-2-2.9-2.9-4.4c1,1.5,2,2.9,2.9,4.4
			c1.6-1.9,3.2-3.7,4.8-5.6c2.5-3.7,5-7.4,7.5-11.1c-2-0.5-4-1.1-5.9-1.6c2,0.5,4,1.1,5.9,1.6l0.1,0.1c-2.5,3.7-5,7.4-7.5,11.1
			c-1.6,1.9-3.2,3.7-4.8,5.6c-0.7-0.4-1.4-0.8-2.1-1.3c-0.6,0.9-1.3,1.8-1.9,2.8c-1.6,6-3.1,12-4.7,17.9l0,0c1.6-6,3.1-12,4.7-18
			c-3.3,4.6-6.5,9.2-9.7,13.8c-2.6,2.1-5.1,4.3-7.7,6.5c-0.1,0.8-0.2,1.6-0.2,2.4c0-0.7,0-1.5,0.2-2.4c-1.4,2.3-2.8,4.6-4.2,6.9
			c-2.1-3.8-0.4-10.5-8.4-9.6c-2.8,0.3-6.3,1.6-7.7,3.5c-2.3,3.2-3.7,7.5,2.2,9.4c4.2,1.5,5.7,4,4.6,7.9c-2.7,5.7-0.9,9.3,6,10.3
			c5.7,0.8,11.4,1.3,17.1,2c0-0.2,0-0.4,0-0.5c0.3,0,0.6,0,0.8,0c-0.3-0.9-0.6-1.8-1-2.7c0-0.3,0-0.5,0-0.8c0.5,1.3,0.9,2.4,1.4,3.7
			c1.6,3.6,3.4,7.1,5.2,10.5c8.4-1.8,16.8-3.5,25-5.5c2.6-0.6,4.9-2,7.4-3c-1.1-1.9-2.3-4-3.4-5.9c0.2,0,0.4,0,0.5,0
			c1.1,2,2.3,4,3.3,6c0.8-0.5,1.7-1,2.5-1.4c-0.7,0.4-1.5,0.9-2.2,1.3c-2.5,1.1-4.8,2.5-7.5,3.1c-8.4,2-16.9,3.7-25.4,5.6
			c-2.7,7.7-5.6,15.4-8,23.1c-1,3.3-4.9,7.1,1,10.7c2-3.5,3.6-7.1,6-10.3C476.7,132,479.3,131.1,481.4,129.8z M484.5,32
			c-0.9,0.1-1.8,0.1-2.8,0.1L484.5,32z M477.6,16.7c3.6-1.3,5.8-1.2,7.2,0.4C483.4,15.5,481.1,15.5,477.6,16.7
			c-1.3,0.6-3.2,0.2-4.8,0.1C474.5,16.8,476.2,17.1,477.6,16.7z M484.6,32.1c-0.6,0-1.1,0-1.7,0.1c0.1,0.4,0.1,0.7,0.2,1.1
			c0,0,0,0-0.1,0.1c-0.1-0.4-0.1-0.8-0.2-1.3h-0.7h-0.5l0,0h0.6h0.7C483.5,32.1,484,32.1,484.6,32.1l0.1-0.1c1-0.9,2-1.9,3.1-2.8
			l0,0C486.7,30.2,485.6,31.1,484.6,32.1z M501.4,68.2L501.4,68.2L501.4,68.2L501.4,68.2z M496.9,74.9c0,0.1,0,0.1,0,0.2
			c0-0.1-0.1-0.1-0.1-0.2C496.8,74.9,496.8,74.9,496.9,74.9z M497.6,85c-0.4,0.2-0.9,0.5-1.2,0.4C496.7,85.5,497.2,85.1,497.6,85z
			 M502.9,86L502.9,86c-0.6,0.7-1.2,1.4-1.8,2.1C501.6,87.4,502.3,86.7,502.9,86z M497,72.4L497,72.4c0-0.1,0.1-0.1,0.1-0.2
			c2.1,0.2,4.1,0.4,6.6,0.7c-0.7-1.3-1.2-2.5-1.8-3.7c0.6,1.2,1.2,2.5,1.9,3.9C501.2,72.8,499.1,72.6,497,72.4z M503.7,53.8
			c-0.2,1.2-0.4,2.3-0.6,3.5c0.1-1,0.3-2,0.5-3c-0.4-0.3-0.8-0.7-1.2-1.1c-2,2.8-4,5.6-6,8.4c-0.9-0.5-1.7-1-2.6-1.4
			c0-0.1,0-0.1,0-0.2c0.8,0.5,1.6,0.9,2.5,1.4c2.1-2.9,4.1-5.8,6.2-8.7C502.9,53,503.3,53.4,503.7,53.8z M488.8,46.6
			c2.4,1.2,4.9,2.4,7.1,3.4c0,0.2-0.1,0.3-0.1,0.5c-2-0.8-4.3-1.9-6.5-3c-3.1,5.5-6.2,11-9.3,16.4c2.2,3.7,4.4,7.3,6.7,11
			c-0.2,0-0.4,0-0.6,0c-0.5,0.5-0.9,1.1-1.4,1.7s-0.9,1.2-1.4,1.7l0,0l0,0c0.5-0.5,0.9-1.1,1.4-1.7s1-1.1,1.4-1.7
			c-2.3-3.8-4.6-7.6-6.9-11.4C482.4,57.8,485.6,52.1,488.8,46.6z M485.5,79.4L485.5,79.4L485.5,79.4L485.5,79.4z M478.7,65.2
			c-0.5,1.8-1,3.6-1.6,5.5C477.7,68.8,478.2,67,478.7,65.2z M467.8,88.8c-0.5,0.5-0.8,0.9-1.1,1.3C467,89.6,467.3,89.2,467.8,88.8
			c0-0.1,0-0.2,0-0.2c2.6,2.3,5.2,4.6,7.8,6.9c0.2-0.1,0.5-0.1,0.7-0.1l-0.1,0.1c-0.3,0-0.5,0.1-0.7,0.1
			C472.9,93.3,470.3,91,467.8,88.8z M469,95.4L469,95.4c-0.8-0.3-1.5-0.6-2-1.1C467.5,94.7,468.2,95.1,469,95.4z M448.6,90.1
			L448.6,90.1L448.6,90.1L448.6,90.1L448.6,90.1z M469.2,95.5L469.2,95.5c0.1-0.1,0.2,0,0.3,0v0.1C469.3,95.6,469.3,95.6,469.2,95.5
			z M478.2,97.2l-0.1-0.1c-0.1-0.1-0.2-0.2-0.3-0.3c0-0.8,0-1.5-0.1-2.3c0.2-0.2,0.4-0.3,0.6-0.5l0.1-0.1c4.7-0.1,9.3-0.2,14-0.3
			c0.9,0,1.7,0,2.6,0.1c5.2-0.8,10.3-1.6,15.4-2.4c1.5-1.8,3-3.5,4.4-5.3c0.1,0.1,0.2,0.2,0.4,0.3c-1.4,1.6-2.7,3.2-3.9,4.7
			c0,0.4,0,0.7,0,1.1c-0.3,0.2-0.5,0.4-0.8,0.6c0-0.4,0-0.7,0-1.2c-5.2,0.8-10.3,1.6-15.5,2.5c2.2,0.6,4.3,1.2,6.4,1.8l0,0
			c-2.2-0.6-4.3-1.2-6.4-1.8c-0.9,0-1.7,0-2.6-0.1c-4.7,0.1-9.3,0.2-14,0.3l-0.1,0.1c0,1,0,1.9,0.1,2.9c1.1,1.3,2.2,1.9,3.3,2
			C480.5,99.1,479.3,98.5,478.2,97.2z M482.7,97.2c2,0,4.1,0,6.1,0.1l0,0C486.8,97.3,484.7,97.2,482.7,97.2z M513.4,98.5L513.4,98.5
			C513.3,98.5,513.4,98.5,513.4,98.5c-0.4,0.5-0.9,0.9-1.3,1.3c-0.1,0.1-0.2,0.1-0.2,0.1C512.4,99.4,512.9,98.9,513.4,98.5z"/>
		<path class="st1" d="M556.9,190.3c-0.2-0.8-0.9-3.6-3.5-5.2c-0.6-0.4-1.3-0.6-1.8-0.8c-0.3,0-0.6,0.1-0.9,0c-0.3,0-0.5,0-0.8,0
			c-0.4,2.3-0.8,4.6-1.2,6.8c-0.6,1.8-1.2,3.6-1.7,5.5c1.9,3.8,3.7,7.6,5.6,11.4c0.3-0.1,0.6-0.1,1-0.2c-0.4,0.1-0.8,0.2-1.2,0.3
			c-1.9-3.8-3.7-7.6-5.6-11.4l0.1-0.1c0.6-1.7,1.2-3.5,1.6-5.3c0,0,0,0,0.1,0c0.4-2.4,0.8-4.7,1.3-7c-8.7-3.6-17.4-6.9-26-10.7
			c-7.9-3.6-7.3-5.3-4.4-12.7c5.8-14.6,15.6-28.7,10.6-45.5c-0.7-2.2-1.8-4.1-2.8-6.2c0,0,0-0.1,0.1-0.1c-0.1-0.8-0.3-1.6-0.4-2.4
			c-0.4-0.6-0.8-1.2-1.2-1.7c-0.8-1.4-1.5-2.7-2.2-3.9c-6.9,3.3-13.8,6.5-20.7,9.8c0,0-0.1,0-0.1-0.1c-4.1,1.7-8.2,3.4-12.3,5.1
			c2.1,1.5,4.2,3.1,6.3,4.6c3.3-2.1,6.6-4.2,10.4-6.7c0,0,0,0,0.1,0.1c-3.9,2.5-7.2,4.6-10.5,6.7c-1.1,2.7-2.2,5.4-3.2,8.1
			c2.9,1,5.8,1.6,8.6,1.6c-2.9,0-5.8-0.6-8.7-1.6l0,0c1.1-2.7,2.2-5.4,3.2-8.1c-2.1-1.5-4.2-3.1-6.3-4.6c-3.1,4.6-6.1,9.3-9.2,13.9
			c-2,4.7-3.9,9.5-5.9,14.2h0.1c0.6,5.5,1.1,11,1.7,16.5c2,0.4,3.9,0.9,5.9,1.3c1.2-3.6,2.9-7.2,3.5-10.9c0-0.2,0-0.3,0-0.5
			c0,0.2,0,0.5,0,0.7c-0.6,3.7-2.3,7.3-3.5,10.9c0,0.3,0,0.7-0.1,1c0-0.4,0-0.8,0.1-1.1c-2-0.4-3.9-0.9-5.9-1.3
			c-0.1,7.2-0.5,14.5-0.3,21.7c0.1,2.9,1.1,5.7,1.8,8.6h-0.1l0,0l0,0c0.2,0.3,0.4,0.5,0.7,0.7c0.2,0.2,0.5,0.5,0.7,0.7
			c0.5,2.3,1,4.6,1.4,6.9c0.1,1.8,0.2,3.6,0.4,5.5c0.9,2.3,1.9,4.7,2.9,7c3.8,0.8,7.5,1.5,11.3,2.2c0,0,0,0.1-0.1,0.1
			c-3.8-0.8-7.5-1.5-11.3-2.2c0.6,2.7,1.1,5.4,1.7,8c0.6,1,1.1,1.9,1.7,2.9c0.1,3.2,0.2,6.3,0.4,9.5c-2.3,0.8-4.7,1.7-7,2.7
			c2.7,1.7,5.5,3.4,8.2,5.1c7.8-0.2,15.5-0.4,23.3-0.6c1,0,3.2-0.1,4.2-0.1c0.2-0.5,0.4-1,0.5-1.4c0-1-0.1-1.9-0.1-2.9
			c0.3-0.7,0.5-1.4,0.8-2.1c0.3,0,0.6-0.1,0.9-0.1c0.1-1.4,0.2-2.7,0.3-4.1c-1-3.3-2-6.5-3-9.8c-0.1-0.1-0.1-0.1-0.2-0.2
			c-0.5-1.4-0.9-2.8-1.4-4.1c-5.3-6.6-10.6-13.2-15.9-19.9c0.3-0.3,0.6-0.6,0.9-0.8l0,0c-0.3,0.3-0.6,0.6-0.9,0.8
			c5.3,6.6,10.6,13.2,15.9,19.9c0-4.2,0-8.4,0.1-12.5c2,0.9,4.1,1.8,6.1,2.7c-1.5-2-2.7-4.3-4.6-5.9c-2.2-2-5-3.4-7.6-5.1
			c-2.1-1.1-4.2-2.2-6.3-3.2c0,0,0,0,0-0.1c2.1,1.1,4.2,2.1,6.3,3.2c7.5-0.4,15-0.7,22.5-1.1c-7.5,0.4-15,0.7-22.5,1.1
			c2.6,1.7,5.3,3.1,7.6,5.1c1.9,1.6,3.1,3.9,4.6,5.9l0.1,0.1c1.5,1.3,3.1,2.6,4.6,3.9c4.3,4,7.9,2.7,11.2-1.1c1.4-1.6,2.8-3,4.2-4.6
			c1.2,2.9,2.7,5.7,3.3,8.6c0.5,2.6-0.1,5.4-0.2,8.1c-0.2,2.1,0.9,4,2.5,4.6c2.1,0.8,4.9-0.5,5.7-3.1c0.8-2.7,1.7-5.7,2.3-8.9
			c0.7-3.5,1.2-6.8,1.6-9.8C556.6,198.5,556.8,194.4,556.9,190.3z M486.1,205.5L486.1,205.5c3-0.8,6.1-1.4,9-2c0,0,0,0,0,0.1
			C492.1,204.3,489.1,204.9,486.1,205.5z M503.3,177.5L503.3,177.5L503.3,177.5L503.3,177.5z M487.6,181.3L487.6,181.3L487.6,181.3
			L487.6,181.3z M492.6,142.8c0,0,0-0.1-0.1-0.1c0.7-0.2,1.4-0.4,2.1-0.6c-0.2-0.7-0.4-1.3-0.6-2c0.2,0.7,0.5,1.4,0.7,2.1
			C494,142.4,493.3,142.6,492.6,142.8z M493.5,130.5c0,0.4,0,0.7-0.1,1.1c-0.3,1-0.8,2-1.2,3c0,0,0,0,0-0.1c0,0,0,0-0.1,0
			c0.4-1,0.9-1.8,1.2-2.9C493.4,131.2,493.5,130.9,493.5,130.5z M484.8,141.5c-0.1,1.4-0.1,2.7-0.2,4.1c0.1,0.4,0.3,0.8,0.5,1.1
			c-0.2-0.4-0.4-0.8-0.6-1.2h-0.1c0.1-1.4,0.1-2.6,0.2-4c-0.2-1.9,0-3.4,0.7-4.6c-0.6,1.1-0.8,2.6-0.6,4.5c1.4-1.1,2.9-2.2,4.6-3.6
			l0.1,0.1C487.6,139.3,486.2,140.4,484.8,141.5z M482.3,169.9c0.2,0,0.3-0.2,0.4-0.5c-0.1,0.4-0.2,0.6-0.4,0.6
			c-2.2,0.4-2.9,1.2-3,2.1C479.3,171.1,480,170.3,482.3,169.9z M504.6,210.4c1,0.7,1.9,1.4,2.9,2.1
			C506.5,211.8,505.5,211.1,504.6,210.4z M515,202.3c-12.7-8.1-25.4-16.2-38.1-24.3C489.5,186.1,502.3,194.2,515,202.3z
			 M503.5,188.9c0.5-2.8-4.5-2.5-5.2-4.6l0,0C499.1,186.3,504.2,186,503.5,188.9z M554.7,207.6c0.3-0.1,0.6-0.2,1-0.3l0,0
			C555.4,207.4,555,207.5,554.7,207.6z"/>
		<path class="st1" d="M525.7,209c-1.5-1.3-3-2.7-4.6-3.9C522.6,206.4,524.2,207.7,525.7,209z"/>
	</g>
	<path class="st1" d="M199.2,53.9c-0.2,0.3-0.3,0.6-0.4,0.9C198.9,54.5,199,54.1,199.2,53.9c2.6-6.1-3.4-7.2-6.7-9.9
		c-5.9,0.1-11.9,0.3-17.8,0.4l0,0c6.1-0.2,11.9-0.3,17.8-0.4c-0.2-1.8-0.5-3.5-0.7-5.3c-2.1-0.5-3.3-1.2-4-2c-0.3,0.1-0.7,0.3-1,0.4
		c0.3-0.1,0.7-0.3,1-0.4l0,0c0.1,0,0.1,0,0.2-0.1l0,0c0.1,0,0.1-0.1,0.2-0.1c-0.3-0.6-0.7-1.2-1-1.8c0-1.6,0.9-3.4,1.6-5.1
		c2.6-5.8,4-11.2-1.1-16.7c-5-5.3-11.7-5.1-18-4.3c-3.2,0.4-8.6,0.9-7.9,6.4v0.1c0,0,0,0,0.1,0c-0.3,1-0.6,1.8-0.9,2.8l0.1,0.1v-0.1
		c2.6,3,3.8,5.6,1.6,9.8c-1.7,3.2-0.3,7.6-0.3,12.8c5.1-1.3,8.7-2.3,12.4-3.3c0.5,1.5,1,2.8,1.5,4.1c1.2-0.5,2.4-1,3.6-1.4
		c-1.2,0.5-2.5,1-3.7,1.5c-0.5-1.3-1-2.7-1.5-4.1c-3.7,1-7.3,1.9-12.4,3.3c0-5.1-1.3-9.6,0.3-12.8c2.2-4.2,1-6.8-1.6-9.8l-0.1-0.1
		c-0.9,0.7-1.7,1.3-2.6,2c-0.1,4.5-0.5,9-0.1,13.5c0.5,5.4,2.4,10.2,10.1,10.1c0.8,0,1.6,1.6,2.4,2.5c-1.7,1.8-3.3,3.5-5,5.2v0.1
		c-1.6,1.4-3.3,2.9-4.9,4.4c-9.7-2.7-12.2-1.6-15.9,7c-0.3,0.6-0.2,1.6-0.7,1.9c-8,4.9-3.1,9.3,0.7,13.7h-0.1
		c-0.6,1.6-1.3,3.1-2,4.6l0,0c-2-0.7-4-1.7-6.1-2.1c-2-0.4-4-0.2-6-0.3c-0.1-0.1-0.2-0.2-0.3-0.3c-5.4-2.5-11-5.3-16.6-8.1
		c-5.1-1.8-10.1-3.7-15.2-5.6c-5.7-2.7-11.4-5.5-17.2-8.2c-7.5-1.8-14.9-3.7-22.4-5.5l0,0c-2.6-1.4-5.1-2.9-7.7-4.2
		c-5.1-3.3-10.2-6.6-15.2-9.9c-0.1-1.7-0.3-3.4-0.4-5.1c-0.1-1.5,0.5-2.9-0.3-4c-0.4-0.5-0.9-0.7-1.2-0.8c-1-0.2-2.5-0.4-3.9,0.3
		c-3,1.7-2.8,6.5-2.8,8c0.2,4.9,3,8.3,4.3,9.7c-0.4-2.6-0.8-5.3-1.3-8.4c0.5,3.1,0.9,5.7,1.3,8.3c2.8,5.2,2,12.6,10.6,14.2
		c4.1,0.9,8.1,1.8,12.2,2.7c0.5,0,1-0.1,1.5-0.1l0,0c0,0,0,0,0.1,0c-0.5,0-1,0.1-1.5,0.2c1.1,3.2,2.2,6.3,3.3,9.5
		c3,2.3,5.9,4.5,8.9,6.7c0,0,0,0-0.1,0c2.5,2.2,5,4.4,7.4,6.7c6.3,4.2,12.4,8.4,18.5,12.6c4.8,2.7,9.7,5.4,14.5,8.1
		c1.2,0.2,2.4,0.3,3.6,0.5c0-1.1,0.4-2.7-0.2-3.3c-4.9-4.8-10-9.4-15.1-14c-4.1-3.7-8.6-6.5-13.6-8.3c5,1.8,9.6,4.5,13.7,8.3
		c5.1,4.6,10.2,9.2,15.1,14c0.6,0.6,0.2,2.2,0.2,3.3c0,0.4,0.1,0.8,0.1,1.2c4.7,2.3,9.4,4.6,14.1,6.9c2.3,0.6,4.7,1.2,7,1.8
		c0-1,0.1-2,0.1-3l-0.1-0.1c1.3-0.2,2.7-0.5,4.4-0.8c-0.5-0.8-0.9-1.5-1.4-2.2c0.5,0.8,1,1.6,1.6,2.5c-1.8,0.3-3.1,0.6-4.5,0.8
		c0,1-0.1,2-0.1,3c1.1,4.8,2.1,9.7,3.2,14.5c0.9,3.4,2,6.8,2.9,10.2c0.2-1,0.5-1.7,0.8-2.3c-0.3,0.5-0.5,1.2-0.7,2.1
		c1,2.7,2.1,5.5,3.1,8.3c4.5,6,9.1,12,13.6,18v-0.1c0.8,1.1,1.7,2.2,3.3,4.3c-0.1,0-0.2,0-0.3,0c-1.5-2-2.3-3-3-4.1
		c-4.5-6.1-9.1-12.1-13.6-18.1c-0.5,5.5-1.1,10.9-1.6,16.4l0,0c-0.4,3.2-0.8,6.4-1.2,9.5c4.9,3.6,9.8,7.3,14.8,10.9
		c-0.1,0.1-0.2,0.2-0.3,0.4c-4.9-3.6-9.8-7.3-14.7-10.9c1.1,5.9,2,12,2.9,18c0.1,2.3,0.2,4.6,0.3,6.9c0.8,1.9,1.5,3.8,2.1,5.4
		c3.9,0,7.4,0,10.9,0c-0.9,5.6-1.7,11.1-2.5,16.7v0.1c-2.6,0.9-5.2,1.7-7.8,2.6c-2.4-1.3-4.5-1-5-0.1c-0.4,0.7,0.1,1.8,0.2,2.1
		c0.5,0.5,1.1,1.2,1.9,1.8c0.9,0.7,1.8,1.3,2.5,1.7c3.5,0.9,7.4,1.9,11.9,3c2.5,0.6,5.3,1.2,8.4,0.1c1-0.3,1.7-0.8,2.2-1.1
		c0.5-3.3,0.8-5.3,0.7-5.3s-0.7,3.5-0.7,3.4c0.5-0.7,0.7-1.8,0.6-3.2c-0.2-1.7-0.5-3.3-0.8-4.9c-0.2,0.2-0.4,0.3-0.6,0.5
		c0.2-0.2,0.5-0.4,0.7-0.6c-0.3-2.5-0.5-5-0.7-7.6c-1-1.9-2-3.9-3-5.9c-0.9,1.7-1.9,3.5-2.8,5.2c-0.6,1.3-1.3,2.7-1.9,4v-0.1
		c0.6-1.3,1.3-2.7,1.9-4c0.9-1.7,1.9-3.5,2.8-5.2c1,1.9,2,3.9,3,5.9c0.7-2.6,1.4-5.4,2.1-8.2c0.4-3.4,0.8-6.9,1.1-10.4
		c0-2.3-0.1-4.6-0.1-6.9c-0.1-1.8-0.3-3.6-0.2-5.4c0.5-6.2,2.6-12.2-2.5-18.4c-1.9-2.2,1.5-8.1,2.5-12.4c1.1-4.4,2.1-9,3.2-13.4l0,0
		c1.5-4.6,3-9.3,4.5-13.9c-4.5-0.5-9-0.9-13.6-1.4c0,0.5,0,0.9-0.1,1.3l0,0l0,0v0.1l0.1,0.1c0.4,0.7,0.7,1.5,1.1,2.2
		c0.3-0.2,0.5-0.4,0.9-0.5l0,0c-0.3,0.2-0.6,0.4-1,0.6c-0.4-0.8-0.8-1.6-1.2-2.4c-4.4-1.1-8.8-2.2-14.4-3.7c0.1,0,0.1-0.1,0.2-0.1
		c5.6,1.4,10,2.6,14.3,3.7c0-0.5,0.1-1,0.1-1.4c4.5,0.5,9.1,0.9,13.6,1.4c2-1.9,4.1-3.7,6.1-5.6c0.6-3.2,1.1-6.3,1.7-9.5
		c-2.1-1.9-4.2-3.8-6.3-5.6c-4.5,2.4-8.8,5.4-13.6,7.1c-3.8,1.3-8.2,0.9-12.3,1.3l0,0l0,0c-3.5-2-7.1-4-10.6-6
		c-0.3,0.9-0.7,1.9-1.1,2.9c-2.3-1.8-4.4-3.4-6.4-5c-0.4,0.3-0.8,0.6-1.2,0.9c0.1,0.2,0.3,0.4,0.4,0.6c-0.2-0.3-0.4-0.6-0.6-0.9
		c0.4-0.3,0.8-0.6,1.2-0.9c2.1,1.6,4.1,3.2,6.4,5c0.4-1,0.7-1.9,1-2.7c0.1,0,0.2,0.1,0.3,0.1c0-0.1,0-0.1,0.1-0.2
		c3.4,2,6.9,3.9,10.3,5.8c4.1-0.4,8.6,0,12.3-1.3c4.8-1.7,9.1-4.7,13.6-7.1c0.1,0.1,0.2,0.1,0.2,0.2c2.1,1.9,4.2,3.8,6.3,5.6
		c1.3-2.6,2.6-5.4,3.9-8.1l0.1,0.1c6.6-1.5,10.6-5.5,12.3-11.4C204.5,79.6,206.8,66.6,199.2,53.9z M161.9,15.1
		c0.2,0,0.4-0.1,0.5-0.1C162.3,15,162.1,15,161.9,15.1L161.9,15.1z M155.9,166.1c0.1-0.2,0.1-0.4,0.2-0.5
		C156,165.7,155.9,165.9,155.9,166.1z M158,219.8c0.9,2.6,1.9,5.2,3,8.3c1.1-0.8,1.9-1.5,2.7-2c-0.8,0.6-1.7,1.3-2.8,2.1
		c-1.1-3.1-2-5.7-3-8.3C157.9,219.9,158,219.8,158,219.8L158,219.8z M155,205.9C155,205.9,155,206,155,205.9
		c-2.6-0.6-5.2-1.2-7.9-1.9c-1.1-4.7-2.3-9.7-3.6-15c0.1,0,0.2,0,0.3,0.1c1.3,5.1,2.4,10,3.5,14.5c2.7,0.7,5.3,1.4,7.9,2
		c2.3,0.6,4.6,1.1,6.9,1.5C159.8,206.7,157.4,206.3,155,205.9z M147.4,141.1c0,8.5,0.1,17,9.5,21.8c0,0.1,0,0.1-0.1,0.2
		C147.4,158.3,147.4,149.7,147.4,141.1L147.4,141.1z M165.9,94.1L165.9,94.1c1,1.8,1.9,3.4,2.8,5.2l0,0L165.9,94.1z M175.2,92.5
		c0.4,0.5,0.7,1,1,1.5C175.9,93.5,175.5,93,175.2,92.5z M168.4,79c0.7,0.6,1.7,1,3.3,1.2c-0.1-0.2-0.2-0.4-0.2-0.6
		c0.1,0.2,0.2,0.3,0.2,0.5v0.1v0.1C170.1,80.1,169.1,79.7,168.4,79z M170.4,77.1c-0.1-0.3-0.3-0.6-0.4-0.9l0,0
		C170.2,76.5,170.3,76.8,170.4,77.1z M172.9,61.1c-0.2-0.5-0.9-0.8-1.5-1.4C172.1,60.3,172.8,60.6,172.9,61.1
		C172.9,61,172.9,61.1,172.9,61.1z M170.9,60.5c-0.2,0.4-0.4,0.7-0.4,0.9C170.5,61.3,170.7,61,170.9,60.5z M169.7,64.5
		c0.3,2.8,0.4,4.3,0.5,5.8c3.9,0.5,7.1,3.5,7,6.2c0-2.6-3.1-5.5-7-6.1C170.1,68.9,169.9,67.3,169.7,64.5c-1.9,1.6-3,2.5-4.1,3.4
		c0.5,0.8,1,1.7,1.5,2.7c-0.5-0.9-1-1.8-1.5-2.7v-0.1C166.7,66.9,167.8,66,169.7,64.5z M165.5,76c0.5-0.9,1.1-1.9,1.6-2.8
		c0,0.1,0,0.2,0,0.3c-0.5,0.9-1,1.8-1.5,2.6l0,0c-2.6,0.8-5.1,1.8-7.6,2.7c-1,0.9-2,1.8-3,2.8c2,3.2,4.1,6.4,6.1,9.6c0,0,0,0-0.1,0
		h-0.1c-2-3.2-4-6.4-6-9.6c0,0,0,0,0-0.1c1.2-1,2.1-1.9,3.1-2.7C160.5,77.9,163,76.9,165.5,76z M154.7,74.6
		c-2.2,0.8-4.4,1.7-6.5,2.5C150.4,76.2,152.5,75.4,154.7,74.6z M78.7,76.6c2.3,0.8,4.6,1.6,6.6,2.6c-2-0.9-4.2-1.8-6.4-2.5
		c-1-0.3-1.9-0.7-2.9-1.1C76.9,76,77.8,76.3,78.7,76.6z M119.5,105.4c-0.1,0-0.1-0.1-0.2-0.1c0.4-0.4,0.8-0.8,1.2-1.1
		c-1.3-3.8-2.6-7.7-3.9-11.6c0.5-0.1,1.1-0.2,1.6-0.4l0.1,0.1c-0.5,0.1-1,0.2-1.5,0.4c1.3,3.8,2.6,7.7,3.9,11.6
		C120.3,104.7,119.9,105.1,119.5,105.4z M194.8,61.9c-2.3,1-3.6,4.4-4.7,6.9c-2.3,5.7-3.8,11.7-6.2,17.3c-2,4.6-5.5,4.8-9.1,1.1
		c-0.5-0.5-1-0.9-1.5-1.4s-1-0.9-1.5-1.4v-0.1c0.5,0.5,0.9,0.8,1.4,1.3c0.6,0.6,1.1,1,1.6,1.5c3.6,3.8,7.1,3.6,9.1-1.1
		c2.4-5.7,3.9-11.6,6.2-17.3C191.1,66.2,192.5,62.8,194.8,61.9c1.7-0.9,2.5-1.8,2.9-2.9C197.3,60.1,196.5,61.1,194.8,61.9z"/>
	<g id="Capa_4">
	</g>
	<path class="st2" d="M484.2,152.6c-1.6,4-3.2,8.5-4.6,13.4c-1.2,4.2-2.1,8.2-2.7,11.9"/>
	<polygon class="st3" points="594.7,134.6 594.7,134.6 594.7,134.6 	"/>
	<path class="st4" d="M515.7,216.5c-0.3-0.9-0.5-1.6-0.7-2.1c-5.3-6.6-10.6-13.2-15.9-19.9c0.3-0.3,0.6-0.6,0.9-0.8l0,0
		c-0.3,0.3-0.6,0.6-0.9,0.8c5.3,6.6,10.6,13.2,15.9,19.9c0-4.2,0-8.3,0.1-12.4c-0.1-0.3-0.3-0.6-0.4-1c-0.3-0.7-0.6-1.4-0.8-2.1
		c-4.9-4-10-7.5-15.1-11.2c-4.5-3.2-8.6-7-10.4-12.4c-2.2-6.8-1.3-14.6-0.4-21.5c1.1-7.6,2.6-15.2,3.9-22.8c0.7-4,1.8-8,3.5-11.8
		c-1.4-1-2.8-2.1-4.3-3.1c-0.6,0.4-1.1,0.9-1.7,1.3c-2.7,4-5.3,8.1-8.1,12.2c-2,4.7-3.9,9.5-5.9,14.2h0.1c0.6,5.5,1.1,11,1.7,16.5
		c2,0.4,3.9,0.9,5.9,1.3c1.2-3.6,2.9-7.2,3.5-10.9c0-0.2,0-0.3,0-0.5c0,0.2,0,0.5,0,0.7c-0.6,3.7-2.3,7.3-3.5,10.9
		c0,0.3,0,0.7-0.1,1c0-0.4,0-0.8,0.1-1.1c-2-0.4-3.9-0.9-5.9-1.3c-0.1,7.2-0.5,14.5-0.3,21.7c0.1,2.9,1.1,5.7,1.8,8.6h-0.1l0,0l0,0
		c0.2,0.3,0.4,0.5,0.7,0.7c0.2,0.2,0.5,0.5,0.7,0.7c0.5,2.3,1,4.6,1.4,6.9c0.1,1.8,0.2,3.6,0.4,5.5c0.9,2.3,1.9,4.7,2.9,7
		c3.8,0.8,7.5,1.5,11.3,2.2c0,0,0,0.1-0.1,0.1c-3.8-0.8-7.5-1.5-11.3-2.2c0.6,2.7,1.1,5.4,1.7,8c0.6,1,1.1,1.9,1.7,2.9
		c0.1,3.2,0.2,6.3,0.4,9.5c-1.1,0.4-2.3,0.8-3.5,1.3c-1.6,0.6-3.2,1.3-4.7,2c-1.2,0-2.3,0.9-2.5,2c-0.2,0.9,0.2,1.9,1,2.5
		c3.6,0.3,7.3,0.6,10.9,0.9c5.2-1.1,9.3-1.1,12.1-0.9c3.7,0.3,7.4,0.1,11.1,0.2c0.9,0,4,0.2,4.6-1.2c0.2-0.4,0.2-1.1,0.1-2.6
		c0-0.6,0-1.1,0-1.5c0.3-0.7,0.5-1.4,0.8-2.1c0.3,0,0.6-0.1,0.9-0.1c0.1-1.4,0.2-2.7,0.3-4.1c-0.6-2.1-1.1-3.8-1.5-4.9
		C517.5,221.6,517,220.4,515.7,216.5z M482.4,169.6c-2.2,0.4-2.9,1.2-3,2.1C479.4,170.8,480.1,170,482.4,169.6
		c0.2-0.1,0.3-0.3,0.4-0.6C482.7,169.3,482.6,169.6,482.4,169.6z M484.9,141.1c-0.1,1.4-0.1,2.7-0.2,4.1c0.1,0.4,0.3,0.8,0.5,1.1
		c-0.2-0.4-0.4-0.8-0.6-1.2h-0.1c0.1-1.4,0.1-2.6,0.2-4c-0.2-1.9,0-3.4,0.7-4.6c-0.6,1.1-0.8,2.6-0.6,4.5c1.4-1.1,2.9-2.2,4.6-3.6
		l0.1,0.1C487.7,138.9,486.3,140,484.9,141.1z M486.2,205.2C486.2,205.1,486.2,205.1,486.2,205.2c3-0.8,6.1-1.4,9-2c0,0,0,0,0,0.1
		C492.3,203.9,489.2,204.5,486.2,205.2z"/>
	<path class="st2" d="M667.8,185.1L667.8,185.1L667.8,185.1L667.8,185.1z"/>
	<path class="st4" d="M339.3,119c3.4,2.1,6.8,4.4,8,8.6c0,0.1,0,0.2,0.1,0.2c-0.2-0.1-0.3-0.1-0.3-0.2c-1.2-4.2-4.6-6.5-8.1-8.6
		c-3.1,0.4-6.3,0.6-9.4,0.9c-2.6,0.2-5.1,0.4-7.7,0.5c1.3,0.7,2.6,1.4,3.9,2.1c-1.3-0.7-2.6-1.4-3.9-2.1c-6.9,0.3-13.8,0.1-20.6-1.1
		c1.9,3.8,3.7,7.6,5.6,11.4c8-2.3,16.1-1.6,24.3,0l0,0c2.9,1.1,5.6,2.2,8.5,3.1c1.8,0.6,3.7,0.8,5.5,1.2c1.3-2.3,2.6-4.6,4-7
		c1.8-4.7,3.6-9.3,5.5-13.9c0-0.2-0.1-0.5-0.1-0.7C350.2,116.9,344.8,118.3,339.3,119z"/>
	<path class="st4" d="M312.7,162.8c0.1,1.4,0.2,2.7,0.3,4.1c0.4,0.5,0.8,1,1.2,1.5c-0.2,7.8-0.4,15.6-0.6,23.4
		c0.1,3.2,0.1,6.5,0.2,9.7c0.1,5.1,0.3,10.1,0.4,15.2c0.1,5.2,2.8,7.5,8.4,6.9c2.6-0.3,5.3,0,8,0c3.9,0.5,7.7,1.1,11.5,1.6
		c0.9-0.1,1.7-0.1,2.6-0.2c0.1-2.8,0.1-5.5,0.2-8.2c0-3.1-0.1-6.1-0.1-9.2c0.3-1.3,0.3-2.6,0.3-3.9c-0.1-2.6-0.2-5.2-0.3-7.8
		c-1.3-5.5-2.5-11.1-3.7-16.5h0.1c-2.5-10.6-6.7-21.3,1.4-31.5c0.4-1.4,0.8-2.7,1.3-4.1c-3.3-1.6-6.5-3.3-9.8-4.9
		c0.2-0.3,0.4-0.5,0.6-0.8c3,1.5,5.9,3.1,8.9,4.6c-0.2-1.5-0.5-3-0.8-4.5h0.1c0.7-0.9,1.3-1.8,1.9-2.6c-1.9-0.4-3.7-0.7-5.5-1.2
		c-2.8-0.9-5.6-2.1-8.4-3.1c-8-1.6-15.9-2.3-23.9,0c1,5.1,1.9,10.3,2.8,15.4c0.3-0.7,0.7-1.4,1.7-3.5v2.3c-0.9,1.9-1.2,2.4-1.5,3.1
		c0.4,0.5,0.7,1,1.1,1.6c0,1,0,1.9,0,2.8C311.7,156.3,312.2,159.5,312.7,162.8z M330.5,174c0.1,0.1,0.1,0.1,0.2,0.2l0,0
		C330.6,174.1,330.6,174.1,330.5,174z M331.2,136.1c-0.2,0.1-0.3,0.4-0.5,0.4s-0.4-0.2-0.6-0.3C330.5,136.2,330.9,136.1,331.2,136.1
		z M311,134.2l0.2-0.1c4.5,9.6,9.1,19.1,13.6,28.7c1-0.3,1.9-0.7,2.8-1l0,0c-1.1,0.4-2,0.9-3.1,1.3C320,153.4,315.4,143.8,311,134.2
		z"/>
	<path class="st4" d="M345.9,238.8C345.9,238.8,345.9,238.9,345.9,238.8c0.5-0.6,0.9-1.4,1.2-2.3c1-3.7-1.7-7-2.1-7.5
		c-0.4-1-0.9-2-1.4-3c-0.9,0.1-1.8,0.1-2.7,0.3c-2.8,0.8-5.7,1.7-7.9,3.1c2.3-1.7,5.5-2.6,8.6-3.5c-4-0.5-7.9-1.1-11.9-1.6
		c0.6,4.8-3,6.3-7.1,7.3c-1.3,0.4-2.6,0.7-3.9,1.1c-0.9,0.1-1.7,0.3-2.6,0.4c-1.4-1.1-3.4-0.9-4.4,0.3c-0.8,0.9-1,2.4-0.4,3.6
		c0,0,2.1,0.5,2.1,0.6c0.7,0.2,1.4,0.3,2.1,0.5c0.9-0.1,1.8-0.2,2.7-0.3c4,0.8,8.8,1.5,14.2,1.6C337.4,239.7,342,239.3,345.9,238.8z
		"/>
	<path class="st4" d="M337,130C337,130,336.9,130,337,130c-1.7-1.8-3.5-3.7-5.2-5.5c-4.4,3.2-8.8,6.4-13.1,9.7
		c-1.2,1.3-2.5,2.7-4.5,4.9c6.5,0.5,12.3,1.5,18,1.5c-5.7,0-11.6-1-18.1-1.5c2-2.2,3.3-3.6,4.5-4.9c-4.5-0.8-9-1.5-13.4-2.3
		c0.5,1.6,1.1,3.3,1.6,5c0.9,1.4,1.9,2.8,2.8,4.2c0.5,0.4,1,0.9,1.5,1.3c6.6,0.2,13.2,0.3,19.8,0.4c1,0.5,2,0.9,3,1.4
		c9.8,1,9.2-5.6,9.9-11.2c-0.8-0.5-1.7-1-2.5-1.4C339.8,131.1,338.4,130.5,337,130z M334.7,134.5c-0.4,0.2-0.9,0.6-1.2,0.4
		C333.8,135,334.3,134.6,334.7,134.5z M334.1,133.4c-0.2-0.1-0.8,0.3-1.2,0.4C333.3,133.6,333.8,133.3,334.1,133.4z"/>
	<path class="st5" d="M324.4,230.8c-1.3,0.4-2.6,0.7-3.9,1.1C321.8,231.6,323.1,231.2,324.4,230.8z"/>
	<path class="st2" d="M482.5,238.2"/>
	<path class="st4" d="M163.1,127.9c0-0.5,0.1-1,0.1-1.4c4.5,0.5,9.1,0.9,13.6,1.4l0,0c-8.3-3-17.1-3.5-25.8-4.9
		c-4.7-0.8-9.3-2.3-13.8-4.1c-1.5-0.2-3.1-0.4-4.6-0.8c0,0.2,0,0.3,0,0.5c1.1,4.8,2.1,9.7,3.2,14.5c0.9,3.4,2,6.8,2.9,10.2
		c0.2-1,0.5-1.7,0.8-2.3c-0.3,0.5-0.5,1.2-0.7,2.1c1,2.7,2.1,5.5,3.1,8.3c4.5,6,9.1,12,13.6,18v-0.1c0.8,1.1,1.7,2.2,3.3,4.3
		c-0.1,0-0.2,0-0.3,0c-1.5-2-2.3-3-3-4.1c-4.5-6.1-9.1-12.1-13.6-18.1c-0.5,5.5-1.1,10.9-1.6,16.4l0,0c-0.4,3.2-0.8,6.4-1.2,9.5
		c4.9,3.6,9.8,7.3,14.8,10.9c-0.1,0.1-0.2,0.2-0.3,0.4c-4.9-3.6-9.8-7.3-14.7-10.9c1.1,5.9,2,12,2.9,18c0.1,2.3,0.2,4.6,0.3,6.9
		c0.8,1.9,1.5,3.8,2.1,5.4h10.9c-0.9,5.6-1.7,11.1-2.5,16.7v0.1c-2.6,0.9-5.2,1.7-7.8,2.6c-2.4-1.3-4.5-1-5-0.1
		c-0.4,0.7,0.1,1.8,0.2,2.1c0.5,0.5,1.1,1.2,1.9,1.8c0.9,0.7,1.8,1.3,2.5,1.7c3.5,0.9,7.4,1.9,11.9,3c2.5,0.6,5.3,1.2,8.4,0.1
		c1-0.3,1.7-0.8,2.2-1.1c0.2-1.1,0.3-2,0.4-2.8c0.1-0.4,0.2-0.9,0.2-1.5c0.1-0.6,0.1-1,0.1-1s-0.1,0.1-0.1,0.3v-0.1
		c-0.2-1.7-0.5-3.3-0.8-4.9c-0.2,0.2-0.4,0.3-0.6,0.5c0.2-0.2,0.5-0.4,0.7-0.6c-0.3-2.5-0.5-5-0.7-7.6c-1-1.9-2-3.9-3-5.9
		c-0.9,1.7-1.9,3.5-2.8,5.2c-0.6,1.3-1.3,2.7-1.9,4v-0.1c0.6-1.3,1.3-2.7,1.9-4c0.9-1.7,1.9-3.5,2.8-5.2c1,1.9,2,3.9,3,5.9
		c0.7-2.6,1.4-5.4,2.1-8.2c0.4-3.4,0.8-6.9,1.1-10.4c0-2.3-0.1-4.6-0.1-6.9c-0.1-1.8-0.3-3.6-0.2-5.4c0.5-6.2,2.6-12.2-2.5-18.4
		c-1.9-2.2,1.5-8.1,2.5-12.4c1.1-4.4,2.1-9,3.2-13.4l0,0c1.5-4.6,3-9.3,4.5-13.9c-4.5-0.5-9-0.9-13.6-1.4
		C163.2,127.1,163.2,127.5,163.1,127.9L163.1,127.9L163.1,127.9C163.1,128,163.1,128,163.1,127.9c0,0.1,0.1,0.2,0.1,0.2
		c0.4,0.7,0.7,1.5,1.1,2.2c0.3-0.2,0.5-0.4,0.9-0.5l0,0c-0.3,0.2-0.6,0.4-1,0.6C163.8,129.6,163.4,128.8,163.1,127.9
		c-4.5-1-8.9-2.1-14.5-3.6c0.1,0,0.1-0.1,0.2-0.1C154.3,125.6,158.7,126.8,163.1,127.9z M161.5,228.8c1.1-0.8,1.9-1.5,2.7-2
		C163.4,227.4,162.5,228.1,161.5,228.8c-1.2-3-2.1-5.6-3.1-8.2c0-0.1,0.1-0.2,0.1-0.2v0.1C159.4,223.1,160.4,225.7,161.5,228.8z
		 M155.5,206.6C155.5,206.6,155.5,206.7,155.5,206.6c-2.6-0.6-5.2-1.2-7.9-1.9c-1.1-4.7-2.3-9.7-3.6-15c0.1,0,0.2,0,0.3,0.1
		c1.3,5.1,2.4,10,3.5,14.5c2.7,0.7,5.3,1.4,7.9,2c2.3,0.6,4.6,1.1,6.9,1.5C160.3,207.4,157.9,207,155.5,206.6z M157.4,163.6
		c0,0.1,0,0.1-0.1,0.2c-9.4-4.8-9.4-13.4-9.4-22l0,0C147.9,150.3,148,158.8,157.4,163.6z"/>
</g>
</svg>
