<?xml version="1.0" encoding="utf-8"?>
<!-- Generator: Adobe Illustrator 27.0.0, SVG Export Plug-In . SVG Version: 6.00 Build 0)  -->
<svg version="1.1" xmlns="http://www.w3.org/2000/svg" xmlns:xlink="http://www.w3.org/1999/xlink" x="0px" y="0px"
	 viewBox="0 0 593.2 245.8" style="enable-background:new 0 0 593.2 245.8;" xml:space="preserve">
<style type="text/css">
	.st0{fill:#3C55A2;}
	.st1{fill:#DBE0F2;stroke:#DBE0F2;stroke-miterlimit:10;}
	.st2{fill:#D4DDF1;stroke:#D4DDF1;stroke-miterlimit:10;}
	.st3{fill:#EDEFF9;stroke:#EDEFF9;stroke-miterlimit:10;}
	.st4{fill:#E6EAF7;stroke:#E6EAF7;stroke-miterlimit:10;}
	.st5{fill:#BAC6E5;stroke:#B9C6E5;stroke-miterlimit:10;}
	.st6{fill:#212836;stroke:#212836;stroke-miterlimit:10;}
	.st7{fill:#E6EAF7;}
	.st8{fill:#917573;stroke:#917573;stroke-miterlimit:10;}
	.st9{fill:#3D4253;stroke:#3D4253;stroke-miterlimit:10;}
	.st10{fill:#353947;stroke:#353947;stroke-miterlimit:10;}
	.st11{fill:#C3D1EC;stroke:#C3D1EC;stroke-miterlimit:10;}
	.st12{fill:#DBE0F2;}
	.st13{opacity:0.79;fill:#DBE0F2;enable-background:new    ;}
	.st14{fill:#353947;}
	.st15{fill:#AC8884;stroke:#AD8884;stroke-miterlimit:10;}
	.st16{fill:#3D4253;}
	.st17{fill:#CFBDBF;stroke:#CFBDBE;stroke-miterlimit:10;}
	.st18{opacity:0.79;fill:#C3D1EC;enable-background:new    ;}
	.st19{opacity:0.79;fill:#C8A8A4;enable-background:new    ;}
	.st20{opacity:0.79;fill:#777778;enable-background:new    ;}
	.st21{opacity:0.79;fill:#E6EAF7;enable-background:new    ;}
	.st22{fill:#CDD7EE;stroke:#CDD7EE;stroke-miterlimit:10;}
	.st23{fill:#9E939E;stroke:#9D939E;stroke-miterlimit:10;}
	.st24{fill:#AD9FA9;}
	.st25{fill:#AD8884;}
	.st26{opacity:0.79;fill:#5AA1D6;enable-background:new    ;}
	.st27{fill:#C3D1EC;}
	.st28{fill:#85A0C7;stroke:#85A0C7;stroke-miterlimit:10;}
	.st29{fill:#777778;stroke:#777778;stroke-miterlimit:10;}
	.st30{fill:#AD9FA9;stroke:#AD9FA9;stroke-miterlimit:10;}
	.st31{fill:#B9C6E5;}
	.st32{fill:#CDD7EE;}
	.st33{fill:#D4DDF1;}
	.st34{fill:#CFBDBE;}
	.st35{fill:#EDEFF9;}
	.st36{fill:#CDD7EE;enable-background:new    ;}
	.st37{fill:#E6EAF7;enable-background:new    ;}
	.st38{fill:#C8A8A4;stroke:#C8A8A4;stroke-miterlimit:10;}
	.st39{fill:#85A0C7;}
	.st40{fill:#C3D1EC;enable-background:new    ;}
	.st41{fill:#85A0C7;enable-background:new    ;}
	.st42{fill:#9D939E;enable-background:new    ;}
	.st43{fill:#72B7E6;enable-background:new    ;}
	.st44{fill:#DBE0F2;enable-background:new    ;}
	.st45{fill:#B9C6E5;enable-background:new    ;}
	.st46{fill:#CFBDBE;enable-background:new    ;}
	.st47{fill:#C8A8A4;enable-background:new    ;}
	.st48{fill:#EDEFF9;enable-background:new    ;}
	.st49{fill:#D4DDF1;enable-background:new    ;}
	.st50{fill:#AD8884;enable-background:new    ;}
</style>
<g id="Capa_2">
	<polygon class="st0" points="0,62.7 593.2,82.7 593.2,157.3 0,177.3 	"/>
</g>
<g id="Capa_1">
	<path class="st1" d="M256.5,208.2c0.4-3.5,0.8-7.1,1.2-10.6c-3.4,1.9-6.8,3.8-12,6.7c6.4-11.4-0.7-17.6-4.9-24.7
		c-2.8-1-5.7-2-8.5-3c0,0.5-0.1,1.1-0.1,1.6c0.1,1.5,0.2,3,0.3,4.5c1.5,9.5,3,19,4.5,28.5c0.1,0.6-0.3,1.4-0.5,2
		c-0.9,3.3-1.9,6.7-2.8,10c3,1.5,6.1,3.1,9.1,4.6c0.7,0.1,1.4,0.3,2.1,0.4c2.3,0,4.5,0,6.8-0.1c1.5-5.2,3-10.4,4.5-15.6
		C256.2,211.1,256.3,209.6,256.5,208.2L256.5,208.2z"/>
	<path class="st2" d="M262.1,164.4c0.1-0.5,0.2-1,0.3-1.5c-0.6-7-1.8-14.1-1.7-21.1c0.1-5.6,1.8-11.2,2.7-16.8
		c1.4-2.5,2.9-5,4.3-7.5c-0.1-0.4-0.1-0.9,0-1.3c0-1-0.1-2-0.1-3c-0.1-0.5-0.1-1-0.2-1.5c-0.7-0.8-1.4-1.5-2.1-2.3
		c-1.5,1.8-2.6,4.2-4.5,5.4c-2.6,1.7-5.6,2.6-8.4,3.9c0.1,0.5,0.3,1,0.4,1.5c1.7,0.4,3.4,0.7,5.4,1.2c-8,4.7-10.2,4.6-16.4-1.8
		c-3.7-3.8-6.9-8.2-10.5-12.2c-3.4-3.7-7-7.2-10.5-10.8c1,3.5,1.1,7.6,3,10.3c4.2,6,9.3,11.3,14,16.9c2.9,2.4,6.5,4.4,8.7,7.5
		c2.5,3.4,10.3,4.4,5.1,12c-5.4,7.9-0.6,17.9,8.6,18.5c-0.4,0.9-0.7,1.9-1.1,2.8C260.2,164.4,261.1,164.4,262.1,164.4L262.1,164.4z"
		/>
	<path class="st3" d="M302.2,61.8c-0.6-4-1.2-8-1.7-12c-6.8-1.8-11.7-1.1-9.1,9.4c-5.6-7.5-14.9-12-10.6-23.4l-0.4-0.1
		c-4.2,0.7-8.4,1.4-12.6,2.1c-5.3,0.8-8.5,3.7-8.3,7.6c0.9,0,1.8-0.1,2.7-0.1c0.5,0,1-0.1,1.5-0.1c0.9-0.9,1.7-1.8,2.5-2.7
		c1.1,1.4,2.1,2.8,3.2,4.2l0.2,0.2c0.4,0.4,0.8,0.8,1.2,1.2l0.1,0.3c0.4,1.6,0.8,3.2,1.2,4.8c-2.4,1.7-4.9,3.4-7.3,5
		c-1.1,0.2-2.2,0.4-3.2,0.5c-0.8-0.4-1.5-0.8-2.3-1.2c-0.4,0-0.9-0.1-1.3-0.2c-2.4,1.5-4.8,3-7.2,4.5c-2.4,0.5-4.7,1-7.1,1.5
		c0,1.1-0.1,2.2-0.1,3.3c1.5,0.2,3,0.2,4.5,0.6c3.8,1.1,7.6,2.5,11.4,3.7c1.2,0.5,2.4,1.1,3.5,1.6c-0.2,0.4-0.3,0.8-0.5,1.2
		c-1-0.4-2.1-0.9-3.1-1.4c-5.3,0.1-10.7,0.2-16,0.3c6.6,7,13.2,13.9,19.7,21.1c2.6,2.8,4.6,6.1,6.9,9.2c4-3.2,3.8-6.5-0.9-10.1
		c3.1-0.9,5.3-1.5,7.5-2.1c2.8,1,5.6,1.9,8.4,2.9c1.6-8.9,4.8-16.9,11.5-22.9c0-0.9,0-1.8,0-2.7c-1.2-0.4-2.3-0.7-3.5-1.1
		c0-0.5,0-1,0-1.4c2.1-0.7,4.1-1.3,6.2-2C300.2,62.8,301.2,62.3,302.2,61.8L302.2,61.8z M256.7,78.4c0.2-0.7,0.4-1.4,0.7-2.1
		c22,2.8,24.2,3.8,24.6,9.8c-4.1-1-8.4-1.9-12.6-3.2C265.1,81.6,260.9,79.9,256.7,78.4L256.7,78.4z"/>
	<path class="st4" d="M243.5,66.5c0-1.1,0.1-2.2,0.1-3.3c2.9-3.8,5.7-7.7,8.6-11.5c0.4,0.2,0.8,0.3,1.1,0.5
		c-0.9,3.2-1.8,6.3-2.6,9.5c2.4-1.5,4.8-3,7.2-4.5c0.5-4,1-7.9,1.5-11.9c-0.2-3.9,3-6.7,8.3-7.6c4.2-0.7,8.4-1.4,12.6-2.1
		c-2.7-0.9-5.5-1.8-8.2-2.7c-3.8-0.3-7.6-0.7-11.4-1c-13.9,2.4-24.9,9.9-34.1,20.8c-0.4,0.5-0.8,1-1.1,1.5c-0.1,0.5-0.2,1-0.3,1.6
		c-0.4,0.5-0.8,1-1.1,1.4c-0.6,1-1.2,2-1.8,2.9c-0.4,1.6-0.7,3.1-1.1,4.7c0,0.5,0,0.9,0.2,1.4c0.8,1.9,1.7,3.8,2.5,5.8
		c0.1,1.1,0.1,2.2,0.2,3.4c0.4,0,0.9,0,1.3,0.1c1.4,0,2.8-0.1,4.1-0.1c1.4-3,2.9-6,4.3-9C236.9,66.4,240.2,66.4,243.5,66.5
		L243.5,66.5z"/>
	<path class="st5" d="M237.9,123.7c-4.7-5.6-9.8-10.9-14-16.9c-1.9-2.7-2.1-6.8-3-10.3c-1-4-2-8.1-3-12.1c1-2.5,2-5,3-7.5
		c-1.9,0-3.8,0.1-5.7,0.1c-0.9,0.5-1.9,1-2.8,1.4c-1,2-2,3.9-3,5.9c0.7,3.8,1.3,7.5,2,11.2c-5.1,0.3-3,4.3-3.3,7.1
		c5.6-2.1,8.6,1.4,11.2,5.8c2.8,3,5.6,6.1,8.4,9.1c2,3,4,6,5.9,9c1.7,2.5,3.4,5,6.1,8.8C238.9,130.4,238.4,127,237.9,123.7
		L237.9,123.7z"/>
	<path class="st1" d="M296.5,70.6c-6.7,6-10,14-11.5,22.9c1,0.4,2.6,1.5,2.9,1.1c1.9-2.2,3.6-4.6,5.1-6.5c2.3,3.1,4.2,5.7,6.2,8.3
		c1.5-4,3-8.1,4.5-12.1c0.4-0.5,0.8-1,1.2-1.6h-0.1c0.4-1.5,0.8-3.1,1.2-4.6c0-0.5,0.1-0.9,0.2-1.3c0-4,0-8,0-12
		c-2.3,0.5-4.5,1-6.8,1.5c-0.1,0.5,0,0.9,0.2,1.3c1.7,0.8,3.4,1.7,5,2.5c-0.2,0.7-0.5,1.3-0.7,2c-1.6-0.5-3.1-1-4.7-1.6
		C298.2,70.7,297.4,70.6,296.5,70.6z M299.1,81.2c0.5,0.8,0.9,1.6,1.4,2.4c-1.5,0.7-2.9,1.4-4.4,2.1c-0.3-0.7-0.6-1.3-0.9-1.9
		C296.5,82.9,297.8,82.1,299.1,81.2L299.1,81.2z"/>
	<path class="st6" d="M287.4,25.5c3.8-9.1,3-13.4-3.8-19.8c-5,3.9-4.5,9.6-4.3,15.2c1.9,1.6,3.7,3.2,5.6,4.8
		C285.7,25.7,286.5,25.6,287.4,25.5z"/>
	<path class="st7" d="M280.7,35.8c-4.3,11.3,4.9,15.9,10.6,23.4c-2.6-10.5,2.3-11.2,9.1-9.4c-2.3-2-4.6-4-6.9-6
		c-3,5.8-6.2,2.5-9.6,0.3c1.4-1.8,2.7-3.4,4-5C285.5,38,283.1,36.9,280.7,35.8L280.7,35.8z"/>
	<path class="st8" d="M260.6,31.9c3.8,0.3,7.6,0.7,11.4,1c0.5-1.4,1.1-2.8,1.6-4.2c-1.6-0.1-3.5,0.3-4.8-0.5c-2-1.1-3.6-3.1-5.4-4.6
		c1.6-1.9,3.2-3.8,4.9-5.7c0.6-0.7,1.5-1.1,2.2-1.6c-1.8-1.5-3.5-2.9-5.3-4.4c0.2-1.1,0.4-2.2,0.6-3.2c-0.4-0.3-0.7-0.6-1-0.9
		C259,15,259.7,23.4,260.6,31.9L260.6,31.9z"/>
	<path class="st9" d="M273.7,28.7c-0.5,1.4-1.1,2.8-1.6,4.2c2.7,0.9,5.5,1.8,8.2,2.7l0.4,0.1c2.4,1.1,4.8,2.2,7.2,3.2
		c1.6,0.5,3.1,1,4.7,1.5c-1.8-3.4-3.6-6.8-6.2-11.7c-0.1,0.3,0.4-1.5,1-3.3c-0.9,0.1-1.7,0.2-2.6,0.3c0.5,4.1-0.8,5.5-4.4,3.2
		C278.1,28.9,275.9,28.8,273.7,28.7L273.7,28.7z"/>
	<path class="st10" d="M265.3,12c1.8,1.5,3.5,2.9,5.3,4.4c0.5-0.1,0.9-0.2,1.4-0.3c5.9-4,4.4,4,7.2,4.9c-0.2-5.6-0.7-11.3,4.3-15.2
		c-2.9-0.9-5.8-1.8-8.6-2.7c0.8,1.6,1.6,3.2,3,6.2C273.3,10.3,269.3,11.1,265.3,12L265.3,12z"/>
	<path class="st6" d="M264.1,11.8c4-0.9,8-1.7,12.7-2.7c-1.5-3-2.2-4.6-3-6.2c-2.9,0.9-5.8,1.9-8.7,2.8c-0.1,0.9-0.2,1.9-0.3,2.8
		C264.5,9.5,264.3,10.6,264.1,11.8z"/>
	<path class="st1" d="M220.8,76.9c-1,2.5-2,5-3,7.5c1.6,1.3,3.3,2.6,5,3.9c0.9-4.6,1.6-8.7,2.4-12.8c-0.4-0.1-0.9-0.1-1.3-0.1
		C222.8,75.9,221.8,76.4,220.8,76.9L220.8,76.9z"/>
	<path class="st3" d="M292.1,41.3c-1.6-0.5-3.1-1-4.7-1.5c-1.3,1.6-2.6,3.2-4,5c3.4,2.2,6.6,5.5,9.6-0.3
		C292.7,43.5,292.4,42.4,292.1,41.3L292.1,41.3z"/>
	<path class="st11" d="M299.4,66.4c2.3-0.5,4.6-1,6.8-1.5c-1.4-1-2.7-2.1-4-3.1c-1,0.5-2,1-3,1.6C299.2,64.4,299.3,65.4,299.4,66.4
		L299.4,66.4z"/>
	<path class="st12" d="M223.7,72.1c-0.8-1.9-1.7-3.8-2.5-5.8C222,68.2,222.8,70.1,223.7,72.1z"/>
	<path class="st13" d="M221,64.9c0.4-1.6,0.7-3.1,1.1-4.7C221.7,61.8,221.4,63.3,221,64.9z"/>
	<path class="st14" d="M265.9,8.7c0.1-0.9,0.2-1.9,0.3-2.8c-0.4,0.7-0.9,1.3-1.4,2C265.2,8.2,265.6,8.5,265.9,8.7L265.9,8.7z"/>
	<path class="st13" d="M223.9,57.3c0.4-0.5,0.8-1,1.1-1.4C224.7,56.3,224.3,56.8,223.9,57.3z"/>
	<path class="st13" d="M225.3,54.2c0.4-0.5,0.8-1,1.1-1.5C226.1,53.3,225.7,53.8,225.3,54.2z"/>
	<path class="st3" d="M372.4,42.5c12.1-1.5,24.2-3.9,36.4-4.1c4-0.1,8.1,5.4,12.1,8.3c-3.3,7.2-12.8,14.1-15.5,10.8
		c0.7-1.5,1.4-3.2,2.1-4.7c-2.2-1.2-3.9-2.3-6-3.5c-1.8,3.1-3.6,6.2-6.1,10.6c3.8,0.3,6,0.4,8.2,0.6c0,0.5,0.1,1,0.1,1.5l0,0
		c-1.1,0.4-2.4,0.5-3.2,1.2c-7.9,6.3-15.9,12.6-23.6,19.2c-2,1.7-3,4.5-5.3,8.2c8.8-5.1,15.8-9,22.6-13.2c1.6-1,2.5-3.2,3.7-4.8l0,0
		c1.9-2.5,3.8-4.9,5.7-7.4c1.9,0.6,3.9,1.1,5.8,1.7c-1.8,4.7-3.8,9.4-5.4,14.2c-2.6,7.7-5,15.4-7.4,23.1c-2.5-0.9-7.2-1.8-7.2-2.7
		c0-3.5,1.5-7.1,2.5-10.7c-4.6,3-9.2,6.1-13.8,9.1c-2.7-1.2-6.2-7.3-7.2,1.4c-0.9-0.1-1.8-0.1-2.7-0.2l-1.6-2.8
		c-1.6-1.6-3.1-3.2-4.7-4.8c-0.7-3.9-1.3-7.9-2-12.1c0.3,0-0.7,0.1-1.6-0.2c-6.6-2.3-9.2-0.1-8.2,7.1c0.2,1.7,0.6,3.4,0.9,5.1
		c2.2,1.6,4.4,3.2,6.6,4.9c-0.8,1.9-1.5,3.9-2.3,5.9c0,0.5-0.1,1.1-0.1,1.6c-0.5,0-0.9,0-1.4-0.1c-3.7-7-7.5-14-11.2-21
		c0-1,0-2,0-3.1c1.2-1.7,2.5-3.4,3.7-5.1c1.2-3.8,2.4-7.6,3.6-11.3c5.1-5.6,10.2-11.2,15.3-16.8C367.6,46.4,370,44.5,372.4,42.5
		L372.4,42.5z M375.7,57.7c-0.2,0.6-0.5,1.1-0.7,1.7c2.1,0.8,4.4,2.6,6.1,2.2c2.9-0.7,5.8-2.6,8-4.8c0.5-0.5-1.2-5.2-2.7-5.9
		c-1.6-0.8-4.2,0.9-6.4,1.5c0.1,0.5,0.2,1.1,0.2,1.6c1.8,0.7,3.6,1.5,5.4,2.2c-0.1,0.5-0.1,0.9-0.2,1.4L375.7,57.7L375.7,57.7z"/>
	<path class="st3" d="M447.8,61.9c11.8-0.3,21.7-5.6,31.7-11.8c7.2-4.4,15.9-6.2,23.9-9.2c4.8-0.5,9.6-0.9,14.3-1.4
		c0.5,2.5,1.1,4.9,1.7,7.3c0.3,1.5,0.7,3.1,1,4.6c1.3,6.5-1.2,11-7.3,11.5c-6.2,0.6-7,4.3-6.9,9.4c-0.5,1-1,2-1.5,3
		c-3.4,1.5-6.7,3-10.1,4.5c-0.9,0.4-1.8,0.9-2.7,1.3c-4.9,2.5-9.8,5.1-14.6,7.6c-6.5,3.1-13,6.2-19.5,9.3
		c6.6-8.1,13.3-16.2,19.9-24.2l-1.1-1.2c-2,1.3-4.1,2.6-6.4,4.1c-0.3-2.2-0.5-3.8-0.8-6.3c-2.1,3.2-3.6,5.3-5.1,7.6
		c-2.3-1.5-4.2-2.8-7-4.5c-0.9,2.4-1.6,4.4-2.4,6.3c-0.9,0.6-1.8,1.1-2.7,1.7c-4.1-2.8-8.4-5.5-12.3-8.5c-0.8-0.6-1.6-3.1-1.2-3.6
		c1.8-2.2,4.1-3.9,6.2-5.9C445.9,63.1,446.8,62.5,447.8,61.9L447.8,61.9z M480,69c-0.4-0.2-0.8-0.4-1.2-0.5
		c-0.2,0.4-0.6,0.9-0.5,1.2c0.1,0.3,0.7,0.4,1.1,0.6C479.7,69.9,479.8,69.5,480,69L480,69z"/>
	<path class="st6" d="M345.5,46.8c-3.1-5-2.9-10.1,0.2-15c3.6,2,7.1,4,10.7,6c0,1-0.1,2-0.1,3c-0.4,1-0.8,2-1.1,3.1l0,0
		c-1.4,2.1-2.8,4.2-4.1,6.3c0.1,0.4,0,0.8-0.2,1.1c-0.8-0.1-1.6-0.1-2.3-0.2c-0.3,0-0.5-0.2-0.5-0.5c-0.1-0.5-0.4-0.8-0.9-0.9
		c-0.3,0-0.5-0.2-0.5-0.5C346.3,48.4,345.9,47.6,345.5,46.8L345.5,46.8z"/>
	<path class="st15" d="M541.9,37.3c-0.7,6.1-1.4,12.1-2.2,19.7c-3.6-1.8-5.5-2.8-7.4-3.8c2-1.7,4.1-3.5,7-5.9
		c-4.4-1-6.5-1.4-8.6-1.9c1-2,2.1-4,3.1-5.9c1.6-1.4,3.2-2.8,4.8-4.3c0.8,0.6,1.6,1.2,2.4,1.8C541.3,37.2,541.6,37.3,541.9,37.3
		L541.9,37.3z"/>
	<path class="st16" d="M365.2,48.3c-5.1,5.6-10.2,11.2-15.3,16.8c-0.2-2.3-0.5-4.7-0.4-7c0.1-1.8,0.9-3.6,1.4-5.4l-0.1,0.1
		c2.9-1.9,5.6-4.2,8.7-5.6C361.1,46.7,363.3,47.9,365.2,48.3L365.2,48.3z"/>
	<path class="st17" d="M533.1,39.2c-1,2-2.1,4-3.1,5.9c-3.7,0.6-7.3,1.2-11,1.8c-0.5-2.5-1.1-4.9-1.7-7.3c3.7-1,7.4-2.3,11.2-2.8
		C529.9,36.6,531.5,38.3,533.1,39.2L533.1,39.2z"/>
	<path class="st12" d="M342.5,84.7c3.7,7,7.5,14,11.2,21c-1.5,0.6-2.9,1.1-4.4,1.7c-8.2-5.3-7.3-14.4-8.3-22.7
		C341.5,84.6,342,84.6,342.5,84.7L342.5,84.7z"/>
	<path class="st10" d="M356.4,37.8c-3.6-2-7.1-4-10.7-6c1.9-1.9,3.8-3.9,5.6-5.8c1.2,0,2.5,0.1,3.7,0.1c-0.9,1-1.8,2-2.6,3
		c3.9-1.3,8.3,9.8,11.3-0.5c0.5,0.3,0.9,0.6,1.4,0.9c0.1,1.8,0.2,3.6,0.3,5.4c-1,0.5-2.1,1-3.1,1.5
		C360.3,36.8,358.4,37.3,356.4,37.8L356.4,37.8z"/>
	<path class="st12" d="M346.2,76.5c-1.2,1.7-2.5,3.4-3.7,5.1C343.8,79.9,345,78.2,346.2,76.5z"/>
	<path class="st16" d="M345.5,46.8c0.4,0.8,0.8,1.6,1.3,2.4C346.3,48.4,345.9,47.6,345.5,46.8z"/>
	<path class="st16" d="M348.5,51.1c0.8,0.1,1.6,0.1,2.3,0.2c0,0.5,0,1-0.1,1.5l0.1-0.1C350.1,52.2,349.3,51.7,348.5,51.1z"/>
	<path class="st16" d="M347.2,49.7c0.5,0.1,0.8,0.4,0.9,0.9C347.6,50.6,347.3,50.3,347.2,49.7z"/>
	<path class="st4" d="M431.4,152.4c0,1.1-0.1,2.2-0.1,3.3c0,1.9,0,3.7,0,5.6c0,2.1,0,4.1,0,6.2c-0.2,7.6-0.5,15.1-0.7,22.7
		c-1.9,2.9-3.7,5.7-5.6,8.5c-0.9-0.6-1.8-1.1-2.7-1.7v-19c-6.5,0.6-12.3,8.1-17.4,0.1c0-0.5-0.1-1-0.1-1.5c2-2.5,4-5,6-7.6
		c0-0.5,0-1,0-1.5l0,0c3.1-3.5,6.5-6.7,9.1-10.5c4.1-5.8,7.6-12,11.4-18.1c0,3.5,0,7,0,10.5L431.4,152.4L431.4,152.4z"/>
	<path class="st18" d="M208,102.7c0.2-2.8-1.8-6.8,3.3-7.1c-0.7-3.8-1.3-7.5-2-11.2c-1.4,0.6-2.8,1.1-4.2,1.7
		c-2.9,4.5-5.7,9.1-8.5,13.6c-0.9,3-1.8,6-2.7,9c1.5-0.8,3.1-1.7,4.5-2.4c1.9,3.1,3.5,5.8,5.1,8.4C205,110.7,206.5,106.7,208,102.7
		L208,102.7z"/>
	<path class="st19" d="M198.6,122.2c0.3-1.1,0.5-2.2,0.8-3.4c-2.3-1.8-4.6-3.7-6.9-5.5c-1.9,3.4-3.7,6.8-5.6,10.3
		c3.1,1.5,6.2,6.1,9.5,0.2l0.2-0.2C197.2,123.1,197.9,122.6,198.6,122.2L198.6,122.2z"/>
	<path class="st20" d="M196.4,123.7c-3.2,6-6.3,1.4-9.5-0.2c-1.9,2.3-3.8,4.7-5.7,7C191.6,135.2,193.8,134.2,196.4,123.7
		L196.4,123.7z"/>
	<path class="st21" d="M192.5,113.3c2.3,1.8,4.6,3.7,6.9,5.5c1.4-0.9,2.9-1.8,4.3-2.6c-0.1-0.5-0.1-1-0.2-1.5
		c-1.6-2.7-3.2-5.3-5.1-8.4c-1.4,0.8-3,1.6-4.5,2.4C193.4,110.2,192.9,111.7,192.5,113.3L192.5,113.3z"/>
	<path class="st22" d="M506.3,72.4c-0.1-5.1,0.6-8.8,6.9-9.4c6.1-0.5,8.6-5,7.3-11.5c0.5-0.1,0.9-0.2,1.4-0.3
		C526.1,63.5,521.4,69.9,506.3,72.4L506.3,72.4z"/>
	<path class="st23" d="M521.5,51.2c-0.5,0.1-0.9,0.2-1.4,0.3c-0.3-1.5-0.7-3.1-1-4.6c3.7-0.6,7.3-1.2,11-1.8
		c2.1,0.5,4.2,0.9,8.6,1.9c-2.9,2.4-4.9,4.1-7,5.9C528.7,49.5,525.7,46.5,521.5,51.2L521.5,51.2z"/>
	<path class="st24" d="M251.6,228.1c-2.3,0-4.5,0-6.8,0.1c-0.8,10.3-0.2,11.1,11.5,14.2c0.5,0.2,1,0.4,1.5,0.6
		c0.9-0.2,1.8-0.3,2.7-0.5c0.4-0.4,0.9-0.8,1.4-1.2c-1.6-1.9-3.1-3.9-4.7-5.8c-1.7-2.1-3.5-4.1-5.2-6.2
		C251.9,228.9,251.8,228.5,251.6,228.1L251.6,228.1z"/>
	<path class="st25" d="M256.4,242.4c-11.7-3.2-12.3-3.9-11.5-14.2c-0.7-0.1-1.4-0.3-2.1-0.4c-0.7,3.5-1.4,7-2,10.5
		c-0.2,2-0.4,3.9-0.5,5.9c0.3,0.5,0.6,1,1,1.5c0.7,0.1,1.4,0.1,2.1,0.2c1.1,0,2.1,0,3.2,0c3-0.5,6-1.1,9.1-1.6
		C255.9,243.6,256.1,243,256.4,242.4L256.4,242.4z"/>
	<path class="st26" d="M246.5,245.8c-1.1,0-2.1,0-3.2,0C244.4,245.8,245.5,245.8,246.5,245.8z"/>
	<path class="st24" d="M422.9,222.1c0.2,2.1,0.4,4.3,0.6,6.6c-7.3-0.4-14.6-0.6-21.9-1.2c-2.5-0.2-5-0.9-7.5-1.3
		c-0.1-0.4-0.3-0.9-0.4-1.3c0.1-0.4,0.1-0.9-0.1-1.2c0.2-0.8,0.5-1.7,0.7-2.5c2.3-1,4.7-1.9,7-2.8c3.3-2.7,6.6-5.4,9.9-8.1
		c1.9,0,3.7,0,5.6,0c1.7,0,3.5,0.1,5.2,0.1C422.4,214.3,422.6,218.2,422.9,222.1L422.9,222.1z M416.5,226.6
		c-6.1-9.9-10.2-10.4-19.1-1.6C404.3,225.5,409.8,226,416.5,226.6z"/>
	<path class="st2" d="M400.6,140.3c3.3-5.6,3.9-11.1,0.9-17.4c-1.4-2.8-0.6-6.8-0.7-10.2c0.4-1.9,0.7-3.8,1.1-5.7
		c2.9,5.7,6.4,8.5,12,3.3c2-1.9,4.6-3.2,6.9-4.7c0.4,1.4,0.8,2.8,1.5,5.4c3.4-4.9,5.7-8.9,8.6-12.2c1.2-1.4,3.8-1.4,5.7-2
		c-3.4,6.5-6.7,12.9-10.1,19.4c-5.7-0.9-8.3,3.5-11.4,7.3c-2.5,3-5.6,5.4-8.6,8.2C408.3,136.9,408.2,137.1,400.6,140.3L400.6,140.3z
		"/>
	<path class="st2" d="M404.7,176.6c-0.8-3.4-1.9-6.8-2.4-10.3c-0.7-4.6-1-9.2-1.4-13.8c-0.1-3-0.1-6-0.2-9.1
		c8.9-1.3,13.1-9.1,18.7-15c0.5,1,1,2,1.4,3.1c0.5,12.1-8.4,13.7-18.8,16.2c5.7,2.8,9.4,4.6,13.1,6.4c-1.4,4.5-2.9,9-4.3,13.5l0,0
		c0,0.5,0,1,0,1.5C408.7,171.5,406.7,174,404.7,176.6L404.7,176.6z"/>
	<path class="st22" d="M378.9,97.6c4.6-3.1,9.3-6.1,13.8-9.2c-1,3.7-2.4,7.2-2.5,10.7c0,0.9,4.7,1.8,7.2,2.7
		c0.4,2.6,0.8,5.2,1.1,7.7c-3,1-6.5,3.4-9,2.6c-6.2-2-10.8-1.8-13.6,5.1c0-4.1-0.1-8.1-0.1-12.1c-0.5-1.1-0.9-2.2-1.4-3.3
		C376,100.4,377.5,99,378.9,97.6L378.9,97.6z"/>
	<path class="st9" d="M397.7,111.8c-0.4-2.6-0.8-5.2-1.1-7.7c2.5-7.7,4.8-15.4,7.4-23.1c1.6-4.8,3.6-9.5,5.4-14.2
		c1.6-0.2,3.1-0.4,4.7-0.6c-4,10.9-8.2,21.8-12.1,32.8c-0.8,2.4-0.2,5.3-0.2,8.1c-0.4,1.9-0.7,3.8-1.1,5.7
		C399.7,112.4,398.7,112.1,397.7,111.8z"/>
	<path class="st4" d="M419.4,128.3c-5.6,5.9-9.7,13.8-18.7,15c0-1,0-2.1-0.1-3.1c7.6-3.2,7.7-3.4,5.8-8.6c3.1-2.9,6.1-5.2,8.6-8.2
		c3.1-3.8,5.7-8.2,11.4-7.3C424.1,120.2,421.7,124.3,419.4,128.3L419.4,128.3z"/>
	<path class="st27" d="M349.3,107.3c1.5-0.6,2.9-1.1,4.4-1.7c0.5,0,0.9,0.1,1.4,0.1c2.8,3.5,5.7,7.1,8.5,10.6
		c2.4,2.4,4.8,4.9,7.2,7.3C358.8,125.4,355.1,114.7,349.3,107.3L349.3,107.3z"/>
	<path class="st2" d="M370.9,123.6c-2.4-2.4-4.8-4.9-7.2-7.3c0.5-2.5,1-5,1.4-7.5c2.1,0.2,4.2,0.5,7,0.8c0.4-0.3,1.7-1.3,3-2.3
		c0,4.1,0.1,8.1,0.1,12.1C373.7,120.8,372.3,122.2,370.9,123.6z"/>
	<path class="st11" d="M405.3,191.7c-0.3-2.4-0.7-4.7-1-7c1.3,1.9,2.9,3.7,3.8,5.8c2.5,6.8,4.8,13.8,7.1,20.7c-1.9,0-3.6,0-5.5,0
		c-1.3-2.4-2.5-4.8-3.9-7.2c-0.1-1.3-0.2-2.7-0.3-4L405.3,191.7L405.3,191.7z"/>
	<path class="st5" d="M299.1,96.5c-2-2.6-3.9-5.3-6.2-8.3c-1.4,1.9-3.1,4.4-5.1,6.5c-0.3,0.3-1.9-0.7-2.9-1.1
		c-2.8-1-5.6-1.9-8.4-2.9c2.2,9.5,1,12.2-6.4,13.4c0.1,2,0.3,4,0.5,6c1,0.9,2,1.9,3.4,3.2c3.3-6.5,6.4-11.2,14.7-6.7
		c4.8,2.6,8.1-3.9,10.5-8.5C299.2,97.5,299.2,97,299.1,96.5L299.1,96.5z"/>
	<path class="st16" d="M270.6,110c-0.1-2-0.3-4-0.4-6c-0.4-0.3-0.5-0.7-0.2-1.2c-2.3-3.1-4.4-6.3-6.9-9.2
		c-6.5-7.1-13.1-14.1-19.7-21.1c-1.8,0.9-3.6,1.8-5.5,2.7c9.2,11.3,18.4,22.7,27.5,34c0.7,0.8,1.4,1.5,2.1,2.3
		c1-0.2,2.1-0.4,3.1-0.6C270.3,110.7,270.3,110.3,270.6,110L270.6,110z"/>
	<path class="st28" d="M216.5,108.7c0.9,0,1.9-0.1,2.8-0.1c-2.6-4.4-5.6-7.9-11.2-5.8c-1.5,4-3,7.9-4.6,11.9c0,0.5,0.1,1,0.2,1.5
		c1.8-1,3.7-2.1,5.5-3.1C211.6,111.6,214,110.1,216.5,108.7L216.5,108.7z"/>
	<path class="st20" d="M198.6,122.2c-0.7,0.4-1.4,0.9-2.1,1.4C197.2,123.1,197.9,122.6,198.6,122.2z"/>
	<path class="st4" d="M262.1,164.4c-0.9,0-1.9,0-2.8,0l0,0c-2.9,5.4-6.5,3.4-9.8,0.8c-2.6-2-4.9-4.6-7.4-6.9c0.6,2,1,4.1,2,5.9
		c3,5.2,6.3,10.3,9.5,15.5c-0.6,0.5-1.3,0.9-2,1.4c-1.6-2.3-3.1-4.6-4.8-6.8c-4.8-5.9-9.7-11.6-14.5-17.4c0.4,2,0.8,4,1.1,6
		c2.4,5.5,4.9,11.1,7.3,16.6c4.2,7.1,11.3,13.3,4.9,24.7c5.2-2.9,8.6-4.8,12-6.7c0.5-3.4,1-6.8,1.5-10.1
		C260.1,179.8,261.1,172.1,262.1,164.4L262.1,164.4z"/>
	<path class="st11" d="M232.4,182.6c-0.5,1-1.4,2-1.5,3.1c-0.7,9-1.2,18-1.7,27.1c0,4.2-2.8,9.7,4.4,10.4c0.9-3.3,1.9-6.7,2.8-10
		c0.2-0.7,0.6-1.4,0.5-2C235.4,201.6,233.9,192.1,232.4,182.6L232.4,182.6z"/>
	<path class="st22" d="M233.4,162.9c0,0.9,0,1.8,0,2.7c-0.8,1.1-1.6,2.2-2.4,3.4c0,2.5,0,5,0,7.5c0.4,0,0.8,0,1.3,0.1
		c2.8,1,5.7,2,8.5,3C238.3,174,235.9,168.4,233.4,162.9L233.4,162.9z"/>
	<path class="st27" d="M232.2,176.5c-0.4,0-0.8-0.1-1.3-0.1c0.4,0.6,0.8,1.1,1.1,1.6C232.1,177.5,232.2,177,232.2,176.5L232.2,176.5
		z"/>
	<path class="st3" d="M265.4,109.3c-9.2-11.3-18.4-22.7-27.5-34c-0.5-0.5-1-0.9-1.4-1.4c-2.4,0.5-4.7,1-7.1,1.5
		c-1.4,0-2.8,0.1-4.1,0.1c-0.8,4.1-1.5,8.2-2.4,12.8c-1.7-1.3-3.4-2.6-5-3.9c1,4,2,8.1,3,12.1c3.5,3.6,7.2,7,10.5,10.8
		c3.6,4,6.8,8.4,10.5,12.2c6.2,6.3,8.4,6.4,16.4,1.8c-2-0.4-3.7-0.8-5.4-1.2c-0.1-0.5-0.3-1-0.4-1.5c2.8-1.3,5.9-2.2,8.4-3.9
		C262.7,113.4,263.9,111.1,265.4,109.3L265.4,109.3z"/>
	<path class="st4" d="M237.9,123.7c0.5,3.3,1,6.6,1.8,11.8c-2.6-3.9-4.4-6.3-6.1-8.8c0.4,3.2,0.2,6.6,1.3,9.5
		c2.6,6.6,5.8,12.8,8.8,19.2c1.5,1,3,2,4.6,2.9c3.6,2.1,7.3,4.1,11,6.2l0,0c0.3-0.9,0.7-1.8,1.1-2.8c-9.3-0.6-14.1-10.6-8.6-18.5
		c5.2-7.6-2.6-8.6-5.1-12C244.4,128.2,240.9,126.2,237.9,123.7L237.9,123.7z"/>
	<path class="st12" d="M256.7,78.4c4.2,1.5,8.4,3.2,12.7,4.5c4.2,1.3,8.5,2.2,12.6,3.2c-0.4-6-2.6-7-24.6-9.8
		C257.1,77,256.9,77.7,256.7,78.4z"/>
	<path class="st11" d="M236.4,73.9c0.5,0.5,1,0.9,1.4,1.4c1.8-0.9,3.6-1.8,5.5-2.7c5.3-0.1,10.7-0.2,16-0.3c0-0.5,0-1,0.1-1.5
		c-3.8-1.2-7.5-2.6-11.4-3.7c-1.4-0.4-3-0.4-4.5-0.6c-3.3,0-6.6-0.1-9.9-0.1c0.7,2,1.4,4,2.2,6c0.7-0.8,1.5-1.7,2.2-2.5
		C237.5,71.2,236.9,72.6,236.4,73.9L236.4,73.9z"/>
	<path class="st2" d="M269,102.9c-0.2,0.5-0.1,0.9,0.2,1.2c7.3-1.3,8.6-3.9,6.4-13.4c-2.2,0.6-4.4,1.3-7.5,2.1
		C272.8,96.3,273,99.6,269,102.9z"/>
	<path class="st5" d="M259.4,45.3c-0.5,4-1,7.9-1.5,11.9c0.4,0.1,0.9,0.1,1.3,0.2c1.3-1,2.5-2.3,3.9-2.7c2.9-0.8,5.9-1.1,8.9-1.7
		c-0.4-1.6-0.8-3.2-1.2-4.8c-2.1,1-4.2,2-6.3,3c-0.8-2-1.6-4-2.4-6C261.2,45.2,260.3,45.3,259.4,45.3L259.4,45.3z"/>
	<path class="st22" d="M250.7,61.8c0.9-3.2,1.8-6.3,2.6-9.5c-0.4-0.2-0.8-0.3-1.1-0.5c-2.9,3.8-5.7,7.7-8.6,11.5
		C246,62.8,248.3,62.3,250.7,61.8L250.7,61.8z"/>
	<path class="st23" d="M299.4,66.4c-0.1-1-0.1-2-0.2-3c-2.1,0.6-4.1,1.3-6.2,2c0,0.5,0,1,0,1.4c1.2,0.4,2.3,0.7,3.5,1.1
		c0.9,0.5,1.7,1,2.6,1.5c0.2-0.6,0.3-1.1,0.5-1.6C299.3,67.3,299.3,66.9,299.4,66.4L299.4,66.4z"/>
	<path class="st7" d="M269.3,46.6c-1.1-1.4-2.1-2.8-3.2-4.2c-0.9,0.9-1.7,1.8-2.5,2.7C264.3,50.5,267.1,47.3,269.3,46.6L269.3,46.6z
		"/>
	<path class="st29" d="M269.3,46.6c-2.2,0.7-5,3.9-5.7-1.5c-0.5,0-1,0.1-1.5,0.1c0.8,2,1.6,4,2.4,6c2.1-1,4.2-2,6.3-3l-0.1-0.3
		c-0.4-0.4-0.8-0.8-1.2-1.2L269.3,46.6L269.3,46.6z"/>
	<path class="st30" d="M272,53c-3,0.5-6,0.8-8.9,1.7c-1.4,0.4-2.6,1.8-3.9,2.7c0.8,0.4,1.5,0.8,2.3,1.2c-0.3-0.4-0.5-0.8-0.8-1.2
		c1.4,0,2.9-0.1,4.3-0.2c-0.3,0.2-0.4,0.5-0.3,0.8C267.1,56.3,269.5,54.7,272,53L272,53z"/>
	<path class="st12" d="M259.3,70.8c0,0.5-0.1,1-0.1,1.5c1,0.4,2.1,0.9,3.1,1.4c0.2-0.4,0.3-0.8,0.5-1.2
		C261.7,71.9,260.5,71.4,259.3,70.8L259.3,70.8z"/>
	<path class="st4" d="M261.4,58.6c1.1-0.2,2.2-0.4,3.2-0.5c-0.1-0.3,0-0.6,0.3-0.8c-1.4,0-2.9,0.1-4.3,0.2
		C260.9,57.8,261.2,58.2,261.4,58.6L261.4,58.6z"/>
	<path class="st16" d="M299.1,69.4c-0.9-0.5-1.7-1-2.6-1.5c0,0.9,0,1.8,0,2.7c0.9,0,1.8,0.1,2.7,0.1
		C299.2,70.3,299.1,69.8,299.1,69.4L299.1,69.4z"/>
	<path class="st1" d="M236.4,73.9c0.5-1.3,1.1-2.7,1.6-4c-0.7,0.8-1.5,1.7-2.2,2.5c-0.7-2-1.4-4-2.2-6c-1.4,3-2.9,6-4.3,9
		C231.6,74.9,234,74.4,236.4,73.9L236.4,73.9z"/>
	<path class="st22" d="M243.7,155.3c-3-6.4-6.2-12.7-8.8-19.2c-1.1-2.9-0.9-6.3-1.3-9.4c-2-3-3.9-6-5.9-9c0.1,2.5,0.3,5,0.4,7.5
		c0.9,7.5,1.8,15,2.8,22.5c0.4,3.1,1,6.1,1.4,9.2c4.9,5.8,9.7,11.6,14.5,17.4c1.7,2.1,3.2,4.5,4.8,6.8c0.6-0.5,1.3-0.9,2-1.4
		c-3.2-5.1-6.4-10.2-9.5-15.5c-1-1.7-1.4-3.9-2-5.9C242.6,157.3,243.2,156.3,243.7,155.3L243.7,155.3z M237.9,153.9
		c-0.2-0.7-0.4-1.3-0.5-2C237.5,152.5,237.7,153.2,237.9,153.9c0.1,0.2,0.2,0.4,0.3,0.6C238.1,154.3,238,154.1,237.9,153.9z"/>
	<path class="st27" d="M299.1,69.4c0.1,0.4,0.1,0.9,0.1,1.4c1.6,0.5,3.1,1,4.7,1.6c0.2-0.7,0.5-1.3,0.7-2c-1.7-0.8-3.4-1.7-5-2.5
		C299.4,68.3,299.2,68.8,299.1,69.4z"/>
	<path class="st31" d="M299.1,81.2c-1.3,0.8-2.6,1.7-3.9,2.6c0.3,0.7,0.6,1.3,0.9,1.9c1.5-0.7,2.9-1.4,4.4-2.1
		C300,82.9,299.5,82,299.1,81.2L299.1,81.2z"/>
	<path class="st8" d="M279.2,21c-2.9-0.9-1.4-9-7.2-4.9c0.4,4.1-0.6,9.3,6.2,8.4c0.5-0.1,1.4,2.9,2.1,4.5c3.7,2.3,4.9,0.9,4.4-3.2
		C282.9,24.2,281.1,22.6,279.2,21L279.2,21z"/>
	<path class="st25" d="M280.4,29c-0.7-1.6-1.6-4.6-2.1-4.5c-6.8,0.9-5.8-4.3-6.2-8.4c-0.5,0.1-0.9,0.2-1.4,0.3
		c-0.8,0.5-1.6,0.9-2.2,1.6c-1.7,1.8-3.3,3.8-4.9,5.7c1.8,1.6,3.4,3.5,5.4,4.6c1.3,0.8,3.2,0.4,4.8,0.5
		C275.9,28.8,278.1,28.9,280.4,29L280.4,29z"/>
	<path class="st11" d="M414.1,66.2c-1.6,0.2-3.1,0.4-4.7,0.6c-1.9-0.6-3.9-1.1-5.8-1.7c0-1,0-2.1,0-3.1l0,0c0-0.5-0.1-1-0.1-1.5
		c-2.2-0.2-4.5-0.3-8.2-0.6c2.6-4.4,4.3-7.5,6.1-10.6c2.1,1.2,3.9,2.2,6,3.5c-0.7,1.5-1.4,3.2-2.1,4.7c2.7,3.3,12.2-3.6,15.5-10.8
		c0.8,1.1,1.7,2.1,2.5,3.2c-0.4,2.7-1.5,5.6-1,8c0.5,2.6,2.6,4.8,4.1,7.1c-0.1,0.4-0.1,0.9-0.1,1.3
		C422.3,66.3,418.2,66.2,414.1,66.2L414.1,66.2z"/>
	<path class="st15" d="M350.8,52.9c0-0.5,0-1,0.1-1.5c0.2-0.3,0.3-0.7,0.2-1.1c1.4-2.1,2.8-4.2,4.1-6.3l0,0c0.5-0.5,1.1-1,1.6-1.5
		c1.8-2,3.6-4,5.4-6c1-0.5,2.1-1,3.1-1.5c1.7,1.5,3.5,2.9,5.2,4.4c0.6,1.1,1.2,2.2,1.8,3.2c-2.4,2-4.8,3.9-7.2,5.8
		c-1.9-0.4-4.1-1.7-5.6-1C356.4,48.6,353.7,51,350.8,52.9L350.8,52.9z"/>
	<path class="st6" d="M363.7,28.6c-3,10.3-7.4-0.8-11.3,0.5c0.9-1,1.8-2,2.6-3c1,0,2,0,3,0c1.4,0.4,2.8,0.7,4.2,1.1
		C362.7,27.7,363.2,28.2,363.7,28.6L363.7,28.6z"/>
	<path class="st8" d="M370.6,40.3c-1.4-1.4-2.8-2.6-4.2-4c-0.1-1.6-0.2-3.3-0.2-4.9C367.6,34.4,369.1,37.3,370.6,40.3L370.6,40.3z"
		/>
	<path class="st14" d="M362.2,27.2c-1.4-0.4-2.8-0.7-4.2-1.1C359.4,26.5,360.8,26.8,362.2,27.2z"/>
	<path class="st12" d="M403.6,62c0,1,0,2.1,0,3.1c-1.9,2.5-3.8,4.9-5.7,7.4c-0.2-0.1-0.4-0.2-0.6-0.3c0.2,0.1,0.4,0.2,0.6,0.3
		c-1.2,1.7-2.1,3.8-3.7,4.8c-6.8,4.2-13.8,8.1-22.6,13.2c2.3-3.7,3.3-6.5,5.3-8.2c7.7-6.6,15.7-12.9,23.6-19.2
		C401.3,62.5,402.5,62.3,403.6,62L403.6,62z"/>
	<path class="st30" d="M350.9,93.3c-0.3-1.7-0.7-3.4-0.9-5.1c-1-7.2,1.6-9.4,8.2-7.1c0.9,0.3,1.8,0.2,1.6,0.2
		c0.7,4.2,1.4,8.2,2,12.1C358.2,93.3,354.5,93.3,350.9,93.3L350.9,93.3z"/>
	<path class="st5" d="M376.4,107.4c-1.4,1-2.9,1.9-3.2,2.2c-3-0.3-5.2-0.6-7.5-0.8c-1.5-5.6-6.8-3.4-10.6-4.6
		c0.9-1.8,1.6-3.7,2.5-5.6c3.2,0,6.4,0,9.6,0c0.5,0.9,1.2,1.8,1.7,2.7c1,1,1.9,1.9,3,2.9c1,0,2,0.1,3,0.1
		C375.3,105.3,375.9,106.4,376.4,107.4L376.4,107.4z"/>
	<path class="st23" d="M375.7,57.7h9.8c0.1-0.5,0.1-0.9,0.2-1.4c-1.8-0.7-3.6-1.5-5.4-2.2c-0.1-0.5-0.2-1.1-0.2-1.6
		c2.2-0.6,4.8-2.3,6.4-1.5c1.5,0.8,3.2,5.4,2.7,5.9c-2.2,2.2-5,4-8,4.8c-1.8,0.5-4.1-1.4-6.1-2.2C375.2,58.8,375.5,58.2,375.7,57.7
		L375.7,57.7z M384.3,51.7l-0.2,0.5h0.4L384.3,51.7L384.3,51.7z"/>
	<path class="st1" d="M355.2,104c3.5,1.1,8.4-1.1,9.9,4.8c-0.5,2.5-1,5-1.4,7.5c-2.8-3.5-5.7-7.1-8.5-10.6
		C355.2,105.1,355.2,104.6,355.2,104L355.2,104z"/>
	<path class="st1" d="M366.8,98.2c-3,0-6,0-9,0c-2.2-1.3-4.4-2.6-6.6-4c3.6,0,7.3,0,10.9,0.1C363.7,95.6,365.2,96.9,366.8,98.2z"/>
	<path class="st1" d="M373.7,104c-0.9,0-1.9-0.1-2.8-0.1c0-0.9-0.1-1.8-0.1-2.8c1-8.7,4.5-2.6,7.2-1.4
		C376.6,101.2,375.1,102.6,373.7,104L373.7,104z"/>
	<path class="st32" d="M370.3,101.5c0,0.9,0.1,1.8,0.1,2.8c-0.9-1-1.8-2-2.8-3C368.5,101.4,369.4,101.5,370.3,101.5z"/>
	<path class="st5" d="M419.4,128.3c2.4-4,4.7-8.1,7.1-12.1c3.4-6.5,6.7-12.9,10.1-19.4c0.9-0.6,1.8-1.2,2.6-1.8c1.9-1,3.9-2,5.8-3
		c0.5-0.5,0.9-1,1.4-1.4c1.5-2,2.9-4,4.4-6l0,0c0.5-0.5,0.9-1.1,1.4-1.6c0-0.4,0.1-0.9,0.1-1.3c0.9-0.6,1.8-1.1,2.7-1.7
		c0.5,0,1,0,1.5,0.1c0.4,2,0.9,4.1,1.3,6.1c-3.6,3.9-9.1,7.1-5.5,14.1c-2.7,1.8-5.5,3.6-8.2,5.5c-4.9,3.4-9.8,6.9-9.4,14.3
		c0,0.8-1.5,1.6-2.2,2.4c-1.8,0.6-3.9,0.7-5.3,1.8c-2.4,2-4.2,4.7-6.3,7.1C420.3,130.4,419.8,129.4,419.4,128.3L419.4,128.3z"/>
	<path class="st4" d="M452.2,81.7c0,0.4-0.1,0.9-0.1,1.3c-0.5,0.5-0.9,1.1-1.4,1.6l0,0c-1.5,0-2.9,0-4.4-0.1
		c-0.3-0.8-0.6-1.7-1.8-4.9c-2.3,6.4-3.8,10.9-5.4,15.3c-0.9,0.6-1.8,1.2-2.6,1.8c-1.9,0.6-4.5,0.7-5.7,2c-3,3.4-5.3,7.3-8.6,12.2
		c-0.7-2.6-1.1-4-1.5-5.4c4.8-9.6,9.7-19.2,14.6-29.1c-2.5-3.3-1.1-11.3-9-10.2c0-0.4,0.1-0.9,0.1-1.3c6.1-0.4,12.2-0.9,18.4-1.3
		c-2.1,1.9-4.4,3.7-6.2,5.9c-0.4,0.5,0.3,3,1.2,3.6C443.8,76.2,448.1,78.9,452.2,81.7L452.2,81.7z"/>
	<path class="st2" d="M452.2,100.3c-3.6-7.1,1.9-10.2,5.5-14.1c1.3-1.4,2.6-2.8,3.9-4.2c-1.2-0.6-2.5-1.2-3.7-1.9c-0.5,0-1,0-1.5,0
		l0,0c-0.5,0-1-0.1-1.5-0.1c0.7-1.9,1.5-3.9,2.4-6.3c2.7,1.8,4.7,3.1,7,4.5c1.5-2.2,3-4.4,5.1-7.6c0.3,2.5,0.5,4.1,0.8,6.3
		c2.4-1.5,4.4-2.8,6.4-4.1l1.1,1.2c-6.7,8-13.3,16-19.9,24.1C455.9,98.8,454.1,99.5,452.2,100.3L452.2,100.3z"/>
	<path class="st33" d="M480,69c-0.2,0.4-0.3,0.8-0.5,1.3c-0.4-0.2-1-0.3-1.1-0.6c-0.1-0.3,0.3-0.8,0.5-1.2
		C479.2,68.7,479.6,68.9,480,69L480,69z"/>
	<path class="st8" d="M361.4,36.6c-1.8,2-3.6,4-5.4,6c-0.2-0.5-0.3-1-0.5-1.6c0-1,0.1-2,0.1-3C357.5,37.6,359.5,37.1,361.4,36.6z"/>
	<path class="st16" d="M355.2,43.9c-1.4,2.1-2.8,4.2-4.1,6.3C352.4,48.1,353.8,46,355.2,43.9z"/>
	<path class="st10" d="M355.4,41c0.3,0.5,0.5,0.9,0.8,1.5c-0.4,0.6-0.9,1.2-1.3,1.8C354.9,43.1,355.2,42,355.4,41L355.4,41z"/>
	<path class="st3" d="M420.8,131.4c2.1-2.4,4-5.1,6.3-7.1c1.3-1.2,3.5-1.2,5.3-1.8c-0.2,1.9-0.4,3.8-0.5,5.7
		c-1.4,1.8-3.1,3.4-4.3,5.4c-4.2,6.8-8.4,13.6-12.5,20.5c-3.7-1.8-7.4-3.6-13.1-6.4C412.4,145.1,421.2,143.5,420.8,131.4
		L420.8,131.4z"/>
	<path class="st11" d="M415.1,154c4.3-6.8,8.4-13.7,12.7-20.5c1.2-1.9,2.9-3.6,4.4-5.4c0.3,3.6,0.5,7.1,0.8,10.7c-0.5,0-1,0-1.5,0.1
		c-3.9,6.1-7.4,12.3-11.6,18.1c-2.6,3.8-6.1,7-9.2,10.5C412.2,163,413.6,158.5,415.1,154L415.1,154z"/>
	<path class="st1" d="M430.6,190.1c0.6,3,1.2,6.1,1.8,9.1c-0.1,10.5-0.5,10.9-12,12.2c-1.7,0-3.5-0.1-5.2-0.1
		c-2.4-7.5-4.7-15-7.3-22.4c-0.8-2.3-2.5-4.2-3.9-6.3c0.3-1.5,0.6-3,0.9-4.4c5.1,8.1,10.9,0.5,17.4-0.1v19c0.9,0.6,1.8,1.1,2.7,1.7
		C426.9,195.8,428.7,193,430.6,190.1L430.6,190.1z"/>
	<path class="st27" d="M410.7,169c0-0.5,0-1,0-1.5C410.8,168,410.7,168.5,410.7,169z"/>
	<path class="st34" d="M416.5,226.6c-6.7-0.5-12.2-1.1-19.1-1.6C406.3,216.2,410.4,216.7,416.5,226.6z"/>
	<path class="st35" d="M426.4,66.4c7.9-1.1,6.4,6.8,9,10.2c-5,9.9-9.8,19.5-14.6,29.1c-2.3,1.6-4.8,2.8-6.9,4.7
		c-5.7,5.2-9.1,2.3-12-3.3c0-2.7-0.6-5.7,0.2-8.1c3.8-11,8-21.9,12.1-32.8C418.2,66.2,422.3,66.3,426.4,66.4L426.4,66.4z"/>
	<path class="st2" d="M243.7,155.3c-0.5,1-1,2-1.5,3c2.4,2.3,4.7,4.9,7.4,6.9c3.3,2.5,6.9,4.5,9.8-0.8c-3.7-2.1-7.3-4.1-11-6.2
		C246.7,157.3,245.2,156.3,243.7,155.3L243.7,155.3z"/>
	<path class="st18" d="M231,169c0.8-1.1,1.6-2.2,2.4-3.4C232.6,166.7,231.8,167.8,231,169z"/>
	<path class="st21" d="M237.9,153.9c0.1,0.2,0.2,0.4,0.3,0.6C238.1,154.3,238,154.1,237.9,153.9L237.9,153.9z"/>
	<path class="st35" d="M397.9,72.5c-0.2-0.1-0.4-0.2-0.6-0.3C397.5,72.2,397.7,72.4,397.9,72.5L397.9,72.5L397.9,72.5z"/>
	<path class="st22" d="M438.9,94.9c1.6-4.5,3.1-8.9,5.4-15.3c1.2,3.2,1.5,4,1.8,4.9c-0.4,2-0.9,4-1.3,6c0,0.5-0.1,1-0.1,1.5
		C442.7,92.9,440.8,93.9,438.9,94.9z"/>
	<path class="st3" d="M457.9,80.1c1.2,0.6,2.5,1.2,3.7,1.9c-1.3,1.4-2.6,2.8-3.9,4.2c-0.4-2-0.9-4.1-1.3-6.1l0,0
		C456.9,80.1,457.4,80.1,457.9,80.1L457.9,80.1z"/>
	<path class="st3" d="M445.3,90.5c0.4-2,0.9-4,1.3-6c1.5,0,2.9,0,4.4,0.1c-1.5,2-2.9,4-4.4,6C446.1,90.6,445.7,90.6,445.3,90.5
		L445.3,90.5z"/>
	<path class="st4" d="M445.1,90.5c0.4,0,0.9,0,1.3,0c-0.5,0.5-0.9,1-1.4,1.4C445,91.5,445,91,445.1,90.5L445.1,90.5z"/>
	<path class="st35" d="M450.7,84.6c0.5-0.5,0.9-1.1,1.4-1.6C451.6,83.5,451.2,84.1,450.7,84.6z"/>
	<path class="st31" d="M457.9,80.1c-0.5,0-1,0-1.5,0C456.9,80.1,457.4,80.1,457.9,80.1z"/>
	<path class="st36" d="M116.2,195c-0.4-6.1-0.9-12.2-1.3-18.4c0,5.6,0,11.1,0,18.5c-1.5-3.3-2.2-4.8-2.8-6.2
		c-1.8,4-3.6,8.1-5.4,12.1c-0.6,2-1.2,4.1-1.9,6.1l0,0c-0.5,2.4-1,4.9-1.5,7.3c1.8,2.5,3.7,4.9,5.9,7.9c-2.4,1-4.3,1.7-6.1,2.5
		c-1.6-2.2-3-4.1-4.4-6.1c-2.2-1.9-6.5-2.5-4-7.2c-1.5,0.5-3,1-4.5,1.5c0.9,3.3,2,6.6,2.7,9.9c0.5,2.7,0.5,5.5,0.7,8.2
		c0,1.4,0,2.8-0.1,4.1c2.9,0.2,5.8,0.1,8.6,0.6c3.2,0.6,6.3,1.7,9.5,2.6c0.8-0.4,1.6-1.1,2.5-1.2c6.7-0.2,8.7-3.5,6.8-10.3
		c-1.2-4.5-1.5-9.2-2.3-13.9c-0.4-2.6-0.8-5.1-1.2-7.7C117.1,202,116.6,198.5,116.2,195L116.2,195z"/>
	<path class="st2" d="M122.4,101.8c9.6-11.1,11.7-23.9,8.2-38.1c-3.2,5.7-5.7,11.9-9.7,16.8c-2.7,3.3-7.4,4.9-11.3,7.2
		c-1.3-2.6-2.4-5.3-3.8-7.8c-0.5-1-1.6-1.7-2.5-2.5c-5.8-1.1-11.6-2.2-17.5-3.3c-2.1,2.1-4.3,4.2-6.4,6.3c-0.6,1.5-1.1,3.1-1.7,4.6
		c1.1,2.8,2.3,5.5,3.2,8.4c0.5,1.6,0.6,3.4,0.9,5.2c-0.3,2.6-0.6,5.2-0.9,7.8c3.2-0.1,6.4-0.4,9.6-0.2c2.9,0.2,5.8,1,8.7,1.5
		c2.4-1,4.8-2.1,7.2-3.1C111,99.2,116.4,98.8,122.4,101.8L122.4,101.8z M85.8,98.8c-0.1-1.1-0.3-2.2-0.4-3.3
		c8.2-3.5,16.8-0.4,25.2-1.8c0.1,0.9,0.2,1.8,0.2,2.7C102.4,97.3,94.1,98.1,85.8,98.8z"/>
	<path class="st3" d="M103.3,77.3c0.8,0.8,1.9,1.5,2.4,2.5c1.4,2.5,2.6,5.2,3.8,7.8c3.8-2.3,8.6-3.9,11.3-7.2
		c4-4.9,6.5-11.2,9.7-16.8c-1.1-4.2-1.9-8.6-3.3-12.7c-2.2-6.8-6.7-11.2-13.2-13.2c-7.3-0.6-9.5,6.3-13.5,10.4
		c1,1.6,2.8,3.2,2.8,4.8c0.1,2.6-1,5.2-1.6,7.9c4.8-0.5,7.2,1.1,5.4,6.5c-2.3,0.4-4.5,0.7-6.7,1.1C101.4,71.3,102.3,74.3,103.3,77.3
		L103.3,77.3z M108.7,58.7c-0.2-0.4-0.6-0.9-0.4-1.2s0.7-0.4,1.1-0.6c0.2,0.4,0.6,0.9,0.4,1.2C109.7,58.4,109.1,58.5,108.7,58.7
		L108.7,58.7z"/>
	<path class="st37" d="M106.3,104.4c-2.4,1-4.8,2.1-7.2,3.1c-0.5,0.1-1,0.3-1.5,0.4c-0.6,0.3-1.1,0.6-1.7,0.9l0.1-0.1
		c-0.8,0.5-1.5,1-2.3,1.4c-4,3.4-8.1,6.9-12.1,10.4c0.2,1.6,0.4,3.2,0.8,5.8c6.8-2.3,13.7-4.6,21.3-7.2c1.4,2.9,2.6,5.5,3.9,8
		c3.8,1.4,7.5,2.8,11.3,4.2c1.5-6.5,3.1-13.1,4.6-19.6c0-1.4,0-2.8,0-4.3c-0.6-0.7-1.3-1.4-1.9-2.1
		C116.5,105.1,111.4,104.8,106.3,104.4L106.3,104.4z"/>
	<path class="st10" d="M109,27.8c5-15.2-1.6-26.2-15.1-23.9c-3.6,0.6-6.6,4.8-9.9,7.4c1.8,0,3.6,0,5,0c1.1,2.5,2,4.7,2.9,6.9
		c1.7,0.4,3.6,0.5,5.1,1.2c1.9,0.9,3.5,2.3,5.2,3.6C104.6,24.6,106.8,26.2,109,27.8L109,27.8z"/>
	<path class="st15" d="M109,27.8c-2.2-1.6-4.4-3.3-6.7-4.9c-1.7,2.7-3.4,5.4-5.2,8.5c-2.4-1.6-5.2-3.5-8.4-5.6
		c1.1-2.7,2.2-5.2,3.2-7.6C91,16,90,13.8,89,11.3c-1.4,0-3.2,0-5,0c-0.2,0.9-0.4,1.8-0.6,2.7c1.2,2.6,2.9,5.1,3.5,7.9
		c1.1,5.4,1.5,10.9,2.1,16.3l0,0c3.1-1.2,6.2-2.4,7.9-3c1.4,2.9,2.4,5.2,3.5,7.5c2.9-3.4,5.8-6.8,8.7-10.2
		C109.1,30.9,109.1,29.3,109,27.8L109,27.8z"/>
	<path class="st5" d="M103.3,77.3c-1-3-1.9-6-2.9-9c0.4-2.5,0.9-5,1.3-7.5c0.6-2.6,1.6-5.3,1.6-7.9c-0.1-1.6-1.8-3.2-2.8-4.8
		c-2.4,3.2-4.7,6.4-7.1,9.6c-2.2,4.6-4.4,9.2-6.6,13.8c-0.3,0.8-0.6,1.7-0.9,2.5C91.6,75.1,97.5,76.2,103.3,77.3L103.3,77.3z"/>
	<path class="st9" d="M97.6,108c0.5-0.1,1-0.3,1.5-0.4c-2.9-0.5-5.8-1.3-8.7-1.5c-3.2-0.2-6.4,0.1-9.6,0.2
		c1.5,7.1-2.9,11.2-7.1,15.5c-2.5,2.5-6.3,5.1-3,9.8c0.4,0.1,0.8,0.1,1.2,0c3.3-3.7,6.6-7.3,9.8-10.9c4-3.4,8.1-6.9,12.1-10.4
		c0.8-0.5,1.5-1,2.3-1.4L96,109C96.5,108.5,97.1,108.3,97.6,108L97.6,108z"/>
	<path class="st37" d="M71.9,131.5c-0.4,0.1-0.8,0.1-1.2,0c-2.9,2.2-5.7,4.3-8.6,6.5c-0.4,0.4-0.8,0.8-1.2,1.2l-0.4,0.5
		c-0.4,0.3-0.7,0.7-1.1,1l-0.3,0.2c-0.4,0.4-0.9,0.8-1.3,1.2c0,0-0.1,0.2-0.1,0.1c-0.4,0.5-0.9,0.9-1.3,1.4l-0.1,0.1
		c1.4,7.4,4.9,9.7,11.4,7.5c0-1,0-2,0-3.1c-2.1,0.4-4.2,0.8-8.2,1.7c2.1-2.6,3-3.6,3.9-4.7c2.9-2,5.7-4,8.6-6c2.4-1.5,4.8-3,7.1-4.5
		c-0.5-1-0.9-2-1.4-3C75.7,131.6,73.8,131.5,71.9,131.5L71.9,131.5z"/>
	<path class="st8" d="M89.1,38.1C88.4,32.7,88,27.2,87,21.8c-0.6-2.8-2.3-5.3-3.5-7.9c-2.8,9.1-1.2,17.8,3.1,25.9
		c0.5,0.9,2.6,0.7,3.6,1.5c2.2,1.7,4.1,3.8,6.2,5.7c1.3-1.5,2.7-2.9,4-4.4c-1.1-2.3-2.1-4.6-3.5-7.5C95.3,35.8,92.2,36.9,89.1,38.1
		c-0.2,0.1-0.4,0.2-0.6,0.3C88.7,38.4,88.9,38.2,89.1,38.1L89.1,38.1z"/>
	<path class="st8" d="M77.7,84.9c0.6-1.5,1.1-3.1,1.7-4.6c-1.8-2.4-4-4.7-5.2-7.4S72.7,67,72,64c-8.7,5.9-9,8.9-1.2,14.6
		C73.1,80.7,75.4,82.8,77.7,84.9L77.7,84.9z"/>
	<path class="st38" d="M72.6,64.4c0.7,2.8,1,5.8,2.2,8.3s3.4,4.6,5.2,6.9c2.1-2,4.3-3.9,6.4-5.9c0.3-0.7,0.6-1.6,0.9-2.3
		C84.5,64.8,77.5,66.7,72.6,64.4L72.6,64.4z"/>
	<path class="st39" d="M77.7,84.9c-2.3-2.1-4.6-4.2-6.9-6.3c0,0.2-0.1,0.5-0.1,0.7c-0.5,9.4,3.2,15.7,11.1,19.1
		c-0.3-1.7-0.3-3.5-0.9-5.2C80,90.4,78.8,87.7,77.7,84.9L77.7,84.9z"/>
	<path class="st16" d="M100.5,42.6c-1.3,1.5-2.7,2.9-4,4.4c-1.1,3.6-2.1,7.1-3.1,10.7c2.4-3.2,4.7-6.4,7.1-9.6
		c4.1-4.1,6.2-11,13.5-10.4c0-3.3-0.4-6.3-4.8-5.3C106.3,35.8,103.4,39.2,100.5,42.6L100.5,42.6z"/>
	<path class="st9" d="M106.3,104.4c5.1,0.3,10.1,0.7,15.2,1c0.3-1.2,0.6-2.5,0.8-3.7C116.4,98.8,111,99.2,106.3,104.4z"/>
	<path class="st36" d="M123.5,111.8c-1.5,6.5-3.1,13.1-4.6,19.6c1,0.1,2.1,0.2,3.1,0.3c0.9-6.6,1.8-13.1,2.8-19.7
		C124.3,112,123.9,111.9,123.5,111.8L123.5,111.8z"/>
	<path class="st40" d="M54.9,143.9c-0.4,1-0.9,1.9-1.3,2.9c0.5,3.5,0.9,7,1.4,10.5c0.4,0,0.9,0,1.3,0c1.5-0.5,2.9-1.1,4.5-1.4
		c3.8-0.6,7.6-1.1,11.4-1.7c-1.5-1-3-1.9-4.4-2.9c-6.5,2.3-9.9,0-11.4-7.5C55.9,143.9,55.4,143.9,54.9,143.9L54.9,143.9z"/>
	<path class="st41" d="M87.3,200.6c0.6,4.2,1.2,8.3,1.9,12.5c0.4,0,0.7,0,1.1,0c1.5-0.5,3-1,4.5-1.5c0.5-5.6,0.9-11.3,1.4-17
		C93.2,196.7,90.2,198.6,87.3,200.6L87.3,200.6z"/>
	<path class="st42" d="M109.1,241.6c0.9-1,1.8-2,2.6-3c-3.2-0.9-6.3-2-9.5-2.6c-2.8-0.5-5.7-0.4-8.6-0.6c-1.9,2.1-3.9,4.2-5.9,6.4
		c1,0.1,1.9,0.3,2.9,0.4c3.7,0,7.5-0.1,11.2-0.1c0.9-0.1,1.8-0.3,2.8-0.4C106.1,241.6,107.6,241.6,109.1,241.6L109.1,241.6z"/>
	<path class="st43" d="M101.8,242c-3.7,0-7.5,0.1-11.2,0.1C94.4,242.1,98.1,242,101.8,242z"/>
	<path class="st37" d="M87.3,200.6c2.9-2,5.9-3.9,8.8-5.9c1.9-0.4,3.9-0.9,5.8-1.3c1.4-1.7,2.7-3.4,4.1-5.1c2.3-2.9,4.3-2.6,6.1,0.6
		c0.7,1.4,1.3,2.9,2.8,6.2c0-7.4,0-13,0-18.5c0-1.4,0-2.9,0.1-4.3c-1,0.5-2.1,1-3.1,1.6c-2.7,2.2-5.3,4.4-8.3,6.9
		c-2.4-6.4-4.1-11.2-5.9-16c-2,1-3.9,2-6.5,3.3c-0.6-1.4-1.4-3.1-2.1-4.8c-0.9-1-1.9-2.1-2.8-3.1c-2.5-3.4-5.3-5.8-9.9-4.7
		c-0.8,0.2-2-0.9-2.9-1.4c-0.4,0-0.8,0-1.2-0.1c-3.8,0.6-7.6,1-11.4,1.7c-1.5,0.3-3,0.9-4.5,1.4c3.3,2.1,6.6,4.1,9.8,6.2
		c1,0.9,2,1.9,3,2.8l0,0c3.1,1,8.5-2.8,8.4,4.6c5.9,4.4,11.9,8.8,17.4,12.9c-1,0-3.6,0.7-5.6-0.1c-7.3-3.2-14.4-7-21.7-10.3
		c-1.1-0.5-2.8,0.1-4.2,0.3c5.2,7.6,10.2,15.5,15.8,22.8C81.1,198.7,84.6,199.3,87.3,200.6L87.3,200.6z"/>
	<path class="st44" d="M97.6,164.9c1.8,4.8,3.6,9.6,5.9,16c3-2.5,5.7-4.7,8.3-6.9c-1.9-3.5-1.1-5.6,2.8-6.1c0-1,0-2,0-3.1
		c0-0.4,0-0.9,0-1.3c-0.1-0.6-0.1-1.1-0.2-1.7c-0.4-0.5-0.8-1.1-1.2-1.6c0.4-4.5,0.9-9,1.3-13.4c-1.4,0-2.8-0.1-4.2-0.1
		c0.4,6.5-4.9,11.6-8.4,11.3C94.2,157.2,97.1,161.3,97.6,164.9L97.6,164.9z"/>
	<path class="st45" d="M110.4,146.7c1.4,0,2.8,0.1,4.2,0.1c2.4-5,4.9-10,7.3-15.1c-1-0.1-2.1-0.2-3.1-0.3c-3.8-1.4-7.5-2.8-11.3-4.2
		c-0.4,0-0.8,0-1.3,0c0,0.5-0.1,1-0.1,1.5c0,1,0,2,0,3c2.3,0.8,4.6,1.6,9,3c-4.2,2.2-6.6,3.4-8.9,4.6c-1.8,1.5-3.7,3-5.5,4.5
		c-5.3,3-10.6,6.1-15.9,9.1l1.4,7.5c0.9,1,1.9,2.1,2.8,3.1c0.3-9.4,2.6-11.2,11.5-9.2l0,0C99.8,145.9,105.5,146.9,110.4,146.7
		L110.4,146.7z"/>
	<path class="st36" d="M114.8,167.9c-4,0.4-4.7,2.6-2.8,6.1c1-0.5,2.1-1,3.1-1.6C114.9,170.9,114.8,169.4,114.8,167.9z"/>
	<path class="st36" d="M114.7,163.5c0,0.4,0,0.9,0,1.3c0.2-0.3,0.4-0.7,0.5-1C115.2,163.8,114.9,163.6,114.7,163.5z"/>
	<path class="st36" d="M113.4,160.2c0.4,0.5,0.8,1.1,1.2,1.6C114.1,161.3,113.8,160.7,113.4,160.2z"/>
	<path class="st46" d="M112.1,189c-1.7-3.2-3.7-3.5-6.1-0.6c-1.4,1.7-2.7,3.4-4.1,5.1c-0.9,2.6-1.9,5.1-2.8,7.7
		c1.9,2,3.8,4.1,5.7,6.1l0,0c0.6-2,1.2-4.1,1.9-6.1C108.5,197,110.3,193,112.1,189L112.1,189z"/>
	<path class="st42" d="M99.1,201.1c0.9-2.6,1.9-5.1,2.8-7.7c-1.9,0.4-3.9,0.9-5.8,1.3c-0.5,5.6-0.9,11.3-1.4,16.9
		c-2.4,4.8,1.8,5.4,4,7.2c0.6-1.5,1.2-3,1.8-4.5C100,209.9,99.6,205.5,99.1,201.1L99.1,201.1z"/>
	<path class="st45" d="M100.5,214.4c-0.6,1.5-1.2,3-1.8,4.5c1.4,1.9,2.8,3.9,4.4,6.1c1.8-0.7,3.7-1.5,6.1-2.5
		c-2.2-3-4.1-5.5-5.9-7.9C102.4,214.5,101.5,214.4,100.5,214.4L100.5,214.4z"/>
	<path class="st47" d="M100.5,214.4c0.9,0.1,1.9,0.1,2.9,0.2c0.5-2.4,1-4.9,1.5-7.4c-1.9-2-3.8-4.1-5.7-6.1
		C99.6,205.5,100.1,209.9,100.5,214.4L100.5,214.4z"/>
	<path class="st47" d="M106.7,201.1c-0.6,2-1.2,4.1-1.9,6.1C105.4,205.1,106,203.1,106.7,201.1z"/>
	<path class="st28" d="M85.8,98.8c8.3-0.8,16.6-1.6,25-2.3c-0.1-0.9-0.2-1.8-0.2-2.7c-8.3,1.3-17-1.7-25.1,1.8
		C85.5,96.6,85.6,97.7,85.8,98.8z"/>
	<path class="st12" d="M102.3,60.3c-0.4,2.5-0.9,5-1.3,7.5c2.2-0.3,4.4-0.7,6.7-1.1C109.5,61.4,107,59.8,102.3,60.3z"/>
	<path class="st12" d="M108.7,58.7c0.4-0.2,1-0.3,1.1-0.6s-0.3-0.8-0.4-1.2c-0.4,0.2-1,0.3-1.1,0.6S108.5,58.3,108.7,58.7z"/>
	<path class="st44" d="M106.3,127.2c0.4,0,0.8,0,1.3,0c-1.2-2.6-2.5-5.1-3.9-8c-7.6,2.6-14.5,4.9-21.3,7.2c-0.4-2.7-0.6-4.3-0.8-5.8
		c-3.3,3.7-6.6,7.3-9.8,10.9c1.9,0.1,3.9,0.1,5.8,0.1C86.8,127.6,96.2,124.3,106.3,127.2L106.3,127.2z"/>
	<path class="st38" d="M92,18.2c-1,2.5-2.1,4.9-3.2,7.6c3.1,2.1,5.9,4,8.4,5.6c1.9-3.1,3.6-5.8,5.2-8.5c-1.7-1.2-3.4-2.7-5.2-3.6
		C95.6,18.7,93.7,18.6,92,18.2z"/>
	<path class="st48" d="M106.3,139.3c2.3-1.2,4.6-2.4,8.9-4.6c-4.4-1.5-6.7-2.3-9-3c-11.4,2.5-22.8,5-34.2,7.5c-2.9,2-5.7,4-8.6,6
		c5.1-0.4,10.3-0.5,15.3-1.2C87.9,142.7,97.1,140.9,106.3,139.3L106.3,139.3z"/>
	<path class="st49" d="M106.3,139.3c-9.2,1.6-18.4,3.4-27.6,4.7c-5.1,0.8-10.2,0.8-15.3,1.2c-0.9,1.1-1.8,2.1-3.9,4.7
		c4-0.8,6.1-1.2,8.2-1.7c11-1.5,22-3,33.1-4.5C102.6,142.3,104.4,140.8,106.3,139.3z"/>
	<path class="st48" d="M100.7,143.8c-11,1.5-22,3-33.1,4.5c0,1,0,2,0,3.1c1.5,1,3,1.9,4.4,2.9c0.4,0,0.8,0,1.3,0
		c3.8-0.5,7.6-1,11.4-1.4C90.1,149.8,95.4,146.8,100.7,143.8L100.7,143.8z"/>
	<path class="st44" d="M72,139.2c11.4-2.5,22.8-5,34.2-7.5c0-1,0-2,0-3c-9,2-18.1,4-27.1,6C76.7,136.2,74.3,137.7,72,139.2z"/>
	<path class="st48" d="M79.1,134.7c9-2,18.1-4,27.1-6c0-0.5,0.1-1,0.1-1.5c-10.2-2.8-19.5,0.4-28.7,4.5
		C78.1,132.7,78.6,133.7,79.1,134.7L79.1,134.7z"/>
	<path class="st50" d="M89.1,38.1c-0.2,0.1-0.4,0.2-0.6,0.3C88.7,38.4,88.9,38.2,89.1,38.1L89.1,38.1L89.1,38.1z"/>
	<path class="st45" d="M63.6,173.7c1.4-0.1,3.1-0.8,4.2-0.3c7.3,3.3,14.4,7.1,21.7,10.3c2,0.9,4.6,0.1,5.6,0.1
		c-5.6-4.1-11.5-8.5-17.4-12.9c-2.8-1.5-5.6-3.1-8.4-4.6l0,0c-1-0.9-2-1.9-3-2.8c-3.3-2.1-6.6-4.1-9.8-6.2c-0.4,0-0.9,0-1.3,0
		c0,1-0.1,2-0.1,3C57.8,164.7,60.7,169.2,63.6,173.7L63.6,173.7z"/>
	<path class="st36" d="M110.4,146.7c-4.9,0.2-10.6-0.8-9.9,7.6c0.1,0.2,0.2,0.4,0.3,0.6c-0.1-0.2-0.2-0.4-0.3-0.6
		c-8.9-2-11.2-0.2-11.5,9.2c0.8,1.7,1.5,3.3,2.1,4.8c2.5-1.3,4.5-2.3,6.5-3.3c-0.5-3.6-3.4-7.7,4.4-6.9
		C105.5,158.3,110.9,153.2,110.4,146.7L110.4,146.7z"/>
	<path class="st40" d="M84.8,152.9c-3.8,0.5-7.6,1-11.4,1.4c1,0.5,2.1,1.6,2.9,1.4c4.5-1.1,7.4,1.3,9.9,4.7
		C85.7,157.8,85.3,155.4,84.8,152.9L84.8,152.9z"/>
	<path class="st49" d="M69.2,166.3c2.8,1.5,5.6,3.1,8.4,4.6C77.7,163.5,72.2,167.4,69.2,166.3z"/>
	<path class="st49" d="M66.1,163.5c1,0.9,2,1.9,3,2.8C68.1,165.3,67.1,164.4,66.1,163.5z"/>
	<path class="st45" d="M100.5,154.3c0.1,0.2,0.2,0.4,0.3,0.6C100.7,154.7,100.6,154.5,100.5,154.3L100.5,154.3L100.5,154.3z"/>
</g>
</svg>
