<?xml version="1.0" encoding="utf-8"?>
<!-- Generator: Adobe Illustrator 22.0.1, SVG Export Plug-In . SVG Version: 6.00 Build 0)  -->
<svg version="1.1" id="Capa_1" xmlns="http://www.w3.org/2000/svg" xmlns:xlink="http://www.w3.org/1999/xlink" x="0px" y="0px"
	 viewBox="0 0 150 100" style="enable-background:new 0 0 150 100;" xml:space="preserve">
<style type="text/css">
	.st0{fill:#000000;}
</style>
<path id="bordes" d="M143.6,17.4c-0.4-1.6-1.1-3.3-0.9-5c0.1-0.8,0.8-1.6,0.4-2.5c-0.3-0.8-1.2-1.3-2-1.5c-1.7-0.6-3.5-0.2-5.2,0.2
	c-2.1,0.5-4.2,1.1-6.3,1.7c-8.1,2.1-16.2,4-24.4,5.5c-4.2,0.8-8.3,1.4-12.5,2c-0.7,0.1-1.8,0.5-2.5,0.3c-0.7-0.3-1.3-1.2-2-1.6
	c-1.6-1-3.1-0.9-4.9-0.9c-1.6,0-2.6-0.8-4-1.6c-1.5-0.9-3.3-1.1-5-0.8c-1.7,0.4-3,1.5-4.3,2.5c-0.5,0.5-1.2,1.1-1.8,1.5
	c-0.9,0.5-2.3,0.2-3.4,0.1C56.4,17,48.3,16.4,40,14.8c-5.7-1.1-11.5-2.2-17.2-3.6c-4.1-1-8.3-3.2-12.5-3.1C9.3,8.1,8,8.4,7.4,9.4
	c-0.8,1.3,0.1,2.5,0.2,3.8c0.2,3-3.3,6.3,0.6,8.3c3.9,2,8.6,2.6,12.9,3.6c4.5,1,9,2,13.6,2.7c9.1,1.4,18.4,2.3,27.6,1.4
	c-0.1,1.2-0.1,1.7-0.8,2.7c-0.7,1-1.4,1.9-2.2,2.9c-1.5,1.9-2.8,3.9-4.1,6c-2.7,4.3-5.3,8.7-7.5,13.2c-2.1,4.3-3.8,8.9-5.5,13.4
	c-0.8,2-2.2,4.4-1.6,6.7c0.5,2.1,2.2,3.5,3.4,5.2c1.3,1.8,2.6,3.7,4.1,5.4c1.5,1.8,3.2,3.3,4.8,5.1c0.9,1,3.1,3.6,4.1,1.3
	c1-2,0.9-4.8,1.2-7c1.4-9.9,2.2-20.3,5.4-29.8c1.8-5.5,3.6-11,5.5-16.5c0.4-1.2,0.9-2.5,1.6-3.5c0.8-1.1,1.7-0.2,2.6,0.3
	c2.3,1.2,5,1.3,7.4,0.3c0.6,0.7,0.9,1.9,1.2,2.8c0.4,1.1,0.9,2.2,1.3,3.2c0.9,2.2,1.7,4.3,2.4,6.5c1.4,4.3,2.6,8.6,3.5,13
	c0.9,4.4,1.7,8.8,2.4,13.2c0.7,4.5,1.1,9,2,13.5c0.2,1.2,0.3,4.8,1.9,5c0.8,0.1,1.4-0.8,1.9-1.3c0.7-0.8,1.5-1.6,2.2-2.3
	c3-3.1,5.7-6.4,8.3-9.8c1.1-1.5,2.7-3.2,2.9-5.1c0.2-2-1.1-4.1-1.8-5.9c-1.6-4.2-3.2-8.3-5-12.4c-4.1-9.1-9.8-17.4-15.9-25.3
	c10.6,0,21.2-0.8,31.6-2.7c5.4-1,10.7-2.2,16-3.5c2.2-0.5,4.9-1,6.8-2.4C143.9,20.3,143.9,18.9,143.6,17.4z"/>
<g id="color">
	<path class="st0" d="M61.4,27.4c0.9,0,1.7-3,2.1-3.6c0.9-1.5,1.8-2.9,2.7-4.4c-1.5-0.1-3.1-0.2-4.6-0.2c-0.1,0-1-0.1-1.1,0
		c0,0,0.1,0,0.1,0c-0.1,0.2-5.8-0.5-6.1-0.5c-5-0.4-10-1.1-15-2c-4.8-0.9-9.6-2-14.4-3.1c-2.4-0.6-4.8-1.2-7.2-1.9
		c-2.2-0.7-4.3-1.6-6.6-2c-1.8-0.3-3.4,0-2.8,2.2c0.3,1.2,2.2,4.8-0.3,4.4c-0.2,1.2-0.8,2.8,0.3,3.7c1.3,1.1,3.7,1.4,5.4,1.8
		c5.3,1.1,10.5,2.3,15.8,3.3c5.2,1,10.4,1.7,15.7,2.2c2.6,0.2,5.3,0.5,7.9,0.5C56,27.8,58.7,27.5,61.4,27.4z"/>
	<path class="st0" d="M65.6,35.1c-0.9,2.5-2.1,4.9-3.2,7.4c-1.2,2.6-2,5.3-3,8c-1,2.7-1.9,5.5-2.9,8.2c-0.9,2.5-1.5,5.2-2.7,7.6
		c-0.6-0.9,0.2-3,0.4-4c0.3-1.5,0.6-2.9,0.9-4.3c0.7-2.9,1.8-5.7,2.8-8.5c1-2.7,2.1-5.4,3.3-8.1c1.2-2.8,2.7-5.3,4.3-7.9
		c-1-0.7-1.9-1.2-2.9-1.8c-5,7.7-9.5,15.6-13.5,23.8c-1.9,4-3.5,8.2-5,12.4c-0.6,1.8-2.1,4.2-1.7,6.1c0.4,1.8,2.1,3.4,3.1,4.8
		c2.8,4.2,6.4,7.8,9.8,11.6c1.4-4.8,1.4-10.1,2-15c0.7-5.1,1.4-10.3,2.4-15.4c1.8-9.1,5.6-17.5,8.8-26.2
		C66.9,33.6,66.2,33.4,65.6,35.1z"/>
	<path class="st0" d="M105.6,64.7c-4.7-12.1-10.8-24-18.6-34.4c-1.1,0.8-2.1,1.7-3.2,2.5c-0.4,0.3-1.2,0.7-1.3,1.2
		c-0.1,0.5,0.3,1.2,0.5,1.7c0.8,2.3,1.9,4.5,2.9,6.8c2,4.9,3.4,10.2,4.7,15.3c2.8,10.6,3.5,21.6,4.8,32.5c0.1,0,0.2,0,0.3,0.1
		c1.7-2,3.5-3.9,5.3-5.8c1.8-1.9,3.2-4,4.8-6.1c1.3-1.8,3.1-3.6,2.7-6c-0.2-1.3-1-2.5-1.5-3.7C106.5,67.3,106.1,66,105.6,64.7z"/>
	<path class="st0" d="M88.4,20.5c-0.2-1.7-1-3.4-2.8-3.9c-2.2-0.6-4.3,0.7-6.1,1.9c-0.2-1.1,0.8-1.5,1.2-2.2c-2.2-1.9-5.5-2.9-8-1.1
		c-2.4,1.8-4.5,4.1-6.2,6.5c-1.7,2.4-3.7,5.3-2.5,8.3c1.1,2.8,4.7,2.3,7.2,2.5c-0.7-0.9-1.4-1.5-1.4-2.7c0.7,0.1,0.9,0.1,1.4,0.5
		c0.5,0.4,0.9,1,1.4,1.5c0.7,0.8,1.4,1.8,2.6,2c2.1,0.4,4.5-1.2,6.1-2.4C84.7,28.8,89,25.4,88.4,20.5z"/>
	<path class="st0" d="M141.6,16.3c-2.5,0.5-1-2.4-0.5-3.7c0.4-1,0.9-1.9-0.2-2.6c-0.9-0.6-2-0.5-3.1-0.2c-2.5,0.6-4.8,1.7-7.3,2.3
		c-2.6,0.7-5.3,1.3-8,1.9c-5.3,1.2-10.6,2.5-16,3.3c-5.3,0.8-10.7,1.3-16,1.8c0.7,3.2-0.6,6.1-2.3,9.1c3.5,0.3,7.2,0,10.8-0.1
		c2.6-0.1,5.1-0.3,7.6-0.7c9.6-1.4,19.3-3.2,28.7-5.4c1.8-0.4,4.6-0.8,6.1-2C142.6,19,141.9,17.4,141.6,16.3z"/>
</g>
</svg>
