<?xml version="1.0" encoding="utf-8"?>
<!-- Generator: Adobe Illustrator 27.0.0, SVG Export Plug-In . SVG Version: 6.00 Build 0)  -->
<svg version="1.1" xmlns="http://www.w3.org/2000/svg" xmlns:xlink="http://www.w3.org/1999/xlink" x="0px" y="0px"
	 viewBox="0 0 1019.5 841.9" style="enable-background:new 0 0 1019.5 841.9;" xml:space="preserve">
<style type="text/css">
	.st0{fill:#ABB8D6;}
	.st1{fill:#E38383;}
	.st2{font-family:'MyriadPro-Regular';}
	.st3{font-size:12px;}
	.st4{fill:#3C3C3D;}
	.st5{fill:#FDFCFD;}
	.st6{fill:#232D57;}
	.st7{fill:#E43F3E;}
	.st8{fill:#253987;}
	.st9{fill:#732624;}
	.st10{fill:#FFFFFF;}
	.st11{font-size:35.2671px;}
	.st12{stroke:#000000;stroke-width:0.75;stroke-miterlimit:10;}
	.st13{font-size:50.7812px;}
</style>
<g id="Capa_2">
	<path class="st0" d="M556.6,381.1c-19.7-8.4-31-40-28.3-62.6c2.5-21.8,19.6-49,47.6-44.8c22.9,3.4,43.4,26.4,48.4,46.1
		C634.1,358.8,585,393.2,556.6,381.1z"/>
	<path class="st1" d="M388.9,351c23.2,5.9,44.7,34,48.8,55.2c4,20.4-5.5,47.2-36,46c-25-1-53.5-20.2-64.8-37.9
		C314.7,379.1,355.5,342.6,388.9,351z"/>
	<text transform="matrix(0.9998 -1.775578e-02 1.775578e-02 0.9998 537.2745 313.4251)" class="st2 st3">Chung/Azul</text>
	<text transform="matrix(1 0 0 1 380.652 414.9271)" class="st2 st3">Hung/Rojo</text>
</g>
<g id="Capa_1">
	<path class="st4" d="M397.1,329.7c-2.3,2.9,4.1,10.2,12.7,20.6c1.1,1.4,2.5,1.6,4,0.9c4-1.7,7.6-0.9,11.3,1.1
		c1.7,0.9,3.7,1.3,5.4,2.2c4.4,2.2,9,4,12.9,6.9c4.5,3.3,6.2,8.6,6.6,14.2c0.3,3.3-2,5.5-3.7,7.7c-3.6,4.8-8.5,8.4-14.2,10.2
		c-6.2,1.9-12.5,2.9-19-0.8c-5.1-3-10.7-5.4-16.8-6.2c-2.8-0.3-5.1-0.1-7.5,1.4c-2.3,1.5-4.8,2.6-7.4,3.5c-1.4,0.5-3.1,0.4-4.7,0.3
		c-1.3-0.1-2.6-0.5-3.9-0.7c-1.2-0.1-2.4-0.1-3.6-0.2c0.5,1.6-1.2,3.1,0.5,5.1c1.7,2,2.2,5,3.1,7.6c3.3,9.5,8.6,18.2,10.8,28.3
		c1.5,6.7,1.5,13.3,0.2,19.9c-0.1,0.8-0.6,1.6-0.6,2.4c-0.2,5.7-0.9,11.4-0.1,17.1c0.4,2.5,1.6,5.1,3.1,7.1c3,4.1,4.3,8.7,5.9,13.3
		c1.7,4.9,3.3,9.8,5,14.7c0.3,0.9,0.8,1.8,1.3,2.6c6.3,10.8,9.1,22.8,11.7,34.9c2.4,11.3,3.8,22.7,6.6,33.9c1.7,6.9,3.2,14,3.2,21.2
		c0,3.5-0.5,7.1,0.1,10.6c0.2,1.2-0.3,2.6-0.3,3.9c-0.2,3.6-0.5,7.2-0.5,10.8c0,2.6,0.5,5.2,0.7,7.8c0.2,1.8-0.2,3.8,0.5,5.4
		c1.6,3.6,1.4,7.3,1.5,11.1c0.3,8.4,0.7,16.8,1.2,25.2c0.1,1.9,1.3,3.7,1.7,5.6c0.6,3,1.2,6.1,1.2,9.2c0.2,7.9,0.3,15.8,1.8,23.6
		c0.4,2.4,0.1,5,0.1,7.5c0,2.2-1.2,3.6-3,4.6c-2.6,0.1-5.2,0.1-7.9,0.3c-0.5,0-1,0.4-1.6,0.6c0.5,0.4,1,1.1,1.4,1.2
		c4.1,0.1,8.2,0,12.3,0c3.7,0.1,7.3,0.1,11,0.4c2.1,0.2,4.3,0.5,6.2,1.2c6.3,2.3,7.6,11.1,2.2,15.2c-2.6,1.9-5.5,3.2-9,3.3
		c-13.9,0.3-27.8,0.8-41.7,1.2c-1,0-2,0.2-2.9,0.3c-0.8,0.1-1.6,0.3-2.4,0.3c-4-0.2-7.8-1.4-11.9-1.2c-3.9,0.2-7.9-1.5-11.8-2.9
		c-5.5-1.9-9.1-5.8-9.6-11.9c-0.1-1.6-1-2.2-2.2-1.6c-2.6,1.3-4.8,0.7-6.9-0.8c-2.3-1.8-2.9-4.3-2.7-7.1c0.3-3.1,0.2-6.4,1.1-9.2
		c0.8-2.5,0.8-4.9,0.8-7.3c0.1-5-0.2-10,0.1-15c0.2-3.7,1.1-7.4,1.6-11.1c0.3-2,0.3-4,0.3-6c-0.1-6.6,0.4-13.2-0.9-19.8
		c-0.6-3-1.6-5.6-3.7-7.9c-3.4-3.6-5.9-4.1-10.5-2c-2.9,1.3-5.7,2.3-8.9,2.1c-2.9-0.1-5-1.5-5.9-4.3c-0.6-1.8-1-3.8-1-5.8
		c-0.1-11.5-0.1-23,0.1-34.4c0.1-4.9,1.4-9.7,1.6-14.6c0.3-7.2,0.5-14.4-0.5-21.8c-1.5-11.4-6.6-20.7-13.3-29.6
		c-3.4-4.5-6.6-9-9.6-13.7c-2.4-3.7-3.4-8.1-4.3-12.3c-1.4-6.7-2.5-13.4-4-20c-0.9-3.9-2.5-7.7-3.8-11.5c-0.3-0.9-1-1.7-1.1-2.7
		c-0.6-3.6-2.8-5.7-6-7.1c-2.5-1-5-2.2-6.4-4.8c-0.5-0.8-1.3-1.6-2.2-2c-7-3.8-11.8-9.8-16.1-16.2c-2.9-4.3-6.3-8-11.3-9.9
		c-1.2-0.5-2.5-0.7-3.7-1c-9.6-2.4-19.2-1.1-28.9-0.8c-3.4,0.1-6.7,1.3-10.1,1.6c-5.7,0.6-11.5,1-17.2-0.8c-4.5-1.4-6.4-4.8-6.9-9.2
		c-0.2-2.1,0-4.3-0.3-6.5c-0.9-6.3,1.8-11.2,6.1-15.4c1.9-1.9,3.8-3.7,5.6-5.6c7.9-8.2,14.6-17.3,19.6-27.5
		c1.8-3.6,2.8-7.6,4.4-11.3c0.5-1.2,0.4-1.7-0.8-2.3c-5.6-2.6-8.4-7.2-9.4-13.1c-0.2-1.1-0.5-2.3-0.3-3.4c1.1-7.2,2.6-14.4,3.4-21.7
		c0.3-3.1,1.1-6.3,0.6-9.5c-0.1-0.8-0.2-1.7,0.1-2.5c1.7-4.6,0.9-9.5,1.8-14.2c0.7-4-1.1-6.9-3.6-9.7c-3.1-3.4-5.1-7.6-6.4-12
		c-1.5-5.4-0.9-10.6,0.7-15.9c1.6-5.5,3.8-10.8,6.2-16c3.3-7.3,6.5-14.7,10.3-21.7c4.6-8.4,9.4-16.8,16.1-23.8
		c3.4-3.6,6.7-7.3,10.1-10.9c1.2-1.3,2.7-2.3,4.2-3.4c1.9-1.5,2.1-2.3,0.1-3.8c-2.4-1.7-5-3-7.5-4.6c-1.5-1-3-2-4.3-3.2
		c-2.9-2.8-1.8-7.3,2.2-7.8c6.9-0.8,13.8-1.5,20.7-1c5.4,0.4,10.7,1.2,16.1,1.8c0.7,0.1,1.3,0,2,0c2.1-0.1,2.3-0.3,1.7-2.2
		c-0.8-2.5-1.7-4.9-2.3-7.5c-1.5-5.7-1.7-7.4-0.1-13c0.8-2.7,2.5-5.4,4.5-7.4c2.4-2.4,2.5-4.8,2-7.7c-1.3-7.7-1.5-15.3,1-22.9
		c1.7-5.3,4.9-9.6,8.9-13.4c2.4-2.3,8-7.7,16.9-9.6c7.1-1.6,12.7-0.2,17.3,1c4.7,1.2,19.6,4.8,23.9,16.2c0.6,1.5,0.8,2.8,0.9,3.6
		c-3.2-0.6-4.3-4.6-7.7-4.8c0.1-2.7-2.4-2.6-3.9-3.6c-6.4-4-13.6-6.2-20.9-7.5c-4.1-0.7-8.5-0.7-12.8,0.4c-5.7,1.5-9.8,5.3-13.7,9.1
		c-2.4,2.4-4.5,5.4-5.5,8.6c-2.2,6.8-2.9,14-1.1,21.1c0.8,3.3,0.8,6.3-0.2,9.6c-1,2.9-1.8,6-1.9,9c-0.3,5.5-0.2,11,0,16.5
		c0.1,1.5,0.8,3.1,1.6,4.5c0.6,1.2,2.1,1.1,2.8-0.1c0.3-0.5,0.5-1.2,0.6-1.8c1-8,11.9-15.3,18.4-15.2c4.6,0.1,9.2-0.1,13.8,0.9
		c5.8,1.3,11.3,3.2,15.9,7c2,1.6,3.8,3.9,4.6,6.2c0.8,2.2,3.2,4.3,1.3,7.2c-0.4,0.6,0.4,2.2,1,3c1.1,1.7,1.1,3.3,0,5
		c-1.6,2.4-3,4.9-4.4,7.4c-0.1,0.3,0,0.7,0.1,1c1.7-0.4,2,1.7,3,1.8c0.9,0.1,1.9-1.1,2.7-1.8c0.6-0.5,1-1.3,1.5-1.9
		c0.8-0.1,2.1,0.3,1.8-1.3c0.1-0.2,0.1-0.5,0.1-0.7c0.3-0.4,0.6-0.8,1-1.1c0-0.3,0.1-0.5,0.1-0.8c1.6,0.1,2.2-0.6,1.9-2.1
		c0,0,0,0,0,0c0.3-0.4,0.6-0.7,0.9-1.1c0-0.3,0.1-0.5,0.1-0.8c0.3-0.4,0.6-0.7,0.9-1.1l0,0c1.9-0.4,0.8-1.9,1.1-2.8l0,0
		c1.3,0,2.1-0.5,1.9-2c-0.3-1.8,0.7-2.2,2.2-2.1c1,0.1,2,0.2,2.9-0.1c0.5-0.2,0.6-1.3,0.8-1.9c1.9-5,1.3-6.4-3.3-8.6
		c-4-1.9-4.2-2.8-1.7-7.3c1.6,0,3.3,0.3,4.9-0.1c0.8-0.2,1.7-1.4,2-2.3c0.5-1.3-0.6-1.6-1.7-1.7c-0.4-3-2.6-1.6-4.2-1.8
		c0.3-1,0.7-2,1-3c0.7,0,1.3,0,2,0c0.3,0.9,1,1.4,1.6,0.6c0.7-0.8,0.9-2-0.5-2.6c0-1,0-2,0-3c0.5-0.4,1.4-0.7,1.4-1.1
		c0.2-2.8,0.2-5.6,0.2-8.4c0-0.2-1.1-0.3-1.7-0.4l0,0c-0.3-1.7-0.7-3.4-1-5.1c0,0,0,0,0,0c0.7-0.8,1.3-1.5,2-2.3
		c-0.5-0.3-1.1-0.5-1.6-0.8c-1-3.5-2.4-6.1-3.5-7.9c-0.4-0.6-1.7-2.7-3.8-5c-2.9-3.2-4.1-3.4-5.8-5.4c-1.3-1.6-2.7-4.1-3.2-8.4
		c4.2,2.8,10.8,8.2,15.6,17c2.9,5.4,5,9.6,5.1,16c0.2,13.8,0.2,27.6,0,41.3c-0.1,5.2-1.8,10.2-4.7,14.6c-1.7,2.6-3.6,5.1-5.5,7.6
		c-0.5,0.7-0.5,1.1,0.4,1.4c7.6,2.1,13.1,7.9,19.4,12c0.7,0.5,1.2,1.1,1.9,1.6c4.3,3.1,5.1,8.3,1.7,12.4c-1.7,2-3.9,3.4-6,5
		c-0.9,0.7-1.4,1.4-0.3,2.3c0.9,0.7,1.6,1.7,2.5,2.4c3.5,2.7,4,6.4,3.3,10.3c-0.9,5.2-0.9,10.3-0.1,15.6c1.2,7.4,1.4,15,2.1,22.5
		c0.5,5.4,1.2,10.7,1.9,16.1c0.2,1.5,0.3,2.7,2.5,2.8c1.7,0.1,3.4,1.1,5,1.9c0.5,0.2,0.7,1,1,1.5c-0.3,1.3-1,1.1-2.2,0.8
		c-1.8-0.4-3.7-0.2-5.6-0.2c0,1.8-0.6,3.7,0.1,5.2c0.9,2.2,0.3,4.9,3,6.7c2.5,1.6-0.3,4.7,0.6,7c0.1,0.3,0.3,0.6,0.6,0.8
		c2.2,1.5,2.5,3.6,2.5,6c0,0.9,1.1,2.7,1.7,2.7c2.4,0,2.1,1.4,2.2,2.9c0.1,2.5,0.2,2.5,3,1.7c0.5-0.1,1.2-0.2,1.7,0
		c2.7,1.4,2.9,1.3,4.3-1.4c1.3-2.4,3-4.5,4.2-6.9c1.1-2,1.8-4.1,2.7-6.1c0-0.3,0-0.6,0.1-0.9c1.9-1.1,3.1-2.5,3.9-4.9
		c0.3-1,0.9-2.3,0.5-3c-0.7-1.2-1.8-2.1-3.5-2.3c-2.7-0.3-5.5-0.8-7.8-2c-3.4-1.9-6.7-3.7-10.6-4.2c-0.2,0-0.4-1.1-0.5-1.7
		c2.5-1.9,4.9-0.1,6.7,0.8c5.5,2.6,11.3,4.2,16.9,6.5c3.6,1.4,6.7,3.9,9.9,6.1c2.8,1.9,5.6,4,8.1,6.3c1.5,1.4,3.1,1.7,5,1.6
		c0.7,0,1.3-0.1,2,0c1.6,0.2,3.5,1.1,4.6,0.5c1.1-0.7,1.3-2.8,2-4.3c1.4-2.9,3.3-5.7,4.2-8.7c0.9-2.9,0.9-6.1,1.4-9.2
		c0.2-1.6,0.5-3.2,0.9-4.8c0.4-1.9,1.6-2.7,3.6-2.6c4,0.1,8,0.1,12,0.1c0.5,0,1.1-0.2,1.5,0c5.9,3,12.4,5.1,16.8,10.5
		c2.9,3.6,6.2,6.9,9.4,10.2c2.9,3,7.1,3.3,10.8,3.9c2.9,0.5,5.7,1.3,8.5,2.3c5.6,2.2,11,4.6,16.6,6.9c0.6,0.3,1.2,0.5,1.7,1
		c3.7,3.5,8.4,4.8,13.2,6.1c0.9,0.3,1.8,0.8,2.6,1.4c3.3,2.4,7.3,3,11.1,3.5c6.1,0.9,12.3,1.8,18.6,0.4c2-0.4,4.4,0.8,6.5,1.3
		c1.4,0.4,2.8,1,4.2,1.2c1.8,0.2,3.7,0.5,5.5,0.1c2.4-0.6,1.2-3.1,1.6-4.6c2-7.7,3.9-15.4,5.9-23.2c0.1-0.5,0.3-0.9,0.6-1.3
		c3.3-4.6,3.8-10,4.7-15.3c0.3-1.8,1-3.9,2.2-5.2c1.4-1.4,1.3-3,1.5-4.4c0.5-5.6,0.7-11.2,1.1-16.8c0.1-1.8-0.6-2.3-2.2-2.4
		c-5.1-0.2-8.5-3-11.1-7.1c-0.7-1.1-1.6-2.1-2.5-3c-3.5-3.2-4.8-7.4-6.1-11.7c-0.2-0.6-0.3-1.4,0-2c2.9-6.6,1.7-10.6,0.6-17.7
		c-1.1-6.8-2.2-13.6-2.8-20.4c-1.2-13,5.5-22.2,16-28.4c8.7-5.1,18.2-8.3,28.7-7.2c7.9,0.9,15.5,2.9,21.7,8
		c6.4,5.3,10.5,12.5,12.2,20.7c1.7,7.9,2.6,16,2,24.1c-0.5,6.2-0.2,12.5-2.8,18.4c-0.7,1.7,0,2.7,1.8,2.3c3.1-0.6,5.5,0.2,8,2.1
		c3.2,2.4,6.9,3.5,11.1,3.3c2.8-0.1,5.5,0.6,8.3,0.6c3.4,0.1,5.7,1.9,8.1,4.1c3.9,3.6,7,7.9,10.1,12.1c4.7,6.5,9.6,12.7,14.2,19.3
		c3.3,4.7,6.2,9.6,9.1,14.6c0.9,1.5,1.6,3.2,2,4.9c1.2,5.4,4.1,9.8,7.5,14.1c5.6,7.1,10.5,14.7,12.7,23.8c1.5,6,3.5,11.8,5.9,17.5
		c2.6,6.1,5.5,12.2,8.8,17.9c2.1,3.6,5,6.7,7.9,9.8c3,3.4,5.9,6.9,10,9.3c1.3,0.7,2,3,2.3,4.6c0.4,1.7,0,3.6-0.2,5.5
		c-0.3,2.8-0.8,5.5-0.9,8.3c-0.2,4-1.4,6.2-5.1,6.5c-2.7,0.3-3.6,1.6-4.7,3.6c-1.7,3.4-3,3.9-6.6,2.6c-6-2.4-10.9-6.5-15.4-11
		c-0.9-0.9-1.9-1.7-3-2.3c-0.4-0.2-1.5-0.1-1.7,0.2c-1.3,2-3.6,1.5-5.3,2c-2.9,0.9-6.1,1.1-9.2,1c-3.6-0.1-7.1-0.7-10.6-1.4
		c-3.9-0.8-4.1-0.9-5.2,2.9c-1.1,3.8-3.2,7-6.1,9.3c-4.3,3.4-5.5,7.5-5,12.6c0.5,5-0.4,9.8-1.9,14.5c-0.9,2.6-1.8,5.3-3.1,7.7
		c-3.5,6.3-5.3,13.2-6.9,20.1c-0.5,2.2-0.3,4.5-0.3,6.8c0.1,3,0.6,5.9,0.4,8.9c-0.2,4.8-2.8,7.2-7.7,6.9c-3.4-0.2-6.4,0.4-9.5,1.8
		c-1.5,0.7-2.3,1.3-3.1,2.7c-2.8,5.4-3.8,11.4-5.5,17.1c-2,6.4-2.8,13.1-3.3,19.9c-0.2,3.2-1,6.4-1.4,9.6c-0.1,0.7-0.3,1.3-0.2,2
		c1,5.8-0.5,11.6,0.6,17.4c0.9,5.3,2.2,10.2,5.3,14.6c4.9,7,7.5,15.1,9.8,23.2c2.6,8.9,6.2,17.5,10.2,25.8c2.5,5.3,6.2,10,10,14.4
		c3.2,3.7,6.1,7.8,9.6,11.3c4.8,4.8,4.9,10.8,4.1,16.6c-0.7,5.2-2.1,10.6-4.6,15.2c-2.1,3.9-1.1,6.6,0.7,9.5
		c2.1,3.3,4.3,6.6,5.3,10.4c0.7,2.7,2.3,5.2,1.1,8.4c-2.3,6.2-5.2,8.3-11.6,9.6c-6.3,1.2-12.4-0.2-18.6,0.1c0-1,0-1.9,1.4-2
		c0.3,0,0.5-0.7,0.7-1.1c1,0,1.9,0.1,2.9,0.1c2.1,0,4.3,0,6.4,0.1c3.6,0.1,7.1-0.6,10.5-1.9c3.7-1.4,5.1-3,5.1-6.8
		c0-1.6-0.5-3.2-0.8-4.8c-0.8-4.3-3.8-7.5-5.7-11.3c-0.1-0.2-0.9-0.1-1.4-0.1c-0.4-1.1-0.8-2.1-1.2-3.2c0-0.6,0-1.3,0-1.9
		c0.3-1.6-0.4-2.2-2-2c-1.2-3-3.9-1.6-6-1.9c-2.5-2-5.2-1-7.8-0.6c-0.2,0-0.2,0.9-0.3,1.3c-0.6,0-1.3,0-1.9,0
		c-1.5-1.3-1.6-1.3-2.1,1c-1.6,0.4-3.2,0.8-4.8,1.2c-2.9,1.1-5.8,2.1-8.6,3.2c-0.3,0.1-0.3,1.1-0.4,1.7l0,0c-2.9,0-5.2,0.9-7.1,3.4
		c-1.2,1.5-2.3,3.6-4.9,3.6c0,0-0.2-0.3-0.2-0.3c1.2-1.3,2.5-2.5,3.7-3.8c1.5-1.6,1.6-2.9,0.3-4.7c-5.3-7.3-10.9-14.5-17.5-20.7
		c-5.6-5.3-10.4-11.3-14.4-18c-3.6-5.9-7.8-11.6-12.3-17.1c-6.2-7.5-12.2-15.3-16.6-24.2c-2.4-4.9-5-9.6-7.7-14.3
		c-4.7-8.1-6.4-16.9-7.3-26.1c-0.7-8-1.6-16-1.6-24.1c0-5,0.5-9.8,1.5-14.6c0.2-0.8,0.3-1.6,0.2-2.5c-0.3-6,1.7-11.6,3.1-17.4
		c1.9-7.8,5.6-15,6.3-23.1c0.1-1,1.1-2,1.7-3c2.1,0.7,2.9,2.2,2.3,4.1c-2,6.3-3.6,12.7-5.9,18.8c-3.7,9.8-4.3,20.2-5.4,30.5
		c-0.5,5.1,0,10.3-0.2,15.5c-0.2,5.1,1.4,10.1,0.3,15.2c-0.1,0.5-0.1,1.2,0.1,1.4c3,2.5-0.1,6.6,2.4,9.2c0.4,0.4-0.7,2.4-0.4,2.7
		c2.2,1.6,1.5,4.2,2.6,6.2c4.3,7.8,8.3,15.7,12.6,23.5c0.8,1.4,1.9,2.6,2.9,3.9c0.6-1.4,1.2-2.8,1.9-4.2c0.4-0.9,1-1.7,1.4-2.6
		c4.9-11,14.6-17.7,23.2-25.3c0.1-0.1,0.3-0.3,0.4-0.3c0.8,0,1.8-0.2,2.2,0.2c0.9,0.8,0.5,1.8-0.4,2.5c-0.3,0.2-0.5,0.4-0.8,0.7
		c-5.2,4.9-10.4,9.7-15.6,14.6c-3.9,3.7-6.4,8.4-7.3,13.7c-0.4,2.6-0.3,5.8,0.8,8.1c1.6,3.5,4.2,6.6,6.4,9.8c1,1.5,2.3,2.8,3.4,4.3
		c3.5,5.2,7,10.3,10.4,15.6c4.1,6.5,9.5,11.8,15,17.1c4.9,4.7,9.2,9.9,12.8,15.6c0.7,1.1,1.5,2.2,2.3,3.2c0.8,1.1,1.7,1.4,3,0.7
		c3-1.6,6.1-3.1,9.2-4.7c7.7-4.1,15.8-5.5,24.4-3.1c0.8,0.2,1.6,0.1,2.5,0.2c1.7,0.2,2.4-0.7,2.8-2.1c0.5-1.9,0.7-4,1.6-5.7
		c2.1-4.2,2-8.6,2.1-13.1c0.1-2.8-0.8-5.2-2.6-7.3c-3.4-4-6.7-8.2-10.2-12.1c-5.4-6-10.1-12.5-13.1-20.1c-2.5-6.4-5.1-12.8-7.2-19.3
		c-2.7-8.6-5.4-17.2-10.4-24.8c-4-6-5.9-12.6-5.7-19.6c0.3-9.3-3-17.4-7.7-25.1c-2.5-4.1-4.8-8.2-7-12.4c-0.3-0.5,0.2-1.5,0.3-2.2
		c0.8,0.2,1.7,0.1,2.2,0.5c0.8,0.8,1.4,1.8,1.9,2.9c3,5.4,6.1,10.9,9.1,16.4c0.2,0.4,0.5,0.7,0.8,1.1c0.4-0.5,1.1-0.9,1.2-1.5
		c0.5-3.4,1-6.9,1.4-10.3c1.3-11.8,4.1-23.2,8.9-34.2c0.6-1.4,1-3.1,0.9-4.7c-0.1-1.9-0.5-4-1.2-5.8c-3.2-8.3-3.7-17-4.4-25.7
		c-0.6-7.9-0.4-16-0.3-23.9c0.1-7.1,0.2-7.1-6.8-7.6c-1-0.1-2,0-3,0c-3.5-0.1-7,0.1-10.5-0.2c-5.4-0.5-10.8-1.7-15.4-4.5
		c-5.7-3.4-11.5-6.2-17.9-8c-1.9-0.5-2.2,0.1-2.8,1.5c-2.6,5.7-4.7,11.6-8,16.8c-2.5,3.9-3.2,7.3-2.6,11.7
		c0.7,5.4,0.1,10.8,1.1,16.3c1,5.3,1.3,10.8,2,16.1c0,0.3,0.2,0.6,0.3,0.9c0.3-0.1,0.6-0.1,0.8-0.3c4.3-4.8,8.7-9.6,13-14.3
		c2.6-2.8,5.2-5.6,7.9-8.2c0.5-0.5,1.7-0.3,2.6-0.4c-0.1,0.9-0.1,1.8-0.4,2.6c-0.2,0.6-0.9,0.9-1.4,1.4c-7.9,8.7-15.9,17.3-23.8,26
		c-1.7,1.9-1.7,1.9-3.5-0.7c1.4-4.2,1.5-8.5,0.3-12.8c-0.3-0.9-0.3-1.9-0.5-2.8c-0.5-4.3-1-8.5-1.4-12.8c-0.2-1.5,0-3.1-0.1-4.7
		c-0.1-2.8-0.1-5.6-0.6-8.3c-0.4-2.2-1.2-2.4-3.5-1.9c-2.4,0.5-4.8,0.9-7.1,1.6c-4.6,1.5-8.2,0.7-10.8-3.8c-0.5-0.8-1.9-1.5-2.8-1.5
		c-4.1,0.1-8.3,0.2-12.3,0.8c-2.6,0.4-4.8-0.4-7.1-1.1c-1.7-0.5-3.3-1.3-4.9-1.9c-3.4-1.3-6.3-1-9.8,0.6c-6.8,3.1-14,4.5-20.7-1
		c-0.7-0.6-1.7-0.9-2.6-1.3c-3.3-1.7-5.2-4.4-5.2-8.2c0-1.5,0-3-0.1-4.5c0-5.5,2.1-9.9,6.7-12.9c2.4-1.6,4.9-3.3,7.5-4.7
		c3.4-1.7,6.7-3.4,9.2-6.4c2.6-3.1,6.5-3.4,10.3-3.9c4.2-0.6,8.4-1.4,12.5-2.2c0.5-0.1,1-0.8,1.5-1.2c-0.4-0.3-0.8-0.8-1.2-1
		c-10.3-5-21.3-7.4-32.7-9.1c-6.6-1-13.2-0.7-19.8-0.8c-7.1,0-13.5-2-18.7-7.2c-0.9-0.9-2.1-1.6-3.2-2.3c-3.7-2.2-7.3-4.3-11-6.5
		c-2.9-1.6-5.9-2.6-9.2-3.3c-5.7-1.2-11.5-2.7-16.5-5.7c-4-2.4-7.3-5.7-8.2-10.5c-0.4-2.1-2-2.8-3.4-3.1c-7.7-1.7-14.6-5.4-21.5-8.9
		c-0.5-0.3-0.4-0.2-0.8-0.5C411.1,330.4,399.6,326.6,397.1,329.7z M675,318.4c0.2-1.5-0.5-2.2-2-1.9c-0.3,0-0.6,0-0.9-0.1
		c-0.3-0.3-0.7-0.6-1-0.9l0,0c0.1-2.1-0.9-3.1-3-3c-0.3,0-0.6,0-0.9-0.1c-0.7-2.8-0.8-2.8-4-3c-1.1-0.6-2.3-1-3.2-1.8
		c-4.1-4-9.1-6.3-14.3-8.3c-1.9-0.8-4-1.1-5.9-1.9c-1.8-0.8-3.4-1.7-5.5-2.2c-3.1-0.6-6.1-2.1-9.5-1.8c-0.5,0-1.1-0.1-1.4-0.4
		c-2.8-2.7-7.2-3.4-8.7-7.5c-0.2-0.6-0.8-1.4-1.6,0.1c-1.4,2.7-2,5.4-1.9,8.5c0.1,7-0.6,14.1,0.3,20.9c0.9,6.8,1.9,13.6,1.9,20.5
		c0.3,0.7,0.4,1.8,0.9,2c1.3,0.6,2.7,0.8,4.1,1c0.3,0,0.6-0.6,0.9-0.9c2.3,0,4.6,0,6.9,0.1c0,1,0.2,1.8,1.6,1.9
		c5.2,0.5,10.4,1.2,15.6,1.8c0.9,0,1.9,0.1,2.8,0.1c0.2,1.4,1.2,1,2.1,1c1.3,0.1,2.6,0.1,3.8,0.2c0.2,2.6,2.3,2.5,4.1,2.9
		c0.6,0,1.3,0.1,1.9,0.1c-0.1,1.5,0.7,2.1,2.1,1.9c2.1,1.6,4.6,0.8,6.9,1.2c0.1,1.1,0.3,1.9,1.7,1.8c1.5-0.1,3-0.1,4.5-0.1
		c0.6,0,1.2,0,1.8,0c1.4,0.1,3.2,0.8,3.2-1.7c1,0,1.9,0,2.9,0c1.8,1.3,4,1.2,6,1.9c0.7,1.6,1.2,3.3,2,4.9c0.6,1.2,0.7,2.8,2.5,3.3
		c4.2,1.2,7,4.3,9.7,7.5c1.7,2,3.6,3.7,6.4,4.3c1.6,0.4,3,1.8,4.3,2.9c2.8,2.5,5.6,5.2,8.4,7.8c0.4,0.3,0.8,0.9,1.2,0.9
		c0.5,0,1.3-0.4,1.4-0.7c0.2-0.8,0.3-1.8-0.1-2.4c-2.6-4.2-3.4-8.9-4.8-13.5c0.3-3.2-1.6-5.5-3.3-7.8c-0.7-0.9-0.7-2.8-2.7-2.3
		c-0.7-0.6-1.4-1.3-2.1-1.9c-0.4-0.3-0.7-0.6-1.1-0.9c-0.3,0-0.6-0.1-0.9,0c0.1-2.4,0.3-4.8-1.5-6.9c-1.2-1.4-2.3-2.9-3.5-4.3
		c-0.5-0.5-1.3-0.6-2-0.9c-0.3-0.3-0.6-0.7-1-1c0.2-1.6-0.5-2.2-2-2c-0.3,0-0.6,0-0.9-0.1c-0.2-0.6-0.4-1.7-0.6-1.7
		c-2.7-0.2-3.2-1.7-3.6-4.2c-0.4-2.3-2.1-4.4-4.9-5l0,0c-0.4-1.5-1.4-2.2-3-2c-1.7-0.3-3.2-0.8-4.2-2.5c-0.5-0.8-1.8-1.1-2.7-1.6
		C678.2,317.8,676.4,318.4,675,318.4L675,318.4z M595.1,202.6c1.7-0.8,3.1-1.8,3.1-3.9c1-0.7,2.1-1.2,2.9-2.1c1.4-1.5,3-2,5-2
		c1.4,0,3.2,0.7,3.2-1.8c4.1,0,8.3-0.1,12.4-0.1c2.9,0,5.8,1.2,7.2,3.5c2.9,4.8,4.6,10,2.3,15.7c-0.5,1.3-0.7,2.8-1,4.2
		c-1,4.4-2.5,8.6-4.7,12.5c-1,1.7-1.9,3-0.8,4.9c1.5-0.9,3.3-1.5,4.3-2.7c0.7-0.9,1.3-1.2,2.3-1.3c2.4-0.1,4.4,0.7,5.9,2.7
		c2.9,4,3.4,4.1,8,2.3c0.7-0.3,1.5-0.5,2-0.9c0.5-0.5,0.6-1.9,0.8-1.9c0.9,0,1.8,0.4,2.6,0.8c1.5,0.8,2.7,2.3,4.7,1.9
		c1.2,0,2.5,0,3.7,0c1.7,0.4,2.6-0.4,3.1-1.9c2.4-3.3,3.3-6.9,3.1-10.9c1.3-0.3,0.9-1.3,0.8-2.1c0-4.9,0-9.9,0-14.8
		c-0.3-2-0.6-4.1-1-6.1c0-1.3-0.1-2.6-0.1-3.8c0.9-2.1-1.6-2.6-1.9-4.1c-0.5-5.6-3.5-10-6.8-14.1c-4.2-5.3-10.3-8.1-16.8-10
		c-5.6-1.6-11.1-0.8-16.7-0.7c-2,0-4,1.8-5.9,1.7c-2.5-0.2-3.6,1.7-5.5,2.2c-4.2,1.2-7.8,3.4-10.9,6.7c-1,1-2.5,1.5-2.5,3.2
		c-1.1,0.3-2.9-0.6-2.8,1.6c0,0.5,0.6,1.3,1,1.4c1.4,0.1,3.2,0.7,3.1-1.8c2.3-0.1,4.5-0.2,6.8-0.2c0.9-0.1,1.9,0,2.8-0.2
		c1.7-0.2,3.4-0.5,5.1-0.7c0.2,0,0.5,0.4,0.8,0.6c-0.4,0.2-0.8,0.3-1.2,0.6c-0.2,0.2-0.3,0.5-0.4,0.8c-2,0-3.9,0-5.9,0.1
		c-1,0-2.1-0.4-2.9,0c-1.3,0.6-3.4,0.5-3.3,2.8c-1.6,0.1-3.3,0.2-4.9,0.2c-1.3-1.5-1.5-1.4-3,0.9c0,0.3,0,0.6-0.1,0.9
		c-0.6,0.2-1.5,0.3-1.7,0.7c-0.5,1.5-1.2,3.1-1.1,4.6c0.1,2.3-1.1,4.8,0.9,6.8c0,1.3,0,2.6,0.1,3.9c-0.2,1.7,0.6,3.8,1.9,3.8
		C594.5,206.3,595.1,204.2,595.1,202.6L595.1,202.6z M241.7,280.6L241.7,280.6c0-1.3,0.6-1.8,1.7-2.4c1.4-0.8,2.5-2.2,0.5-3.6
		c0-0.7,0-1.3,0-2c1.4-0.7,1.4-1.3,0-2c0.3-1.3,0.5-2.6,0.8-3.9c1.5-2.5,1.5-6.2,0.1-9c0-1.2,0-2.3,0-3.5c0-3.7,0-3.9-3.9-4.9
		c-2.3-0.6-4.8-0.9-7.2-1.1c-4.5-0.5-9.1-1.1-13.6-1.4c-2.5-0.2-4,1.3-4.2,3.8c-0.1,1.1,0.1,2.4-0.2,3.5c-2,7.3-2.9,14.7-2.8,22.2
		c0,2.9,0.2,5.9-0.8,8.8c-0.7,2.1-0.9,4.5-1,6.7c-0.3,4.2,0,8.5-0.9,12.8c-0.9,4.3-0.6,8.8-1.3,13.2c-0.7,4.4-0.1,9.1-2.8,13.2
		c-0.2,0.2,0,0.7,0,1c0,4,0,8-0.2,12c-0.1,2.8,1,5.1,2.9,7.1c3.5,3.6,7.8,5.2,12.6,5.7c1.6,0.1,3.2,0.3,4.8,0.6
		c1.7,0.3,4.1-0.2,4.7-1.5c2-4.5,1.5-9.5,2.9-14.2c0.1-0.3-0.3-1-0.7-1.2c-1.3-1-2.6-2-4-2.7c-2-1.1-4-2.1-6.1-3
		c-1.3-0.5-1.3-1.5-0.9-2.3c0.3-0.4,1.6-0.7,2.1-0.5c2.4,1,4.6,2.4,7,3.4c0.7,0.3,2.3-0.1,2.4-0.5c0.6-2,1-4.1,1.1-6.2
		c0.1-2.2-0.8-3-3-2.9c-1.6,0.1-3.1,0.9-4.6,1.2c-1,0.2-2.1,0.3-3.2,0.3c-0.3,0-0.6-0.7-1-1.1c0.4-0.2,0.8-0.4,1.1-0.6
		c2.6-1.5,5.2-2.2,8.3-2.1c2.3,0.1,3.3-1.3,3.3-3.7c0-2.7,0-5.3-0.1-8c-0.2-2,1.4-2.8,2.4-4c0.7-0.8,1.2-1.6-0.3-2.2
		c0.3-2.3,0.6-4.7,0.9-7c-0.3-1.3-0.6-2.6-0.9-3.9c0.7-0.4,1.3-0.7,2-1.1c0.3-0.4,0.6-0.8,0.8-1.2c0.1-1.3,0.2-2.5,0.3-3.8
		c0.6-0.4,1.7-0.7,1.7-1.1c0.2-2,0.1-4.1,0-6.2C242.7,281,242,280.8,241.7,280.6z M327,296.5c2.1,0.1,1.2-0.8,0.6-1.7
		c0.1-1.7-0.6-2.8-2-3.5c-0.3-0.3-0.6-0.6-0.9-0.8l-0.1-0.1c-0.3-1.6-0.6-3.3-1.1-4.9c-0.2-0.5-1.2-0.7-1.8-1.1
		c-1.9-5.5-5.1-10.4-7.9-15.4c-0.6-1-1-1.3-2.1-1.5c-7.4-1.5-14.7-3.3-22.1-4.9c-2.3-0.5-3.2,0-3.9,2.4c-0.8,3.1-1.2,6.3-2.1,9.4
		c-1,3.4-0.9,6.8-0.9,10.3c0,3.1,0.1,3.1,3.2,3.8c0.3,0.1,0.8-0.1,1,0.1c0.4,0.5,0.7,1,0.8,1.6c0,0.4-0.3,1-0.7,1.1
		c-0.6,0.2-1.3,0.2-2,0.2c-1.6-0.1-1.9,0.7-2.5,2.2c-1.2,3.3-0.4,6.6-0.9,9.8c-0.5,3.7,0.3,6.7,3.5,9.1c2.1,1.6,1.9,1.9-1.5,3
		c-0.4-0.3-0.8-0.7-1.3-1c-0.1,0.2-0.3,0.4-0.4,0.6c0.6,0.1,1.2,0.2,1.7,0.3c-0.2,1.1-0.4,2.2-0.8,3.2c-0.3,0.7-1.1,1.3-1.2,2
		c-0.4,3.6-0.7,7.2-1.1,10.8c-0.3,2.1,0.8,3.4,2.3,4.6c1.4,1.1,2.9,2.1,4.2,3.4c1.2,1.3,0.7,2.4-1.2,3c-1.4,0.4-2.8,0.8-4.3,0.9
		c-1.5,0.1-2,0.7-2,2.1c0,5.2,0,10.3,0,15.5c0,1.3,0.2,2.8-0.3,3.9c-1.3,2.9-0.5,5.9-0.7,8.8c-0.1,1.5,0.8,2.6,2.4,2.6
		c7.4-0.1,14.9,0.8,22.1-1.3c7.6-2.2,15.3-4.6,21.8-9.4c1.6-1.2,4-2.4,4.4-4c0.9-3.4,0.9-7.1,1.1-10.7c0.1-1.4-0.9-1.6-1.9-1.6
		c-2.5,0-5,0.1-7.5,0c-0.7,0-1.4-0.7-2-1.1c0.6-0.3,1.1-0.7,1.7-0.8c1.9-0.4,3.8-0.8,5.8-0.9c3.4-0.3,3.1-0.3,4.2-4
		c0.8-2.5,1.2-4.7-0.2-7c0-0.6,0.1-1.3,0.1-1.9c0.3-0.1,0.7-0.1,1-0.2c0.3-0.4,0.6-0.7,0.9-1.1c0-0.6,0.1-1.3,0.1-1.9
		c0.2-0.2,0.5-0.5,0.7-0.7c-0.2-0.1-0.4-0.3-0.7-0.4c0-0.7,0-1.3,0-2c0.2-0.1,0.4-0.3,0.7-0.4c-0.3-0.2-0.6-0.4-0.9-0.5l0,0
		c0-1,0-2,0.1-2.9c-0.3-1.4-0.7-2.8-1-4.1c-1.3-1.7-1.3-3.8-1.9-5.7c0-0.8-0.1-1.6-0.1-2.5c0.2-1.3-0.3-1.9-1.6-1.8
		c-0.4-0.1-0.8-0.1-1.3-0.2c0.2-0.6,0.3-1.5,0.7-1.6c2.4-1.1,1-3.1,1.3-4.7c0.3-1.6-0.2-2.9-2-3.4l0,0c0-0.9,0-1.8,0.1-2.6l0.1-0.3
		L327,296.5z M382.5,741.8c2,0,2.6-1,1.8-2.7c-0.7-1.6-2.2-1.5-3.6-1.5c-0.4-1.2-0.6-2.5-1.1-3.7c-0.9-2.1-2.2-4.2-4.4-4.9
		c-3.6-1.1-7.4-0.8-11,0c-1.3,0.3-1.7,1.5-1.5,2.8c0.6,3.5,1.6,6.7,5.3,8.2c3.2,1.3,6.3,2.6,9.6,3.7c1.2,0.4,2.7,0.3,3.9,0.1
		C381.9,743.5,382.1,742.4,382.5,741.8z M435.4,388.1c3.1-2.3,6.3-4.5,8.8-7.7c3-3.8,2.7-7.1,1-10.9c-1.3-2.9-3-5.3-5.9-6.9
		c-4.1-2.3-7.6-5.9-12.8-5.7c-2.6-2-5.3-3.8-8.8-3.5c-0.7,0.1-2,0.5-2,0.8c0,1,0.2,2.3,0.8,3c1.5,1.7,3.4,3.1,5,4.7
		c2.7,2.6,4.2,5.7,4.1,9.6c-0.1,1.5,0,3,0.3,4.4c1.5,6.8-0.2,9.7-6.8,11.5c-1.3,0.3-2.4,1.3-3.5,2c1.1,0.9,2.2,1.8,3.5,2.5
		c0.7,0.4,1.6,0.2,2.4,0.3c4.8,0.2,9.2-1.7,13.6-3.3C435.2,388.9,435.3,388.4,435.4,388.1z M534.1,411.3c-0.9,0.1-2-0.1-2.8,0.4
		c-1.7,1-3.1,2.4-4.8,3.3c-5.7,2.9-5.8,8.4-6,13.5c-0.1,1.8,1.1,4.3,2.6,5.5c2.3,2,5.2,3.6,8,4.5c4.2,1.3,8.7,2.1,12.2-2.2
		c4.2-3.2,4.5-7.5,3.6-12.2c-0.2-0.8-0.6-1.6-0.5-2.3c0.6-4.6-1.8-8.1-4-11.7c-1.1-1.7-2.2-2.3-4-2
		C536.4,408.6,534.3,408.8,534.1,411.3z M388.5,743.7c1.1,1.4,1.9,1.4,3,0c4.6,0.2,9.2,0.3,13.8,0.7c6.9,0.5,13.8-0.4,20.7-0.7
		c0.5,0,1.2-0.2,1.3-0.5c0.7-2.1,2.8-3.8,1.8-6.4c-0.4-1-0.5-2.2-0.6-3.3c-0.3-3.6-0.5-3.7-4.2-3.8c-1.5,0-3,0.1-4.5-0.1
		c-2.1-0.3-4.5-0.3-6-1.5c-2.6-2.1-5.3-1.3-8-1.1c-1.1,0.1-2.2,0.6-3.3,0.5c-4.5-0.4-8.8,0.6-12.9,2.2c-0.6,0.2-1.2,0.7-1.8,0.8
		c-1.7,0.3-3.4,0.5-5.2,0.8c0.7,1.6,1.4,3.2,2.1,4.8C385.9,738.6,387.2,741.1,388.5,743.7z M337.9,168.6c-0.1-1.5,0-3-0.2-4.5
		c-0.7-4.5-2.3-8.2-6.6-10.9c-8.1-5.2-16.8-6.8-26.1-5.7c-8.6,1-13.4,5.4-15.2,13.6c-0.4,1.8-0.8,3.1-2.7,3.7
		c-2.9,0.8-3.6,3.1-3.3,5.7c0.4,3.1,0.8,6.1,1.4,9.2c0.3,1.9,0.8,3.8,1.5,5.6c0.2,0.6,1.1,1.3,1.6,1.4c2.6,0,5.4,0.4,7.9-0.4
		c7.4-2.3,15-3.3,22.7-3.8c1.7-0.1,3.3-0.4,5.2,0c2,0.5,4.3,0,6.4,0.1c2.1,0.1,3-1,3.3-2.9c3.8-1.9,6.4-6.6,5.7-10.2
		C339.3,169.1,338.4,168.9,337.9,168.6z M617,341.3c-0.2,0.1-0.3,0.1-0.4,0.2c-0.1,0.1-0.2,0.4-0.2,0.4c6.4,4,12.7,8.1,19.3,11.8
		c5.4,3,10.1,6.6,14.3,11.1c4.1,4.3,7,9.1,9,14.6c1,2.8,2.9,5.4,3.2,8.2c0.3,2.7,3.2,4.5,2.3,7.4c3.2,2.6,3,6.6,3.2,9.9
		c0.4,6.5,2.4,12.2,6.4,17.3c2.5,3.1,4.4,6.6,4.5,10.7c0.1,2.4-0.7,4.9-0.6,7.4c0.3,10.4,0.6,20.9,1.1,31.3c0.2,3.1,0.9,6.2,1.6,9.2
		c1,4.6,2.2,9.3,3.2,13.9c0.3,1.5,1.2,1.9,2.5,1.2c2.6-1.3,5.1-1.9,8-1c2.1,0.7,3.5-0.6,4.5-2.3c1.2-2.1,0.9-4.4,0.7-6.7
		c-0.4-4.1-1-8.4-0.1-12.3c1.7-7.7,4.4-15.1,7.9-22.2c2.4-4.8,3.8-9.8,3.7-15.2c-0.1-2.7,0.2-5.3,0.1-8c-0.1-2.5,0.8-4.4,2.5-6.1
		c1.9-1.8,3.8-3.7,5.5-5.7c2.8-3.2,4.3-6.9,3.8-11.4c-0.3-2.3-0.4-4.7-0.1-6.9c0.5-3.6-0.9-6.8-1.8-10c-1-3.3-12.4-14.3-15.5-15.6
		c-0.2-0.1-0.3-0.1-0.5-0.2c-3-1-5.3-2.9-7.3-5.6c-1.5-2-3.7-4.1-6-4.9c-3.6-1.3-5.2-3.5-5.9-7.1c-0.6-3-2.2-4.1-5-3.3
		c-4.3,1.2-8.5,0.8-12.8,0.7c-4-0.1-7.9-1-11.3-3.2c-6.3-4.2-13.2-5.7-20.6-6c-1,0-2.1-0.5-3.1-0.8c-3.5-3.4-7.7-1.7-11.7-1.7
		c0.2,0.4,0.4,0.9,0.5,1.3c-0.9-0.2-1.9-0.3-2.8-0.5c-0.1-0.9,0.2-2.1-1.2-1.9C617.5,339.6,617.3,340.7,617,341.3z M412.6,358.1
		c-0.6-0.8-1-1.8-1.7-2.4c-5.7-5-9.9-11-13.4-17.6c-2.4-4.6-4.8-9.3-7.3-13.9c-4.4-8.1-8.7-16.3-10.4-25.3
		c-2.2-11.8-4.1-23.7-4.1-35.8c0-2.2,0.2-4.4-0.3-6.5c-2.2-9.5-2.3-19-1.6-28.6c0.2-2.3-0.6-3.8-2.2-5.2c-1.5-1.3-3.1-2.6-4.2-4.2
		c-1.8-2.5-4.2-4.1-6.9-5.2c-1.7-0.7-3.4-1.2-5-2c-9.3-5.1-19.6-7.2-29.5-10.6c-2.6-0.9-5.5-0.8-8.2-1.4c-5.3-1.2-10.5,0.1-15.7,0.2
		c-3.1,0.1-6.1,1.3-9.1,1.8c-1.6,0.2-2.3,0.7-2.4,2.4c0,1.3-0.8,2.6-0.7,3.8c0.4,4.7,0.7,9.5,1.5,14.2c0.8,4.6,2.2,9.2,3.3,13.8
		c1.9,8.5,5,16.6,9.5,24.2c1.8,3.1,4.6,3.4,7.5,3.9c0.3,0.1,0.9-0.7,1.1-1.1c0.2-0.4,0-1-0.1-1.5c-1.8-5.7,0.3-11.1,1.4-16.5
		c0.1-0.5,1.2-0.9,1.8-1c0.3,0,1,0.9,0.9,1.4c-0.1,1.3-0.4,2.6-0.6,3.9c-0.4,3.1-1.3,6.2-1,9.3c1.3,11.8,8.4,21.2,13.8,31.3
		c0.1,0.1,0.2,0.3,0.3,0.4c0.4,0.3,0.8,0.5,1.3,0.7c0.1-0.5,0.4-0.9,0.4-1.4c-0.2-5.5,0.3-10.9,2-16.1c0.7-2.3,2-4.4,3.2-6.6
		c0.2-0.4,1.4-0.8,1.7-0.5c0.5,0.4,1,1.3,1,1.9c0,0.7-0.6,1.4-1,2.2c-0.6,1.2-1.6,2.3-1.8,3.5c-0.8,6.4-1.6,12.7-1.9,19.1
		c-0.1,3.2,1.4,6.4-0.3,9.6c-0.3,0.5,0,1.3,0.1,2c0.6,4.6,1.7,9.1,1.7,13.7c0.1,4.8,1.9,8.6,4.8,12.1c6.7,7.9,11,17.1,13.9,27
		c0.5,1.7,0.9,3.5,1.5,5.2c2.2,6.4,5.7,12.2,9,18c2.5,4.3,5.5,7.6,10.9,8.1c3.6,0.4,6.9,0.6,9.9-1.8c3.3-2.6,7.1-3.6,11.2-2.9
		c2.6,0.4,5.1,0.9,7.7,1.5c5.1,1.3,10.2,1,15.2-0.6c1.8-0.6,2.7-1.9,3.4-3.8c1.2-3.2-0.4-6.2-0.3-9.2c0.2-2.1-0.4-3.7-1.7-5.4
		C418.4,362.8,415.9,360.1,412.6,358.1z M288.2,379.1c-1.2,0-2.3,0-3.5,0c-1.3,0-2.7,0.1-4,0.1c-4.4,0.1-5.6-1-5.8-5.4
		c0-1.2-0.2-2.4,0-3.5c1.8-8,1.3-16,1-24.1c0-1.5-0.4-2-2.1-1.7c-6.3,1-12.7,1.8-18.8,3.6c-1,0.3-2.3,0.1-3.3-0.3
		c-3.1-1.4-6-3.4-9.2-4.5c-5.4-1.9-4.1-2.5-5.9,3.3c-1.2,3.7-2.3,7.5-3.9,11.1c-1.4,3.1-3.1,3.6-6.3,2.9c-2.2-0.5-4.5-1-6.8-1.3
		c-3.4-0.5-3.5-0.4-4.5,2.8c-1.9,6.2-4.7,11.9-8.1,17.4c-6.3,9.9-13.4,19.1-22.1,27.1c-2.6,2.4-4.3,5.3-4.9,8.9
		c-0.7,4.3,0,8.6,1.1,12.7c0.3,1.2,1.7,2.6,2.9,3.1c3.7,1.3,7.6,2.2,11.6,1.9c5.1-0.5,10.1-1.2,15.1-2c11.7-1.8,23.5-0.6,35.1,0.4
		c4.9,0.4,9.7,1.6,14.6,2.2c5.1,0.6,9.9-0.1,14.7-0.7c8.1-1.2,16.1-3.3,24.1-5c0.5-0.1,1-0.6,1.4-0.4c0.7,0.3,1.4,0.8,1.8,1.4
		c0.1,0.2-0.5,1.2-1,1.5c-0.5,0.4-1.2,0.4-1.8,0.5c-3,0.7-6.1,1.3-9.1,2c-11.1,2.5-22.2,5.1-33.7,4c-0.7-0.1-1.3-0.1-2,0
		c-1.2,0.1-1.6,1.1-0.9,2.1c2.3,3,4.7,6,6.9,9c3,4.2,6.9,7.4,11.1,10.4c3.9,2.8,4.3,2,7.2-1.2c0.2-0.2,0.4-0.5,0.6-0.8
		c4.6-7,11.4-11.6,18.7-14.9c7.4-3.4,15.3-5.6,23.1-8.1c1.4-0.5,3.3-0.2,4.7,0.3c0.9,0.3-0.8,2.2-3.6,3.1c-6.2,2.1-12.5,4-18.6,6.1
		c-9.9,3.4-18,9.4-23.9,18.1c-0.9,1.3-0.7,2.5,0.5,3.5c0.6,0.5,1.2,1.1,2,1.5c3.1,1.8,5.3,4.4,6.5,7.8c1.7,4.6,3.2,9.2,4.9,13.8
		c0.8,2.3,1.5,4.8,2.9,6.7c3,4.2,6.1,8.2,9.6,12c10.3,11,22.9,18.1,37.5,21.7c6.7,1.7,13.5,2.8,19.8,5.7c3,1.4,6,2.6,9,4.1
		c0.4,0.2,1,1.3,0.8,1.5c-0.4,0.6-1.2,1.3-1.7,1.2c-1.4-0.3-2.8-0.8-4.1-1.4c-5.8-3.1-12-5.2-18.5-6.5c-8.9-1.9-17.5-4.4-25.4-8.9
		c-2.7-1.5-5.3-3.3-7.9-5c-5.4-3.4-9.8-7.8-14-12.6c-1.7-2-3.3-4.1-4.9-6.1c-1.4,2.8,0.3,5.4,0.8,8c1.3,6.9,4.1,13.1,8.2,18.8
		c4.5,6.3,9.5,12.2,13.1,19.2c1.2,2.3,2.6,4.6,3.2,7c0.8,3.4,2.3,6.5,2.8,9.9c1,6.6,1.5,13.2,1.2,19.7c-0.6,11-2,22-2.4,33
		c-0.3,7.6,0.3,15.2,0.5,22.8c0,0.5,0,1,0.1,1.5c0.6,2.8,2.3,4,5,3.2c2.7-0.8,5.2-1.9,7.8-2.8c5.7-2.1,11.8,0.4,14.3,5.8
		c1.9,4.1,2.8,8.4,3.2,12.9c0.6,6.6,0.9,13.1,0,19.7c-0.9,6.7-1.6,13.4-2.2,20.1c-0.1,1.6,0.3,3.2,0.7,4.8c0.5,2.2,0.9,2.4,2.4,1
		c5.3-5,10.8-9.9,14.8-16.1c1.8-2.8,3.7-5.5,5.7-8.1c0.3-0.5,1.5-0.8,2-0.5c0.9,0.4,1.5,1.4,0.5,2.4c-0.1,0.1-0.2,0.3-0.3,0.4
		c-5,7.2-9.8,14.5-16.5,20.4c-2,1.7-4,3.4-6,5.2c-1.2,1.1-2.9,2.3-3.2,3.6c-0.8,4-1.3,8.1-1.5,12.2c-0.1,2.7,1,3.5,3.8,3.1
		c2.6-0.3,5.1-1.1,7.7-1.6c3.7-0.8,7.3-1.2,11.2-0.8c3.8,0.4,7.9,2.6,11.7-0.3c0.1-0.1,0.3,0,0.5,0c6.2-1,12.5-1.1,18.7-1.2
		c2.5-0.1,4.9-0.6,7.3-1c2.1-0.3,4.2-1,6.3-1c5.8-0.1,6.1,0.5,5.9-6.1c-0.3-8.9-0.7-17.9-1.2-26.8c-0.2-2.7-1-5.5-1.6-8.2
		c-0.3-1.3-0.9-2.5-1-3.8c-0.7-9.4-1.5-18.7-2-28.1c-0.2-3.5-0.4-6.8-1-10.3c-1.1-6.1-1.3-12.4-1.9-18.6c-0.1-0.6-0.3-1.2-0.4-1.9
		c-0.5,0.3-1.2,0.6-1.6,1.1c-8.3,9.1-18.5,15.9-28.6,22.7c-1,0.6-1.9,1.4-3,1.8c-0.6,0.2-1.5-0.2-2.2-0.3c0.2-0.7,0.3-1.5,0.6-2.1
		c0.1-0.2,0.6-0.3,0.9-0.5c4.5-3.2,9.1-6.4,13.6-9.7c5.6-4.1,11.2-8.3,15.7-13.6c1.9-2.2,4-4.6,4.9-7.3c1-2.9,0.9-6.2,1.1-9.3
		c0.4-6.8-1.5-13.4-2.6-20c-0.9-5.1-2.4-10.2-3.3-15.3c-1.5-8.1-2.4-16.3-4.2-24.3c-2-9.2-4.4-18.5-8.8-26.9
		c-2.5-4.8-4.6-9.8-6.2-15c-1.1-3.8-2.6-7.5-3.9-11.2c-0.1-0.4-0.6-0.9-1-0.9c-0.3,0-0.8,0.5-1,0.8c-3.8,5.8-7.4,11.7-11.3,17.4
		c-1.2,1.8-2.9,3.2-4.6,4.6c-0.3,0.3-1.4,0.2-1.7-0.1c-0.4-0.3-0.4-1.2-0.3-1.8c0.1-0.4,0.6-0.8,0.9-1.2c3.9-5.3,7.9-10.6,11.8-15.9
		c1-1.4,1.5-3.3,2.4-4.8c1.3-2.2,1.2-4.2,0.1-6.6c-1.4-3-2.9-6.1-3.1-9.3c-0.4-5.6-0.9-11.2,0.6-16.8c0.4-1.6,0.6-3.2,0.9-4.8
		c0.9-5,0.5-5.5-4.5-6.3c-1.9-0.3-3.9-0.7-5.7-1.4c-4-1.4-7.9-3.3-12-4.4c-3.4-0.9-6.9-2.8-10.5-0.4c-0.3,0.2-1.6-0.1-1.7-0.4
		c-0.2-0.7-0.2-1.8,0.2-2.2c0.8-0.7,2-1.4,3-1.4c2.5,0,5,0,7.4,0.7c5,1.4,9.9,3.4,14.9,4.9c2.3,0.7,4.8,1.1,7.2,1.6
		c1.6,0.3,2.1-0.6,1.9-2c-0.1-0.5,0-1-0.1-1.5c-1.9-6.8-3.7-13.6-6.8-20c-4-8.4-8.1-16.9-9.2-26.4c-0.2-2.1-1.3-4.1-2.2-6
		c-2.2-4-4.4-8.1-6.8-11.9c-3.2-4.9-6.8-9.3-12.9-11c-2.7-0.7-5.3-1.8-7.8-2.9c-1.6-0.7-2.3-0.2-2.1,1.4c0.4,3-1,5.1-3.4,6.7
		C317.5,374.4,303.9,380.1,288.2,379.1z M664.4,429.4c2.8,0,5.7,0,8.5,0c1,0,1.5-0.8,1-1.7c-1.3-2.1-2.6-4.2-4-6.3
		c-2.7-4.2-4.6-8.6-4.9-13.8c-0.2-3.2-0.8-6.5-1.9-9.6c-1.8-5.4-4.3-10.6-6.2-16c-3.8-10.6-11-18-20.2-24.1
		c-10.2-6.7-21.3-12-30.9-19.6c-0.8-0.7-2.1-1.1-3.1-1.2c-4.2-0.1-7.9,1.6-10.2,4.7c-1.9,2.6-4.2,3.6-6.8,4.3
		c-5.4,1.4-10.9,2.6-16.3,3.9c-0.6,0.1-1.3,0.2-2,0c-0.4-0.1-1-0.5-1-0.9c-0.1-0.6,0.1-1.4,0.4-1.8c0.4-0.4,1.2-0.6,1.8-0.8
		c3.7-0.8,7.3-1.8,11.1-2.4c4.9-0.7,9.3-1.9,11.8-6.7c0.2-0.4,0.1-1.4,0-1.4c-4.8-0.9-9.3-3.3-14.4-3.1c-5.5,0.2-11.1,0.7-16.4-0.3
		c-5.2-1.1-9.8,0.1-14.6,0.9c-5.3,0.9-10.6,2.5-15.9,3.2c-3.3,0.5-5.8,1.6-8.4,3.7c-2.4,2-5.7,3-8.7,4.3c-0.4,0.2-1.4-0.3-1.6-0.7
		c-0.2-0.4-0.1-1.4,0.2-1.8c0.5-0.5,1.3-0.9,2.1-1.1c2.9-0.9,5.3-2.5,7.5-4.6c1.2-1.2,3.1-2,4.7-2.3c6.9-1.5,13.8-2.8,20.8-4.1
		c0.4-0.1,0.8-0.4,1.2-0.6c-0.3-0.4-0.5-1-0.8-1.2c-1.4-0.6-2.8-1-4.2-1.5c-3.7-1.4-7.5-2.3-10.6-5c-1.7-1.4-4.1-2.1-6.1-3
		c-2.8-1.3-5.7-2.5-8.6-3.7c-4.7-1.9-9.3-4.1-14.6-4.4c-4.1-0.3-7.9-2.2-10.9-5.3c-2.3-2.4-5-4.5-6.8-7.3
		c-3.6-5.4-9.2-7.9-14.5-10.7c-1.9-1-4.4-0.8-6.7-0.9c-1.9-0.1-3.9,0-5.8-0.1c-2-0.1-2.6,0.3-1.8,2c2.7,6,4.6,12.3,6.2,18.6
		c1.4,5.5,2,10.9-0.3,16.4c-3.4,7.9-7.2,15.6-13.1,21.9c-1.4,1.5-1.2,2.7-0.2,4.4c2,3.3,4.8,5.6,8.2,6.8c4.8,1.7,9.7,3.1,14.7,4.2
		c2.6,0.6,5,1.5,7.3,2.9c1.7,1,3.4,2,5,3.1c1.2,0.8,2.1,1,3.6,0.6c4.8-1.2,9.7-1.7,14.7-0.6c3.2,0.7,6.5,0.8,9.8,1.5
		c8.4,1.6,16.7,1.4,24.7-2c4.5-1.9,9.2-3.6,13.7-5.4c1.4-0.6,3.4-2,4.1,0.4c0.7,2.3-2,1.8-3.1,2.2c-5.7,2.2-10.8,5.7-16.8,6.9
		c-4.2,0.8-8.3,1.8-12.6,2.2c-2.9,0.2-5.9-0.4-8.8-0.8c-2.1-0.3-4.3-0.4-6.3-1c-4.9-1.5-9.9-1-14.8-1c-0.3,0-0.6,0.2-0.9,0.4
		c0.1,0.2,0.2,0.6,0.4,0.7c5.7,5.4,12.1,9,20.4,8.4c5.8-0.4,11.5-0.1,17.3,0.6c10.7,1.3,21,3.7,30.9,7.9c2.6,1.1,5.2,2,7.9,2.8
		c1,0.3,2.2,0.2,3.3,0.1c2.3-0.2,4.6-0.9,6.8-0.8c11,0.7,21.8-0.2,32.3-3.4c0.8-0.3,1.8-0.8,1.9,0.4c0.1,0.8-0.5,1.7-0.9,2.5
		c-0.2,0.3-0.9,0.3-1.4,0.5c-8,2.8-16.5,3-24.8,3.7c-0.9,0.1-1.9-0.4-2.9-0.4c-2.1-0.2-4.3-0.3-6.5-0.4c-0.4,0-1.1,0.2-1.3,0.6
		c-0.2,0.3,0,1,0.3,1.3c0.6,0.7,1.4,1.4,2.2,2c4.7,4.2,10.3,6.9,16,9.5c4.8,2.2,9.2,5.2,14.4,6.3c3.4,0.7,6.7,1.5,10.1,2.4
		c7.7,2.1,15,5,22,8.7c2.4,1.3,5,2.4,7.6,3.3C653.1,429.2,658.7,429.4,664.4,429.4z M651.6,236.4c-1.8-0.4-4.5,1.3-7.5,2.1
		c-8.6,2.1-15.8,6.6-22.5,12.1c-3,2.5-6.2,5.1-6,9.7c0,0.9-0.2,2.1-0.7,2.8c-1.3,1.9-0.7,3.9-0.7,5.8c0.1,2.9,0.4,5.9,0.5,8.8
		c0,0.4-0.5,1.1-0.4,1.3c2.3,2.3,2.7,6,6.6,7.4c4.4,1.6,8.5,4.1,13.2,5.2c7.1,1.6,13.9,4.4,20.1,8.2c6.2,3.8,12,8.2,17.9,12.4
		c2.8,1.9,5.3,4.4,8.3,5.8c2,0.9,3.5,2,5.2,3.1c1.8,1.2,3.5,2.4,4.9,3.9c3.2,3.4,6.3,6.8,9.4,10.2c9,9.7,16.9,20,22.1,32.3
		c0.6,1.3,1.2,2.7,1.6,4c0.4,1.5,1.3,3.6,0.7,4.5c-1.5,2.1,1.5,2.2,1.1,3.5c-1,3.6,0.8,6.9,1,10.4c0.1,1.4,0.4,2.9,0.7,4.3
		c1-0.9,2-1.9,3.1-2.7c1.8-1.4,3.7-2.8,5.5-4.1c1.9-1.4,3.8-2.6,5.6-4c6.3-4.7,13-8.3,20.7-10c2.1-0.5,4.1-1.2,6.2-1.7
		c1.6-0.4,1.7-1,1-2.4c-2.8-5.7-5.7-11.4-8.1-17.4c-2.3-5.8-4.1-11.8-5.9-17.8c-1.2-4.1-2.9-8-5.5-11.5c-1.4-2-2.8-4-4.1-6
		c-3.8-6.1-9-11.4-10.2-18.9c-0.3-1.5-1.3-3-2.1-4.4c-4.8-9-10.5-17.5-16.8-25.6c-3.8-4.8-7.2-9.8-10.9-14.7
		c-4.4-5.9-9.7-10.1-17.6-8.8c-0.3,0.1-0.7,0-1,0c-4.6-0.3-9.1-1-13-4c-1.5-1.2-3.4-2.3-5.3-2.5
		C663.7,237.1,658.4,236.9,651.6,236.4z M259.3,291.6c6.3-0.8,11.7-1.4,17.1-2.1c3.1-0.4,3.3-0.5,3.2-3.8
		c-0.3-7.9,1.7-15.3,3.1-22.9c0.5-2.6,1.5-4.3,4.4-4.1c1.8,0.1,1.9-1,1.5-2.3c-0.2-0.6-0.6-1.2-0.8-1.8c-2.3-7.7-5.4-15.2-6.3-23.3
		c-0.9-7.3-1.9-14.7-2.8-22c-0.2-1.8-0.7-2-2.1-1.2c-4.8,2.8-8.7,6.7-12,11.1c-5.9,7.9-11.3,16.1-16.9,24.3
		c-1.2,1.7-2.6,3.5-0.2,5.5c0.5,0.4,0.4,1.6,0.4,2.4c-0.1,9.3-0.4,18.5-1.7,27.7c-0.2,1.6,0,2.5,1.1,3.4c3,2.6,5.9,5.3,9,7.8
		C257.3,291.1,258.8,291.4,259.3,291.6z M200.2,261.7c-0.2,9.2,2.9,15.4,7.6,21c0.2,0.2,0.6,0.6,0.7,0.5c0.4-0.3,0.9-0.6,1-1
		c0.5-3.5,1.8-7,1.3-10.6c-0.2-1.4-0.6-2.7-0.5-4.1c0.5-4.5,1.1-8.9,1.7-13.3c0.2-1.8,0.6-3.6,0.9-5.4c0.7-4.4,2.1-5.6,6.4-5.3
		c2,0.1,3.9,0.5,5.9,0.8c2.7,0.4,3.2-0.2,2.7-2.9c-0.2-0.8-0.5-1.6-0.8-2.3c-0.7-1.8-1.6-3.6-2.2-5.5c-0.2-0.5,0-1.4,0.4-1.7
		c0.4-0.3,1.3-0.3,1.8,0c0.7,0.4,1.2,1.1,1.6,1.8c0.5,0.9,0.7,1.8,1,2.8c0.3,1.1,0.9,1.3,1.6,0.4c0.6-0.8,1-1.7,1.7-2.4
		c0.3-0.3,1.4-0.3,1.6-0.1c1.5,2.6,2.2,0.7,2.9-0.6c4.7-8.9,11.4-16.3,18.5-23.2c5.9-5.8,12.2-11.2,19.4-15.5
		c0.9-0.5,1.6-0.8,1.3-2.2c-2-8.6-14.2-16.8-23-15.3c-0.5,0.1-0.9,0.3-1.3,0.6c-3.3,2.7-6.6,5.4-9.8,8.3
		c-10.1,9.3-17.9,20.4-24.2,32.4c-5.6,10.6-10.4,21.7-15.1,32.7C201.5,255.2,200.9,259.4,200.2,261.7z M550.3,426.7
		C550.3,426.7,550.3,426.7,550.3,426.7c-0.1,2.2,0,4.3-0.1,6.5c-0.1,1.4,0.1,2.2,1.7,2.2c3.5,0,6.7,1.3,9.8,2.9
		c2.4,1.2,4.8,1.1,7.2,0.9c3.3-0.3,6.5-0.6,9.8-1c2.7-0.3,5,0.5,6.4,2.8c2.2,3.8,5.5,3.7,9,2.7c2.7-0.7,5.3-1.8,8-2.2
		c1.9-0.3,2.9-0.9,3.9-2.4c3.7-5.3,6.1-11.3,8.1-17.3c0.8-2.2,0.3-3.5-1.5-4.5c-0.8-0.5-1.8-0.8-2.8-1c-4.9-0.9-9.3-2.7-13.8-4.9
		c-8.4-3.9-16.6-8-23.4-14.3c-1.3-1.2-2.6-1.5-4.1-0.7c-6.3,3.2-13.1,4.2-20,4.9c-2,0.2-3.9,1.5-5.8,2.5c-0.9,0.5-1.1,1.3-0.3,2.4
		c2.2,3,4.3,6.1,6.2,9.4c0.9,1.5,1.2,3.4,1.4,5.2C550.5,422.7,550.3,424.7,550.3,426.7z M376.5,206c0.1-2.7-0.2-3.5-2.6-5.3
		c-3.3-2.5-6.8-4.7-10.1-7.2c-4.3-3.2-8.5-6.4-14.3-5.9c-0.3,0-0.7,0-1-0.2c-6.1-2.7-12.7-2.1-19-2.6c-8.1-0.6-16.2,0.8-24.1,2.1
		c-7,1.2-13.9,3.2-20.5,6.4c-12.1,5.9-22.3,14.2-31.4,23.9c-6.4,6.8-12.2,13.9-15.9,22.6c-2.2,5.1-2.3,4.9,3.2,5.8
		c1.4,0.2,2,0.2,2.8-1c6-8.9,11.9-17.9,18.1-26.7c3.4-4.9,7.6-9.3,12.9-12.3c7.1-3.9,14.2-7.8,22.4-8.8c2.5-0.3,5-0.4,7.4-0.8
		c6.3-1.2,12.6-0.6,18.7,0.8c14.9,3.5,29.4,8.5,43,15.8c1.6,0.8,2.7,1,4-0.1c1.8-1.5,3.6-2.8,5.3-4.4
		C376.1,207.6,376.3,206.4,376.5,206z M615.4,195.2c-5.6,0-10.3,2.3-14.7,5.3c-3,2-5,5.1-4.5,8.8c0.7,4.5,1.1,9.2,2.3,13.5
		c0.8,3.1,1.5,6,1.6,9.1c0,0.8,0,1.7,0.1,2.5c0.6,5.2,1.3,10.4,1.7,15.6c0.1,1.7,0.7,2.9,2,3.8c0.9,0.7,1.9,1.3,3,1.7
		c4.3,1.6,5.1,1.3,7.9-2.3c1.2-1.5,2.4-3.3,4-4.3c1.7-1.2,1.8-2.1,0.7-3.6c-2.4-3.4-2.6-6.9-0.6-10.5c0.9-1.7,1.3-3.8,2.3-5.4
		c3.8-6.5,5.7-13.5,7.2-20.8c0.6-3-0.2-5.4-1-8c-0.9-3.3-3.8-3.7-6.7-4.1C618.9,196.1,617.2,195.6,615.4,195.2z M431.9,315.5
		c-0.1,0.3-0.5,0.9-0.6,1.5c-1.2,5.8-3.1,11-8.4,14.4c-0.9,0.6-0.8,1.5,0.1,2c2.6,1.4,5.2,2.9,7.9,4c4.5,1.8,9.3,3.1,13.7,5.2
		c2,1,2.8,0.6,4.1-0.8c5.3-6,8.3-13.4,11.7-20.5c0.6-1.3-0.1-2-1.7-2c-3.4,0-6.9,0.6-10.3-0.9C443.2,316.2,437.6,316.8,431.9,315.5z
		 M750.7,384.1c0.3,1.4,0.4,4,1.6,6c3,5.2,6.5,10.1,9.9,15c1.1,1.6,2.4,1.7,3.8,0.4c1.7-1.6,3.3-3.3,4.8-5c3.5-4,6.9-8.2,12-10.3
		c1.3-0.5,1.2-1.6,0.8-2.4c-0.5-1-1.5-1.7-2.3-2.6c-2.5-3.2-5.1-6.3-7.4-9.7c-0.7-1.1-1-1.1-2.2-0.8c-2.6,0.7-5.4,0.9-8.1,1.6
		c-2.9,0.8-6.1,0.8-8.6,3c-0.6,0.5-1.5,0.9-2.2,0.8C750.6,380,750.7,381.6,750.7,384.1z M260.2,318.6c2.4-0.3,4.9-0.8,7.3-1
		c2.5-0.2,5-0.1,7.4-0.5c3.7-0.6,4.4-2,2.9-5.4c-0.5-1.1-1.5-2.2-2.5-2.9c-4-2.9-8.2-5.5-12-8.7c-7.6-6.2-4.8-5.1-14.7-3.9
		c-2.1,0.3-4.9,0-6,1.2c-1.4,1.5-1.4,4.2-1.8,6.5c-1.1,6.5-1.1,6.5,4.5,9.9c1.1,0.7,2.2,1.5,3.4,2.1
		C252.4,317.6,256,319.4,260.2,318.6z M237.6,334c-0.1,3.6-0.1,3.6,3.2,5c3.5,1.5,7.1,2.8,10.4,4.6c2.3,1.2,4.5,1.1,6.8,0.7
		c5.2-0.9,10.3-1.9,15.5-2.8c1.3-0.2,2.7-0.2,3.2-1.8c0.7-2,0-4.6-1.6-5.6c-3.9-2.5-7.9-4.9-11.7-7.5c-5-3.4-10.1-5.6-16.2-3.3
		c-0.1,0.1-0.3,0-0.5,0c-9.5,1.5-7.7-0.6-9.1,9.7C237.6,333.3,237.6,333.7,237.6,334z M250.5,162.4c0,0.1,0,0.3,0,0.4
		c-3.7,0-7.3-0.1-11,0.1c-1.3,0.1-2.6,1.1-3.9,1.6c0.8,1,1.5,2.1,2.5,2.8c2.3,1.6,4.9,2.8,7.1,4.4c2.6,1.9,5.3,2.8,8.7,2.8
		c8.1-0.1,15.4,2.4,20.5,9.1c1.8,2.4,3.4,4.8,4.8,7.4c0.7,1.2,1,1.4,2.1,0.6c0.5-0.4,1.2-0.6,1.8-0.8c1.7-0.6,1.7-1.6,1.1-3.1
		c-0.7-1.6-1.3-3.4-1.8-5.1c-1.3-4.8-2.2-9.7-1.8-14.7c0.1-1.9-0.3-3.2-2.6-3.4c-1,0-1.9-0.7-2.8-0.8
		C267,163.3,258.8,162.9,250.5,162.4z M427.5,316.6c0.4-3.3-0.7-6.1-4.1-8c-2.1-1.2-3.9-3-5.8-4.5c-1.3-1-1.8-0.6-2.5,0.8
		c-1.5,2.9-3.4,5.6-5,8.4c-2.1,3.7-4.1,7.4-6.2,11.1c-0.9,1.6-0.9,2.7,1.2,3.4c2.9,1,5.7,2.2,8.6,3.3c0.6,0.2,1.4,0.4,1.9,0.2
		C422,329,427.9,324.3,427.5,316.6z M741.3,406.4c4.7-0.8,9.1-1.5,13.5-2.2c1.5-0.2,2.1-0.5,1.1-2c-3.5-5.2-7-10.4-8.5-16.6
		c-0.3-1.2-1.3-1.8-2.7-0.8c-2.2,1.7-4.5,3.4-6.9,4.8c-4.6,2.7-7.8,6.5-10.6,10.9c-1.1,1.7-0.8,2.9,1.2,3.4
		C732.8,405,737.2,405.7,741.3,406.4z M778.4,417.6c0.6-0.7,1.3-1.3,1.6-2.1c1.1-2.6,3-4.3,5.6-5.1c3.5-1.1,3.7-1.3,3.9-4.8
		c0.2-2.8,0.7-5.5,1-8.2c0.1-0.5,0.2-1,0-1.5c-0.6-1.7-1.3-3.3-2-4.9c-0.1-0.2-0.8-0.4-1.1-0.2c-6,3.8-11.7,7.9-16.2,13.4
		c-5,6.2-4.9,6.5,1.9,10.8C774.8,416,776.5,416.6,778.4,417.6z M286.1,210.5c0.2,0,0.4-0.1,0.6-0.1c0-1.8,0.1-3.7,0-5.5
		c0-0.5-0.6-1.3-0.9-1.3c-2.3,0-4.3,1.9-4.1,4.2c0.3,5,0.6,9.9,1.3,14.8c0.6,4.4,1.3,8.8,2.5,13.1c1.9,6.8,4.1,13.5,6.3,20.2
		c1.5,4.4,3.3,5.6,8,5.6c1.4,0,1.6-0.3,0.9-1.7c-2.1-4.1-4.4-8.2-5.9-12.5c-2.3-6.8-4.2-13.8-5.9-20.9
		C287.7,221.3,287,215.9,286.1,210.5z M333.9,350.9c-0.4,3.1-0.4,3.2,2.5,4.3c4.6,1.7,9.2,3.4,13.8,5.1c0.3,0.1,0.9,0.1,0.9,0.1
		c0.2-0.6,0.5-1.3,0.4-1.8c-1.9-6.5-4.4-12.7-7.7-18.6c-1.1-2-2.4-3.9-3.9-5.7c-1-1.2-2.5-1.9-3.7-2.8c-0.5,1.6-1.2,3.1-1.4,4.7
		C334.3,341,334.1,345.9,333.9,350.9z M608,311.4c0-2.2,0-4.3,0-6.5c0-0.4-0.4-0.9-0.6-1.3c-0.4,0.4-0.9,0.7-1.3,1.1
		c-0.2,0.2-0.4,0.6-0.5,0.9c-3.2,8.3-4.5,17.1-6.4,25.8c-0.3,1.5,0.4,2,1.9,2.1c1.6,0.1,3.2,0.7,4.8,0.9c1.4,0.1,2.4,2.6,3.7,1.2
		c0.8-0.8,0.4-2.8,0.3-4.3c-0.2-3.4-0.1-7-1.1-10.2C607.8,317.9,608.3,314.6,608,311.4z M437.1,729.4c0,0.1,0,0.2-0.1,0.3
		c-1.2,0-2.3,0.1-3.5,0c-1.9-0.2-2.2,0.8-2,2.4c0.3,3.1,0.5,6.2,0.9,9.3c0.1,0.6,0.9,1.2,1.5,1.5c3.2,1.4,6.4,0.3,9.5-0.6
		c4-1.2,5.3-3.9,3.9-7.9c-0.6-1.7-0.9-4.1-4-3.8C441.3,730.6,439.1,729.8,437.1,729.4z M455.2,316.4c0.8,0,1.7,0,2.5,0
		c2.9-0.2,3.1-0.3,2.8-3.3c-0.3-2.9-0.9-5.9-1.7-8.7c-1-3.6-2.4-7.1-3.6-10.6c-0.1-0.3-0.3-0.6-0.5-0.9c-0.2,0.2-0.6,0.4-0.7,0.7
		c-0.2,1.1-0.6,2.2-0.5,3.3c0.2,2.4-0.5,4.5-1.7,6.5c-0.9,1.4-1.5,2.9-2.2,4.4C446.2,315.1,447,316.3,455.2,316.4z M278.4,292.6
		c-4.3,0.4-7.9,0.6-11.5,1.1c-1.6,0.2-3.2,0.7-4.8,1c1.2,1.2,2.5,2.4,3.7,3.6c0.1,0.1,0.2,0.2,0.4,0.3c3.2,2.4,6.3,4.8,9.5,7.1
		c2.1,1.5,2.6,1.1,2.8-1.6c0.3-3.3,0.7-6.6,0.9-9.8C279.4,293.5,278.6,292.9,278.4,292.6z M261,321.5c5.4,3.4,10,6.4,14.7,9.4
		c1.1,0.7,1.8,0.5,2-0.9c0.2-2.1,0.6-4.2,0.8-6.3c0.3-3.8,0.1-4-3.9-3.4c-2,0.3-3.9,0.2-5.9,0.4C266.4,320.8,264.1,321.1,261,321.5z
		 M595.8,225.4c-0.3,0.5-0.6,0.9-0.7,1.3c-1.4,3.9-0.9,8-1.1,12.1c-0.1,2.1,0.3,3.9,1.9,5.3c0.5,0.4,1.3,1.3,1.5,1.2
		c0.9-0.5,1.9-1.1,1.3-2.7c-0.6-1.6-0.5-3.5-0.7-5.2c-0.4-3.7-0.7-7.4-1.1-11.1C597,226,596.3,225.8,595.8,225.4z M247.3,293.6
		c2.2-0.8,4.6,0.6,6.3-1.5c-1.5-1.5-3-2.9-4.5-4.4c-0.3-0.3-0.8-0.5-1.2-0.8c-2.7-2-3.1-1.8-3.8,1.5c-0.1,0.3,0,0.7-0.1,1
		c-0.2,1.2-0.4,2.5-0.7,3.7C244.7,293.3,246.1,293.4,247.3,293.6z M238.8,316.7c0,1.8-0.1,2.7,0.1,3.5c0.1,0.5,0.8,1.2,1.2,1.2
		c2.9-0.4,5.8-0.9,8.7-1.4c-0.9-2.7-3.9-2.4-5.7-3.9c-0.6-0.5-1.3-1.1-2-1.4c-1-0.3-2-0.3-2.1,1.2
		C238.8,316.4,238.7,317,238.8,316.7z M278.7,144.3C278.7,144.3,278.7,144.3,278.7,144.3c0-2.2,0-4.3,0-6.5c0-0.3-0.2-0.6-0.3-0.9
		c-0.4,0.3-0.8,0.5-1.2,0.8c-0.2,0.2-0.5,0.6-0.5,0.8c0.4,3.9-1,7.9,0.9,11.6c0.2,0.4,0.4,0.8,0.7,1.2c0.2-0.4,0.5-0.8,0.5-1.2
		C278.8,148.3,278.7,146.3,278.7,144.3z M624.2,235.7c-0.4-0.5-0.6-1-0.9-1c-0.4,0-0.8,0.4-1.2,0.6c0.3,0.4,0.6,0.9,0.9,1.3
		C623.4,236.3,623.7,236,624.2,235.7z M252.6,436.6c-0.1-0.1-0.2-0.2-0.3-0.3c-0.1,0.2-0.3,0.4-0.3,0.6c0,0.1,0.2,0.2,0.3,0.3
		C252.4,437,252.5,436.8,252.6,436.6z"/>
	<path class="st5" d="M606.5,488.9c1.8,2.6,1.8,2.6,3.5,0.7c7.9-8.7,15.9-17.3,23.8-26c0.4-0.5,1.1-0.9,1.4-1.4
		c0.3-0.8,0.3-1.7,0.4-2.6c-0.9,0.1-2.1-0.1-2.6,0.4c-2.7,2.6-5.4,5.4-7.9,8.2c-4.4,4.8-8.7,9.6-13,14.3c-0.2,0.2-0.5,0.2-0.8,0.3
		c-0.1-0.3-0.3-0.6-0.3-0.9c-0.6-5.4-0.9-10.8-2-16.1c-1.1-5.4-0.5-10.9-1.1-16.3c-0.6-4.4,0.2-7.9,2.6-11.7
		c3.3-5.2,5.4-11.2,8-16.8c0.6-1.3,1-2,2.8-1.5c6.4,1.8,12.3,4.6,17.9,8c4.7,2.8,10,4,15.4,4.5c3.5,0.3,7,0.2,10.5,0.2c1,0,2,0,3,0
		c7.1,0.5,6.9,0.5,6.8,7.6c-0.1,8-0.3,16,0.3,23.9c0.7,8.6,1.1,17.4,4.4,25.7c0.7,1.8,1.1,3.8,1.2,5.8c0.1,1.6-0.3,3.3-0.9,4.7
		c-4.8,10.9-7.6,22.3-8.9,34.2c-0.4,3.4-0.8,6.9-1.4,10.3c-0.1,0.5-0.8,1-1.2,1.5c-0.3-0.4-0.5-0.7-0.8-1.1
		c-3-5.5-6.1-10.9-9.1-16.4c-0.6-1-1.1-2.1-1.9-2.9c-0.5-0.5-1.5-0.4-2.2-0.5c-0.1,0.7-0.6,1.7-0.3,2.2c2.3,4.2,4.6,8.4,7,12.4
		c4.7,7.7,8,15.8,7.7,25.1c-0.2,7,1.7,13.6,5.7,19.6c5,7.6,7.7,16.2,10.4,24.8c2.1,6.5,4.7,12.9,7.2,19.3
		c2.9,7.6,7.6,14.1,13.1,20.1c3.5,3.9,6.8,8.1,10.2,12.1c1.8,2.1,2.7,4.5,2.6,7.3c-0.1,4.5,0,8.9-2.1,13.1c-0.9,1.7-1.1,3.8-1.6,5.7
		c-0.4,1.4-1.2,2.3-2.8,2.1c-0.8-0.1-1.7,0-2.5-0.2c-8.6-2.4-16.7-1-24.4,3.1c-3,1.6-6.1,3.1-9.2,4.7c-1.3,0.7-2.2,0.3-3-0.7
		c-0.8-1.1-1.6-2.1-2.3-3.2c-3.6-5.8-8-10.9-12.8-15.6c-5.5-5.3-10.9-10.6-15-17.1c-3.3-5.3-6.9-10.4-10.4-15.6
		c-1-1.5-2.3-2.8-3.4-4.3c-2.2-3.2-4.9-6.3-6.4-9.8c-1.1-2.4-1.3-5.5-0.8-8.1c0.9-5.3,3.4-9.9,7.3-13.7c5.2-4.9,10.4-9.7,15.6-14.6
		c0.2-0.2,0.5-0.4,0.8-0.7c0.9-0.7,1.3-1.7,0.4-2.5c-0.4-0.4-1.5-0.2-2.2-0.2c-0.1,0-0.3,0.2-0.4,0.3c-8.6,7.6-18.3,14.3-23.2,25.3
		c-0.4,0.9-1,1.7-1.4,2.6c-0.7,1.4-1.3,2.8-1.9,4.2c-1-1.3-2.1-2.5-2.9-3.9c-4.2-7.8-8.3-15.7-12.6-23.5c-1.1-2-0.4-4.6-2.6-6.2
		c-0.3-0.2,0.8-2.2,0.4-2.7c-2.5-2.7,0.6-6.7-2.4-9.2c-0.3-0.2-0.2-1-0.1-1.4c1.1-5.1-0.5-10.1-0.3-15.2c0.2-5.2-0.3-10.4,0.2-15.5
		c1-10.3,1.6-20.6,5.4-30.5c2.3-6.1,4-12.5,5.9-18.8c0.6-1.9-0.2-3.3-2.3-4.1C605.2,490.8,604.5,489.2,606.5,488.9z"/>
	<path class="st6" d="M408.5,310.4c-0.9,2-1.6,4.2-2.7,6.1c-1.3,2.4-3,4.5-4.2,6.9c-1.5,2.7-1.7,2.8-4.3,1.4c-0.4-0.2-1.2-0.2-1.7,0
		c-2.8,0.8-2.9,0.7-3-1.7c-0.1-1.5,0.2-3-2.2-2.9c-0.6,0-1.7-1.7-1.7-2.7c0-2.5-0.3-4.6-2.5-6c-0.3-0.2-0.4-0.5-0.6-0.8
		c-0.9-2.3,1.9-5.4-0.6-7c-2.8-1.7-2.1-4.5-3-6.7c-0.6-1.5-0.1-3.5-0.1-5.2c1.9,0,3.8-0.2,5.6,0.2c1.2,0.3,1.8,0.5,2.2-0.8
		c0.3,0.1,0.6,0.2,0.9,0.2c0.2,0.6,0.3,1.7,0.5,1.7c3.9,0.5,7.2,2.3,10.6,4.2c2.3,1.3,5.1,1.7,7.8,2c1.7,0.2,2.9,1.1,3.5,2.3
		c0.4,0.7-0.2,2-0.5,3c-0.8,2.4-1.9,3.8-3.9,4.9c-0.1-2.1,1.1-3.6,2.4-5.1c0.9-1.1,0.2-1.9-0.6-2.5c-0.5-0.4-1.2-0.3-1.8-0.5
		c-3.8-1.3-7.8-2.2-11.3-4.1c-2.8-1.5-5.5-2.5-8.6-2.9c-0.9-0.1-1.8-0.5-2.7-0.9c-2.5-1-2.5-1-2.5,1.6c0,0.8-0.1,1.7,0.1,2.5
		c0.1,0.3,1.1,0.7,1.5,0.6c0.7-0.3,1.3-1.1,2-1.5c0.3-0.2,0.8,0.2,1.2,0.3c-0.4,1.7,2,2.9,0.5,5c-0.9,1.3-1,3.4-1.2,5.1
		c-0.1,0.4,0.6,0.9,1,1.3c0.3-0.3,0.7-0.6,0.9-1c0.7-1.4,1.3-2.9,2-4.3c0.2-0.3,0.9-0.6,1.3-0.5c0.3,0.1,0.7,0.6,0.8,1
		c0.3,2.7-0.4,5.2-1.9,7.4c-1.3,1.9-1.1,4.1-1,6.2c0,0.4,0.5,0.8,0.8,1c0.1,0.1,0.7-0.1,0.8-0.3c1.7-4.3,4.7-8,5.3-12.8
		c0.1-0.6,0.6-1.5,0.8-1.5c1.4,0.1,2.8-0.7,4.1,0.7c1.6,1.8,3.7,3,3.1,6c-0.3,1.5,0.8,0.6,1.5,0.3
		C407.4,310.4,408,310.5,408.5,310.4z"/>
	<path class="st4" d="M663,729.6c-4.1-0.3-8.1,0.4-12.2,1.3c-4.3,0.9-8.7,2.6-13.2-0.1c-1.8-1.1-3.1-2.2-3.9-4.1
		c-0.7-1.6-0.6-2.9,0.5-4.5c3.8-5.8,8.9-9.4,15.7-10.8c3.5-0.7,6.9-1.9,10.2-3.1c1.9-0.7,3.7-1.9,5.6-2.8l0.2,0.3
		c-0.3,0.7-0.5,1.4-1,1.9c-1.3,1.4-2.7,2.6-4.1,3.9c-0.3,0-0.7,0.1-1,0.1c-1.3,0-2.1,0.4-1.9,1.9c0.1,0.9,0.2,2-1.1,2.2
		c-1.4-2.9-1.4-2.9-4.6-2c-1.1,0.3-2.2,0.5-3.3,1c-4.3,1.9-8.7,3.8-11.1,8.3c-1.3,2.5-1.2,3.3,1.2,4.7c2.5,1.4,5.1,1,7.7,0.6
		c3.2-0.5,6.4-1.3,9.6-1.6c1.6-0.2,1.9-0.9,1.7-2.3c-0.4-2.6-0.7-5.2-1.1-7.7c0.5,0.4,1.4,0.6,1.5,1.1c0.6,2,0.8,4.1,1.6,6
		C660.8,725.8,662,727.7,663,729.6z"/>
	<path class="st6" d="M663,729.6c-1-1.9-2.2-3.8-2.9-5.8c-0.7-1.9-0.9-4-1.6-6c-0.2-0.5-1-0.8-1.5-1.1c-0.1-0.3-0.1-0.6-0.1-0.9
		c1.4-0.2,1.2-1.3,1.1-2.2c-0.2-1.5,0.6-2,1.9-1.9c0.4,2,0.6,4.1,1.1,6.1c0.5,2.2,1.1,4.3,1.9,6.4c0.2,0.6,0.9,1.3,1.5,1.5
		c1.9,0.5,3.8,0.9,5.7,1c7.1,0.2,14.3,0.6,21-2.5c1.6-0.7,3.3-1,4.9,0.4c-0.2,0.4-0.4,1.1-0.7,1.1c-1.4,0.1-1.3,1.1-1.4,2l-0.5,0.1
		l-0.5-0.1c-0.6-0.3-1.3-0.9-1.8-0.9c-1.1,0.1-2.1,0.9-3.1,0.8c-2.4-0.2-3.9,0.9-5,2.9C676.2,733,669.5,732.8,663,729.6z"/>
	<path class="st4" d="M683,730.5c1.1-2,2.6-3,5-2.9c1,0.1,2-0.8,3.1-0.8c0.6-0.1,1.2,0.6,1.8,0.9C689.8,729.3,686.4,730,683,730.5z"
		/>
	<path class="st5" d="M288.2,379.1c15.7,1,29.3-4.6,42-13.2c2.3-1.6,3.7-3.7,3.4-6.7c-0.2-1.6,0.5-2.1,2.1-1.4
		c2.6,1.1,5.2,2.1,7.8,2.9c6,1.7,9.7,6,12.9,11c2.5,3.9,4.7,7.9,6.8,11.9c1,1.9,2,3.9,2.2,6c1.1,9.5,5.2,18,9.2,26.4
		c3.1,6.4,4.8,13.2,6.8,20c0.1,0.5,0.1,1,0.1,1.5c0.2,1.4-0.3,2.3-1.9,2c-2.4-0.4-4.9-0.8-7.2-1.6c-5-1.6-9.9-3.5-14.9-4.9
		c-2.3-0.7-4.9-0.7-7.4-0.7c-1,0-2.2,0.7-3,1.4c-0.4,0.4-0.4,1.5-0.2,2.2c0.1,0.3,1.3,0.6,1.7,0.4c3.6-2.4,7.1-0.5,10.5,0.4
		c4.1,1,8,3,12,4.4c1.8,0.6,3.8,1.1,5.7,1.4c5,0.8,5.4,1.3,4.5,6.3c-0.3,1.6-0.5,3.3-0.9,4.8c-1.5,5.6-1.1,11.2-0.6,16.8
		c0.2,3.2,1.8,6.3,3.1,9.3c1.1,2.4,1.2,4.3-0.1,6.6c-0.9,1.5-1.4,3.4-2.4,4.8c-3.8,5.4-7.8,10.6-11.8,15.9c-0.3,0.4-0.8,0.7-0.9,1.2
		c-0.1,0.6-0.1,1.4,0.3,1.8c0.4,0.3,1.4,0.4,1.7,0.1c1.6-1.4,3.4-2.8,4.6-4.6c3.9-5.7,7.5-11.6,11.3-17.4c0.2-0.4,0.7-0.8,1-0.8
		c0.3,0,0.8,0.5,1,0.9c1.4,3.7,2.8,7.4,3.9,11.2c1.6,5.2,3.7,10.2,6.2,15c4.4,8.5,6.8,17.7,8.8,26.9c1.8,8,2.7,16.2,4.2,24.3
		c0.9,5.1,2.4,10.2,3.3,15.3c1.2,6.6,3,13.2,2.6,20c-0.2,3.1-0.1,6.4-1.1,9.3c-1,2.7-3,5.1-4.9,7.3c-4.5,5.3-10.2,9.5-15.7,13.6
		c-4.5,3.3-9.1,6.5-13.6,9.7c-0.3,0.2-0.8,0.2-0.9,0.5c-0.3,0.7-0.4,1.4-0.6,2.1c0.7,0.1,1.6,0.5,2.2,0.3c1.1-0.4,2-1.1,3-1.8
		c10.1-6.8,20.3-13.6,28.6-22.7c0.4-0.5,1.1-0.7,1.6-1.1c0.1,0.6,0.4,1.2,0.4,1.9c0.6,6.2,0.9,12.5,1.9,18.6c0.6,3.4,0.8,6.8,1,10.3
		c0.5,9.4,1.3,18.8,2,28.1c0.1,1.3,0.7,2.5,1,3.8c0.6,2.7,1.5,5.4,1.6,8.2c0.6,8.9,0.9,17.9,1.2,26.8c0.2,6.6,0,6-5.9,6.1
		c-2.1,0-4.2,0.7-6.3,1c-2.4,0.4-4.9,0.9-7.3,1c-6.3,0.2-12.5,0.2-18.7,1.2c-0.2,0-0.4-0.1-0.5,0c-3.8,2.9-7.9,0.7-11.7,0.3
		c-3.9-0.4-7.5,0-11.2,0.8c-2.6,0.6-5.1,1.3-7.7,1.6c-2.8,0.4-3.9-0.5-3.8-3.1c0.2-4.1,0.6-8.2,1.5-12.2c0.3-1.4,2-2.5,3.2-3.6
		c1.9-1.8,4-3.5,6-5.2c6.7-5.8,11.5-13.2,16.5-20.4c0.1-0.1,0.2-0.3,0.3-0.4c1-1,0.4-2-0.5-2.4c-0.5-0.2-1.6,0.1-2,0.5
		c-2,2.6-3.9,5.3-5.7,8.1c-4.1,6.2-9.5,11.1-14.8,16.1c-1.5,1.4-1.9,1.2-2.4-1c-0.3-1.6-0.8-3.2-0.7-4.8c0.6-6.7,1.3-13.5,2.2-20.1
		c0.9-6.6,0.6-13.1,0-19.7c-0.4-4.5-1.3-8.8-3.2-12.9c-2.5-5.5-8.6-8-14.3-5.8c-2.6,1-5.2,2.1-7.8,2.8c-2.7,0.8-4.5-0.4-5-3.2
		c-0.1-0.5-0.1-1-0.1-1.5c-0.2-7.6-0.8-15.2-0.5-22.8c0.5-11,1.8-22,2.4-33c0.4-6.6-0.1-13.2-1.2-19.7c-0.5-3.5-2-6.6-2.8-9.9
		c-0.6-2.5-2-4.7-3.2-7c-3.6-6.9-8.6-12.9-13.1-19.2c-4.1-5.7-6.9-12-8.2-18.8c-0.5-2.6-2.2-5.2-0.8-8c1.6,2,3.2,4.2,4.9,6.1
		c4.1,4.8,8.6,9.2,14,12.6c2.6,1.7,5.2,3.4,7.9,5c7.9,4.6,16.6,7.1,25.4,8.9c6.5,1.4,12.7,3.4,18.5,6.5c1.3,0.7,2.7,1.2,4.1,1.4
		c0.5,0.1,1.3-0.7,1.7-1.2c0.2-0.3-0.4-1.3-0.8-1.5c-3-1.4-6-2.7-9-4.1c-6.3-2.9-13.1-4.1-19.8-5.7c-14.6-3.6-27.2-10.7-37.5-21.7
		c-3.5-3.7-6.6-7.8-9.6-12c-1.4-1.9-2.1-4.4-2.9-6.7c-1.7-4.6-3.3-9.2-4.9-13.8c-1.2-3.4-3.4-6-6.5-7.8c-0.7-0.4-1.3-1-2-1.5
		c-1.2-1-1.4-2.2-0.5-3.5c6-8.7,14-14.7,23.9-18.1c6.2-2.1,12.4-4.1,18.6-6.1c2.8-0.9,4.5-2.8,3.6-3.1c-1.4-0.5-3.3-0.8-4.7-0.3
		c-7.8,2.5-15.7,4.7-23.1,8.1c-7.3,3.4-14.1,7.9-18.7,14.9c-0.2,0.3-0.3,0.6-0.6,0.8c-2.9,3.2-3.3,4-7.2,1.2
		c-4.2-3.1-8.1-6.2-11.1-10.4c-2.2-3.1-4.6-6-6.9-9c-0.8-1-0.4-2,0.9-2.1c0.7-0.1,1.3-0.1,2,0c11.5,1.2,22.6-1.5,33.7-4
		c3-0.7,6.1-1.3,9.1-2c0.6-0.1,1.3-0.2,1.8-0.5c0.5-0.3,1.1-1.3,1-1.5c-0.4-0.6-1.1-1.1-1.8-1.4c-0.3-0.1-0.9,0.3-1.4,0.4
		c-8,1.7-16,3.8-24.1,5c-4.8,0.7-9.6,1.4-14.7,0.7c-4.9-0.6-9.7-1.8-14.6-2.2c-11.7-1-23.4-2.3-35.1-0.4c-5,0.8-10.1,1.5-15.1,2
		c-4,0.4-7.9-0.5-11.6-1.9c-1.2-0.4-2.5-1.9-2.9-3.1c-1.1-4.1-1.8-8.4-1.1-12.7c0.6-3.5,2.2-6.4,4.9-8.9
		c8.7-7.9,15.9-17.2,22.1-27.1c3.5-5.5,6.2-11.2,8.1-17.4c1-3.3,1.1-3.3,4.5-2.8c2.3,0.3,4.5,0.8,6.8,1.3c3.2,0.7,4.9,0.2,6.3-2.9
		c1.6-3.6,2.7-7.4,3.9-11.1c1.8-5.7,0.5-5.1,5.9-3.3c3.2,1.1,6.1,3.1,9.2,4.5c1,0.4,2.3,0.6,3.3,0.3c6.2-1.8,12.5-2.7,18.8-3.6
		c1.7-0.2,2,0.3,2.1,1.7c0.3,8,0.8,16.1-1,24.1c-0.2,1.1-0.1,2.3,0,3.5c0.2,4.3,1.4,5.4,5.8,5.4c1.3,0,2.7-0.1,4-0.1
		C285.9,379,287.1,379.1,288.2,379.1z M253.3,379.2c-0.8,0-1.7,0-2.5,0c-1.1,0-2.1,0.3-1.9,1.6c0.1,0.5,1,1.2,1.6,1.3
		c2.7,0.5,5.6,0.5,8.3,1.1c3.9,0.8,7.6,2.1,10.6,5c3.9,3.6,7.8,7.2,11.7,10.7c5.2,4.7,10.8,8.7,17.6,10.7c1.4,0.4,3.1,1.5,3.9-0.2
		c1-2.2-1.5-2.4-2.6-2.7c-7.3-2.2-13.2-6.5-18.6-11.8c-2.7-2.7-5.7-5-8.4-7.7C267.6,381.6,260.8,379.7,253.3,379.2z"/>
	<path class="st5" d="M664.4,429.4c-5.6,0-11.3-0.3-16.7-2.1c-2.6-0.9-5.2-2-7.6-3.3c-7-3.8-14.3-6.7-22-8.7
		c-3.3-0.9-6.7-1.7-10.1-2.4c-5.3-1.1-9.7-4.1-14.4-6.3c-5.7-2.6-11.3-5.3-16-9.5c-0.7-0.7-1.5-1.3-2.2-2c-0.3-0.3-0.5-1-0.3-1.3
		c0.2-0.3,0.8-0.6,1.3-0.6c2.2,0.1,4.3,0.2,6.5,0.4c1,0.1,1.9,0.5,2.9,0.4c8.3-0.7,16.8-1,24.8-3.7c0.5-0.2,1.2-0.1,1.4-0.5
		c0.5-0.8,1.1-1.7,0.9-2.5c-0.2-1.1-1.1-0.6-1.9-0.4c-10.6,3.2-21.3,4.1-32.3,3.4c-2.2-0.2-4.5,0.6-6.8,0.8
		c-1.1,0.1-2.3,0.2-3.3-0.1c-2.7-0.8-5.3-1.8-7.9-2.8c-9.9-4.2-20.2-6.5-30.9-7.9c-5.8-0.7-11.6-1-17.3-0.6
		c-8.3,0.6-14.7-2.9-20.4-8.4c-0.2-0.2-0.3-0.5-0.4-0.7c0.3-0.1,0.6-0.4,0.9-0.4c5,0,9.9-0.5,14.8,1c2,0.6,4.2,0.8,6.3,1
		c2.9,0.4,5.9,1,8.8,0.8c4.2-0.4,8.4-1.4,12.6-2.2c6-1.2,11.2-4.7,16.8-6.9c1.1-0.4,3.8,0,3.1-2.2c-0.7-2.5-2.6-1-4.1-0.4
		c-4.6,1.8-9.2,3.5-13.7,5.4c-8,3.4-16.3,3.6-24.7,2c-3.2-0.6-6.6-0.8-9.8-1.5c-5-1.1-9.9-0.6-14.7,0.6c-1.5,0.4-2.4,0.2-3.6-0.6
		c-1.6-1.1-3.3-2.1-5-3.1c-2.3-1.3-4.7-2.3-7.3-2.9c-5-1.1-9.9-2.5-14.7-4.2c-3.5-1.2-6.3-3.5-8.2-6.8c-1-1.7-1.2-2.9,0.2-4.4
		c6-6.3,9.8-14,13.1-21.9c2.3-5.5,1.7-10.9,0.3-16.4c-1.6-6.4-3.5-12.6-6.2-18.6c-0.8-1.7-0.2-2.2,1.8-2c1.9,0.1,3.9,0,5.8,0.1
		c2.3,0.2,4.8-0.1,6.7,0.9c5.3,2.9,11,5.3,14.5,10.7c1.8,2.7,4.5,4.9,6.8,7.3c3,3.1,6.8,5,10.9,5.3c5.3,0.3,9.9,2.5,14.6,4.4
		c2.9,1.1,5.7,2.4,8.6,3.7c2.1,0.9,4.5,1.6,6.1,3c3.1,2.7,6.9,3.6,10.6,5c1.4,0.5,2.8,0.9,4.2,1.5c0.4,0.2,0.6,0.8,0.8,1.2
		c-0.4,0.2-0.8,0.5-1.2,0.6c-6.9,1.4-13.9,2.6-20.8,4.1c-1.7,0.4-3.5,1.2-4.7,2.3c-2.2,2.1-4.6,3.6-7.5,4.6
		c-0.8,0.2-1.6,0.6-2.1,1.1c-0.3,0.4-0.5,1.3-0.2,1.8c0.2,0.4,1.2,0.9,1.6,0.7c3-1.3,6.3-2.3,8.7-4.3c2.6-2.1,5.1-3.2,8.4-3.7
		c5.3-0.8,10.6-2.3,15.9-3.2c4.8-0.8,9.4-2,14.6-0.9c5.3,1.1,10.9,0.6,16.4,0.3c5.1-0.2,9.6,2.1,14.4,3.1c0.1,0,0.2,1,0,1.4
		c-2.4,4.8-6.9,6-11.8,6.7c-3.7,0.5-7.4,1.5-11.1,2.4c-0.6,0.1-1.4,0.3-1.8,0.8c-0.4,0.4-0.5,1.2-0.4,1.8c0,0.3,0.6,0.8,1,0.9
		c0.6,0.1,1.3,0.1,2,0c5.4-1.3,10.9-2.5,16.3-3.9c2.7-0.7,4.9-1.7,6.8-4.3c2.3-3.1,6.1-4.9,10.2-4.7c1.1,0,2.3,0.5,3.1,1.2
		c9.6,7.6,20.7,12.9,30.9,19.6c9.2,6.1,16.5,13.5,20.2,24.1c1.9,5.4,4.4,10.6,6.2,16c1,3.1,1.7,6.4,1.9,9.6
		c0.3,5.2,2.2,9.6,4.9,13.8c1.3,2.1,2.7,4.1,4,6.3c0.5,0.9,0.1,1.7-1,1.7C670,429.5,667.2,429.4,664.4,429.4z"/>
	<path class="st5" d="M422.5,371.3c-0.1,3.1,1.5,6,0.3,9.2c-0.7,1.9-1.6,3.2-3.4,3.8c-5,1.6-10,1.8-15.2,0.6
		c-2.5-0.6-5.1-1.2-7.7-1.5c-4.1-0.6-7.9,0.4-11.2,2.9c-3,2.4-6.3,2.2-9.9,1.8c-5.4-0.6-8.4-3.8-10.9-8.1c-3.3-5.8-6.8-11.6-9-18
		c-0.6-1.7-1-3.5-1.5-5.2c-2.9-9.9-7.2-19.1-13.9-27c-2.9-3.5-4.8-7.3-4.8-12.1c-0.1-4.6-1.1-9.1-1.7-13.7c-0.1-0.7-0.4-1.5-0.1-2
		c1.7-3.2,0.2-6.4,0.3-9.6c0.3-6.4,1.1-12.8,1.9-19.1c0.2-1.2,1.2-2.3,1.8-3.5c0.4-0.7,1-1.4,1-2.2c0-0.6-0.5-1.5-1-1.9
		c-0.3-0.2-1.4,0.1-1.7,0.5c-1.2,2.1-2.5,4.3-3.2,6.6c-1.7,5.2-2.1,10.6-2,16.1c0,0.5-0.2,0.9-0.4,1.4c-0.4-0.2-0.8-0.5-1.3-0.7
		c-0.1-0.1-0.2-0.2-0.3-0.4c-5.4-10.1-12.5-19.5-13.8-31.3c-0.3-3,0.6-6.2,1-9.3c0.2-1.3,0.5-2.6,0.6-3.9c0-0.5-0.7-1.4-0.9-1.4
		c-0.7,0.1-1.7,0.5-1.8,1c-1,5.4-3.2,10.8-1.4,16.5c0.1,0.5,0.3,1.1,0.1,1.5c-0.2,0.5-0.8,1.2-1.1,1.1c-2.9-0.5-5.6-0.8-7.5-3.9
		c-4.4-7.6-7.5-15.6-9.5-24.2c-1-4.6-2.5-9.1-3.3-13.8c-0.8-4.7-1.1-9.5-1.5-14.2c-0.1-1.3,0.6-2.6,0.7-3.8c0.1-1.7,0.8-2.2,2.4-2.4
		c3.1-0.4,6.1-1.7,9.1-1.8c5.2-0.1,10.4-1.4,15.7-0.2c2.7,0.6,5.6,0.5,8.2,1.4c9.9,3.4,20.2,5.5,29.5,10.6c1.6,0.9,3.3,1.4,5,2
		c2.8,1.1,5.1,2.7,6.9,5.2c1.1,1.6,2.8,2.9,4.2,4.2c1.6,1.4,2.3,3,2.2,5.2c-0.7,9.6-0.5,19.2,1.6,28.6c0.5,2.1,0.3,4.3,0.3,6.5
		c0.1,12.1,1.9,24,4.1,35.8c1.7,9.1,6,17.3,10.4,25.3c2.5,4.6,4.9,9.2,7.3,13.9c3.5,6.6,7.8,12.6,13.4,17.6c0.7,0.6,1.1,1.6,1.7,2.4
		c0.1,1.1,0.1,2.3,0.5,3.2C414.9,365.9,417.6,369.7,422.5,371.3z"/>
	<path class="st5" d="M651.6,236.4c6.8,0.5,12.1,0.6,17.3,1.3c1.8,0.2,3.7,1.4,5.3,2.5c3.9,3,8.4,3.7,13,4c0.3,0,0.7,0,1,0
		c8-1.3,13.2,2.9,17.6,8.8c3.6,4.9,7.1,9.9,10.9,14.7c6.3,8.1,12,16.5,16.8,25.6c0.8,1.4,1.8,2.9,2.1,4.4
		c1.3,7.5,6.4,12.8,10.2,18.9c1.3,2.1,2.6,4.1,4.1,6c2.6,3.5,4.3,7.3,5.5,11.5c1.8,6,3.6,12,5.9,17.8c2.4,5.9,5.3,11.6,8.1,17.4
		c0.7,1.4,0.6,2.1-1,2.4c-2.1,0.5-4.1,1.3-6.2,1.7c-7.7,1.7-14.4,5.4-20.7,10c-1.8,1.4-3.7,2.7-5.6,4c-1.9,1.4-3.7,2.7-5.5,4.1
		c-1.1,0.9-2.1,1.8-3.1,2.7c-0.2-1.4-0.6-2.8-0.7-4.3c-0.2-3.5-2-6.8-1-10.4c0.4-1.3-2.6-1.4-1.1-3.5c0.6-0.9-0.3-3-0.7-4.5
		c-0.4-1.4-1-2.7-1.6-4c-5.2-12.3-13.1-22.6-22.1-32.3c-3.2-3.4-6.2-6.9-9.4-10.2c-1.4-1.5-3.2-2.7-4.9-3.9
		c-1.7-1.2-3.3-2.2-5.2-3.1c-3-1.4-5.5-3.8-8.3-5.8c-5.9-4.2-11.7-8.6-17.9-12.4c-6.2-3.8-13-6.6-20.1-8.2
		c-4.7-1.1-8.8-3.6-13.2-5.2c-3.9-1.4-4.3-5.1-6.6-7.4c-0.2-0.2,0.4-0.9,0.4-1.3c-0.1-2.9-0.5-5.9-0.5-8.8c0-1.9-0.6-3.9,0.7-5.8
		c0.5-0.8,0.7-1.9,0.7-2.8c-0.2-4.6,3-7.2,6-9.7c6.7-5.5,13.9-10,22.5-12.1C647.1,237.7,649.9,236,651.6,236.4z"/>
	<path class="st5" d="M633,342.3c1,0.3,2.1,0.7,3.1,0.8c7.4,0.2,14.3,1.8,20.6,6c3.3,2.2,7.2,3.1,11.3,3.2c4.3,0.1,8.6,0.5,12.8-0.7
		c2.8-0.8,4.4,0.3,5,3.3c0.7,3.6,2.3,5.8,5.9,7.1c2.3,0.8,4.5,2.9,6,4.9c2,2.6,4.2,4.5,7.3,5.6c0.2,0.1,0.3,0.1,0.5,0.2
		c3.1,1.3,14.6,12.3,15.5,15.6c1,3.2,2.3,6.4,1.8,10c-0.3,2.3-0.1,4.6,0.1,6.9c0.5,4.4-1.1,8.1-3.8,11.4c-1.7,2-3.6,3.8-5.5,5.7
		c-1.8,1.7-2.7,3.6-2.5,6.1c0.1,2.7-0.1,5.3-0.1,8c0.1,5.4-1.3,10.4-3.7,15.2c-3.6,7.1-6.2,14.5-7.9,22.2c-0.9,3.9-0.2,8.2,0.1,12.3
		c0.2,2.4,0.5,4.6-0.7,6.7c-1,1.7-2.4,3-4.5,2.3c-2.9-1-5.5-0.4-8,1c-1.3,0.7-2.1,0.3-2.5-1.2c-1-4.6-2.2-9.2-3.2-13.9
		c-0.7-3-1.4-6.1-1.6-9.2c-0.5-10.4-0.9-20.9-1.1-31.3c-0.1-2.4,0.7-4.9,0.6-7.4c-0.1-4.1-2-7.6-4.5-10.7c-4-5.1-6-10.8-6.4-17.3
		c-0.2-3.4,0-7.3-3.2-9.9c0.9-2.9-2-4.7-2.3-7.4c-0.3-2.8-2.2-5.4-3.2-8.2c-2-5.5-4.9-10.3-9-14.6c-4.3-4.5-8.9-8.1-14.3-11.1
		c-6.6-3.6-12.9-7.8-19.3-11.8c0,0,0.1-0.3,0.2-0.4c0.1-0.1,0.3-0.1,0.4-0.2c0.7,0,1.4,0.1,2,0.1c0.9,0.2,1.9,0.3,2.8,0.5
		C625.6,342.1,629.3,342.2,633,342.3z"/>
	<path class="st7" d="M283.7,315.4c3.4-1.1,3.6-1.4,1.5-3c-3.2-2.4-4-5.4-3.5-9.1c0.5-3.2-0.4-6.5,0.9-9.8c0.6-1.5,0.9-2.3,2.5-2.2
		c0.7,0,1.4,0.1,2-0.2c0.3-0.1,0.7-0.8,0.7-1.1c-0.1-0.6-0.4-1.1-0.8-1.6c-0.1-0.2-0.6,0-1-0.1c-3.1-0.7-3.2-0.7-3.2-3.8
		c0-3.4-0.1-6.9,0.9-10.3c0.9-3.1,1.3-6.3,2.1-9.4c0.7-2.4,1.6-2.9,3.9-2.4c7.4,1.6,14.7,3.3,22.1,4.9c1.1,0.2,1.5,0.6,2.1,1.5
		c2.9,5,6,9.9,7.9,15.4c0.6,1.3,0.9,2.9-0.8,2.9c-3.2-0.1-6.3-1-9.5-1.4c-4.3-0.5-8.7-1-13.1-1.4c-0.5,0-1,0.5-1.5,0.8
		c0.3,0.5,0.5,1.3,1,1.6c0.7,0.4,1.5,0.4,2.3,0.5c3.4,0.4,6.8,0.8,10.1,1.2c4.8,0.6,9.6,1.1,14.4,1.7l0.1,0.1
		c0.3,0.3,0.6,0.6,0.9,0.8c1.4,0.7,2.2,1.9,2,3.5c-1.6,0-0.8,1-0.6,1.7l-0.3,0.1l-0.1,0.3c-5-0.9-10.2,0.4-15.1-1.3
		c-0.4-0.1-1.1,0-1.4,0.2c-0.6,0.5-0.9,1.2-1.3,1.9c0.5,0.3,1.1,0.7,1.6,0.8c2.2,0.4,4.5,0.8,6.7,0.9c3.1,0.2,6.3,0.1,9.5,0.1l0,0
		c0,1.5,0.2,3,0.1,4.4c-0.1,2.6-0.4,2.6-2.8,2.3c-4-0.5-8.1-0.5-12.2-0.7c-0.3,0-0.9,0.5-0.9,0.9c0,0.4,0.3,0.9,0.6,1.2
		c0.3,0.3,0.8,0.7,1.2,0.8c4.7,0.3,9.4,0.6,14.1,0.9c0.4,0.1,0.8,0.1,1.3,0.2c-0.5,1.6,0.2,2,1.6,1.8c0,0.8,0.1,1.6,0.1,2.5
		c-1.6-0.9-1.8,1.4-3,1.3c-1.3-0.1-2.5-0.5-3.8-0.5c-3.1-0.1-6.3-0.1-9.4,0c-0.6,0-1.1,0.4-1.7,0.7c0.4,0.6,0.7,1.7,1.2,1.9
		c1.4,0.4,2.9,0.3,4.4,0.4c4.8,0.2,9.8-0.7,14.2,2c0.3,1.4,0.7,2.8,1,4.1c-6.5,0-12.9-0.1-19.4-0.1c-0.8,0-1.7-0.1-2.5,0.1
		c-0.5,0.1-1,0.9-1,1.3c0,0.5,0.5,1.3,0.9,1.4c0.9,0.2,2,0.1,3,0.1c6.3,0,12.6,0,18.9,0.1l0,0c0,0.3,0.1,0.7,0.2,1c0,0.7,0,1.3,0,2
		c0,0.4,0,0.7,0,1.1c0,0.6-0.1,1.3-0.1,1.9c-0.3,0.4-0.6,0.7-0.9,1.1c-0.3,0.1-0.7,0.1-1,0.2c-4-0.1-7.9-0.2-11.9-0.1
		c-1.1,0-3-0.9-3.1,1.3c-0.1,2.6,2.1,1.6,3.3,1.6c3.9-0.1,7.7-0.5,11.6-0.8c1.4,2.3,1,4.5,0.2,7c-1.1,3.7-0.8,3.7-4.2,4
		c-1.9,0.2-3.9,0.6-5.8,0.9c-0.6,0.1-1.1,0.5-1.7,0.8c0.7,0.4,1.3,1.1,2,1.1c2.5,0.1,5,0,7.5,0c1.1,0,2.1,0.2,1.9,1.6
		c-0.3,3.6-0.2,7.3-1.1,10.7c-0.4,1.6-2.8,2.8-4.4,4c-6.5,4.9-14.2,7.2-21.8,9.4c-7.2,2.1-14.7,1.2-22.1,1.3c-1.6,0-2.5-1-2.4-2.6
		c0.2-2.9-0.6-5.9,0.7-8.8c0.5-1.1,0.3-2.6,0.3-3.9c0-5.2,0.1-10.3,0-15.5c0-1.4,0.5-2.1,2-2.1c1.4-0.1,2.9-0.5,4.3-0.9
		c2-0.6,2.5-1.7,1.2-3c-1.2-1.3-2.8-2.3-4.2-3.4c-1.5-1.2-2.6-2.5-2.3-4.6c0.4-3.6,0.6-7.2,1.1-10.8c0.1-0.7,1-1.3,1.2-2
		C283.3,317.6,283.5,316.5,283.7,315.4L283.7,315.4z"/>
	<path class="st7" d="M349.4,97.9c0.3,0.3,0.6,0.6,0.9,0.9c1.9,2.3,3.9,4.6,5.8,7c1.9,2.3,3.4,4.8,3.5,7.9c-0.1,1-0.2,2-0.3,3l0,0
		c-1.8-0.1-2.9,0.8-2.9,2.6c0,1.8,1.2,2.5,2.9,2.5c0.3,0,0.7,0,1,0c0,0,0,0,0,0c0,3.3,0.1,6.7,0.1,10c0,1,0,2,0,3
		c-0.4,0.7-0.7,1.4-1.1,2c-0.7,0-1.3,0-2,0c-1.6,0-3,0.1-4.7,1c-4.8,2.6-6.7,7.1-8.1,11.7c-1.7,5.4,1.5,13.1,6.7,14.9
		c2.9,1,1.6,1.9,1.1,3.3l0,0c-1.8,0.4-0.8,1.9-1.1,2.8l0,0c-0.3,0.4-0.6,0.7-0.9,1.1c-0.1,0.3-0.1,0.5-0.1,0.8
		c-0.3,0.4-0.6,0.7-0.9,1.1c0,0,0,0,0,0c-1.5-0.1-2.1,0.7-1.9,2.1c-0.1,0.3-0.1,0.5-0.1,0.8c-0.3,0.4-0.6,0.8-1,1.1
		c0,0.3-0.1,0.5-0.1,0.7c-0.6,0.4-1.2,0.9-1.8,1.3c-0.5,0.6-0.9,1.4-1.5,1.9c-0.8,0.7-1.8,1.9-2.7,1.8c-1-0.1-1.4-2.2-3-1.8
		c0-0.4-0.2-0.8-0.1-1c1.4-2.5,2.8-5,4.4-7.4c1.1-1.8,1.1-3.3,0-5c-0.6-0.9-1.3-2.5-1-3c1.9-2.9-0.6-5.1-1.3-7.2
		c-0.8-2.3-2.6-4.6-4.6-6.2c-4.6-3.7-10.1-5.7-15.9-7c-4.6-1-9.1-0.8-13.7-0.9c-6.5-0.1-17.4,7.2-18.3,15.2
		c-0.1,0.6-0.3,1.3-0.6,1.8c-0.7,1.1-2.2,1.3-2.8,0.1c-0.7-1.4-1.5-3-1.5-4.5c-0.2-5.5-0.3-11,0-16.5c0.2-3,1-6.1,1.9-9
		c1.1-3.2,1.1-6.3,0.2-9.6c-1.8-7.1-1.1-14.3,1.1-21.1c1-3.1,3.1-6.2,5.5-8.6c3.9-3.9,7.9-7.7,13.6-9.1c4.3-1.1,8.6-1.1,12.7-0.4
		c7.3,1.3,14.4,3.5,20.9,7.5c1.5,0.9,3.9,0.9,3.9,3.6C345.1,93.4,346.2,97.3,349.4,97.9z M311.6,88.9c-3.5-0.4-7,0-10,2.5
		c-1,0.9-2.1,1.6-3,2.5c-2.4,2.2-2.2,5.3,0.6,6.7c1.7,0.9,3.7,1.3,5.5,1.7c3.9,0.9,7.9,2.3,11.8,2.2c3.5-0.1,7.2,0,10.8-0.6
		c4.3-0.8,5.4-2.4,3.1-6.2c-0.5-0.8-1.2-1.6-1.9-2.3C323.9,90.9,318.5,88.1,311.6,88.9z M320.4,117.7c1.7,0.1,4.2-2,4.1-3.5
		c-0.1-1.5-1-2.3-2.5-2.5c-2.1-0.2-3.4,0.9-3.5,3C318.5,116.2,319.1,117.1,320.4,117.7z"/>
	<path class="st8" d="M646,341.3c-0.9,0-1.9-0.1-2.8-0.1c-0.4-0.6-0.7-1.7-1.2-1.8c-5.3-1-10.5-2.5-16-2c-2.3,0-4.6,0-6.9-0.1
		c-1.6-1.7-3.8-2-6-2.1c0-6.9-1-13.6-1.9-20.5c-0.9-6.9-0.1-13.9-0.3-20.9c-0.1-3,0.5-5.8,1.9-8.5c0.7-1.4,1.4-0.7,1.6-0.1
		c1.6,4.1,6,4.9,8.7,7.5c0.3,0.3,0.9,0.4,1.4,0.4c3.4-0.2,6.3,1.2,9.5,1.8c2.1,0.4,3.7,1.4,5.5,2.2c1.9,0.8,4,1.2,5.9,1.9
		c5.2,2.1,10.2,4.4,14.3,8.3c0.9,0.8,2.1,1.2,3.2,1.8c0.9,1.5,1.7,3.3,4,3c0.3,0,0.6,0.1,0.9,0.1c0,2,1,3.1,3,3l0,0
		c0.3,0.3,0.7,0.6,1,0.9c0.3,0.1,0.6,0.1,0.9,0.1c-0.2,1.5,0.5,2.2,2,1.9l0,0c-0.3,2.7,1.6,1.9,3,2c0.9,0.5,2.2,0.8,2.7,1.6
		c1,1.7,2.5,2.2,4.2,2.5c-0.3,2.6,1.6,1.9,3,2l0,0c-0.2,2.8-0.2,2.8-2.6,2c-0.8-0.2-1.7-0.2-2.3-0.6c-3.3-2.5-7.1-3.5-11.1-3.9
		c-0.3,0-0.6,0.3-0.9,0.4c0.6,1.1,1.1,2.3,1.8,3.3c0.8,1.2,1.7,0.4,2.5-0.1c0.3-0.2,1.2,0,1.2,0.2c0.9,3.2,4.1,2.9,6.2,3.8
		c4.6,2,8.9,5.1,14.1,5.6c0.3,0.1,0.6,0.1,0.9,0.1c-0.2,1.5,0.5,2.2,2,2c0.3,0.3,0.6,0.7,1,1c-0.1,2,0.3,3.6,2.5,4.2
		c0.2,0.1,0.5,0.9,0.3,1.2c-0.2,0.3-0.9,0.7-1.2,0.5c-1.7-0.5-3.7-0.8-4.8-1.9c-3.3-3.2-8.1-3-11.5-6c-0.8-0.7-2.4,0-2.8,1.2
		c-0.2,0.6,0.4,1.8,0.9,2.4c0.8,0.8,1.8,1.3,2.8,1.8c5.3,3,10.8,5.6,16.6,7.7c1.3,0.5,2.8,0.6,4.2,0.8c0.3,0,0.6,0,0.9,0
		c0.4,0.3,0.7,0.6,1.1,0.9c0.7,0.6,1.4,1.3,2.1,1.9c0.6,1.5,1.2,2.9,1.7,4.5c0.1,0.4,0,1-0.2,1.2c-0.3,0.2-0.9,0.2-1.3,0
		c-5.6-2.9-11.2-5.8-16.8-8.7c-0.8-0.4-1.7-0.8-2.7-0.9c-0.5-0.1-1.2,0.3-1.7,0.7c-0.1,0.1,0.1,0.9,0.4,1.3c1.6,2.8,4.5,3.8,7.2,5
		c1.4,0.7,2.8,1.5,4.1,2.4c1,0.7,1.8,1.8,2.8,2.4c3.8,2.1,8.1,2.4,12.3,2.2c1.4,4.6,2.2,9.4,4.8,13.5c0.4,0.6,0.3,1.6,0.1,2.4
		c-0.1,0.4-0.9,0.7-1.4,0.7c-0.4,0-0.8-0.5-1.2-0.9c-2.8-2.6-5.5-5.3-8.4-7.8c-1.3-1.1-2.7-2.5-4.3-2.9c-2.8-0.7-4.7-2.4-6.4-4.3
		c-2.7-3.2-5.5-6.3-9.7-7.5c-1.8-0.5-1.9-2.1-2.5-3.3c-0.8-1.6-1.3-3.3-2-4.9c-0.9-2.5-3.8-3.4-6-1.9c-1,0-1.9,0-2.9,0
		c-1.5-0.1-3.2-0.7-3.2,1.7c-0.6,0-1.2,0-1.8,0c-0.1-0.9-0.1-1.9-1.5-1.9c-1.6,0.1-3.1,0.1-4.7,0.1c-2.3-0.4-4.8,0.4-6.9-1.2
		c0.1-1.6-0.5-2.2-2.1-1.9c-0.6,0-1.3-0.1-1.9-0.1c0-2.9-2.2-2.6-4.1-2.9c-1.3-0.1-2.6-0.1-3.8-0.2c-0.3-0.6-0.6-1.2-0.8-1.9
		C646.8,340.7,646.4,341,646,341.3z"/>
	<path class="st7" d="M244.7,266.5c-0.3,1.3-0.5,2.6-0.8,3.9c0,0.7,0,1.4,0,2c0,0.7,0,1.3,0,2c-2.1,2.3-2.1,2.3-4.2,0.4
		c-1-0.9-1.8-2-2.9-2.7c-1-0.7-2.2-1.3-3.4-1.6c-1-0.3-2,0.8-1.6,1.7c0.4,0.9,1,1.7,1.7,2.3c2.7,2.1,5.4,4,8.1,6l0,0
		c-0.2,2.6-0.5,5.3-0.7,7.9c-0.1,1.3-0.2,2.5-0.3,3.8c-0.3,0.4-0.6,0.8-0.8,1.2c-0.7,0.4-1.3,0.7-2,1.1c-3.4,0.3-6.8,0.5-10.1,1
		c-0.7,0.1-1.5,1.3-1.6,2.1c-0.1,0.4,0.9,1.3,1.6,1.6c0.5,0.3,1.4,0.3,1.9,0c3-1.4,6.1-0.8,9.2-0.9c-0.3,2.3-0.6,4.7-0.9,7
		c-1,1.1-2.1,2.1-3.6,0.8c-1-0.8-1.9-1.9-3-2.6c-0.5-0.3-1.6,0-2.2,0.4c-0.3,0.2-0.3,1.4,0,1.8c2,2.1,3.5,4.9,6.6,5.7
		c0,2.7,0.1,5.3,0.1,8c0,2.4-1,3.8-3.3,3.7c-3.1-0.1-5.7,0.6-8.3,2.1c-0.4,0.2-0.7,0.4-1.1,0.6c0.3,0.4,0.6,1.1,1,1.1
		c1,0,2.1-0.1,3.2-0.3c1.6-0.4,3-1.1,4.6-1.2c2.2-0.2,3.1,0.7,3,2.9c-0.1,2.1-0.5,4.2-1.1,6.2c-0.1,0.4-1.8,0.8-2.4,0.5
		c-2.4-1-4.6-2.4-7-3.4c-0.6-0.2-1.9,0-2.1,0.5c-0.5,0.8-0.5,1.8,0.9,2.3c2.1,0.9,4.2,1.9,6.1,3c1.4,0.8,2.7,1.8,4,2.7
		c0.3,0.3,0.8,0.9,0.7,1.2c-1.4,4.6-0.9,9.7-2.9,14.2c-0.6,1.3-2.9,1.9-4.7,1.5c-1.6-0.3-3.2-0.5-4.8-0.6c-4.9-0.5-9.2-2.1-12.6-5.7
		c-1.9-2-3-4.2-2.9-7.1c0.1-4,0.1-8,0.2-12c0-0.3-0.1-0.8,0-1c2.7-4,2.1-8.7,2.8-13.2c0.7-4.4,0.3-8.9,1.3-13.2
		c0.9-4.3,0.6-8.5,0.9-12.8c0.2-2.3,0.3-4.6,1-6.7c1-2.9,0.9-5.8,0.8-8.8c-0.1-7.6,0.9-15,2.8-22.2c0.3-1.1,0.1-2.3,0.2-3.5
		c0.3-2.4,1.7-3.9,4.2-3.8c4.6,0.3,9.1,0.9,13.6,1.4c2.4,0.3,4.9,0.5,7.2,1.1c3.9,1,3.9,1.1,3.9,4.9c0,1.2,0,2.3,0,3.5
		C243.5,260.1,243.4,263.5,244.7,266.5z"/>
	<path class="st8" d="M664.8,194.7c0,1.3,0.1,2.6,0.1,3.8c-0.6,0.2-1.3,0.1-1.8,0.5c-1.5,1.1-2.6,3.6-5.2,1.7
		c-0.1,0-1.6,1.4-1.9,2.3c-0.4,1.3,0.7,1.7,1.8,1.5c1-0.2,2.6-0.2,2.9-0.9c0.9-1.7,1.6-1,2.6-0.3c0.7,0.5,1.7,0.8,2.5,1.2
		c0,4.9,0,9.9,0,14.8c-0.6,0.3-1.2,0.6-1.8,0.9c0.3,0.4,0.7,0.8,1,1.2c0.2,4-0.7,7.7-3.1,10.9c-1.4,0.1-3.1-0.5-3.1,1.9
		c-1.2,0-2.5,0-3.7,0c0-0.8-0.2-2.1,0.2-2.3c3.7-2.1,4-5.3,3.8-9c-0.1-1.7,0.7-3.4,1.2-5.1c0.8-2.7-0.1-6.2-2.2-7.7
		c-0.6-0.4-1.9-0.8-2.2-0.5c-0.6,0.6-0.7,1.6-0.9,2.5c-0.1,0.4,0.4,0.9,0.4,1.4c0.2,2.1,0.9,4.4,0.3,6.3c-0.5,1.6-0.7,3.1-0.7,4.8
		c-0.1,3.6-1.4,4.9-5.1,5c-2,0-4-0.1-6,0c-0.6,0-1.2,0.4-1.8,0.6c0.4,0.7,0.5,1.6,1.1,2c0.9,0.7,2.1,1,1.8,2.5c-4.6,1.8-5,1.7-8-2.3
		c-1.5-2-3.5-2.8-5.9-2.7c-1,0-1.6,0.4-2.3,1.3c-1,1.2-2.8,1.8-4.3,2.7c-1.1-1.9-0.1-3.2,0.8-4.9c2.2-3.9,3.7-8.1,4.7-12.5
		c0.3-1.4,0.5-2.9,1-4.2c2.3-5.7,0.6-10.9-2.3-15.7c-1.4-2.3-4.3-3.5-7.2-3.5c-4.1-0.1-8.3,0-12.4,0.1c-1.5-0.1-3.2-0.8-3.2,1.8
		c-1.9,0-3.6,0.5-5,2c-0.8,0.9-1.9,1.4-2.9,2.1c-2.8,0.6-2.9,0.7-3.1,3.9l0,0c-1.3,0-2.6-0.1-3.9-0.1c0-1.3,0-2.6-0.1-3.9
		c0.3-0.2,0.7-0.3,0.8-0.5c0.4-3.9,0.8-7.7,1.1-11.6c0.1-0.3,0.1-0.6,0.1-0.9c1-0.3,2.4,0.8,3-0.9c1.6-0.1,3.3-0.2,4.9-0.2
		c2.2,0.6,4-0.8,5.9-1.4c0.2-0.1,0.2-0.9,0.3-1.4c2,0,3.9,0,5.9-0.1c2.7,1.3,5,0.7,5.8-1.6c0.1-0.3-0.1-1-0.4-1.2
		c-0.8-0.5-1.7-1-2.6-1.1c-3.3-0.5-6.4,0.6-9.5,1.4c-0.2,0.1-0.2,0.9-0.3,1.4c-2.3,0.1-4.5,0.2-6.8,0.2c-0.4-0.4-0.8-0.8-1.2-1.2
		c0.1-1.7,1.5-2.2,2.5-3.2c3.1-3.2,6.7-5.5,10.9-6.7c1.9-0.5,3-2.5,5.5-2.2c1.9,0.2,4-1.6,5.9-1.7c5.5,0,11.1-0.9,16.7,0.7
		c6.5,1.9,12.6,4.7,16.8,10c3.2,4,6.3,8.5,6.8,14.1c-1,0-2.1-0.2-2.9,0.1c-0.8,0.3-1.3,1.2-2,1.9c0.8,0.7,1.5,1.7,2.4,2
		C661.8,194.9,663.4,194.7,664.8,194.7z M646.9,217.5L646.9,217.5c-0.5,0.1-1.3,0-1.4,0.3c-1.4,2.6-0.3,7.1,2.1,8.7
		c0.2,0.1,0.9-0.5,1.4-0.8c2-1,3.2-2.5,3-5c-0.1-1.5,0.1-2.8,1.3-4c1.1-1.2,0.3-3-1.2-3.1c-1-0.1-2.1,0.6-3.1,0.9
		C646.5,214.3,647.1,216.1,646.9,217.5z"/>
	<path class="st5" d="M259.3,291.6c-0.5-0.2-2-0.5-3.1-1.4c-3.1-2.5-6-5.2-9-7.8c-1.1-0.9-1.3-1.8-1.1-3.4
		c1.4-9.2,1.6-18.4,1.7-27.7c0-0.8,0.1-2-0.4-2.4c-2.4-2-0.9-3.8,0.2-5.5c5.6-8.1,11-16.4,16.9-24.3c3.3-4.3,7.1-8.3,12-11.1
		c1.5-0.9,1.9-0.6,2.1,1.2c0.9,7.3,1.9,14.7,2.8,22c1,8.1,4.1,15.6,6.3,23.3c0.2,0.6,0.6,1.2,0.8,1.8c0.3,1.3,0.2,2.4-1.5,2.3
		c-3-0.2-4,1.6-4.4,4.1c-1.4,7.6-3.5,15.1-3.1,22.9c0.1,3.3-0.1,3.4-3.2,3.8C271.1,290.3,265.7,290.9,259.3,291.6z"/>
	<path class="st5" d="M200.2,261.7c0.6-2.3,1.2-6.5,2.9-10.2c4.8-11,9.6-22.1,15.1-32.7c6.3-12,14.2-23.1,24.2-32.4
		c3.1-2.9,6.5-5.5,9.8-8.3c0.4-0.3,0.8-0.5,1.3-0.6c8.8-1.5,21,6.7,23,15.3c0.3,1.4-0.4,1.7-1.3,2.2c-7.1,4.3-13.5,9.7-19.4,15.5
		c-7.1,6.9-13.8,14.3-18.5,23.2c-0.7,1.2-1.3,3.2-2.9,0.6c-0.1-0.2-1.3-0.2-1.6,0.1c-0.7,0.7-1.1,1.6-1.7,2.4
		c-0.7,1-1.2,0.8-1.6-0.4c-0.3-0.9-0.5-1.9-1-2.8c-0.4-0.7-0.9-1.4-1.6-1.8c-0.5-0.3-1.4-0.3-1.8,0c-0.4,0.2-0.6,1.2-0.4,1.7
		c0.6,1.9,1.5,3.6,2.2,5.5c0.3,0.8,0.6,1.5,0.8,2.3c0.6,2.8,0,3.3-2.7,2.9c-2-0.3-3.9-0.6-5.9-0.8c-4.4-0.3-5.7,0.9-6.4,5.3
		c-0.3,1.8-0.6,3.6-0.9,5.4c-0.6,4.4-1.2,8.9-1.7,13.3c-0.1,1.3,0.3,2.7,0.5,4.1c0.6,3.7-0.8,7.1-1.3,10.6c-0.1,0.4-0.6,0.7-1,1
		c-0.1,0.1-0.5-0.3-0.7-0.5C203.1,277.1,200,270.9,200.2,261.7z"/>
	<path class="st5" d="M550.3,426.7c0-2,0.2-4-0.1-6c-0.2-1.8-0.5-3.7-1.4-5.2c-1.8-3.3-3.9-6.4-6.2-9.4c-0.9-1.2-0.6-1.9,0.3-2.4
		c1.8-1,3.8-2.3,5.8-2.5c6.9-0.7,13.7-1.7,20-4.9c1.4-0.7,2.8-0.4,4.1,0.7c6.8,6.4,15,10.4,23.4,14.3c4.5,2.1,9,3.9,13.8,4.9
		c1,0.2,1.9,0.5,2.8,1c1.8,1,2.2,2.2,1.5,4.5c-2,6.1-4.4,12-8.1,17.3c-1,1.5-2.1,2.2-3.9,2.4c-2.7,0.4-5.3,1.5-8,2.2
		c-3.6,1-6.8,1.1-9-2.7c-1.4-2.4-3.7-3.1-6.4-2.8c-3.3,0.3-6.5,0.7-9.8,1c-2.5,0.2-4.8,0.3-7.2-0.9c-3.1-1.6-6.3-2.8-9.8-2.9
		c-1.6,0-1.8-0.9-1.7-2.2C550.3,431,550.2,428.9,550.3,426.7C550.3,426.7,550.3,426.7,550.3,426.7z"/>
	<path class="st7" d="M376.5,206c-0.2,0.4-0.4,1.7-1.2,2.4c-1.6,1.6-3.5,3-5.3,4.4c-1.3,1.1-2.5,0.9-4,0.1
		c-13.6-7.3-28-12.3-43-15.8c-6.1-1.4-12.4-2-18.7-0.8c-2.4,0.5-4.9,0.5-7.4,0.8c-8.2,1-15.4,4.9-22.4,8.8
		c-5.3,2.9-9.4,7.3-12.9,12.3c-6.1,8.8-12.1,17.8-18.1,26.7c-0.8,1.1-1.4,1.2-2.8,1c-5.5-0.9-5.4-0.7-3.2-5.8
		c3.7-8.7,9.5-15.9,15.9-22.6c9.1-9.7,19.3-18,31.4-23.9c6.6-3.2,13.5-5.2,20.5-6.4c8-1.4,16-2.7,24.1-2.1c6.4,0.5,12.9-0.1,19,2.6
		c0.3,0.1,0.7,0.2,1,0.2c5.8-0.5,10,2.7,14.3,5.9c3.3,2.5,6.8,4.7,10.1,7.2C376.3,202.5,376.6,203.2,376.5,206z"/>
	<path class="st0" d="M333.7,179.8c-0.3,1.9-1.2,3-3.3,2.9c-2.2-0.1-4.4,0.3-6.4-0.1c-1.8-0.4-3.4-0.1-5.2,0
		c-7.7,0.5-15.3,1.5-22.7,3.8c-2.4,0.7-5.2,0.4-7.9,0.4c-0.6,0-1.4-0.8-1.6-1.4c-0.6-1.8-1.1-3.7-1.5-5.6c-0.6-3.1-1-6.1-1.4-9.2
		c-0.3-2.7,0.4-4.9,3.3-5.7c1.9-0.5,2.3-1.9,2.7-3.7c1.8-8.2,6.6-12.6,15.2-13.6c9.3-1.1,18,0.5,26.1,5.7c4.2,2.7,5.8,6.4,6.6,10.9
		c0.2,1.5,0.1,3,0.2,4.5c-2.8,2.9-3.8,6.7-5.1,10.3C332.7,179,333.4,179.5,333.7,179.8z"/>
	<path class="st0" d="M615.4,195.2c1.8,0.4,3.5,0.9,5.3,1.1c2.9,0.4,5.7,0.8,6.7,4.1c0.7,2.6,1.6,5,1,8c-1.4,7.3-3.4,14.3-7.2,20.8
		c-1,1.7-1.3,3.7-2.3,5.4c-2,3.7-1.9,7.2,0.6,10.5c1.1,1.5,1,2.4-0.7,3.6c-1.6,1.1-2.8,2.8-4,4.3c-2.8,3.6-3.6,3.9-7.9,2.3
		c-1.1-0.4-2.1-1-3-1.7c-1.2-0.9-1.8-2-2-3.8c-0.4-5.2-1.1-10.4-1.7-15.6c-0.1-0.8-0.1-1.7-0.1-2.5c-0.1-3.1-0.7-6-1.6-9.1
		c-1.2-4.3-1.6-9-2.3-13.5c-0.5-3.7,1.5-6.8,4.5-8.8C605.1,197.5,609.8,195.2,615.4,195.2z"/>
	<path class="st8" d="M695.9,724.5c-1.5-1.4-3.3-1.1-4.9-0.4c-6.8,3.1-13.9,2.6-21,2.5c-1.9,0-3.8-0.5-5.7-1
		c-0.6-0.2-1.3-0.8-1.5-1.5c-0.7-2.1-1.4-4.2-1.9-6.4c-0.5-2-0.7-4.1-1.1-6.1c0.3,0,0.7-0.1,1-0.1c3.2-0.4,5.6-2.1,7.9-4.2
		c2.5-2.2,4.2-5.5,7.9-6.2c0.5-0.1,0.8-1.6,1.2-2.4c0,0,0,0,0,0c3.1,0.1,5.4-2,8.1-2.8c0.5-0.1,0.6-1.4,0.9-2.1
		c1.6-0.4,3.2-0.8,4.8-1.2c0.9,0.1,1.9,0.4,2.1-1c0.6,0,1.3,0,1.9,0c2.2,0.1,4.5,0.2,6.7,0.1c0.5,0,0.9-0.6,1.4-0.9
		c2.1,0.3,4.7-1.1,6,1.9c-0.2,1.5,0.5,2.2,2,2c0,0.6,0,1.3,0,1.9c-2.3-0.3-3.8,1-4.8,2.7c-2,3.1-3.6,6.5-5.8,9.4
		c-1.3,1.7-1.3,3.2-1.3,5c-1.4,2.8-1.1,5.9-1,8.9c0,0.7-0.1,1.3-0.1,2C697.8,724.6,696.9,724.5,695.9,724.5z"/>
	<path class="st7" d="M388.5,743.7c-1.3-2.5-2.6-5-3.8-7.6c-0.8-1.6-1.4-3.2-2.1-4.8c1.7-0.2,3.4-0.4,5.2-0.8
		c0.6-0.1,1.2-0.6,1.8-0.8c4.2-1.6,8.4-2.6,12.9-2.2c1.1,0.1,2.2-0.4,3.3-0.5c2.7-0.3,5.3-1,8,1.1c1.5,1.2,4,1.2,6,1.5
		c1.5,0.2,3,0.1,4.5,0.1c3.7,0.1,3.9,0.3,4.2,3.8c0.1,1.1,0.2,2.3,0.6,3.3c1,2.6-1.1,4.3-1.8,6.4c-0.1,0.3-0.9,0.4-1.3,0.5
		c-6.9,0.3-13.9,1.2-20.7,0.7c-4.6-0.4-9.2-0.5-13.8-0.7C390.5,743.7,389.5,743.7,388.5,743.7z"/>
	<path class="st0" d="M431.9,315.5c5.8,1.3,11.3,0.7,16.4,2.9c3.3,1.5,6.8,1,10.3,0.9c1.6,0,2.4,0.7,1.7,2
		c-3.4,7.1-6.4,14.4-11.7,20.5c-1.2,1.4-2.1,1.7-4.1,0.8c-4.4-2.1-9.2-3.4-13.7-5.2c-2.7-1.1-5.3-2.6-7.9-4c-0.9-0.5-1-1.4-0.1-2
		c5.2-3.4,7.2-8.6,8.4-14.4C431.4,316.4,431.8,315.8,431.9,315.5z"/>
	<path class="st8" d="M750.7,384.1c0-2.5-0.2-4.1,2.2-3.9c0.7,0.1,1.6-0.4,2.2-0.8c2.5-2.2,5.7-2.2,8.6-3c2.6-0.7,5.4-0.9,8.1-1.6
		c1.2-0.3,1.4-0.3,2.2,0.8c2.3,3.4,4.9,6.5,7.4,9.7c0.7,0.9,1.7,1.6,2.3,2.6c0.4,0.8,0.5,1.9-0.8,2.4c-5.2,2.1-8.5,6.2-12,10.3
		c-1.5,1.7-3.1,3.5-4.8,5c-1.4,1.3-2.7,1.1-3.8-0.4c-3.4-4.9-6.8-9.8-9.9-15C751.1,388.1,751.1,385.5,750.7,384.1z"/>
	<path class="st5" d="M260.2,318.6c-4.2,0.8-7.8-1-11.4-2.7c-1.2-0.6-2.2-1.4-3.4-2.1c-5.6-3.3-5.7-3.3-4.5-9.9
		c0.4-2.2,0.4-5,1.8-6.5c1.1-1.2,4-1,6-1.2c9.9-1.2,7-2.4,14.7,3.9c3.8,3.1,8.1,5.7,12,8.7c1,0.7,2,1.8,2.5,2.9
		c1.5,3.4,0.8,4.8-2.9,5.4c-2.4,0.4-5,0.3-7.4,0.5C265.1,317.9,262.7,318.3,260.2,318.6z"/>
	<path class="st5" d="M237.6,334c0-0.3,0-0.7,0.1-1c1.5-10.3-0.4-8.2,9.1-9.7c0.2,0,0.3,0,0.5,0c6.1-2.3,11.2-0.1,16.2,3.3
		c3.8,2.6,7.8,5,11.7,7.5c1.6,1,2.2,3.6,1.6,5.6c-0.5,1.6-1.9,1.5-3.2,1.8c-5.2,0.9-10.4,1.9-15.5,2.8c-2.3,0.4-4.5,0.5-6.8-0.7
		c-3.4-1.7-6.9-3.1-10.4-4.6C237.5,337.6,237.5,337.6,237.6,334z"/>
	<path class="st7" d="M250.5,162.4c8.3,0.5,16.5,0.9,24.8,1.5c1,0.1,1.9,0.8,2.8,0.8c2.3,0.1,2.7,1.5,2.6,3.4
		c-0.3,5,0.5,9.9,1.8,14.7c0.5,1.7,1.1,3.4,1.8,5.1c0.6,1.5,0.6,2.5-1.1,3.1c-0.6,0.2-1.3,0.5-1.8,0.8c-1.1,0.8-1.4,0.6-2.1-0.6
		c-1.4-2.6-3.1-5.1-4.8-7.4c-5.1-6.8-12.4-9.2-20.5-9.1c-3.4,0-6-0.9-8.7-2.8c-2.3-1.6-4.8-2.8-7.1-4.4c-1-0.7-1.7-1.9-2.5-2.8
		c1.3-0.6,2.5-1.5,3.9-1.6c3.6-0.2,7.3-0.1,11-0.1C250.5,162.7,250.5,162.5,250.5,162.4z"/>
	<path class="st0" d="M543.2,436.4c-3.4,4.2-7.9,3.5-12.2,2.2c-2.9-0.9-5.7-2.5-8-4.5c-1.4-1.2-2.7-3.7-2.6-5.5
		c0.2-5.2,0.3-10.6,6-13.5c1.7-0.9,3.1-2.4,4.8-3.3c0.7-0.4,1.8-0.3,2.8-0.4c0.4,1.2,0.8,2.5,1.4,3.6c2.9,5.5,5.5,11.2,5.6,17.5
		C541.1,434.4,542.8,435,543.2,436.4z"/>
	<path class="st0" d="M427.5,316.6c0.4,7.7-5.5,12.5-11.9,14.7c-0.6,0.2-1.3,0.1-1.9-0.2c-2.9-1.1-5.7-2.4-8.6-3.3
		c-2.1-0.7-2-1.8-1.2-3.4c2.1-3.7,4.1-7.4,6.2-11.1c1.6-2.8,3.5-5.5,5-8.4c0.7-1.4,1.2-1.8,2.5-0.8c1.9,1.5,3.7,3.3,5.8,4.5
		C426.8,310.5,427.9,313.3,427.5,316.6z"/>
	<path class="st5" d="M741.3,406.4c-4.2-0.8-8.5-1.4-12.9-2.4c-2-0.5-2.3-1.6-1.2-3.4c2.8-4.4,6-8.2,10.6-10.9
		c2.4-1.4,4.6-3.1,6.9-4.8c1.4-1.1,2.4-0.4,2.7,0.8c1.5,6.3,5,11.4,8.5,16.6c1,1.5,0.5,1.8-1.1,2C750.4,404.9,746,405.7,741.3,406.4
		z"/>
	<path class="st7" d="M435.4,388.1c-0.2,0.3-0.2,0.7-0.5,0.8c-4.4,1.6-8.8,3.4-13.6,3.3c-0.8,0-1.7,0.1-2.4-0.3
		c-1.2-0.7-2.3-1.7-3.5-2.5c1.2-0.7,2.3-1.7,3.5-2c6.6-1.7,8.3-4.7,6.8-11.5c-0.3-1.4-0.4-2.9-0.3-4.4c0.2-3.9-1.4-7-4.1-9.6
		c-1.7-1.6-3.5-3-5-4.7c-0.6-0.7-0.8-2-0.8-3c0-0.2,1.3-0.7,2-0.8c3.5-0.3,6.2,1.5,8.8,3.5c0.3,1.1,0.5,2.2,1,3.2
		c2,4,3.6,8.2,4.7,12.6c0.3,1.4,0.7,2.8,1.1,4.2C434.6,380.5,435.4,384.2,435.4,388.1z"/>
	<path class="st0" d="M698.8,724.6c0-0.7,0.1-1.3,0.1-2c2.3,0.4,2.5-1.1,3-2.9c0.8-3.4,1.9-6.8,3.1-10.1c0.6-1.7,1.4-3.2,2.1-4.8
		l0,0c0.4-0.3,0.8-0.7,1.2-1c2.8,0.1,4.3-1.3,4.9-3.9c0.5,0,1.3-0.1,1.4,0.1c1.9,3.8,5,6.9,5.7,11.3c0.3,1.6,0.8,3.2,0.8,4.8
		c0,3.8-1.4,5.4-5.1,6.8c-3.4,1.3-6.9,2-10.5,1.9C703.1,724.6,700.9,724.6,698.8,724.6z"/>
	<path class="st0" d="M778.4,417.6c-1.9-0.9-3.6-1.6-5.2-2.5c-6.9-4.3-7-4.7-1.9-10.8c4.5-5.5,10.3-9.6,16.2-13.4
		c0.2-0.1,1,0,1.1,0.2c0.7,1.6,1.4,3.2,2,4.9c0.2,0.4,0,1,0,1.5c-0.3,2.7-0.8,5.5-1,8.2c-0.3,3.5-0.4,3.7-3.9,4.8
		c-2.7,0.8-4.6,2.5-5.6,5.1C779.8,416.3,779,416.8,778.4,417.6z"/>
	<path class="st7" d="M286.1,210.5c0.9,5.4,1.5,10.8,2.8,16.1c1.7,7,3.6,14,5.9,20.9c1.5,4.3,3.8,8.4,5.9,12.5
		c0.7,1.3,0.4,1.7-0.9,1.7c-4.7-0.1-6.6-1.2-8-5.6c-2.2-6.7-4.4-13.4-6.3-20.2c-1.2-4.3-1.9-8.7-2.5-13.1c-0.6-4.9-1-9.9-1.3-14.8
		c-0.2-2.3,1.8-4.2,4.1-4.2c0.3,0,0.9,0.8,0.9,1.3c0.1,1.8,0,3.7,0,5.5C286.5,210.5,286.3,210.5,286.1,210.5z"/>
	<path class="st0" d="M435.4,388.1c0-3.9-0.9-7.7-2.1-11.3c-0.5-1.4-0.8-2.8-1.1-4.2c-1.1-4.4-2.7-8.6-4.7-12.6
		c-0.5-1-0.7-2.1-1-3.2c5.2-0.2,8.7,3.5,12.8,5.7c2.9,1.6,4.6,4,5.9,6.9c1.7,3.8,2,7.2-1,10.9C441.7,383.7,438.6,385.8,435.4,388.1z
		"/>
	<path class="st5" d="M333.9,350.9c0.3-4.9,0.4-9.9,0.8-14.8c0.1-1.6,0.9-3.1,1.4-4.7c1.3,0.9,2.7,1.7,3.7,2.8
		c1.5,1.7,2.7,3.7,3.9,5.7c3.4,5.9,5.9,12.1,7.7,18.6c0.2,0.5-0.2,1.2-0.4,1.8c0,0.1-0.6,0-0.9-0.1c-4.6-1.7-9.2-3.4-13.8-5.1
		C333.4,354,333.4,354,333.9,350.9z"/>
	<path class="st8" d="M408.5,310.4c-0.5,0-1,0-1.5,0.2c-0.6,0.2-1.8,1.2-1.5-0.3c0.6-3-1.4-4.2-3.1-6c-1.3-1.4-2.7-0.6-4.1-0.7
		c-0.3,0-0.8,1-0.8,1.5c-0.6,4.8-3.6,8.5-5.3,12.8c-0.1,0.2-0.7,0.4-0.8,0.3c-0.4-0.2-0.8-0.6-0.8-1c-0.1-2.1-0.3-4.3,1-6.2
		c1.5-2.2,2.2-4.7,1.9-7.4c0-0.4-0.4-1-0.8-1c-0.4-0.1-1.1,0.2-1.3,0.5c-0.7,1.4-1.3,2.9-2,4.3c-0.2,0.4-0.6,0.6-0.9,1
		c-0.4-0.4-1.1-0.9-1-1.3c0.3-1.7,0.3-3.8,1.2-5.1c1.5-2.1-0.9-3.3-0.5-5c-0.4-0.1-1-0.4-1.2-0.3c-0.7,0.4-1.2,1.2-2,1.5
		c-0.4,0.2-1.4-0.2-1.5-0.6c-0.2-0.8-0.1-1.6-0.1-2.5c0-2.6,0-2.6,2.5-1.6c0.9,0.4,1.8,0.8,2.7,0.9c3.1,0.3,5.8,1.4,8.6,2.9
		c3.5,1.9,7.5,2.8,11.3,4.1c0.6,0.2,1.3,0.2,1.8,0.5c0.8,0.6,1.6,1.4,0.6,2.5c-1.3,1.5-2.5,3-2.4,5.1
		C408.5,309.8,408.5,310.1,408.5,310.4z"/>
	<path class="st0" d="M382.5,741.8c-0.3,0.6-0.6,1.7-1,1.8c-1.3,0.2-2.7,0.3-3.9-0.1c-3.2-1.1-6.4-2.4-9.6-3.7
		c-3.7-1.5-4.7-4.7-5.3-8.2c-0.2-1.3,0.2-2.5,1.5-2.8c3.7-0.8,7.4-1.1,11,0c2.3,0.7,3.5,2.8,4.4,4.9c0.5,1.2,0.7,2.5,1.1,3.7
		C381.3,739,381.9,740.4,382.5,741.8z"/>
	<path class="st5" d="M608,311.4c0.3,3.2-0.2,6.4,0.8,9.7c1,3.2,0.8,6.8,1.1,10.2c0.1,1.5,0.5,3.5-0.3,4.3c-1.3,1.4-2.2-1.1-3.7-1.2
		c-1.6-0.1-3.2-0.7-4.8-0.9c-1.5-0.1-2.2-0.7-1.9-2.1c1.9-8.6,3.2-17.4,6.4-25.8c0.1-0.3,0.3-0.6,0.5-0.9c0.4-0.4,0.9-0.7,1.3-1.1
		c0.2,0.4,0.6,0.8,0.6,1.3C608,307.1,608,309.3,608,311.4z"/>
	<path class="st8" d="M543.2,436.4c-0.5-1.4-2.1-2-2.2-4c-0.2-6.3-2.7-12-5.6-17.5c-0.6-1.1-0.9-2.4-1.4-3.6
		c0.3-2.6,2.3-2.8,4.2-3.1c1.8-0.3,2.9,0.3,4,2c2.3,3.6,4.6,7.1,4,11.7c-0.1,0.7,0.3,1.5,0.5,2.3
		C547.7,428.9,547.4,433.2,543.2,436.4z"/>
	<path class="st0" d="M437.1,729.4c2.1,0.4,4.2,1.2,6.2,1.1c3.1-0.3,3.5,2.1,4,3.8c1.4,4.1,0.1,6.7-3.9,7.9c-3,0.9-6.2,2-9.5,0.6
		c-0.6-0.3-1.4-0.9-1.5-1.5c-0.4-3.1-0.6-6.2-0.9-9.3c-0.2-1.5,0.1-2.6,2-2.4c1.1,0.1,2.3,0,3.5,0
		C437,729.6,437.1,729.5,437.1,729.4z"/>
	<path class="st5" d="M455.2,316.4c-8.3-0.1-9.1-1.3-5.6-8.5c0.7-1.5,1.4-3,2.2-4.4c1.2-2,1.9-4.1,1.7-6.5c-0.1-1.1,0.2-2.2,0.5-3.3
		c0.1-0.3,0.5-0.5,0.7-0.7c0.2,0.3,0.4,0.5,0.5,0.9c1.2,3.5,2.6,7,3.6,10.6c0.8,2.8,1.4,5.8,1.7,8.7c0.3,3,0.1,3.1-2.8,3.3
		C456.9,316.4,456.1,316.4,455.2,316.4z"/>
	<path class="st7" d="M356.6,139.8c1.6,0.2,3.8-1.1,4.2,1.8c-0.2,2.1-1.2,3.1-3.4,3.1c-0.6,0-1.2,0.7-1.8,1
		c-2.6,4.5-2.4,5.4,1.7,7.3c4.6,2.2,5.2,3.6,3.3,8.6c-1.5,0-3,0.1-4.4,0c-3.5-0.1-6.7-2.7-7.5-5.9c-1.2-4.8,1.2-11,5.4-14
		C354.8,141.1,355.7,140.4,356.6,139.8z"/>
	<path class="st9" d="M356.6,139.8c-0.9,0.6-1.7,1.3-2.6,1.9c-4.2,3-6.6,9.2-5.4,14c0.8,3.2,4,5.8,7.5,5.9c1.5,0.1,3,0,4.4,0
		c-0.3,0.7-0.4,1.8-0.8,1.9c-0.8,0.3-1.9,0.2-2.9,0.1c-1.6-0.1-2.5,0.3-2.2,2.1c0.2,1.5-0.6,2-1.9,2c0.5-1.4,1.8-2.3-1.2-3.3
		c-5.2-1.8-8.4-9.5-6.7-14.9c1.4-4.6,3.3-9.1,8.1-11.7c1.6-0.9,3-1,4.7-1C357.2,137.8,356.9,138.8,356.6,139.8z"/>
	<path class="st5" d="M278.4,292.6c0.2,0.3,1,0.9,1,1.6c-0.2,3.3-0.6,6.6-0.9,9.8c-0.2,2.7-0.7,3.1-2.8,1.6
		c-3.2-2.3-6.4-4.7-9.5-7.1c-0.1-0.1-0.3-0.2-0.4-0.3c-1.2-1.2-2.5-2.4-3.7-3.6c1.6-0.4,3.2-0.8,4.8-1
		C270.5,293.2,274.1,293,278.4,292.6z"/>
	<path class="st6" d="M707.8,352.4c-1.4-0.3-2.9-0.3-4.2-0.8c-5.7-2.1-11.3-4.6-16.6-7.7c-1-0.6-2.1-1.1-2.8-1.8
		c-0.6-0.6-1.1-1.7-0.9-2.4c0.4-1.2,2-1.9,2.8-1.2c3.3,3,8.2,2.8,11.5,6c1.1,1.1,3.2,1.4,4.8,1.9c0.3,0.1,1-0.2,1.2-0.5
		c0.2-0.3-0.1-1.1-0.3-1.2c-2.2-0.6-2.6-2.2-2.5-4.2c0.7,0.3,1.5,0.4,2,0.9c1.3,1.3,2.3,2.9,3.5,4.3
		C708.2,347.6,707.9,350,707.8,352.4z"/>
	<path class="st6" d="M645,234.6c0.3-1.5-0.9-1.8-1.8-2.5c-0.6-0.4-0.7-1.3-1.1-2c0.6-0.2,1.2-0.5,1.8-0.6c2,0,4,0.1,6,0
		c3.7-0.1,5-1.4,5.1-5c0-1.6,0.2-3.1,0.7-4.8c0.6-1.9-0.1-4.2-0.3-6.3c0-0.5-0.5-0.9-0.4-1.4c0.1-0.9,0.3-1.9,0.9-2.5
		c0.3-0.3,1.6,0.1,2.2,0.5c2.1,1.6,3,5,2.2,7.7c-0.5,1.7-1.3,3.4-1.2,5.1c0.2,3.7-0.1,7-3.8,9c-0.4,0.2-0.1,1.5-0.2,2.3
		c-2,0.4-3.2-1.1-4.7-1.9c-0.8-0.4-1.7-0.8-2.6-0.8c-0.3,0-0.4,1.4-0.8,1.9C646.5,234.1,645.7,234.3,645,234.6z"/>
	<path class="st6" d="M717.8,365.4c-4.3,0.2-8.5-0.1-12.3-2.2c-1.1-0.6-1.8-1.7-2.8-2.4c-1.3-0.9-2.7-1.8-4.1-2.4
		c-2.7-1.3-5.6-2.2-7.2-5c-0.2-0.4-0.5-1.2-0.4-1.3c0.5-0.4,1.1-0.7,1.7-0.7c0.9,0.1,1.8,0.5,2.7,0.9c5.6,2.9,11.2,5.8,16.8,8.7
		c0.4,0.2,1,0.2,1.3,0c0.3-0.2,0.3-0.9,0.2-1.2c-0.5-1.5-1.2-3-1.7-4.5c2-0.5,2,1.4,2.7,2.3C716.2,359.9,718.2,362.2,717.8,365.4z"
		/>
	<path class="st5" d="M261,321.5c3.1-0.4,5.3-0.7,7.6-0.9c2-0.2,4-0.1,5.9-0.4c4-0.5,4.2-0.4,3.9,3.4c-0.2,2.1-0.5,4.2-0.8,6.3
		c-0.2,1.4-0.8,1.6-2,0.9C271.1,327.9,266.4,325,261,321.5z"/>
	<path class="st6" d="M697,337.3c-5.2-0.5-9.5-3.6-14.1-5.6c-2.2-0.9-5.4-0.6-6.2-3.8c-0.1-0.2-0.9-0.4-1.2-0.2
		c-0.9,0.5-1.7,1.2-2.5,0.1c-0.7-1-1.2-2.2-1.8-3.3c0.3-0.2,0.6-0.5,0.9-0.4c4,0.4,7.8,1.4,11.1,3.9c0.6,0.4,1.5,0.4,2.3,0.6
		c2.4,0.8,2.4,0.8,2.6-2c2.7,0.6,4.5,2.7,4.9,5c0.4,2.5,0.9,4,3.6,4.2C696.6,335.6,696.8,336.7,697,337.3z"/>
	<path class="st9" d="M324.7,290.3c-4.8-0.6-9.6-1.1-14.4-1.7c-3.4-0.4-6.8-0.8-10.1-1.2c-0.8-0.1-1.7-0.2-2.3-0.5
		c-0.5-0.3-0.7-1-1-1.6c0.5-0.3,1-0.8,1.5-0.8c4.4,0.4,8.7,0.8,13.1,1.4c3.2,0.4,6.3,1.3,9.5,1.4c1.7,0.1,1.5-1.6,0.8-2.9
		c0.6,0.3,1.6,0.6,1.8,1.1C324.1,287,324.3,288.7,324.7,290.3z"/>
	<path class="st9" d="M332.6,326.4c-6.3,0-12.6,0-18.9-0.1c-1,0-2,0.1-3-0.1c-0.4-0.1-0.9-0.9-0.9-1.4c0-0.5,0.5-1.2,1-1.3
		c0.8-0.2,1.6-0.1,2.5-0.1c6.5,0,12.9,0.1,19.4,0.1C332.6,324.5,332.6,325.5,332.6,326.4z"/>
	<path class="st6" d="M595.8,225.4c0.5,0.3,1.1,0.6,1.2,0.9c0.4,3.7,0.7,7.4,1.1,11.1c0.2,1.8,0.1,3.6,0.7,5.2
		c0.6,1.6-0.4,2.1-1.3,2.7c-0.2,0.1-1-0.8-1.5-1.2c-1.7-1.4-2-3.2-1.9-5.3c0.2-4.1-0.3-8.2,1.1-12.1
		C595.3,226.3,595.5,226,595.8,225.4z"/>
	<path class="st9" d="M326.7,309.2c-4.7-0.3-9.4-0.5-14.1-0.9c-0.4,0-0.9-0.4-1.2-0.8c-0.3-0.3-0.6-0.8-0.6-1.2
		c0-0.3,0.6-0.9,0.9-0.9c4.1,0.2,8.1,0.3,12.2,0.7c2.4,0.3,2.8,0.3,2.8-2.3c0-1.5-0.1-3-0.1-4.4c1.8,0.4,2.3,1.8,2,3.4
		c-0.3,1.6,1.2,3.6-1.3,4.7C326.9,307.7,326.9,308.6,326.7,309.2z"/>
	<path class="st6" d="M713,699.9c-0.6,2.6-2.1,4.1-4.9,3.9c-0.4,0.3-0.8,0.7-1.2,1l0,0c-0.7,0.2-1.8,0.3-2,0.7
		c-1.2,2.4-2,4.9-3.2,7.2c-0.2,0.5-1.2,0.7-1.9,1c-0.1-1.8,0-3.3,1.3-5c2.2-2.9,3.8-6.3,5.8-9.4c1.1-1.7,2.6-3,4.8-2.7
		C712.2,697.7,712.6,698.8,713,699.9z"/>
	<path class="st9" d="M331.6,319.4c-4.5-2.8-9.4-1.9-14.2-2c-1.5,0-3,0-4.4-0.4c-0.5-0.1-0.8-1.2-1.2-1.9c0.6-0.2,1.1-0.7,1.7-0.7
		c3.1,0,6.3,0,9.4,0c1.3,0,2.5,0.4,3.8,0.5c1.2,0.1,1.4-2.3,3-1.3C330.3,315.6,330.3,317.7,331.6,319.4z"/>
	<path class="st5" d="M247.3,293.6c-1.2-0.1-2.6-0.3-4-0.5c0.2-1.2,0.5-2.5,0.7-3.7c0.1-0.3,0-0.7,0.1-1c0.7-3.3,1.1-3.5,3.8-1.5
		c0.4,0.3,0.9,0.5,1.2,0.8c1.5,1.4,3,2.9,4.5,4.4C251.9,294.2,249.5,292.7,247.3,293.6z"/>
	<path class="st9" d="M326.6,299.4c-3.2,0-6.3,0.1-9.5-0.1c-2.3-0.1-4.5-0.6-6.7-0.9c-0.6-0.1-1.1-0.5-1.6-0.8
		c0.4-0.6,0.8-1.4,1.3-1.9c0.3-0.3,1-0.4,1.4-0.2c4.9,1.7,10.1,0.4,15.1,1.3C326.6,297.7,326.6,298.6,326.6,299.4z"/>
	<path class="st9" d="M241.6,280.5c-2.7-2-5.5-3.9-8.1-6c-0.7-0.6-1.3-1.4-1.7-2.3c-0.4-1,0.5-2.1,1.6-1.7c1.2,0.4,2.4,0.9,3.4,1.6
		c1.1,0.7,1.9,1.8,2.9,2.7c2,1.9,2,1.9,4.2-0.4c2.1,1.5,1,2.9-0.5,3.6C242.3,278.7,241.7,279.3,241.6,280.5z"/>
	<path class="st5" d="M238.8,316.7c0,0.3,0-0.3,0.1-1c0.1-1.4,1.2-1.5,2.1-1.2c0.8,0.3,1.4,0.9,2,1.4c1.8,1.5,4.7,1.3,5.7,3.9
		c-2.9,0.5-5.8,1-8.7,1.4c-0.4,0-1.1-0.7-1.2-1.2C238.6,319.4,238.8,318.5,238.8,316.7z"/>
	<path class="st9" d="M238.8,298.4c-3.1,0.1-6.2-0.5-9.2,0.9c-0.5,0.3-1.4,0.2-1.9,0c-0.7-0.4-1.7-1.2-1.6-1.6c0.2-0.8,1-2,1.6-2.1
		c3.4-0.5,6.8-0.7,10.1-1C238.1,295.8,238.5,297.1,238.8,298.4z"/>
	<path class="st6" d="M678,698.8c-0.4,0.8-0.7,2.3-1.2,2.4c-3.8,0.7-5.5,4-7.9,6.2c-2.3,2.1-4.7,3.8-7.9,4.2
		c1.4-1.3,2.8-2.5,4.1-3.9c0.5-0.5,0.7-1.3,1-1.9c2.5,0.1,3.7-2,4.9-3.6C672.7,699.7,675,698.7,678,698.8z"/>
	<path class="st0" d="M333.7,179.8c-0.3-0.3-1-0.7-1-0.9c1.3-3.6,2.3-7.4,5.1-10.3c0.5,0.3,1.4,0.5,1.5,0.9
		C340.2,173.1,337.5,177.8,333.7,179.8z"/>
	<path class="st9" d="M235.7,311.6c-3.1-0.9-4.6-3.6-6.6-5.7c-0.3-0.3-0.3-1.6,0-1.8c0.6-0.4,1.7-0.7,2.2-0.4c1.1,0.6,2,1.7,3,2.6
		c1.5,1.3,2.6,0.3,3.6-0.8c1.5,0.5,1,1.3,0.3,2.2C237.1,308.8,235.5,309.6,235.7,311.6z"/>
	<path class="st9" d="M330.6,335.4c-3.9,0.3-7.7,0.7-11.6,0.8c-1.2,0-3.4,1-3.3-1.6c0.1-2.2,2-1.3,3.1-1.3c4-0.1,7.9,0.1,11.9,0.1
		C330.6,334.2,330.6,334.8,330.6,335.4z"/>
	<path class="st6" d="M606,180.5c0.1-0.5,0.1-1.3,0.3-1.4c3.1-0.8,6.2-1.9,9.5-1.4c0.9,0.1,1.8,0.7,2.6,1.1c0.3,0.2,0.5,0.9,0.4,1.2
		c-0.9,2.3-3.1,2.9-5.8,1.6c0.1-0.3,0.2-0.6,0.4-0.8c0.3-0.3,0.8-0.4,1.2-0.6c-0.3-0.2-0.6-0.6-0.8-0.6c-1.7,0.2-3.4,0.5-5.1,0.7
		C607.8,180.5,606.9,180.5,606,180.5z"/>
	<path class="st6" d="M665.9,204.7c-0.9-0.4-1.8-0.6-2.5-1.2c-1-0.8-1.7-1.4-2.6,0.3c-0.4,0.6-1.9,0.7-2.9,0.9
		c-1.1,0.2-2.2-0.3-1.8-1.5c0.3-0.9,1.8-2.3,1.9-2.3c2.6,1.9,3.7-0.6,5.2-1.7c0.5-0.3,1.2-0.3,1.8-0.5
		C665.3,200.6,665.6,202.6,665.9,204.7z"/>
	<path class="st6" d="M626,337.5c5.5-0.6,10.7,0.9,16,2c0.5,0.1,0.8,1.2,1.2,1.8c-5.2-0.6-10.4-1.3-15.6-1.8
		C626.2,339.3,626,338.5,626,337.5z"/>
	<path class="st9" d="M278.7,144.3c0,2,0,4,0,6c0,0.4-0.3,0.8-0.5,1.2c-0.2-0.4-0.4-0.8-0.7-1.2c-1.9-3.8-0.5-7.8-0.9-11.6
		c0-0.3,0.3-0.6,0.5-0.8c0.3-0.3,0.8-0.5,1.2-0.8c0.1,0.3,0.3,0.6,0.3,0.9C278.8,140,278.7,142.2,278.7,144.3
		C278.7,144.3,278.7,144.3,278.7,144.3z"/>
	<path class="st6" d="M593,186.6c-0.4,3.9-0.7,7.7-1.1,11.6c0,0.2-0.5,0.3-0.8,0.5c-2.1-2-0.8-4.5-0.9-6.8c-0.1-1.5,0.6-3.1,1.1-4.6
		C591.5,186.9,592.4,186.8,593,186.6z"/>
	<path class="st6" d="M664.8,194.7c-1.5,0-3,0.2-4.4-0.2c-0.9-0.2-1.6-1.3-2.4-2c0.7-0.6,1.2-1.6,2-1.9c0.9-0.3,1.9-0.1,2.9-0.1
		C663.3,192.1,665.7,192.7,664.8,194.7z"/>
	<path class="st6" d="M633,342.3c-3.7-0.1-7.5-0.3-11.2-0.4c-0.2-0.4-0.4-0.9-0.5-1.3C625.3,340.6,629.6,338.9,633,342.3z"/>
	<path class="st6" d="M687,693.8c-0.3,0.7-0.4,2-0.9,2.1c-2.7,0.8-5,3-8.1,2.8c0.1-0.6,0.1-1.6,0.4-1.7
		C681.2,695.9,684.1,694.9,687,693.8z"/>
	<path class="st9" d="M360.6,131.7c0-3.3-0.1-6.7-0.1-10c0.6,0.1,1.7,0.3,1.7,0.4c0,2.8,0,5.6-0.2,8.4
		C362,131,361.1,131.4,360.6,131.7z"/>
	<path class="st9" d="M244.7,266.5c-1.2-3-1.2-6.4,0.1-9C246.2,260.3,246.2,264,244.7,266.5z"/>
	<path class="st6" d="M703.9,690.8c-0.5,0.3-0.9,0.9-1.4,0.9c-2.2,0-4.5-0.1-6.7-0.1c0.1-0.5,0.1-1.3,0.3-1.3
		C698.7,689.8,701.4,688.8,703.9,690.8z"/>
	<path class="st9" d="M360.5,121.8c-0.3,0-0.7,0-1,0c-1.7,0-2.9-0.7-2.9-2.5c0-1.7,1.1-2.6,2.9-2.6
		C359.8,118.4,360.2,120.1,360.5,121.8z"/>
	<path class="st9" d="M355.5,145.7c0.6-0.4,1.2-1,1.8-1c2.2,0,3.2-1,3.4-3.1c1.1,0,2.1,0.4,1.7,1.7c-0.3,0.9-1.2,2.1-2,2.3
		C358.9,146,357.2,145.7,355.5,145.7z"/>
	<path class="st6" d="M607.2,181.7c-0.1,0.5-0.1,1.3-0.3,1.4c-1.9,0.6-3.7,2-5.9,1.4c-0.1-2.3,2-2.2,3.3-2.8
		C605.1,181.4,606.2,181.7,607.2,181.7z"/>
	<path class="st6" d="M591.2,202.5c1.3,0,2.6,0.1,3.9,0.1c0,1.7-0.5,3.8-2,3.7C591.8,206.3,591,204.2,591.2,202.5z"/>
	<path class="st9" d="M382.5,741.8c-0.6-1.4-1.2-2.8-1.8-4.2c1.4,0,2.9,0,3.6,1.5C385,740.8,384.4,741.8,382.5,741.8z"/>
	<path class="st6" d="M666.9,348.5c1.6,0,3.1-0.1,4.7-0.1c1.4,0,1.4,1,1.5,1.9c-1.5,0-3,0-4.5,0.1
		C667.2,350.4,666.9,349.6,666.9,348.5z"/>
	<path class="st6" d="M680.9,348.4c2.2-1.5,5.1-0.6,6,1.9C685,349.7,682.7,349.7,680.9,348.4z"/>
	<path class="st6" d="M613.1,335.3c2.2,0.1,4.3,0.4,6,2.1c-0.3,0.3-0.7,0.9-0.9,0.9c-1.4-0.2-2.9-0.5-4.1-1
		C613.5,337.1,613.4,336,613.1,335.3z"/>
	<path class="st9" d="M240.9,288.5c0.2-2.6,0.5-5.3,0.7-7.9c0.4,0.2,1,0.4,1,0.7c0.1,2.1,0.2,4.1,0,6.2
		C242.7,287.8,241.6,288.1,240.9,288.5z"/>
	<path class="st6" d="M597.9,179.5c0.4,0.4,0.8,0.8,1.2,1.2c0.1,2.5-1.7,1.9-3.1,1.8c-0.4,0-0.9-0.9-1-1.4
		C595,178.9,596.8,179.8,597.9,179.5z"/>
	<path class="st6" d="M667,312.3c-2.3,0.3-3.1-1.4-4-3C666.2,309.5,666.3,309.6,667,312.3z"/>
	<path class="st6" d="M651.9,342.5c1.8,0.3,4.1,0,4.1,2.9C654.2,344.9,652.1,345.1,651.9,342.5z"/>
	<path class="st6" d="M595.1,202.6c0.2-3.3,0.3-3.4,3.1-3.9C598.1,200.8,596.8,201.8,595.1,202.6z"/>
	<path class="st6" d="M671,315.4c-2.1,0.1-3-0.9-3-3C670,312.3,671,313.3,671,315.4z"/>
	<path class="st6" d="M678,320.3c-1.4,0-3.3,0.7-3-2C676.4,318.4,678.2,317.8,678,320.3z"/>
	<path class="st6" d="M674.8,350.2c0-2.5,1.8-1.9,3.2-1.7C678,351,676.2,350.3,674.8,350.2z"/>
	<path class="st6" d="M606,194.6c-0.1-2.5,1.7-1.9,3.2-1.8C609.2,195.3,607.4,194.5,606,194.6z"/>
	<path class="st9" d="M359.5,116.7c0.1-1,0.2-2,0.3-3c0.5,0.3,1.1,0.5,1.6,0.8C360.8,115.2,360.1,115.9,359.5,116.7z"/>
	<path class="st9" d="M359.6,136.7c0.4-0.7,0.7-1.4,1.1-2c1.5,0.6,1.2,1.8,0.5,2.6C360.5,138.1,359.8,137.7,359.6,136.7z"/>
	<path class="st6" d="M658.8,234.4c0-2.4,1.7-1.8,3.1-1.9C661.5,234,660.5,234.8,658.8,234.4z"/>
	<path class="st6" d="M687.9,326.4c-1.4-0.1-3.3,0.5-3-2C686.5,324.2,687.5,324.9,687.9,326.4z"/>
	<path class="st6" d="M596.1,184.7c-0.6,1.7-2,0.6-3,0.9C594.6,183.3,594.8,183.2,596.1,184.7z"/>
	<path class="st8" d="M624.2,235.7c-0.5,0.4-0.8,0.6-1.2,0.8c-0.3-0.4-0.6-0.9-0.9-1.3c0.4-0.2,0.8-0.6,1.2-0.6
		C623.6,234.7,623.9,235.2,624.2,235.7z"/>
	<path class="st6" d="M665,221.6c-0.3-0.4-0.7-0.8-1-1.2c0.6-0.3,1.2-0.6,1.8-0.9C665.9,220.3,666.4,221.3,665,221.6z"/>
	<path class="st6" d="M693.9,691.6c-0.2,1.4-1.2,1.1-2.1,1C692.4,690.3,692.4,690.3,693.9,691.6z"/>
	<path class="st6" d="M711.8,694.8c-1.5,0.1-2.2-0.5-2-2C711.4,692.5,712.1,693.2,711.8,694.8z"/>
	<path class="st6" d="M657.9,345.5c1.6-0.4,2.2,0.3,2.1,1.9C658.6,347.6,657.8,347,657.9,345.5z"/>
	<path class="st6" d="M675,318.4c-1.5,0.2-2.2-0.4-2-1.9C674.4,316.2,675.1,316.8,675,318.4z"/>
	<path class="st6" d="M646,341.3c0.4-0.3,0.8-0.6,1.2-0.9c0.3,0.6,0.6,1.2,0.8,1.9C647.2,342.3,646.2,342.7,646,341.3z"/>
	<path class="st9" d="M329.6,311.2c-1.5,0.2-2.2-0.2-1.6-1.8C329.3,309.3,329.8,309.9,329.6,311.2z"/>
	<path class="st6" d="M619.1,341.4c-0.7,0-1.4-0.1-2-0.1c0.3-0.6,0.5-1.8,0.8-1.8C619.3,339.3,619,340.5,619.1,341.4z"/>
	<path class="st6" d="M699.9,339.4c-1.5,0.2-2.2-0.5-2-2C699.4,337.2,700.1,337.8,699.9,339.4z"/>
	<path class="st9" d="M347.6,175.7c-0.2-1.4,0.4-2.1,1.9-2.1C349.8,175.1,349.2,175.8,347.6,175.7z"/>
	<path class="st9" d="M351.5,170.6c0.3-1-0.7-2.5,1.1-2.8C352.3,168.7,353.4,170.2,351.5,170.6z"/>
	<path class="st9" d="M327,296.5c-0.2-0.7-1-1.7,0.6-1.7C328.2,295.6,329.1,296.6,327,296.5z"/>
	<path class="st9" d="M388.5,743.7c1,0,2,0,3,0C390.3,745,389.6,745,388.5,743.7z"/>
	<path class="st9" d="M344.6,179.7c0.6-0.4,1.2-0.9,1.8-1.3C346.6,180,345.4,179.5,344.6,179.7z"/>
	<path class="st9" d="M243.9,272.5c0-0.7,0-1.4,0-2C245.2,271.2,245.2,271.8,243.9,272.5z"/>
	<path class="st7" d="M283.7,315.4c-0.6-0.1-1.2-0.2-1.7-0.3c0.1-0.2,0.3-0.4,0.4-0.6C282.8,314.8,283.3,315.1,283.7,315.4
		L283.7,315.4z"/>
	<path class="st10" d="M397.1,329.7c-0.1-0.4-0.3-0.8-0.4-1.1c0.4,0.1,0.8,0.3,1.2,0.4C397.6,329.2,397.4,329.5,397.1,329.7z"/>
	<path class="st9" d="M332.8,327.4c-0.1-0.3-0.2-0.6-0.2-1c0.3,0.2,0.6,0.4,0.9,0.5C333.2,327.1,333,327.2,332.8,327.4z"/>
	<path class="st9" d="M346.5,177.6c0.3-0.4,0.6-0.8,1-1.1C347.1,176.9,346.8,177.2,346.5,177.6z"/>
	<path class="st5" d="M252.6,436.6c-0.1,0.2-0.2,0.4-0.4,0.6c-0.1-0.1-0.3-0.2-0.3-0.3c0.1-0.2,0.2-0.4,0.3-0.6
		C252.4,436.4,252.5,436.5,252.6,436.6z"/>
	<path class="st9" d="M349.5,173.6c0.3-0.4,0.6-0.7,0.9-1.1C350.1,172.8,349.8,173.2,349.5,173.6z"/>
	<path class="st9" d="M350.6,171.7c0.3-0.4,0.6-0.7,0.9-1.1C351.2,171,350.9,171.3,350.6,171.7z"/>
	<path class="st9" d="M332.7,330.4c0-0.4,0-0.7,0-1.1c0.2,0.1,0.4,0.3,0.7,0.4C333.2,330,332.9,330.2,332.7,330.4z"/>
	<path class="st6" d="M709.9,353.4c-0.4-0.3-0.7-0.6-1.1-0.9C709.1,352.7,709.5,353.1,709.9,353.4z"/>
	<path class="st9" d="M325.6,291.3c-0.3-0.3-0.6-0.6-0.9-0.8C325,290.7,325.3,291,325.6,291.3z"/>
	<path class="st9" d="M239.8,293.5c0.3-0.4,0.6-0.8,0.8-1.2C240.4,292.7,240.1,293.1,239.8,293.5z"/>
	<path class="st6" d="M672,316.3c-0.3-0.3-0.7-0.6-1-0.9C671.3,315.7,671.7,316,672,316.3z"/>
	<path class="st9" d="M331.7,333.4c0.3-0.4,0.6-0.7,0.9-1.1C332.3,332.7,332,333,331.7,333.4z"/>
	<path class="st0" d="M656.8,715.8c0,0.3,0.1,0.6,0.1,0.9c0.4,2.6,0.8,5.2,1.1,7.7c0.2,1.3-0.1,2.1-1.7,2.3
		c-3.2,0.4-6.4,1.1-9.6,1.6c-2.6,0.4-5.2,0.9-7.7-0.6c-2.4-1.4-2.6-2.1-1.2-4.7c2.4-4.6,6.8-6.4,11.1-8.3c1-0.5,2.2-0.6,3.3-1
		C655.5,712.8,655.5,712.8,656.8,715.8z"/>
	<path class="st4" d="M253.3,379.2c7.5,0.5,14.2,2.5,19.7,8c2.7,2.7,5.7,5,8.4,7.7c5.4,5.3,11.3,9.6,18.6,11.8
		c1.1,0.3,3.6,0.6,2.6,2.7c-0.8,1.7-2.5,0.6-3.9,0.2c-6.8-2-12.4-6-17.6-10.7c-3.9-3.5-7.9-7.1-11.7-10.7c-3-2.8-6.7-4.1-10.6-5
		c-2.7-0.6-5.5-0.7-8.3-1.1c-0.6-0.1-1.5-0.8-1.6-1.3c-0.2-1.3,0.8-1.6,1.9-1.6C251.6,379.2,252.5,379.2,253.3,379.2z"/>
	<path class="st4" d="M311.7,88.9c6.9-0.8,12.3,2,16.9,6.5c0.7,0.7,1.4,1.4,1.9,2.3c2.3,3.8,1.2,5.4-3.1,6.2
		c-3.6,0.7-7.3,0.5-10.8,0.6c-3.9,0.1-7.9-1.3-11.8-2.2c-1.9-0.4-3.8-0.8-5.5-1.7c-2.8-1.4-3-4.6-0.6-6.7c1-0.9,2-1.7,3-2.5
		C304.6,88.8,308.2,88.5,311.7,88.9z M319.1,101.3c0-0.2,0.1-0.3,0.1-0.5c2.3,0,4.6,0,7,0c1.3,0,1.7-0.8,1-2c-0.3-0.6-0.6-1.2-1-1.7
		c-5.4-4.7-11.7-6.5-18.8-5.1c-1.5,0.3-3.1,1.2-4.3,2.2c-2.3,1.9-1.9,3.8,1.1,4.4C309.1,99.8,314.1,100.5,319.1,101.3z"/>
	<path class="st9" d="M320.5,117.7c-1.3-0.5-2-1.4-1.9-2.9c0.1-2.1,1.4-3.2,3.5-3c1.5,0.2,2.4,1,2.5,2.5
		C324.7,115.7,322.2,117.8,320.5,117.7z"/>
	<path class="st4" d="M649,214.6c1-0.3,2.1-1,3.1-0.9c1.5,0.1,2.3,1.9,1.2,3.1c-1.1,1.2-1.4,2.5-1.3,4c0.3,2.5-1,3.9-3,5
		c-2.4-2.3-2.1-5.3-2.1-8.1l0,0C648.5,217.1,649.1,216.1,649,214.6z"/>
	<path class="st6" d="M646.9,217.5c0,2.9-0.3,5.9,2.1,8.1c-0.5,0.3-1.2,0.9-1.4,0.8c-2.4-1.6-3.5-6.1-2.1-8.7
		C645.7,217.5,646.4,217.6,646.9,217.5z"/>
	<path class="st6" d="M649,214.6c0.2,1.6-0.5,2.6-2,2.9C647.1,216.1,646.5,214.3,649,214.6z"/>
	<path class="st4" d="M699.9,713.7c0.6-0.3,1.6-0.5,1.9-1c1.1-2.4,2-4.9,3.2-7.2c0.2-0.5,1.3-0.5,2-0.7c-0.7,1.6-1.5,3.2-2.1,4.8
		c-1.1,3.3-2.2,6.7-3.1,10.1c-0.4,1.7-0.7,3.3-3,2.9C698.9,719.6,698.6,716.6,699.9,713.7z"/>
	<path class="st4" d="M707,704.8c0.4-0.3,0.8-0.7,1.2-1C707.7,704.1,707.4,704.5,707,704.8z"/>
	<path class="st0" d="M319.1,101.3c-5-0.8-10-1.5-15-2.6c-3-0.6-3.4-2.5-1.1-4.4c1.2-1,2.8-1.9,4.3-2.2c7-1.4,13.3,0.4,18.8,5.1
		c0.5,0.4,0.7,1.1,1,1.7c0.7,1.2,0.3,1.9-1,2c-2.3,0.1-4.6,0-7,0C319.1,101,319.1,101.2,319.1,101.3z"/>
	<text transform="matrix(2.5166 0 0 1 695.5914 352.4358)" class="st2 st11">.</text>
	<path class="st12" d="M784.4,403.2c13.5-0.3,27-0.5,40.5-0.8"/>
	<text transform="matrix(1.2359 0 0 1 779.2703 405.0902)" class="st2 st11">.</text>
	<path class="st12" d="M707.3,350c28.8-0.9,57.7-1.7,86.5-2.6"/>
	<path class="st12" d="M224,317.3c-21.6,0-43.2,0.1-64.9,0.1"/>
	<text transform="matrix(-1.0209 1.812880e-02 -8.923248e-03 -1 230.0725 314.5488)" class="st2 st13">.</text>
	<path class="st12" d="M333.5,595.8c-18.2,0.1-36.4,0.2-54.5,0.2"/>
	<text transform="matrix(-1.2357 2.194372e-02 -1.775571e-02 -0.9998 338.6102 593.8723)" class="st2 st11">.</text>
	<path class="st12" d="M657.8,200.7c18.2,0.2,36.4,0.5,54.5,0.7"/>
	<text transform="matrix(1.2359 0 0 1 652.6558 202.5515)" class="st2 st11">.</text>
	<path class="st12" d="M292.2,110.8c-18.2,0.1-36.4,0.2-54.5,0.2"/>
	<text transform="matrix(-1.2357 2.194372e-02 -1.775571e-02 -0.9998 297.2997 108.8645)" class="st2 st11">.</text>
	<text transform="matrix(1 0 0 1 717.8619 206.3047)" class="st2 st3">Patada a la cabeza +3 puntos</text>
	<text transform="matrix(1 0 0 1 30.2859 319.7189)" class="st2 st3">Patada al peto +2 puntos</text>
	<text transform="matrix(1 0 0 1 798.1932 349.9651)" class="st2 st3">Patada con giro al peto +4 puntos</text>
	<text transform="matrix(1 0 0 1 46.4208 113.6832)" class="st2 st3">Patada con giro a la cabeza +5 puntos</text>
	<text transform="matrix(1 0 0 1 828.4527 405.4779)" class="st2 st3">Puo al pecho +1 punto</text>
	<text transform="matrix(1 0 0 1 62.2499 590.6677)"><tspan x="0" y="0" class="st2 st3">Si uno de los oponentes comete falta al otro </tspan><tspan x="0" y="14.4" class="st2 st3">se le asigna +1 punto a quin recibi la falta</tspan></text>
	<text transform="matrix(-1.2357 2.194372e-02 -1.775571e-02 -0.9998 405.3329 483.4563)" class="st2 st11">.</text>
	<path class="st12" d="M439.2,483.5c-13.6,0.7-27.2,1.3-40.9,2"/>
	<text transform="matrix(1.2351 -4.388052e-02 3.550581e-02 0.9994 595.8843 487.433)" class="st2 st11">.</text>
	<path class="st12" d="M553.7,487.4c15.3-0.6,30.7-1.2,46-1.8"/>
	<text transform="matrix(1 0 0 1 444.0052 486.5253)"><tspan x="0" y="0" class="st2 st3">Ambos competidores</tspan><tspan x="0" y="14.4" class="st2 st3">deben estar dentro de</tspan><tspan x="0" y="28.8" class="st2 st3">la misma categora de</tspan><tspan x="0" y="43.2" class="st2 st3">pesaje y gnero </tspan><tspan x="0" y="57.6" class="st2 st3">(masculino o  femenino).</tspan></text>
</g>
</svg>
