<?xml version="1.0" encoding="utf-8"?>
<!-- Generator: Adobe Illustrator 27.0.0, SVG Export Plug-In . SVG Version: 6.00 Build 0)  -->
<svg version="1.1" id="Capa_1" xmlns="http://www.w3.org/2000/svg" xmlns:xlink="http://www.w3.org/1999/xlink" x="0px" y="0px"
	 viewBox="0 0 595.3 841.9" style="enable-background:new 0 0 595.3 841.9;" xml:space="preserve">
<style type="text/css">
	.st0{fill:#A3B5D1;stroke:#A3B5D1;stroke-miterlimit:10;}
	.st1{fill:#9DB8E0;stroke:#9DB8E0;stroke-miterlimit:10;}
	.st2{fill:#6D79A9;stroke:#6D79A9;stroke-miterlimit:10;}
	.st3{opacity:0.1;}
	.st4{opacity:0.1;fill:#A01D2D;}
	.st5{fill:#A01D2D;}
	.st6{stroke:#000000;stroke-width:0.75;stroke-miterlimit:10;}
	.st7{font-family:'MyriadPro-Regular';}
	.st8{font-size:31.522px;}
	.st9{font-size:12px;}
</style>
<path class="st0" d="M283.3,357.1c1.9,2.4,9.5,11.9,20.1,11.2c8.2-0.6,13.5-7,16.4-10.4c9.3-11.2,13.1-29.1,6-44
	c-1.9-4-6.8-14.1-17.9-17.2c-7.3-2-16.1-0.7-22.4,4.5c-7.1,5.9-8,14.2-9,23.1C275.7,331.8,274.2,345.8,283.3,357.1z"/>
<path class="st1" d="M445.6,731.1c-0.4-1.8-0.8-3.5-1.1-5c-0.5-1.2-1-2.4-1.5-3.6c5.1-7.1,6.7-14.8,4.2-23.1
	c-0.8-4.9-2-9.7-4.5-14.2c0,0,0,0,0,0c0,0,0,0,0,0c-1.9-7.6-5.2-14.8-8.3-22c0,0,0,0,0,0c-1.6-6.5-5.3-12.5-6-19.2
	c-0.9-1.3-1.7-2.6-2.6-3.9c-0.5-1.7-1-3.4-1.5-5.1c0,0,0,0,0,0c0,0,0,0,0,0c-0.4-1.3-0.9-2.6-1.3-3.9c0,0,0,0,0,0
	c-0.5-1.3-1.1-2.5-1.6-3.8c0-0.4-0.1-0.9-0.1-1.3c-1.3-2.2-2.6-4.4-3.9-6.6c0,0,0,0,0,0c-2.9-11.4-7.1-22.4-11.7-33.3
	c-1.1-5.3-3.6-9.7-8.5-13c0,0,0,0,0,0c-1.5-4.7-6.9-8.5-4.2-14.2c5.1-11.2,3.5-22.4,0.1-33.6c0,0,0,0,0,0
	c-1.9-13.7-3.9-27.4-5.8-41.1c0.3-4.1-0.3-8-2.7-11.6c0,0,0,0,0,0c-0.5-2.1-1.1-4.3-1.6-6.4c0,0,0,0,0,0c0,0,0,0,0,0
	c-1.2-5.6-4.7-10.8-4.2-16.7c0,0,0,0,0,0c2-3,1.6-6.3,0.5-9.4c-3.6-9.8-4.6-20-6.7-30.1c-0.9-4.2,0.4-6.5,3.9-9.3
	c7.6-6,15.6-11.9,19.4-20.9c1.6-4.8,6.3-7.1,10.1-10.2c0,0,0,0,0,0c9.5-9.4,17.4-19.9,24.2-31.1c0.5-0.9,1-1.7,1.5-2.6v0
	c1.4-1.9,1.5-4,1.3-6.2c-1.3-13.1-6.1-24.9-15.5-35.1c-1-3.6-2-7.1-5.9-9.1c-7.3-3.7-11.7-9.8-16.5-15.6c-2-2.4-3.9-4.8-6.4-6.8
	c-8.6-7-17-14.2-25.5-21.3c0-1.2,0-2.5,0-3.7c0.9-0.5,1.7-1.1,2.6-1.6c2.8,0,5.1-1.1,7.4-2.4c0,0,0,0,0,0h0c1.4-1.3,1.1-2.5,0-3.8
	c0,0,0,0,0,0c0,0,0,0,0,0c-3.6-1.7-7.4-3-11.2-3.7h-31.6c-1.4,0-2.6-0.5-3.3-1.3c-3.2-1.6-4.6-6.6-0.5-8.7
	c8.3-4.3,14.4-10.4,16.3-19.8c1.7-8.5,0.2-17.6-1.2-26c-3.5-20.8-19.7-32.8-39.7-36.9c-1.6-0.3-2.6-1.2-3.1-2.2
	c-4.9-0.3-9.8-0.5-14.8-0.7c-0.4,0.7-1.1,1.3-2,1.8c-3.4,1.6-6.8,3.3-10.2,5.3c-0.3,0.3-0.5,0.7-0.8,1c2.9,1.6,4.1,6.5,0.4,8.9
	c-4.8,3.1-8.6,6.7-11,11.9c-1.8,3.9-3.1,8-4.5,12.1c0.1,0.4,0.2,0.9,0.2,1.4c-0.1,10.8-1.6,22.1,1,32.8c1.4,5.9,5.4,10.7,8.8,15.7
	c3.1-1.2,7.1,0.2,6.6,4.4c-0.2,1.7-0.4,3.4-0.6,5.2c0.3-0.2,0.6-0.3,0.9-0.5c0.1-0.1,0.3-0.2,0.4-0.3c4.9-4.1,12,2.9,7.1,7.1
	c-0.1,0.1-0.1,0.1-0.2,0.2c-0.4,0.5-0.8,0.9-1.5,1.3c-0.3,0.2-0.6,0.4-1,0.5c-3.7,2.5-7.7,4.2-12,5.4c-3.2,2.8-7.3,4.4-11.4,5.8
	c-1.4,0.5-2.6,0.3-3.6-0.2c-1.6,0.8-3.2,1.7-4.7,2.7c-0.6,2.6-0.3,5.3,1.1,7.8c0,0,0,0,0,0c-0.4,0.5-0.8,1-1.1,1.4c0,0,0,0,0,0
	c-1.3,0.5-3,0.7-3.8,1.6c-11.3,12.6-27.4,19.3-42,27.9c-1.9,0.8-3.9,1.7-5.8,2.5c-0.9,0.1-1.8,0.1-2.7,0.2c-2.6,0.5-5.5,0-7.2,2.5
	c0,0,0,0,0,0c0,0,0,0,0,0c0,0,0,0,0,0c0,0,0,0,0,0c-8-0.8-14.5,2.4-19.8,7.2c-6.1,5.4-11.6,11.3-17.4,17c0.7,0,1.4,0,2.2,0
	c-1.7,0.3-3.4,0.9-5,1.7c4.9,4.1,10.4,7.3,16.4,9.9c10.5,4.7,16.4,6.8,29.5,12.3c5.1,2.1,12.6,5.4,21.5,9.8
	c13.6,4.5,19.8,3.4,22.6,0.3c5.6-6.1-0.2-22.1-0.2-22.1c0,0,0.9,1.2,0.5,3.6c-1.5,9.7-2,19.6-4.2,29.2c-3.3,14.5,0.9,27.5,6.9,40.5
	c-2.6,7.4-5,14.8-8.9,21.7c-0.8,0.5-0.8,1.1-0.1,1.8c-9.8,26.3-19,52.8-22.1,80.6c-0.5,4.8,0.5,8.5,5.6,12.4
	c7-23.1,12.9-45.8,25.4-66.3h0l0,0c1.4,0.1,2.8,0.2,4.2,0.2l0,0c0.9,2.9,0.6,5.9,0.2,8.9c-0.6,1.5-0.8,3-0.9,4.5
	c-2.1,10.2-4.2,20.3-5.4,30.7c-2.5,21.7-4.3,43.4-3.6,65.2c0,5.2-0.1,10.3-0.1,15.5l0,0c-2.3,14.1-4.2,28.2-4.4,42.5
	c-0.4,0-0.8,0-1.1,0c0,4.7,0,9.4,0,14.1c0,1.4,0,2.8,0,4.3c-0.3,0.7-0.6,1.5-0.9,2.2c0,1.7-0.5,3.4-0.4,5.1c0,0.3,0,0.6,0,0.8
	c-0.1-0.7-0.3-1.4-0.5-2c-1.3,2.5-1.2,5.2-1.2,7.9c0.9,0.7,1.8,1.3,2.8,1.8c5.7,2.7,1,11-4.6,8.8c-1.7,3.4-4.8,5.4-10.3,7
	c-5.5,4.7-12.3,7.5-19.1,10.1c-1.6,1.4-3.1,2.8-4.5,4.3l0,0h0c-0.4,0.5-0.9,1-1.3,1.5h0c-2.3,3.5-8.1,6.9-0.3,10.6
	c3.5,2,6.9,0.7,10.3-0.5c11-1.6,21.6-4.4,33.2-2.8c0.8,0.1,1.7,0.2,2.5,0.3c4.7-0.6,9.4-0.9,14.1-0.8c0,0,0.1,0,0.1,0
	c5.1-1.5,10.8-2.5,15.9-4.5c0.5-0.8,0.9-1.6,1.2-2.4c0.1-0.9,0.1-1.9,0.1-2.8c-0.7-2.3-1.4-4.7-1.9-7.1c-0.3-0.5-0.6-1-0.9-1.5
	c-0.1-1.8-0.1-3.5-0.2-5.3c0-1.7,0-3.4,0-5.1c0,0,0,0,0.1,0c2.4,0,5,0.7,7.1-1.1c0,0,0,0,0,0c2-6.8,2.2-13.8,3-20.8
	c-0.2,0.9-0.6,1.6-0.9,2.3c0.2-0.8,0.4-1.6,0.9-2.3c-0.5-1.7-0.9-3.4-1.4-5.2c0,0,0,0,0,0c-0.9-5-2.2-10,0.8-14.9
	c5.8-9.4,7.7-19.9,10.7-30.2c5.6-10.6,6.5-22.6,11.5-33.3c0,0,0,0,0,0c4.4-4,6.2-9.1,7-14.4c1.7-11,2.8-22.1,4.5-33.1
	c0.8-4.9,0.2-10.2,4.2-14.8c4.1,4.2,3.2,9.3,5.2,13.5v0c1.6,6.2,3.1,12.5,4.8,18.7c3.9,14.4,6.2,29.1,11.1,43.3
	c0.1,0.3,0.2,0.6,0.3,0.9c1,5.4,2.2,10.9,3.1,16.3c2.3,14.1,5.4,28,9.8,41.7c0,0,0,0,0,0c1.1,6.8,3.7,13.2,7.2,19.3
	c0.7,2.5,2.2,4.6,4.1,6.5c0,0,0,0,0,0l0,0c4.3,7.3,8.7,14.5,13,21.8c3.2,8.3,6.5,16.5,9.7,24.8c1.1,4.4,2.4,8.7,3.3,13.1
	c0.9,4.8,3.4,6.8,8.8,5c1.8-0.6,3.6-1,5.4-1.5c0,0,0,0,0,0c0.9,0.4,1.9,0.7,2.8,1.1c0,0,0,0,0,0c2.5,0.7,6-0.5,7.2,2.8
	c-0.2,3-0.4,6.1,1.2,8.9c-0.2,1.9,0,3.7,1.7,5.1c2.2,3.4,5.2,5.6,9.8,5.2c1-0.5,1.9-0.9,2.9-1.4c0.9,0.1,1.9,0.2,2.8,0.4
	c3.3,2.3,4.5-2,7.1-1.9l0,0h0c5.8,2.3,9.8-1.7,14.5-3.5c0,0,0,0,0,0c0,0,0,0,0,0c0.8-1.4,1.5-2.7,2.3-4.1c0.1-0.8,0.2-1.5,0.3-2.3
	C445.7,733.2,445.7,732.2,445.6,731.1z M387.7,303.8c0,0.1,0,0.2,0.1,0.3c-0.2,0-0.3,0-0.5,0C387.4,303.9,387.5,303.9,387.7,303.8z
	 M225.8,671.1c-0.1-0.4-0.2-0.8-0.3-1.2c0.6,0,1.2,0,1.8-0.1c0.5,0.4,0.9,0.8,1.4,1.2C227.7,671.1,226.7,671.1,225.8,671.1z
	 M291.6,484.3c-0.3-0.1-0.5-0.2-0.7-0.3c0.3-0.4,0.5-0.8,0.7-1.1c0.1,0.2,0.2,0.5,0.2,0.7C291.7,483.9,291.6,484.1,291.6,484.3z"/>
<path class="st2" d="M239.8,394.5C239.8,394.5,239.8,394.5,239.8,394.5c0,0.1,0,0.2,0,0.3C239.7,394.7,239.7,394.6,239.8,394.5z"/>
<path class="st2" d="M340.1,387.8C340.1,387.8,340.1,387.8,340.1,387.8C340.1,387.8,340.1,387.8,340.1,387.8
	C340.1,387.8,340.1,387.8,340.1,387.8z"/>
<path class="st3" d="M330.8,522.4c-1.4-11.2-2.6-22.5-3.9-33.7c-6.1-25.8-13.1-51.5-15.1-78.1c-1-4-1.9-7.5-2.7-11
	c-3.6,1.9-7.3,3.7-11.1,5.1c-19,7.3-40.9,5-60.8,5c-0.6,0-1.1-0.1-1.6-0.2c-0.9,0.7-1.6,1.4-2,2.2c-1.2,2.5-2.3,4.9-3.4,7.4
	c0,0,0,0.1,0,0.1c-1.3,3.8-2.7,7.6-4.2,11.4c-0.1,0.3-0.2,0.6-0.3,0.8c-0.5,1.7-1,3.1-1.8,4.2c-0.7,1.6-1.4,3.3-2.1,4.9
	c-0.7,2.3-1.2,4-1.8,5.7c-9.3,26.2-17.5,52.6-20.5,80.2c-0.6,5.1,0.4,9.1,5.3,12.9c0.9-2.6,1.5-4.5,2.1-6.4
	c6.9-19.4,13.5-38.9,20.9-58.1c0.4-1.2,1.2-2.2,2.1-3.2c2.4-6.7,5.6-13.1,8.4-19.7c2.7-6.1,4.2-12.4,5.8-18.8
	c1.5-6.2,4-11.9,8.1-15.5c0.2-0.6,0.6-1.2,1.1-1.7c0,0,0.8-0.8,2.1-1.2c1.7-0.5,7.8-1.4,16.3-2.1c1.7-0.6,4-0.7,6.8-1.2
	c1.1-0.2,2.2-0.1,3.2,0.3c1.7-1,3.5-2,5.4-3.1c0.1,2.8,0.3,5.4,0.4,8c0.2,0.4,0.4,0.8,0.6,1.4c2.3,8.3,4.1,16.6,5.6,25.1
	c0.7,0.6,1.2,1.4,1.3,2c3.3,18.6,6.4,37.1,9.4,55.8c1.6,10.3,3,20.7,4.5,31.8c5.2-0.4,10-1.2,14.7-1
	C331.6,532,331.4,527.6,330.8,522.4z"/>
<path class="st4" d="M383.8,337.6c-1-2.4-2.2-4.8-3.4-7.1c-4-4.5-8-9-10.9-14.3c-2.9-5.4-4.3-11.3-5-17.3c-2.6-5.6-2.5-12,0.5-19.4
	h-34.5c-5.3-3.5,7.8-12.5-3.8-14.6c10.3-16.1,29.5-20.9,46.9-30.3c0.5-1.1,0.9-2.3,1.3-3.5c-22.3,3.9-44.5,3.5-56.9,23.2
	c-25.1-6.1-46.1,5.5-68.4,10.7c-0.9-3.2-2-6.6-3.1-10.6c-2.1,11.8-3.6,22.5-6.3,33.1c0,0.1-0.1,0.2-0.1,0.2c0.6,1.5,0.3,3.3-1.4,4.7
	c-3.1,2.5-4.7,6.3-5.6,10.5c0,1.2-0.2,2.2-0.5,3c-0.3,2.5-0.4,5.2-0.4,7.7c0.4,3.8,0.8,7.1,1.2,10.3c0.6,1.1,0.8,2.5,0.6,3.9
	c0,0.3-0.1,0.5-0.1,0.8c0,0.2,0,0.3,0.1,0.5c0,0-0.1,0-0.1,0c-0.3,2.9-0.3,5.7-0.3,8.6c0,1.3-0.4,2.3-1,3c-0.2,4-0.6,7.9-1.7,11.6
	c-0.4,3.4-0.6,6.7-0.6,10.1c-0.1,14.5-8.2,28.7-1.9,43.4c0.2,0.4,0.2,1,0.2,1.5c3.5,2.9,7.8,3.8,12.4,3.9c0.2,0,0.3,0,0.5,0
	c21.8,0.3,45.4,2.3,65.7-5.8c12.9-5.1,24.3-12.5,36.9-17.8c0.1,0,0.1-0.1,0.2-0.1c9.6-4.6,19.1-9.6,29.4-12.6
	c10.9-3.2,13.7-10.4,14.2-18.5C388.1,350.2,386.1,343.6,383.8,337.6z"/>
<path class="st5" d="M327,223.6c3.4-2.4,6-5.3,9.5-7.3c5.9-8.1,11.4-16.4,9-27.5c-2.3-10.4-1.7-22.1-6.6-31.1
	c-6.9-12.8-17.8-23.4-34.8-24.9c-4.3-0.4-8.8-0.2-12.9-1.2c-14.8-3.6-24.3,3.7-30.5,14.6c-12.3,21.5-16.7,43.9-3.2,66.8
	c2.2,3.8,2.8,8.6,5.5,11.9c1.5,1.7,2.7,3.5,3.5,5.3c1.1,1.5,2.3,2.9,3.4,4.4c4.5,0.8,8.8,1.6,13.3,2.5c3.3-0.3,6.6-0.3,9.9,0
	c0,0,0,0,0-0.1c4.8-1.2,9.8-2.4,14.8-3.6c5.5-2.1,11-4.2,16.6-5.9C324.8,225.9,325.7,224.6,327,223.6z M309.8,219.8
	c-1.7,7-18.6,13.1-24.9,8c-13.5-10.9-22.4-24.3-21.4-42c0.1-1.8,1.8-4.8,3.3-5.2c12.5-3.1,25.1-5.7,36-8.1
	c11.7,0.1,17.7,8.4,15,17.6C314.8,200,312.2,209.9,309.8,219.8z"/>
<path class="st5" d="M262.6,692.2c0.3-1.5,0.3-3.1,0.3-4.7c-1-3.4-2.1-6.8-2.4-10.3c-4.4-0.3-8.8-0.6-13.8-1
	c0.2,2.6,0.4,5.8,0.6,9.1c9.5-2.4,5.9,4.8,7.4,9h-11.3v-30.9c4.5,1.1,8.1,1.9,11.7,3c1.7,0.5,3.1,1.8,4.7,2.7
	c0.8-1.9,1.6-3.9,2.6-6.5c-11-1.4-21.3-6.2-32.1-2.8c-1.6,1.7-3.3,3.3-5.5,4c-0.3,0.1-0.6,0.2-0.9,0.2c-0.9,2.2-2.8,4.4-4.6,5.5
	c-9.5,6-19.4,11.2-29.8,17.1c4.2,1.8,7.8,3.3,12.9,5.4c-7.2-0.7-12.9-1.2-18.6-1.7c0,0.7,0,1.5-0.1,2.2c1.6,0.7,3.2,1.5,5.8,2.6
	c-2.1,1-3.1,1.5-4.2,2.1c-0.9,0.6-1.8,1.3-2.7,1.9l0.2,2.3c2.8,0.2,5.7,0.9,8.5,0.5c9.5-1.5,18.9-4.1,28.4-4.8
	c9.1-0.6,18.5,2,27.5,0.8c6.9-0.9,11.4-1.7,14.2-3.3C262.1,694.1,262.4,693.2,262.6,692.2z"/>
<path class="st5" d="M446.6,736.1c-0.9-1.1-1.9-2.2-2.6-3.4c-6.1,4.5-25.4,5.6-29.1,3.4c-4,1.3-7.3,2.3-11.3,3.6v-8.3h42.1
	c-0.6-2.5-1.2-4.8-1.5-6.7c-0.1-0.4-0.1-0.8,0-1.2c-2.2-2.3-5.6-3-10.1-2.5c-8.1,1-16.2,2.2-24,4.1c-3.4,0.8-8.6,3.1-8.8,5.1
	c-0.6,4.9-0.1,10.6,2.5,14.9c2.3,3.8,7.2,6.9,14.4,4.8c4.6-1.4,10.5,0.1,15.2-1.1c4.1-1.1,9.2-1.7,12.3-4.2
	C447,742.2,447,739.2,446.6,736.1z"/>
<path class="st5" d="M280.4,217.5c0.6-4.2,15.1-10.9,22.8-9.1c3,0.7,5.2,2.8,4.4,5.2c-1.3,4.2-11.5,8.4-19,8.1
	C284.8,221.5,280.1,220,280.4,217.5z"/>
<line class="st6" x1="302.7" y1="213.4" x2="375.1" y2="211.4"/>
<line class="st6" x1="383.5" y1="626.9" x2="464" y2="624.9"/>
<path class="st5" d="M264.6,439.1c9.3,10.7,20.4,23.6,34.7,23.2c9-0.3,16.3-7.4,30.7-21.6c13.8-13.7,28.5-28.3,25.2-34.3
	c-3-5.4-18,3.7-53.6,8.4c-27.2,3.6-43.4,1.6-45.8,8.9C254.6,427.6,258.3,431.9,264.6,439.1z"/>
<path class="st5" d="M357,584.6c5.8-9,20.2-13.1,30.4-9.2c12.8,4.9,12.4,20,24.4,55.5c15.4,45.5,29.2,59.6,21.1,70
	c-6.2,8.1-21.9,9.1-32.4,4c-13.4-6.6-12.2-20.2-25.1-56.8C361.2,607.5,349.7,596,357,584.6z"/>
<path class="st5" d="M240.5,571.7c6-2.8,16.2-0.2,21.6,5.1c6.8,6.6,2.6,14.3,0.8,36.3c-2.3,28.2,2.7,39.9-5.1,42.7
	c-6.1,2.1-16.2-2.5-21.4-8.5c-6.7-7.7-2.4-14.3-0.9-37.2C237.1,584.8,232.9,575.1,240.5,571.7z"/>
<path class="st5" d="M405.9,335.1c4.8,1.5,9.2,8.2,9.6,14c0.5,7.2-5.7,9.4-17.7,21c-15.4,14.8-18.4,24-24.2,21.5
	c-4.5-1.9-7.9-9.7-7.9-15.8c0.1-7.8,5.8-9.3,18.1-21.5C397.4,340.8,399.9,333.2,405.9,335.1z"/>
<path class="st5" d="M158.4,323.7c-0.4-5,4.1-11.7,9.2-14.3c6.5-3.2,10.9,1.6,26.1,8.3c19.6,8.5,29.2,7.8,29.2,14
	c0,4.9-5.9,11.1-11.6,13.3c-7.2,2.9-10.8-1.8-26.8-8.4C166.8,329.3,158.9,330,158.4,323.7z"/>
<text transform="matrix(1.0749 0 0 1 404.9933 628.2583)" class="st7 st8">.</text>
<text transform="matrix(1.0749 0 0 1 325.3246 431.5698)" class="st7 st8">.</text>
<line class="st6" x1="329.5" y1="429.9" x2="413.3" y2="427.9"/>
<line class="st6" x1="390.6" y1="369.3" x2="446.1" y2="367.1"/>
<text transform="matrix(1.0749 0 0 1 387.4947 371.2518)" class="st7 st8">.</text>
<text transform="matrix(1.0749 0 0 1 299.9839 214.9152)" class="st7 st8">.</text>
<text transform="matrix(1 0 0 1 376.4092 214.915)" class="st7 st9">Bucal</text>
<text transform="matrix(1 0 0 1 446.128 371.252)" class="st7 st9">Antebrazos</text>
<text transform="matrix(1 0 0 1 417.1667 431.5693)" class="st7 st9">Inguinal</text>
<text transform="matrix(1 0 0 1 466.6238 628.6048)" class="st7 st9">Canilleras</text>
</svg>
