<?xml version="1.0" encoding="utf-8"?>
<!-- Generator: Adobe Illustrator 27.0.0, SVG Export Plug-In . SVG Version: 6.00 Build 0)  -->
<svg version="1.1" xmlns="http://www.w3.org/2000/svg" xmlns:xlink="http://www.w3.org/1999/xlink" x="0px" y="0px"
	 viewBox="0 0 717.3 703.5" style="enable-background:new 0 0 717.3 703.5;" xml:space="preserve">
<style type="text/css">
	.st0{fill:#A3B5D1;stroke:#A3B5D1;stroke-miterlimit:10;}
	.st1{fill:#9DB8E0;stroke:#9DB8E0;stroke-miterlimit:10;}
	.st2{fill:#6D79A9;stroke:#6D79A9;stroke-miterlimit:10;}
	.st3{fill:#A01D2D;}
	.st4{stroke:#000000;stroke-width:0.75;stroke-miterlimit:10;}
	.st5{fill:none;}
	.st6{fill:#1F2142;}
	.st7{font-family:'MyriadPro-Regular';}
	.st8{font-size:12px;}
	.st9{font-size:31.522px;}
	.st10{fill:#BC7984;}
	.st11{fill:#F7F5F5;stroke:#000000;stroke-width:2;stroke-miterlimit:10;}
	.st12{fill:none;stroke:#000000;stroke-width:2;stroke-miterlimit:10;}
	.st13{fill:#1C1E15;}
</style>
<g id="Capa_3">
</g>
<g id="Capa_2">
	<path class="st0" d="M283.3,265.9c1.9,2.4,9.5,11.9,20.1,11.2c8.2-0.6,13.5-7,16.4-10.4c9.3-11.2,13.1-29.1,6-44
		c-1.9-4-6.8-14.1-17.9-17.2c-7.3-2-16.1-0.7-22.4,4.5c-7.1,5.9-8,14.2-9,23.1C275.7,240.6,274.2,254.6,283.3,265.9z"/>
	<path class="st1" d="M443,631.4c5.1-7.1,6.7-14.8,4.2-23.1c-0.8-4.9-2-9.7-4.5-14.2c0,0,0,0,0,0c0,0,0,0,0,0
		c-1.9-7.6-5.2-14.8-8.3-22c0,0,0,0,0,0c-1.6-6.5-5.3-12.5-6-19.2c-0.9-1.3-1.7-2.6-2.6-3.9c-0.5-1.7-1-3.4-1.5-5.1c0,0,0,0,0,0
		c0,0,0,0,0,0c-0.4-1.3-0.9-2.6-1.3-3.9c0,0,0,0,0,0c-0.5-1.3-1.1-2.5-1.6-3.8c0-0.4-0.1-0.9-0.1-1.3c-1.3-2.2-2.6-4.4-3.9-6.6
		c0,0,0,0,0,0c-2.9-11.4-7.1-22.4-11.7-33.3c-1.1-5.3-3.6-9.7-8.5-13c0,0,0,0,0,0c-1.5-4.7-6.9-8.5-4.2-14.2
		c5.1-11.2,3.5-22.4,0.1-33.6c0,0,0,0,0,0c-1.9-13.7-3.9-27.4-5.8-41.1c0.3-4.1-0.3-8-2.7-11.6c0,0,0,0,0,0
		c-0.5-2.1-1.1-4.3-1.6-6.4c0,0,0,0,0,0c0,0,0,0,0,0c-1.2-5.6-4.7-10.8-4.2-16.7c0,0,0,0,0,0c2-3,1.6-6.3,0.5-9.4
		c-3.6-9.8-4.6-20-6.7-30.1c-0.9-4.2,0.4-6.5,3.9-9.3c7.6-6,15.6-11.9,19.4-20.9c1.6-4.8,6.3-7.1,10.1-10.2c0,0,0,0,0,0
		c9.5-9.4,17.4-19.9,24.2-31.1c0.5-0.9,1-1.7,1.5-2.6v0c1.4-1.9,1.5-4,1.3-6.2c-1.3-13.1-6.1-24.9-15.5-35.1c-1-3.6-2-7.1-5.9-9.1
		c-7.3-3.7-11.7-9.8-16.5-15.6c-2-2.4-3.9-4.8-6.4-6.8c-8.6-7-17-14.2-25.5-21.3c0-1.2,0-2.5,0-3.7c0.9-0.5,1.7-1.1,2.6-1.6
		c2.8,0,5.1-1.1,7.4-2.4c0,0,0,0,0,0h0c1.4-1.3,1.1-2.5,0-3.8c0,0,0,0,0,0c0,0,0,0,0,0c-3.6-1.7-7.4-3-11.2-3.7h-31.6
		c-1.4,0-2.6-0.5-3.3-1.3c-3.2-1.6-4.6-6.6-0.5-8.7c8.3-4.3,14.4-10.4,16.3-19.8c1.7-8.5,0.2-17.6-1.2-26
		c-3.5-20.8-19.7-32.8-39.7-36.9c-1.6-0.3-2.6-1.2-3.1-2.2c-4.9-0.3-9.8-0.5-14.8-0.7c-0.4,0.7-1.1,1.3-2,1.8
		c-3.4,1.6-6.8,3.3-10.2,5.3c-0.3,0.3-0.5,0.7-0.8,1c2.9,1.6,4.1,6.5,0.4,8.9c-4.8,3.1-8.6,6.7-11,11.9c-1.8,3.9-3.1,8-4.5,12.1
		c0.1,0.4,0.2,0.9,0.2,1.4c-0.1,10.8-1.6,22.1,1,32.8c1.4,5.9,5.4,10.7,8.8,15.7c3.1-1.2,7.1,0.2,6.6,4.4c-0.2,1.7-0.4,3.4-0.6,5.2
		c0.3-0.2,0.6-0.3,0.9-0.5c0.1-0.1,0.3-0.2,0.4-0.3c4.9-4.1,12,2.9,7.1,7.1c-0.1,0.1-0.1,0.1-0.2,0.2c-0.4,0.5-0.8,0.9-1.5,1.3
		c-0.3,0.2-0.6,0.4-1,0.5c-3.7,2.5-7.7,4.2-12,5.4c-3.2,2.8-7.3,4.4-11.4,5.8c-1.4,0.5-2.6,0.3-3.6-0.2c-1.6,0.8-3.2,1.7-4.7,2.7
		c-0.6,2.6-0.3,5.3,1.1,7.8c0,0,0,0,0,0c-0.4,0.5-0.8,1-1.1,1.4c0,0,0,0,0,0c-1.3,0.5-3,0.7-3.8,1.6c-11.3,12.6-27.4,19.3-42,27.9
		c-1.9,0.8-3.9,1.7-5.8,2.5c-0.9,0.1-1.8,0.1-2.7,0.2c-2.6,0.5-5.5,0-7.2,2.5c0,0,0,0,0,0c0,0,0,0,0,0c0,0,0,0,0,0c0,0,0,0,0,0
		c-8-0.8-14.5,2.4-19.8,7.2c-6.1,5.4-11.6,11.3-17.4,17c0.7,0,1.4,0,2.2,0c-1.7,0.3-3.4,0.9-5,1.7c4.9,4.1,10.4,7.3,16.4,9.9
		c9.7,4.3,20.1,7.1,29.5,12.3c6.7,3.7,15.9,6.1,24.1,0.8c0,0,0,0,0,0c1-0.4,1.9-0.8,2.9-1.3c5.4-2,9.3-5.4,11.5-10.3c0,0,0,0,0,0
		c0,0,0,0,0,0c0.5-0.4,1-0.8,1.4-1.3c3.7-1,5.1-0.2,4.5,3.7c-1.5,9.7-2,19.6-4.2,29.2c-3.3,14.5,0.9,27.5,6.9,40.5
		c-2.6,7.4-5,14.8-8.9,21.7c-0.8,0.5-0.8,1.1-0.1,1.8c-9.8,26.3-19,52.8-22.1,80.6c-0.5,4.8,0.5,8.5,5.6,12.4
		c7-23.1,12.9-45.8,25.4-66.3h0l0,0c1.4,0.1,2.8,0.2,4.2,0.2l0,0c0.9,2.9,0.6,5.9,0.2,8.9c-0.6,1.5-0.8,3-0.9,4.5
		c-2.1,10.2-4.2,20.3-5.4,30.7c-2.5,21.7-4.3,43.4-3.6,65.2c0,5.2-0.1,10.3-0.1,15.5l0,0c-2.3,14.1-4.2,28.2-4.4,42.5
		c-0.4,0-0.8,0-1.1,0c0,4.7,0,9.4,0,14.1c0,1.4,0,2.8,0,4.3c-0.3,0.7-0.6,1.5-0.9,2.2c0,1.7-0.5,3.4-0.4,5.1c0,0.3,0,0.6,0,0.8
		c-0.1-0.7-0.3-1.4-0.5-2c-1.3,2.5-1.2,5.2-1.2,7.9c0.9,0.7,1.8,1.3,2.8,1.8c4.4,2.1,2.5,7.7-1.2,8.9c0,0.3,0,0.6,0,0.9
		c0,2.8-2.3,4.9-5,5c-1.1,0-2.4-0.5-3.2-1.2c-0.2,0.1-0.4,0.2-0.5,0.3c0.9,2.9-0.7,6.6-4.6,6.6c-1.9,0-3.2-0.8-4-2
		c-2.4,1.6-4.9,2.9-7.5,4.1c0.1,0.4,0.2,0.9,0.2,1.3c0.1,2.7-2.4,5-5,5c-1.8,0-3.5,0.4-5.3,0.4c-0.5,0-0.9-0.1-1.4-0.2
		c-0.3,0.3-0.7,0.6-1,1l0,0h0c-0.4,0.5-0.9,1-1.3,1.5h0c-2.3,3.5-8.1,6.9-0.3,10.6c3.5,2,6.9,0.7,10.3-0.5c11-1.6,21.6-4.4,33.2-2.8
		c0.8,0.1,1.7,0.2,2.5,0.3c4.7-0.6,9.4-0.9,14.1-0.8c0,0,0.1,0,0.1,0c5.1-1.5,10.8-2.5,15.9-4.5c0.5-0.8,0.9-1.6,1.2-2.4
		c0.1-0.9,0.1-1.9,0.1-2.8c-0.7-2.3-1.4-4.7-1.9-7.1c-0.3-0.5-0.6-1-0.9-1.5c-0.1-1.8-0.1-3.5-0.2-5.3c0-1.7,0-3.4,0-5.1
		c0,0,0,0,0.1,0c2.4,0,5,0.7,7.1-1.1c0,0,0,0,0,0c2-6.8,2.2-13.8,3-20.8c-0.2,0.9-0.6,1.6-0.9,2.3c0.2-0.8,0.4-1.6,0.9-2.3
		c-0.5-1.7-0.9-3.4-1.4-5.2c0,0,0,0,0,0c-0.9-5-2.2-10,0.8-14.9c5.8-9.4,7.7-19.9,10.7-30.2c5.6-10.6,6.5-22.6,11.5-33.3
		c0,0,0,0,0,0c4.4-4,6.2-9.1,7-14.4c1.7-11,2.8-22.1,4.5-33.1c0.8-4.9,0.2-10.2,4.2-14.8c4.1,4.2,3.2,9.3,5.2,13.5v0
		c1.6,6.2,3.1,12.5,4.8,18.7c3.9,14.4,6.2,29.1,11.1,43.3c0.1,0.3,0.2,0.6,0.3,0.9c1,5.4,2.2,10.9,3.1,16.3
		c2.3,14.1,5.4,28,9.8,41.7c0,0,0,0,0,0c1.1,6.8,3.7,13.2,7.2,19.3c0.7,2.5,2.2,4.6,4.1,6.5c0,0,0,0,0,0l0,0
		c4.3,7.3,8.7,14.5,13,21.8c3.2,8.3,6.5,16.5,9.7,24.8c1.1,4.4,2.4,8.7,3.3,13.1c0.9,4.8,3.4,6.8,8.8,5c1.8-0.6,3.6-1,5.4-1.5
		c0,0,0,0,0,0c0.9,0.4,1.9,0.7,2.8,1.1c0,0,0,0,0,0c2.5,0.7,6-0.5,7.2,2.8c-0.2,3-0.4,6.1,1.2,8.9c-0.2,1.9,0,3.7,1.7,5.1
		c2.2,3.4,5.2,5.6,9.8,5.2c1-0.5,1.9-0.9,2.9-1.4c0.9,0.1,1.9,0.2,2.8,0.4c3.3,2.3,4.5-2,7.1-1.9l0,0h0c5.8,2.3,9.8-1.7,14.5-3.5
		c0,0,0,0,0,0c0,0,0,0,0,0c0.2-0.3,0.3-0.6,0.5-0.9c-0.1-0.4-0.2-0.7-0.2-1.1c-0.4-3.4-0.4-6.7-0.4-10.1c0-1.4,0.5-2.5,1.2-3.3
		C443.8,633.2,443.4,632.3,443,631.4z M387.7,212.6c0,0.1,0,0.2,0.1,0.3c-0.2,0-0.3,0-0.5,0C387.4,212.8,387.5,212.7,387.7,212.6z
		 M225.8,579.9c-0.1-0.4-0.2-0.8-0.3-1.2c0.6,0,1.2,0,1.8-0.1c0.5,0.4,0.9,0.8,1.4,1.2C227.7,579.9,226.7,579.9,225.8,579.9z
		 M291.6,393.1c-0.3-0.1-0.5-0.2-0.7-0.3c0.3-0.4,0.5-0.8,0.7-1.1c0.1,0.2,0.2,0.5,0.2,0.7C291.7,392.7,291.6,392.9,291.6,393.1z"/>
	<path class="st2" d="M239.8,303.4C239.8,303.3,239.8,303.3,239.8,303.4c0,0.1,0,0.2,0,0.3C239.7,303.5,239.7,303.4,239.8,303.4z"/>
	<path class="st2" d="M340.1,296.6C340.1,296.6,340.1,296.6,340.1,296.6C340.1,296.6,340.1,296.6,340.1,296.6
		C340.1,296.6,340.1,296.6,340.1,296.6z"/>
	<path class="st1" d="M447.8,608.3c-0.8-4.9-2-9.7-4.5-14.2c0,0,0,0,0,0c0,0,0,0,0,0c-1.9-7.6-5.2-14.8-8.3-22c0,0,0,0,0,0
		c-1.6-6.5-5.3-12.5-6-19.2c-0.9-1.3-1.7-2.6-2.6-3.9c-0.5-1.7-1-3.4-1.5-5.1c0,0,0,0,0,0c0,0,0,0,0,0c-0.4-1.3-0.9-2.6-1.3-3.9
		c0,0,0,0,0,0c-0.5-1.3-1.1-2.5-1.6-3.8c0-0.4-0.1-0.9-0.1-1.3c-1.3-2.2-2.6-4.4-3.9-6.6c0,0,0,0,0,0c-2.9-11.4-7.1-22.4-11.7-33.3
		c-1.1-5.3-3.6-9.7-8.5-13c0,0,0,0,0,0c-1.5-4.7-6.9-8.5-4.2-14.2c5.1-11.2,3.5-22.4,0.1-33.6c0,0,0,0,0,0
		c-1.9-13.7-3.9-27.4-5.8-41.1c0.3-4.1-0.3-8-2.7-11.6c0,0,0,0,0,0c-0.5-2.1-1.1-4.3-1.6-6.4c0,0,0,0,0,0c0,0,0,0,0,0
		c-1.2-5.6-4.7-10.8-4.2-16.7c-1.2,1.3-2.3,2.5-3.5,3.8c3.3-5.5,3.9-10.1,4-13.1c0.2-9-4.8-21.1-6.7-30.1c-0.9-4.2,0.4-6.5,3.9-9.3
		c7.6-6,15.6-11.9,19.4-20.9c1.6-4.8,6.3-7.1,10.1-10.2c0,0,0,0,0,0c9.5-9.4,17.4-19.9,24.2-31.1c0.5-0.9,1-1.7,1.5-2.6v0
		c1.4-1.9,1.5-4,1.3-6.2c-1.3-13.1-6.1-24.9-15.5-35.1c-1-3.6-2-7.1-5.9-9.1c-7.3-3.7-11.7-9.8-16.5-15.6c-2-2.4-3.9-4.8-6.4-6.8
		c-8.6-7-17-14.2-25.5-21.3c0-1.2,0-2.5,0-3.7c0.9-0.5,1.7-1.1,2.6-1.6c2.8,0,5.1-1.1,7.4-2.4c0,0,0,0,0,0h0c1.4-1.3,1.1-2.5,0-3.8
		c0,0,0,0,0,0c0,0,0,0,0,0c-3.6-1.7-7.4-3-11.2-3.7h-31.6c-1.4,0-2.6-0.5-3.3-1.3c-3.2-1.6-4.6-6.6-0.5-8.7
		c8.3-4.3,14.4-10.4,16.3-19.8c1.7-8.5,0.2-17.6-1.2-26c-3.5-20.8-19.7-32.8-39.7-36.9c-1.6-0.3-2.6-1.2-3.1-2.2
		c-4.9-0.3-9.8-0.5-14.8-0.7c-0.4,0.7-1.1,1.3-2,1.8c-3.4,1.6-6.8,3.3-10.2,5.3c-0.3,0.3-0.5,0.7-0.8,1c2.9,1.6,4.1,6.5,0.4,8.9
		c-4.8,3.1-8.6,6.7-11,11.9c-1.8,3.9-3.1,8-4.5,12.1c0.1,0.4,0.2,0.9,0.2,1.4c-0.1,10.8-1.6,22.1,1,32.8c1.4,5.9,5.4,10.7,8.8,15.7
		c3.1-1.2,7.1,0.2,6.6,4.4c-0.2,1.7-0.4,3.4-0.6,5.2c0.3-0.2,0.6-0.3,0.9-0.5c0.1-0.1,0.3-0.2,0.4-0.3c4.9-4.1,12,2.9,7.1,7.1
		c-0.1,0.1-0.1,0.1-0.2,0.2c-0.4,0.5-0.8,0.9-1.5,1.3c-0.3,0.2-0.6,0.4-1,0.5c-3.7,2.5-7.7,4.2-12,5.4c-3.2,2.8-7.3,4.4-11.4,5.8
		c-1.4,0.5-2.6,0.3-3.6-0.2c-1.6,0.8-3.2,1.7-4.7,2.7c-0.6,2.6-0.3,5.3,1.1,7.8c0,0,0,0,0,0c-0.4,0.5-0.8,1-1.1,1.4c0,0,0,0,0,0
		c-1.3,0.5-3,0.7-3.8,1.6c-11.3,12.6-27.4,19.3-42,27.9c-1.9,0.8-3.9,1.7-5.8,2.5c-0.9,0.1-1.8,0.1-2.7,0.2c-2.6,0.5-5.5,0-7.2,2.5
		c0,0,0,0,0,0c0,0,0,0,0,0c0,0,0,0,0,0c0,0,0,0,0,0c-8-0.8-14.5,2.4-19.8,7.2c-6.1,5.4-11.6,11.3-17.4,17c0.7,0,1.4,0,2.2,0
		c-1.7,0.3-3.4,0.9-5,1.7c4.9,4.1,10.4,7.3,16.4,9.9c10.5,4.7,16.4,6.8,29.5,12.3c5.1,2.1,12.6,5.4,21.5,9.8
		c10.8,3.6,16.9,3.6,20.4,1.9c-0.4,3-0.9,6.1-1.6,9.1c-3.3,14.5,0.9,27.5,6.9,40.5c-2.6,7.4-5,14.8-8.9,21.7
		c-0.8,0.5-0.8,1.1-0.1,1.8c-9.8,26.3-19,52.8-22.1,80.6c-0.5,4.8,0.5,8.5,5.6,12.4c7-23.1,12.9-45.8,25.4-66.3h0l0,0
		c1.4,0.1,2.8,0.2,4.2,0.2l0,0c0.9,2.9,0.6,5.9,0.2,8.9c-0.6,1.5-0.8,3-0.9,4.5c-2.1,10.2-4.2,20.3-5.4,30.7
		c-2.5,21.7-4.3,43.4-3.6,65.2c0,5.2-0.1,10.3-0.1,15.5l0,0c-2.3,14.1-4.2,28.2-4.4,42.5c-0.4,0-0.8,0-1.1,0c0,4.7,0,9.4,0,14.1
		c0,1.4,0,2.8,0,4.3c-0.3,0.7-0.6,1.5-0.9,2.2c0,1.7-0.5,3.4-0.4,5.1c0,0.3,0,0.6,0,0.8c-0.1-0.7-0.3-1.4-0.5-2
		c-1.3,2.5-1.2,5.2-1.2,7.9c0.9,0.7,1.8,1.3,2.8,1.8c4.7,2.2,2.3,8.2-1.8,9.1c0,0.2,0,0.5,0,0.7c0,1.4-0.5,2.5-1.4,3.4
		c-0.1,1.3-0.9,2.6-2.4,3.5c-7.3,4.3-15.2,7.4-22.7,11.4c-0.6,1.3-1.8,2.4-3.2,2.8c-0.9,0.2-1.7,0.4-2.5,0.5c-1.1,0.4-2.1,0.3-3,0
		c-0.7-0.1-1.5-0.3-2.1-0.5c-0.2,0.3-0.5,0.5-0.7,0.8h0c-2.3,3.5-8.1,6.9-0.3,10.6c3.5,2,6.9,0.7,10.3-0.5c11-1.6,21.6-4.4,33.2-2.8
		c0.8,0.1,1.7,0.2,2.5,0.3c4.7-0.6,9.4-0.9,14.1-0.8c0,0,0.1,0,0.1,0c5.1-1.5,10.8-2.5,15.9-4.5c0.5-0.8,0.9-1.6,1.2-2.4
		c0.1-0.9,0.1-1.9,0.1-2.8c-0.7-2.3-1.4-4.7-1.9-7.1c-0.3-0.5-0.6-1-0.9-1.5c-0.1-1.8-0.1-3.5-0.2-5.3c0-1.7,0-3.4,0-5.1
		c0,0,0,0,0.1,0c2.4,0,5,0.7,7.1-1.1c0,0,0,0,0,0c2-6.8,2.2-13.8,3-20.8c-0.2,0.9-0.6,1.6-0.9,2.3c0.2-0.8,0.4-1.6,0.9-2.3
		c-0.5-1.7-0.9-3.4-1.4-5.2c0,0,0,0,0,0c-0.9-5-2.2-10,0.8-14.9c5.8-9.4,7.7-19.9,10.7-30.2c5.6-10.6,6.5-22.6,11.5-33.3
		c0,0,0,0,0,0c4.4-4,6.2-9.1,7-14.4c1.7-11,2.8-22.1,4.5-33.1c0.8-4.9,0.2-10.2,4.2-14.8c4.1,4.2,3.2,9.3,5.2,13.5v0
		c1.6,6.2,3.1,12.5,4.8,18.7c3.9,14.4,6.2,29.1,11.1,43.3c0.1,0.3,0.2,0.6,0.3,0.9c1,5.4,2.2,10.9,3.1,16.3
		c2.3,14.1,5.4,28,9.8,41.7c0,0,0,0,0,0c1.1,6.8,3.7,13.2,7.2,19.3c0.7,2.5,2.2,4.6,4.1,6.5c0,0,0,0,0,0l0,0
		c4.3,7.3,8.7,14.5,13,21.8c3.2,8.3,6.5,16.5,9.7,24.8c1.1,4.4,2.4,8.7,3.3,13.1c0.9,4.8,3.4,6.8,8.8,5c1.8-0.6,3.6-1,5.4-1.5
		c0,0,0,0,0,0c0.9,0.4,1.9,0.7,2.8,1.1c0,0,0,0,0,0c2.5,0.7,6-0.5,7.2,2.8c-0.2,3-0.4,6.1,1.2,8.9c-0.2,1.9,0,3.7,1.7,5.1
		c2.2,3.4,5.2,5.6,9.8,5.2c1-0.5,1.9-0.9,2.9-1.4c0.9,0.1,1.9,0.2,2.8,0.4c3.3,2.3,4.5-2,7.1-1.9l0,0h0c5.8,2.3,9.8-1.7,14.5-3.5
		c0-0.1,0.1-0.1,0.1-0.2c-0.2-0.5-0.3-1.1-0.4-1.7c-0.4-3.4-0.4-6.7-0.4-10.1c0-1.6,0.6-2.9,1.6-3.7c-0.3-0.8-0.7-1.6-1-2.4
		C448.7,624.2,450.3,616.5,447.8,608.3z M388.2,212.6c0,0.1,0,0.2,0.1,0.3c-0.2,0-0.3,0-0.5,0C387.9,212.8,388.1,212.7,388.2,212.6z
		 M234.6,242.6c0,0,0.4,0.6,0.6,1.7C234.8,243.2,234.6,242.6,234.6,242.6z M226.3,579.9c-0.1-0.4-0.2-0.8-0.3-1.2
		c0.6,0,1.2,0,1.8-0.1c0.5,0.4,0.9,0.8,1.4,1.2C228.2,579.9,227.3,579.9,226.3,579.9z M292.1,393.1c-0.3-0.1-0.5-0.2-0.7-0.3
		c0.3-0.4,0.5-0.8,0.7-1.1c0.1,0.2,0.2,0.5,0.2,0.7C292.3,392.7,292.2,392.9,292.1,393.1z"/>
</g>
<g id="Capa_1">
	<path d="M330.8,431.2c-1.4-11.2-2.6-22.5-3.9-33.7c-6.1-25.8-13.1-51.5-15.1-78.1c-1-4-1.9-7.5-2.7-11c-3.6,1.9-7.3,3.7-11.1,5.1
		c-19,7.3-40.9,5-60.8,5c-0.6,0-1.1-0.1-1.6-0.2c-0.9,0.7-1.6,1.4-2,2.2c-1.2,2.5-2.3,4.9-3.4,7.4c0,0,0,0.1,0,0.1
		c-1.3,3.8-2.7,7.6-4.2,11.4c-0.1,0.3-0.2,0.6-0.3,0.8c-0.5,1.7-1,3.1-1.8,4.2c-0.7,1.6-1.4,3.3-2.1,4.9c-0.7,2.3-1.2,4-1.8,5.7
		c-9.3,26.2-17.5,52.6-20.5,80.2c-0.6,5.1,0.4,9.1,5.3,12.9c0.9-2.6,1.5-4.5,2.1-6.4c6.9-19.4,13.5-38.9,20.9-58.1
		c0.4-1.2,1.2-2.2,2.1-3.2c2.4-6.7,5.6-13.1,8.4-19.7c2.7-6.1,4.2-12.4,5.8-18.8c1.5-6.2,4-11.9,8.1-15.5c0.5-1.3,1.5-2.4,3.2-2.9
		c5.1-1.6,10.8-2,16.3-2.1c2.3-0.4,4.5-0.8,6.8-1.2c1.1-0.2,2.2-0.1,3.2,0.3c1.7-1,3.5-2,5.4-3.1c0.1,2.8,0.3,5.4,0.4,8
		c0.2,0.4,0.4,0.8,0.6,1.4c2.3,8.3,4.1,16.6,5.6,25.1c0.7,0.6,1.2,1.4,1.3,2c3.3,18.6,6.4,37.1,9.4,55.8c1.6,10.3,3,20.7,4.5,31.8
		c5.2-0.4,10-1.2,14.7-1C331.6,440.8,331.4,436.5,330.8,431.2z"/>
	<path class="st3" d="M383.8,246.4c-1-2.4-2.2-4.8-3.4-7.1c-4-4.5-8-9-10.9-14.3c-2.9-5.4-4.3-11.3-5-17.3c-2.6-5.6-2.5-12,0.5-19.4
		h-34.5c-5.3-3.5,7.8-12.5-3.8-14.6c10.3-16.1,29.5-20.9,46.9-30.3c0.5-1.1,0.9-2.3,1.3-3.5c-22.3,3.9-44.5,3.5-56.9,23.2
		c-25.1-6.1-46.1,5.5-68.4,10.7c-0.9-3.2-2-6.6-3.1-10.6c-2.1,11.8-3.6,22.5-6.3,33.1c0,0.1-0.1,0.2-0.1,0.2
		c0.6,1.5,0.3,3.3-1.4,4.7c-3.1,2.5-4.7,6.3-5.6,10.5c0,1.2-0.2,2.2-0.5,3c-0.3,2.5-0.4,5.2-0.4,7.7c0.4,3.8,0.8,7.1,1.2,10.3
		c0.6,1.1,0.8,2.5,0.6,3.9c0,0.3-0.1,0.5-0.1,0.8c0,0.2,0,0.3,0.1,0.5c0,0-0.1,0-0.1,0c-0.3,2.9-0.3,5.7-0.3,8.6c0,1.3-0.4,2.3-1,3
		c-0.2,4-0.6,7.9-1.7,11.6c-0.4,3.4-0.6,6.7-0.6,10.1c-0.1,14.5-8.2,28.7-1.9,43.4c0.2,0.4,0.2,1,0.2,1.5c3.5,2.9,7.8,3.8,12.4,3.9
		c0.2,0,0.3,0,0.5,0c21.8,0.3,45.4,2.3,65.7-5.8c12.9-5.1,24.3-12.5,36.9-17.8c0.1,0,0.1-0.1,0.2-0.1c9.6-4.6,19.1-9.6,29.4-12.6
		c10.9-3.2,13.7-10.4,14.2-18.5C388.1,259,386.1,252.4,383.8,246.4z"/>
	<path class="st3" d="M327,132.4c3.4-2.4,6-5.3,9.5-7.3c5.9-8.1,11.4-16.4,9-27.5c-2.3-10.4-1.7-22.1-6.6-31.1
		c-6.9-12.8-17.8-23.4-34.8-24.9c-4.3-0.4-8.8-0.2-12.9-1.2c-14.8-3.6-24.3,3.7-30.5,14.6c-12.3,21.5-16.7,43.9-3.2,66.8
		c2.2,3.8,2.8,8.6,5.5,11.9c1.5,1.7,2.7,3.5,3.5,5.3c1.1,1.5,2.3,2.9,3.4,4.4c4.5,0.8,8.8,1.6,13.3,2.5c3.3-0.3,6.6-0.3,9.9,0
		c0,0,0,0,0-0.1c4.8-1.2,9.8-2.4,14.8-3.6c5.5-2.1,11-4.2,16.6-5.9C324.8,134.7,325.7,133.4,327,132.4z M309.8,128.6
		c-1.7,7-18.6,13.1-24.9,8c-13.5-10.9-22.4-24.3-21.4-42c0.1-1.8,1.8-4.8,3.3-5.2c12.5-3.1,25.1-5.7,36-8.1
		c11.7,0.1,17.7,8.4,15,17.6C314.8,108.8,312.2,118.7,309.8,128.6z"/>
	<path class="st3" d="M264.9,601c0.3-1.5,0.3-3.1,0.3-4.7c-1-3.4-2.2-6.8-2.5-10.3c-4.5-0.3-9.1-0.6-14.2-1c0.2,2.6,0.4,5.8,0.7,9.1
		c9.8-2.4,6.1,4.8,7.7,9h-11.6v-30.9c4.6,1.1,8.4,1.9,12,3c1.7,0.5,3.2,1.8,4.8,2.7c0.8-1.9,1.6-3.9,2.7-6.5
		c-11.4-1.4-21.9-6.2-33.1-2.8c-1.6,1.7-3.4,3.3-5.6,4c-0.3,0.1-0.6,0.2-0.9,0.2c-1,2.2-2.9,4.4-4.7,5.5c-9.8,6-20,11.2-30.7,17.1
		c4.3,1.8,8.1,3.3,13.3,5.4c-7.4-0.7-13.3-1.2-19.1-1.7c0,0.7,0,1.5-0.1,2.2c1.7,0.7,3.3,1.5,6,2.6c-2.1,1-3.2,1.5-4.3,2.1
		c-1,0.6-1.8,1.3-2.7,1.9l0.2,2.3c2.9,0.2,5.9,0.9,8.7,0.5c9.8-1.5,19.5-4.1,29.3-4.8c9.4-0.6,19.1,2,28.3,0.8
		c7.1-0.9,11.7-1.7,14.6-3.3C264.4,602.9,264.7,602,264.9,601z"/>
	<path class="st3" d="M446.6,644.9c-0.9-1.1-1.9-2.2-2.6-3.4c-6.1,4.5-25.4,5.6-29.1,3.4c-4,1.3-7.3,2.3-11.3,3.6v-8.3h42.1
		c-0.6-2.5-1.2-4.8-1.5-6.7c-0.1-0.4-0.1-0.8,0-1.2c-2.2-2.3-5.6-3-10.1-2.5c-8.1,1-16.2,2.2-24,4.1c-3.4,0.8-8.6,3.1-8.8,5.1
		c-0.6,4.9-0.1,10.6,2.5,14.9c2.3,3.8,7.2,6.9,14.4,4.8c4.6-1.4,10.5,0.1,15.2-1.1c4.1-1.1,9.2-1.7,12.3-4.2
		C447,651,447,648,446.6,644.9z"/>
	<line class="st4" x1="128.8" y1="586.4" x2="231.6" y2="584.4"/>
	<line class="st4" x1="364.3" y1="472.1" x2="439.8" y2="470.1"/>
	<line class="st4" x1="151.5" y1="392.7" x2="222.2" y2="390.7"/>
	<line class="st4" x1="154.6" y1="289.2" x2="257.4" y2="287.2"/>
	<line class="st4" x1="315.4" y1="71.3" x2="391.5" y2="69.4"/>
	<line class="st4" x1="352" y1="174.5" x2="424.6" y2="175.8"/>
	<line class="st5" x1="296.9" y1="464.1" x2="261.3" y2="489"/>
	<line class="st6" x1="299.9" y1="448.1" x2="299.9" y2="448.1"/>
	<line class="st5" x1="299.9" y1="465.7" x2="260.8" y2="492.5"/>
	<text transform="matrix(1 0 0 1 395.3048 73.7047)" class="st7 st8">Cabezal</text>
	<text transform="matrix(1 0 0 1 427.7556 180.4448)" class="st7 st8">Chaqueta del dobok</text>
	<text transform="matrix(1 0 0 1 112.3494 291.6859)" class="st7 st8">Pechera</text>
	<text transform="matrix(1 0 0 1 105.626 396.0398)" class="st7 st8">Cinturón</text>
	<text transform="matrix(1 0 0 1 446.8479 473.8326)" class="st7 st8">Pantalón de dobok</text>
	<text transform="matrix(1 0 0 1 69.2902 589.1744)" class="st7 st8">Empeineras</text>
	<text transform="matrix(1.0749 0 0 1 313.6611 72.9877)" class="st7 st9">.</text>
	<text transform="matrix(1.0749 0 0 1 362.0929 473.7318)" class="st7 st9">.</text>
	<text transform="matrix(1.0749 0 0 1 349.7024 175.8388)" class="st7 st9">.</text>
	<text transform="matrix(1.0749 0 0 1 253.7727 289.2061)" class="st7 st9">.</text>
	<text transform="matrix(1.0749 0 0 1 229.1655 585.4393)" class="st7 st9">.</text>
	<path class="st10" d="M597.3,429C597.2,429,597.2,429,597.3,429C597.2,429,597.2,429,597.3,429L597.3,429z"/>
	<path class="st10" d="M607.5,417.3C607.5,417.4,607.5,417.4,607.5,417.3l-0.4-0.2c0,0,0.1-0.1,0.1-0.1
		C607.3,417.1,607.4,417.2,607.5,417.3z"/>
	<path class="st10" d="M1091.2,355.5C1091.2,355.5,1091.2,355.5,1091.2,355.5C1091.2,355.5,1091.2,355.4,1091.2,355.5
		C1091.2,355.4,1091.2,355.4,1091.2,355.5C1091.2,355.4,1091.2,355.5,1091.2,355.5z"/>
	<path class="st10" d="M647.1,375.2C647.1,375.2,647.1,375.2,647.1,375.2l-0.1-0.2c0.1,0,0.2,0,0.3,0
		C647.2,375.1,647.2,375.1,647.1,375.2z"/>
	<path class="st10" d="M651.2,373.6C651.2,373.6,651.2,373.6,651.2,373.6C651.2,373.7,651.2,373.7,651.2,373.6
		C651.2,373.6,651.2,373.6,651.2,373.6z"/>
	<path class="st10" d="M647.1,373.6L647.1,373.6L647.1,373.6C647.1,373.6,647.1,373.6,647.1,373.6
		C647.1,373.6,647.1,373.6,647.1,373.6C647.1,373.6,647.1,373.6,647.1,373.6C647.1,373.6,647.1,373.6,647.1,373.6z"/>
	<path class="st10" d="M644.9,366.6c0,0-0.1,0-0.1,0C644.8,366.6,644.9,366.6,644.9,366.6C644.9,366.6,644.9,366.6,644.9,366.6z"/>
	<path class="st10" d="M642.9,344.1C642.9,344.1,642.9,344.1,642.9,344.1C642.9,344,642.9,344,642.9,344.1
		C642.9,344,642.9,344,642.9,344.1z"/>
	<path class="st10" d="M645.8,354C645.8,354,645.7,354,645.8,354C645.7,354,645.7,354,645.8,354C645.7,354,645.7,354,645.8,354z"/>
	<path class="st10" d="M1089.4,351.4c0-0.1,0-0.1,0-0.2c0,0,0,0,0,0l0-0.1c0,0,0,0,0,0c0,0,0,0,0.1-0.1c0,0,0,0-0.1,0
		c-0.1,0-0.1,0-0.2,0C1089.3,351.3,1089.3,351.4,1089.4,351.4z"/>
	<path class="st10" d="M641.2,344.2c0,0,0-0.1,0-0.1c0.1,0,0.2,0.1,0.4,0.1C641.4,344.2,641.3,344.2,641.2,344.2z"/>
	<path class="st10" d="M617.9,404.7l0.1,0c0,0,0-0.1,0-0.1c0,0,0.1,0,0.1,0.1c0,0-0.1,0-0.1,0.1c0,0-0.1,0.1-0.1,0.1
		C617.9,404.8,617.9,404.7,617.9,404.7z"/>
	<path class="st10" d="M599.2,401.7c0,0.1,0,0.1,0,0.2c-0.1,0-0.1-0.1-0.2-0.1C599.1,401.7,599.1,401.7,599.2,401.7z"/>
	<path class="st10" d="M611.5,394.8l-0.1-0.1C611.4,394.7,611.5,394.7,611.5,394.8c-0.1-0.1-0.3-0.1-0.4-0.1l0.3,0c0,0,0,0,0.1,0
		C611.5,394.7,611.5,394.7,611.5,394.8z"/>
	<path class="st10" d="M597.3,394.9C597.2,394.9,597.2,394.9,597.3,394.9C597.2,394.9,597.2,394.9,597.3,394.9
		C597.3,394.9,597.3,394.9,597.3,394.9z"/>
	<path class="st10" d="M1080.6,353.8c0,0.1,0,0.1,0,0.2c0.1,0,0.2-0.1,0.3-0.1C1080.8,353.8,1080.7,353.8,1080.6,353.8z"/>
	<path class="st10" d="M638.9,349.5C638.9,349.5,638.9,349.6,638.9,349.5L638.9,349.5c-0.1,0.1-0.1,0.1-0.1,0.1
		C638.9,349.6,638.9,349.5,638.9,349.5z"/>
	<path class="st10" d="M609.6,400.4C609.6,400.5,609.6,400.5,609.6,400.4L609.6,400.4c0.1,0.1,0.1,0.1,0.1,0.1
		C609.6,400.5,609.6,400.5,609.6,400.4C609.6,400.5,609.6,400.5,609.6,400.4C609.6,400.5,609.6,400.5,609.6,400.4z"/>
	<path class="st10" d="M607.5,418.6c0.1,0,0.2,0,0.4-0.1c-0.1,0.1-0.3,0.2-0.4,0.2C607.5,418.7,607.5,418.6,607.5,418.6z"/>
	<path class="st10" d="M621.9,418.7C621.9,418.7,621.9,418.7,621.9,418.7C621.9,418.7,621.9,418.7,621.9,418.7
		C621.9,418.7,621.9,418.7,621.9,418.7z"/>
	<path class="st10" d="M1095.6,407.3c0,0.1,0,0.1-0.1,0.2c0.1,0,0.2,0,0.3,0C1095.7,407.4,1095.6,407.4,1095.6,407.3z"/>
	<path class="st10" d="M1089.4,327.1C1089.4,327.1,1089.3,327.1,1089.4,327.1l-0.2,0c0,0,0,0,0,0
		C1089.3,327.1,1089.3,327.1,1089.4,327.1z"/>
	<path class="st10" d="M586.8,425.9C586.8,425.9,586.8,425.9,586.8,425.9C586.8,425.9,586.8,425.9,586.8,425.9
		C586.8,425.9,586.8,425.9,586.8,425.9z"/>
	<path class="st10" d="M651.7,301.5c0,0-0.1,0-0.1,0c0,0,0,0,0-0.1C651.7,301.5,651.7,301.5,651.7,301.5L651.7,301.5L651.7,301.5z"
		/>
	<path class="st10" d="M617.7,377.7c0.1,0.1,0.1,0.1,0.2,0.2c-0.1,0-0.1,0-0.2,0C617.7,377.8,617.7,377.7,617.7,377.7z"/>
	<path class="st10" d="M551.2,410.3C551.2,410.3,551.2,410.3,551.2,410.3L551.2,410.3c-0.1,0-0.2,0-0.2,0c0.1-0.1,0.2-0.2,0.2-0.3
		C551.2,410.1,551.2,410.2,551.2,410.3C551.2,410.3,551.2,410.3,551.2,410.3z"/>
	<path class="st10" d="M595,430.2c0,0-0.1-0.1-0.1-0.1c0,0,0.1,0,0.1,0c0,0,0,0,0,0c0,0,0,0,0,0C595,430.1,595,430.2,595,430.2z"/>
	<path class="st10" d="M1100.2,413.2C1100.1,413.2,1100.1,413.2,1100.2,413.2C1100.1,413.2,1100.1,413.2,1100.2,413.2
		C1100.1,413.2,1100.1,413.2,1100.2,413.2z"/>
	<polygon class="st10" points="586.5,427.2 586.5,427.2 586.5,427.2 	"/>
	<path class="st10" d="M654.9,415.7C654.9,415.7,654.9,415.7,654.9,415.7C655,415.7,655,415.8,654.9,415.7
		C655,415.8,654.9,415.8,654.9,415.7z"/>
	<path class="st10" d="M556.9,427.3L556.9,427.3c0.1,0,0,0.1,0,0.1C557,427.4,557,427.4,556.9,427.3z"/>
	<path class="st10" d="M632.2,326.9"/>
	<path class="st10" d="M940.5,218.4C940.5,218.4,940.5,218.4,940.5,218.4C940.5,218.4,940.5,218.3,940.5,218.4
		C940.5,218.3,940.5,218.3,940.5,218.4C940.5,218.3,940.5,218.4,940.5,218.4z"/>
	<path class="st10" d="M898.6,238.1C898.6,238.1,898.6,238.1,898.6,238.1l-0.1-0.2c0.1,0,0.2,0,0.3,0
		C898.7,238,898.7,238,898.6,238.1z"/>
	<path class="st10" d="M902.7,236.5C902.7,236.5,902.7,236.5,902.7,236.5C902.7,236.5,902.7,236.5,902.7,236.5
		C902.7,236.5,902.7,236.5,902.7,236.5z"/>
	<path class="st10" d="M898.6,236.5L898.6,236.5L898.6,236.5C898.6,236.5,898.6,236.5,898.6,236.5
		C898.6,236.5,898.6,236.5,898.6,236.5C898.6,236.5,898.6,236.5,898.6,236.5C898.6,236.5,898.6,236.5,898.6,236.5z"/>
	<path class="st10" d="M896.4,229.5c0,0-0.1,0-0.1,0C896.3,229.5,896.3,229.5,896.4,229.5C896.4,229.5,896.4,229.5,896.4,229.5z"/>
	<path class="st10" d="M894.4,206.9C894.4,206.9,894.4,206.9,894.4,206.9C894.4,206.9,894.4,206.9,894.4,206.9
		C894.4,206.9,894.4,206.9,894.4,206.9z"/>
	<path class="st10" d="M897.2,216.9C897.2,216.9,897.2,216.9,897.2,216.9C897.2,216.9,897.2,216.9,897.2,216.9
		C897.2,216.9,897.2,216.9,897.2,216.9z"/>
	<path class="st10" d="M942.2,214.3c0-0.1,0-0.1,0-0.2c0,0,0,0,0,0l0-0.1c0,0,0,0,0,0c0,0,0,0,0-0.1c0,0,0,0,0.1,0
		c0.1,0,0.1,0,0.2,0C942.3,214.2,942.2,214.2,942.2,214.3z"/>
	<path class="st10" d="M892.6,207.1c0,0,0-0.1,0-0.1c0.1,0,0.2,0.1,0.4,0.1C892.9,207.1,892.8,207.1,892.6,207.1z"/>
	<path class="st10" d="M869.4,267.6l0.1,0c0,0,0-0.1,0-0.1c0,0,0.1,0,0.1,0.1c0,0-0.1,0-0.1,0.1c0,0-0.1,0.1-0.1,0.1
		C869.4,267.7,869.4,267.6,869.4,267.6z"/>
	<path class="st10" d="M923.5,195.7L923.5,195.7c0.1,0,0.1,0,0.1,0C923.6,195.7,923.6,195.7,923.5,195.7z"/>
	<path class="st10" d="M902.7,191.3c0-0.1,0-0.2,0-0.3c0,0.1,0.1,0.2,0.2,0.3C902.8,191.3,902.7,191.3,902.7,191.3l0.1,0.1
		c0,0,0,0,0,0c0,0,0,0,0,0c-0.1,0-0.2,0-0.3,0C902.6,191.4,902.6,191.3,902.7,191.3z"/>
	<path class="st10" d="M950.5,216.7c0,0.1,0,0.1,0,0.2c-0.1,0-0.2-0.1-0.3-0.1C950.3,216.7,950.4,216.7,950.5,216.7z"/>
	<path class="st10" d="M890.4,212.4C890.4,212.4,890.4,212.4,890.4,212.4L890.4,212.4c-0.1,0.1-0.1,0.1-0.1,0.1
		C890.3,212.5,890.4,212.4,890.4,212.4z"/>
	<path class="st10" d="M953,200C953,200,953,200,953,200C953,200,953,200,953,200C953,200,953,200,953,200z"/>
	<path class="st10" d="M953,199.9C953,199.9,953,199.9,953,199.9C953,199.9,953,199.9,953,199.9C953,199.9,953,199.9,953,199.9z"/>
	<path class="st10" d="M942.2,190C942.2,190,942.2,190,942.2,190l0.2,0c0,0,0,0,0,0C942.3,190,942.2,190,942.2,190z"/>
	<path class="st10" d="M903.2,164.4c0,0-0.1,0-0.1,0c0,0,0,0,0-0.1C903.2,164.4,903.2,164.4,903.2,164.4L903.2,164.4L903.2,164.4z"
		/>
	<path class="st10" d="M869.2,240.6c0.1,0.1,0.1,0.1,0.2,0.2c-0.1,0-0.1,0-0.2,0C869.2,240.7,869.2,240.6,869.2,240.6z"/>
	<path class="st10" d="M963,212.9c0-0.1,0-0.3,0-0.4c0,0,0,0,0.1,0.1c0.1,0,0.2,0.1,0.2,0.1C963.2,212.8,963.1,212.8,963,212.9z"/>
	<path class="st10" d="M952.8,188.4c0.1,0,0.2,0.1,0.4,0.1c-0.1,0-0.2,0-0.3,0.1C952.8,188.5,952.8,188.5,952.8,188.4z"/>
	<polygon class="st10" points="966.9,212.5 966.9,212.5 966.9,212.5 	"/>
	<ellipse class="st11" cx="422.9" cy="612.8" rx="82.3" ry="74.5"/>
</g>
<g id="Capa_4">
	<g>
		<path class="st3" d="M339.6,608.9c0.4-0.8,0.7-1.7,1-2.4c1.5-3.9,2.6-8.8,2.5-14.6c1.1-2.9,2.5-5.6,4.1-8.4
			c2.2-3.9,3.3-8.5,6.3-11.8c2-2.2,4-4,5.2-6.5c0.6-0.3,1.2-0.8,1.6-1.4c1.7-2.2,4.2-3.2,6.3-5c2.3-1.9,3.8-4.5,6.1-6.3
			c4.2-3.3,10.4-5.2,15.4-7.3c11.8-4.9,23.7-7,36.6-7.1c0.4,0,0.8,0,1.2-0.1c3.2,1.3,5.3,2.9,5.5,4.6c0.1,0.4,0,0.9-0.2,1.5
			c-0.1,6.1-0.2,12.2-0.3,18.3c-0.3,1.1-1.3,1.9-2.9,2.4c-0.1,0-0.2,0-0.3,0.1c-0.9,1.4-1.2,2.9-1.4,4.4c1.5,5.7,3.1,11.4,4.6,17.1
			h0c0,0.5-0.1,1-0.1,1.4h0c1.7,5.4,5.6,13.2,14.8,20.5c2.4,1.9,4.8,3.5,7.2,4.9c7.4,4.2,14.8,8.4,22.2,12.6
			c12,6.8,18.7,9.7,25.2,12.1c0.2,0.1,0.4,0.2,0.7,0.2c-3.7,8.6-8.3,17.4-16,23.3c-2.6,2-4.2,4.1-5.9,6.3c-2.5,1.6-4.7,3.6-7.1,5.4
			c-2.1,1.6-4.5,2.9-6.8,4.2c-0.7,0.3-1.4,0.6-2.1,0.9c0,0-0.1,0-0.1,0.1c-2.2-0.9-4.6-1.8-7-2.7c-4.8-1.8-9.5-3.3-13.9-4.6
			c-5.7-2.7-12.8-5.6-21.4-8.5c-3.3-1.1-11-3.6-21.2-6c-10.2-2.4-25.6-5.3-45.3-6.5c-1.1-0.1-2.6-0.3-4.2-0.6c0-0.1-0.1-0.1-0.1-0.2
			c-4.3-7.4-6.1-15.6-8.3-23.7c-0.1-0.5-0.4-1-0.6-1.4c-0.3-3.3-0.7-6.7-1.1-10c-0.1-0.7-0.3-1.3-0.6-1.9
			C339.3,611.2,339.5,610,339.6,608.9z M454.8,618.9c0.1,0,0.2,0,0.4,0c-0.1-0.2-0.2-0.3-0.3-0.5
			C454.8,618.6,454.8,618.7,454.8,618.9z M426.4,589.5c0,0,0.1-0.1,0.1-0.1l0.1-0.2c-0.2,0-0.3,0-0.5,0
			C426.3,589.3,426.4,589.4,426.4,589.5z M422.2,608l0-0.2c-0.1-0.1-0.2-0.1-0.2-0.2c-0.2,0.1-0.3,0.2-0.5,0.3
			C421.7,607.9,422,607.9,422.2,608z M415.8,610.8c-0.1,0-0.1,0-0.2,0c-0.1,0-0.2-0.1-0.2-0.1c0,0.1,0,0.2,0,0.2
			C415.5,610.9,415.6,610.9,415.8,610.8z M388.9,547.2c0.1-0.1,0.2-0.1,0.3-0.2c-0.1,0-0.3,0-0.4,0
			C388.8,547,388.9,547.1,388.9,547.2z M340.9,614.7C340.9,614.7,340.9,614.7,340.9,614.7C340.9,614.6,340.9,614.6,340.9,614.7
			c0-0.1,0-0.2,0-0.2c-0.3,0.1-0.6,0.2-1,0.2C340.2,614.7,340.6,614.7,340.9,614.7z"/>
		<path class="st3" d="M463.7,668.6C463.8,668.6,463.8,668.6,463.7,668.6C463.8,668.6,463.8,668.6,463.7,668.6L463.7,668.6z"/>
		<path class="st3" d="M453,657C453,657,453,657,453,657l0.4-0.2c-0.1,0-0.1-0.1-0.2-0.1C453.1,656.7,453,656.8,453,657z"/>
		<path class="st3" d="M367,595.1C367,595.1,367,595.1,367,595.1C367,595.1,367,595.1,367,595.1C367,595,367,595,367,595.1
			C367,595.1,367,595.1,367,595.1z"/>
		<path class="st3" d="M411.2,614.8C411.2,614.8,411.2,614.8,411.2,614.8l0.1-0.2c-0.1,0-0.2,0-0.3,0
			C411.1,614.7,411.1,614.7,411.2,614.8z"/>
		<path class="st3" d="M406.9,613.2C406.9,613.2,406.9,613.3,406.9,613.2C406.9,613.3,406.9,613.3,406.9,613.2
			C406.9,613.3,406.9,613.2,406.9,613.2z"/>
		<path class="st3" d="M411.2,613.3L411.2,613.3L411.2,613.3C411.2,613.3,411.2,613.3,411.2,613.3
			C411.2,613.2,411.2,613.2,411.2,613.3C411.2,613.2,411.2,613.2,411.2,613.3C411.2,613.3,411.2,613.3,411.2,613.3z"/>
		<path class="st3" d="M413.5,606.2c0,0,0.1,0,0.1,0C413.6,606.2,413.6,606.2,413.5,606.2C413.5,606.2,413.5,606.2,413.5,606.2z"/>
		<path class="st3" d="M415.6,583.7C415.6,583.7,415.6,583.7,415.6,583.7C415.6,583.7,415.6,583.7,415.6,583.7
			C415.6,583.7,415.6,583.7,415.6,583.7z"/>
		<path class="st3" d="M412.6,593.6C412.6,593.6,412.6,593.6,412.6,593.6C412.7,593.6,412.7,593.6,412.6,593.6
			C412.7,593.6,412.7,593.6,412.6,593.6z"/>
		<path class="st3" d="M365.3,591c0-0.1,0-0.1,0-0.2c0,0,0,0,0,0l0-0.1c0,0,0,0,0,0c0,0,0,0,0.1-0.1c0,0,0,0-0.1,0
			c-0.1,0-0.1,0-0.2,0C365.1,590.9,365.2,591,365.3,591z"/>
		<path class="st3" d="M417.5,583.8c0,0,0-0.1,0-0.1c-0.1,0-0.3,0.1-0.4,0.1C417.2,583.8,417.3,583.8,417.5,583.8z"/>
		<path class="st3" d="M442,644.3l-0.2,0c0,0,0-0.1,0-0.1c0,0-0.1,0-0.1,0.1c0,0,0.1,0,0.1,0.1c0.1,0,0.1,0.1,0.2,0.1
			C442,644.4,442,644.3,442,644.3z"/>
		<path class="st3" d="M461.7,641.3c0,0.1,0,0.1,0,0.2c0.1,0,0.1-0.1,0.2-0.1C461.8,641.3,461.8,641.3,461.7,641.3z"/>
		<path class="st3" d="M384.9,572.5L384.9,572.5c-0.1,0-0.1,0-0.1,0C384.8,572.5,384.9,572.5,384.9,572.5z"/>
		<path class="st3" d="M448.7,634.4l0.1-0.1C448.8,634.3,448.8,634.3,448.7,634.4c0.2-0.1,0.3-0.1,0.4-0.1l-0.3,0c0,0,0,0-0.1,0
			C448.7,634.3,448.7,634.3,448.7,634.4z"/>
		<path class="st3" d="M406.9,568c0-0.1,0-0.2,0-0.3c0,0.1-0.1,0.2-0.2,0.3C406.8,568,406.8,568,406.9,568l-0.1,0.1c0,0,0,0,0,0
			c0,0,0,0,0,0c0.1,0,0.2,0,0.3,0C407,568.1,407,568.1,406.9,568z"/>
		<path class="st3" d="M463.8,634.6C463.8,634.5,463.8,634.5,463.8,634.6C463.8,634.5,463.8,634.5,463.8,634.6
			C463.7,634.5,463.7,634.5,463.8,634.6z"/>
		<path class="st3" d="M356.5,593.4c0,0.1,0,0.1,0,0.2c0.1,0,0.2-0.1,0.3-0.1C356.7,593.4,356.6,593.4,356.5,593.4z"/>
		<path class="st3" d="M419.8,589.1C419.8,589.1,419.8,589.2,419.8,589.1L419.8,589.1c0.1,0.1,0.1,0.1,0.1,0.1
			C419.9,589.2,419.9,589.2,419.8,589.1z"/>
		<path class="st3" d="M450.7,640.1C450.7,640.1,450.8,640.1,450.7,640.1L450.7,640.1c-0.1,0.1-0.1,0.1-0.1,0.1
			C450.7,640.2,450.7,640.1,450.7,640.1C450.8,640.1,450.8,640.1,450.7,640.1C450.8,640.1,450.8,640.1,450.7,640.1z"/>
		<path class="st3" d="M453,658.2c-0.1,0-0.3,0-0.4-0.1c0.2,0.1,0.3,0.2,0.4,0.2C453,658.3,453,658.2,453,658.2z"/>
		<path class="st3" d="M437.8,658.3C437.8,658.3,437.8,658.3,437.8,658.3C437.8,658.3,437.8,658.3,437.8,658.3
			C437.8,658.3,437.8,658.3,437.8,658.3z"/>
		<path class="st3" d="M371.4,646.9c0,0.1,0,0.1-0.1,0.2c0.1,0,0.2,0,0.3,0C371.6,647.1,371.5,647,371.4,646.9z"/>
		<path class="st3" d="M353.9,576.7C353.9,576.7,353.9,576.7,353.9,576.7C353.9,576.7,353.8,576.7,353.9,576.7
			C353.8,576.7,353.9,576.7,353.9,576.7z"/>
		<path class="st3" d="M353.9,576.7C353.9,576.7,353.9,576.6,353.9,576.7C353.9,576.6,353.9,576.7,353.9,576.7
			C353.9,576.7,353.9,576.7,353.9,576.7z"/>
		<path class="st3" d="M365.2,566.7C365.2,566.7,365.2,566.7,365.2,566.7l-0.2,0c0,0,0,0,0,0C365.1,566.7,365.2,566.7,365.2,566.7z"
			/>
		<path class="st3" d="M474.8,665.5C474.8,665.5,474.8,665.5,474.8,665.5C474.8,665.5,474.8,665.5,474.8,665.5
			C474.8,665.5,474.8,665.5,474.8,665.5z"/>
		<path class="st3" d="M406.3,541.1c0,0,0.1,0,0.1,0c0,0,0,0,0-0.1C406.4,541.1,406.4,541.1,406.3,541.1L406.3,541.1L406.3,541.1z"
			/>
		<path class="st3" d="M442.2,617.3c-0.1,0.1-0.1,0.1-0.2,0.2c0.1,0,0.2,0,0.2,0C442.2,617.4,442.2,617.4,442.2,617.3z"/>
		<path class="st3" d="M466.2,669.8c0.1,0,0.1-0.1,0.1-0.1c0,0-0.1,0-0.1,0c0,0,0,0,0,0c0,0,0,0,0,0
			C466.2,669.7,466.2,669.8,466.2,669.8z"/>
		<path class="st3" d="M376,652.8C376,652.8,376,652.8,376,652.8C376,652.8,375.9,652.8,376,652.8C376,652.8,376,652.8,376,652.8z"
			/>
		<polygon class="st3" points="475.1,666.8 475.1,666.8 475.1,666.8 		"/>
		<path class="st3" d="M403,655.4C403,655.3,402.9,655.3,403,655.4c-0.1,0-0.1,0-0.1,0.1C402.9,655.4,403,655.4,403,655.4z"/>
		<path class="st3" d="M349.7,638.6c0-0.1-0.1-0.2-0.1-0.2c-0.1,0.1-0.1,0.1-0.2,0.2C349.5,638.6,349.6,638.6,349.7,638.6z"/>
		<path class="st10" d="M406.6,576.3c7.9-1,15-2.4,21.5-3.9c0.2,2.6,0.6,6.1,1.9,10.2c1,3.3,2.2,5.7,2.6,6.4
			c2.8,5.6,6.7,9.4,9.3,11.8c4.5,4.3,19.1,17.5,46.9,31.4c5.4,2.7,8.9,4.4,12.4,5.9c0,0,0,0.1-0.1,0.1c-3.7,8.7-8.3,17.4-16.1,23.4
			c-0.7,0.6-1.4,1.1-2,1.7c-4.4,1-9.4,2-14.8,2.8c-9.2-1.9-23.2-6-38-15.1c-6.3-3.9-18.3-11.4-28.6-25.2
			c-13.8-18.5-16.7-37.6-17.3-47.5C391,578,398.5,577.4,406.6,576.3z M450.3,612c-0.1-0.2-0.2-0.3-0.3-0.5c-0.1,0.1-0.1,0.3-0.1,0.5
			C450.1,612,450.2,612,450.3,612z M424.2,580.4c0,0,0.1,0,0.1-0.1l0.2-0.2c-0.2,0-0.3,0-0.5,0C424.1,580.2,424.2,580.3,424.2,580.4
			z M418.4,598.5l0-0.2c-0.1-0.1-0.1-0.1-0.2-0.2c-0.2,0.1-0.3,0.2-0.5,0.2C417.9,598.4,418.2,598.4,418.4,598.5z M411.8,600.8
			c-0.1,0-0.1,0-0.2,0c-0.1,0-0.1-0.1-0.2-0.1c0,0.1-0.1,0.2-0.1,0.2C411.5,600.9,411.6,600.8,411.8,600.8z"/>
		<path class="st10" d="M341.4,596.9c1.2-4.8,3.3-9.1,5.7-13.4c2.2-3.9,3.3-8.5,6.3-11.8c0.1-0.1,0.2-0.3,0.4-0.4
			c3.2,1,5.9,1.4,7.7,1.6c-0.2,6-0.9,13.5-3.1,21.9c-2.1,8.4-5.1,15.4-7.8,20.9c-3.7-0.9-7.5-1.7-11.2-2.6c-0.1-0.3-0.2-0.6-0.4-0.9
			C340,607.2,340.1,601.9,341.4,596.9z"/>
		<path class="st10" d="M360.4,563.9c1.7-2.2,4.2-3.2,6.3-5c2.3-1.9,3.8-4.5,6.1-6.3c4.2-3.3,10.4-5.2,15.4-7.3
			c11.8-4.9,23.7-7,36.6-7.1c0.6,0,1.2-0.1,1.7-0.2c1.9,0.7,3.4,1.8,4.4,3.4c1.2,1.9,0.8,3.3,0.4,11.9c-0.2,4-0.2,7.2-0.3,9.3
			c0,0.2-0.1,1.9-1.6,3c-1,0.7-2,0.7-2.3,0.7c-25.1,2.1-44.6,2.3-57.8,2.1c-3.6-0.1-7.9,0-11.7-1c0.5-0.6,0.9-1.3,1.2-2
			C359.3,564.9,359.9,564.5,360.4,563.9z M389,547.2c0.1-0.1,0.2-0.1,0.3-0.2c-0.1,0-0.3,0-0.4,0C388.9,547.1,388.9,547.2,389,547.2
			z"/>
		<path class="st10" d="M521.8,567.4c0-0.1,0-0.3,0-0.4c0,0,0,0-0.1,0.1c-0.1,0-0.2,0.1-0.2,0.1
			C521.6,567.3,521.7,567.3,521.8,567.4z"/>
		<path class="st10" d="M528.2,616.4c0-0.1-0.1-0.2-0.1-0.2c-0.1,0.1-0.1,0.1-0.2,0.2C528,616.4,528.1,616.4,528.2,616.4z"/>
		<path class="st10" d="M525.9,624.9C525.9,624.9,525.9,624.9,525.9,624.9C525.9,624.9,525.9,624.9,525.9,624.9
			C525.9,624.9,525.9,624.9,525.9,624.9L525.9,624.9C525.9,624.9,525.9,624.9,525.9,624.9C525.9,624.9,525.9,624.9,525.9,624.9
			C525.9,624.9,525.9,624.9,525.9,624.9C525.9,624.9,525.9,624.9,525.9,624.9z"/>
		<polygon class="st10" points="517.7,567 517.7,567 517.7,567 		"/>
		<ellipse class="st12" cx="422.2" cy="613.2" rx="82.3" ry="74.5"/>
		<polygon class="st13" points="406.9,538.6 406.9,538.6 406.9,538.6 		"/>
		<path class="st10" d="M361.3,634.3c5.2-4.3,14.4-1,25,2.9c17.2,6.2,29.5,15.5,39.7,23.2c4.7,3.5,8.3,6.6,10.7,8.6
			c-11.1-5-20.6-7.7-27.2-9.4c-10.9-2.7-18.1-4.8-45-8.3c-1.5-0.2-3.6-0.5-5.9-1.2C357.9,647.3,356.3,638.5,361.3,634.3z"/>
	</g>
	<path class="st3" d="M1169,449.4C1169.1,449.4,1169.1,449.4,1169,449.4C1169.1,449.4,1169.1,449.4,1169,449.4L1169,449.4z"/>
	<path class="st3" d="M1158.2,437.8C1158.3,437.8,1158.3,437.8,1158.2,437.8l0.4-0.2c-0.1,0-0.1-0.1-0.2-0.1
		C1158.4,437.5,1158.3,437.6,1158.2,437.8z"/>
	<path class="st3" d="M1072.3,375.9C1072.3,375.9,1072.3,375.9,1072.3,375.9C1072.3,375.9,1072.3,375.9,1072.3,375.9
		C1072.3,375.8,1072.3,375.8,1072.3,375.9C1072.3,375.9,1072.3,375.9,1072.3,375.9z"/>
	<path class="st3" d="M1116.5,395.6C1116.5,395.6,1116.5,395.6,1116.5,395.6l0.1-0.2c-0.1,0-0.2,0-0.3,0
		C1116.3,395.5,1116.4,395.5,1116.5,395.6z"/>
	<path class="st3" d="M1112.1,394C1112.1,394,1112.1,394.1,1112.1,394C1112.2,394.1,1112.2,394.1,1112.1,394
		C1112.2,394.1,1112.2,394,1112.1,394z"/>
	<path class="st3" d="M1116.5,394.1L1116.5,394.1L1116.5,394.1C1116.5,394.1,1116.5,394.1,1116.5,394.1
		C1116.5,394,1116.5,394,1116.5,394.1C1116.5,394,1116.5,394,1116.5,394.1C1116.5,394.1,1116.5,394.1,1116.5,394.1z"/>
	<path class="st3" d="M1118.8,387c0,0,0.1,0,0.1,0C1118.9,387,1118.9,387,1118.8,387C1118.8,387,1118.8,387,1118.8,387z"/>
	<path class="st3" d="M1120.9,364.5C1120.9,364.5,1120.9,364.5,1120.9,364.5C1120.9,364.5,1120.9,364.5,1120.9,364.5
		C1120.9,364.5,1120.9,364.5,1120.9,364.5z"/>
	<path class="st3" d="M1117.9,374.4C1117.9,374.4,1117.9,374.4,1117.9,374.4C1118,374.4,1118,374.4,1117.9,374.4
		C1118,374.4,1117.9,374.4,1117.9,374.4z"/>
	<path class="st3" d="M1070.5,371.8c0-0.1,0-0.1,0-0.2c0,0,0,0,0,0l0-0.1c0,0,0,0,0,0c0,0,0,0,0.1-0.1c0,0,0,0-0.1,0
		c-0.1,0-0.1,0-0.2,0C1070.4,371.7,1070.5,371.8,1070.5,371.8z"/>
	<path class="st3" d="M1122.8,364.6c0,0,0-0.1,0-0.1c-0.1,0-0.3,0.1-0.4,0.1C1122.5,364.6,1122.6,364.6,1122.8,364.6z"/>
	<path class="st3" d="M1147.3,425.1l-0.2,0c0,0,0-0.1,0-0.1c0,0-0.1,0-0.1,0.1c0,0,0.1,0,0.1,0.1c0.1,0,0.1,0.1,0.2,0.1
		C1147.3,425.2,1147.3,425.1,1147.3,425.1z"/>
	<path class="st3" d="M1167,422.1c0,0.1,0,0.1,0,0.2c0.1,0,0.1-0.1,0.2-0.1C1167.1,422.1,1167.1,422.1,1167,422.1z"/>
	<path class="st3" d="M1090.2,353.3L1090.2,353.3c-0.1,0-0.1,0-0.1,0C1090.1,353.3,1090.2,353.3,1090.2,353.3z"/>
	<path class="st3" d="M1154,415.2l0.1-0.1C1154.1,415.1,1154.1,415.1,1154,415.2c0.2-0.1,0.3-0.1,0.4-0.1l-0.3,0c0,0,0,0-0.1,0
		C1154,415.1,1154,415.1,1154,415.2z"/>
	<path class="st3" d="M1112.2,348.8c0-0.1,0-0.2,0-0.3c0,0.1-0.1,0.2-0.2,0.3C1112.1,348.8,1112.1,348.8,1112.2,348.8l-0.1,0.1
		c0,0,0,0,0,0c0,0,0,0,0,0c0.1,0,0.2,0,0.3,0C1112.3,348.9,1112.2,348.9,1112.2,348.8z"/>
	<path class="st3" d="M1169,415.4C1169.1,415.3,1169.1,415.3,1169,415.4C1169.1,415.3,1169.1,415.3,1169,415.4
		C1169,415.3,1169,415.3,1169,415.4z"/>
	<path class="st3" d="M1061.8,374.2c0,0.1,0,0.1,0,0.2c0.1,0,0.2-0.1,0.3-0.1C1062,374.2,1061.9,374.2,1061.8,374.2z"/>
	<path class="st3" d="M1125.1,369.9C1125.1,369.9,1125.1,370,1125.1,369.9L1125.1,369.9c0.1,0.1,0.1,0.1,0.1,0.1
		C1125.2,370,1125.2,370,1125.1,369.9z"/>
	<path class="st3" d="M626.2,581C626.2,581,626.2,581,626.2,581L626.2,581c-0.1,0.1-0.1,0.1-0.1,0.1
		C626.1,581.1,626.2,581.1,626.2,581C626.2,581,626.2,581,626.2,581C626.2,581,626.2,581,626.2,581z"/>
	<path class="st3" d="M1158.2,439c-0.1,0-0.3,0-0.4-0.1c0.2,0.1,0.3,0.2,0.4,0.2C1158.3,439.1,1158.2,439,1158.2,439z"/>
	<path class="st3" d="M1143.1,439.1C1143.1,439.1,1143.1,439.1,1143.1,439.1C1143.1,439.1,1143.1,439.1,1143.1,439.1
		C1143.1,439.1,1143.1,439.1,1143.1,439.1z"/>
	<path class="st3" d="M1076.7,427.7c0,0.1,0,0.1-0.1,0.2c0.1,0,0.2,0,0.3,0C1076.9,427.9,1076.8,427.8,1076.7,427.7z"/>
	<path class="st3" d="M1059.2,357.5C1059.2,357.5,1059.2,357.5,1059.2,357.5C1059.1,357.5,1059.1,357.5,1059.2,357.5
		C1059.1,357.5,1059.1,357.5,1059.2,357.5z"/>
	<path class="st3" d="M1059.2,357.5C1059.2,357.5,1059.2,357.4,1059.2,357.5C1059.2,357.4,1059.2,357.5,1059.2,357.5
		C1059.2,357.5,1059.2,357.5,1059.2,357.5z"/>
	<path class="st3" d="M1070.5,347.5C1070.5,347.5,1070.5,347.5,1070.5,347.5l-0.2,0c0,0,0,0,0,0
		C1070.4,347.5,1070.5,347.5,1070.5,347.5z"/>
	<path class="st3" d="M1180.1,446.3C1180.1,446.3,1180.1,446.3,1180.1,446.3C1180.1,446.3,1180.1,446.3,1180.1,446.3
		C1180.1,446.3,1180.1,446.3,1180.1,446.3z"/>
	<path class="st3" d="M1111.6,321.9c0,0,0.1,0,0.1,0c0,0,0,0,0-0.1C1111.7,321.9,1111.6,321.9,1111.6,321.9L1111.6,321.9
		L1111.6,321.9z"/>
	<path class="st3" d="M1147.5,398.1c-0.1,0.1-0.1,0.1-0.2,0.2c0.1,0,0.2,0,0.2,0C1147.5,398.2,1147.5,398.2,1147.5,398.1z"/>
	<path class="st3" d="M1171.5,450.6c0.1,0,0.1-0.1,0.1-0.1c0,0-0.1,0-0.1,0c0,0,0,0,0,0c0,0,0,0,0,0
		C1171.5,450.5,1171.5,450.6,1171.5,450.6z"/>
	<path class="st3" d="M1081.3,433.6C1081.3,433.6,1081.3,433.6,1081.3,433.6C1081.2,433.6,1081.2,433.6,1081.3,433.6
		C1081.2,433.6,1081.3,433.6,1081.3,433.6z"/>
	<polygon class="st3" points="1180.3,447.6 1180.3,447.6 1180.3,447.6 	"/>
	<path class="st3" d="M1108.3,436.2C1108.3,436.1,1108.2,436.1,1108.3,436.2c-0.1,0-0.1,0-0.1,0.1
		C1108.2,436.2,1108.2,436.2,1108.3,436.2z"/>
	<path class="st3" d="M1055,419.4c0-0.1-0.1-0.2-0.1-0.2c-0.1,0.1-0.1,0.1-0.2,0.2C1054.8,419.4,1054.9,419.4,1055,419.4z"/>
	<path class="st10" d="M1227,348.2c0-0.1,0-0.3,0-0.4c0,0,0,0-0.1,0.1c-0.1,0-0.2,0.1-0.2,0.1C1226.9,348.1,1227,348.1,1227,348.2z"
		/>
	<path class="st10" d="M1233.5,397.2c0-0.1-0.1-0.2-0.1-0.2c-0.1,0.1-0.1,0.1-0.2,0.2C1233.3,397.2,1233.4,397.2,1233.5,397.2z"/>
	<path class="st10" d="M1231.2,405.7C1231.2,405.7,1231.2,405.7,1231.2,405.7C1231.2,405.7,1231.2,405.7,1231.2,405.7
		C1231.2,405.7,1231.2,405.7,1231.2,405.7L1231.2,405.7C1231.2,405.7,1231.2,405.7,1231.2,405.7
		C1231.2,405.7,1231.2,405.7,1231.2,405.7C1231.2,405.7,1231.2,405.7,1231.2,405.7C1231.2,405.7,1231.2,405.7,1231.2,405.7z"/>
	<polygon class="st10" points="1222.9,347.8 1222.9,347.8 1222.9,347.8 	"/>
	<polygon class="st13" points="1112.2,319.4 1112.2,319.4 1112.2,319.4 	"/>
	<line class="st4" x1="467.6" y1="651.7" x2="509" y2="649.7"/>
	<text transform="matrix(1 0 0 1 510.954 653.4955)" class="st7 st8">Sensores sensibles al contacto</text>
	<text transform="matrix(1.0749 0 0 1 465.5866 653.1489)" class="st7 st9">.</text>
</g>
</svg>
