<?xml version="1.0" encoding="utf-8"?>
<!-- Generator: Adobe Illustrator 22.0.1, SVG Export Plug-In . SVG Version: 6.00 Build 0)  -->
<svg version="1.1" id="Capa_1" xmlns="http://www.w3.org/2000/svg" xmlns:xlink="http://www.w3.org/1999/xlink" x="0px" y="0px"
	 viewBox="0 0 500 400" style="enable-background:new 0 0 500 400;" xml:space="preserve">
<style type="text/css">
	.st0{fill:#DC0D09;}
	.st1{fill:#235DA4;}
</style>
<path class="st0" d="M27,194.9c0,0,29.4-0.1,32.4-12.7L56,216.4c0,0-24.4-9.2-29-6.9S27,194.9,27,194.9z"/>
<path class="st0" d="M61.9,149.3c2-2.8,5.8-3.5,9.3-3.7c2.5-0.2,5-0.2,7.4,0.7c3.3,1.2,5.8,4.1,7,7.4s1.4,6.9,1.1,10.3
	c0,0.4-0.1,0.9-0.4,1.2c-0.2,0.2-0.5,0.3-0.8,0.3c-5.5,1.3-11.1,2.1-16.8,2.4c-1.3,0.1-2.7,0.1-4-0.3c-2.7-0.7-7.3-4.7-7.6-7.8
	C56.8,157.3,60.4,151.4,61.9,149.3z"/>
<path class="st0" d="M55.6,170c5.3-3.3,3-8.2,1.4-12.6c-0.5,5.5,2.8,10.1-7.7,11.8c-5.5,0.9-27.6,6-25.3-2.5s-3-14.2-4.2-21.4
	c-0.3-1.7-0.6-3.6,0.2-5.2c0.4-0.8,1.1-1.5,1.7-2.1c2.8-2.6,5.9-4.9,9.3-6.7c2.4-1.3,5.2-2.3,7.8-1.5c6.3,1.9,9.9,9.6,12.8,14
	c-1.9-5.6-4.4-12.2-9.1-15.7s-11.7-3.7-17.5-2.4c-4.6,1-8.6,3.7-12.4,6.5c-4.5,3.3-6.4,5.1-8.6,10.2c-2.6,6.3,0.2,17.3,2.4,22.2
	c2.4,5.2,6,11.8,11.7,13.3C25.1,179.6,51.5,172.5,55.6,170z"/>
<path class="st0" d="M154.4,185.8c0.7-1.9,5.8,3.3,13.1,24.6c3.3,9.5,6.2,24.5,3.1,34.3c0,0-10.9-4.6-35.7,9.4
	c-15.5,8.7-6.2-8.3-0.4-14C157.6,217.5,150.7,195.2,154.4,185.8z"/>
<path class="st0" d="M327.7,150.5c-0.9-9-4-15.5-6.2-24.3c-0.3-1.1-0.6-2.2-1.2-3.2c-0.7-1.1-1.7-1.9-2.7-2.7
	c-4.3-3.5-18.3-7.3-21-5.8c-0.9,0.5-1.9,1.2-2,2.2c-0.1,0.6,0.2,1.2,0.5,1.8c1.9,4.1,2.7,8.8,2.1,13.3c-0.2,1.4-0.4,2.8,0.1,4.1
	c0.3,0.8,1,1.5,1.6,2.2c4.6,4.8,12.7,10.7,17.5,15.3C318.2,154.9,327.7,150.9,327.7,150.5z"/>
<path class="st1" d="M388.9,244.4c3-1.5,3.2-5,3-8c-0.1-2.5-4.1-8.7-5.8-10.6c-26.3-28.6-9.8-61.5-13.3-66.7
	c-0.3-0.4-0.6-0.8-1.1-0.8c-0.4,0-0.7,0.3-1,0.6c-1,1.3-1.7,2.7-2.5,4.2c-5.2,9.9-12.8,24.6-21.8,31.2c-2.3,1.7-4.7,3.2-7.1,4.6
	c-1.5,0.9-6.2,3.5-6.2,3.5s2.7,12.9,5.1,16c3.8,4.7,9.1,8,14.8,9.9c3.4,1.2,7,1.9,10.5,2.9c5.3,1.5,10.3,3.8,14.9,6.8
	C379.4,238.7,387.5,245.1,388.9,244.4z"/>
<path class="st1" d="M451.5,163.5c1.5,2.3,4.6,3.1,7.3,3.4c0.5,0.1,1.1,0.1,1.6,0c0.8-0.2,1.5-0.8,2.2-1.4c1.1-1,2.3-2.1,2.9-3.5
	c0.3-0.7,0.4-1.5,0.5-2.2c0.2-1.1,0.3-2.3,0.3-3.4c0-1.1,0-2.3-0.4-3.3c-0.3-0.8-0.9-1.5-1.5-2.1c-1.3-1.4-2.8-2.6-4.6-3.3
	C447.4,143.2,448.6,159.1,451.5,163.5z"/>
<path class="st1" d="M465.2,181.5c-1.8-4.6-1.1-3.4-3-8c-5.3,0.1-12.2-2.5-17-0.1c-0.2,0.1-0.5,0.2-0.6,0.5
	c-0.1,0.2-0.1,0.4-0.2,0.6c-0.6,5.3-0.6,10.6,0.1,15.8c0.3,2.5,0.4,5.1,0.7,7.6c3.1,22.3,13.2,16,17.1,10.1c1.9-2.9,3.4-6.1,4-9.5
	c0.5-3,3.1-3,1.5-9.5C467.7,188.6,466.1,183.8,465.2,181.5z"/>
<path class="st1" d="M384.6,311.7c-0.7-6.8,0-7-2-13.5c-5.7-2.5-14.5-5.6-17.9-0.4s-3.9,11.7-4.1,17.8c-0.2,9.6,0.5,19.2,3,28.5
	c1.6,5.9,4.4,12.1,9.9,14.9c6.1,3.1,18.1,5.7,16.2-2.8c-1.5-6.5-2.5-18.1-3.8-26.8C385.2,323.6,385.2,317.6,384.6,311.7z"/>
<path class="st0" d="M128.4,320.5c-0.5-6.1-1.1-6.2-0.4-12.2c4.6-3.1,11.9-7.3,15.7-3.2s5.4,9.7,6.5,15.1c1.7,8.4,2.7,17.1,2,25.7
	c-0.5,5.5-2,11.4-6.3,14.8c-4.9,3.8-15.1,8-14.8,0.2c0.2-6-0.7-16.5-1-24.3C129.8,331.1,128.9,325.8,128.4,320.5z"/>
<path class="st1" d="M440.6,172.2c-5.9-2.4-9.1-9.4-8.5-15.7c0.6-6.4,3.9-11.4,8.6-15.7c-4.3-1.6-6.2-5.5-9.9-8.1
	c-6.1,5.5-9.5,14.2-16.4,18.7c-6.1,3.9-1.7,2.4-8.7,4.3c-2.6,0.7-19.6,3.6-22.4,3.5c-3-0.1,10.4,67.9,11.9,70.9
	c6.1-3.7,23.9-4.5,36.9-6.5c4.6-0.7,9.6-1.4,14.1-1.8c-0.9-8-3-47.4-3.4-48.1C442.4,172.9,441.4,172.6,440.6,172.2z"/>
<path class="st1" d="M495.8,119.8c-3.2-4.6-7.7-8.3-12.8-10.7c-1.5-0.7-6.6-0.3-8.2-0.7c-1.9-0.5-7.1,1-8.4,2.6
	c-1.3,1.7-14,15.4-11.7,16.1h0.1c-1.8,3.5-2.2,7.8-1,11.6c0.2,0.5,0.3,1,0.7,1.4c0.2,0.2,1,1.2,1.4,1.3c1.2,0.3-0.2-2.9-0.3-3.2
	c-1-2-1.4-2.9-1-5.1c0.3-1.8,1.6-9,9.6-17.8c1.9-2.1,5.2-3.7,8-3.9c1.3-0.1,2.7,0.2,4,0.5c1.9,0.4,11.2,3.2,8.2,10.6
	c-2,4.9-4.1,10-5.7,13.3c-5.8,11.5-21.6-0.4-20.6,5.8c0.9,6.3,15.1,6.3,15.8,7.9c0.7,1.6,2,3.1,3.7,3.5c1.4,0.3,2.8,0,4.1-0.5
	c2.7-1.1,5.2-1.6,7-3.9c1-1.3,1.2-4.4,2-5.8c1.8-3.2,4.2-6,6-9.2c0.9-1.6,1.1-3.2,1.4-5C498.4,125.5,497.6,122.4,495.8,119.8z"/>
<path class="st1" d="M332.2,90.7c-7.1-10.7-14.4-21.3-21.7-31.8c-1.7-2.5-4.1-6.7-7.3-4.6c-2,1.3-4.7,5.6-5.4,7.8
	c-1,3.6,0.8,7.3,2.5,10.5c3.1,5.6,6.1,11.2,9.2,16.9c1.5,2.8,3.1,5.6,5.5,7.7c4.3,3.7,11.2,4,15.9,0.8c1.5-1,2.8-2.5,2.7-4.3
	C333.5,92.6,332.8,91.6,332.2,90.7z"/>
<path class="st1" d="M277.8,10.9c-0.9-1.4-12.7,3.3-12.5,5.6c0.6,5.5,1.2,11.1,1.9,16.6c0.1,1.2,0.3,2.3,0.9,3.3
	c0.4,0.7,1.1,1.3,1.7,1.9c3,2.8,5.4,6.2,7.3,9.8c0.6,1.2,1.8,8.7,4.4,6.8c0.7-0.6,0.9-4.3,1.2-5.3c0.5-1.9,1.2-3.7,2-5.4
	c0.8-1.6,1.7-3.2,2.8-4.6c0.3-0.4,3.8-3.7,3.8-3.7c-1-2.6-2-5.3-3.1-7.9C285.5,20.7,280.9,16,277.8,10.9z"/>
<path class="st1" d="M416.4,382.9c-8.7-6.4-17.9-11.9-28.7-14.3c-1.9-0.4-6.2-1.9-8.1-1.2c-1.9,0.6-1.4,3.2-2.7,4.7
	c-3.3,3.7-7.8,6.3-12.7,7c0.1,2.6,0.2,5.1,0.3,7.7c3.9,1.1,7.3,4,9.1,7.6c0.3,0.7,0.6,1.4,1.2,1.9c0.5,0.5,2.6,0.9,3.3,1.1l36.8,0.7
	c3.6-0.6,7.2-3.6,6.8-7.2C421.4,387.8,418.8,384.6,416.4,382.9z"/>
<path class="st0" d="M105.8,387.4c7-5.1,6.1-2,23.5-10.1c1.4-0.6,4.5-3.6,6-3.1s1.1,2.6,2.1,3.7c2.6,3,6.3,5,10.2,5.6
	c-0.1,2.1-0.2,4.1-0.3,6.2c-3.1,0.9-5.8,3.2-7.3,6.1c-0.3,0.5-0.5,1.1-1,1.5c-0.4,0.4-2.1-0.3-2.6-0.2l-29.4,0.5
	c-2.9-0.5-5.7-1.9-5.5-4.8C101.8,390.6,103.9,388.8,105.8,387.4z"/>
<path class="st0" d="M72.2,172.5c-2.1-0.1-4.5,0.3-5.7,2.2c-0.5,0.9-0.7,1.9-0.8,3c-0.8,6.7-1.4,29.3-1.8,36
	c-0.1,1.3-0.2,2.6,0.2,3.8c0.7,2.5,3,4.3,5.3,5.7c2.3,1.5,4.7,3,7.1,4.4c1.5,0.9,3.3,1.8,4.9,1.1c1.3-0.5,2-2,2.2-3.4
	c0.1-1.4-0.4-2.7-0.6-4.1c-2.6-22.4-3.4-38.7-3.2-47.1C77.9,174,74.2,172.6,72.2,172.5z"/>
<path class="st0" d="M174.2,137c1.6,0.7,2.7,2.4,3.4,4c1.1,2.6,1.6,5.4,3.1,7.7c1.6,2.3,4.8,3.9,7.2,2.5c1.2-0.7,1.9-1.9,2.5-3.2
	c1.8-3.7,1.2-8.3-1.3-11.5c-1.8-2.3-3.5-3.5-6.3-4.3c-1.4-0.4-2.7-0.8-4.1-0.8c-4.1,0-8.4,3.4-11.1,6.3
	C169.7,137.6,171.8,135.9,174.2,137z"/>
<path class="st0" d="M245.9,175.1c12.2-7,24.4-14.2,36.5-21.5c2.8-1.7,7.6-4,5.5-7.7c-1.3-2.3-5.8-5.6-8.2-6.5
	c-3.8-1.4-8,0.3-11.7,2c-6.4,2.9-12.8,5.9-19.2,8.8c-3.2,1.5-6.4,3-8.9,5.5c-4.4,4.5-5.3,12-2.1,17.3c1,1.7,2.6,3.3,4.5,3.3
	C243.7,176.3,244.8,175.7,245.9,175.1z"/>
<path class="st0" d="M94.9,240.3c2.6,0.6,19,6.1,21.4,7.4c2.6,1.5,26.6-54.5,22.7-68.3c-7.1,0.4-23.2-7.2-35.6-11.6
	c-4.4-1.6-9.2-1.2-13.3-3C87.2,172.3,87.9,238.6,94.9,240.3z"/>
<g>
	<path d="M495,117.1c-4.7-6.1-14.4-10.1-22.6-9.4c-3.7,0.4-8.1,3.4-12,8.3c-5.8,7.3-8.9,16.6-7.9,23.5c0.1,0.9-0.3,2.1-0.9,2.9
		c-0.3,0.4-0.7,0.8-1.3,0.9c-4.1,0.5-7.7-1.9-10.7-4.1c-1-0.7-2-1.5-2.9-2.3c-2.4-2.1-5-4.2-8-5.1c-9.9-2.9-23.7-4.2-37-5.4
		c-18.8-1.7-38.1-3.5-43.8-9.9c-0.9-1-1.4-1.8-1.9-2.6c-1.2-1.9-2.1-3.3-6.5-4.4c-1-0.3-1.4-3.5-1.5-4.7v-0.4
		c-1.7-14.8-30.8-49.9-41.8-63.1c-1.9-2.3-3.3-3.9-3.7-4.5c-0.6-0.8-1.5-3.4-2.6-6.4c-2.2-6.1-7.2-13.7-11.5-19.9
		c-2.4-3.5-3.2-8-6.4-8.2h-0.1c-3.6,0.3-7.9,4.5-7.9,12.5c0,5.9,3,22.1,3.5,23.6c0.4,1.2,0.3,3.1,0.2,5c-0.1,2.3-0.2,4.7,0.6,6.3
		c2,4,6.2,4.8,9.6,5.4c1.8,0.3,3.6,0.6,4.4,1.3c0.9,0.9,7.6,15.4,8.1,17.3c-0.4,0.5-15.8,11.6-15.4,18.9c0.6,6.2,6.2,13.2,13.4,20.2
		c0,0,3.2,2.1-2.3-5.1c-4.4-5.8-9.1-10.3-9.5-14.9s7.6-11.2,12.1-14.5c3-2.2,20.4-14.7,19.9-15.3c-0.6-0.7-16.2,10.2-16.2,10.2
		c-2.2-4-8.9-17.6-9.5-18.1c-1.2-1-3.1-1.3-5.1-1.7c-3.2-0.6-6.9-1.3-8.5-4.6c-0.6-1.2-0.5-3.4-0.4-5.5s0.2-4.1-0.3-5.6
		c-0.5-1.4-3.4-17.5-3.4-23c0-5.6,2.1-10.5,6.5-11c2.6,0.2,2.9,4.2,5,7.1c4.3,6,9.4,13.9,11.6,19.9c1.2,3.4,2.1,5.8,2.8,6.8
		c0.4,0.6,1.7,2.2,3.7,4.6c10.9,13.1,39.8,48,41.5,62.4v0.4c0.2,2.2,0.6,5.5,2.6,6c3.9,1,4.5,2,5.7,3.8c0.5,0.8,1.1,1.7,2,2.8
		c0.2,0.2,0.4,0.4,0.6,0.7c1.5,1.5,6.8,6.5,8.6,7.6c1.8,1.1,3.6,2,4.7,3.5c0.5,0.7,0.9,1.6,1.1,2.5c0.3,1,0.5,2.1,0.9,3.1
		c0.7,2,1.5,4,2.4,5.9s2,3.7,3.1,5.5c4.7,7.6,6.3,9.6,7,10c0.5,0.5,1.1,0.8,1.4,1c1.8,1.1,6,2.9,8.8,2.9c1.1,0,1.9-0.3,2.3-0.9
		c1-1.4,1.2-3.9,0.6-5.7c-0.4-1.2-1.1-1.9-2.1-2.2c-1.6-0.4-10.2,0.4-11.7,2.7c-1.8-2.8-3.4-5.6-5-8.5c-1.9-3.6-3.7-7.4-5-11.2
		c-0.3-1-0.6-1.9-0.9-2.9c-0.3-1.1-0.8-2.2-1.5-3.1c-0.7-0.9-1.7-1.6-2.6-2.2s-1.9-1-2.8-1.5c-1.4-0.7-2.4-1.8-3.5-2.8
		c8.7,3.5,23.1,4.9,38.1,6.2c13.3,1.3,27,2.5,36.8,5.4c2.7,0.8,5.2,2.9,7.5,4.8c0.9,0.7,1.9,1.6,2.9,2.3c3.3,2.4,7.2,4.9,11.8,4.4
		c0.9-0.1,1.7-0.6,2.3-1.4c0.9-1.1,1.4-2.7,1.2-4c-1.1-7.4,3-16.6,7.6-22.4c3.7-4.6,7.7-7.4,11-7.7c7.7-0.7,16.9,3.1,21.3,8.8
		c7.1,9.2,1.9,16.3-1.9,21.4c-1.4,2-2.6,3.6-2.8,5c-0.8,5.2-4.4,6.5-6,7h0.2c-0.5,0.2-1.1,0.3-1.7,0.4c-1.2,0.2-2.3,0.4-3.4,1.2
		c-1.6,1.3-3,3.5-4,5.3l-0.3,0.6c-1,1.8-0.5,3,0,4.1c0.2,0.5,0.5,1.1,0.6,1.7c0.3,1.5-0.2,2.2-1,3.3c-0.3,0.3-0.6,0.7-0.9,1.2
		c-1.4,2.3-0.5,4.4,0.5,6.4c0.4,0.9,1.7,3.2,3.2,5.8c2.6,4.5,6.1,10.7,6.5,11.9c0.7,1.8,1.7,9.5,1,11.4c-0.5,1.2-1.2,2.4-1.9,3.6
		c-0.3,0.6-0.7,1.2-1,1.8c-1.2,2.1-1.1,3.8-1,5.7c0,0.3,0,0.7,0,1.1c0,0.5,0,0.9,0,1.4c0.1,3.9,0.3,8.7-1.9,11.7
		c-2.6,3.6-10.6,9-15.9,10.1c-5.6,1.2-11.9-6.1-13.1-9.4c-0.2-0.8-0.4-2.3-0.6-3.8c-0.1-1.2-0.3-2.1-0.4-2.9
		c-0.6-6.2-3.4-34.5-3.2-42.6L445,166c0-1.3,0.1-2.6,0-4c0-0.7-0.1-1.3-0.1-1.9c0-0.5,0.2-1.1,0.3-1.7c0.3-1.3,0.7-2.3,1.4-3.3
		c0.6-1,1.4-2,2.3-2.9c1.7-1.9,3.6-3.6,5.8-4.4c2.2-0.8,4.7-0.4,6.7,0.9s3.5,3.3,4,5.7s0.3,4.9-0.6,7.2c-0.4,1.1-1,2.3-1.8,3.1
		c-0.4,0.4-0.8,0.8-1.3,1.1c-0.3,0.1-0.5,0.2-0.8,0.3s-0.7,0.3-1.1,0.6s-0.6,1-0.5,1.5s0.2,0.8,0.3,1.1l0.7,1.8l1.4,3.6
		c2,4.8,3.9,9.7,5.9,14.5c-1.6-5-3.3-9.9-5-14.9l-1.3-3.7l-0.6-1.9c-0.1-0.3-0.2-0.6-0.2-0.8s0-0.2,0.1-0.3c0.2-0.2,1-0.3,1.7-0.7
		c0.7-0.3,1.2-0.8,1.7-1.3c1-1,1.7-2.3,2.2-3.5c1.1-2.5,1.5-5.4,0.9-8.2c-0.5-2.8-2.3-5.3-4.7-6.9c-1.2-0.8-2.6-1.3-4-1.5
		s-3-0.1-4.3,0.4c-2.8,1-4.8,3-6.6,4.9c-0.9,1-1.8,2.1-2.5,3.2c-0.4,0.6-0.7,1.2-1,1.9s-0.5,1.3-0.6,2c-0.2,0.7-0.3,1.4-0.4,2.1
		c0,0.8,0,1.4,0.1,2c0,1.2,0,2.6,0,3.9c0,5.2-0.2,10.4-0.2,15.7c0,5.1,2,34,2.7,39.8c-5.7,0-40,5.1-41.7,5.4
		c-11.2,1.9-13,5.3-12.6,11.3c0.2,2.6-1,4.9-3.7,6.8c-1.2,0.8-6.1,5.4-6.1,7.6c0,2.7,2.1,10.9,3.8,17.5c0.9,3.4,1.6,6.3,1.9,7.8
		c0.7,3.9,1.4,8.4,0.1,12.9c-0.1,0.3-0.2,0.7-0.3,1c-0.6,1.8-1.1,3.5-0.9,5.6c0,0.5,0.2,2,0.5,4.1c0.8,6.8,2.5,19.6,2.6,25.5
		c0.1,8.5,3.3,31.5,5.2,40.6c-0.5,0-13.1-0.9-14.5,0c-0.1,0.1,12.7,1.9,17.8,4.7c6.4,3.4,17,9.2,21.3,14.8c2.4,3.2,5.7,3.6,8.4,3.9
		c3.2,0.3,4.6,0.6,4.5,3.8c0,0.6-0.3,1.1-0.7,1.5c-0.6,0.5-1.5,0.8-2.2,0.7c-0.5-0.1-6.2-0.1-14.4-0.1c-10.2,0-24.3,0-37.2,0.1
		h-10.8c-1.5,0-1.8-13-1.9-17.9c-0.1-4.8-0.2-9-0.6-10.8c-0.1-0.4-0.4-0.6-0.7-0.6c-4.7,0-8.2-0.6-8.3-0.6H355
		c-0.5,0.1-1.4-0.5-1.7-2.7V364c-1.8-6.5-13.4-123.3-13.5-136c-0.5-7.4-9.5-35.4-19-61.1c0,0-2.9-3.5-1.7-0.5
		c9.4,25.4,19.1,54.4,19.5,61.6c0,12.6,11.6,129.1,13.5,136.2c0.2,1.6,0.7,2.8,1.6,3.4c0.7,0.5,1.4,0.5,1.7,0.5
		c0.9,0,2.8,0.6,7.7,0.6c0.3,2,0.4,5.8,0.5,9.9c0.2,12.1,0.6,19.4,3.4,19.4h10.8c43.4-0.1,50.7,0,51.2,0c0.1,0,0.2,0,0.3,0
		c0.9,0,2.1-0.2,3.1-1c0.8-0.6,1.2-1.5,1.2-2.5c0.2-4.7-2.9-5.1-5.8-5.4c-2.5-0.3-5.3-0.6-7.4-3.3c-4.5-5.9-14.9-11.5-21.8-15.2
		c-1.2-0.7-2.4-1.3-3.4-1.9c0.5,0,0.7-0.2,0.8-0.3c0.2-0.2,0.3-0.6,0.2-0.8c-1.9-8.4-5.2-32.6-5.4-41c-0.1-6-1.7-18.8-2.6-25.7
		c-0.3-2.1-0.5-3.6-0.5-4.1c-0.2-1.8,0.3-3.3,0.8-5c0.1-0.3,0.2-0.7,0.3-1c1.4-4.8,0.7-9.5-0.1-13.6c-0.3-1.5-1-4.5-1.9-7.9
		c-1.6-6.2-3.7-14.6-3.7-17.1c0.1-1.2,3.9-5.2,5.5-6.4c3.1-2.3,4.5-5,4.3-8.2c-0.3-4.8,0.3-7.9,11.4-9.7c6.4-1,39.1-5.7,41.5-5.4
		c0,0,0,0.1,0.1,0.2c0.1,0.6,0.2,1.1,0.3,1.4c0.2,0.9,0.3,2,0.4,2.9c0.2,1.6,0.4,3.2,0.7,4.1c1.5,4.3,8.4,11.7,14.8,10.4
		c5.6-1.1,14-6.8,16.8-10.7c2.5-3.5,2.4-8.6,2.2-12.7c0-0.5,0-1,0-1.4s0-0.8,0-1.2c-0.1-1.8-0.1-3.2,0.8-4.9c0.3-0.6,0.7-1.1,1-1.7
		c0.7-1.2,1.5-2.4,2-3.8c0.9-2.4-0.3-10.6-1-12.5c-0.5-1.2-3.1-6-6.6-12.1c-1.5-2.6-2.8-4.9-3.2-5.7c-0.9-1.7-1.6-3.3-0.6-4.9
		c0.3-0.4,0.5-0.8,0.8-1.1c0.9-1.2,1.8-2.3,1.3-4.5c-0.2-0.8-0.5-1.4-0.7-2c-0.5-1-0.7-1.6-0.1-2.7l0.3-0.6c0.9-1.7,2.2-3.8,3.6-4.9
		c0.7-0.5,1.7-0.7,2.7-0.9c0.7-0.2,1.3-0.3,2-0.5h0.1c1.7-0.6,6.1-2.1,7-8.2c0.2-1,1.3-2.5,2.6-4.3C497,135.1,502.8,127.2,495,117.1
		z M385.8,152.8c0.6,0.1,0.9,0.7,1.1,1.2c0.5,1.3,0.3,3.3-0.4,4.3c-0.1,0.2-0.7,0.4-2.4,0.1c-3.6-0.6-7.8-2.9-8.2-3.7
		C376.8,153.5,384.4,152.4,385.8,152.8z"/>
	<path d="M164,182.2c5.9-3.8,48.5-27.9,54.5-31.3c8.7-4.9,17.6-10,26.7-14.5c7-3.5,14.6-6.9,22.4-10c5.8-2.3,11.5-3.9,17.6-5.5
		c1.2-0.3,2.4-0.7,3.6-1c1.1-0.3,2.7-1.4,4.9-2.8c5-3.4,12.7-8.4,20.3-8.1c0.4,0,0.9,0.4,1.5,1.1c2.4,2.7,4.7,9,4.5,11.2
		c-0.1,0.6,0.4,2.6,2.1,8.7c2.4,9,6.5,24,5.8,27.1c-0.4,1.8-1.5,4-3.3,4.5c-1.9,0.5-4.2-4.9-6.8-8c-0.7-0.7-15.2-14.3-23.4-21.5
		c-3.1-2.7-2.8-5.4-3.5-5.5c-0.7,0.1,0.8,6.4,2.5,10.5s2.9,9.9,3.6,11.8c0.2,0.5,0.4,1,0.6,1.5c1,2.3,2.5,3.7,0.9,4.8
		s-4.1,1.8-6.4,2.4c-1.1,0.3-2.1,0.6-3.1,0.9c-3.7,1.3-7.3,2.6-10.8,4c-7.3,2.9-14.4,6.1-21.1,9.4c-12.8,6.4-24.6,14.5-36,22.4
		c-2,1.4-4.1,2.7-6.1,4.1c-4.5,3-9,6.1-13.4,9.4c-5.1,3.8-10.6,8.4-14.9,12.9l-1.9,2c-2.1,2.1-4.1,4.3-6.1,6.4l-2.2,2.4
		c-2.2,2.4-4,4.2-4.9,7.6c-1.8,6.6-2.4,13.8-4.1,21.9c-0.6,2.6-1.1,5.2-1.7,7.8c-1,4.4-2,9-2.8,13.5c-1.5,8.2-0.1,15.6,1.3,22.7
		c1.8,8.9,3.2,20.9,4.6,32.5c0.9,8.1,1.8,15.6,2.8,21.9l0.1,0.5c0.5,3.1,0.7,4.8-2,5.8c-2.9,1.1-6.1,1.8-9.2,2.5l-0.3,0.1
		c-1.8,0.4-3.6,0.7-5.4,1s-3.6,0.6-5.3,1c-2.6,0.6-4.1,1.8-4.7,3.7c-0.8,2.5,0.4,6.7,1.7,11.2c1.2,4.4,2.6,9.4,1.4,11
		c-0.2,0.3-0.5,0.6-1.3,0.6c-10.8,0.3-49.1,0.4-49.5,0.4c-2.7,0-4.3-1.1-4.6-2.8c-0.2-1.3,0.5-2.7,1.6-3c0.5-0.1,1-0.2,1.5-0.2
		c0.8,0,1.6,0.1,2.6,0c1.9,0.3,4.1,0.6,5.7-1.3c2.9-3.6,8.2-5.4,13.2-7.1c6.1-2.1,19.5-7,20.9-10.6c0.1-0.2-12.8,1-13.8,0.2
		c0.1-0.4,0.1-1.2,0.2-2.2c0.8-9.8,3.2-39.9-0.7-48.7c-1.5-3.4-2.8-8.8-3.8-12.8c-1.6-6,4.8-33,4-33c-0.3,0-8.6,37-9.4,39.3
		c-0.2-0.1-0.3-0.1-0.5-0.1c-3.8-0.4-6.1-0.7-6.8-1c0.2-2.9,5.6-23.1,8.3-33c1-3.7,1.7-6.5,2-7.5c0-0.2,0-0.3,0-0.4l-2.7-10.3
		c0-0.3-0.3-0.6-0.6-0.6s-0.6,0.1-0.7,0.4c-2.9,5.6-6.6,14.6-9.6,21.8c-2.1,5.1-4.3,10.3-5,11.5c-1.3-0.2-5.8-1.7-7-2.4
		c0.6-1.7,3.6-9,6.6-16c9.7-23,11.1-26.8,10.8-27.6c-1.3-3.6-16-5.4-20.1-5.8c-0.2-11.4-7.1-60.8-4.2-71.8c0.7-2.8,1.5-5.7,1.8-8.7
		c0.4-3,0.3-6.1-0.5-9.1s-2.5-5.8-5.2-7.7c-2.6-1.8-5.8-2.5-8.9-2.5c-1.5,0-3,0.1-4.5,0.4s-3,0.7-4.5,1.5c-1.4,0.8-2.6,2-3.5,3.2
		c-0.9,1.3-1.6,2.6-2.2,3.9c-0.6,1.3-1.3,2.7-1.7,4.2c-0.2,0.8-0.4,1.6-0.4,2.4c0,0.4,0,0.8,0.1,1.2c0,0.2,0.1,0.4,0.2,0.7
		c0.1,0.2,0.2,0.5,0.3,0.7c0.5,0.8,1.1,1.4,1.7,1.9c0.6,0.5,4.2,2.4,4.4,4c0.2,1.3-5.2,16.1-7,47.4c0,0-16.2-5.4-18.8-4.9
		c-1.3,0.2,20.9,7.6,20.9,7.6s3.3-38.8,6.2-50.2c0.1-0.9-0.2-1-0.5-1.4s-0.5-0.7-0.8-1c-0.6-0.6-1.2-1-1.8-1.5
		c-1.1-0.9-2.4-1.8-2.9-2.7c-0.1-0.1-0.1-0.2-0.1-0.3s-0.1-0.2-0.1-0.4c0-0.3-0.1-0.6,0-0.9c0-0.6,0.1-1.3,0.3-1.9
		c0.4-1.3,1-2.6,1.7-3.9c1.3-2.6,2.7-5.1,5-6.3s5.3-1.5,8.1-1.5s5.6,0.6,7.8,2.1s3.7,3.9,4.5,6.6s0.9,5.5,0.6,8.3s-1,5.7-1.6,8.5
		c-5.3,17.9,5.4,67.2,3.5,76.4c-1.3,5.8-4.7,4.2-12.1,5.3c-3.9,0.5-37.2-9.9-42-15.3c-1.2-1.4-10.1-9.1-8.3-13.5L25,224
		c2.3-7.6,1.6-26.6,1.4-28.6c-0.1-1.3-0.6-2.4-1-3.5c-0.3-1-0.7-1.9-0.8-2.8c-0.2-1.3-3.3-4.8-1.4-8.5c1.1-2.7-4.9-3.3-5.2-3.3
		c-3.7-0.2-10.4-8.5-13.4-19c-4.2-14.9,1.9-21.7,6-24.5c6.4-4.4,13.9-9.5,20.9-8.5c10.6,1.5,15,7.4,14.5,6.3
		c-2.2-4.7-10.5-7.2-14.9-7.5c-7.5-0.6-15.2,4.2-21.9,8.8c-7.6,5.1-10,14.6-6.7,26.1c2.7,9.5,8.9,18.4,13.6,19.9
		c1.1,0.4,5.5,0.8,5.2,1.2c-2.7,4.2,1,7.8,1.2,9.5c0.1,1.1,0.5,2.1,0.9,3.1s0.8,2,0.9,3.1c0.2,2-1.6,28.9-1.6,28.9
		c-1.8,7.1,7.4,13.7,8.6,15c4.8,5.4,39.1,15.9,43.3,15.8c12.8-0.4,14.4-2.2,14.8-9.5c6.1,1.8,16.6,1.8,18,4.6
		c-0.3,1.9-6.3,16.2-10.7,26.7c-6.9,16.5-6.9,16.6-6.7,17.1c0.5,1.3,8.1,3.7,9.1,3.4c0.7-0.1,0.9-0.5,5.9-12.4
		c2.7-6.4,5.9-14.3,8.6-19.9l2.1,8.1c-0.2,1.2-1,3.9-1.9,7.3c-7.6,28.4-8.7,33.3-8.2,34.1c0.3,0.7,1.6,1.1,8,1.8
		c0.5,0,0.9,0.1,1,0.1c0.3,0,0.7-0.2,0.8-0.5c1-2.6,1.5-5,2-7.4c0.1-0.6,0.2-1.1,0.3-1.6c0.2,0.6,0.3,1.2,0.5,1.9
		c1,4,2.3,9.5,3.9,13c2.5,5.6,2.7,21.8,0.6,48c-0.1,1-0.2,1.8-0.2,2.3c-0.1,0.4,0.1,0.8,0.4,1.1c0.9,0.9,3.2,0.8,4.6,0.7
		c-0.7,3.7-5.5,5.3-11,7.2c-5,1.7-10.7,3.6-13.9,7.6c-0.9,1.2-2.2,1-4.3,0.7c-1.4-0.2-3-0.5-4.5,0c-1.8,0.6-2.9,2.6-2.6,4.7
		c0.1,0.9,0.9,4,6,4.1c0.4,0,38.8-0.1,49.5-0.4c1.1-0.1,1.9-0.4,2.5-1.2c1.7-2.2,0.3-7.1-1.2-12.3c-1.1-4-2.3-8.2-1.7-10.3
		c0.4-1.4,1.5-2.2,3.5-2.7c1.7-0.3,3.5-0.6,5.2-0.9c1.8-0.3,3.7-0.6,5.5-1l0.3-0.1c3.1-0.8,6.4-1.5,9.4-2.6c3.9-1.5,3.5-4.5,3-7.5
		l-0.1-0.5c-0.9-6.2-1.8-13.8-2.8-21.8c-1.4-11.7-2.9-23.7-4.6-32.7c-1.6-8.3-2.6-14.8-1.3-22.2c0.7-4.5,1.7-9,2.7-13.4
		c0.6-2.6,1.2-5.2,1.7-7.8c1.6-8,2.3-15.2,4.1-21.8c0.8-3,2.3-4.7,4.5-7l2.2-2.4c1.9-2.1,4-4.3,6-6.4l1.9-2c4.3-4.4,9.7-9,14.7-12.7
		c4.3-3.2,8.9-6.3,13.3-9.3c2-1.3,4.1-2.7,6.1-4.1c11.3-7.8,23.1-15.9,35.8-22.3c6.6-3.3,13.7-6.4,21-9.3c3.5-1.3,7.2-2.6,10.8-3.9
		c0.9-0.3,1.9-0.6,3-0.9c2.5-0.7,5-1.4,6.9-2.7c2.6-1.9,1.5-4.6,0.6-6.6c-0.2-0.5-0.4-1-0.6-1.4c-1.1-3.3-3-9-3.7-12.2
		c4.1,3.1,18.7,15.8,20.9,18.4c3.1,3.6,5.9,9.1,8.3,8.5s3.9-3.3,4.4-5.6c0.7-3.2-2.4-15-5.9-27.8c-1.1-4-2.1-7.7-2.1-8.2
		c0.3-2.5-2.1-9.2-4.8-12.3c-0.9-1-1.8-1.6-2.6-1.6c-8.1-0.4-16,4.8-21.2,8.3c-1.9,1.3-3.5,2.4-4.4,2.6c-1.2,0.4-2.4,0.7-3.6,1
		c-6.1,1.7-11.9,3.2-17.8,5.6c-7.9,3.1-15.5,6.5-22.6,10c-9.1,4.5-18.1,9.7-26.8,14.6c-6,3.3-52,29-55.1,31.1"/>
	<path d="M167.2,142.6c1.5-5.1,3.8-8.8,8.1-10.1c4.4-1.4,9.6,0,12.7,3.3c2.9,3,3.6,7.1,2,11.5c-1.1,3.1-2.5,3.8-3.9,4.5
		c-0.8,0.4-1.6,0.8-2.4,1.6c-1.8,1.9-0.7,2.5,0.4,1.4c0.6-0.6,1.2-0.9,2-1.3c1.5-0.8,4.2-1.5,5.5-5.1c1.8-4.9,0.1-9.7-3.2-13.2
		c-3.5-3.8-9.2-5.3-14.2-3.8c-4.9,1.5-8.2,5.5-9.2,11.3c-0.4,2.4-3,22.5-74.8,18.1c-0.2,0-0.3,0.7-0.3,0.7c2.8,0.4,3.7,0.1,9.1,0.8
		C106.3,163.3,160.7,164.8,167.2,142.6z"/>
</g>
</svg>
