<?xml version="1.0" encoding="utf-8"?>
<!-- Generator: Adobe Illustrator 27.0.0, SVG Export Plug-In . SVG Version: 6.00 Build 0)  -->
<svg version="1.1" id="Capa_1" xmlns="http://www.w3.org/2000/svg" xmlns:xlink="http://www.w3.org/1999/xlink" x="0px" y="0px"
	 viewBox="0 0 897 554.9" style="enable-background:new 0 0 897 554.9;" xml:space="preserve">
<style type="text/css">
	.st0{fill:#F8CCCC;}
	.st1{fill:#E67D28;}
	.st2{fill:#AB9FA0;}
	.st3{fill:#E0B333;}
	.st4{fill:none;}
	.st5{fill:#7C7C7C;}
	.st6{font-family:'Arial-BoldMT';}
	.st7{font-size:19.2632px;}
	.st8{fill:#FFFFFF;}
	.st9{font-size:16.9969px;}
	.st10{fill:#CED4DA;}
	.st11{font-size:22.6625px;}
	.st12{font-size:21.7964px;}
</style>
<rect id="backgorund" class="st0" width="897" height="554.9"/>
<g id="Bronce">
	<rect x="504.9" y="369" class="st1" width="62.2" height="44.5"/>
	<rect x="640.2" y="324.5" class="st1" width="62.2" height="89"/>
	<rect x="369.6" y="280" class="st1" width="62.2" height="133.5"/>
	<rect x="234.3" y="280" class="st1" width="62.2" height="133.5"/>
</g>
<g id="Plata">
	<rect x="504.9" y="324.5" class="st2" width="62.2" height="44.5"/>
	<polygon class="st2" points="640.2,324.5 702.4,324.5 702.4,324.5 	"/>
	<rect x="369.6" y="235.5" class="st2" width="62.2" height="44.5"/>
	<rect x="234.3" y="190.9" class="st2" width="62.2" height="89"/>
</g>
<g id="Oro">
	<rect x="504.9" y="235.5" class="st3" width="62.2" height="89"/>
	<polygon class="st3" points="640.2,324.5 702.4,324.5 702.4,324.5 	"/>
	<rect x="369.6" y="146.4" class="st3" width="62.2" height="89"/>
	<rect x="234.3" y="101.9" class="st3" width="62.2" height="89"/>
</g>
<g transform="translate(94.1517857142857,0)">
	<line class="st4" x1="171.2" y1="413.5" x2="171.2" y2="420.3"/>
	<text transform="matrix(0.9769 0 0 1 145.0642 437.4)" class="st5 st6 st7">Brasil</text>
	<text transform="matrix(0.9769 0 0 1 166.5974 355.735)" class="st8 st6 st9">3</text>
	<text transform="matrix(0.9769 0 0 1 166.5974 236.7569)" class="st8 st6 st9">2</text>
	<text transform="matrix(0.9769 0 0 1 166.5974 151.7725)" class="st8 st6 st9">2</text>
	<text transform="matrix(0.9769 0 0 1 166.5974 90.5836)" class="st5 st6 st9">7</text>
</g>
<g transform="translate(216.38392857142856,0)">
	<line class="st4" x1="184.3" y1="413.5" x2="184.3" y2="420.3"/>
	<text transform="matrix(0.9769 0 0 1 113.1846 437.4)" class="st5 st6 st7">Estados Unidos</text>
	<text transform="matrix(0.9769 0 0 1 179.6665 355.735)" class="st8 st6 st9">3</text>
	<text transform="matrix(0.9769 0 0 1 179.6665 262.2525)" class="st8 st6 st9">1</text>
	<text transform="matrix(0.9769 0 0 1 179.6665 202.7633)" class="st8 st6 st9">2</text>
	<text transform="matrix(0.9769 0 0 1 179.6665 134.7755)" class="st5 st6 st9">6</text>
</g>
<g transform="translate(338.61607142857144,0)">
	<line class="st4" x1="197.4" y1="413.5" x2="197.4" y2="420.3"/>
	<text transform="matrix(0.9769 0 0 1 165.4559 437.4)" class="st5 st6 st7">México</text>
	<text transform="matrix(0.9769 0 0 1 192.7361 398.2271)" class="st8 st6 st9">1</text>
	<text transform="matrix(0.9769 0 0 1 192.7361 355.735)" class="st8 st6 st9">1</text>
	<text transform="matrix(0.9769 0 0 1 192.7361 287.7477)" class="st8 st6 st9">2</text>
	<text transform="matrix(0.9769 0 0 1 192.7361 224.859)" class="st5 st6 st9">4</text>
</g>
<g transform="translate(460.8482142857143,0)">
	<line class="st4" x1="210.4" y1="413.5" x2="210.4" y2="420.3"/>
	<text transform="matrix(0.9769 0 0 1 187.42 437.4)" class="st5 st6 st7">Chile</text>
	<text transform="matrix(0.9769 0 0 1 205.8058 377.8316)" class="st8 st6 st9">2</text>
	<text transform="matrix(0.9769 0 0 1 205.8058 313.2428)" class="st5 st6 st9">2</text>
</g>
<g id="yAxis">
	<path class="st10" d="M161.1,413.5V101.9"/>
	<g transform="translate(0,275)">
		<line class="st4" x1="161.1" y1="138.5" x2="154.5" y2="138.5"/>
	</g>
	<g transform="translate(0,255.35714285714286)">
		<line class="st4" x1="161.1" y1="135.9" x2="154.5" y2="135.9"/>
	</g>
</g>
<text transform="matrix(0.9769 0 0 1 729.9479 408.9928)" class="st5 st6 st11">País</text>
<rect x="121.3" y="323.1" class="st1" width="24.9" height="27.2"/>
<text transform="matrix(0.914 0 0 1 154.5055 345.774)" class="st5 st6 st12">Bronce</text>
<rect x="117.2" y="125.9" class="st3" width="24.9" height="27.2"/>
<text transform="matrix(0.914 0 0 1 150.3551 148.6178)" class="st5 st6 st12">Oro</text>
<rect x="117.2" y="224.9" class="st2" width="24.9" height="27.2"/>
<text transform="matrix(0.914 0 0 1 150.3551 247.5645)" class="st5 st6 st12">Plata</text>
</svg>
