<svg xmlns="http://www.w3.org/2000/svg" width="905" height="500"><rect width="905" height="500" x="0" y="0" fill="#ced4da" id="backgorund"/><g id="viz"><g transform="translate(0,0)"><g transform="translate(100,50)"><g id="Bronce" fill="#cd7f32"><rect x="310.5357142857143" y="235.71428571428572" width="56.160714285714285" height="39.28571428571428"/><rect x="432.7678571428571" y="196.42857142857144" width="56.160714285714285" height="78.57142857142856"/><rect x="188.30357142857142" y="157.14285714285714" width="56.160714285714285" height="117.85714285714286"/><rect x="66.07142857142856" y="157.14285714285714" width="56.160714285714285" height="117.85714285714286"/></g><g id="Plata" fill="#9d9696"><rect x="310.5357142857143" y="196.42857142857144" width="56.160714285714285" height="39.28571428571428"/><rect x="432.7678571428571" y="196.42857142857144" width="56.160714285714285" height="0"/><rect x="188.30357142857142" y="117.85714285714286" width="56.160714285714285" height="39.28571428571428"/><rect x="66.07142857142856" y="78.57142857142857" width="56.160714285714285" height="78.57142857142856"/></g><g id="Oro" fill="#bf9b0b"><rect x="310.5357142857143" y="117.85714285714286" width="56.160714285714285" height="78.57142857142856"/><rect x="432.7678571428571" y="196.42857142857144" width="56.160714285714285" height="0"/><rect x="188.30357142857142" y="39.2857142857143" width="56.160714285714285" height="78.57142857142856"/><rect x="66.07142857142856" y="0" width="56.160714285714285" height="78.57142857142856"/></g><g id="xAxis" transform="translate(0,275)" fill="none" font-size="10" font-family="sans-serif" text-anchor="middle"><path class="domain" stroke="currentColor" d="M0,0H555"/><g class="tick" opacity="1" transform="translate(94.1517857142857,0)"><line stroke="currentColor" y2="6"/><text fill="currentColor" y="9" dy="0.71em">Brasil</text></g><g class="tick" opacity="1" transform="translate(216.38392857142856,0)"><line stroke="currentColor" y2="6"/><text fill="currentColor" y="9" dy="0.71em">Estados Unidos</text></g><g class="tick" opacity="1" transform="translate(338.61607142857144,0)"><line stroke="currentColor" y2="6"/><text fill="currentColor" y="9" dy="0.71em">México</text></g><g class="tick" opacity="1" transform="translate(460.8482142857143,0)"><line stroke="currentColor" y2="6"/><text fill="currentColor" y="9" dy="0.71em">Chile</text></g></g><g id="yAxis" fill="none" font-size="10" font-family="sans-serif" text-anchor="end"><path class="domain" stroke="currentColor" d="M0,275V0"/><g class="tick" opacity="1" transform="translate(0,275)"><line stroke="currentColor" x2="-6"/><text fill="currentColor" x="-9" dy="0.32em">0</text></g><g class="tick" opacity="1" transform="translate(0,255.35714285714286)"><line stroke="currentColor" x2="-6"/><text fill="currentColor" x="-9" dy="0.32em"></text></g><g class="tick" opacity="1" transform="translate(0,235.71428571428572)"><line stroke="currentColor" x2="-6"/><text fill="currentColor" x="-9" dy="0.32em">1</text></g><g class="tick" opacity="1" transform="translate(0,216.07142857142856)"><line stroke="currentColor" x2="-6"/><text fill="currentColor" x="-9" dy="0.32em"></text></g><g class="tick" opacity="1" transform="translate(0,196.42857142857144)"><line stroke="currentColor" x2="-6"/><text fill="currentColor" x="-9" dy="0.32em">2</text></g><g class="tick" opacity="1" transform="translate(0,176.78571428571428)"><line stroke="currentColor" x2="-6"/><text fill="currentColor" x="-9" dy="0.32em"></text></g><g class="tick" opacity="1" transform="translate(0,157.14285714285714)"><line stroke="currentColor" x2="-6"/><text fill="currentColor" x="-9" dy="0.32em">3</text></g><g class="tick" opacity="1" transform="translate(0,137.5)"><line stroke="currentColor" x2="-6"/><text fill="currentColor" x="-9" dy="0.32em"></text></g><g class="tick" opacity="1" transform="translate(0,117.85714285714286)"><line stroke="currentColor" x2="-6"/><text fill="currentColor" x="-9" dy="0.32em">4</text></g><g class="tick" opacity="1" transform="translate(0,98.21428571428571)"><line stroke="currentColor" x2="-6"/><text fill="currentColor" x="-9" dy="0.32em"></text></g><g class="tick" opacity="1" transform="translate(0,78.57142857142857)"><line stroke="currentColor" x2="-6"/><text fill="currentColor" x="-9" dy="0.32em">5</text></g><g class="tick" opacity="1" transform="translate(0,58.92857142857143)"><line stroke="currentColor" x2="-6"/><text fill="currentColor" x="-9" dy="0.32em"></text></g><g class="tick" opacity="1" transform="translate(0,39.2857142857143)"><line stroke="currentColor" x2="-6"/><text fill="currentColor" x="-9" dy="0.32em">6</text></g><g class="tick" opacity="1" transform="translate(0,19.642857142857135)"><line stroke="currentColor" x2="-6"/><text fill="currentColor" x="-9" dy="0.32em"></text></g><g class="tick" opacity="1" transform="translate(0,0)"><line stroke="currentColor" x2="-6"/><text fill="currentColor" x="-9" dy="0.32em">7</text></g></g><text y="271" x="555" text-anchor="end" style="font-family: Arial, sans-serif; font-size: 12px; fill: rgb(123, 123, 123); font-weight: bold;">País</text></g><text x="4" y="4" style="font-family: Arial, sans-serif; font-size: 12px; fill: black; font-weight: bold; dominant-baseline: hanging;"/></g><g id="grid"><rect x="0" y="0" width="805" height="500" fill="none" stroke="#ccc"/></g></g><g id="legend" transform="translate(505,50)"><g transform="translate(5,0)"><g class="legendColor" transform="translate(0,0)"><g class="legendCells" transform="translate(0,15.5)"><g class="cell" transform="translate(0, 0)"><rect class="swatch" height="15" width="15" style="fill: rgb(205, 127, 50);"/><text class="label" transform="translate( 20, 12.5)" font-family="&quot;Arial&quot;, sans-serif" font-size="10px"><tspan x="0" dy="0em">Bronce</tspan></text></g><g class="cell" transform="translate(0, 20.5)"><rect class="swatch" height="15" width="15" style="fill: rgb(191, 155, 11);"/><text class="label" transform="translate( 20, 12.5)" font-family="&quot;Arial&quot;, sans-serif" font-size="10px"><tspan x="0" dy="0em">Oro</tspan></text></g><g class="cell" transform="translate(0, 41)"><rect class="swatch" height="15" width="15" style="fill: rgb(157, 150, 150);"/><text class="label" transform="translate( 20, 12.5)" font-family="&quot;Arial&quot;, sans-serif" font-size="10px"><tspan x="0" dy="0em">Plata</tspan></text></g></g><text class="legendTitle" font-family="&quot;Arial&quot;, sans-serif" font-size="12px" font-weight="bold"><tspan x="0" dy="0em"></tspan></text></g></g></g></svg>