<?xml version="1.0" encoding="utf-8"?>
<!-- Generator: Adobe Illustrator 27.0.0, SVG Export Plug-In . SVG Version: 6.00 Build 0)  -->
<svg version="1.1" xmlns="http://www.w3.org/2000/svg" xmlns:xlink="http://www.w3.org/1999/xlink" x="0px" y="0px"
	 viewBox="0 0 805 500" style="enable-background:new 0 0 805 500;" xml:space="preserve">
<style type="text/css">
	.st0{fill:#F7CBCB;}
	.st1{fill:#E57D28;}
	.st2{fill:#AA9F9F;}
	.st3{fill:#E0B334;}
	.st4{fill:none;}
	.st5{fill:#7B7B7B;}
	.st6{font-family:'Arial-BoldMT';}
	.st7{font-size:19.2632px;}
	.st8{fill:#FFFFFF;}
	.st9{font-size:16.9969px;}
	.st10{fill:#CED4DA;}
	.st11{font-size:22.6625px;}
	.st12{fill:none;stroke:#CCCCCC;}
	.st13{font-size:21.7964px;}
</style>
<g id="Capa_2">
	<rect id="backgorund" y="0" class="st0" width="805" height="500"/>
</g>
<g id="Capa_1">
	<g id="Bronce">
		<rect x="467.8" y="345.8" class="st1" width="62.2" height="44.5"/>
		<rect x="603.1" y="301.2" class="st1" width="62.2" height="89"/>
		<rect x="332.5" y="256.7" class="st1" width="62.2" height="133.5"/>
		<rect x="197.2" y="256.7" class="st1" width="62.2" height="133.5"/>
	</g>
	<g id="Plata">
		<rect x="467.8" y="301.2" class="st2" width="62.2" height="44.5"/>
		<polygon class="st2" points="603.1,301.2 665.3,301.2 665.3,301.2 		"/>
		<rect x="332.5" y="212.2" class="st2" width="62.2" height="44.5"/>
		<rect x="197.2" y="167.7" class="st2" width="62.2" height="89"/>
	</g>
	<g id="Oro">
		<rect x="467.8" y="212.2" class="st3" width="62.2" height="89"/>
		<polygon class="st3" points="603.1,301.2 665.3,301.2 665.3,301.2 		"/>
		<rect x="332.5" y="123.2" class="st3" width="62.2" height="89"/>
		<rect x="197.2" y="78.7" class="st3" width="62.2" height="89"/>
	</g>
	<g transform="translate(94.1517857142857,0)">
		<line class="st4" x1="134.2" y1="390.3" x2="134.2" y2="397.1"/>
		<text transform="matrix(0.9769 0 0 1 108.0251 414.1556)" class="st5 st6 st7">Brasil</text>
		<text transform="matrix(0.9769 0 0 1 129.5583 332.4906)" class="st8 st6 st9">3</text>
		<text transform="matrix(0.9769 0 0 1 129.5583 213.5126)" class="st8 st6 st9">2</text>
		<text transform="matrix(0.9769 0 0 1 129.5583 128.5282)" class="st8 st6 st9">2</text>
		<text transform="matrix(0.9769 0 0 1 129.5583 67.3392)" class="st5 st6 st9">7</text>
	</g>
	<g transform="translate(216.38392857142856,0)">
		<line class="st4" x1="147.2" y1="390.3" x2="147.2" y2="397.1"/>
		<text transform="matrix(0.9769 0 0 1 76.1455 414.1556)" class="st5 st6 st7">Estados Unidos</text>
		<text transform="matrix(0.9769 0 0 1 142.6274 332.4906)" class="st8 st6 st9">3</text>
		<text transform="matrix(0.9769 0 0 1 142.6274 239.0082)" class="st8 st6 st9">1</text>
		<text transform="matrix(0.9769 0 0 1 142.6274 179.5189)" class="st8 st6 st9">2</text>
		<text transform="matrix(0.9769 0 0 1 142.6274 111.5311)" class="st5 st6 st9">6</text>
	</g>
	<g transform="translate(338.61607142857144,0)">
		<line class="st4" x1="160.3" y1="390.3" x2="160.3" y2="397.1"/>
		<text transform="matrix(0.9769 0 0 1 128.4167 414.1556)" class="st5 st6 st7">México</text>
		<text transform="matrix(0.9769 0 0 1 155.697 374.9828)" class="st8 st6 st9">1</text>
		<text transform="matrix(0.9769 0 0 1 155.697 332.4906)" class="st8 st6 st9">1</text>
		<text transform="matrix(0.9769 0 0 1 155.697 264.5033)" class="st8 st6 st9">2</text>
		<text transform="matrix(0.9769 0 0 1 155.697 201.6146)" class="st5 st6 st9">4</text>
	</g>
	<g transform="translate(460.8482142857143,0)">
		<line class="st4" x1="173.4" y1="390.3" x2="173.4" y2="397.1"/>
		<text transform="matrix(0.9769 0 0 1 150.3809 414.1556)" class="st5 st6 st7">Chile</text>
		<text transform="matrix(0.9769 0 0 1 168.7666 354.5873)" class="st8 st6 st9">2</text>
		<text transform="matrix(0.9769 0 0 1 168.7666 289.9984)" class="st5 st6 st9">2</text>
	</g>
	<g id="yAxis">
		<path class="st10" d="M124.1,390.3V78.7"/>
		<g transform="translate(0,275)">
			<line class="st4" x1="124.1" y1="115.3" x2="117.5" y2="115.3"/>
		</g>
		<g transform="translate(0,255.35714285714286)">
			<line class="st4" x1="124.1" y1="112.7" x2="117.5" y2="112.7"/>
		</g>
	</g>
	<text transform="matrix(0.9769 0 0 1 692.9088 385.7484)" class="st5 st6 st11">País</text>
	<g id="grid">
		<rect y="0" class="st12" width="805" height="500"/>
	</g>
	<rect x="84.3" y="299.8" class="st1" width="24.9" height="27.2"/>
	<text transform="matrix(0.914 0 0 1 117.4664 322.5297)" class="st5 st6 st13">Bronce</text>
	<rect x="80.1" y="102.7" class="st3" width="24.9" height="27.2"/>
	<text transform="matrix(0.914 0 0 1 113.316 125.3734)" class="st5 st6 st13">Oro</text>
	<rect x="80.1" y="201.6" class="st2" width="24.9" height="27.2"/>
	<text transform="matrix(0.914 0 0 1 113.316 224.3202)" class="st5 st6 st13">Plata</text>
</g>
</svg>
